999
autodxfXMIN:1,397940252E-07
999
autodxfXMAX:1185,80617575665
999
autodxfYMIN:1,343848233E-07
999
autodxfYMAX:50,00000013438482
0
SECTION
2
HEADER
9
$ACADVER
1
AC1015
9
$DWGCODEPAGE
3
ANSI_1251
9
$HANDSEED
5
19C
9
$ANGBASE
50
0.0
9
$ANGDIR
70
0
9
$ATTMODE
70
1
9
$AUNITS
70
0
9
$AUPREC
70
0
9
$CECOLOR
62
256
9
$CELTSCALE
40
1.0
9
$CELTYPE
6
ByLayer
9
$CELWEIGHT
370
-1
9
$CLAYER
8
0
9
$CMLJUST
70
0
9
$CMLSCALE
40
1.0
9
$CMLSTYLE
2
Standard
9
$DIMSTYLE
2
Standard
9
$TEXTSIZE
40
0.2
9
$TEXTSTYLE
7
Standard
9
$LUNITS
70
2
9
$LUPREC
70
4
9
$MIRRTEXT
70
0
9
$EXTNAMES
290
1
9
$INSBASE
10
0.0
20
0.0
30
0.0
9
$INSUNITS
70
4
9
$LTSCALE
40
1.0
9
$LWDISPLAY
290
0
9
$PDMODE
70
0
9
$PDSIZE
40
0.0
9
$PLINEGEN
70
0
9
$PSLTSCALE
70
1
9
$SPLINESEGS
70
6
9
$SURFU
70
6
9
$SURFV
70
6
9
$TDCREATE
40
2460584.51150463
9
$TDUCREATE
40
2460584.38650462
9
$TDUPDATE
40
2460584.51150463
9
$TDUUPDATE
40
2460584.38650462
9
$TDINDWG
40
0.0
9
$UCSORG
10
0.0
20
0.0
30
0.0
9
$UCSXDIR
10
1.0
20
0.0
30
0.0
9
$UCSYDIR
10
0.0
20
1.0
30
0.0
9
$DIMADEC
70
0
9
$DIMALT
70
0
9
$DIMALTD
70
2
9
$DIMALTF
40
25.4
9
$DIMALTRND
40
0.0
9
$DIMALTTD
70
2
9
$DIMALTTZ
70
0
9
$DIMALTU
70
2
9
$DIMALTZ
70
0
9
$DIMAPOST
1

9
$DIMATFIT
70
3
9
$DIMAUNIT
70
0
9
$DIMASZ
40
0.18
9
$DIMAZIN
70
3
9
$DIMSAH
70
0
9
$DIMBLK
1

9
$DIMLDRBLK
1

9
$DIMCEN
40
0.09
9
$DIMCLRD
70
0
9
$DIMCLRE
70
0
9
$DIMCLRT
70
0
9
$DIMDEC
70
4
9
$DIMDLE
40
0.0
9
$DIMDLI
40
0.38
9
$DIMDSEP
70
46
9
$DIMEXE
40
0.18
9
$DIMEXO
40
0.0625
9
$DIMFXLON
70
0
9
$DIMFXL
40
1.0
9
$DIMGAP
40
0.09
9
$DIMJUST
70
0
9
$DIMLFAC
40
1.0
9
$DIMLUNIT
70
2
9
$DIMLWD
70
-2
9
$DIMLWE
70
-2
9
$DIMPOST
1

9
$DIMRND
40
0.0
9
$DIMSCALE
40
1.0
9
$DIMSD1
70
0
9
$DIMSD2
70
0
9
$DIMSE1
70
0
9
$DIMSE2
70
0
9
$DIMSOXD
70
0
9
$DIMTAD
70
0
9
$DIMTDEC
70
4
9
$DIMTFAC
40
1.0
9
$DIMTIH
70
0
9
$DIMTIX
70
0
9
$DIMTM
40
0.0
9
$DIMTMOVE
70
0
9
$DIMTOFL
70
0
9
$DIMTOH
70
0
9
$DIMTOL
70
0
9
$DIMLIM
70
0
9
$DIMTOLJ
70
1
9
$DIMTP
40
0.0
9
$DIMTXT
40
0.18
9
$DIMTXTDIRECTION
70
0
9
$DIMTZIN
70
0
9
$DIMZIN
70
0
9
$DIMFRAC
70
0
9
$DIMLTYPE
6
ByBlock
9
$DIMLTEX1
6
ByBlock
9
$DIMLTEX2
6
ByBlock
9
$EXTMIN
10
0.0
20
0.0
30
0.0
9
$EXTMAX
10
1185.80617561686
20
50.5771126804883
30
0.0
9
$LIMMIN
10
0.0
20
0.0
9
$LIMMAX
10
1185.80617561686
20
50.5771126804883
9
$ORTHOMODE
70
0
9
$REGENMODE
70
1
9
$FILLMODE
70
1
9
$QTEXTMODE
70
0
9
$TRACEWID
40
0.05
9
$DISPSILH
70
0
9
$SKETCHINC
40
0.1
9
$FILLETRAD
40
0.0
9
$MENU
1
.
9
$ELEVATION
40
0.0
9
$PELEVATION
40
0.0
9
$THICKNESS
40
0.0
9
$LIMCHECK
70
0
9
$CHAMFERA
40
0.0
9
$CHAMFERB
40
0.0
9
$CHAMFERC
40
0.0
9
$CHAMFERD
40
0.0
9
$SKPOLY
70
0
9
$TDUSRTIMER
40
0.0
9
$USRTIMER
70
1
9
$PLINEWID
40
0.0
9
$SPLFRAME
70
0
9
$SPLINETYPE
70
6
9
$SURFTAB1
70
6
9
$SURFTAB2
70
6
9
$SURFTYPE
70
6
9
$UCSBASE
2

9
$UCSNAME
2

9
$UCSORTHOREF
2

9
$UCSORTHOVIEW
70
0
9
$UCSORGTOP
10
0.0
20
0.0
30
0.0
9
$UCSORGBOTTOM
10
0.0
20
0.0
30
0.0
9
$UCSORGLEFT
10
0.0
20
0.0
30
0.0
9
$UCSORGRIGHT
10
0.0
20
0.0
30
0.0
9
$UCSORGFRONT
10
0.0
20
0.0
30
0.0
9
$UCSORGBACK
10
0.0
20
0.0
30
0.0
9
$PUCSBASE
2

9
$PUCSNAME
2

9
$PUCSORG
10
0.0
20
0.0
30
0.0
9
$PUCSXDIR
10
1.0
20
0.0
30
0.0
9
$PUCSYDIR
10
0.0
20
1.0
30
0.0
9
$PUCSORTHOREF
2

9
$PUCSORTHOVIEW
70
0
9
$PUCSORGTOP
10
0.0
20
0.0
30
0.0
9
$PUCSORGBOTTOM
10
0.0
20
0.0
30
0.0
9
$PUCSORGLEFT
10
0.0
20
0.0
30
0.0
9
$PUCSORGRIGHT
10
0.0
20
0.0
30
0.0
9
$PUCSORGFRONT
10
0.0
20
0.0
30
0.0
9
$PUCSORGBACK
10
0.0
20
0.0
30
0.0
9
$USERI1
70
0
9
$USERI2
70
0
9
$USERI3
70
0
9
$USERI4
70
0
9
$USERI5
70
0
9
$USERR1
40
0.0
9
$USERR2
40
0.0
9
$USERR3
40
0.0
9
$USERR4
40
0.0
9
$USERR5
40
0.0
9
$WORLDVIEW
70
1
9
$SHADEDGE
70
3
9
$SHADEDIF
70
70
9
$TILEMODE
70
1
9
$MAXACTVP
70
64
9
$PINSBASE
10
0.0
20
0.0
30
0.0
9
$PLIMCHECK
70
0
9
$PEXTMIN
10
0.0
20
0.0
30
0.0
9
$PEXTMAX
10
1185.80617561686
20
50.5771126804883
30
0.0
9
$PLIMMIN
10
0.0
20
0.0
9
$PLIMMAX
10
1185.80617561686
20
50.5771126804883
9
$UNITMODE
70
0
9
$VISRETAIN
70
1
9
$TREEDEPTH
70
3020
9
$PROXYGRAPHICS
70
1
9
$MEASUREMENT
70
1
9
$ENDCAPS
280
0
9
$JOINSTYLE
280
0
9
$HYPERLINKBASE
1

9
$STYLESHEET
1

9
$XEDIT
290
1
9
$CEPSNTYPE
380
0
9
$PSTYLEMODE
290
1
9
$FINGERPRINTGUID
2
{490870E0-B829-9F44-B27B-142915F88A43}
9
$VERSIONGUID
2
{9C091545-1E04-864B-8733-5D3FD682BBB9}
9
$PSVPSCALE
40
0.0
9
$OLESTARTUP
290
0
0
ENDSEC
0
SECTION
2
CLASSES
0
CLASS
1
RASTERVARIABLES
2
AcDbRasterVariables
3
ISM
90
0
280
0
281
0
0
ENDSEC
0
SECTION
2
TABLES
0
TABLE
2
APPID
5
9
330
0
100
AcDbSymbolTable
70
7
0
APPID
5
56
330
9
100
AcDbSymbolTableRecord
100
AcDbRegAppTableRecord
2
ACAD
70
0
0
APPID
5
5E
330
9
100
AcDbSymbolTableRecord
100
AcDbRegAppTableRecord
2
AcadAnnotative
70
0
0
APPID
5
177
330
9
100
AcDbSymbolTableRecord
100
AcDbRegAppTableRecord
2
ACAD_MLEADERVER
70
0
0
APPID
5
196
330
9
100
AcDbSymbolTableRecord
100
AcDbRegAppTableRecord
2
AcCmTransparency
70
0
0
APPID
5
197
330
9
100
AcDbSymbolTableRecord
100
AcDbRegAppTableRecord
2
AcAecLayerStandard
70
0
0
APPID
5
198
330
9
100
AcDbSymbolTableRecord
100
AcDbRegAppTableRecord
2
GradientColor1ACI
70
0
0
APPID
5
199
330
9
100
AcDbSymbolTableRecord
100
AcDbRegAppTableRecord
2
GradientColor2ACI
70
0
0
ENDTAB
0
TABLE
2
VPORT
5
8
330
0
100
AcDbSymbolTable
70
1
0
VPORT
5
188
330
8
100
AcDbSymbolTableRecord
100
AcDbViewportTableRecord
2
*Active
70
0
10
0.0
20
0.0
11
1.0
21
1.0
12
592.903087948222
22
25.0000001343848
13
0.0
23
0.0
14
0.5
24
0.5
15
10.0
25
10.0
16
0.0
26
0.0
36
1.0
17
0.0
27
0.0
37
0.0
40
1304.391
41
1.0
75
0
76
1
0
ENDTAB
0
TABLE
2
LTYPE
5
5
330
0
100
AcDbSymbolTable
70
48
0
LTYPE
5
5B
330
5
100
AcDbSymbolTableRecord
100
AcDbLinetypeTableRecord
2
ByBlock
70
0
3

72
65
73
0
40
0.0
0
LTYPE
5
5C
330
5
100
AcDbSymbolTableRecord
100
AcDbLinetypeTableRecord
2
ByLayer
70
0
3

72
65
73
0
40
0.0
0
LTYPE
5
5D
330
5
100
AcDbSymbolTableRecord
100
AcDbLinetypeTableRecord
2
Continuous
70
0
3
Solid line
72
65
73
0
40
0.0
0
LTYPE
5
78
330
5
100
AcDbSymbolTableRecord
100
AcDbLinetypeTableRecord
2
BORDER
70
0
3
Border __ __ . __ __ . __ __ . __ __ . __ __ .
72
65
73
6
40
1.75
49
0.5
74
0
49
-0.25
74
0
49
0.5
74
0
49
-0.25
74
0
49
0.0
74
0
49
-0.25
74
0
0
LTYPE
5
79
330
5
100
AcDbSymbolTableRecord
100
AcDbLinetypeTableRecord
2
BORDER2
70
0
3
Border (.5x) __.__.__.__.__.__.__.__.__.__.__.
72
65
73
6
40
0.875
49
0.25
74
0
49
-0.125
74
0
49
0.25
74
0
49
-0.125
74
0
49
0.0
74
0
49
-0.125
74
0
0
LTYPE
5
7A
330
5
100
AcDbSymbolTableRecord
100
AcDbLinetypeTableRecord
2
BORDERX2
70
0
3
Border (2x) ____  ____  .  ____  ____  .  ___
72
65
73
6
40
3.5
49
1.0
74
0
49
-0.5
74
0
49
1.0
74
0
49
-0.5
74
0
49
0.0
74
0
49
-0.5
74
0
0
LTYPE
5
7B
330
5
100
AcDbSymbolTableRecord
100
AcDbLinetypeTableRecord
2
CENTER
70
0
3
Center ____ _ ____ _ ____ _ ____ _ ____ _ ____
72
65
73
4
40
2.0
49
1.25
74
0
49
-0.25
74
0
49
0.25
74
0
49
-0.25
74
0
0
LTYPE
5
7C
330
5
100
AcDbSymbolTableRecord
100
AcDbLinetypeTableRecord
2
CENTER2
70
0
3
Center (.5x) ___ _ ___ _ ___ _ ___ _ ___ _ ___
72
65
73
4
40
1.125
49
0.75
74
0
49
-0.125
74
0
49
0.125
74
0
49
-0.125
74
0
0
LTYPE
5
7D
330
5
100
AcDbSymbolTableRecord
100
AcDbLinetypeTableRecord
2
CENTERX2
70
0
3
Center (2x) ________  __  ________  __  _____
72
65
73
4
40
4.0
49
2.5
74
0
49
-0.5
74
0
49
0.5
74
0
49
-0.5
74
0
0
LTYPE
5
7E
330
5
100
AcDbSymbolTableRecord
100
AcDbLinetypeTableRecord
2
DASHDOT
70
0
3
Dash dot __ . __ . __ . __ . __ . __ . __ . __
72
65
73
4
40
1.0
49
0.5
74
0
49
-0.25
74
0
49
0.0
74
0
49
-0.25
74
0
0
LTYPE
5
7F
330
5
100
AcDbSymbolTableRecord
100
AcDbLinetypeTableRecord
2
DASHDOT2
70
0
3
Dash dot (.5x) _._._._._._._._._._._._._._._.
72
65
73
4
40
0.5
49
0.25
74
0
49
-0.125
74
0
49
0.0
74
0
49
-0.125
74
0
0
LTYPE
5
80
330
5
100
AcDbSymbolTableRecord
100
AcDbLinetypeTableRecord
2
DASHDOTX2
70
0
3
Dash dot (2x) ____  .  ____  .  ____  .  ___
72
65
73
4
40
2.0
49
1.0
74
0
49
-0.5
74
0
49
0.0
74
0
49
-0.5
74
0
0
LTYPE
5
81
330
5
100
AcDbSymbolTableRecord
100
AcDbLinetypeTableRecord
2
DASHED
70
0
3
Dashed __ __ __ __ __ __ __ __ __ __ __ __ __ _
72
65
73
2
40
0.75
49
0.5
74
0
49
-0.25
74
0
0
LTYPE
5
82
330
5
100
AcDbSymbolTableRecord
100
AcDbLinetypeTableRecord
2
DASHED2
70
0
3
Dashed (.5x) _ _ _ _ _ _ _ _ _ _ _ _ _ _ _ _ _
72
65
73
2
40
0.375
49
0.25
74
0
49
-0.125
74
0
0
LTYPE
5
83
330
5
100
AcDbSymbolTableRecord
100
AcDbLinetypeTableRecord
2
DASHEDX2
70
0
3
Dashed (2x) ____  ____  ____  ____  ____  ___
72
65
73
2
40
1.5
49
1.0
74
0
49
-0.5
74
0
0
LTYPE
5
84
330
5
100
AcDbSymbolTableRecord
100
AcDbLinetypeTableRecord
2
DIVIDE
70
0
3
Divide ____ . . ____ . . ____ . . ____ . . ____
72
65
73
6
40
1.25
49
0.5
74
0
49
-0.25
74
0
49
0.0
74
0
49
-0.25
74
0
49
0.0
74
0
49
-0.25
74
0
0
LTYPE
5
85
330
5
100
AcDbSymbolTableRecord
100
AcDbLinetypeTableRecord
2
DIVIDE2
70
0
3
Divide (.5x) __..__..__..__..__..__..__..__.._
72
65
73
6
40
0.625
49
0.25
74
0
49
-0.125
74
0
49
0.0
74
0
49
-0.125
74
0
49
0.0
74
0
49
-0.125
74
0
0
LTYPE
5
86
330
5
100
AcDbSymbolTableRecord
100
AcDbLinetypeTableRecord
2
DIVIDEX2
70
0
3
Divide (2x) ________  .  .  ________  .  .  _
72
65
73
6
40
2.5
49
1.0
74
0
49
-0.5
74
0
49
0.0
74
0
49
-0.5
74
0
49
0.0
74
0
49
-0.5
74
0
0
LTYPE
5
87
330
5
100
AcDbSymbolTableRecord
100
AcDbLinetypeTableRecord
2
DOT
70
0
3
Dot . . . . . . . . . . . . . . . . . . . . . .
72
65
73
2
40
0.25
49
0.0
74
0
49
-0.25
74
0
0
LTYPE
5
88
330
5
100
AcDbSymbolTableRecord
100
AcDbLinetypeTableRecord
2
DOT2
70
0
3
Dot (.5x) .....................................
72
65
73
2
40
0.125
49
0.0
74
0
49
-0.125
74
0
0
LTYPE
5
89
330
5
100
AcDbSymbolTableRecord
100
AcDbLinetypeTableRecord
2
DOTX2
70
0
3
Dot (2x) .  .  .  .  .  .  .  .  .  .  .  .  . 
72
65
73
2
40
0.5
49
0.0
74
0
49
-0.5
74
0
0
LTYPE
5
8A
330
5
100
AcDbSymbolTableRecord
100
AcDbLinetypeTableRecord
2
HIDDEN
70
0
3
Hidden __ __ __ __ __ __ __ __ __ __ __ __ __ _
72
65
73
2
40
0.375
49
0.25
74
0
49
-0.125
74
0
0
LTYPE
5
8B
330
5
100
AcDbSymbolTableRecord
100
AcDbLinetypeTableRecord
2
HIDDEN2
70
0
3
Hidden (.5x) _ _ _ _ _ _ _ _ _ _ _ _ _ _ _ _ _
72
65
73
2
40
0.1875
49
0.125
74
0
49
-0.0625
74
0
0
LTYPE
5
8C
330
5
100
AcDbSymbolTableRecord
100
AcDbLinetypeTableRecord
2
HIDDENX2
70
0
3
Hidden (2x) ____ ____ ____ ____ ____ ____ ____
72
65
73
2
40
0.75
49
0.5
74
0
49
-0.25
74
0
0
LTYPE
5
8D
330
5
100
AcDbSymbolTableRecord
100
AcDbLinetypeTableRecord
2
PHANTOM
70
0
3
Phantom ______  __  __  ______  __  __  ______
72
65
73
6
40
2.5
49
1.25
74
0
49
-0.25
74
0
49
0.25
74
0
49
-0.25
74
0
49
0.25
74
0
49
-0.25
74
0
0
LTYPE
5
8E
330
5
100
AcDbSymbolTableRecord
100
AcDbLinetypeTableRecord
2
PHANTOM2
70
0
3
Phantom (.5x) ___ _ _ ___ _ _ ___ _ _ ___ _ _
72
65
73
6
40
1.25
49
0.625
74
0
49
-0.125
74
0
49
0.125
74
0
49
-0.125
74
0
49
0.125
74
0
49
-0.125
74
0
0
LTYPE
5
8F
330
5
100
AcDbSymbolTableRecord
100
AcDbLinetypeTableRecord
2
PHANTOMX2
70
0
3
Phantom (2x) ____________    ____    ____   _
72
65
73
6
40
5.0
49
2.5
74
0
49
-0.5
74
0
49
0.5
74
0
49
-0.5
74
0
49
0.5
74
0
49
-0.5
74
0
0
LTYPE
5
90
330
5
100
AcDbSymbolTableRecord
100
AcDbLinetypeTableRecord
2
ACAD_ISO02W100
70
0
3
ISO dash __ __ __ __ __ __ __ __ __ __ __ __ __
72
65
73
2
40
15.0
49
12.0
74
0
49
-3.0
74
0
0
LTYPE
5
91
330
5
100
AcDbSymbolTableRecord
100
AcDbLinetypeTableRecord
2
ACAD_ISO03W100
70
0
3
ISO dash space __    __    __    __    __    __
72
65
73
2
40
30.0
49
12.0
74
0
49
-18.0
74
0
0
LTYPE
5
92
330
5
100
AcDbSymbolTableRecord
100
AcDbLinetypeTableRecord
2
ACAD_ISO04W100
70
0
3
ISO long-dash dot ____ . ____ . ____ . ____ . _
72
65
73
4
40
30.0
49
24.0
74
0
49
-3.0
74
0
49
0.0
74
0
49
-3.0
74
0
0
LTYPE
5
93
330
5
100
AcDbSymbolTableRecord
100
AcDbLinetypeTableRecord
2
ACAD_ISO05W100
70
0
3
ISO long-dash double-dot ____ .. ____ .. ____ .
72
65
73
6
40
33.0
49
24.0
74
0
49
-3.0
74
0
49
0.0
74
0
49
-3.0
74
0
49
0.0
74
0
49
-3.0
74
0
0
LTYPE
5
94
330
5
100
AcDbSymbolTableRecord
100
AcDbLinetypeTableRecord
2
ACAD_ISO06W100
70
0
3
ISO long-dash triple-dot ____ ... ____ ... ____
72
65
73
8
40
36.0
49
24.0
74
0
49
-3.0
74
0
49
0.0
74
0
49
-3.0
74
0
49
0.0
74
0
49
-3.0
74
0
49
0.0
74
0
49
-3.0
74
0
0
LTYPE
5
95
330
5
100
AcDbSymbolTableRecord
100
AcDbLinetypeTableRecord
2
ACAD_ISO07W100
70
0
3
ISO dot . . . . . . . . . . . . . . . . . . . .
72
65
73
2
40
3.0
49
0.0
74
0
49
-3.0
74
0
0
LTYPE
5
96
330
5
100
AcDbSymbolTableRecord
100
AcDbLinetypeTableRecord
2
ACAD_ISO08W100
70
0
3
ISO long-dash short-dash ____ __ ____ __ ____ _
72
65
73
4
40
36.0
49
24.0
74
0
49
-3.0
74
0
49
6.0
74
0
49
-3.0
74
0
0
LTYPE
5
97
330
5
100
AcDbSymbolTableRecord
100
AcDbLinetypeTableRecord
2
ACAD_ISO09W100
70
0
3
ISO long-dash double-short-dash ____ __ __ ____
72
65
73
6
40
45.0
49
24.0
74
0
49
-3.0
74
0
49
6.0
74
0
49
-3.0
74
0
49
6.0
74
0
49
-3.0
74
0
0
LTYPE
5
98
330
5
100
AcDbSymbolTableRecord
100
AcDbLinetypeTableRecord
2
ACAD_ISO10W100
70
0
3
ISO dash dot __ . __ . __ . __ . __ . __ . __ .
72
65
73
4
40
18.0
49
12.0
74
0
49
-3.0
74
0
49
0.0
74
0
49
-3.0
74
0
0
LTYPE
5
99
330
5
100
AcDbSymbolTableRecord
100
AcDbLinetypeTableRecord
2
ACAD_ISO11W100
70
0
3
ISO double-dash dot __ __ . __ __ . __ __ . __ 
72
65
73
6
40
33.0
49
12.0
74
0
49
-3.0
74
0
49
12.0
74
0
49
-3.0
74
0
49
0.0
74
0
49
-3.0
74
0
0
LTYPE
5
9A
330
5
100
AcDbSymbolTableRecord
100
AcDbLinetypeTableRecord
2
ACAD_ISO12W100
70
0
3
ISO dash double-dot __ . . __ . . __ . . __ . .
72
65
73
6
40
21.0
49
12.0
74
0
49
-3.0
74
0
49
0.0
74
0
49
-3.0
74
0
49
0.0
74
0
49
-3.0
74
0
0
LTYPE
5
9B
330
5
100
AcDbSymbolTableRecord
100
AcDbLinetypeTableRecord
2
ACAD_ISO13W100
70
0
3
ISO double-dash double-dot __ __ . . __ __ . . 
72
65
73
8
40
36.0
49
12.0
74
0
49
-3.0
74
0
49
12.0
74
0
49
-3.0
74
0
49
0.0
74
0
49
-3.0
74
0
49
0.0
74
0
49
-3.0
74
0
0
LTYPE
5
9C
330
5
100
AcDbSymbolTableRecord
100
AcDbLinetypeTableRecord
2
ACAD_ISO14W100
70
0
3
ISO dash triple-dot __ . . . __ . . . __ . . . 
72
65
73
8
40
24.0
49
12.0
74
0
49
-3.0
74
0
49
0.0
74
0
49
-3.0
74
0
49
0.0
74
0
49
-3.0
74
0
49
0.0
74
0
49
-3.0
74
0
0
LTYPE
5
9D
330
5
100
AcDbSymbolTableRecord
100
AcDbLinetypeTableRecord
2
ACAD_ISO15W100
70
0
3
ISO double-dash triple-dot __ __ . . . __ __ . 
72
65
73
10
40
39.0
49
12.0
74
0
49
-3.0
74
0
49
12.0
74
0
49
-3.0
74
0
49
0.0
74
0
49
-3.0
74
0
49
0.0
74
0
49
-3.0
74
0
49
0.0
74
0
49
-3.0
74
0
0
LTYPE
5
A0
330
5
100
AcDbSymbolTableRecord
100
AcDbLinetypeTableRecord
2
FENCELINE1
70
0
3
Fenceline circle ----0-----0----0-----0----0---
72
65
73
3
40
1.35
49
0.25
74
0
49
-0.1
74
0
49
1.0
74
0
0
LTYPE
5
A1
330
5
100
AcDbSymbolTableRecord
100
AcDbLinetypeTableRecord
2
FENCELINE2
70
0
3
Fenceline square ----[]-----[]----[]-----[]----
72
65
73
3
40
1.35
49
0.25
74
0
49
-0.1
74
0
49
1.0
74
0
0
LTYPE
5
A2
330
5
100
AcDbSymbolTableRecord
100
AcDbLinetypeTableRecord
2
TRACKS
70
0
3
Tracks -|-|-|-|-|-|-|-|-|-|-|-|-|-|-|-|-|-|-|-|
72
65
73
1
40
0.15
49
0.15
74
0
0
LTYPE
5
A3
330
5
100
AcDbSymbolTableRecord
100
AcDbLinetypeTableRecord
2
BATTING
70
0
3
Batting SSSSSSSSSSSSSSSSSSSSSSSSSSSSSSSSSSSSSSS
72
65
73
2
40
0.1001
49
0.0001
74
0
49
-0.1
74
0
0
LTYPE
5
A4
330
5
100
AcDbSymbolTableRecord
100
AcDbLinetypeTableRecord
2
HOT_WATER_SUPPLY
70
0
3
Hot water supply ---- HW ---- HW ---- HW ----
72
65
73
3
40
0.9
49
0.5
74
0
49
-0.2
74
2
75
0
340
55
46
0.1
50
0.0
44
-0.1
45
-0.05
9
HW
49
-0.2
74
0
0
LTYPE
5
A5
330
5
100
AcDbSymbolTableRecord
100
AcDbLinetypeTableRecord
2
GAS_LINE
70
0
3
Gas line ----GAS----GAS----GAS----GAS----GAS---
72
65
73
3
40
0.95
49
0.5
74
0
49
-0.2
74
2
75
0
340
55
46
0.1
50
0.0
44
-0.1
45
-0.05
9
GAS
49
-0.25
74
0
0
LTYPE
5
A6
330
5
100
AcDbSymbolTableRecord
100
AcDbLinetypeTableRecord
2
ZIGZAG
70
0
3
Zig zag /\/\/\/\/\/\/\/\/\/\/\/\/\/\/\/\/\/\/\/
72
65
73
2
40
0.2001
49
0.0001
74
0
49
-0.2
74
0
0
ENDTAB
0
TABLE
2
LAYER
5
2
102
{ACAD_XDICTIONARY
360
189
102
}
330
0
100
AcDbSymbolTable
70
6
0
LAYER
5
54
330
2
100
AcDbSymbolTableRecord
100
AcDbLayerTableRecord
2
0
70
0
62
7
6
Continuous
290
1
370
-3
390
0
0
LAYER
5
A7
330
2
100
AcDbSymbolTableRecord
100
AcDbLayerTableRecord
2
IV_MARK_SURFACE
70
0
62
2
6
Continuous
290
1
370
25
390
0
0
LAYER
5
A8
330
2
100
AcDbSymbolTableRecord
100
AcDbLayerTableRecord
2
IV_OUTER_PROFILE
70
0
62
7
6
Continuous
290
1
370
50
390
0
0
LAYER
5
193
330
2
100
AcDbSymbolTableRecord
100
AcDbLayerTableRecord
2
AutoDXF_BendInfo
70
0
62
-3
6
Continuous
290
1
370
-3
390
0
0
LAYER
5
194
330
2
100
AcDbSymbolTableRecord
100
AcDbLayerTableRecord
2
IV_BEND
70
0
62
250
6
Continuous
290
1
370
50
390
0
0
LAYER
5
195
330
2
100
AcDbSymbolTableRecord
100
AcDbLayerTableRecord
2
IV_BEND_DOWN
70
0
62
250
6
Continuous
290
1
370
50
390
0
0
ENDTAB
0
TABLE
2
STYLE
5
3
330
0
100
AcDbSymbolTable
70
2
0
STYLE
5
55
330
3
100
AcDbSymbolTableRecord
100
AcDbTextStyleTableRecord
2
Standard
3
txt.SHX
70
0
71
0
40
0.0
41
1.0
42
0.0
50
0.0
0
STYLE
5
5A
330
3
100
AcDbSymbolTableRecord
100
AcDbTextStyleTableRecord
2
Annotative
3
txt.SHX
70
0
71
0
40
0.0
41
1.0
42
0.0
50
0.0
1001
AcadAnnotative
1000
AnnotativeData
1002
{
1070
1
1070
1
1002
}
0
STYLE
5
9F
330
18A
100
AcDbSymbolTableRecord
100
AcDbTextStyleTableRecord
2

3
ltypeshp.shx
70
1
40
0.0
41
1.0
42
0.0
50
0.0
0
ENDTAB
0
TABLE
2
DIMSTYLE
5
A
330
0
100
AcDbSymbolTable
70
2
100
AcDbDimStyleTable
0
DIMSTYLE
105
58
330
A
100
AcDbSymbolTableRecord
100
AcDbDimStyleTableRecord
2
Standard
3

4

40
1.0
41
0.18
42
0.0625
43
0.38
44
0.18
45
0.0
46
0.0
47
0.0
48
0.0
49
1.0
70
0
71
0
72
0
73
0
74
0
75
0
76
0
77
0
78
0
79
3
140
0.18
141
0.09
143
25.4
144
1.0
146
1.0
147
0.09
148
0.0
170
0
171
2
172
0
174
0
175
0
176
0
177
0
178
0
179
0
271
4
272
4
273
2
274
2
275
0
276
0
277
2
278
46
279
0
280
0
281
0
282
0
283
1
284
0
285
0
286
0
289
3
290
0
294
0
340
55
173
0
345
5B
346
5B
347
5B
371
-2
372
-2
0
DIMSTYLE
105
59
330
A
100
AcDbSymbolTableRecord
100
AcDbDimStyleTableRecord
2
Annotative
3

4

40
1.0
41
0.18
42
0.0625
43
0.38
44
0.18
45
0.0
46
0.0
47
0.0
48
0.0
49
1.0
70
0
71
0
72
0
73
0
74
0
75
0
76
0
77
0
78
0
79
3
140
0.18
141
0.09
143
25.4
144
1.0
146
1.0
147
0.09
148
0.0
170
0
171
2
172
0
174
0
175
0
176
0
177
0
178
0
179
0
271
4
272
4
273
2
274
2
275
0
276
0
277
2
278
46
279
0
280
0
281
0
282
0
283
1
284
0
285
0
286
0
289
3
290
0
294
0
340
55
173
0
345
5B
346
5B
347
5B
371
-2
372
-2
1001
AcadAnnotative
1000
AnnotativeData
1002
{
1070
1
1070
1
1002
}
0
ENDTAB
0
TABLE
2
VIEW
5
6
330
0
100
AcDbSymbolTable
70
0
0
ENDTAB
0
TABLE
2
UCS
5
7
330
0
100
AcDbSymbolTable
70
0
0
ENDTAB
0
TABLE
2
BLOCK_RECORD
5
1
330
0
100
AcDbSymbolTable
70
3
0
BLOCK_RECORD
5
70
330
1
100
AcDbSymbolTableRecord
100
AcDbBlockTableRecord
2
*Model_Space
340
73
0
BLOCK_RECORD
5
6C
330
1
100
AcDbSymbolTableRecord
100
AcDbBlockTableRecord
2
*Paper_Space
340
6F
0
BLOCK_RECORD
5
74
330
1
100
AcDbSymbolTableRecord
100
AcDbBlockTableRecord
2
*Paper_Space0
340
77
0
ENDTAB
0
ENDSEC
0
SECTION
2
BLOCKS
0
BLOCK
5
71
330
70
100
AcDbEntity
67
0
8
0
100
AcDbBlockBegin
2
*Model_Space
70
0
10
0.0
20
0.0
30
0.0
3
*Model_Space
4

0
ENDBLK
5
72
330
70
100
AcDbEntity
8
0
100
AcDbBlockEnd
0
BLOCK
5
6D
330
6C
100
AcDbEntity
67
1
8
0
100
AcDbBlockBegin
2
*Paper_Space
70
0
10
0.0
20
0.0
30
0.0
3
*Paper_Space
4

0
ENDBLK
5
6E
330
6C
100
AcDbEntity
8
0
100
AcDbBlockEnd
0
BLOCK
5
75
330
74
100
AcDbEntity
67
1
8
0
100
AcDbBlockBegin
2
*Paper_Space0
70
0
10
0.0
20
0.0
30
0.0
3
*Paper_Space0
4

0
VIEWPORT
5
191
330
74
100
AcDbEntity
67
1
8
0
62
256
6
ByLayer
370
-1
48
1.0
60
0
100
AcDbViewport
10
0.0
20
0.0
30
0.0
40
297.0
41
210.0
68
1
69
1
12
50.0
22
100.0
13
0.0
23
0.0
14
10.0
24
10.0
15
10.0
25
10.0
16
0.0
26
0.0
36
1.0
17
0.0
27
0.0
37
0.0
42
50.0
43
0.0
44
0.0
45
250.0
50
0.0
51
0.0
72
1000
90
819232
110
0.0
120
0.0
130
0.0
111
1.0
121
0.0
131
0.0
112
0.0
122
1.0
132
0.0
0
ENDBLK
5
76
330
74
100
AcDbEntity
8
0
100
AcDbBlockEnd
0
ENDSEC
0
SECTION
2
ENTITIES
0
VIEWPORT
5
190
330
6C
100
AcDbEntity
67
1
8
0
62
256
6
ByLayer
370
-1
48
1.0
60
0
100
AcDbViewport
10
0.0
20
0.0
30
0.0
40
297.0
41
210.0
68
1
69
1
12
50.0
22
100.0
13
0.0
23
0.0
14
10.0
24
10.0
15
10.0
25
10.0
16
0.0
26
0.0
36
1.0
17
0.0
27
0.0
37
0.0
42
50.0
43
0.0
44
0.0
45
250.0
50
0.0
51
0.0
72
1000
90
819232
110
0.0
120
0.0
130
0.0
111
1.0
121
0.0
131
0.0
112
0.0
122
1.0
132
0.0
0
LINE
5
A9
330
70
100
AcDbEntity
67
0
8
IV_MARK_SURFACE
62
256
6
ByLayer
370
-1
48
1.0
60
0
100
AcDbLine
10
301.387074583125
20
3.92167560942205
30
0.0
11
301.387074583124
21
6.63278678411143
31
0.0
39
0.0
210
0.0
220
0.0
230
1.0
0
LINE
5
AB
330
70
100
AcDbEntity
67
0
8
IV_MARK_SURFACE
62
256
6
ByLayer
370
-1
48
1.0
60
0
100
AcDbLine
10
301.387074583124
20
6.63278678411143
30
0.0
11
301.387074583124
21
10.0216757524732
31
0.0
39
0.0
210
0.0
220
0.0
230
1.0
0
LINE
5
AC
330
70
100
AcDbEntity
67
0
8
IV_MARK_SURFACE
62
256
6
ByLayer
370
-1
48
1.0
60
0
100
AcDbLine
10
302.403741273633
20
7.64945347462019
30
0.0
11
301.387074583124
21
6.63278678411143
31
0.0
39
0.0
210
0.0
220
0.0
230
1.0
0
LINE
5
AD
330
70
100
AcDbEntity
67
0
8
IV_MARK_SURFACE
62
256
6
ByLayer
370
-1
48
1.0
60
0
100
AcDbLine
10
304.775963551485
20
10.0216757524739
30
0.0
11
302.403741273633
21
7.64945347462019
31
0.0
39
0.0
210
0.0
220
0.0
230
1.0
0
LINE
5
AE
330
70
100
AcDbEntity
67
0
8
IV_MARK_SURFACE
62
256
6
ByLayer
370
-1
48
1.0
60
0
100
AcDbLine
10
302.403741273633
20
7.64945347462019
30
0.0
11
304.775963551487
21
3.92167560942277
31
0.0
39
0.0
210
0.0
220
0.0
230
1.0
0
LINE
5
AF
330
70
100
AcDbEntity
67
0
8
IV_MARK_SURFACE
62
256
6
ByLayer
370
-1
48
1.0
60
0
100
AcDbLine
10
291.220407678039
20
5.61612009360072
30
0.0
11
293.931518852729
21
5.61612009360131
31
0.0
39
0.0
210
0.0
220
0.0
230
1.0
0
LINE
5
B0
330
70
100
AcDbEntity
67
0
8
IV_MARK_SURFACE
62
256
6
ByLayer
370
-1
48
1.0
60
0
100
AcDbLine
10
294.609296646402
20
3.92167560942059
30
0.0
11
292.575963265383
21
10.0216757524713
31
0.0
39
0.0
210
0.0
220
0.0
230
1.0
0
LINE
5
B1
330
70
100
AcDbEntity
67
0
8
IV_MARK_SURFACE
62
256
6
ByLayer
370
-1
48
1.0
60
0
100
AcDbLine
10
292.575963265383
20
10.0216757524713
30
0.0
11
290.542629884367
21
3.9216756094197
31
0.0
39
0.0
210
0.0
220
0.0
230
1.0
0
LINE
5
B2
330
70
100
AcDbEntity
67
0
8
IV_MARK_SURFACE
62
256
6
ByLayer
370
-1
48
1.0
60
0
100
AcDbLine
10
413.559299435894
20
22.0505278078805
30
0.0
11
413.559299435893
21
28.1505279509317
31
0.0
39
0.0
210
0.0
220
0.0
230
1.0
0
LINE
5
B3
330
70
100
AcDbEntity
67
0
8
IV_MARK_SURFACE
62
256
6
ByLayer
370
-1
48
1.0
60
0
100
AcDbLine
10
411.864854951712
20
28.1505279509313
30
0.0
11
413.559299435893
21
28.1505279509317
31
0.0
39
0.0
210
0.0
220
0.0
230
1.0
0
LINE
5
B4
330
70
100
AcDbEntity
67
0
8
IV_MARK_SURFACE
62
256
6
ByLayer
370
-1
48
1.0
60
0
100
AcDbLine
10
413.559299435893
20
28.1505279509317
30
0.0
11
415.253743920074
21
28.150527950932
31
0.0
39
0.0
210
0.0
220
0.0
230
1.0
0
LINE
5
B5
330
70
100
AcDbEntity
67
0
8
IV_MARK_SURFACE
62
256
6
ByLayer
370
-1
48
1.0
60
0
100
AcDbLine
10
409.831521570696
20
22.0505278078797
30
0.0
11
409.831521570695
21
28.1505279509309
31
0.0
39
0.0
210
0.0
220
0.0
230
1.0
0
LINE
5
B6
330
70
100
AcDbEntity
67
0
8
IV_MARK_SURFACE
62
256
6
ByLayer
370
-1
48
1.0
60
0
100
AcDbLine
10
403.731521427645
20
22.0505278078784
30
0.0
11
405.764854808662
21
25.1005278794044
31
0.0
39
0.0
210
0.0
220
0.0
230
1.0
0
LINE
5
B7
330
70
100
AcDbEntity
67
0
8
IV_MARK_SURFACE
62
256
6
ByLayer
370
-1
48
1.0
60
0
100
AcDbLine
10
403.731521427644
20
28.1505279509295
30
0.0
11
405.764854808662
21
25.1005278794044
31
0.0
39
0.0
210
0.0
220
0.0
230
1.0
0
LINE
5
B8
330
70
100
AcDbEntity
67
0
8
IV_MARK_SURFACE
62
256
6
ByLayer
370
-1
48
1.0
60
0
100
AcDbLine
10
405.764854808662
20
25.1005278794044
30
0.0
11
407.798188189678
21
28.1505279509304
31
0.0
39
0.0
210
0.0
220
0.0
230
1.0
0
LINE
5
B9
330
70
100
AcDbEntity
67
0
8
IV_MARK_SURFACE
62
256
6
ByLayer
370
-1
48
1.0
60
0
100
AcDbLine
10
405.764854808662
20
25.1005278794044
30
0.0
11
407.798188189679
21
22.0505278078793
31
0.0
39
0.0
210
0.0
220
0.0
230
1.0
0
LINE
5
BA
330
70
100
AcDbEntity
67
0
8
IV_MARK_SURFACE
62
256
6
ByLayer
370
-1
48
1.0
60
0
100
AcDbLine
10
390.853743347871
20
22.0505278078756
30
0.0
11
388.142632173181
21
22.050527807875
31
0.0
39
0.0
210
0.0
220
0.0
230
1.0
0
LINE
5
BB
330
70
100
AcDbEntity
67
0
8
IV_MARK_SURFACE
62
256
6
ByLayer
370
-1
48
1.0
60
0
100
AcDbLine
10
388.142632173181
20
22.050527807875
30
0.0
11
388.142632173181
21
25.4394167762368
31
0.0
39
0.0
210
0.0
220
0.0
230
1.0
0
LINE
5
BC
330
70
100
AcDbEntity
67
0
8
IV_MARK_SURFACE
62
256
6
ByLayer
370
-1
48
1.0
60
0
100
AcDbLine
10
388.142632173181
20
25.4394167762368
30
0.0
11
388.14263217318
21
28.1505279509262
31
0.0
39
0.0
210
0.0
220
0.0
230
1.0
0
LINE
5
BD
330
70
100
AcDbEntity
67
0
8
IV_MARK_SURFACE
62
256
6
ByLayer
370
-1
48
1.0
60
0
100
AcDbLine
10
388.14263217318
20
28.1505279509262
30
0.0
11
390.853743347869
21
28.1505279509268
31
0.0
39
0.0
210
0.0
220
0.0
230
1.0
0
LINE
5
BE
330
70
100
AcDbEntity
67
0
8
IV_MARK_SURFACE
62
256
6
ByLayer
370
-1
48
1.0
60
0
100
AcDbLine
10
388.142632173181
20
25.4394167762368
30
0.0
11
390.175965554198
21
25.4394167762372
31
0.0
39
0.0
210
0.0
220
0.0
230
1.0
0
LINE
5
BF
330
70
100
AcDbEntity
67
0
8
IV_MARK_SURFACE
62
256
6
ByLayer
370
-1
48
1.0
60
0
100
AcDbLine
10
375.264854093407
20
22.0505278078722
30
0.0
11
373.909298506062
21
22.0505278078719
31
0.0
39
0.0
210
0.0
220
0.0
230
1.0
0
ARC
5
C0
330
70
100
AcDbEntity
67
0
8
IV_MARK_SURFACE
62
256
6
ByLayer
370
-1
48
1.0
60
0
100
AcDbCircle
39
0.0
10
373.909298506062
20
23.4060833952166
30
0.0
40
1.3555555873447
210
0.0
220
0.0
230
1.0
100
AcDbArc
50
180.000000000012
51
270.0
0
LINE
5
C1
330
70
100
AcDbEntity
67
0
8
IV_MARK_SURFACE
62
256
6
ByLayer
370
-1
48
1.0
60
0
100
AcDbLine
10
372.553742918717
20
23.4060833952163
30
0.0
11
372.553742918716
21
26.7949723635781
31
0.0
39
0.0
210
0.0
220
0.0
230
1.0
0
ARC
5
C2
330
70
100
AcDbEntity
67
0
8
IV_MARK_SURFACE
62
256
6
ByLayer
370
-1
48
1.0
60
0
100
AcDbCircle
39
0.0
10
373.909298506061
20
26.7949723635784
30
0.0
40
1.3555555873447
210
0.0
220
0.0
230
1.0
100
AcDbArc
50
90.0
51
180.000000000012
0
LINE
5
C3
330
70
100
AcDbEntity
67
0
8
IV_MARK_SURFACE
62
256
6
ByLayer
370
-1
48
1.0
60
0
100
AcDbLine
10
373.909298506061
20
28.1505279509231
30
0.0
11
375.264854093406
21
28.1505279509234
31
0.0
39
0.0
210
0.0
220
0.0
230
1.0
0
LINE
5
C4
330
70
100
AcDbEntity
67
0
8
IV_MARK_SURFACE
62
256
6
ByLayer
370
-1
48
1.0
60
0
100
AcDbLine
10
361.031520426287
20
24.7616389825585
30
0.0
11
361.031520426286
21
28.1505279509203
31
0.0
39
0.0
210
0.0
220
0.0
230
1.0
0
LINE
5
C5
330
70
100
AcDbEntity
67
0
8
IV_MARK_SURFACE
62
256
6
ByLayer
370
-1
48
1.0
60
0
100
AcDbLine
10
361.031520426286
20
28.1505279509203
30
0.0
11
362.725964910467
21
28.1505279509207
31
0.0
39
0.0
210
0.0
220
0.0
230
1.0
0
ARC
5
C6
330
70
100
AcDbEntity
67
0
8
IV_MARK_SURFACE
62
256
6
ByLayer
370
-1
48
1.0
60
0
100
AcDbCircle
39
0.0
10
362.725964910467
20
26.4560834667398
30
0.0
40
1.69444448418087
210
0.0
220
0.0
230
1.0
100
AcDbArc
50
270.0
51
90.0
0
LINE
5
C7
330
70
100
AcDbEntity
67
0
8
IV_MARK_SURFACE
62
256
6
ByLayer
370
-1
48
1.0
60
0
100
AcDbLine
10
362.725964910468
20
24.7616389825589
30
0.0
11
361.031520426287
21
24.7616389825585
31
0.0
39
0.0
210
0.0
220
0.0
230
1.0
0
LINE
5
C8
330
70
100
AcDbEntity
67
0
8
IV_MARK_SURFACE
62
256
6
ByLayer
370
-1
48
1.0
60
0
100
AcDbLine
10
361.031520426287
20
22.0505278078691
30
0.0
11
361.031520426287
21
24.7616389825585
31
0.0
39
0.0
210
0.0
220
0.0
230
1.0
0
LINE
5
C9
330
70
100
AcDbEntity
67
0
8
IV_MARK_SURFACE
62
256
6
ByLayer
370
-1
48
1.0
60
0
100
AcDbLine
10
354.253742489563
20
28.1505279509188
30
0.0
11
352.220409108546
21
28.1505279509184
31
0.0
39
0.0
210
0.0
220
0.0
230
1.0
0
ARC
5
CA
330
70
100
AcDbEntity
67
0
8
IV_MARK_SURFACE
62
256
6
ByLayer
370
-1
48
1.0
60
0
100
AcDbCircle
39
0.0
10
352.220409108546
20
26.7949723635737
30
0.0
40
1.3555555873447
210
0.0
220
0.0
230
1.0
100
AcDbArc
50
90.0
51
180.000000000012
0
LINE
5
CB
330
70
100
AcDbEntity
67
0
8
IV_MARK_SURFACE
62
256
6
ByLayer
370
-1
48
1.0
60
0
100
AcDbLine
10
350.864853521201
20
26.7949723635734
30
0.0
11
350.864853521202
21
23.4060833952116
31
0.0
39
0.0
210
0.0
220
0.0
230
1.0
0
ARC
5
CC
330
70
100
AcDbEntity
67
0
8
IV_MARK_SURFACE
62
256
6
ByLayer
370
-1
48
1.0
60
0
100
AcDbCircle
39
0.0
10
352.220409108547
20
23.4060833952119
30
0.0
40
1.3555555873447
210
0.0
220
0.0
230
1.0
100
AcDbArc
50
180.000000000012
51
270.0
0
LINE
5
CD
330
70
100
AcDbEntity
67
0
8
IV_MARK_SURFACE
62
256
6
ByLayer
370
-1
48
1.0
60
0
100
AcDbLine
10
352.220409108547
20
22.0505278078672
30
0.0
11
354.253742489564
21
22.0505278078677
31
0.0
39
0.0
210
0.0
220
0.0
230
1.0
0
LINE
5
CE
330
70
100
AcDbEntity
67
0
8
IV_MARK_SURFACE
62
256
6
ByLayer
370
-1
48
1.0
60
0
100
AcDbLine
10
354.253742489564
20
22.0505278078677
30
0.0
11
354.253742489563
21
25.4394167762294
31
0.0
39
0.0
210
0.0
220
0.0
230
1.0
0
LINE
5
CF
330
70
100
AcDbEntity
67
0
8
IV_MARK_SURFACE
62
256
6
ByLayer
370
-1
48
1.0
60
0
100
AcDbLine
10
354.253742489563
20
25.4394167762294
30
0.0
11
353.237075799055
21
25.4394167762292
31
0.0
39
0.0
210
0.0
220
0.0
230
1.0
0
LINE
5
D0
330
70
100
AcDbEntity
67
0
8
IV_MARK_SURFACE
62
256
6
ByLayer
370
-1
48
1.0
60
0
100
AcDbLine
10
340.020408822444
20
24.761638982554
30
0.0
11
341.375964409789
21
22.0505278078649
31
0.0
39
0.0
210
0.0
220
0.0
230
1.0
0
LINE
5
D1
330
70
100
AcDbEntity
67
0
8
IV_MARK_SURFACE
62
256
6
ByLayer
370
-1
48
1.0
60
0
100
AcDbLine
10
334.25929757623
20
22.0505278078633
30
0.0
11
334.259297576228
21
28.1505279509145
31
0.0
39
0.0
210
0.0
220
0.0
230
1.0
0
LINE
5
D2
330
70
100
AcDbEntity
67
0
8
IV_MARK_SURFACE
62
256
6
ByLayer
370
-1
48
1.0
60
0
100
AcDbLine
10
332.564853092047
20
28.1505279509141
30
0.0
11
334.259297576228
21
28.1505279509145
31
0.0
39
0.0
210
0.0
220
0.0
230
1.0
0
LINE
5
D3
330
70
100
AcDbEntity
67
0
8
IV_MARK_SURFACE
62
256
6
ByLayer
370
-1
48
1.0
60
0
100
AcDbLine
10
334.259297576228
20
28.1505279509145
30
0.0
11
335.953742060409
21
28.1505279509149
31
0.0
39
0.0
210
0.0
220
0.0
230
1.0
0
LINE
5
D4
330
70
100
AcDbEntity
67
0
8
IV_MARK_SURFACE
62
256
6
ByLayer
370
-1
48
1.0
60
0
100
AcDbLine
10
299.014852305268
20
22.0505278078557
30
0.0
11
297.659296717923
21
22.0505278078554
31
0.0
39
0.0
210
0.0
220
0.0
230
1.0
0
ARC
5
D5
330
70
100
AcDbEntity
67
0
8
IV_MARK_SURFACE
62
256
6
ByLayer
370
-1
48
1.0
60
0
100
AcDbCircle
39
0.0
10
297.659296717923
20
23.4060833952001
30
0.0
40
1.3555555873447
210
0.0
220
0.0
230
1.0
100
AcDbArc
50
180.000000000012
51
270.0
0
LINE
5
D6
330
70
100
AcDbEntity
67
0
8
IV_MARK_SURFACE
62
256
6
ByLayer
370
-1
48
1.0
60
0
100
AcDbLine
10
296.303741130578
20
23.4060833951998
30
0.0
11
296.303741130577
21
26.7949723635616
31
0.0
39
0.0
210
0.0
220
0.0
230
1.0
0
ARC
5
D7
330
70
100
AcDbEntity
67
0
8
IV_MARK_SURFACE
62
256
6
ByLayer
370
-1
48
1.0
60
0
100
AcDbCircle
39
0.0
10
297.659296717922
20
26.7949723635619
30
0.0
40
1.3555555873447
210
0.0
220
0.0
230
1.0
100
AcDbArc
50
90.0
51
180.000000000012
0
LINE
5
D8
330
70
100
AcDbEntity
67
0
8
IV_MARK_SURFACE
62
256
6
ByLayer
370
-1
48
1.0
60
0
100
AcDbLine
10
297.659296717922
20
28.1505279509066
30
0.0
11
299.014852305267
21
28.1505279509069
31
0.0
39
0.0
210
0.0
220
0.0
230
1.0
0
LINE
5
D9
330
70
100
AcDbEntity
67
0
8
IV_MARK_SURFACE
62
256
6
ByLayer
370
-1
48
1.0
60
0
100
AcDbLine
10
285.120407534985
20
22.0505278078527
30
0.0
11
285.120407534983
21
28.1505279509038
31
0.0
39
0.0
210
0.0
220
0.0
230
1.0
0
LINE
5
DA
330
70
100
AcDbEntity
67
0
8
IV_MARK_SURFACE
62
256
6
ByLayer
370
-1
48
1.0
60
0
100
AcDbLine
10
285.120407534983
20
28.1505279509038
30
0.0
11
287.153740916001
21
24.7616389825425
31
0.0
39
0.0
210
0.0
220
0.0
230
1.0
0
LINE
5
DB
330
70
100
AcDbEntity
67
0
8
IV_MARK_SURFACE
62
256
6
ByLayer
370
-1
48
1.0
60
0
100
AcDbLine
10
287.153740916001
20
24.7616389825425
30
0.0
11
289.187074297017
21
28.1505279509047
31
0.0
39
0.0
210
0.0
220
0.0
230
1.0
0
LINE
5
DC
330
70
100
AcDbEntity
67
0
8
IV_MARK_SURFACE
62
256
6
ByLayer
370
-1
48
1.0
60
0
100
AcDbLine
10
289.187074297017
20
28.1505279509047
30
0.0
11
289.187074297019
21
22.0505278078536
31
0.0
39
0.0
210
0.0
220
0.0
230
1.0
0
ARC
5
DD
330
70
100
AcDbEntity
67
0
8
IV_MARK_SURFACE
62
256
6
ByLayer
370
-1
48
1.0
60
0
100
AcDbCircle
39
0.0
10
292.481341215917
20
24.2885287352283
30
0.0
40
2.27960081845226
210
0.0
220
0.0
230
1.0
100
AcDbArc
50
236.417448663629
51
280.962686388356
0
ARC
5
DE
330
70
100
AcDbEntity
67
0
8
IV_MARK_SURFACE
62
256
6
ByLayer
370
-1
48
1.0
60
0
100
AcDbCircle
39
0.0
10
292.854658303458
20
23.5058540840977
30
0.0
40
1.45657058564167
210
0.0
220
0.0
230
1.0
100
AcDbArc
50
272.368465021336
51
59.5590480428304
0
LINE
5
DF
330
70
100
AcDbEntity
67
0
8
IV_MARK_SURFACE
62
256
6
ByLayer
370
-1
48
1.0
60
0
100
AcDbLine
10
293.592629955888
20
24.7616389825439
30
0.0
11
291.898185471707
21
25.7783056730521
31
0.0
39
0.0
210
0.0
220
0.0
230
1.0
0
ARC
5
E0
330
70
100
AcDbEntity
67
0
8
IV_MARK_SURFACE
62
256
6
ByLayer
370
-1
48
1.0
60
0
100
AcDbCircle
39
0.0
10
292.586795227316
20
26.9379813975653
30
0.0
40
1.34871464051702
210
0.0
220
0.0
230
1.0
100
AcDbArc
50
139.626277176399
51
239.298367239676
0
ARC
5
E1
330
70
100
AcDbEntity
67
0
8
IV_MARK_SURFACE
62
256
6
ByLayer
370
-1
48
1.0
60
0
100
AcDbCircle
39
0.0
10
292.914852162216
20
25.2924870921056
30
0.0
40
2.86070927531049
210
0.0
220
0.0
230
1.0
100
AcDbArc
50
61.7153067159466
51
118.284693284078
0
ARC
5
E2
330
70
100
AcDbEntity
67
0
8
IV_MARK_SURFACE
62
256
6
ByLayer
370
-1
48
1.0
60
0
100
AcDbCircle
39
0.0
10
310.66358510867
20
24.9568439134327
30
0.0
40
3.5208148287279
210
0.0
220
0.0
230
1.0
100
AcDbArc
50
114.894200885302
51
183.178286050577
0
LINE
5
E3
330
70
100
AcDbEntity
67
0
8
IV_MARK_SURFACE
62
256
6
ByLayer
370
-1
48
1.0
60
0
100
AcDbLine
10
307.148185829335
20
24.7616389825469
30
0.0
11
307.148185829336
21
23.4060833952022
31
0.0
39
0.0
210
0.0
220
0.0
230
1.0
0
ARC
5
E4
330
70
100
AcDbEntity
67
0
8
IV_MARK_SURFACE
62
256
6
ByLayer
370
-1
48
1.0
60
0
100
AcDbCircle
39
0.0
10
308.50374141668
20
23.4060833952025
30
0.0
40
1.3555555873447
210
0.0
220
0.0
230
1.0
100
AcDbArc
50
180.000000000012
51
0.0000000000123901
0
LINE
5
E5
330
70
100
AcDbEntity
67
0
8
IV_MARK_SURFACE
62
256
6
ByLayer
370
-1
48
1.0
60
0
100
AcDbLine
10
309.859297004025
20
23.4060833952028
30
0.0
11
309.859297004025
21
24.0838611888751
31
0.0
39
0.0
210
0.0
220
0.0
230
1.0
0
ARC
5
E6
330
70
100
AcDbEntity
67
0
8
IV_MARK_SURFACE
62
256
6
ByLayer
370
-1
48
1.0
60
0
100
AcDbCircle
39
0.0
10
308.50374141668
20
24.0838611888748
30
0.0
40
1.3555555873447
210
0.0
220
0.0
230
1.0
100
AcDbArc
50
0.0000000000123885
51
90.0
0
LINE
5
E7
330
70
100
AcDbEntity
67
0
8
IV_MARK_SURFACE
62
256
6
ByLayer
370
-1
48
1.0
60
0
100
AcDbLine
10
308.50374141668
20
25.4394167762195
30
0.0
11
307.487074726171
21
25.4394167762193
31
0.0
39
0.0
210
0.0
220
0.0
230
1.0
0
ARC
5
E8
330
70
100
AcDbEntity
67
0
8
IV_MARK_SURFACE
62
256
6
ByLayer
370
-1
48
1.0
60
0
100
AcDbCircle
39
0.0
10
313.248185972386
20
27.0534634405962
30
0.0
40
1.09973292682427
210
0.0
220
0.0
230
1.0
100
AcDbArc
50
22.4118950148177
51
157.588104985208
0
ARC
5
E9
330
70
100
AcDbEntity
67
0
8
IV_MARK_SURFACE
62
256
6
ByLayer
370
-1
48
1.0
60
0
100
AcDbCircle
39
0.0
10
306.064289867297
20
25.1005278793828
30
0.0
40
8.53678327592282
210
0.0
220
0.0
230
1.0
100
AcDbArc
50
343.866136540426
51
16.1338634595985
0
ARC
5
EA
330
70
100
AcDbEntity
67
0
8
IV_MARK_SURFACE
62
256
6
ByLayer
370
-1
48
1.0
60
0
100
AcDbCircle
39
0.0
10
313.248185972387
20
23.1606367265304
30
0.0
40
1.10477208565055
210
0.0
220
0.0
230
1.0
100
AcDbArc
50
203.037318689771
51
336.962681310253
0
ARC
5
EB
330
70
100
AcDbEntity
67
0
8
IV_MARK_SURFACE
62
256
6
ByLayer
370
-1
48
1.0
60
0
100
AcDbCircle
39
0.0
10
320.432082077475
20
25.1005278793859
30
0.0
40
8.53678327592282
210
0.0
220
0.0
230
1.0
100
AcDbArc
50
163.866136540426
51
196.133863459599
0
LINE
5
EC
330
70
100
AcDbEntity
67
0
8
IV_MARK_SURFACE
62
256
6
ByLayer
370
-1
48
1.0
60
0
100
AcDbLine
10
319.348186115438
20
22.0505278078601
30
0.0
11
316.637074940749
21
22.0505278078595
31
0.0
39
0.0
210
0.0
220
0.0
230
1.0
0
LINE
5
ED
330
70
100
AcDbEntity
67
0
8
IV_MARK_SURFACE
62
256
6
ByLayer
370
-1
48
1.0
60
0
100
AcDbLine
10
316.637074940749
20
22.0505278078595
30
0.0
11
319.009297218601
21
25.778305673058
31
0.0
39
0.0
210
0.0
220
0.0
230
1.0
0
ARC
5
EE
330
70
100
AcDbEntity
67
0
8
IV_MARK_SURFACE
62
256
6
ByLayer
370
-1
48
1.0
60
0
100
AcDbCircle
39
0.0
10
317.523896483854
20
26.8697947625212
30
0.0
40
1.84330241013347
210
0.0
220
0.0
230
1.0
100
AcDbArc
50
323.691137669724
51
8.23637539444937
0
ARC
5
EF
330
70
100
AcDbEntity
67
0
8
IV_MARK_SURFACE
62
256
6
ByLayer
370
-1
48
1.0
60
0
100
AcDbCircle
39
0.0
10
317.992630528092
20
26.7347785048079
30
0.0
40
1.41308102959256
210
0.0
220
0.0
230
1.0
100
AcDbArc
50
16.4047084892641
51
163.595291510762
0
ARC
5
F0
330
70
100
AcDbEntity
67
0
8
IV_MARK_SURFACE
62
256
6
ByLayer
370
-1
48
1.0
60
0
100
AcDbCircle
39
0.0
10
328.742453177387
20
24.2885287352362
30
0.0
40
2.27960081845226
210
0.0
220
0.0
230
1.0
100
AcDbArc
50
236.417448663629
51
280.962686388356
0
ARC
5
F1
330
70
100
AcDbEntity
67
0
8
IV_MARK_SURFACE
62
256
6
ByLayer
370
-1
48
1.0
60
0
100
AcDbCircle
39
0.0
10
329.115770264928
20
23.5058540841056
30
0.0
40
1.45657058564167
210
0.0
220
0.0
230
1.0
100
AcDbArc
50
272.368465021336
51
59.5590480428303
0
LINE
5
F2
330
70
100
AcDbEntity
67
0
8
IV_MARK_SURFACE
62
256
6
ByLayer
370
-1
48
1.0
60
0
100
AcDbLine
10
329.853741917359
20
24.7616389825518
30
0.0
11
328.159297433178
21
25.7783056730599
31
0.0
39
0.0
210
0.0
220
0.0
230
1.0
0
ARC
5
F3
330
70
100
AcDbEntity
67
0
8
IV_MARK_SURFACE
62
256
6
ByLayer
370
-1
48
1.0
60
0
100
AcDbCircle
39
0.0
10
328.847907188787
20
26.9379813975732
30
0.0
40
1.34871464051702
210
0.0
220
0.0
230
1.0
100
AcDbArc
50
139.626277176399
51
239.298367239676
0
ARC
5
F4
330
70
100
AcDbEntity
67
0
8
IV_MARK_SURFACE
62
256
6
ByLayer
370
-1
48
1.0
60
0
100
AcDbCircle
39
0.0
10
329.175964123686
20
25.2924870921134
30
0.0
40
2.86070927531049
210
0.0
220
0.0
230
1.0
100
AcDbArc
50
61.7153067159466
51
118.284693284078
0
LINE
5
F5
330
70
100
AcDbEntity
67
0
8
IV_MARK_SURFACE
62
256
6
ByLayer
370
-1
48
1.0
60
0
100
AcDbLine
10
337.987075441427
20
24.7616389825535
30
0.0
11
337.987075441426
21
28.1505279509153
31
0.0
39
0.0
210
0.0
220
0.0
230
1.0
0
LINE
5
F6
330
70
100
AcDbEntity
67
0
8
IV_MARK_SURFACE
62
256
6
ByLayer
370
-1
48
1.0
60
0
100
AcDbLine
10
337.987075441426
20
28.1505279509153
30
0.0
11
339.681519925607
21
28.1505279509157
31
0.0
39
0.0
210
0.0
220
0.0
230
1.0
0
ARC
5
F7
330
70
100
AcDbEntity
67
0
8
IV_MARK_SURFACE
62
256
6
ByLayer
370
-1
48
1.0
60
0
100
AcDbCircle
39
0.0
10
339.681519925608
20
26.4560834667348
30
0.0
40
1.69444448418087
210
0.0
220
0.0
230
1.0
100
AcDbArc
50
270.0
51
90.0
0
LINE
5
F8
330
70
100
AcDbEntity
67
0
8
IV_MARK_SURFACE
62
256
6
ByLayer
370
-1
48
1.0
60
0
100
AcDbLine
10
339.681519925608
20
24.7616389825539
30
0.0
11
337.987075441427
21
24.7616389825535
31
0.0
39
0.0
210
0.0
220
0.0
230
1.0
0
LINE
5
F9
330
70
100
AcDbEntity
67
0
8
IV_MARK_SURFACE
62
256
6
ByLayer
370
-1
48
1.0
60
0
100
AcDbLine
10
337.987075441428
20
22.0505278078641
30
0.0
11
337.987075441427
21
24.7616389825535
31
0.0
39
0.0
210
0.0
220
0.0
230
1.0
0
LINE
5
FA
330
70
100
AcDbEntity
67
0
8
IV_MARK_SURFACE
62
256
6
ByLayer
370
-1
48
1.0
60
0
100
AcDbLine
10
343.409297790806
20
22.0505278078653
30
0.0
11
343.409297790805
21
28.1505279509165
31
0.0
39
0.0
210
0.0
220
0.0
230
1.0
0
LINE
5
FB
330
70
100
AcDbEntity
67
0
8
IV_MARK_SURFACE
62
256
6
ByLayer
370
-1
48
1.0
60
0
100
AcDbLine
10
345.442631171823
20
22.0505278078658
30
0.0
11
345.442631171822
21
28.1505279509169
31
0.0
39
0.0
210
0.0
220
0.0
230
1.0
0
LINE
5
FC
330
70
100
AcDbEntity
67
0
8
IV_MARK_SURFACE
62
256
6
ByLayer
370
-1
48
1.0
60
0
100
AcDbLine
10
345.442631171822
20
28.1505279509169
30
0.0
11
348.831520140185
21
22.0505278078665
31
0.0
39
0.0
210
0.0
220
0.0
230
1.0
0
LINE
5
FD
330
70
100
AcDbEntity
67
0
8
IV_MARK_SURFACE
62
256
6
ByLayer
370
-1
48
1.0
60
0
100
AcDbLine
10
348.831520140185
20
22.0505278078665
30
0.0
11
348.831520140184
21
28.1505279509176
31
0.0
39
0.0
210
0.0
220
0.0
230
1.0
0
LINE
5
FE
330
70
100
AcDbEntity
67
0
8
IV_MARK_SURFACE
62
256
6
ByLayer
370
-1
48
1.0
60
0
100
AcDbLine
10
358.99818704527
20
22.0505278078687
30
0.0
11
356.287075870581
21
22.0505278078681
31
0.0
39
0.0
210
0.0
220
0.0
230
1.0
0
LINE
5
FF
330
70
100
AcDbEntity
67
0
8
IV_MARK_SURFACE
62
256
6
ByLayer
370
-1
48
1.0
60
0
100
AcDbLine
10
356.287075870581
20
22.0505278078681
30
0.0
11
356.28707587058
21
25.4394167762299
31
0.0
39
0.0
210
0.0
220
0.0
230
1.0
0
LINE
5
100
330
70
100
AcDbEntity
67
0
8
IV_MARK_SURFACE
62
256
6
ByLayer
370
-1
48
1.0
60
0
100
AcDbLine
10
356.28707587058
20
25.4394167762299
30
0.0
11
356.28707587058
21
28.1505279509193
31
0.0
39
0.0
210
0.0
220
0.0
230
1.0
0
LINE
5
101
330
70
100
AcDbEntity
67
0
8
IV_MARK_SURFACE
62
256
6
ByLayer
370
-1
48
1.0
60
0
100
AcDbLine
10
356.28707587058
20
28.1505279509193
30
0.0
11
358.998187045269
21
28.1505279509199
31
0.0
39
0.0
210
0.0
220
0.0
230
1.0
0
LINE
5
102
330
70
100
AcDbEntity
67
0
8
IV_MARK_SURFACE
62
256
6
ByLayer
370
-1
48
1.0
60
0
100
AcDbLine
10
356.28707587058
20
25.4394167762299
30
0.0
11
358.320409251597
21
25.4394167762303
31
0.0
39
0.0
210
0.0
220
0.0
230
1.0
0
LINE
5
103
330
70
100
AcDbEntity
67
0
8
IV_MARK_SURFACE
62
256
6
ByLayer
370
-1
48
1.0
60
0
100
AcDbLine
10
363.064853807304
20
24.761638982559
30
0.0
11
364.420409394649
21
22.0505278078699
31
0.0
39
0.0
210
0.0
220
0.0
230
1.0
0
ARC
5
104
330
70
100
AcDbEntity
67
0
8
IV_MARK_SURFACE
62
256
6
ByLayer
370
-1
48
1.0
60
0
100
AcDbCircle
39
0.0
10
378.992631958604
20
26.4560834667433
30
0.0
40
1.69444448418087
210
0.0
220
0.0
230
1.0
100
AcDbArc
50
0.0000000000124636
51
180.000000000012
0
LINE
5
105
330
70
100
AcDbEntity
67
0
8
IV_MARK_SURFACE
62
256
6
ByLayer
370
-1
48
1.0
60
0
100
AcDbLine
10
380.687076442785
20
23.7449722920543
30
0.0
11
380.687076442784
21
26.4560834667437
31
0.0
39
0.0
210
0.0
220
0.0
230
1.0
0
ARC
5
106
330
70
100
AcDbEntity
67
0
8
IV_MARK_SURFACE
62
256
6
ByLayer
370
-1
48
1.0
60
0
100
AcDbCircle
39
0.0
10
378.992631958604
20
23.7449722920539
30
0.0
40
1.69444448418087
210
0.0
220
0.0
230
1.0
100
AcDbArc
50
180.000000000012
51
0.00000000001247
0
LINE
5
107
330
70
100
AcDbEntity
67
0
8
IV_MARK_SURFACE
62
256
6
ByLayer
370
-1
48
1.0
60
0
100
AcDbLine
10
377.298187474423
20
26.4560834667429
30
0.0
11
377.298187474423
21
23.7449722920535
31
0.0
39
0.0
210
0.0
220
0.0
230
1.0
0
LINE
5
108
330
70
100
AcDbEntity
67
0
8
IV_MARK_SURFACE
62
256
6
ByLayer
370
-1
48
1.0
60
0
100
AcDbLine
10
382.720409823803
20
22.0505278078738
30
0.0
11
382.720409823801
21
28.150527950925
31
0.0
39
0.0
210
0.0
220
0.0
230
1.0
0
LINE
5
109
330
70
100
AcDbEntity
67
0
8
IV_MARK_SURFACE
62
256
6
ByLayer
370
-1
48
1.0
60
0
100
AcDbLine
10
382.720409823801
20
28.150527950925
30
0.0
11
386.109298792164
21
22.0505278078746
31
0.0
39
0.0
210
0.0
220
0.0
230
1.0
0
LINE
5
10A
330
70
100
AcDbEntity
67
0
8
IV_MARK_SURFACE
62
256
6
ByLayer
370
-1
48
1.0
60
0
100
AcDbLine
10
386.109298792164
20
22.0505278078746
30
0.0
11
386.109298792163
21
28.1505279509257
31
0.0
39
0.0
210
0.0
220
0.0
230
1.0
0
LINE
5
10B
330
70
100
AcDbEntity
67
0
8
IV_MARK_SURFACE
62
256
6
ByLayer
370
-1
48
1.0
60
0
100
AcDbLine
10
401.698188046628
20
22.0505278078779
30
0.0
11
398.987076871939
21
22.0505278078774
31
0.0
39
0.0
210
0.0
220
0.0
230
1.0
0
LINE
5
10C
330
70
100
AcDbEntity
67
0
8
IV_MARK_SURFACE
62
256
6
ByLayer
370
-1
48
1.0
60
0
100
AcDbLine
10
398.987076871939
20
22.0505278078774
30
0.0
11
398.987076871938
21
25.4394167762391
31
0.0
39
0.0
210
0.0
220
0.0
230
1.0
0
LINE
5
10D
330
70
100
AcDbEntity
67
0
8
IV_MARK_SURFACE
62
256
6
ByLayer
370
-1
48
1.0
60
0
100
AcDbLine
10
398.987076871938
20
25.4394167762391
30
0.0
11
398.987076871938
21
28.1505279509285
31
0.0
39
0.0
210
0.0
220
0.0
230
1.0
0
LINE
5
10E
330
70
100
AcDbEntity
67
0
8
IV_MARK_SURFACE
62
256
6
ByLayer
370
-1
48
1.0
60
0
100
AcDbLine
10
398.987076871938
20
28.1505279509285
30
0.0
11
401.698188046627
21
28.1505279509291
31
0.0
39
0.0
210
0.0
220
0.0
230
1.0
0
LINE
5
10F
330
70
100
AcDbEntity
67
0
8
IV_MARK_SURFACE
62
256
6
ByLayer
370
-1
48
1.0
60
0
100
AcDbLine
10
398.987076871938
20
25.4394167762391
30
0.0
11
401.020410252955
21
25.4394167762396
31
0.0
39
0.0
210
0.0
220
0.0
230
1.0
0
ARC
5
110
330
70
100
AcDbEntity
67
0
8
IV_MARK_SURFACE
62
256
6
ByLayer
370
-1
48
1.0
60
0
100
AcDbCircle
39
0.0
10
286.814852019169
20
5.61612009359977
30
0.0
40
1.69444448418087
210
0.0
220
0.0
230
1.0
100
AcDbArc
50
270.0
51
90.0
0
LINE
5
111
330
70
100
AcDbEntity
67
0
8
IV_MARK_SURFACE
62
256
6
ByLayer
370
-1
48
1.0
60
0
100
AcDbLine
10
286.81485201917
20
3.92167560941889
30
0.0
11
285.120407534989
21
3.92167560941852
31
0.0
39
0.0
210
0.0
220
0.0
230
1.0
0
LINE
5
112
330
70
100
AcDbEntity
67
0
8
IV_MARK_SURFACE
62
256
6
ByLayer
370
-1
48
1.0
60
0
100
AcDbLine
10
285.120407534989
20
3.92167560941852
30
0.0
11
285.120407534988
21
7.31056457778028
31
0.0
39
0.0
210
0.0
220
0.0
230
1.0
0
LINE
5
113
330
70
100
AcDbEntity
67
0
8
IV_MARK_SURFACE
62
256
6
ByLayer
370
-1
48
1.0
60
0
100
AcDbLine
10
285.120407534988
20
7.31056457778028
30
0.0
11
285.120407534987
21
10.0216757524697
31
0.0
39
0.0
210
0.0
220
0.0
230
1.0
0
LINE
5
114
330
70
100
AcDbEntity
67
0
8
IV_MARK_SURFACE
62
256
6
ByLayer
370
-1
48
1.0
60
0
100
AcDbLine
10
285.120407534987
20
10.0216757524697
30
0.0
11
286.814852019168
21
10.02167575247
31
0.0
39
0.0
210
0.0
220
0.0
230
1.0
0
ARC
5
115
330
70
100
AcDbEntity
67
0
8
IV_MARK_SURFACE
62
256
6
ByLayer
370
-1
48
1.0
60
0
100
AcDbCircle
39
0.0
10
286.814852019168
20
8.66612016512534
30
0.0
40
1.3555555873447
210
0.0
220
0.0
230
1.0
100
AcDbArc
50
270.0
51
90.0
0
LINE
5
116
330
70
100
AcDbEntity
67
0
8
IV_MARK_SURFACE
62
256
6
ByLayer
370
-1
48
1.0
60
0
100
AcDbLine
10
299.353741202108
20
3.92167560942161
30
0.0
11
297.998185614763
21
3.92167560942132
31
0.0
39
0.0
210
0.0
220
0.0
230
1.0
0
ARC
5
117
330
70
100
AcDbEntity
67
0
8
IV_MARK_SURFACE
62
256
6
ByLayer
370
-1
48
1.0
60
0
100
AcDbCircle
39
0.0
10
297.998185614763
20
5.27723119676601
30
0.0
40
1.3555555873447
210
0.0
220
0.0
230
1.0
100
AcDbArc
50
180.000000000012
51
270.0
0
LINE
5
118
330
70
100
AcDbEntity
67
0
8
IV_MARK_SURFACE
62
256
6
ByLayer
370
-1
48
1.0
60
0
100
AcDbLine
10
296.642630027418
20
5.27723119676572
30
0.0
11
296.642630027418
21
8.66612016512747
31
0.0
39
0.0
210
0.0
220
0.0
230
1.0
0
ARC
5
119
330
70
100
AcDbEntity
67
0
8
IV_MARK_SURFACE
62
256
6
ByLayer
370
-1
48
1.0
60
0
100
AcDbCircle
39
0.0
10
297.998185614762
20
8.66612016512776
30
0.0
40
1.3555555873447
210
0.0
220
0.0
230
1.0
100
AcDbArc
50
90.0
51
180.000000000012
0
LINE
5
11A
330
70
100
AcDbEntity
67
0
8
IV_MARK_SURFACE
62
256
6
ByLayer
370
-1
48
1.0
60
0
100
AcDbLine
10
297.998185614762
20
10.0216757524725
30
0.0
11
299.353741202107
21
10.0216757524728
31
0.0
39
0.0
210
0.0
220
0.0
230
1.0
0
LINE
5
11B
330
70
100
AcDbEntity
67
0
8
IV_MARK_SURFACE
62
256
6
ByLayer
370
-1
48
1.0
60
0
100
AcDbLine
10
286.814852019169
20
7.31056457778064
30
0.0
11
285.120407534988
21
7.31056457778028
31
0.0
39
0.0
210
0.0
220
0.0
230
1.0
0
LINE
5
11C
330
70
100
AcDbEntity
67
0
8
IV_OUTER_PROFILE
62
256
6
ByLayer
370
-1
48
1.0
60
0
100
AcDbLine
10
832.082215293049
20
26.0000001343848
30
0.0
11
832.082215293049
21
0.0000001343848277
31
0.0
39
0.0
210
0.0
220
0.0
230
1.0
0
LINE
5
11D
330
70
100
AcDbEntity
67
0
8
IV_OUTER_PROFILE
62
256
6
ByLayer
370
-1
48
1.0
60
0
100
AcDbLine
10
1184.58221529305
20
0.0000001343848277
30
0.0
11
832.082215293049
21
0.0000001343848277
31
0.0
39
0.0
210
0.0
220
0.0
230
1.0
0
LINE
5
11E
330
70
100
AcDbEntity
67
0
8
IV_OUTER_PROFILE
62
256
6
ByLayer
370
-1
48
1.0
60
0
100
AcDbLine
10
1185.80617575665
20
2.41778498113044
30
0.0
11
1184.58221529305
21
0.0000001343848277
31
0.0
39
0.0
210
0.0
220
0.0
230
1.0
0
LINE
5
11F
330
70
100
AcDbEntity
67
0
8
IV_OUTER_PROFILE
62
256
6
ByLayer
370
-1
48
1.0
60
0
100
AcDbLine
10
1152.65174057158
20
47.5520792071801
30
0.0
11
1185.80617575665
21
2.41778498113044
31
0.0
39
0.0
210
0.0
220
0.0
230
1.0
0
ARC
5
120
330
70
100
AcDbEntity
67
0
8
IV_OUTER_PROFILE
62
256
6
ByLayer
370
-1
48
1.0
60
0
100
AcDbCircle
39
0.0
10
1147.81617087809
20
44.0000001343848
30
0.0
40
6.0
210
0.0
220
0.0
230
1.0
100
AcDbArc
50
36.2999999999995
51
90.0
0
LINE
5
121
330
70
100
AcDbEntity
67
0
8
IV_OUTER_PROFILE
62
256
6
ByLayer
370
-1
48
1.0
60
0
100
AcDbLine
10
67.6158664070822
20
50.0000001343848
30
0.0
11
1147.81617087809
21
50.0000001343848
31
0.0
39
0.0
210
0.0
220
0.0
230
1.0
0
ARC
5
122
330
70
100
AcDbEntity
67
0
8
IV_OUTER_PROFILE
62
256
6
ByLayer
370
-1
48
1.0
60
0
100
AcDbCircle
39
0.0
10
67.6158664070822
20
44.0000001343848
30
0.0
40
6.0
210
0.0
220
0.0
230
1.0
100
AcDbArc
50
90.0
51
126.299999999999
0
LINE
5
123
330
70
100
AcDbEntity
67
0
8
IV_OUTER_PROFILE
62
256
6
ByLayer
370
-1
48
1.0
60
0
100
AcDbLine
10
0.0000001397940252
20
1.77603967078249
30
0.0
11
64.063787334287
21
48.8355698278759
31
0.0
39
0.0
210
0.0
220
0.0
230
1.0
0
LINE
5
124
330
70
100
AcDbEntity
67
0
8
IV_OUTER_PROFILE
62
256
6
ByLayer
370
-1
48
1.0
60
0
100
AcDbLine
10
0.582215293048449
20
0.0000001343848277
30
0.0
11
0.0000001397940252
21
1.77603967078249
31
0.0
39
0.0
210
0.0
220
0.0
230
1.0
0
LINE
5
125
330
70
100
AcDbEntity
67
0
8
IV_OUTER_PROFILE
62
256
6
ByLayer
370
-1
48
1.0
60
0
100
AcDbLine
10
183.082215293048
20
0.0000001343848233
30
0.0
11
0.582215293048449
21
0.0000001343848277
31
0.0
39
0.0
210
0.0
220
0.0
230
1.0
0
LINE
5
126
330
70
100
AcDbEntity
67
0
8
IV_OUTER_PROFILE
62
256
6
ByLayer
370
-1
48
1.0
60
0
100
AcDbLine
10
183.082215293048
20
0.0000001343848233
30
0.0
11
183.082215293048
21
26.0000001343848
31
0.0
39
0.0
210
0.0
220
0.0
230
1.0
0
LINE
5
127
330
70
100
AcDbEntity
67
0
8
IV_OUTER_PROFILE
62
256
6
ByLayer
370
-1
48
1.0
60
0
100
AcDbLine
10
183.082215293048
20
26.0000001343848
30
0.0
11
186.082215293048
21
26.0000001343848
31
0.0
39
0.0
210
0.0
220
0.0
230
1.0
0
LINE
5
128
330
70
100
AcDbEntity
67
0
8
IV_OUTER_PROFILE
62
256
6
ByLayer
370
-1
48
1.0
60
0
100
AcDbLine
10
186.082215293048
20
26.0000001343848
30
0.0
11
186.082215293048
21
0.0000001343848233
31
0.0
39
0.0
210
0.0
220
0.0
230
1.0
0
LINE
5
129
330
70
100
AcDbEntity
67
0
8
IV_OUTER_PROFILE
62
256
6
ByLayer
370
-1
48
1.0
60
0
100
AcDbLine
10
506.082215293048
20
0.0000001343848277
30
0.0
11
186.082215293048
21
0.0000001343848233
31
0.0
39
0.0
210
0.0
220
0.0
230
1.0
0
LINE
5
12A
330
70
100
AcDbEntity
67
0
8
IV_OUTER_PROFILE
62
256
6
ByLayer
370
-1
48
1.0
60
0
100
AcDbLine
10
506.082215293048
20
0.0000001343848277
30
0.0
11
506.082215293048
21
26.0000001343848
31
0.0
39
0.0
210
0.0
220
0.0
230
1.0
0
LINE
5
12B
330
70
100
AcDbEntity
67
0
8
IV_OUTER_PROFILE
62
256
6
ByLayer
370
-1
48
1.0
60
0
100
AcDbLine
10
506.082215293048
20
26.0000001343848
30
0.0
11
509.082215293048
21
26.0000001343848
31
0.0
39
0.0
210
0.0
220
0.0
230
1.0
0
LINE
5
12C
330
70
100
AcDbEntity
67
0
8
IV_OUTER_PROFILE
62
256
6
ByLayer
370
-1
48
1.0
60
0
100
AcDbLine
10
509.082215293048
20
26.0000001343848
30
0.0
11
509.082215293048
21
0.0000001343848277
31
0.0
39
0.0
210
0.0
220
0.0
230
1.0
0
LINE
5
12D
330
70
100
AcDbEntity
67
0
8
IV_OUTER_PROFILE
62
256
6
ByLayer
370
-1
48
1.0
60
0
100
AcDbLine
10
829.082215293048
20
0.0000001343848277
30
0.0
11
509.082215293048
21
0.0000001343848277
31
0.0
39
0.0
210
0.0
220
0.0
230
1.0
0
LINE
5
12E
330
70
100
AcDbEntity
67
0
8
IV_OUTER_PROFILE
62
256
6
ByLayer
370
-1
48
1.0
60
0
100
AcDbLine
10
829.082215293048
20
0.0000001343848277
30
0.0
11
829.082215293048
21
26.0000001343848
31
0.0
39
0.0
210
0.0
220
0.0
230
1.0
0
LINE
5
12F
330
70
100
AcDbEntity
67
0
8
IV_OUTER_PROFILE
62
256
6
ByLayer
370
-1
48
1.0
60
0
100
AcDbLine
10
829.082215293048
20
26.0000001343848
30
0.0
11
832.082215293049
21
26.0000001343848
31
0.0
39
0.0
210
0.0
220
0.0
230
1.0
0
ENDSEC
0
SECTION
2
OBJECTS
0
DICTIONARY
5
19A
330
0
100
AcDbDictionary
280
1
281
1
3
ACAD_GROUP
350
D
3
ACAD_LAYOUT
350
62
3
ACAD_DGNDEFINITIONS
350
18C
3
ACAD_DWFDEFINITIONS
350
18D
3
ACAD_PDFDEFINITIONS
350
18E
3
ACAD_MLINESTYLE
350
5F
3
ACAD_IMAGE_DICT
350
18B
3
ACAD_IMAGE_VARS
350
18F
0
DICTIONARY
5
D
330
19A
100
AcDbDictionary
280
1
281
1
0
DICTIONARY
5
62
330
19A
100
AcDbDictionary
280
1
281
1
3
Layout1
350
6F
3
Layout2
350
77
3
Model
350
73
0
DICTIONARY
5
18C
330
19A
100
AcDbDictionary
280
1
281
1
0
DICTIONARY
5
18D
330
19A
100
AcDbDictionary
280
1
281
1
0
DICTIONARY
5
18E
330
19A
100
AcDbDictionary
280
1
281
1
0
DICTIONARY
5
5F
330
19A
100
AcDbDictionary
280
1
281
1
3
STANDARD
350
60
0
DICTIONARY
5
18B
330
19A
100
AcDbDictionary
280
1
281
1
0
DICTIONARY
5
189
330
2
100
AcDbDictionary
280
1
281
1
3
ACAD_LAYERSTATES
360
19B
0
DICTIONARY
5
19B
330
189
100
AcDbDictionary
280
1
281
1
0
LAYOUT
5
6F
330
62
100
AcDbPlotSettings
1

2

4

6

40
0.0
41
0.0
42
0.0
43
0.0
44
0.0
45
0.0
46
0.0
47
0.0
48
0.0
49
0.0
140
0.0
141
0.0
142
1.0
143
1.0
70
688
72
0
73
0
74
5
7

75
16
76
0
77
2
78
300
147
1.0
148
0.0
149
0.0
100
AcDbLayout
1
Layout1
71
1
10
0.0
20
0.0
11
12.0
21
9.0
12
0.0
22
0.0
32
0.0
14
0.0
24
0.0
34
0.0
15
0.0
25
0.0
35
0.0
146
0.0
13
0.0
23
0.0
33
0.0
16
1.0
26
0.0
36
0.0
17
0.0
27
1.0
37
0.0
76
0
330
6C
0
LAYOUT
5
77
330
62
100
AcDbPlotSettings
1

2

4

6

40
0.0
41
0.0
42
0.0
43
0.0
44
0.0
45
0.0
46
0.0
47
0.0
48
0.0
49
0.0
140
0.0
141
0.0
142
1.0
143
1.0
70
688
72
0
73
0
74
5
7

75
16
76
0
77
2
78
300
147
1.0
148
0.0
149
0.0
100
AcDbLayout
1
Layout2
71
2
10
0.0
20
0.0
11
12.0
21
9.0
12
0.0
22
0.0
32
0.0
14
0.0
24
0.0
34
0.0
15
0.0
25
0.0
35
0.0
146
0.0
13
0.0
23
0.0
33
0.0
16
1.0
26
0.0
36
0.0
17
0.0
27
1.0
37
0.0
76
0
330
74
0
LAYOUT
5
73
330
62
100
AcDbPlotSettings
1

2

4

6

40
0.0
41
0.0
42
0.0
43
0.0
44
0.0
45
0.0
46
0.0
47
0.0
48
0.0
49
0.0
140
0.0
141
0.0
142
1.0
143
1.0
70
1712
72
0
73
0
74
0
7

75
0
76
0
77
2
78
300
147
1.0
148
0.0
149
0.0
100
AcDbLayout
1
Model
71
3
10
0.0
20
0.0
11
12.0
21
9.0
12
0.0
22
0.0
32
0.0
14
0.0
24
0.0
34
0.0
15
0.0
25
0.0
35
0.0
146
0.0
13
0.0
23
0.0
33
0.0
16
1.0
26
0.0
36
0.0
17
0.0
27
1.0
37
0.0
76
0
330
70
0
MLINESTYLE
5
60
330
5F
100
AcDbMlineStyle
2
STANDARD
70
0
3

62
256
51
90.0
52
90.0
71
2
49
0.5
62
256
6
ByLayer
49
-0.5
62
256
6
ByLayer
0
RASTERVARIABLES
5
18F
330
18B
100
AcDbRasterVariables
90
0
70
1
71
1
72
0
0
ENDSEC
0
EOF
