999
autodxfXMIN:1,094986146E-07
999
autodxfXMAX:2047,970381352663
999
autodxfYMIN:1,094986472E-07
999
autodxfYMAX:395,1678191926707
0
SECTION
2
HEADER
9
$ACADVER
1
AC1015
9
$DWGCODEPAGE
3
ANSI_1251
9
$HANDSEED
5
22A
9
$ANGBASE
50
0.0
9
$ANGDIR
70
0
9
$ATTMODE
70
1
9
$AUNITS
70
0
9
$AUPREC
70
0
9
$CECOLOR
62
256
9
$CELTSCALE
40
1.0
9
$CELTYPE
6
ByLayer
9
$CELWEIGHT
370
-1
9
$CLAYER
8
0
9
$CMLJUST
70
0
9
$CMLSCALE
40
1.0
9
$CMLSTYLE
2
Standard
9
$DIMSTYLE
2
Standard
9
$TEXTSIZE
40
0.2
9
$TEXTSTYLE
7
Standard
9
$LUNITS
70
2
9
$LUPREC
70
4
9
$MIRRTEXT
70
0
9
$EXTNAMES
290
1
9
$INSBASE
10
0.0
20
0.0
30
0.0
9
$INSUNITS
70
4
9
$LTSCALE
40
1.0
9
$LWDISPLAY
290
0
9
$PDMODE
70
0
9
$PDSIZE
40
0.0
9
$PLINEGEN
70
0
9
$PSLTSCALE
70
1
9
$SPLINESEGS
70
6
9
$SURFU
70
6
9
$SURFV
70
6
9
$TDCREATE
40
2460567.59405093
9
$TDUCREATE
40
2460567.46905093
9
$TDUPDATE
40
2460567.59405093
9
$TDUUPDATE
40
2460567.46905093
9
$TDINDWG
40
0.0000115740740741
9
$UCSORG
10
0.0
20
0.0
30
0.0
9
$UCSXDIR
10
1.0
20
0.0
30
0.0
9
$UCSYDIR
10
0.0
20
1.0
30
0.0
9
$DIMADEC
70
0
9
$DIMALT
70
0
9
$DIMALTD
70
2
9
$DIMALTF
40
25.4
9
$DIMALTRND
40
0.0
9
$DIMALTTD
70
2
9
$DIMALTTZ
70
0
9
$DIMALTU
70
2
9
$DIMALTZ
70
0
9
$DIMAPOST
1

9
$DIMATFIT
70
3
9
$DIMAUNIT
70
0
9
$DIMASZ
40
0.18
9
$DIMAZIN
70
3
9
$DIMSAH
70
0
9
$DIMBLK
1

9
$DIMLDRBLK
1

9
$DIMCEN
40
0.09
9
$DIMCLRD
70
0
9
$DIMCLRE
70
0
9
$DIMCLRT
70
0
9
$DIMDEC
70
4
9
$DIMDLE
40
0.0
9
$DIMDLI
40
0.38
9
$DIMDSEP
70
46
9
$DIMEXE
40
0.18
9
$DIMEXO
40
0.0625
9
$DIMFXLON
70
0
9
$DIMFXL
40
1.0
9
$DIMGAP
40
0.09
9
$DIMJUST
70
0
9
$DIMLFAC
40
1.0
9
$DIMLUNIT
70
2
9
$DIMLWD
70
-2
9
$DIMLWE
70
-2
9
$DIMPOST
1

9
$DIMRND
40
0.0
9
$DIMSCALE
40
1.0
9
$DIMSD1
70
0
9
$DIMSD2
70
0
9
$DIMSE1
70
0
9
$DIMSE2
70
0
9
$DIMSOXD
70
0
9
$DIMTAD
70
0
9
$DIMTDEC
70
4
9
$DIMTFAC
40
1.0
9
$DIMTIH
70
0
9
$DIMTIX
70
0
9
$DIMTM
40
0.0
9
$DIMTMOVE
70
0
9
$DIMTOFL
70
0
9
$DIMTOH
70
0
9
$DIMTOL
70
0
9
$DIMLIM
70
0
9
$DIMTOLJ
70
1
9
$DIMTP
40
0.0
9
$DIMTXT
40
0.18
9
$DIMTXTDIRECTION
70
0
9
$DIMTZIN
70
0
9
$DIMZIN
70
0
9
$DIMFRAC
70
0
9
$DIMLTYPE
6
ByBlock
9
$DIMLTEX1
6
ByBlock
9
$DIMLTEX2
6
ByBlock
9
$EXTMIN
10
0.0
20
0.0
30
0.0
9
$EXTMAX
10
2047.97038124317
20
395.167819083172
30
0.0
9
$LIMMIN
10
0.0
20
0.0
9
$LIMMAX
10
2047.97038124317
20
395.167819083172
9
$ORTHOMODE
70
0
9
$REGENMODE
70
1
9
$FILLMODE
70
1
9
$QTEXTMODE
70
0
9
$TRACEWID
40
0.05
9
$DISPSILH
70
0
9
$SKETCHINC
40
0.1
9
$FILLETRAD
40
0.0
9
$MENU
1
.
9
$ELEVATION
40
0.0
9
$PELEVATION
40
0.0
9
$THICKNESS
40
0.0
9
$LIMCHECK
70
0
9
$CHAMFERA
40
0.0
9
$CHAMFERB
40
0.0
9
$CHAMFERC
40
0.0
9
$CHAMFERD
40
0.0
9
$SKPOLY
70
0
9
$TDUSRTIMER
40
0.0000115741
9
$USRTIMER
70
1
9
$PLINEWID
40
0.0
9
$SPLFRAME
70
0
9
$SPLINETYPE
70
6
9
$SURFTAB1
70
6
9
$SURFTAB2
70
6
9
$SURFTYPE
70
6
9
$UCSBASE
2

9
$UCSNAME
2

9
$UCSORTHOREF
2

9
$UCSORTHOVIEW
70
0
9
$UCSORGTOP
10
0.0
20
0.0
30
0.0
9
$UCSORGBOTTOM
10
0.0
20
0.0
30
0.0
9
$UCSORGLEFT
10
0.0
20
0.0
30
0.0
9
$UCSORGRIGHT
10
0.0
20
0.0
30
0.0
9
$UCSORGFRONT
10
0.0
20
0.0
30
0.0
9
$UCSORGBACK
10
0.0
20
0.0
30
0.0
9
$PUCSBASE
2

9
$PUCSNAME
2

9
$PUCSORG
10
0.0
20
0.0
30
0.0
9
$PUCSXDIR
10
1.0
20
0.0
30
0.0
9
$PUCSYDIR
10
0.0
20
1.0
30
0.0
9
$PUCSORTHOREF
2

9
$PUCSORTHOVIEW
70
0
9
$PUCSORGTOP
10
0.0
20
0.0
30
0.0
9
$PUCSORGBOTTOM
10
0.0
20
0.0
30
0.0
9
$PUCSORGLEFT
10
0.0
20
0.0
30
0.0
9
$PUCSORGRIGHT
10
0.0
20
0.0
30
0.0
9
$PUCSORGFRONT
10
0.0
20
0.0
30
0.0
9
$PUCSORGBACK
10
0.0
20
0.0
30
0.0
9
$USERI1
70
0
9
$USERI2
70
0
9
$USERI3
70
0
9
$USERI4
70
0
9
$USERI5
70
0
9
$USERR1
40
0.0
9
$USERR2
40
0.0
9
$USERR3
40
0.0
9
$USERR4
40
0.0
9
$USERR5
40
0.0
9
$WORLDVIEW
70
1
9
$SHADEDGE
70
3
9
$SHADEDIF
70
70
9
$TILEMODE
70
1
9
$MAXACTVP
70
64
9
$PINSBASE
10
0.0
20
0.0
30
0.0
9
$PLIMCHECK
70
0
9
$PEXTMIN
10
0.0
20
0.0
30
0.0
9
$PEXTMAX
10
2047.97038124317
20
395.167819083172
30
0.0
9
$PLIMMIN
10
0.0
20
0.0
9
$PLIMMAX
10
2047.97038124317
20
395.167819083172
9
$UNITMODE
70
0
9
$VISRETAIN
70
1
9
$TREEDEPTH
70
3020
9
$PROXYGRAPHICS
70
1
9
$MEASUREMENT
70
1
9
$ENDCAPS
280
0
9
$JOINSTYLE
280
0
9
$HYPERLINKBASE
1

9
$STYLESHEET
1

9
$XEDIT
290
1
9
$CEPSNTYPE
380
0
9
$PSTYLEMODE
290
1
9
$FINGERPRINTGUID
2
{52C5AC57-479E-0049-A352-4E3B614ACCDF}
9
$VERSIONGUID
2
{94BB1018-32E2-954F-8E98-5645B167EC5E}
9
$PSVPSCALE
40
0.0
9
$OLESTARTUP
290
0
0
ENDSEC
0
SECTION
2
CLASSES
0
CLASS
1
RASTERVARIABLES
2
AcDbRasterVariables
3
ISM
90
0
280
0
281
0
0
ENDSEC
0
SECTION
2
TABLES
0
TABLE
2
APPID
5
9
330
0
100
AcDbSymbolTable
70
7
0
APPID
5
56
330
9
100
AcDbSymbolTableRecord
100
AcDbRegAppTableRecord
2
ACAD
70
0
0
APPID
5
5E
330
9
100
AcDbSymbolTableRecord
100
AcDbRegAppTableRecord
2
AcadAnnotative
70
0
0
APPID
5
204
330
9
100
AcDbSymbolTableRecord
100
AcDbRegAppTableRecord
2
ACAD_MLEADERVER
70
0
0
APPID
5
224
330
9
100
AcDbSymbolTableRecord
100
AcDbRegAppTableRecord
2
AcCmTransparency
70
0
0
APPID
5
225
330
9
100
AcDbSymbolTableRecord
100
AcDbRegAppTableRecord
2
AcAecLayerStandard
70
0
0
APPID
5
226
330
9
100
AcDbSymbolTableRecord
100
AcDbRegAppTableRecord
2
GradientColor1ACI
70
0
0
APPID
5
227
330
9
100
AcDbSymbolTableRecord
100
AcDbRegAppTableRecord
2
GradientColor2ACI
70
0
0
ENDTAB
0
TABLE
2
VPORT
5
8
330
0
100
AcDbSymbolTable
70
1
0
VPORT
5
215
330
8
100
AcDbSymbolTableRecord
100
AcDbViewportTableRecord
2
*Active
70
0
10
0.0
20
0.0
11
1.0
21
1.0
12
1023.98519073108
22
197.583909651085
13
0.0
23
0.0
14
0.5
24
0.5
15
10.0
25
10.0
16
0.0
26
0.0
36
1.0
17
0.0
27
0.0
37
0.0
40
2252.767
41
1.0
75
0
76
1
0
ENDTAB
0
TABLE
2
LTYPE
5
5
330
0
100
AcDbSymbolTable
70
48
0
LTYPE
5
5B
330
5
100
AcDbSymbolTableRecord
100
AcDbLinetypeTableRecord
2
ByBlock
70
0
3

72
65
73
0
40
0.0
0
LTYPE
5
5C
330
5
100
AcDbSymbolTableRecord
100
AcDbLinetypeTableRecord
2
ByLayer
70
0
3

72
65
73
0
40
0.0
0
LTYPE
5
5D
330
5
100
AcDbSymbolTableRecord
100
AcDbLinetypeTableRecord
2
Continuous
70
0
3
Solid line
72
65
73
0
40
0.0
0
LTYPE
5
78
330
5
100
AcDbSymbolTableRecord
100
AcDbLinetypeTableRecord
2
BORDER
70
0
3
Border __ __ . __ __ . __ __ . __ __ . __ __ .
72
65
73
6
40
1.75
49
0.5
74
0
49
-0.25
74
0
49
0.5
74
0
49
-0.25
74
0
49
0.0
74
0
49
-0.25
74
0
0
LTYPE
5
79
330
5
100
AcDbSymbolTableRecord
100
AcDbLinetypeTableRecord
2
BORDER2
70
0
3
Border (.5x) __.__.__.__.__.__.__.__.__.__.__.
72
65
73
6
40
0.875
49
0.25
74
0
49
-0.125
74
0
49
0.25
74
0
49
-0.125
74
0
49
0.0
74
0
49
-0.125
74
0
0
LTYPE
5
7A
330
5
100
AcDbSymbolTableRecord
100
AcDbLinetypeTableRecord
2
BORDERX2
70
0
3
Border (2x) ____  ____  .  ____  ____  .  ___
72
65
73
6
40
3.5
49
1.0
74
0
49
-0.5
74
0
49
1.0
74
0
49
-0.5
74
0
49
0.0
74
0
49
-0.5
74
0
0
LTYPE
5
7B
330
5
100
AcDbSymbolTableRecord
100
AcDbLinetypeTableRecord
2
CENTER
70
0
3
Center ____ _ ____ _ ____ _ ____ _ ____ _ ____
72
65
73
4
40
2.0
49
1.25
74
0
49
-0.25
74
0
49
0.25
74
0
49
-0.25
74
0
0
LTYPE
5
7C
330
5
100
AcDbSymbolTableRecord
100
AcDbLinetypeTableRecord
2
CENTER2
70
0
3
Center (.5x) ___ _ ___ _ ___ _ ___ _ ___ _ ___
72
65
73
4
40
1.125
49
0.75
74
0
49
-0.125
74
0
49
0.125
74
0
49
-0.125
74
0
0
LTYPE
5
7D
330
5
100
AcDbSymbolTableRecord
100
AcDbLinetypeTableRecord
2
CENTERX2
70
0
3
Center (2x) ________  __  ________  __  _____
72
65
73
4
40
4.0
49
2.5
74
0
49
-0.5
74
0
49
0.5
74
0
49
-0.5
74
0
0
LTYPE
5
7E
330
5
100
AcDbSymbolTableRecord
100
AcDbLinetypeTableRecord
2
DASHDOT
70
0
3
Dash dot __ . __ . __ . __ . __ . __ . __ . __
72
65
73
4
40
1.0
49
0.5
74
0
49
-0.25
74
0
49
0.0
74
0
49
-0.25
74
0
0
LTYPE
5
7F
330
5
100
AcDbSymbolTableRecord
100
AcDbLinetypeTableRecord
2
DASHDOT2
70
0
3
Dash dot (.5x) _._._._._._._._._._._._._._._.
72
65
73
4
40
0.5
49
0.25
74
0
49
-0.125
74
0
49
0.0
74
0
49
-0.125
74
0
0
LTYPE
5
80
330
5
100
AcDbSymbolTableRecord
100
AcDbLinetypeTableRecord
2
DASHDOTX2
70
0
3
Dash dot (2x) ____  .  ____  .  ____  .  ___
72
65
73
4
40
2.0
49
1.0
74
0
49
-0.5
74
0
49
0.0
74
0
49
-0.5
74
0
0
LTYPE
5
81
330
5
100
AcDbSymbolTableRecord
100
AcDbLinetypeTableRecord
2
DASHED
70
0
3
Dashed __ __ __ __ __ __ __ __ __ __ __ __ __ _
72
65
73
2
40
0.75
49
0.5
74
0
49
-0.25
74
0
0
LTYPE
5
82
330
5
100
AcDbSymbolTableRecord
100
AcDbLinetypeTableRecord
2
DASHED2
70
0
3
Dashed (.5x) _ _ _ _ _ _ _ _ _ _ _ _ _ _ _ _ _
72
65
73
2
40
0.375
49
0.25
74
0
49
-0.125
74
0
0
LTYPE
5
83
330
5
100
AcDbSymbolTableRecord
100
AcDbLinetypeTableRecord
2
DASHEDX2
70
0
3
Dashed (2x) ____  ____  ____  ____  ____  ___
72
65
73
2
40
1.5
49
1.0
74
0
49
-0.5
74
0
0
LTYPE
5
84
330
5
100
AcDbSymbolTableRecord
100
AcDbLinetypeTableRecord
2
DIVIDE
70
0
3
Divide ____ . . ____ . . ____ . . ____ . . ____
72
65
73
6
40
1.25
49
0.5
74
0
49
-0.25
74
0
49
0.0
74
0
49
-0.25
74
0
49
0.0
74
0
49
-0.25
74
0
0
LTYPE
5
85
330
5
100
AcDbSymbolTableRecord
100
AcDbLinetypeTableRecord
2
DIVIDE2
70
0
3
Divide (.5x) __..__..__..__..__..__..__..__.._
72
65
73
6
40
0.625
49
0.25
74
0
49
-0.125
74
0
49
0.0
74
0
49
-0.125
74
0
49
0.0
74
0
49
-0.125
74
0
0
LTYPE
5
86
330
5
100
AcDbSymbolTableRecord
100
AcDbLinetypeTableRecord
2
DIVIDEX2
70
0
3
Divide (2x) ________  .  .  ________  .  .  _
72
65
73
6
40
2.5
49
1.0
74
0
49
-0.5
74
0
49
0.0
74
0
49
-0.5
74
0
49
0.0
74
0
49
-0.5
74
0
0
LTYPE
5
87
330
5
100
AcDbSymbolTableRecord
100
AcDbLinetypeTableRecord
2
DOT
70
0
3
Dot . . . . . . . . . . . . . . . . . . . . . .
72
65
73
2
40
0.25
49
0.0
74
0
49
-0.25
74
0
0
LTYPE
5
88
330
5
100
AcDbSymbolTableRecord
100
AcDbLinetypeTableRecord
2
DOT2
70
0
3
Dot (.5x) .....................................
72
65
73
2
40
0.125
49
0.0
74
0
49
-0.125
74
0
0
LTYPE
5
89
330
5
100
AcDbSymbolTableRecord
100
AcDbLinetypeTableRecord
2
DOTX2
70
0
3
Dot (2x) .  .  .  .  .  .  .  .  .  .  .  .  . 
72
65
73
2
40
0.5
49
0.0
74
0
49
-0.5
74
0
0
LTYPE
5
8A
330
5
100
AcDbSymbolTableRecord
100
AcDbLinetypeTableRecord
2
HIDDEN
70
0
3
Hidden __ __ __ __ __ __ __ __ __ __ __ __ __ _
72
65
73
2
40
0.375
49
0.25
74
0
49
-0.125
74
0
0
LTYPE
5
8B
330
5
100
AcDbSymbolTableRecord
100
AcDbLinetypeTableRecord
2
HIDDEN2
70
0
3
Hidden (.5x) _ _ _ _ _ _ _ _ _ _ _ _ _ _ _ _ _
72
65
73
2
40
0.1875
49
0.125
74
0
49
-0.0625
74
0
0
LTYPE
5
8C
330
5
100
AcDbSymbolTableRecord
100
AcDbLinetypeTableRecord
2
HIDDENX2
70
0
3
Hidden (2x) ____ ____ ____ ____ ____ ____ ____
72
65
73
2
40
0.75
49
0.5
74
0
49
-0.25
74
0
0
LTYPE
5
8D
330
5
100
AcDbSymbolTableRecord
100
AcDbLinetypeTableRecord
2
PHANTOM
70
0
3
Phantom ______  __  __  ______  __  __  ______
72
65
73
6
40
2.5
49
1.25
74
0
49
-0.25
74
0
49
0.25
74
0
49
-0.25
74
0
49
0.25
74
0
49
-0.25
74
0
0
LTYPE
5
8E
330
5
100
AcDbSymbolTableRecord
100
AcDbLinetypeTableRecord
2
PHANTOM2
70
0
3
Phantom (.5x) ___ _ _ ___ _ _ ___ _ _ ___ _ _
72
65
73
6
40
1.25
49
0.625
74
0
49
-0.125
74
0
49
0.125
74
0
49
-0.125
74
0
49
0.125
74
0
49
-0.125
74
0
0
LTYPE
5
8F
330
5
100
AcDbSymbolTableRecord
100
AcDbLinetypeTableRecord
2
PHANTOMX2
70
0
3
Phantom (2x) ____________    ____    ____   _
72
65
73
6
40
5.0
49
2.5
74
0
49
-0.5
74
0
49
0.5
74
0
49
-0.5
74
0
49
0.5
74
0
49
-0.5
74
0
0
LTYPE
5
90
330
5
100
AcDbSymbolTableRecord
100
AcDbLinetypeTableRecord
2
ACAD_ISO02W100
70
0
3
ISO dash __ __ __ __ __ __ __ __ __ __ __ __ __
72
65
73
2
40
15.0
49
12.0
74
0
49
-3.0
74
0
0
LTYPE
5
91
330
5
100
AcDbSymbolTableRecord
100
AcDbLinetypeTableRecord
2
ACAD_ISO03W100
70
0
3
ISO dash space __    __    __    __    __    __
72
65
73
2
40
30.0
49
12.0
74
0
49
-18.0
74
0
0
LTYPE
5
92
330
5
100
AcDbSymbolTableRecord
100
AcDbLinetypeTableRecord
2
ACAD_ISO04W100
70
0
3
ISO long-dash dot ____ . ____ . ____ . ____ . _
72
65
73
4
40
30.0
49
24.0
74
0
49
-3.0
74
0
49
0.0
74
0
49
-3.0
74
0
0
LTYPE
5
93
330
5
100
AcDbSymbolTableRecord
100
AcDbLinetypeTableRecord
2
ACAD_ISO05W100
70
0
3
ISO long-dash double-dot ____ .. ____ .. ____ .
72
65
73
6
40
33.0
49
24.0
74
0
49
-3.0
74
0
49
0.0
74
0
49
-3.0
74
0
49
0.0
74
0
49
-3.0
74
0
0
LTYPE
5
94
330
5
100
AcDbSymbolTableRecord
100
AcDbLinetypeTableRecord
2
ACAD_ISO06W100
70
0
3
ISO long-dash triple-dot ____ ... ____ ... ____
72
65
73
8
40
36.0
49
24.0
74
0
49
-3.0
74
0
49
0.0
74
0
49
-3.0
74
0
49
0.0
74
0
49
-3.0
74
0
49
0.0
74
0
49
-3.0
74
0
0
LTYPE
5
95
330
5
100
AcDbSymbolTableRecord
100
AcDbLinetypeTableRecord
2
ACAD_ISO07W100
70
0
3
ISO dot . . . . . . . . . . . . . . . . . . . .
72
65
73
2
40
3.0
49
0.0
74
0
49
-3.0
74
0
0
LTYPE
5
96
330
5
100
AcDbSymbolTableRecord
100
AcDbLinetypeTableRecord
2
ACAD_ISO08W100
70
0
3
ISO long-dash short-dash ____ __ ____ __ ____ _
72
65
73
4
40
36.0
49
24.0
74
0
49
-3.0
74
0
49
6.0
74
0
49
-3.0
74
0
0
LTYPE
5
97
330
5
100
AcDbSymbolTableRecord
100
AcDbLinetypeTableRecord
2
ACAD_ISO09W100
70
0
3
ISO long-dash double-short-dash ____ __ __ ____
72
65
73
6
40
45.0
49
24.0
74
0
49
-3.0
74
0
49
6.0
74
0
49
-3.0
74
0
49
6.0
74
0
49
-3.0
74
0
0
LTYPE
5
98
330
5
100
AcDbSymbolTableRecord
100
AcDbLinetypeTableRecord
2
ACAD_ISO10W100
70
0
3
ISO dash dot __ . __ . __ . __ . __ . __ . __ .
72
65
73
4
40
18.0
49
12.0
74
0
49
-3.0
74
0
49
0.0
74
0
49
-3.0
74
0
0
LTYPE
5
99
330
5
100
AcDbSymbolTableRecord
100
AcDbLinetypeTableRecord
2
ACAD_ISO11W100
70
0
3
ISO double-dash dot __ __ . __ __ . __ __ . __ 
72
65
73
6
40
33.0
49
12.0
74
0
49
-3.0
74
0
49
12.0
74
0
49
-3.0
74
0
49
0.0
74
0
49
-3.0
74
0
0
LTYPE
5
9A
330
5
100
AcDbSymbolTableRecord
100
AcDbLinetypeTableRecord
2
ACAD_ISO12W100
70
0
3
ISO dash double-dot __ . . __ . . __ . . __ . .
72
65
73
6
40
21.0
49
12.0
74
0
49
-3.0
74
0
49
0.0
74
0
49
-3.0
74
0
49
0.0
74
0
49
-3.0
74
0
0
LTYPE
5
9B
330
5
100
AcDbSymbolTableRecord
100
AcDbLinetypeTableRecord
2
ACAD_ISO13W100
70
0
3
ISO double-dash double-dot __ __ . . __ __ . . 
72
65
73
8
40
36.0
49
12.0
74
0
49
-3.0
74
0
49
12.0
74
0
49
-3.0
74
0
49
0.0
74
0
49
-3.0
74
0
49
0.0
74
0
49
-3.0
74
0
0
LTYPE
5
9C
330
5
100
AcDbSymbolTableRecord
100
AcDbLinetypeTableRecord
2
ACAD_ISO14W100
70
0
3
ISO dash triple-dot __ . . . __ . . . __ . . . 
72
65
73
8
40
24.0
49
12.0
74
0
49
-3.0
74
0
49
0.0
74
0
49
-3.0
74
0
49
0.0
74
0
49
-3.0
74
0
49
0.0
74
0
49
-3.0
74
0
0
LTYPE
5
9D
330
5
100
AcDbSymbolTableRecord
100
AcDbLinetypeTableRecord
2
ACAD_ISO15W100
70
0
3
ISO double-dash triple-dot __ __ . . . __ __ . 
72
65
73
10
40
39.0
49
12.0
74
0
49
-3.0
74
0
49
12.0
74
0
49
-3.0
74
0
49
0.0
74
0
49
-3.0
74
0
49
0.0
74
0
49
-3.0
74
0
49
0.0
74
0
49
-3.0
74
0
0
LTYPE
5
A0
330
5
100
AcDbSymbolTableRecord
100
AcDbLinetypeTableRecord
2
FENCELINE1
70
0
3
Fenceline circle ----0-----0----0-----0----0---
72
65
73
3
40
1.35
49
0.25
74
0
49
-0.1
74
0
49
1.0
74
0
0
LTYPE
5
A1
330
5
100
AcDbSymbolTableRecord
100
AcDbLinetypeTableRecord
2
FENCELINE2
70
0
3
Fenceline square ----[]-----[]----[]-----[]----
72
65
73
3
40
1.35
49
0.25
74
0
49
-0.1
74
0
49
1.0
74
0
0
LTYPE
5
A2
330
5
100
AcDbSymbolTableRecord
100
AcDbLinetypeTableRecord
2
TRACKS
70
0
3
Tracks -|-|-|-|-|-|-|-|-|-|-|-|-|-|-|-|-|-|-|-|
72
65
73
1
40
0.15
49
0.15
74
0
0
LTYPE
5
A3
330
5
100
AcDbSymbolTableRecord
100
AcDbLinetypeTableRecord
2
BATTING
70
0
3
Batting SSSSSSSSSSSSSSSSSSSSSSSSSSSSSSSSSSSSSSS
72
65
73
2
40
0.1001
49
0.0001
74
0
49
-0.1
74
0
0
LTYPE
5
A4
330
5
100
AcDbSymbolTableRecord
100
AcDbLinetypeTableRecord
2
HOT_WATER_SUPPLY
70
0
3
Hot water supply ---- HW ---- HW ---- HW ----
72
65
73
3
40
0.9
49
0.5
74
0
49
-0.2
74
2
75
0
340
55
46
0.1
50
0.0
44
-0.1
45
-0.05
9
HW
49
-0.2
74
0
0
LTYPE
5
A5
330
5
100
AcDbSymbolTableRecord
100
AcDbLinetypeTableRecord
2
GAS_LINE
70
0
3
Gas line ----GAS----GAS----GAS----GAS----GAS---
72
65
73
3
40
0.95
49
0.5
74
0
49
-0.2
74
2
75
0
340
55
46
0.1
50
0.0
44
-0.1
45
-0.05
9
GAS
49
-0.25
74
0
0
LTYPE
5
A6
330
5
100
AcDbSymbolTableRecord
100
AcDbLinetypeTableRecord
2
ZIGZAG
70
0
3
Zig zag /\/\/\/\/\/\/\/\/\/\/\/\/\/\/\/\/\/\/\/
72
65
73
2
40
0.2001
49
0.0001
74
0
49
-0.2
74
0
0
ENDTAB
0
TABLE
2
LAYER
5
2
102
{ACAD_XDICTIONARY
360
216
102
}
330
0
100
AcDbSymbolTable
70
6
0
LAYER
5
54
330
2
100
AcDbSymbolTableRecord
100
AcDbLayerTableRecord
2
0
70
0
62
7
6
Continuous
290
1
370
-3
390
0
0
LAYER
5
A7
330
2
100
AcDbSymbolTableRecord
100
AcDbLayerTableRecord
2
IV_INTERIOR_PROFILES
70
0
62
7
6
Continuous
290
1
370
50
390
0
0
LAYER
5
A8
330
2
100
AcDbSymbolTableRecord
100
AcDbLayerTableRecord
2
IV_OUTER_PROFILE
70
0
62
7
6
Continuous
290
1
370
50
390
0
0
LAYER
5
220
330
2
100
AcDbSymbolTableRecord
100
AcDbLayerTableRecord
2
AutoDXF_BendInfo
70
0
62
-3
6
Continuous
290
1
370
-3
390
0
0
LAYER
5
221
330
2
100
AcDbSymbolTableRecord
100
AcDbLayerTableRecord
2
IV_BEND
70
0
62
250
6
Continuous
290
1
370
50
390
0
0
LAYER
5
222
330
2
100
AcDbSymbolTableRecord
100
AcDbLayerTableRecord
2
IV_BEND_DOWN
70
0
62
250
6
Continuous
290
1
370
50
390
0
0
ENDTAB
0
TABLE
2
STYLE
5
3
330
0
100
AcDbSymbolTable
70
2
0
STYLE
5
55
330
3
100
AcDbSymbolTableRecord
100
AcDbTextStyleTableRecord
2
Standard
3
txt.SHX
70
0
71
0
40
0.0
41
1.0
42
0.0
50
0.0
0
STYLE
5
5A
330
3
100
AcDbSymbolTableRecord
100
AcDbTextStyleTableRecord
2
Annotative
3
txt.SHX
70
0
71
0
40
0.0
41
1.0
42
0.0
50
0.0
1001
AcadAnnotative
1000
AnnotativeData
1002
{
1070
1
1070
1
1002
}
0
STYLE
5
9F
330
217
100
AcDbSymbolTableRecord
100
AcDbTextStyleTableRecord
2

3
ltypeshp.shx
70
1
40
0.0
41
1.0
42
0.0
50
0.0
0
ENDTAB
0
TABLE
2
DIMSTYLE
5
A
330
0
100
AcDbSymbolTable
70
2
100
AcDbDimStyleTable
0
DIMSTYLE
105
58
330
A
100
AcDbSymbolTableRecord
100
AcDbDimStyleTableRecord
2
Standard
3

4

40
1.0
41
0.18
42
0.0625
43
0.38
44
0.18
45
0.0
46
0.0
47
0.0
48
0.0
49
1.0
70
0
71
0
72
0
73
0
74
0
75
0
76
0
77
0
78
0
79
3
140
0.18
141
0.09
143
25.4
144
1.0
146
1.0
147
0.09
148
0.0
170
0
171
2
172
0
174
0
175
0
176
0
177
0
178
0
179
0
271
4
272
4
273
2
274
2
275
0
276
0
277
2
278
46
279
0
280
0
281
0
282
0
283
1
284
0
285
0
286
0
289
3
290
0
294
0
340
55
173
0
345
5B
346
5B
347
5B
371
-2
372
-2
0
DIMSTYLE
105
59
330
A
100
AcDbSymbolTableRecord
100
AcDbDimStyleTableRecord
2
Annotative
3

4

40
1.0
41
0.18
42
0.0625
43
0.38
44
0.18
45
0.0
46
0.0
47
0.0
48
0.0
49
1.0
70
0
71
0
72
0
73
0
74
0
75
0
76
0
77
0
78
0
79
3
140
0.18
141
0.09
143
25.4
144
1.0
146
1.0
147
0.09
148
0.0
170
0
171
2
172
0
174
0
175
0
176
0
177
0
178
0
179
0
271
4
272
4
273
2
274
2
275
0
276
0
277
2
278
46
279
0
280
0
281
0
282
0
283
1
284
0
285
0
286
0
289
3
290
0
294
0
340
55
173
0
345
5B
346
5B
347
5B
371
-2
372
-2
1001
AcadAnnotative
1000
AnnotativeData
1002
{
1070
1
1070
1
1002
}
0
ENDTAB
0
TABLE
2
VIEW
5
6
330
0
100
AcDbSymbolTable
70
0
0
ENDTAB
0
TABLE
2
UCS
5
7
330
0
100
AcDbSymbolTable
70
0
0
ENDTAB
0
TABLE
2
BLOCK_RECORD
5
1
330
0
100
AcDbSymbolTable
70
3
0
BLOCK_RECORD
5
70
330
1
100
AcDbSymbolTableRecord
100
AcDbBlockTableRecord
2
*Model_Space
340
73
0
BLOCK_RECORD
5
6C
330
1
100
AcDbSymbolTableRecord
100
AcDbBlockTableRecord
2
*Paper_Space
340
6F
0
BLOCK_RECORD
5
74
330
1
100
AcDbSymbolTableRecord
100
AcDbBlockTableRecord
2
*Paper_Space0
340
77
0
ENDTAB
0
ENDSEC
0
SECTION
2
BLOCKS
0
BLOCK
5
71
330
70
100
AcDbEntity
67
0
8
0
100
AcDbBlockBegin
2
*Model_Space
70
0
10
0.0
20
0.0
30
0.0
3
*Model_Space
4

0
ENDBLK
5
72
330
70
100
AcDbEntity
8
0
100
AcDbBlockEnd
0
BLOCK
5
6D
330
6C
100
AcDbEntity
67
1
8
0
100
AcDbBlockBegin
2
*Paper_Space
70
0
10
0.0
20
0.0
30
0.0
3
*Paper_Space
4

0
ENDBLK
5
6E
330
6C
100
AcDbEntity
8
0
100
AcDbBlockEnd
0
BLOCK
5
75
330
74
100
AcDbEntity
67
1
8
0
100
AcDbBlockBegin
2
*Paper_Space0
70
0
10
0.0
20
0.0
30
0.0
3
*Paper_Space0
4

0
VIEWPORT
5
21E
330
74
100
AcDbEntity
67
1
8
0
62
256
6
ByLayer
370
-1
48
1.0
60
0
100
AcDbViewport
10
0.0
20
0.0
30
0.0
40
297.0
41
210.0
68
1
69
1
12
50.0
22
100.0
13
0.0
23
0.0
14
10.0
24
10.0
15
10.0
25
10.0
16
0.0
26
0.0
36
1.0
17
0.0
27
0.0
37
0.0
42
50.0
43
0.0
44
0.0
45
250.0
50
0.0
51
0.0
72
1000
90
819232
110
0.0
120
0.0
130
0.0
111
1.0
121
0.0
131
0.0
112
0.0
122
1.0
132
0.0
0
ENDBLK
5
76
330
74
100
AcDbEntity
8
0
100
AcDbBlockEnd
0
ENDSEC
0
SECTION
2
ENTITIES
0
VIEWPORT
5
21D
330
6C
100
AcDbEntity
67
1
8
0
62
256
6
ByLayer
370
-1
48
1.0
60
0
100
AcDbViewport
10
0.0
20
0.0
30
0.0
40
297.0
41
210.0
68
1
69
1
12
50.0
22
100.0
13
0.0
23
0.0
14
10.0
24
10.0
15
10.0
25
10.0
16
0.0
26
0.0
36
1.0
17
0.0
27
0.0
37
0.0
42
50.0
43
0.0
44
0.0
45
250.0
50
0.0
51
0.0
72
1000
90
819232
110
0.0
120
0.0
130
0.0
111
1.0
121
0.0
131
0.0
112
0.0
122
1.0
132
0.0
0
LINE
5
AA
330
70
100
AcDbEntity
67
0
8
IV_BEND
62
256
6
ByLayer
370
-1
48
1.0
60
0
100
AcDbLine
10
23.0059814505836
20
25.9140819502201
30
0.0
11
59.8847419113716
21
392.85774853506
31
0.0
39
0.0
210
0.0
220
0.0
230
1.0
0
CIRCLE
5
AC
330
70
100
AcDbEntity
67
0
8
IV_INTERIOR_PROFILES
62
256
6
ByLayer
370
-1
48
1.0
60
0
100
AcDbCircle
10
14.8499517123398
20
75.7731770002276
30
0.0
40
2.55
39
0.0
210
0.0
220
0.0
230
1.0
0
CIRCLE
5
AD
330
70
100
AcDbEntity
67
0
8
IV_INTERIOR_PROFILES
62
256
6
ByLayer
370
-1
48
1.0
60
0
100
AcDbCircle
10
26.8498017151396
20
195.171684528085
30
0.0
40
2.55
39
0.0
210
0.0
220
0.0
230
1.0
0
CIRCLE
5
AE
330
70
100
AcDbEntity
67
0
8
IV_INTERIOR_PROFILES
62
256
6
ByLayer
370
-1
48
1.0
60
0
100
AcDbCircle
10
38.8496517179391
20
314.570192055942
30
0.0
40
2.55
39
0.0
210
0.0
220
0.0
230
1.0
0
LINE
5
AF
330
70
100
AcDbEntity
67
0
8
IV_OUTER_PROFILE
62
256
6
ByLayer
370
-1
48
1.0
60
0
100
AcDbLine
10
36.8995388681469
20
395.167819192671
30
0.0
11
76.7520244665408
21
391.162544258159
31
0.0
39
0.0
210
0.0
220
0.0
230
1.0
0
LINE
5
B0
330
70
100
AcDbEntity
67
0
8
IV_OUTER_PROFILE
62
256
6
ByLayer
370
-1
48
1.0
60
0
100
AcDbLine
10
25.8634646463216
20
25.8357300442942
30
0.0
11
20.1484982548459
21
25.9924338561459
31
0.0
39
0.0
210
0.0
220
0.0
230
1.0
0
LINE
5
B1
330
70
100
AcDbEntity
67
0
8
IV_OUTER_PROFILE
62
256
6
ByLayer
370
-1
48
1.0
60
0
100
AcDbLine
10
20.1484982548459
20
25.9924338561459
30
0.0
11
0.0000001094986146
21
28.0174085441206
31
0.0
39
0.0
210
0.0
220
0.0
230
1.0
0
LINE
5
B2
330
70
100
AcDbEntity
67
0
8
IV_OUTER_PROFILE
62
256
6
ByLayer
370
-1
48
1.0
60
0
100
AcDbLine
10
0.0000001094986146
20
28.0174085441206
30
0.0
11
36.8995388681469
21
395.167819192671
31
0.0
39
0.0
210
0.0
220
0.0
230
1.0
0
LINE
5
B3
330
70
100
AcDbEntity
67
0
8
IV_OUTER_PROFILE
62
256
6
ByLayer
370
-1
48
1.0
60
0
100
AcDbLine
10
2028.56835658164
20
0.0000001094986472
30
0.0
11
25.8634646463216
21
25.8357300442942
31
0.0
39
0.0
210
0.0
220
0.0
230
1.0
0
LINE
5
B4
330
70
100
AcDbEntity
67
0
8
IV_OUTER_PROFILE
62
256
6
ByLayer
370
-1
48
1.0
60
0
100
AcDbLine
10
2047.97038135266
20
193.050146581161
30
0.0
11
2028.56835658164
21
0.0000001094986472
31
0.0
39
0.0
210
0.0
220
0.0
230
1.0
0
LINE
5
B5
330
70
100
AcDbEntity
67
0
8
IV_OUTER_PROFILE
62
256
6
ByLayer
370
-1
48
1.0
60
0
100
AcDbLine
10
2029.21361277239
20
194.935248951038
30
0.0
11
2047.97038135266
21
193.050146581161
31
0.0
39
0.0
210
0.0
220
0.0
230
1.0
0
ARC
5
B6
330
70
100
AcDbEntity
67
0
8
IV_OUTER_PROFILE
62
256
6
ByLayer
370
-1
48
1.0
60
0
100
AcDbCircle
39
0.0
10
2029.01361527234
20
192.945273825572
30
0.0
40
2.0
210
0.0
220
0.0
230
1.0
100
AcDbArc
50
84.2609015019147
51
144.004464338383
0
LINE
5
B7
330
70
100
AcDbEntity
67
0
8
IV_OUTER_PROFILE
62
256
6
ByLayer
370
-1
48
1.0
60
0
100
AcDbLine
10
2027.3954896911
20
194.120718253581
30
0.0
11
2008.33352565636
21
167.879876153094
31
0.0
39
0.0
210
0.0
220
0.0
230
1.0
0
ARC
5
B8
330
70
100
AcDbEntity
67
0
8
IV_OUTER_PROFILE
62
256
6
ByLayer
370
-1
48
1.0
60
0
100
AcDbCircle
39
0.0
10
2006.71540007512
20
169.055320581104
30
0.0
40
2.0
210
0.0
220
0.0
230
1.0
100
AcDbArc
50
264.260901501915
51
324.004464338383
0
LINE
5
B9
330
70
100
AcDbEntity
67
0
8
IV_OUTER_PROFILE
62
256
6
ByLayer
370
-1
48
1.0
60
0
100
AcDbLine
10
2006.51540257508
20
167.065345455637
30
0.0
11
2003.82643011019
21
167.33559394457
31
0.0
39
0.0
210
0.0
220
0.0
230
1.0
0
ARC
5
BA
330
70
100
AcDbEntity
67
0
8
IV_OUTER_PROFILE
62
256
6
ByLayer
370
-1
48
1.0
60
0
100
AcDbCircle
39
0.0
10
2004.02642761024
20
169.325569070037
30
0.0
40
2.0
210
0.0
220
0.0
230
1.0
100
AcDbArc
50
204.517338665438
51
264.260901501907
0
LINE
5
BB
330
70
100
AcDbEntity
67
0
8
IV_OUTER_PROFILE
62
256
6
ByLayer
370
-1
48
1.0
60
0
100
AcDbLine
10
2002.20675613809
20
168.495631883574
30
0.0
11
1988.74781888638
21
198.004906274156
31
0.0
39
0.0
210
0.0
220
0.0
230
1.0
0
ARC
5
BC
330
70
100
AcDbEntity
67
0
8
IV_OUTER_PROFILE
62
256
6
ByLayer
370
-1
48
1.0
60
0
100
AcDbCircle
39
0.0
10
1986.92814741423
20
197.174969087693
30
0.0
40
2.0
210
0.0
220
0.0
230
1.0
100
AcDbArc
50
24.5173386654416
51
84.2609015019148
0
LINE
5
BD
330
70
100
AcDbEntity
67
0
8
IV_OUTER_PROFILE
62
256
6
ByLayer
370
-1
48
1.0
60
0
100
AcDbLine
10
1969.5143590084
20
200.935173952444
30
0.0
11
1987.12814491428
21
199.16494421316
31
0.0
39
0.0
210
0.0
220
0.0
230
1.0
0
ARC
5
BE
330
70
100
AcDbEntity
67
0
8
IV_OUTER_PROFILE
62
256
6
ByLayer
370
-1
48
1.0
60
0
100
AcDbCircle
39
0.0
10
1969.31436150835
20
198.945198826978
30
0.0
40
2.0
210
0.0
220
0.0
230
1.0
100
AcDbArc
50
84.2609015019066
51
144.004464338386
0
LINE
5
BF
330
70
100
AcDbEntity
67
0
8
IV_OUTER_PROFILE
62
256
6
ByLayer
370
-1
48
1.0
60
0
100
AcDbLine
10
1967.69623592711
20
200.120643254987
30
0.0
11
1948.63427189237
21
173.8798011545
31
0.0
39
0.0
210
0.0
220
0.0
230
1.0
0
ARC
5
C0
330
70
100
AcDbEntity
67
0
8
IV_OUTER_PROFILE
62
256
6
ByLayer
370
-1
48
1.0
60
0
100
AcDbCircle
39
0.0
10
1947.01614631113
20
175.05524558251
30
0.0
40
2.0
210
0.0
220
0.0
230
1.0
100
AcDbArc
50
264.260901501907
51
324.004464338377
0
LINE
5
C1
330
70
100
AcDbEntity
67
0
8
IV_OUTER_PROFILE
62
256
6
ByLayer
370
-1
48
1.0
60
0
100
AcDbLine
10
1946.81614881108
20
173.065270457043
30
0.0
11
1944.1271763462
21
173.335518945977
31
0.0
39
0.0
210
0.0
220
0.0
230
1.0
0
ARC
5
C2
330
70
100
AcDbEntity
67
0
8
IV_OUTER_PROFILE
62
256
6
ByLayer
370
-1
48
1.0
60
0
100
AcDbCircle
39
0.0
10
1944.32717384624
20
175.325494071443
30
0.0
40
2.0
210
0.0
220
0.0
230
1.0
100
AcDbArc
50
204.517338665442
51
264.260901501915
0
LINE
5
C3
330
70
100
AcDbEntity
67
0
8
IV_OUTER_PROFILE
62
256
6
ByLayer
370
-1
48
1.0
60
0
100
AcDbLine
10
1942.5075023741
20
174.49555688498
30
0.0
11
1929.04856512238
21
204.004831275563
31
0.0
39
0.0
210
0.0
220
0.0
230
1.0
0
ARC
5
C4
330
70
100
AcDbEntity
67
0
8
IV_OUTER_PROFILE
62
256
6
ByLayer
370
-1
48
1.0
60
0
100
AcDbCircle
39
0.0
10
1927.22889365024
20
203.174894089099
30
0.0
40
2.0
210
0.0
220
0.0
230
1.0
100
AcDbArc
50
24.5173386654397
51
84.2609015019067
0
LINE
5
C5
330
70
100
AcDbEntity
67
0
8
IV_OUTER_PROFILE
62
256
6
ByLayer
370
-1
48
1.0
60
0
100
AcDbLine
10
1909.81510524441
20
206.935098953851
30
0.0
11
1927.42889115029
21
205.164869214566
31
0.0
39
0.0
210
0.0
220
0.0
230
1.0
0
ARC
5
C6
330
70
100
AcDbEntity
67
0
8
IV_OUTER_PROFILE
62
256
6
ByLayer
370
-1
48
1.0
60
0
100
AcDbCircle
39
0.0
10
1909.61510774436
20
204.945123828384
30
0.0
40
2.0
210
0.0
220
0.0
230
1.0
100
AcDbArc
50
84.2609015019147
51
144.004464338383
0
LINE
5
C7
330
70
100
AcDbEntity
67
0
8
IV_OUTER_PROFILE
62
256
6
ByLayer
370
-1
48
1.0
60
0
100
AcDbLine
10
1907.99698216312
20
206.120568256393
30
0.0
11
1888.93501812838
21
179.879726155907
31
0.0
39
0.0
210
0.0
220
0.0
230
1.0
0
ARC
5
C8
330
70
100
AcDbEntity
67
0
8
IV_OUTER_PROFILE
62
256
6
ByLayer
370
-1
48
1.0
60
0
100
AcDbCircle
39
0.0
10
1887.31689254714
20
181.055170583916
30
0.0
40
2.0
210
0.0
220
0.0
230
1.0
100
AcDbArc
50
264.260901501907
51
324.004464338383
0
LINE
5
C9
330
70
100
AcDbEntity
67
0
8
IV_OUTER_PROFILE
62
256
6
ByLayer
370
-1
48
1.0
60
0
100
AcDbLine
10
1887.11689504709
20
179.06519545845
30
0.0
11
1884.4279225822
21
179.335443947383
31
0.0
39
0.0
210
0.0
220
0.0
230
1.0
0
ARC
5
CA
330
70
100
AcDbEntity
67
0
8
IV_OUTER_PROFILE
62
256
6
ByLayer
370
-1
48
1.0
60
0
100
AcDbCircle
39
0.0
10
1884.62792008225
20
181.325419072849
30
0.0
40
2.0
210
0.0
220
0.0
230
1.0
100
AcDbArc
50
204.51733866544
51
264.260901501907
0
LINE
5
CB
330
70
100
AcDbEntity
67
0
8
IV_OUTER_PROFILE
62
256
6
ByLayer
370
-1
48
1.0
60
0
100
AcDbLine
10
1882.80824861011
20
180.495481886386
30
0.0
11
1869.34931135839
21
210.004756276969
31
0.0
39
0.0
210
0.0
220
0.0
230
1.0
0
ARC
5
CC
330
70
100
AcDbEntity
67
0
8
IV_OUTER_PROFILE
62
256
6
ByLayer
370
-1
48
1.0
60
0
100
AcDbCircle
39
0.0
10
1867.52963988625
20
209.174819090506
30
0.0
40
2.0
210
0.0
220
0.0
230
1.0
100
AcDbArc
50
24.5173386654412
51
84.2609015019148
0
LINE
5
CD
330
70
100
AcDbEntity
67
0
8
IV_OUTER_PROFILE
62
256
6
ByLayer
370
-1
48
1.0
60
0
100
AcDbLine
10
1850.11585148041
20
212.935023955257
30
0.0
11
1867.7296373863
21
211.164794215972
31
0.0
39
0.0
210
0.0
220
0.0
230
1.0
0
ARC
5
CE
330
70
100
AcDbEntity
67
0
8
IV_OUTER_PROFILE
62
256
6
ByLayer
370
-1
48
1.0
60
0
100
AcDbCircle
39
0.0
10
1849.91585398037
20
210.94504882979
30
0.0
40
2.0
210
0.0
220
0.0
230
1.0
100
AcDbArc
50
84.2609015019067
51
144.004464338377
0
LINE
5
CF
330
70
100
AcDbEntity
67
0
8
IV_OUTER_PROFILE
62
256
6
ByLayer
370
-1
48
1.0
60
0
100
AcDbLine
10
1848.29772839913
20
212.1204932578
30
0.0
11
1829.23576436439
21
185.879651157313
31
0.0
39
0.0
210
0.0
220
0.0
230
1.0
0
ARC
5
D0
330
70
100
AcDbEntity
67
0
8
IV_OUTER_PROFILE
62
256
6
ByLayer
370
-1
48
1.0
60
0
100
AcDbCircle
39
0.0
10
1827.61763878315
20
187.055095585322
30
0.0
40
2.0
210
0.0
220
0.0
230
1.0
100
AcDbArc
50
264.260901501907
51
324.004464338381
0
LINE
5
D1
330
70
100
AcDbEntity
67
0
8
IV_OUTER_PROFILE
62
256
6
ByLayer
370
-1
48
1.0
60
0
100
AcDbLine
10
1827.4176412831
20
185.065120459856
30
0.0
11
1824.72866881821
21
185.335368948789
31
0.0
39
0.0
210
0.0
220
0.0
230
1.0
0
ARC
5
D2
330
70
100
AcDbEntity
67
0
8
IV_OUTER_PROFILE
62
256
6
ByLayer
370
-1
48
1.0
60
0
100
AcDbCircle
39
0.0
10
1824.92866631826
20
187.325344074255
30
0.0
40
2.0
210
0.0
220
0.0
230
1.0
100
AcDbArc
50
204.517338665441
51
264.260901501915
0
LINE
5
D3
330
70
100
AcDbEntity
67
0
8
IV_OUTER_PROFILE
62
256
6
ByLayer
370
-1
48
1.0
60
0
100
AcDbLine
10
1823.10899484612
20
186.495406887792
30
0.0
11
1809.6500575944
21
216.004681278375
31
0.0
39
0.0
210
0.0
220
0.0
230
1.0
0
ARC
5
D4
330
70
100
AcDbEntity
67
0
8
IV_OUTER_PROFILE
62
256
6
ByLayer
370
-1
48
1.0
60
0
100
AcDbCircle
39
0.0
10
1807.83038612226
20
215.174744091912
30
0.0
40
2.0
210
0.0
220
0.0
230
1.0
100
AcDbArc
50
24.5173386654382
51
84.2609015019067
0
LINE
5
D5
330
70
100
AcDbEntity
67
0
8
IV_OUTER_PROFILE
62
256
6
ByLayer
370
-1
48
1.0
60
0
100
AcDbLine
10
1790.41659771642
20
218.934948956663
30
0.0
11
1808.0303836223
21
217.164719217378
31
0.0
39
0.0
210
0.0
220
0.0
230
1.0
0
ARC
5
D6
330
70
100
AcDbEntity
67
0
8
IV_OUTER_PROFILE
62
256
6
ByLayer
370
-1
48
1.0
60
0
100
AcDbCircle
39
0.0
10
1790.21660021637
20
216.944973831197
30
0.0
40
2.0
210
0.0
220
0.0
230
1.0
100
AcDbArc
50
84.2609015019147
51
144.004464338383
0
LINE
5
D7
330
70
100
AcDbEntity
67
0
8
IV_OUTER_PROFILE
62
256
6
ByLayer
370
-1
48
1.0
60
0
100
AcDbLine
10
1788.59847463514
20
218.120418259206
30
0.0
11
1769.53651060039
21
191.879576158719
31
0.0
39
0.0
210
0.0
220
0.0
230
1.0
0
ARC
5
D8
330
70
100
AcDbEntity
67
0
8
IV_OUTER_PROFILE
62
256
6
ByLayer
370
-1
48
1.0
60
0
100
AcDbCircle
39
0.0
10
1767.91838501915
20
193.055020586728
30
0.0
40
2.0
210
0.0
220
0.0
230
1.0
100
AcDbArc
50
264.260901501907
51
324.004464338382
0
LINE
5
D9
330
70
100
AcDbEntity
67
0
8
IV_OUTER_PROFILE
62
256
6
ByLayer
370
-1
48
1.0
60
0
100
AcDbLine
10
1767.71838751911
20
191.065045461262
30
0.0
11
1765.02941505422
21
191.335293950195
31
0.0
39
0.0
210
0.0
220
0.0
230
1.0
0
ARC
5
DA
330
70
100
AcDbEntity
67
0
8
IV_OUTER_PROFILE
62
256
6
ByLayer
370
-1
48
1.0
60
0
100
AcDbCircle
39
0.0
10
1765.22941255427
20
193.325269075662
30
0.0
40
2.0
210
0.0
220
0.0
230
1.0
100
AcDbArc
50
204.517338665439
51
264.260901501907
0
LINE
5
DB
330
70
100
AcDbEntity
67
0
8
IV_OUTER_PROFILE
62
256
6
ByLayer
370
-1
48
1.0
60
0
100
AcDbLine
10
1763.40974108213
20
192.495331889198
30
0.0
11
1749.95080383041
21
222.004606279781
31
0.0
39
0.0
210
0.0
220
0.0
230
1.0
0
ARC
5
DC
330
70
100
AcDbEntity
67
0
8
IV_OUTER_PROFILE
62
256
6
ByLayer
370
-1
48
1.0
60
0
100
AcDbCircle
39
0.0
10
1748.13113235827
20
221.174669093318
30
0.0
40
2.0
210
0.0
220
0.0
230
1.0
100
AcDbArc
50
24.5173386654397
51
84.2609015019148
0
LINE
5
DD
330
70
100
AcDbEntity
67
0
8
IV_OUTER_PROFILE
62
256
6
ByLayer
370
-1
48
1.0
60
0
100
AcDbLine
10
1730.71734395243
20
224.934873958069
30
0.0
11
1748.33112985831
21
223.164644218785
31
0.0
39
0.0
210
0.0
220
0.0
230
1.0
0
ARC
5
DE
330
70
100
AcDbEntity
67
0
8
IV_OUTER_PROFILE
62
256
6
ByLayer
370
-1
48
1.0
60
0
100
AcDbCircle
39
0.0
10
1730.51734645238
20
222.944898832603
30
0.0
40
2.0
210
0.0
220
0.0
230
1.0
100
AcDbArc
50
84.2609015019067
51
144.004464338379
0
LINE
5
DF
330
70
100
AcDbEntity
67
0
8
IV_OUTER_PROFILE
62
256
6
ByLayer
370
-1
48
1.0
60
0
100
AcDbLine
10
1728.89922087114
20
224.120343260612
30
0.0
11
1709.8372568364
21
197.879501160125
31
0.0
39
0.0
210
0.0
220
0.0
230
1.0
0
ARC
5
E0
330
70
100
AcDbEntity
67
0
8
IV_OUTER_PROFILE
62
256
6
ByLayer
370
-1
48
1.0
60
0
100
AcDbCircle
39
0.0
10
1708.21913125516
20
199.054945588135
30
0.0
40
2.0
210
0.0
220
0.0
230
1.0
100
AcDbArc
50
264.260901501915
51
324.004464338389
0
LINE
5
E1
330
70
100
AcDbEntity
67
0
8
IV_OUTER_PROFILE
62
256
6
ByLayer
370
-1
48
1.0
60
0
100
AcDbLine
10
1708.01913375512
20
197.064970462668
30
0.0
11
1705.33016129023
21
197.335218951601
31
0.0
39
0.0
210
0.0
220
0.0
230
1.0
0
ARC
5
E2
330
70
100
AcDbEntity
67
0
8
IV_OUTER_PROFILE
62
256
6
ByLayer
370
-1
48
1.0
60
0
100
AcDbCircle
39
0.0
10
1705.53015879028
20
199.325194077068
30
0.0
40
2.0
210
0.0
220
0.0
230
1.0
100
AcDbArc
50
204.517338665442
51
264.260901501915
0
LINE
5
E3
330
70
100
AcDbEntity
67
0
8
IV_OUTER_PROFILE
62
256
6
ByLayer
370
-1
48
1.0
60
0
100
AcDbLine
10
1703.71048731813
20
198.495256890605
30
0.0
11
1690.25155006642
21
228.004531281188
31
0.0
39
0.0
210
0.0
220
0.0
230
1.0
0
ARC
5
E4
330
70
100
AcDbEntity
67
0
8
IV_OUTER_PROFILE
62
256
6
ByLayer
370
-1
48
1.0
60
0
100
AcDbCircle
39
0.0
10
1688.43187859428
20
227.174594094724
30
0.0
40
2.0
210
0.0
220
0.0
230
1.0
100
AcDbArc
50
24.5173386654388
51
84.2609015019067
0
LINE
5
E5
330
70
100
AcDbEntity
67
0
8
IV_OUTER_PROFILE
62
256
6
ByLayer
370
-1
48
1.0
60
0
100
AcDbLine
10
1671.01809018844
20
230.934798959476
30
0.0
11
1688.63187609432
21
229.164569220191
31
0.0
39
0.0
210
0.0
220
0.0
230
1.0
0
ARC
5
E6
330
70
100
AcDbEntity
67
0
8
IV_OUTER_PROFILE
62
256
6
ByLayer
370
-1
48
1.0
60
0
100
AcDbCircle
39
0.0
10
1670.81809268839
20
228.944823834009
30
0.0
40
2.0
210
0.0
220
0.0
230
1.0
100
AcDbArc
50
84.2609015019148
51
144.004464338383
0
LINE
5
E7
330
70
100
AcDbEntity
67
0
8
IV_OUTER_PROFILE
62
256
6
ByLayer
370
-1
48
1.0
60
0
100
AcDbLine
10
1669.19996710715
20
230.120268262018
30
0.0
11
1650.13800307241
21
203.879426161532
31
0.0
39
0.0
210
0.0
220
0.0
230
1.0
0
ARC
5
E8
330
70
100
AcDbEntity
67
0
8
IV_OUTER_PROFILE
62
256
6
ByLayer
370
-1
48
1.0
60
0
100
AcDbCircle
39
0.0
10
1648.51987749117
20
205.054870589541
30
0.0
40
2.0
210
0.0
220
0.0
230
1.0
100
AcDbArc
50
264.260901501907
51
324.004464338382
0
LINE
5
E9
330
70
100
AcDbEntity
67
0
8
IV_OUTER_PROFILE
62
256
6
ByLayer
370
-1
48
1.0
60
0
100
AcDbLine
10
1648.31987999112
20
203.064895464075
30
0.0
11
1645.63090752624
21
203.335143953008
31
0.0
39
0.0
210
0.0
220
0.0
230
1.0
0
ARC
5
EA
330
70
100
AcDbEntity
67
0
8
IV_OUTER_PROFILE
62
256
6
ByLayer
370
-1
48
1.0
60
0
100
AcDbCircle
39
0.0
10
1645.83090502628
20
205.325119078474
30
0.0
40
2.0
210
0.0
220
0.0
230
1.0
100
AcDbArc
50
204.517338665443
51
264.260901501907
0
LINE
5
EB
330
70
100
AcDbEntity
67
0
8
IV_OUTER_PROFILE
62
256
6
ByLayer
370
-1
48
1.0
60
0
100
AcDbLine
10
1644.01123355414
20
204.495181892011
30
0.0
11
1630.55229630243
21
234.004456282594
31
0.0
39
0.0
210
0.0
220
0.0
230
1.0
0
ARC
5
EC
330
70
100
AcDbEntity
67
0
8
IV_OUTER_PROFILE
62
256
6
ByLayer
370
-1
48
1.0
60
0
100
AcDbCircle
39
0.0
10
1628.73262483028
20
233.174519096131
30
0.0
40
2.0
210
0.0
220
0.0
230
1.0
100
AcDbArc
50
24.5173386654379
51
84.2609015019148
0
LINE
5
ED
330
70
100
AcDbEntity
67
0
8
IV_OUTER_PROFILE
62
256
6
ByLayer
370
-1
48
1.0
60
0
100
AcDbLine
10
1611.31883642445
20
236.934723960882
30
0.0
11
1628.93262233033
21
235.164494221597
31
0.0
39
0.0
210
0.0
220
0.0
230
1.0
0
ARC
5
EE
330
70
100
AcDbEntity
67
0
8
IV_OUTER_PROFILE
62
256
6
ByLayer
370
-1
48
1.0
60
0
100
AcDbCircle
39
0.0
10
1611.1188389244
20
234.944748835415
30
0.0
40
2.0
210
0.0
220
0.0
230
1.0
100
AcDbArc
50
84.2609015019066
51
144.004464338385
0
LINE
5
EF
330
70
100
AcDbEntity
67
0
8
IV_OUTER_PROFILE
62
256
6
ByLayer
370
-1
48
1.0
60
0
100
AcDbLine
10
1609.50071334316
20
236.120193263424
30
0.0
11
1590.43874930842
21
209.879351162938
31
0.0
39
0.0
210
0.0
220
0.0
230
1.0
0
ARC
5
F0
330
70
100
AcDbEntity
67
0
8
IV_OUTER_PROFILE
62
256
6
ByLayer
370
-1
48
1.0
60
0
100
AcDbCircle
39
0.0
10
1588.82062372718
20
211.054795590947
30
0.0
40
2.0
210
0.0
220
0.0
230
1.0
100
AcDbArc
50
264.260901501907
51
324.004464338378
0
LINE
5
F1
330
70
100
AcDbEntity
67
0
8
IV_OUTER_PROFILE
62
256
6
ByLayer
370
-1
48
1.0
60
0
100
AcDbLine
10
1588.62062622713
20
209.064820465481
30
0.0
11
1585.93165376225
21
209.335068954414
31
0.0
39
0.0
210
0.0
220
0.0
230
1.0
0
ARC
5
F2
330
70
100
AcDbEntity
67
0
8
IV_OUTER_PROFILE
62
256
6
ByLayer
370
-1
48
1.0
60
0
100
AcDbCircle
39
0.0
10
1586.13165126229
20
211.325044079881
30
0.0
40
2.0
210
0.0
220
0.0
230
1.0
100
AcDbArc
50
204.517338665439
51
264.260901501907
0
LINE
5
F3
330
70
100
AcDbEntity
67
0
8
IV_OUTER_PROFILE
62
256
6
ByLayer
370
-1
48
1.0
60
0
100
AcDbLine
10
1584.31197979015
20
210.495106893417
30
0.0
11
1570.85304253843
21
240.004381284
31
0.0
39
0.0
210
0.0
220
0.0
230
1.0
0
ARC
5
F4
330
70
100
AcDbEntity
67
0
8
IV_OUTER_PROFILE
62
256
6
ByLayer
370
-1
48
1.0
60
0
100
AcDbCircle
39
0.0
10
1569.03337106629
20
239.174444097537
30
0.0
40
2.0
210
0.0
220
0.0
230
1.0
100
AcDbArc
50
24.5173386654391
51
84.2609015019067
0
LINE
5
F5
330
70
100
AcDbEntity
67
0
8
IV_OUTER_PROFILE
62
256
6
ByLayer
370
-1
48
1.0
60
0
100
AcDbLine
10
1551.61958266045
20
242.934648962288
30
0.0
11
1569.23336856634
21
241.164419223003
31
0.0
39
0.0
210
0.0
220
0.0
230
1.0
0
ARC
5
F6
330
70
100
AcDbEntity
67
0
8
IV_OUTER_PROFILE
62
256
6
ByLayer
370
-1
48
1.0
60
0
100
AcDbCircle
39
0.0
10
1551.41958516041
20
240.944673836822
30
0.0
40
2.0
210
0.0
220
0.0
230
1.0
100
AcDbArc
50
84.2609015019146
51
144.004464338382
0
LINE
5
F7
330
70
100
AcDbEntity
67
0
8
IV_OUTER_PROFILE
62
256
6
ByLayer
370
-1
48
1.0
60
0
100
AcDbLine
10
1549.80145957917
20
242.120118264831
30
0.0
11
1530.73949554443
21
215.879276164344
31
0.0
39
0.0
210
0.0
220
0.0
230
1.0
0
ARC
5
F8
330
70
100
AcDbEntity
67
0
8
IV_OUTER_PROFILE
62
256
6
ByLayer
370
-1
48
1.0
60
0
100
AcDbCircle
39
0.0
10
1529.12136996319
20
217.054720592353
30
0.0
40
2.0
210
0.0
220
0.0
230
1.0
100
AcDbArc
50
264.260901501915
51
324.004464338384
0
LINE
5
F9
330
70
100
AcDbEntity
67
0
8
IV_OUTER_PROFILE
62
256
6
ByLayer
370
-1
48
1.0
60
0
100
AcDbLine
10
1528.92137246314
20
215.064745466887
30
0.0
11
1526.23239999825
21
215.33499395582
31
0.0
39
0.0
210
0.0
220
0.0
230
1.0
0
ARC
5
FA
330
70
100
AcDbEntity
67
0
8
IV_OUTER_PROFILE
62
256
6
ByLayer
370
-1
48
1.0
60
0
100
AcDbCircle
39
0.0
10
1526.4323974983
20
217.324969081287
30
0.0
40
2.0
210
0.0
220
0.0
230
1.0
100
AcDbArc
50
204.517338665439
51
264.260901501907
0
LINE
5
FB
330
70
100
AcDbEntity
67
0
8
IV_OUTER_PROFILE
62
256
6
ByLayer
370
-1
48
1.0
60
0
100
AcDbLine
10
1524.61272602616
20
216.495031894824
30
0.0
11
1511.15378877444
21
246.004306285406
31
0.0
39
0.0
210
0.0
220
0.0
230
1.0
0
ARC
5
FC
330
70
100
AcDbEntity
67
0
8
IV_OUTER_PROFILE
62
256
6
ByLayer
370
-1
48
1.0
60
0
100
AcDbCircle
39
0.0
10
1509.3341173023
20
245.174369098943
30
0.0
40
2.0
210
0.0
220
0.0
230
1.0
100
AcDbArc
50
24.5173386654388
51
84.2609015019148
0
LINE
5
FD
330
70
100
AcDbEntity
67
0
8
IV_OUTER_PROFILE
62
256
6
ByLayer
370
-1
48
1.0
60
0
100
AcDbLine
10
1491.92032889646
20
248.934573963694
30
0.0
11
1509.53411480235
21
247.164344224409
31
0.0
39
0.0
210
0.0
220
0.0
230
1.0
0
ARC
5
FE
330
70
100
AcDbEntity
67
0
8
IV_OUTER_PROFILE
62
256
6
ByLayer
370
-1
48
1.0
60
0
100
AcDbCircle
39
0.0
10
1491.72033139641
20
246.944598838228
30
0.0
40
2.0
210
0.0
220
0.0
230
1.0
100
AcDbArc
50
84.2609015019066
51
144.004464338379
0
LINE
5
FF
330
70
100
AcDbEntity
67
0
8
IV_OUTER_PROFILE
62
256
6
ByLayer
370
-1
48
1.0
60
0
100
AcDbLine
10
1490.10220581518
20
248.120043266237
30
0.0
11
1471.04024178044
21
221.87920116575
31
0.0
39
0.0
210
0.0
220
0.0
230
1.0
0
ARC
5
100
330
70
100
AcDbEntity
67
0
8
IV_OUTER_PROFILE
62
256
6
ByLayer
370
-1
48
1.0
60
0
100
AcDbCircle
39
0.0
10
1469.42211619919
20
223.05464559376
30
0.0
40
2.0
210
0.0
220
0.0
230
1.0
100
AcDbArc
50
264.260901501915
51
324.004464338386
0
LINE
5
101
330
70
100
AcDbEntity
67
0
8
IV_OUTER_PROFILE
62
256
6
ByLayer
370
-1
48
1.0
60
0
100
AcDbLine
10
1469.22211869915
20
221.064670468293
30
0.0
11
1466.53314623426
21
221.334918957227
31
0.0
39
0.0
210
0.0
220
0.0
230
1.0
0
ARC
5
102
330
70
100
AcDbEntity
67
0
8
IV_OUTER_PROFILE
62
256
6
ByLayer
370
-1
48
1.0
60
0
100
AcDbCircle
39
0.0
10
1466.73314373431
20
223.324894082693
30
0.0
40
2.0
210
0.0
220
0.0
230
1.0
100
AcDbArc
50
204.517338665443
51
264.260901501915
0
LINE
5
103
330
70
100
AcDbEntity
67
0
8
IV_OUTER_PROFILE
62
256
6
ByLayer
370
-1
48
1.0
60
0
100
AcDbLine
10
1464.91347226217
20
222.49495689623
30
0.0
11
1451.45453501045
21
252.004231286813
31
0.0
39
0.0
210
0.0
220
0.0
230
1.0
0
ARC
5
104
330
70
100
AcDbEntity
67
0
8
IV_OUTER_PROFILE
62
256
6
ByLayer
370
-1
48
1.0
60
0
100
AcDbCircle
39
0.0
10
1449.63486353831
20
251.174294100349
30
0.0
40
2.0
210
0.0
220
0.0
230
1.0
100
AcDbArc
50
24.5173386654379
51
84.2609015019067
0
LINE
5
105
330
70
100
AcDbEntity
67
0
8
IV_OUTER_PROFILE
62
256
6
ByLayer
370
-1
48
1.0
60
0
100
AcDbLine
10
1432.22107513247
20
254.9344989651
30
0.0
11
1449.83486103835
21
253.164269225816
31
0.0
39
0.0
210
0.0
220
0.0
230
1.0
0
ARC
5
106
330
70
100
AcDbEntity
67
0
8
IV_OUTER_PROFILE
62
256
6
ByLayer
370
-1
48
1.0
60
0
100
AcDbCircle
39
0.0
10
1432.02107763242
20
252.944523839634
30
0.0
40
2.0
210
0.0
220
0.0
230
1.0
100
AcDbArc
50
84.2609015019148
51
144.004464338382
0
LINE
5
107
330
70
100
AcDbEntity
67
0
8
IV_OUTER_PROFILE
62
256
6
ByLayer
370
-1
48
1.0
60
0
100
AcDbLine
10
1430.40295205118
20
254.119968267643
30
0.0
11
1411.34098801644
21
227.879126167157
31
0.0
39
0.0
210
0.0
220
0.0
230
1.0
0
ARC
5
108
330
70
100
AcDbEntity
67
0
8
IV_OUTER_PROFILE
62
256
6
ByLayer
370
-1
48
1.0
60
0
100
AcDbCircle
39
0.0
10
1409.7228624352
20
229.054570595166
30
0.0
40
2.0
210
0.0
220
0.0
230
1.0
100
AcDbArc
50
264.260901501907
51
324.004464338384
0
LINE
5
109
330
70
100
AcDbEntity
67
0
8
IV_OUTER_PROFILE
62
256
6
ByLayer
370
-1
48
1.0
60
0
100
AcDbLine
10
1409.52286493516
20
227.064595469699
30
0.0
11
1406.83389247027
21
227.334843958633
31
0.0
39
0.0
210
0.0
220
0.0
230
1.0
0
ARC
5
10A
330
70
100
AcDbEntity
67
0
8
IV_OUTER_PROFILE
62
256
6
ByLayer
370
-1
48
1.0
60
0
100
AcDbCircle
39
0.0
10
1407.03388997032
20
229.324819084099
30
0.0
40
2.0
210
0.0
220
0.0
230
1.0
100
AcDbArc
50
204.517338665439
51
264.260901501907
0
LINE
5
10B
330
70
100
AcDbEntity
67
0
8
IV_OUTER_PROFILE
62
256
6
ByLayer
370
-1
48
1.0
60
0
100
AcDbLine
10
1405.21421849817
20
228.494881897636
30
0.0
11
1391.75528124646
21
258.004156288219
31
0.0
39
0.0
210
0.0
220
0.0
230
1.0
0
ARC
5
10C
330
70
100
AcDbEntity
67
0
8
IV_OUTER_PROFILE
62
256
6
ByLayer
370
-1
48
1.0
60
0
100
AcDbCircle
39
0.0
10
1389.93560977432
20
257.174219101755
30
0.0
40
2.0
210
0.0
220
0.0
230
1.0
100
AcDbArc
50
24.5173386654397
51
84.2609015019066
0
LINE
5
10D
330
70
100
AcDbEntity
67
0
8
IV_OUTER_PROFILE
62
256
6
ByLayer
370
-1
48
1.0
60
0
100
AcDbLine
10
1372.52182136848
20
260.934423966507
30
0.0
11
1390.13560727436
21
259.164194227222
31
0.0
39
0.0
210
0.0
220
0.0
230
1.0
0
ARC
5
10E
330
70
100
AcDbEntity
67
0
8
IV_OUTER_PROFILE
62
256
6
ByLayer
370
-1
48
1.0
60
0
100
AcDbCircle
39
0.0
10
1372.32182386843
20
258.94444884104
30
0.0
40
2.0
210
0.0
220
0.0
230
1.0
100
AcDbArc
50
84.2609015019146
51
144.004464338383
0
LINE
5
10F
330
70
100
AcDbEntity
67
0
8
IV_OUTER_PROFILE
62
256
6
ByLayer
370
-1
48
1.0
60
0
100
AcDbLine
10
1370.70369828719
20
260.119893269049
30
0.0
11
1351.64173425245
21
233.879051168563
31
0.0
39
0.0
210
0.0
220
0.0
230
1.0
0
ARC
5
110
330
70
100
AcDbEntity
67
0
8
IV_OUTER_PROFILE
62
256
6
ByLayer
370
-1
48
1.0
60
0
100
AcDbCircle
39
0.0
10
1350.02360867121
20
235.054495596572
30
0.0
40
2.0
210
0.0
220
0.0
230
1.0
100
AcDbArc
50
264.260901501907
51
324.004464338377
0
LINE
5
111
330
70
100
AcDbEntity
67
0
8
IV_OUTER_PROFILE
62
256
6
ByLayer
370
-1
48
1.0
60
0
100
AcDbLine
10
1349.82361117116
20
233.064520471106
30
0.0
11
1347.13463870628
21
233.334768960039
31
0.0
39
0.0
210
0.0
220
0.0
230
1.0
0
ARC
5
112
330
70
100
AcDbEntity
67
0
8
IV_OUTER_PROFILE
62
256
6
ByLayer
370
-1
48
1.0
60
0
100
AcDbCircle
39
0.0
10
1347.33463620633
20
235.324744085505
30
0.0
40
2.0
210
0.0
220
0.0
230
1.0
100
AcDbArc
50
204.517338665439
51
264.260901501907
0
LINE
5
113
330
70
100
AcDbEntity
67
0
8
IV_OUTER_PROFILE
62
256
6
ByLayer
370
-1
48
1.0
60
0
100
AcDbLine
10
1345.51496473418
20
234.494806899042
30
0.0
11
1332.05602748246
21
264.004081289625
31
0.0
39
0.0
210
0.0
220
0.0
230
1.0
0
ARC
5
114
330
70
100
AcDbEntity
67
0
8
IV_OUTER_PROFILE
62
256
6
ByLayer
370
-1
48
1.0
60
0
100
AcDbCircle
39
0.0
10
1330.23635601032
20
263.174144103162
30
0.0
40
2.0
210
0.0
220
0.0
230
1.0
100
AcDbArc
50
24.5173386654431
51
84.2609015019067
0
LINE
5
115
330
70
100
AcDbEntity
67
0
8
IV_OUTER_PROFILE
62
256
6
ByLayer
370
-1
48
1.0
60
0
100
AcDbLine
10
1312.82256760449
20
266.934348967913
30
0.0
11
1330.43635351037
21
265.164119228628
31
0.0
39
0.0
210
0.0
220
0.0
230
1.0
0
ARC
5
116
330
70
100
AcDbEntity
67
0
8
IV_OUTER_PROFILE
62
256
6
ByLayer
370
-1
48
1.0
60
0
100
AcDbCircle
39
0.0
10
1312.62257010444
20
264.944373842447
30
0.0
40
2.0
210
0.0
220
0.0
230
1.0
100
AcDbArc
50
84.2609015019147
51
144.004464338382
0
LINE
5
117
330
70
100
AcDbEntity
67
0
8
IV_OUTER_PROFILE
62
256
6
ByLayer
370
-1
48
1.0
60
0
100
AcDbLine
10
1311.0044445232
20
266.119818270456
30
0.0
11
1291.94248048846
21
239.878976169969
31
0.0
39
0.0
210
0.0
220
0.0
230
1.0
0
ARC
5
118
330
70
100
AcDbEntity
67
0
8
IV_OUTER_PROFILE
62
256
6
ByLayer
370
-1
48
1.0
60
0
100
AcDbCircle
39
0.0
10
1290.32435490722
20
241.054420597978
30
0.0
40
2.0
210
0.0
220
0.0
230
1.0
100
AcDbArc
50
264.260901501899
51
324.004464338376
0
LINE
5
119
330
70
100
AcDbEntity
67
0
8
IV_OUTER_PROFILE
62
256
6
ByLayer
370
-1
48
1.0
60
0
100
AcDbLine
10
1290.12435740717
20
239.064445472512
30
0.0
11
1287.43538494229
21
239.334693961445
31
0.0
39
0.0
210
0.0
220
0.0
230
1.0
0
ARC
5
11A
330
70
100
AcDbEntity
67
0
8
IV_OUTER_PROFILE
62
256
6
ByLayer
370
-1
48
1.0
60
0
100
AcDbCircle
39
0.0
10
1287.63538244233
20
241.324669086912
30
0.0
40
2.0
210
0.0
220
0.0
230
1.0
100
AcDbArc
50
204.517338665439
51
264.260901501907
0
LINE
5
11B
330
70
100
AcDbEntity
67
0
8
IV_OUTER_PROFILE
62
256
6
ByLayer
370
-1
48
1.0
60
0
100
AcDbLine
10
1285.81571097019
20
240.494731900448
30
0.0
11
1272.35677371847
21
270.004006291031
31
0.0
39
0.0
210
0.0
220
0.0
230
1.0
0
ARC
5
11C
330
70
100
AcDbEntity
67
0
8
IV_OUTER_PROFILE
62
256
6
ByLayer
370
-1
48
1.0
60
0
100
AcDbCircle
39
0.0
10
1270.53710224633
20
269.174069104568
30
0.0
40
2.0
210
0.0
220
0.0
230
1.0
100
AcDbArc
50
24.5173386654397
51
84.2609015019107
0
LINE
5
11D
330
70
100
AcDbEntity
67
0
8
IV_OUTER_PROFILE
62
256
6
ByLayer
370
-1
48
1.0
60
0
100
AcDbLine
10
1253.12331384049
20
272.934273969319
30
0.0
11
1270.73709974638
21
271.164044230034
31
0.0
39
0.0
210
0.0
220
0.0
230
1.0
0
ARC
5
11E
330
70
100
AcDbEntity
67
0
8
IV_OUTER_PROFILE
62
256
6
ByLayer
370
-1
48
1.0
60
0
100
AcDbCircle
39
0.0
10
1252.92331634045
20
270.944298843853
30
0.0
40
2.0
210
0.0
220
0.0
230
1.0
100
AcDbArc
50
84.2609015019106
51
144.004464338378
0
LINE
5
11F
330
70
100
AcDbEntity
67
0
8
IV_OUTER_PROFILE
62
256
6
ByLayer
370
-1
48
1.0
60
0
100
AcDbLine
10
1251.30519075921
20
272.119743271862
30
0.0
11
1232.24322672447
21
245.878901171375
31
0.0
39
0.0
210
0.0
220
0.0
230
1.0
0
ARC
5
120
330
70
100
AcDbEntity
67
0
8
IV_OUTER_PROFILE
62
256
6
ByLayer
370
-1
48
1.0
60
0
100
AcDbCircle
39
0.0
10
1230.62510114323
20
247.054345599385
30
0.0
40
2.0
210
0.0
220
0.0
230
1.0
100
AcDbArc
50
264.260901501907
51
324.004464338381
0
LINE
5
121
330
70
100
AcDbEntity
67
0
8
IV_OUTER_PROFILE
62
256
6
ByLayer
370
-1
48
1.0
60
0
100
AcDbLine
10
1230.42510364318
20
245.064370473918
30
0.0
11
1227.73613117829
21
245.334618962851
31
0.0
39
0.0
210
0.0
220
0.0
230
1.0
0
ARC
5
122
330
70
100
AcDbEntity
67
0
8
IV_OUTER_PROFILE
62
256
6
ByLayer
370
-1
48
1.0
60
0
100
AcDbCircle
39
0.0
10
1227.93612867834
20
247.324594088318
30
0.0
40
2.0
210
0.0
220
0.0
230
1.0
100
AcDbArc
50
204.51733866544
51
264.260901501911
0
LINE
5
123
330
70
100
AcDbEntity
67
0
8
IV_OUTER_PROFILE
62
256
6
ByLayer
370
-1
48
1.0
60
0
100
AcDbLine
10
1226.1164572062
20
246.494656901855
30
0.0
11
1212.65751995448
21
276.003931292437
31
0.0
39
0.0
210
0.0
220
0.0
230
1.0
0
ARC
5
124
330
70
100
AcDbEntity
67
0
8
IV_OUTER_PROFILE
62
256
6
ByLayer
370
-1
48
1.0
60
0
100
AcDbCircle
39
0.0
10
1210.83784848234
20
275.173994105974
30
0.0
40
2.0
210
0.0
220
0.0
230
1.0
100
AcDbArc
50
24.5173386654388
51
84.2609015019107
0
LINE
5
125
330
70
100
AcDbEntity
67
0
8
IV_OUTER_PROFILE
62
256
6
ByLayer
370
-1
48
1.0
60
0
100
AcDbLine
10
1193.4240600765
20
278.934198970726
30
0.0
11
1211.03784598239
21
277.16396923144
31
0.0
39
0.0
210
0.0
220
0.0
230
1.0
0
ARC
5
126
330
70
100
AcDbEntity
67
0
8
IV_OUTER_PROFILE
62
256
6
ByLayer
370
-1
48
1.0
60
0
100
AcDbCircle
39
0.0
10
1193.22406257646
20
276.944223845259
30
0.0
40
2.0
210
0.0
220
0.0
230
1.0
100
AcDbArc
50
84.2609015019107
51
144.00446433838
0
LINE
5
127
330
70
100
AcDbEntity
67
0
8
IV_OUTER_PROFILE
62
256
6
ByLayer
370
-1
48
1.0
60
0
100
AcDbLine
10
1191.60593699521
20
278.119668273268
30
0.0
11
1172.54397296048
21
251.878826172781
31
0.0
39
0.0
210
0.0
220
0.0
230
1.0
0
ARC
5
128
330
70
100
AcDbEntity
67
0
8
IV_OUTER_PROFILE
62
256
6
ByLayer
370
-1
48
1.0
60
0
100
AcDbCircle
39
0.0
10
1170.92584737924
20
253.054270600791
30
0.0
40
2.0
210
0.0
220
0.0
230
1.0
100
AcDbArc
50
264.260901501907
51
324.00446433838
0
LINE
5
129
330
70
100
AcDbEntity
67
0
8
IV_OUTER_PROFILE
62
256
6
ByLayer
370
-1
48
1.0
60
0
100
AcDbLine
10
1170.72584987919
20
251.064295475324
30
0.0
11
1168.0368774143
21
251.334543964258
31
0.0
39
0.0
210
0.0
220
0.0
230
1.0
0
ARC
5
12A
330
70
100
AcDbEntity
67
0
8
IV_OUTER_PROFILE
62
256
6
ByLayer
370
-1
48
1.0
60
0
100
AcDbCircle
39
0.0
10
1168.23687491435
20
253.324519089724
30
0.0
40
2.0
210
0.0
220
0.0
230
1.0
100
AcDbArc
50
204.517338665439
51
264.260901501911
0
LINE
5
12B
330
70
100
AcDbEntity
67
0
8
IV_OUTER_PROFILE
62
256
6
ByLayer
370
-1
48
1.0
60
0
100
AcDbLine
10
1166.41720344221
20
252.494581903261
30
0.0
11
1152.95826619049
21
282.003856293844
31
0.0
39
0.0
210
0.0
220
0.0
230
1.0
0
ARC
5
12C
330
70
100
AcDbEntity
67
0
8
IV_OUTER_PROFILE
62
256
6
ByLayer
370
-1
48
1.0
60
0
100
AcDbCircle
39
0.0
10
1151.13859471835
20
281.17391910738
30
0.0
40
2.0
210
0.0
220
0.0
230
1.0
100
AcDbArc
50
24.5173386654389
51
84.2609015019107
0
LINE
5
12D
330
70
100
AcDbEntity
67
0
8
IV_OUTER_PROFILE
62
256
6
ByLayer
370
-1
48
1.0
60
0
100
AcDbLine
10
1133.72480631251
20
284.934123972132
30
0.0
11
1151.33859221839
21
283.163894232847
31
0.0
39
0.0
210
0.0
220
0.0
230
1.0
0
ARC
5
12E
330
70
100
AcDbEntity
67
0
8
IV_OUTER_PROFILE
62
256
6
ByLayer
370
-1
48
1.0
60
0
100
AcDbCircle
39
0.0
10
1133.52480881246
20
282.944148846665
30
0.0
40
2.0
210
0.0
220
0.0
230
1.0
100
AcDbArc
50
84.2609015019106
51
144.004464338382
0
LINE
5
12F
330
70
100
AcDbEntity
67
0
8
IV_OUTER_PROFILE
62
256
6
ByLayer
370
-1
48
1.0
60
0
100
AcDbLine
10
1131.90668323122
20
284.119593274674
30
0.0
11
1112.84471919648
21
257.878751174188
31
0.0
39
0.0
210
0.0
220
0.0
230
1.0
0
ARC
5
130
330
70
100
AcDbEntity
67
0
8
IV_OUTER_PROFILE
62
256
6
ByLayer
370
-1
48
1.0
60
0
100
AcDbCircle
39
0.0
10
1111.22659361524
20
259.054195602197
30
0.0
40
2.0
210
0.0
220
0.0
230
1.0
100
AcDbArc
50
264.260901501907
51
324.004464338382
0
LINE
5
131
330
70
100
AcDbEntity
67
0
8
IV_OUTER_PROFILE
62
256
6
ByLayer
370
-1
48
1.0
60
0
100
AcDbLine
10
1111.0265961152
20
257.06422047673
30
0.0
11
1108.33762365031
21
257.334468965664
31
0.0
39
0.0
210
0.0
220
0.0
230
1.0
0
ARC
5
132
330
70
100
AcDbEntity
67
0
8
IV_OUTER_PROFILE
62
256
6
ByLayer
370
-1
48
1.0
60
0
100
AcDbCircle
39
0.0
10
1108.53762115036
20
259.32444409113
30
0.0
40
2.0
210
0.0
220
0.0
230
1.0
100
AcDbArc
50
204.51733866544
51
264.260901501911
0
LINE
5
133
330
70
100
AcDbEntity
67
0
8
IV_OUTER_PROFILE
62
256
6
ByLayer
370
-1
48
1.0
60
0
100
AcDbLine
10
1106.71794967822
20
258.494506904667
30
0.0
11
1093.2590124265
21
288.00378129525
31
0.0
39
0.0
210
0.0
220
0.0
230
1.0
0
ARC
5
134
330
70
100
AcDbEntity
67
0
8
IV_OUTER_PROFILE
62
256
6
ByLayer
370
-1
48
1.0
60
0
100
AcDbCircle
39
0.0
10
1091.43934095436
20
287.173844108787
30
0.0
40
2.0
210
0.0
220
0.0
230
1.0
100
AcDbArc
50
24.5173386654397
51
84.2609015019107
0
LINE
5
135
330
70
100
AcDbEntity
67
0
8
IV_OUTER_PROFILE
62
256
6
ByLayer
370
-1
48
1.0
60
0
100
AcDbLine
10
1074.02555254852
20
290.934048973538
30
0.0
11
1091.6393384544
21
289.163819234253
31
0.0
39
0.0
210
0.0
220
0.0
230
1.0
0
ARC
5
136
330
70
100
AcDbEntity
67
0
8
IV_OUTER_PROFILE
62
256
6
ByLayer
370
-1
48
1.0
60
0
100
AcDbCircle
39
0.0
10
1073.82555504847
20
288.944073848072
30
0.0
40
2.0
210
0.0
220
0.0
230
1.0
100
AcDbArc
50
84.2609015019106
51
144.00446433838
0
LINE
5
137
330
70
100
AcDbEntity
67
0
8
IV_OUTER_PROFILE
62
256
6
ByLayer
370
-1
48
1.0
60
0
100
AcDbLine
10
1072.20742946723
20
290.119518276081
30
0.0
11
1053.14546543249
21
263.878676175594
31
0.0
39
0.0
210
0.0
220
0.0
230
1.0
0
ARC
5
138
330
70
100
AcDbEntity
67
0
8
IV_OUTER_PROFILE
62
256
6
ByLayer
370
-1
48
1.0
60
0
100
AcDbCircle
39
0.0
10
1051.52733985125
20
265.054120603603
30
0.0
40
2.0
210
0.0
220
0.0
230
1.0
100
AcDbArc
50
264.260901501907
51
324.004464338382
0
LINE
5
139
330
70
100
AcDbEntity
67
0
8
IV_OUTER_PROFILE
62
256
6
ByLayer
370
-1
48
1.0
60
0
100
AcDbLine
10
1051.32734235121
20
263.064145478137
30
0.0
11
1048.63836988632
21
263.33439396707
31
0.0
39
0.0
210
0.0
220
0.0
230
1.0
0
ARC
5
13A
330
70
100
AcDbEntity
67
0
8
IV_OUTER_PROFILE
62
256
6
ByLayer
370
-1
48
1.0
60
0
100
AcDbCircle
39
0.0
10
1048.83836738637
20
265.324369092536
30
0.0
40
2.0
210
0.0
220
0.0
230
1.0
100
AcDbArc
50
204.517338665439
51
264.260901501911
0
LINE
5
13B
330
70
100
AcDbEntity
67
0
8
IV_OUTER_PROFILE
62
256
6
ByLayer
370
-1
48
1.0
60
0
100
AcDbLine
10
1047.01869591422
20
264.494431906073
30
0.0
11
1033.55975866251
21
294.003706296656
31
0.0
39
0.0
210
0.0
220
0.0
230
1.0
0
ARC
5
13C
330
70
100
AcDbEntity
67
0
8
IV_OUTER_PROFILE
62
256
6
ByLayer
370
-1
48
1.0
60
0
100
AcDbCircle
39
0.0
10
1031.74008719036
20
293.173769110193
30
0.0
40
2.0
210
0.0
220
0.0
230
1.0
100
AcDbArc
50
24.517338665438
51
84.2609015019107
0
LINE
5
13D
330
70
100
AcDbEntity
67
0
8
IV_OUTER_PROFILE
62
256
6
ByLayer
370
-1
48
1.0
60
0
100
AcDbLine
10
1014.32629878453
20
296.933973974944
30
0.0
11
1031.94008469041
21
295.163744235659
31
0.0
39
0.0
210
0.0
220
0.0
230
1.0
0
ARC
5
13E
330
70
100
AcDbEntity
67
0
8
IV_OUTER_PROFILE
62
256
6
ByLayer
370
-1
48
1.0
60
0
100
AcDbCircle
39
0.0
10
1014.12630128448
20
294.943998849478
30
0.0
40
2.0
210
0.0
220
0.0
230
1.0
100
AcDbArc
50
84.2609015019107
51
144.004464338378
0
LINE
5
13F
330
70
100
AcDbEntity
67
0
8
IV_OUTER_PROFILE
62
256
6
ByLayer
370
-1
48
1.0
60
0
100
AcDbLine
10
1012.50817570324
20
296.119443277487
30
0.0
11
993.4462116685
21
269.878601177
31
0.0
39
0.0
210
0.0
220
0.0
230
1.0
0
ARC
5
140
330
70
100
AcDbEntity
67
0
8
IV_OUTER_PROFILE
62
256
6
ByLayer
370
-1
48
1.0
60
0
100
AcDbCircle
39
0.0
10
991.82808608726
20
271.054045605009
30
0.0
40
2.0
210
0.0
220
0.0
230
1.0
100
AcDbArc
50
264.260901501907
51
324.004464338382
0
LINE
5
141
330
70
100
AcDbEntity
67
0
8
IV_OUTER_PROFILE
62
256
6
ByLayer
370
-1
48
1.0
60
0
100
AcDbLine
10
991.628088587213
20
269.064070479543
30
0.0
11
988.939116122326
21
269.334318968476
31
0.0
39
0.0
210
0.0
220
0.0
230
1.0
0
ARC
5
142
330
70
100
AcDbEntity
67
0
8
IV_OUTER_PROFILE
62
256
6
ByLayer
370
-1
48
1.0
60
0
100
AcDbCircle
39
0.0
10
989.139113622373
20
271.324294093943
30
0.0
40
2.0
210
0.0
220
0.0
230
1.0
100
AcDbArc
50
204.517338665439
51
264.260901501911
0
LINE
5
143
330
70
100
AcDbEntity
67
0
8
IV_OUTER_PROFILE
62
256
6
ByLayer
370
-1
48
1.0
60
0
100
AcDbLine
10
987.319442150232
20
270.49435690748
30
0.0
11
973.860504898514
21
300.003631298062
31
0.0
39
0.0
210
0.0
220
0.0
230
1.0
0
ARC
5
144
330
70
100
AcDbEntity
67
0
8
IV_OUTER_PROFILE
62
256
6
ByLayer
370
-1
48
1.0
60
0
100
AcDbCircle
39
0.0
10
972.040833426373
20
299.173694111599
30
0.0
40
2.0
210
0.0
220
0.0
230
1.0
100
AcDbArc
50
24.5173386654397
51
84.2609015019107
0
LINE
5
145
330
70
100
AcDbEntity
67
0
8
IV_OUTER_PROFILE
62
256
6
ByLayer
370
-1
48
1.0
60
0
100
AcDbLine
10
954.627045020534
20
302.93389897635
30
0.0
11
972.240830926419
21
301.163669237065
31
0.0
39
0.0
210
0.0
220
0.0
230
1.0
0
ARC
5
146
330
70
100
AcDbEntity
67
0
8
IV_OUTER_PROFILE
62
256
6
ByLayer
370
-1
48
1.0
60
0
100
AcDbCircle
39
0.0
10
954.427047520487
20
300.943923850884
30
0.0
40
2.0
210
0.0
220
0.0
230
1.0
100
AcDbArc
50
84.2609015019106
51
144.004464338379
0
LINE
5
147
330
70
100
AcDbEntity
67
0
8
IV_OUTER_PROFILE
62
256
6
ByLayer
370
-1
48
1.0
60
0
100
AcDbLine
10
952.808921939248
20
302.119368278893
30
0.0
11
933.746957904508
21
275.878526178407
31
0.0
39
0.0
210
0.0
220
0.0
230
1.0
0
ARC
5
148
330
70
100
AcDbEntity
67
0
8
IV_OUTER_PROFILE
62
256
6
ByLayer
370
-1
48
1.0
60
0
100
AcDbCircle
39
0.0
10
932.128832323268
20
277.053970606416
30
0.0
40
2.0
210
0.0
220
0.0
230
1.0
100
AcDbArc
50
264.260901501907
51
324.004464338381
0
LINE
5
149
330
70
100
AcDbEntity
67
0
8
IV_OUTER_PROFILE
62
256
6
ByLayer
370
-1
48
1.0
60
0
100
AcDbLine
10
931.928834823221
20
275.063995480949
30
0.0
11
929.239862358334
21
275.334243969882
31
0.0
39
0.0
210
0.0
220
0.0
230
1.0
0
ARC
5
14A
330
70
100
AcDbEntity
67
0
8
IV_OUTER_PROFILE
62
256
6
ByLayer
370
-1
48
1.0
60
0
100
AcDbCircle
39
0.0
10
929.439859858381
20
277.324219095349
30
0.0
40
2.0
210
0.0
220
0.0
230
1.0
100
AcDbArc
50
204.51733866544
51
264.260901501911
0
LINE
5
14B
330
70
100
AcDbEntity
67
0
8
IV_OUTER_PROFILE
62
256
6
ByLayer
370
-1
48
1.0
60
0
100
AcDbLine
10
927.62018838624
20
276.494281908886
30
0.0
11
914.161251134522
21
306.003556299469
31
0.0
39
0.0
210
0.0
220
0.0
230
1.0
0
ARC
5
14C
330
70
100
AcDbEntity
67
0
8
IV_OUTER_PROFILE
62
256
6
ByLayer
370
-1
48
1.0
60
0
100
AcDbCircle
39
0.0
10
912.341579662381
20
305.173619113005
30
0.0
40
2.0
210
0.0
220
0.0
230
1.0
100
AcDbArc
50
24.5173386654416
51
84.2609015019107
0
LINE
5
14D
330
70
100
AcDbEntity
67
0
8
IV_OUTER_PROFILE
62
256
6
ByLayer
370
-1
48
1.0
60
0
100
AcDbLine
10
894.927791256543
20
308.933823977757
30
0.0
11
912.541577162427
21
307.163594238472
31
0.0
39
0.0
210
0.0
220
0.0
230
1.0
0
ARC
5
14E
330
70
100
AcDbEntity
67
0
8
IV_OUTER_PROFILE
62
256
6
ByLayer
370
-1
48
1.0
60
0
100
AcDbCircle
39
0.0
10
894.727793756496
20
306.94384885229
30
0.0
40
2.0
210
0.0
220
0.0
230
1.0
100
AcDbArc
50
84.2609015019105
51
144.004464338379
0
LINE
5
14F
330
70
100
AcDbEntity
67
0
8
IV_OUTER_PROFILE
62
256
6
ByLayer
370
-1
48
1.0
60
0
100
AcDbLine
10
893.109668175256
20
308.119293280299
30
0.0
11
874.047704140516
21
281.878451179813
31
0.0
39
0.0
210
0.0
220
0.0
230
1.0
0
ARC
5
150
330
70
100
AcDbEntity
67
0
8
IV_OUTER_PROFILE
62
256
6
ByLayer
370
-1
48
1.0
60
0
100
AcDbCircle
39
0.0
10
872.429578559276
20
283.053895607822
30
0.0
40
2.0
210
0.0
220
0.0
230
1.0
100
AcDbArc
50
264.260901501907
51
324.004464338383
0
LINE
5
151
330
70
100
AcDbEntity
67
0
8
IV_OUTER_PROFILE
62
256
6
ByLayer
370
-1
48
1.0
60
0
100
AcDbLine
10
872.229581059229
20
281.063920482355
30
0.0
11
869.540608594343
21
281.334168971289
31
0.0
39
0.0
210
0.0
220
0.0
230
1.0
0
ARC
5
152
330
70
100
AcDbEntity
67
0
8
IV_OUTER_PROFILE
62
256
6
ByLayer
370
-1
48
1.0
60
0
100
AcDbCircle
39
0.0
10
869.740606094389
20
283.324144096755
30
0.0
40
2.0
210
0.0
220
0.0
230
1.0
100
AcDbArc
50
204.517338665439
51
264.260901501911
0
LINE
5
153
330
70
100
AcDbEntity
67
0
8
IV_OUTER_PROFILE
62
256
6
ByLayer
370
-1
48
1.0
60
0
100
AcDbLine
10
867.920934622248
20
282.494206910292
30
0.0
11
854.46199737053
21
312.003481300875
31
0.0
39
0.0
210
0.0
220
0.0
230
1.0
0
ARC
5
154
330
70
100
AcDbEntity
67
0
8
IV_OUTER_PROFILE
62
256
6
ByLayer
370
-1
48
1.0
60
0
100
AcDbCircle
39
0.0
10
852.642325898389
20
311.173544114412
30
0.0
40
2.0
210
0.0
220
0.0
230
1.0
100
AcDbArc
50
24.5173386654406
51
84.2609015019107
0
LINE
5
155
330
70
100
AcDbEntity
67
0
8
IV_OUTER_PROFILE
62
256
6
ByLayer
370
-1
48
1.0
60
0
100
AcDbLine
10
835.228537492551
20
314.933748979163
30
0.0
11
852.842323398435
21
313.163519239878
31
0.0
39
0.0
210
0.0
220
0.0
230
1.0
0
ARC
5
156
330
70
100
AcDbEntity
67
0
8
IV_OUTER_PROFILE
62
256
6
ByLayer
370
-1
48
1.0
60
0
100
AcDbCircle
39
0.0
10
835.028539992504
20
312.943773853696
30
0.0
40
2.0
210
0.0
220
0.0
230
1.0
100
AcDbArc
50
84.2609015019105
51
144.004464338378
0
LINE
5
157
330
70
100
AcDbEntity
67
0
8
IV_OUTER_PROFILE
62
256
6
ByLayer
370
-1
48
1.0
60
0
100
AcDbLine
10
833.410414411264
20
314.119218281706
30
0.0
11
814.348450376524
21
287.878376181219
31
0.0
39
0.0
210
0.0
220
0.0
230
1.0
0
ARC
5
158
330
70
100
AcDbEntity
67
0
8
IV_OUTER_PROFILE
62
256
6
ByLayer
370
-1
48
1.0
60
0
100
AcDbCircle
39
0.0
10
812.730324795284
20
289.053820609228
30
0.0
40
2.0
210
0.0
220
0.0
230
1.0
100
AcDbArc
50
264.260901501907
51
324.004464338384
0
LINE
5
159
330
70
100
AcDbEntity
67
0
8
IV_OUTER_PROFILE
62
256
6
ByLayer
370
-1
48
1.0
60
0
100
AcDbLine
10
812.530327295237
20
287.063845483762
30
0.0
11
809.841354830351
21
287.334093972695
31
0.0
39
0.0
210
0.0
220
0.0
230
1.0
0
ARC
5
15A
330
70
100
AcDbEntity
67
0
8
IV_OUTER_PROFILE
62
256
6
ByLayer
370
-1
48
1.0
60
0
100
AcDbCircle
39
0.0
10
810.041352330397
20
289.324069098161
30
0.0
40
2.0
210
0.0
220
0.0
230
1.0
100
AcDbArc
50
204.51733866544
51
264.260901501911
0
LINE
5
15B
330
70
100
AcDbEntity
67
0
8
IV_OUTER_PROFILE
62
256
6
ByLayer
370
-1
48
1.0
60
0
100
AcDbLine
10
808.221680858256
20
288.494131911698
30
0.0
11
794.762743606538
21
318.003406302281
31
0.0
39
0.0
210
0.0
220
0.0
230
1.0
0
ARC
5
15C
330
70
100
AcDbEntity
67
0
8
IV_OUTER_PROFILE
62
256
6
ByLayer
370
-1
48
1.0
60
0
100
AcDbCircle
39
0.0
10
792.943072134397
20
317.173469115818
30
0.0
40
2.0
210
0.0
220
0.0
230
1.0
100
AcDbArc
50
24.5173386654379
51
84.2609015019107
0
LINE
5
15D
330
70
100
AcDbEntity
67
0
8
IV_OUTER_PROFILE
62
256
6
ByLayer
370
-1
48
1.0
60
0
100
AcDbLine
10
775.529283728559
20
320.933673980569
30
0.0
11
793.143069634444
21
319.163444241284
31
0.0
39
0.0
210
0.0
220
0.0
230
1.0
0
ARC
5
15E
330
70
100
AcDbEntity
67
0
8
IV_OUTER_PROFILE
62
256
6
ByLayer
370
-1
48
1.0
60
0
100
AcDbCircle
39
0.0
10
775.329286228512
20
318.943698855103
30
0.0
40
2.0
210
0.0
220
0.0
230
1.0
100
AcDbArc
50
84.2609015019107
51
144.00446433838
0
LINE
5
15F
330
70
100
AcDbEntity
67
0
8
IV_OUTER_PROFILE
62
256
6
ByLayer
370
-1
48
1.0
60
0
100
AcDbLine
10
773.711160647272
20
320.119143283112
30
0.0
11
754.649196612532
21
293.878301182625
31
0.0
39
0.0
210
0.0
220
0.0
230
1.0
0
ARC
5
160
330
70
100
AcDbEntity
67
0
8
IV_OUTER_PROFILE
62
256
6
ByLayer
370
-1
48
1.0
60
0
100
AcDbCircle
39
0.0
10
753.031071031293
20
295.053745610634
30
0.0
40
2.0
210
0.0
220
0.0
230
1.0
100
AcDbArc
50
264.260901501907
51
324.004464338379
0
LINE
5
161
330
70
100
AcDbEntity
67
0
8
IV_OUTER_PROFILE
62
256
6
ByLayer
370
-1
48
1.0
60
0
100
AcDbLine
10
752.831073531246
20
293.063770485168
30
0.0
11
750.142101066359
21
293.334018974101
31
0.0
39
0.0
210
0.0
220
0.0
230
1.0
0
ARC
5
162
330
70
100
AcDbEntity
67
0
8
IV_OUTER_PROFILE
62
256
6
ByLayer
370
-1
48
1.0
60
0
100
AcDbCircle
39
0.0
10
750.342098566406
20
295.323994099568
30
0.0
40
2.0
210
0.0
220
0.0
230
1.0
100
AcDbArc
50
204.517338665444
51
264.260901501911
0
LINE
5
163
330
70
100
AcDbEntity
67
0
8
IV_OUTER_PROFILE
62
256
6
ByLayer
370
-1
48
1.0
60
0
100
AcDbLine
10
748.522427094264
20
294.494056913104
30
0.0
11
735.063489842546
21
324.003331303687
31
0.0
39
0.0
210
0.0
220
0.0
230
1.0
0
ARC
5
164
330
70
100
AcDbEntity
67
0
8
IV_OUTER_PROFILE
62
256
6
ByLayer
370
-1
48
1.0
60
0
100
AcDbCircle
39
0.0
10
733.243818370405
20
323.173394117224
30
0.0
40
2.0
210
0.0
220
0.0
230
1.0
100
AcDbArc
50
24.5173386654431
51
84.2609015019067
0
LINE
5
165
330
70
100
AcDbEntity
67
0
8
IV_OUTER_PROFILE
62
256
6
ByLayer
370
-1
48
1.0
60
0
100
AcDbLine
10
715.830029964567
20
326.933598981975
30
0.0
11
733.443815870452
21
325.16336924269
31
0.0
39
0.0
210
0.0
220
0.0
230
1.0
0
ARC
5
166
330
70
100
AcDbEntity
67
0
8
IV_OUTER_PROFILE
62
256
6
ByLayer
370
-1
48
1.0
60
0
100
AcDbCircle
39
0.0
10
715.63003246452
20
324.943623856509
30
0.0
40
2.0
210
0.0
220
0.0
230
1.0
100
AcDbArc
50
84.2609015019146
51
144.004464338376
0
LINE
5
167
330
70
100
AcDbEntity
67
0
8
IV_OUTER_PROFILE
62
256
6
ByLayer
370
-1
48
1.0
60
0
100
AcDbLine
10
714.011906883281
20
326.119068284518
30
0.0
11
694.94994284854
21
299.878226184031
31
0.0
39
0.0
210
0.0
220
0.0
230
1.0
0
ARC
5
168
330
70
100
AcDbEntity
67
0
8
IV_OUTER_PROFILE
62
256
6
ByLayer
370
-1
48
1.0
60
0
100
AcDbCircle
39
0.0
10
693.331817267301
20
301.05367061204
30
0.0
40
2.0
210
0.0
220
0.0
230
1.0
100
AcDbArc
50
264.260901501915
51
324.004464338379
0
LINE
5
169
330
70
100
AcDbEntity
67
0
8
IV_OUTER_PROFILE
62
256
6
ByLayer
370
-1
48
1.0
60
0
100
AcDbLine
10
693.131819767254
20
299.063695486574
30
0.0
11
690.442847302367
21
299.333943975507
31
0.0
39
0.0
210
0.0
220
0.0
230
1.0
0
ARC
5
16A
330
70
100
AcDbEntity
67
0
8
IV_OUTER_PROFILE
62
256
6
ByLayer
370
-1
48
1.0
60
0
100
AcDbCircle
39
0.0
10
690.642844802414
20
301.323919100974
30
0.0
40
2.0
210
0.0
220
0.0
230
1.0
100
AcDbArc
50
204.517338665446
51
264.260901501907
0
LINE
5
16B
330
70
100
AcDbEntity
67
0
8
IV_OUTER_PROFILE
62
256
6
ByLayer
370
-1
48
1.0
60
0
100
AcDbLine
10
688.823173330273
20
300.493981914511
30
0.0
11
675.364236078555
21
330.003256305093
31
0.0
39
0.0
210
0.0
220
0.0
230
1.0
0
ARC
5
16C
330
70
100
AcDbEntity
67
0
8
IV_OUTER_PROFILE
62
256
6
ByLayer
370
-1
48
1.0
60
0
100
AcDbCircle
39
0.0
10
673.544564606413
20
329.17331911863
30
0.0
40
2.0
210
0.0
220
0.0
230
1.0
100
AcDbArc
50
24.5173386654431
51
84.2609015019148
0
LINE
5
16D
330
70
100
AcDbEntity
67
0
8
IV_OUTER_PROFILE
62
256
6
ByLayer
370
-1
48
1.0
60
0
100
AcDbLine
10
656.130776200575
20
332.933523983381
30
0.0
11
673.74456210646
21
331.163294244097
31
0.0
39
0.0
210
0.0
220
0.0
230
1.0
0
ARC
5
16E
330
70
100
AcDbEntity
67
0
8
IV_OUTER_PROFILE
62
256
6
ByLayer
370
-1
48
1.0
60
0
100
AcDbCircle
39
0.0
10
655.930778700528
20
330.943548857915
30
0.0
40
2.0
210
0.0
220
0.0
230
1.0
100
AcDbArc
50
84.2609015019146
51
144.004464338373
0
LINE
5
16F
330
70
100
AcDbEntity
67
0
8
IV_OUTER_PROFILE
62
256
6
ByLayer
370
-1
48
1.0
60
0
100
AcDbLine
10
654.312653119289
20
332.118993285924
30
0.0
11
635.250689084548
21
305.878151185438
31
0.0
39
0.0
210
0.0
220
0.0
230
1.0
0
ARC
5
170
330
70
100
AcDbEntity
67
0
8
IV_OUTER_PROFILE
62
256
6
ByLayer
370
-1
48
1.0
60
0
100
AcDbCircle
39
0.0
10
633.632563503309
20
307.053595613447
30
0.0
40
2.0
210
0.0
220
0.0
230
1.0
100
AcDbArc
50
264.260901501907
51
324.004464338379
0
LINE
5
171
330
70
100
AcDbEntity
67
0
8
IV_OUTER_PROFILE
62
256
6
ByLayer
370
-1
48
1.0
60
0
100
AcDbLine
10
633.432566003262
20
305.06362048798
30
0.0
11
630.743593538375
21
305.333868976914
31
0.0
39
0.0
210
0.0
220
0.0
230
1.0
0
ARC
5
172
330
70
100
AcDbEntity
67
0
8
IV_OUTER_PROFILE
62
256
6
ByLayer
370
-1
48
1.0
60
0
100
AcDbCircle
39
0.0
10
630.943591038422
20
307.32384410238
30
0.0
40
2.0
210
0.0
220
0.0
230
1.0
100
AcDbArc
50
204.517338665446
51
264.260901501907
0
LINE
5
173
330
70
100
AcDbEntity
67
0
8
IV_OUTER_PROFILE
62
256
6
ByLayer
370
-1
48
1.0
60
0
100
AcDbLine
10
629.123919566281
20
306.493906915917
30
0.0
11
615.664982314563
21
336.0031813065
31
0.0
39
0.0
210
0.0
220
0.0
230
1.0
0
ARC
5
174
330
70
100
AcDbEntity
67
0
8
IV_OUTER_PROFILE
62
256
6
ByLayer
370
-1
48
1.0
60
0
100
AcDbCircle
39
0.0
10
613.845310842421
20
335.173244120036
30
0.0
40
2.0
210
0.0
220
0.0
230
1.0
100
AcDbArc
50
24.5173386654449
51
84.2609015019148
0
LINE
5
175
330
70
100
AcDbEntity
67
0
8
IV_OUTER_PROFILE
62
256
6
ByLayer
370
-1
48
1.0
60
0
100
AcDbLine
10
596.431522436583
20
338.933448984788
30
0.0
11
614.045308342468
21
337.163219245503
31
0.0
39
0.0
210
0.0
220
0.0
230
1.0
0
ARC
5
176
330
70
100
AcDbEntity
67
0
8
IV_OUTER_PROFILE
62
256
6
ByLayer
370
-1
48
1.0
60
0
100
AcDbCircle
39
0.0
10
596.231524936536
20
336.943473859321
30
0.0
40
2.0
210
0.0
220
0.0
230
1.0
100
AcDbArc
50
84.2609015019148
51
144.004464338373
0
LINE
5
177
330
70
100
AcDbEntity
67
0
8
IV_OUTER_PROFILE
62
256
6
ByLayer
370
-1
48
1.0
60
0
100
AcDbLine
10
594.613399355297
20
338.11891828733
30
0.0
11
575.551435320557
21
311.878076186844
31
0.0
39
0.0
210
0.0
220
0.0
230
1.0
0
ARC
5
178
330
70
100
AcDbEntity
67
0
8
IV_OUTER_PROFILE
62
256
6
ByLayer
370
-1
48
1.0
60
0
100
AcDbCircle
39
0.0
10
573.933309739317
20
313.053520614853
30
0.0
40
2.0
210
0.0
220
0.0
230
1.0
100
AcDbArc
50
264.260901501907
51
324.004464338379
0
LINE
5
179
330
70
100
AcDbEntity
67
0
8
IV_OUTER_PROFILE
62
256
6
ByLayer
370
-1
48
1.0
60
0
100
AcDbLine
10
573.73331223927
20
311.063545489387
30
0.0
11
571.044339774383
21
311.33379397832
31
0.0
39
0.0
210
0.0
220
0.0
230
1.0
0
ARC
5
17A
330
70
100
AcDbEntity
67
0
8
IV_OUTER_PROFILE
62
256
6
ByLayer
370
-1
48
1.0
60
0
100
AcDbCircle
39
0.0
10
571.24433727443
20
313.323769103786
30
0.0
40
2.0
210
0.0
220
0.0
230
1.0
100
AcDbArc
50
204.517338665446
51
264.260901501907
0
LINE
5
17B
330
70
100
AcDbEntity
67
0
8
IV_OUTER_PROFILE
62
256
6
ByLayer
370
-1
48
1.0
60
0
100
AcDbLine
10
569.424665802289
20
312.493831917323
30
0.0
11
555.965728550571
21
342.003106307906
31
0.0
39
0.0
210
0.0
220
0.0
230
1.0
0
ARC
5
17C
330
70
100
AcDbEntity
67
0
8
IV_OUTER_PROFILE
62
256
6
ByLayer
370
-1
48
1.0
60
0
100
AcDbCircle
39
0.0
10
554.14605707843
20
341.173169121443
30
0.0
40
2.0
210
0.0
220
0.0
230
1.0
100
AcDbArc
50
24.5173386654431
51
84.2609015019148
0
LINE
5
17D
330
70
100
AcDbEntity
67
0
8
IV_OUTER_PROFILE
62
256
6
ByLayer
370
-1
48
1.0
60
0
100
AcDbLine
10
536.732268672591
20
344.933373986194
30
0.0
11
554.346054578476
21
343.163144246909
31
0.0
39
0.0
210
0.0
220
0.0
230
1.0
0
ARC
5
17E
330
70
100
AcDbEntity
67
0
8
IV_OUTER_PROFILE
62
256
6
ByLayer
370
-1
48
1.0
60
0
100
AcDbCircle
39
0.0
10
536.532271172544
20
342.943398860727
30
0.0
40
2.0
210
0.0
220
0.0
230
1.0
100
AcDbArc
50
84.2609015019148
51
144.004464338379
0
LINE
5
17F
330
70
100
AcDbEntity
67
0
8
IV_OUTER_PROFILE
62
256
6
ByLayer
370
-1
48
1.0
60
0
100
AcDbLine
10
534.914145591305
20
344.118843288737
30
0.0
11
515.852181556564
21
317.87800118825
31
0.0
39
0.0
210
0.0
220
0.0
230
1.0
0
ARC
5
180
330
70
100
AcDbEntity
67
0
8
IV_OUTER_PROFILE
62
256
6
ByLayer
370
-1
48
1.0
60
0
100
AcDbCircle
39
0.0
10
514.234055975325
20
319.053445616259
30
0.0
40
2.0
210
0.0
220
0.0
230
1.0
100
AcDbArc
50
264.260901501907
51
324.004464338379
0
LINE
5
181
330
70
100
AcDbEntity
67
0
8
IV_OUTER_PROFILE
62
256
6
ByLayer
370
-1
48
1.0
60
0
100
AcDbLine
10
514.034058475278
20
317.063470490793
30
0.0
11
511.345086010391
21
317.333718979726
31
0.0
39
0.0
210
0.0
220
0.0
230
1.0
0
ARC
5
182
330
70
100
AcDbEntity
67
0
8
IV_OUTER_PROFILE
62
256
6
ByLayer
370
-1
48
1.0
60
0
100
AcDbCircle
39
0.0
10
511.545083510438
20
319.323694105192
30
0.0
40
2.0
210
0.0
220
0.0
230
1.0
100
AcDbArc
50
204.517338665445
51
264.260901501907
0
LINE
5
183
330
70
100
AcDbEntity
67
0
8
IV_OUTER_PROFILE
62
256
6
ByLayer
370
-1
48
1.0
60
0
100
AcDbLine
10
509.725412038297
20
318.493756918729
30
0.0
11
496.266474786579
21
348.003031309312
31
0.0
39
0.0
210
0.0
220
0.0
230
1.0
0
ARC
5
184
330
70
100
AcDbEntity
67
0
8
IV_OUTER_PROFILE
62
256
6
ByLayer
370
-1
48
1.0
60
0
100
AcDbCircle
39
0.0
10
494.446803314437
20
347.173094122849
30
0.0
40
2.0
210
0.0
220
0.0
230
1.0
100
AcDbArc
50
24.5173386654449
51
84.2609015019148
0
LINE
5
185
330
70
100
AcDbEntity
67
0
8
IV_OUTER_PROFILE
62
256
6
ByLayer
370
-1
48
1.0
60
0
100
AcDbLine
10
477.033014908599
20
350.9332989876
30
0.0
11
494.646800814484
21
349.163069248315
31
0.0
39
0.0
210
0.0
220
0.0
230
1.0
0
ARC
5
186
330
70
100
AcDbEntity
67
0
8
IV_OUTER_PROFILE
62
256
6
ByLayer
370
-1
48
1.0
60
0
100
AcDbCircle
39
0.0
10
476.833017408553
20
348.943323862134
30
0.0
40
2.0
210
0.0
220
0.0
230
1.0
100
AcDbArc
50
84.2609015019146
51
144.004464338373
0
LINE
5
187
330
70
100
AcDbEntity
67
0
8
IV_OUTER_PROFILE
62
256
6
ByLayer
370
-1
48
1.0
60
0
100
AcDbLine
10
475.214891827313
20
350.118768290143
30
0.0
11
456.152927792573
21
323.877926189656
31
0.0
39
0.0
210
0.0
220
0.0
230
1.0
0
ARC
5
188
330
70
100
AcDbEntity
67
0
8
IV_OUTER_PROFILE
62
256
6
ByLayer
370
-1
48
1.0
60
0
100
AcDbCircle
39
0.0
10
454.534802211333
20
325.053370617665
30
0.0
40
2.0
210
0.0
220
0.0
230
1.0
100
AcDbArc
50
264.260901501907
51
324.004464338379
0
LINE
5
189
330
70
100
AcDbEntity
67
0
8
IV_OUTER_PROFILE
62
256
6
ByLayer
370
-1
48
1.0
60
0
100
AcDbLine
10
454.334804711286
20
323.063395492199
30
0.0
11
451.645832246399
21
323.333643981132
31
0.0
39
0.0
210
0.0
220
0.0
230
1.0
0
ARC
5
18A
330
70
100
AcDbEntity
67
0
8
IV_OUTER_PROFILE
62
256
6
ByLayer
370
-1
48
1.0
60
0
100
AcDbCircle
39
0.0
10
451.845829746446
20
325.323619106599
30
0.0
40
2.0
210
0.0
220
0.0
230
1.0
100
AcDbArc
50
204.517338665445
51
264.260901501907
0
LINE
5
18B
330
70
100
AcDbEntity
67
0
8
IV_OUTER_PROFILE
62
256
6
ByLayer
370
-1
48
1.0
60
0
100
AcDbLine
10
450.026158274305
20
324.493681920135
30
0.0
11
436.567221022587
21
354.002956310718
31
0.0
39
0.0
210
0.0
220
0.0
230
1.0
0
ARC
5
18C
330
70
100
AcDbEntity
67
0
8
IV_OUTER_PROFILE
62
256
6
ByLayer
370
-1
48
1.0
60
0
100
AcDbCircle
39
0.0
10
434.747549550446
20
353.173019124255
30
0.0
40
2.0
210
0.0
220
0.0
230
1.0
100
AcDbArc
50
24.5173386654449
51
84.2609015019148
0
LINE
5
18D
330
70
100
AcDbEntity
67
0
8
IV_OUTER_PROFILE
62
256
6
ByLayer
370
-1
48
1.0
60
0
100
AcDbLine
10
417.333761144607
20
356.933223989006
30
0.0
11
434.947547050492
21
355.162994249721
31
0.0
39
0.0
210
0.0
220
0.0
230
1.0
0
ARC
5
18E
330
70
100
AcDbEntity
67
0
8
IV_OUTER_PROFILE
62
256
6
ByLayer
370
-1
48
1.0
60
0
100
AcDbCircle
39
0.0
10
417.13376364456
20
354.94324886354
30
0.0
40
2.0
210
0.0
220
0.0
230
1.0
100
AcDbArc
50
84.2609015019146
51
144.004464338373
0
LINE
5
18F
330
70
100
AcDbEntity
67
0
8
IV_OUTER_PROFILE
62
256
6
ByLayer
370
-1
48
1.0
60
0
100
AcDbLine
10
415.515638063321
20
356.118693291549
30
0.0
11
396.453674028581
21
329.877851191063
31
0.0
39
0.0
210
0.0
220
0.0
230
1.0
0
ARC
5
190
330
70
100
AcDbEntity
67
0
8
IV_OUTER_PROFILE
62
256
6
ByLayer
370
-1
48
1.0
60
0
100
AcDbCircle
39
0.0
10
394.835548447341
20
331.053295619072
30
0.0
40
2.0
210
0.0
220
0.0
230
1.0
100
AcDbArc
50
264.260901501907
51
324.004464338379
0
LINE
5
191
330
70
100
AcDbEntity
67
0
8
IV_OUTER_PROFILE
62
256
6
ByLayer
370
-1
48
1.0
60
0
100
AcDbLine
10
394.635550947294
20
329.063320493605
30
0.0
11
391.946578482407
21
329.333568982539
31
0.0
39
0.0
210
0.0
220
0.0
230
1.0
0
ARC
5
192
330
70
100
AcDbEntity
67
0
8
IV_OUTER_PROFILE
62
256
6
ByLayer
370
-1
48
1.0
60
0
100
AcDbCircle
39
0.0
10
392.146575982454
20
331.323544108005
30
0.0
40
2.0
210
0.0
220
0.0
230
1.0
100
AcDbArc
50
204.517338665445
51
264.260901501907
0
LINE
5
193
330
70
100
AcDbEntity
67
0
8
IV_OUTER_PROFILE
62
256
6
ByLayer
370
-1
48
1.0
60
0
100
AcDbLine
10
390.326904510313
20
330.493606921542
30
0.0
11
376.867967258595
21
360.002881312124
31
0.0
39
0.0
210
0.0
220
0.0
230
1.0
0
ARC
5
194
330
70
100
AcDbEntity
67
0
8
IV_OUTER_PROFILE
62
256
6
ByLayer
370
-1
48
1.0
60
0
100
AcDbCircle
39
0.0
10
375.048295786454
20
359.172944125661
30
0.0
40
2.0
210
0.0
220
0.0
230
1.0
100
AcDbArc
50
24.5173386654431
51
84.2609015019148
0
LINE
5
195
330
70
100
AcDbEntity
67
0
8
IV_OUTER_PROFILE
62
256
6
ByLayer
370
-1
48
1.0
60
0
100
AcDbLine
10
357.634507380616
20
362.933148990413
30
0.0
11
375.2482932865
21
361.162919251128
31
0.0
39
0.0
210
0.0
220
0.0
230
1.0
0
ARC
5
196
330
70
100
AcDbEntity
67
0
8
IV_OUTER_PROFILE
62
256
6
ByLayer
370
-1
48
1.0
60
0
100
AcDbCircle
39
0.0
10
357.434509880569
20
360.943173864946
30
0.0
40
2.0
210
0.0
220
0.0
230
1.0
100
AcDbArc
50
84.2609015019148
51
144.004464338373
0
LINE
5
197
330
70
100
AcDbEntity
67
0
8
IV_OUTER_PROFILE
62
256
6
ByLayer
370
-1
48
1.0
60
0
100
AcDbLine
10
355.816384299329
20
362.118618292955
30
0.0
11
336.754420264589
21
335.877776192469
31
0.0
39
0.0
210
0.0
220
0.0
230
1.0
0
ARC
5
198
330
70
100
AcDbEntity
67
0
8
IV_OUTER_PROFILE
62
256
6
ByLayer
370
-1
48
1.0
60
0
100
AcDbCircle
39
0.0
10
335.13629468335
20
337.053220620478
30
0.0
40
2.0
210
0.0
220
0.0
230
1.0
100
AcDbArc
50
264.260901501907
51
324.004464338379
0
LINE
5
199
330
70
100
AcDbEntity
67
0
8
IV_OUTER_PROFILE
62
256
6
ByLayer
370
-1
48
1.0
60
0
100
AcDbLine
10
334.936297183302
20
335.063245495011
30
0.0
11
332.247324718415
21
335.333493983945
31
0.0
39
0.0
210
0.0
220
0.0
230
1.0
0
ARC
5
19A
330
70
100
AcDbEntity
67
0
8
IV_OUTER_PROFILE
62
256
6
ByLayer
370
-1
48
1.0
60
0
100
AcDbCircle
39
0.0
10
332.447322218463
20
337.323469109411
30
0.0
40
2.0
210
0.0
220
0.0
230
1.0
100
AcDbArc
50
204.517338665442
51
264.260901501898
0
LINE
5
19B
330
70
100
AcDbEntity
67
0
8
IV_OUTER_PROFILE
62
256
6
ByLayer
370
-1
48
1.0
60
0
100
AcDbLine
10
330.627650746321
20
336.493531922948
30
0.0
11
317.168713494603
21
366.002806313531
31
0.0
39
0.0
210
0.0
220
0.0
230
1.0
0
ARC
5
19C
330
70
100
AcDbEntity
67
0
8
IV_OUTER_PROFILE
62
256
6
ByLayer
370
-1
48
1.0
60
0
100
AcDbCircle
39
0.0
10
315.349042022462
20
365.172869127067
30
0.0
40
2.0
210
0.0
220
0.0
230
1.0
100
AcDbArc
50
24.5173386654431
51
84.2609015019148
0
LINE
5
19D
330
70
100
AcDbEntity
67
0
8
IV_OUTER_PROFILE
62
256
6
ByLayer
370
-1
48
1.0
60
0
100
AcDbLine
10
297.935253616624
20
368.933073991819
30
0.0
11
315.549039522509
21
367.162844252534
31
0.0
39
0.0
210
0.0
220
0.0
230
1.0
0
ARC
5
19E
330
70
100
AcDbEntity
67
0
8
IV_OUTER_PROFILE
62
256
6
ByLayer
370
-1
48
1.0
60
0
100
AcDbCircle
39
0.0
10
297.735256116577
20
366.943098866352
30
0.0
40
2.0
210
0.0
220
0.0
230
1.0
100
AcDbArc
50
84.2609015019148
51
144.004464338373
0
LINE
5
19F
330
70
100
AcDbEntity
67
0
8
IV_OUTER_PROFILE
62
256
6
ByLayer
370
-1
48
1.0
60
0
100
AcDbLine
10
296.117130535337
20
368.118543294362
30
0.0
11
277.055166500597
21
341.877701193875
31
0.0
39
0.0
210
0.0
220
0.0
230
1.0
0
ARC
5
1A0
330
70
100
AcDbEntity
67
0
8
IV_OUTER_PROFILE
62
256
6
ByLayer
370
-1
48
1.0
60
0
100
AcDbCircle
39
0.0
10
275.437040919358
20
343.053145621884
30
0.0
40
2.0
210
0.0
220
0.0
230
1.0
100
AcDbArc
50
264.260901501907
51
324.004464338379
0
LINE
5
1A1
330
70
100
AcDbEntity
67
0
8
IV_OUTER_PROFILE
62
256
6
ByLayer
370
-1
48
1.0
60
0
100
AcDbLine
10
275.237043419311
20
341.063170496418
30
0.0
11
272.548070954424
21
341.333418985351
31
0.0
39
0.0
210
0.0
220
0.0
230
1.0
0
ARC
5
1A2
330
70
100
AcDbEntity
67
0
8
IV_OUTER_PROFILE
62
256
6
ByLayer
370
-1
48
1.0
60
0
100
AcDbCircle
39
0.0
10
272.748068454471
20
343.323394110817
30
0.0
40
2.0
210
0.0
220
0.0
230
1.0
100
AcDbArc
50
204.517338665447
51
264.260901501907
0
LINE
5
1A3
330
70
100
AcDbEntity
67
0
8
IV_OUTER_PROFILE
62
256
6
ByLayer
370
-1
48
1.0
60
0
100
AcDbLine
10
270.928396982329
20
342.493456924354
30
0.0
11
257.469459730611
21
372.002731314937
31
0.0
39
0.0
210
0.0
220
0.0
230
1.0
0
ARC
5
1A4
330
70
100
AcDbEntity
67
0
8
IV_OUTER_PROFILE
62
256
6
ByLayer
370
-1
48
1.0
60
0
100
AcDbCircle
39
0.0
10
255.64978825847
20
371.172794128474
30
0.0
40
2.0
210
0.0
220
0.0
230
1.0
100
AcDbArc
50
24.5173386654431
51
84.2609015019148
0
LINE
5
1A5
330
70
100
AcDbEntity
67
0
8
IV_OUTER_PROFILE
62
256
6
ByLayer
370
-1
48
1.0
60
0
100
AcDbLine
10
238.235999852632
20
374.932998993225
30
0.0
11
255.849785758517
21
373.16276925394
31
0.0
39
0.0
210
0.0
220
0.0
230
1.0
0
ARC
5
1A6
330
70
100
AcDbEntity
67
0
8
IV_OUTER_PROFILE
62
256
6
ByLayer
370
-1
48
1.0
60
0
100
AcDbCircle
39
0.0
10
238.036002352585
20
372.943023867758
30
0.0
40
2.0
210
0.0
220
0.0
230
1.0
100
AcDbArc
50
84.2609015019148
51
144.004464338373
0
LINE
5
1A7
330
70
100
AcDbEntity
67
0
8
IV_OUTER_PROFILE
62
256
6
ByLayer
370
-1
48
1.0
60
0
100
AcDbLine
10
236.417876771345
20
374.118468295768
30
0.0
11
217.355912736605
21
347.877626195281
31
0.0
39
0.0
210
0.0
220
0.0
230
1.0
0
ARC
5
1A8
330
70
100
AcDbEntity
67
0
8
IV_OUTER_PROFILE
62
256
6
ByLayer
370
-1
48
1.0
60
0
100
AcDbCircle
39
0.0
10
215.737787155366
20
349.05307062329
30
0.0
40
2.0
210
0.0
220
0.0
230
1.0
100
AcDbArc
50
264.260901501907
51
324.004464338379
0
LINE
5
1A9
330
70
100
AcDbEntity
67
0
8
IV_OUTER_PROFILE
62
256
6
ByLayer
370
-1
48
1.0
60
0
100
AcDbLine
10
215.537789655319
20
347.063095497824
30
0.0
11
212.848817190432
21
347.333343986757
31
0.0
39
0.0
210
0.0
220
0.0
230
1.0
0
ARC
5
1AA
330
70
100
AcDbEntity
67
0
8
IV_OUTER_PROFILE
62
256
6
ByLayer
370
-1
48
1.0
60
0
100
AcDbCircle
39
0.0
10
213.048814690479
20
349.323319112224
30
0.0
40
2.0
210
0.0
220
0.0
230
1.0
100
AcDbArc
50
204.517338665442
51
264.260901501899
0
LINE
5
1AB
330
70
100
AcDbEntity
67
0
8
IV_OUTER_PROFILE
62
256
6
ByLayer
370
-1
48
1.0
60
0
100
AcDbLine
10
211.229143218337
20
348.49338192576
30
0.0
11
197.770205966619
21
378.002656316343
31
0.0
39
0.0
210
0.0
220
0.0
230
1.0
0
ARC
5
1AC
330
70
100
AcDbEntity
67
0
8
IV_OUTER_PROFILE
62
256
6
ByLayer
370
-1
48
1.0
60
0
100
AcDbCircle
39
0.0
10
195.950534494478
20
377.17271912988
30
0.0
40
2.0
210
0.0
220
0.0
230
1.0
100
AcDbArc
50
24.5173386654397
51
84.2609015019148
0
LINE
5
1AD
330
70
100
AcDbEntity
67
0
8
IV_OUTER_PROFILE
62
256
6
ByLayer
370
-1
48
1.0
60
0
100
AcDbLine
10
178.53674608864
20
380.932923994631
30
0.0
11
196.150531994525
21
379.162694255346
31
0.0
39
0.0
210
0.0
220
0.0
230
1.0
0
ARC
5
1AE
330
70
100
AcDbEntity
67
0
8
IV_OUTER_PROFILE
62
256
6
ByLayer
370
-1
48
1.0
60
0
100
AcDbCircle
39
0.0
10
178.336748588593
20
378.942948869165
30
0.0
40
2.0
210
0.0
220
0.0
230
1.0
100
AcDbArc
50
84.2609015019146
51
144.004464338381
0
LINE
5
1AF
330
70
100
AcDbEntity
67
0
8
IV_OUTER_PROFILE
62
256
6
ByLayer
370
-1
48
1.0
60
0
100
AcDbLine
10
176.718623007353
20
380.118393297174
30
0.0
11
157.656658972613
21
353.877551196687
31
0.0
39
0.0
210
0.0
220
0.0
230
1.0
0
ARC
5
1B0
330
70
100
AcDbEntity
67
0
8
IV_OUTER_PROFILE
62
256
6
ByLayer
370
-1
48
1.0
60
0
100
AcDbCircle
39
0.0
10
156.038533391374
20
355.052995624697
30
0.0
40
2.0
210
0.0
220
0.0
230
1.0
100
AcDbArc
50
264.260901501907
51
324.004464338379
0
LINE
5
1B1
330
70
100
AcDbEntity
67
0
8
IV_OUTER_PROFILE
62
256
6
ByLayer
370
-1
48
1.0
60
0
100
AcDbLine
10
155.838535891327
20
353.06302049923
30
0.0
11
153.14956342644
21
353.333268988163
31
0.0
39
0.0
210
0.0
220
0.0
230
1.0
0
ARC
5
1B2
330
70
100
AcDbEntity
67
0
8
IV_OUTER_PROFILE
62
256
6
ByLayer
370
-1
48
1.0
60
0
100
AcDbCircle
39
0.0
10
153.349560926487
20
355.32324411363
30
0.0
40
2.0
210
0.0
220
0.0
230
1.0
100
AcDbArc
50
204.517338665438
51
264.260901501899
0
LINE
5
1B3
330
70
100
AcDbEntity
67
0
8
IV_OUTER_PROFILE
62
256
6
ByLayer
370
-1
48
1.0
60
0
100
AcDbLine
10
151.529889454345
20
354.493306927167
30
0.0
11
138.070952202627
21
384.002581317749
31
0.0
39
0.0
210
0.0
220
0.0
230
1.0
0
ARC
5
1B4
330
70
100
AcDbEntity
67
0
8
IV_OUTER_PROFILE
62
256
6
ByLayer
370
-1
48
1.0
60
0
100
AcDbCircle
39
0.0
10
136.251280730486
20
383.172644131286
30
0.0
40
2.0
210
0.0
220
0.0
230
1.0
100
AcDbArc
50
24.5173386654379
51
84.2609015019148
0
LINE
5
1B5
330
70
100
AcDbEntity
67
0
8
IV_OUTER_PROFILE
62
256
6
ByLayer
370
-1
48
1.0
60
0
100
AcDbLine
10
118.837492324648
20
386.932848996037
30
0.0
11
136.451278230533
21
385.162619256753
31
0.0
39
0.0
210
0.0
220
0.0
230
1.0
0
ARC
5
1B6
330
70
100
AcDbEntity
67
0
8
IV_OUTER_PROFILE
62
256
6
ByLayer
370
-1
48
1.0
60
0
100
AcDbCircle
39
0.0
10
118.637494824602
20
384.942873870571
30
0.0
40
2.0
210
0.0
220
0.0
230
1.0
100
AcDbArc
50
84.2609015019148
51
144.004464338381
0
LINE
5
1B7
330
70
100
AcDbEntity
67
0
8
IV_OUTER_PROFILE
62
256
6
ByLayer
370
-1
48
1.0
60
0
100
AcDbLine
10
117.019369243362
20
386.11831829858
30
0.0
11
97.9574052086215
21
359.877476198094
31
0.0
39
0.0
210
0.0
220
0.0
230
1.0
0
ARC
5
1B8
330
70
100
AcDbEntity
67
0
8
IV_OUTER_PROFILE
62
256
6
ByLayer
370
-1
48
1.0
60
0
100
AcDbCircle
39
0.0
10
96.339279627382
20
361.052920626103
30
0.0
40
2.0
210
0.0
220
0.0
230
1.0
100
AcDbArc
50
264.260901501907
51
324.004464338379
0
LINE
5
1B9
330
70
100
AcDbEntity
67
0
8
IV_OUTER_PROFILE
62
256
6
ByLayer
370
-1
48
1.0
60
0
100
AcDbLine
10
96.139282127335
20
359.062945500636
30
0.0
11
93.4503096624479
21
359.33319398957
31
0.0
39
0.0
210
0.0
220
0.0
230
1.0
0
ARC
5
1BA
330
70
100
AcDbEntity
67
0
8
IV_OUTER_PROFILE
62
256
6
ByLayer
370
-1
48
1.0
60
0
100
AcDbCircle
39
0.0
10
93.6503071624952
20
361.323169115036
30
0.0
40
2.0
210
0.0
220
0.0
230
1.0
100
AcDbArc
50
204.517338665438
51
264.260901501898
0
LINE
5
1BB
330
70
100
AcDbEntity
67
0
8
IV_OUTER_PROFILE
62
256
6
ByLayer
370
-1
48
1.0
60
0
100
AcDbLine
10
91.8306356903537
20
360.493231928573
30
0.0
11
78.3716984386356
21
390.002506319156
31
0.0
39
0.0
210
0.0
220
0.0
230
1.0
0
ARC
5
1BC
330
70
100
AcDbEntity
67
0
8
IV_OUTER_PROFILE
62
256
6
ByLayer
370
-1
48
1.0
60
0
100
AcDbCircle
39
0.0
10
76.5520269664941
20
389.172569132692
30
0.0
40
2.0
210
0.0
220
0.0
230
1.0
100
AcDbArc
50
24.5173386654397
51
84.2609015019146
0
MTEXT
5
223
330
70
100
AcDbEntity
67
0
8
AutoDXF_BendInfo
62
256
6
ByLayer
370
-1
48
1.0
60
0
100
AcDbMText
10
40.2016272275611
20
209.510913680169
30
0.0
210
0.0
220
0.0
230
1.0
1
90 - UP - R2,8
40
5.0
41
0.0
44
1.0
11
0.099998750023437
21
0.994987562733198
31
0.0
71
8
72
5
73
1
7
Standard
0
ENDSEC
0
SECTION
2
OBJECTS
0
DICTIONARY
5
228
330
0
100
AcDbDictionary
280
1
281
1
3
ACAD_GROUP
350
D
3
ACAD_LAYOUT
350
62
3
ACAD_DGNDEFINITIONS
350
219
3
ACAD_DWFDEFINITIONS
350
21A
3
ACAD_PDFDEFINITIONS
350
21B
3
ACAD_MLINESTYLE
350
5F
3
ACAD_IMAGE_DICT
350
218
3
ACAD_IMAGE_VARS
350
21C
0
DICTIONARY
5
D
330
228
100
AcDbDictionary
280
1
281
1
0
DICTIONARY
5
62
330
228
100
AcDbDictionary
280
1
281
1
3
Layout1
350
6F
3
Layout2
350
77
3
Model
350
73
0
DICTIONARY
5
219
330
228
100
AcDbDictionary
280
1
281
1
0
DICTIONARY
5
21A
330
228
100
AcDbDictionary
280
1
281
1
0
DICTIONARY
5
21B
330
228
100
AcDbDictionary
280
1
281
1
0
DICTIONARY
5
5F
330
228
100
AcDbDictionary
280
1
281
1
3
STANDARD
350
60
0
DICTIONARY
5
218
330
228
100
AcDbDictionary
280
1
281
1
0
DICTIONARY
5
216
330
2
100
AcDbDictionary
280
1
281
1
3
ACAD_LAYERSTATES
360
229
0
DICTIONARY
5
229
330
216
100
AcDbDictionary
280
1
281
1
0
LAYOUT
5
6F
330
62
100
AcDbPlotSettings
1

2

4

6

40
0.0
41
0.0
42
0.0
43
0.0
44
0.0
45
0.0
46
0.0
47
0.0
48
0.0
49
0.0
140
0.0
141
0.0
142
1.0
143
1.0
70
688
72
0
73
0
74
5
7

75
16
76
0
77
2
78
300
147
1.0
148
0.0
149
0.0
100
AcDbLayout
1
Layout1
71
1
10
0.0
20
0.0
11
12.0
21
9.0
12
0.0
22
0.0
32
0.0
14
0.0
24
0.0
34
0.0
15
0.0
25
0.0
35
0.0
146
0.0
13
0.0
23
0.0
33
0.0
16
1.0
26
0.0
36
0.0
17
0.0
27
1.0
37
0.0
76
0
330
6C
0
LAYOUT
5
77
330
62
100
AcDbPlotSettings
1

2

4

6

40
0.0
41
0.0
42
0.0
43
0.0
44
0.0
45
0.0
46
0.0
47
0.0
48
0.0
49
0.0
140
0.0
141
0.0
142
1.0
143
1.0
70
688
72
0
73
0
74
5
7

75
16
76
0
77
2
78
300
147
1.0
148
0.0
149
0.0
100
AcDbLayout
1
Layout2
71
2
10
0.0
20
0.0
11
12.0
21
9.0
12
0.0
22
0.0
32
0.0
14
0.0
24
0.0
34
0.0
15
0.0
25
0.0
35
0.0
146
0.0
13
0.0
23
0.0
33
0.0
16
1.0
26
0.0
36
0.0
17
0.0
27
1.0
37
0.0
76
0
330
74
0
LAYOUT
5
73
330
62
100
AcDbPlotSettings
1

2

4

6

40
0.0
41
0.0
42
0.0
43
0.0
44
0.0
45
0.0
46
0.0
47
0.0
48
0.0
49
0.0
140
0.0
141
0.0
142
1.0
143
1.0
70
1712
72
0
73
0
74
0
7

75
0
76
0
77
2
78
300
147
1.0
148
0.0
149
0.0
100
AcDbLayout
1
Model
71
3
10
0.0
20
0.0
11
12.0
21
9.0
12
0.0
22
0.0
32
0.0
14
0.0
24
0.0
34
0.0
15
0.0
25
0.0
35
0.0
146
0.0
13
0.0
23
0.0
33
0.0
16
1.0
26
0.0
36
0.0
17
0.0
27
1.0
37
0.0
76
0
330
70
0
MLINESTYLE
5
60
330
5F
100
AcDbMlineStyle
2
STANDARD
70
0
3

62
256
51
90.0
52
90.0
71
2
49
0.5
62
256
6
ByLayer
49
-0.5
62
256
6
ByLayer
0
RASTERVARIABLES
5
21C
330
218
100
AcDbRasterVariables
90
0
70
1
71
1
72
0
0
ENDSEC
0
EOF
