999
autodxfXMIN:9,99999994E-08
999
autodxfXMAX:2021,201990766266
999
autodxfYMIN:0,2304134161343541
999
autodxfYMAX:369,2304134161355
0
SECTION
2
HEADER
9
$ACADVER
1
AC1015
9
$DWGCODEPAGE
3
ANSI_1251
9
$HANDSEED
5
22A
9
$ANGBASE
50
0.0
9
$ANGDIR
70
0
9
$ATTMODE
70
1
9
$AUNITS
70
0
9
$AUPREC
70
0
9
$CECOLOR
62
256
9
$CELTSCALE
40
1.0
9
$CELTYPE
6
ByLayer
9
$CELWEIGHT
370
-1
9
$CLAYER
8
0
9
$CMLJUST
70
0
9
$CMLSCALE
40
1.0
9
$CMLSTYLE
2
Standard
9
$DIMSTYLE
2
Standard
9
$TEXTSIZE
40
0.2
9
$TEXTSTYLE
7
Standard
9
$LUNITS
70
2
9
$LUPREC
70
4
9
$MIRRTEXT
70
0
9
$EXTNAMES
290
1
9
$INSBASE
10
0.0
20
0.0
30
0.0
9
$INSUNITS
70
4
9
$LTSCALE
40
1.0
9
$LWDISPLAY
290
0
9
$PDMODE
70
0
9
$PDSIZE
40
0.0
9
$PLINEGEN
70
0
9
$PSLTSCALE
70
1
9
$SPLINESEGS
70
6
9
$SURFU
70
6
9
$SURFV
70
6
9
$TDCREATE
40
2460584.51194443
9
$TDUCREATE
40
2460584.38694443
9
$TDUPDATE
40
2460584.51194443
9
$TDUUPDATE
40
2460584.38694443
9
$TDINDWG
40
0.0000115740740741
9
$UCSORG
10
0.0
20
0.0
30
0.0
9
$UCSXDIR
10
1.0
20
0.0
30
0.0
9
$UCSYDIR
10
0.0
20
1.0
30
0.0
9
$DIMADEC
70
0
9
$DIMALT
70
0
9
$DIMALTD
70
2
9
$DIMALTF
40
25.4
9
$DIMALTRND
40
0.0
9
$DIMALTTD
70
2
9
$DIMALTTZ
70
0
9
$DIMALTU
70
2
9
$DIMALTZ
70
0
9
$DIMAPOST
1

9
$DIMATFIT
70
3
9
$DIMAUNIT
70
0
9
$DIMASZ
40
0.18
9
$DIMAZIN
70
3
9
$DIMSAH
70
0
9
$DIMBLK
1

9
$DIMLDRBLK
1

9
$DIMCEN
40
0.09
9
$DIMCLRD
70
0
9
$DIMCLRE
70
0
9
$DIMCLRT
70
0
9
$DIMDEC
70
4
9
$DIMDLE
40
0.0
9
$DIMDLI
40
0.38
9
$DIMDSEP
70
46
9
$DIMEXE
40
0.18
9
$DIMEXO
40
0.0625
9
$DIMFXLON
70
0
9
$DIMFXL
40
1.0
9
$DIMGAP
40
0.09
9
$DIMJUST
70
0
9
$DIMLFAC
40
1.0
9
$DIMLUNIT
70
2
9
$DIMLWD
70
-2
9
$DIMLWE
70
-2
9
$DIMPOST
1

9
$DIMRND
40
0.0
9
$DIMSCALE
40
1.0
9
$DIMSD1
70
0
9
$DIMSD2
70
0
9
$DIMSE1
70
0
9
$DIMSE2
70
0
9
$DIMSOXD
70
0
9
$DIMTAD
70
0
9
$DIMTDEC
70
4
9
$DIMTFAC
40
1.0
9
$DIMTIH
70
0
9
$DIMTIX
70
0
9
$DIMTM
40
0.0
9
$DIMTMOVE
70
0
9
$DIMTOFL
70
0
9
$DIMTOH
70
0
9
$DIMTOL
70
0
9
$DIMLIM
70
0
9
$DIMTOLJ
70
1
9
$DIMTP
40
0.0
9
$DIMTXT
40
0.18
9
$DIMTXTDIRECTION
70
0
9
$DIMTZIN
70
0
9
$DIMZIN
70
0
9
$DIMFRAC
70
0
9
$DIMLTYPE
6
ByBlock
9
$DIMLTEX1
6
ByBlock
9
$DIMLTEX2
6
ByBlock
9
$EXTMIN
10
0.0
20
0.0
30
0.0
9
$EXTMAX
10
2021.20199066627
20
369.230413416135
30
0.0
9
$LIMMIN
10
0.0
20
0.0
9
$LIMMAX
10
2021.20199066627
20
369.230413416135
9
$ORTHOMODE
70
0
9
$REGENMODE
70
1
9
$FILLMODE
70
1
9
$QTEXTMODE
70
0
9
$TRACEWID
40
0.05
9
$DISPSILH
70
0
9
$SKETCHINC
40
0.1
9
$FILLETRAD
40
0.0
9
$MENU
1
.
9
$ELEVATION
40
0.0
9
$PELEVATION
40
0.0
9
$THICKNESS
40
0.0
9
$LIMCHECK
70
0
9
$CHAMFERA
40
0.0
9
$CHAMFERB
40
0.0
9
$CHAMFERC
40
0.0
9
$CHAMFERD
40
0.0
9
$SKPOLY
70
0
9
$TDUSRTIMER
40
0.0000115741
9
$USRTIMER
70
1
9
$PLINEWID
40
0.0
9
$SPLFRAME
70
0
9
$SPLINETYPE
70
6
9
$SURFTAB1
70
6
9
$SURFTAB2
70
6
9
$SURFTYPE
70
6
9
$UCSBASE
2

9
$UCSNAME
2

9
$UCSORTHOREF
2

9
$UCSORTHOVIEW
70
0
9
$UCSORGTOP
10
0.0
20
0.0
30
0.0
9
$UCSORGBOTTOM
10
0.0
20
0.0
30
0.0
9
$UCSORGLEFT
10
0.0
20
0.0
30
0.0
9
$UCSORGRIGHT
10
0.0
20
0.0
30
0.0
9
$UCSORGFRONT
10
0.0
20
0.0
30
0.0
9
$UCSORGBACK
10
0.0
20
0.0
30
0.0
9
$PUCSBASE
2

9
$PUCSNAME
2

9
$PUCSORG
10
0.0
20
0.0
30
0.0
9
$PUCSXDIR
10
1.0
20
0.0
30
0.0
9
$PUCSYDIR
10
0.0
20
1.0
30
0.0
9
$PUCSORTHOREF
2

9
$PUCSORTHOVIEW
70
0
9
$PUCSORGTOP
10
0.0
20
0.0
30
0.0
9
$PUCSORGBOTTOM
10
0.0
20
0.0
30
0.0
9
$PUCSORGLEFT
10
0.0
20
0.0
30
0.0
9
$PUCSORGRIGHT
10
0.0
20
0.0
30
0.0
9
$PUCSORGFRONT
10
0.0
20
0.0
30
0.0
9
$PUCSORGBACK
10
0.0
20
0.0
30
0.0
9
$USERI1
70
0
9
$USERI2
70
0
9
$USERI3
70
0
9
$USERI4
70
0
9
$USERI5
70
0
9
$USERR1
40
0.0
9
$USERR2
40
0.0
9
$USERR3
40
0.0
9
$USERR4
40
0.0
9
$USERR5
40
0.0
9
$WORLDVIEW
70
1
9
$SHADEDGE
70
3
9
$SHADEDIF
70
70
9
$TILEMODE
70
1
9
$MAXACTVP
70
64
9
$PINSBASE
10
0.0
20
0.0
30
0.0
9
$PLIMCHECK
70
0
9
$PEXTMIN
10
0.0
20
0.0
30
0.0
9
$PEXTMAX
10
2021.20199066627
20
369.230413416135
30
0.0
9
$PLIMMIN
10
0.0
20
0.0
9
$PLIMMAX
10
2021.20199066627
20
369.230413416135
9
$UNITMODE
70
0
9
$VISRETAIN
70
1
9
$TREEDEPTH
70
3020
9
$PROXYGRAPHICS
70
1
9
$MEASUREMENT
70
1
9
$ENDCAPS
280
0
9
$JOINSTYLE
280
0
9
$HYPERLINKBASE
1

9
$STYLESHEET
1

9
$XEDIT
290
1
9
$CEPSNTYPE
380
0
9
$PSTYLEMODE
290
1
9
$FINGERPRINTGUID
2
{6FB8F35C-2A1D-5E4E-9513-5D1B962AA94D}
9
$VERSIONGUID
2
{204F8799-58C7-4C41-B38B-A252DA9835EC}
9
$PSVPSCALE
40
0.0
9
$OLESTARTUP
290
0
0
ENDSEC
0
SECTION
2
CLASSES
0
CLASS
1
RASTERVARIABLES
2
AcDbRasterVariables
3
ISM
90
0
280
0
281
0
0
ENDSEC
0
SECTION
2
TABLES
0
TABLE
2
APPID
5
9
330
0
100
AcDbSymbolTable
70
7
0
APPID
5
56
330
9
100
AcDbSymbolTableRecord
100
AcDbRegAppTableRecord
2
ACAD
70
0
0
APPID
5
5E
330
9
100
AcDbSymbolTableRecord
100
AcDbRegAppTableRecord
2
AcadAnnotative
70
0
0
APPID
5
204
330
9
100
AcDbSymbolTableRecord
100
AcDbRegAppTableRecord
2
ACAD_MLEADERVER
70
0
0
APPID
5
224
330
9
100
AcDbSymbolTableRecord
100
AcDbRegAppTableRecord
2
AcCmTransparency
70
0
0
APPID
5
225
330
9
100
AcDbSymbolTableRecord
100
AcDbRegAppTableRecord
2
AcAecLayerStandard
70
0
0
APPID
5
226
330
9
100
AcDbSymbolTableRecord
100
AcDbRegAppTableRecord
2
GradientColor1ACI
70
0
0
APPID
5
227
330
9
100
AcDbSymbolTableRecord
100
AcDbRegAppTableRecord
2
GradientColor2ACI
70
0
0
ENDTAB
0
TABLE
2
VPORT
5
8
330
0
100
AcDbSymbolTable
70
1
0
VPORT
5
215
330
8
100
AcDbSymbolTableRecord
100
AcDbViewportTableRecord
2
*Active
70
0
10
0.0
20
0.0
11
1.0
21
1.0
12
1010.60099543313
22
184.730413416135
13
0.0
23
0.0
14
0.5
24
0.5
15
10.0
25
10.0
16
0.0
26
0.0
36
1.0
17
0.0
27
0.0
37
0.0
40
2223.32
41
1.0
75
0
76
1
0
ENDTAB
0
TABLE
2
LTYPE
5
5
330
0
100
AcDbSymbolTable
70
48
0
LTYPE
5
5B
330
5
100
AcDbSymbolTableRecord
100
AcDbLinetypeTableRecord
2
ByBlock
70
0
3

72
65
73
0
40
0.0
0
LTYPE
5
5C
330
5
100
AcDbSymbolTableRecord
100
AcDbLinetypeTableRecord
2
ByLayer
70
0
3

72
65
73
0
40
0.0
0
LTYPE
5
5D
330
5
100
AcDbSymbolTableRecord
100
AcDbLinetypeTableRecord
2
Continuous
70
0
3
Solid line
72
65
73
0
40
0.0
0
LTYPE
5
78
330
5
100
AcDbSymbolTableRecord
100
AcDbLinetypeTableRecord
2
BORDER
70
0
3
Border __ __ . __ __ . __ __ . __ __ . __ __ .
72
65
73
6
40
1.75
49
0.5
74
0
49
-0.25
74
0
49
0.5
74
0
49
-0.25
74
0
49
0.0
74
0
49
-0.25
74
0
0
LTYPE
5
79
330
5
100
AcDbSymbolTableRecord
100
AcDbLinetypeTableRecord
2
BORDER2
70
0
3
Border (.5x) __.__.__.__.__.__.__.__.__.__.__.
72
65
73
6
40
0.875
49
0.25
74
0
49
-0.125
74
0
49
0.25
74
0
49
-0.125
74
0
49
0.0
74
0
49
-0.125
74
0
0
LTYPE
5
7A
330
5
100
AcDbSymbolTableRecord
100
AcDbLinetypeTableRecord
2
BORDERX2
70
0
3
Border (2x) ____  ____  .  ____  ____  .  ___
72
65
73
6
40
3.5
49
1.0
74
0
49
-0.5
74
0
49
1.0
74
0
49
-0.5
74
0
49
0.0
74
0
49
-0.5
74
0
0
LTYPE
5
7B
330
5
100
AcDbSymbolTableRecord
100
AcDbLinetypeTableRecord
2
CENTER
70
0
3
Center ____ _ ____ _ ____ _ ____ _ ____ _ ____
72
65
73
4
40
2.0
49
1.25
74
0
49
-0.25
74
0
49
0.25
74
0
49
-0.25
74
0
0
LTYPE
5
7C
330
5
100
AcDbSymbolTableRecord
100
AcDbLinetypeTableRecord
2
CENTER2
70
0
3
Center (.5x) ___ _ ___ _ ___ _ ___ _ ___ _ ___
72
65
73
4
40
1.125
49
0.75
74
0
49
-0.125
74
0
49
0.125
74
0
49
-0.125
74
0
0
LTYPE
5
7D
330
5
100
AcDbSymbolTableRecord
100
AcDbLinetypeTableRecord
2
CENTERX2
70
0
3
Center (2x) ________  __  ________  __  _____
72
65
73
4
40
4.0
49
2.5
74
0
49
-0.5
74
0
49
0.5
74
0
49
-0.5
74
0
0
LTYPE
5
7E
330
5
100
AcDbSymbolTableRecord
100
AcDbLinetypeTableRecord
2
DASHDOT
70
0
3
Dash dot __ . __ . __ . __ . __ . __ . __ . __
72
65
73
4
40
1.0
49
0.5
74
0
49
-0.25
74
0
49
0.0
74
0
49
-0.25
74
0
0
LTYPE
5
7F
330
5
100
AcDbSymbolTableRecord
100
AcDbLinetypeTableRecord
2
DASHDOT2
70
0
3
Dash dot (.5x) _._._._._._._._._._._._._._._.
72
65
73
4
40
0.5
49
0.25
74
0
49
-0.125
74
0
49
0.0
74
0
49
-0.125
74
0
0
LTYPE
5
80
330
5
100
AcDbSymbolTableRecord
100
AcDbLinetypeTableRecord
2
DASHDOTX2
70
0
3
Dash dot (2x) ____  .  ____  .  ____  .  ___
72
65
73
4
40
2.0
49
1.0
74
0
49
-0.5
74
0
49
0.0
74
0
49
-0.5
74
0
0
LTYPE
5
81
330
5
100
AcDbSymbolTableRecord
100
AcDbLinetypeTableRecord
2
DASHED
70
0
3
Dashed __ __ __ __ __ __ __ __ __ __ __ __ __ _
72
65
73
2
40
0.75
49
0.5
74
0
49
-0.25
74
0
0
LTYPE
5
82
330
5
100
AcDbSymbolTableRecord
100
AcDbLinetypeTableRecord
2
DASHED2
70
0
3
Dashed (.5x) _ _ _ _ _ _ _ _ _ _ _ _ _ _ _ _ _
72
65
73
2
40
0.375
49
0.25
74
0
49
-0.125
74
0
0
LTYPE
5
83
330
5
100
AcDbSymbolTableRecord
100
AcDbLinetypeTableRecord
2
DASHEDX2
70
0
3
Dashed (2x) ____  ____  ____  ____  ____  ___
72
65
73
2
40
1.5
49
1.0
74
0
49
-0.5
74
0
0
LTYPE
5
84
330
5
100
AcDbSymbolTableRecord
100
AcDbLinetypeTableRecord
2
DIVIDE
70
0
3
Divide ____ . . ____ . . ____ . . ____ . . ____
72
65
73
6
40
1.25
49
0.5
74
0
49
-0.25
74
0
49
0.0
74
0
49
-0.25
74
0
49
0.0
74
0
49
-0.25
74
0
0
LTYPE
5
85
330
5
100
AcDbSymbolTableRecord
100
AcDbLinetypeTableRecord
2
DIVIDE2
70
0
3
Divide (.5x) __..__..__..__..__..__..__..__.._
72
65
73
6
40
0.625
49
0.25
74
0
49
-0.125
74
0
49
0.0
74
0
49
-0.125
74
0
49
0.0
74
0
49
-0.125
74
0
0
LTYPE
5
86
330
5
100
AcDbSymbolTableRecord
100
AcDbLinetypeTableRecord
2
DIVIDEX2
70
0
3
Divide (2x) ________  .  .  ________  .  .  _
72
65
73
6
40
2.5
49
1.0
74
0
49
-0.5
74
0
49
0.0
74
0
49
-0.5
74
0
49
0.0
74
0
49
-0.5
74
0
0
LTYPE
5
87
330
5
100
AcDbSymbolTableRecord
100
AcDbLinetypeTableRecord
2
DOT
70
0
3
Dot . . . . . . . . . . . . . . . . . . . . . .
72
65
73
2
40
0.25
49
0.0
74
0
49
-0.25
74
0
0
LTYPE
5
88
330
5
100
AcDbSymbolTableRecord
100
AcDbLinetypeTableRecord
2
DOT2
70
0
3
Dot (.5x) .....................................
72
65
73
2
40
0.125
49
0.0
74
0
49
-0.125
74
0
0
LTYPE
5
89
330
5
100
AcDbSymbolTableRecord
100
AcDbLinetypeTableRecord
2
DOTX2
70
0
3
Dot (2x) .  .  .  .  .  .  .  .  .  .  .  .  . 
72
65
73
2
40
0.5
49
0.0
74
0
49
-0.5
74
0
0
LTYPE
5
8A
330
5
100
AcDbSymbolTableRecord
100
AcDbLinetypeTableRecord
2
HIDDEN
70
0
3
Hidden __ __ __ __ __ __ __ __ __ __ __ __ __ _
72
65
73
2
40
0.375
49
0.25
74
0
49
-0.125
74
0
0
LTYPE
5
8B
330
5
100
AcDbSymbolTableRecord
100
AcDbLinetypeTableRecord
2
HIDDEN2
70
0
3
Hidden (.5x) _ _ _ _ _ _ _ _ _ _ _ _ _ _ _ _ _
72
65
73
2
40
0.1875
49
0.125
74
0
49
-0.0625
74
0
0
LTYPE
5
8C
330
5
100
AcDbSymbolTableRecord
100
AcDbLinetypeTableRecord
2
HIDDENX2
70
0
3
Hidden (2x) ____ ____ ____ ____ ____ ____ ____
72
65
73
2
40
0.75
49
0.5
74
0
49
-0.25
74
0
0
LTYPE
5
8D
330
5
100
AcDbSymbolTableRecord
100
AcDbLinetypeTableRecord
2
PHANTOM
70
0
3
Phantom ______  __  __  ______  __  __  ______
72
65
73
6
40
2.5
49
1.25
74
0
49
-0.25
74
0
49
0.25
74
0
49
-0.25
74
0
49
0.25
74
0
49
-0.25
74
0
0
LTYPE
5
8E
330
5
100
AcDbSymbolTableRecord
100
AcDbLinetypeTableRecord
2
PHANTOM2
70
0
3
Phantom (.5x) ___ _ _ ___ _ _ ___ _ _ ___ _ _
72
65
73
6
40
1.25
49
0.625
74
0
49
-0.125
74
0
49
0.125
74
0
49
-0.125
74
0
49
0.125
74
0
49
-0.125
74
0
0
LTYPE
5
8F
330
5
100
AcDbSymbolTableRecord
100
AcDbLinetypeTableRecord
2
PHANTOMX2
70
0
3
Phantom (2x) ____________    ____    ____   _
72
65
73
6
40
5.0
49
2.5
74
0
49
-0.5
74
0
49
0.5
74
0
49
-0.5
74
0
49
0.5
74
0
49
-0.5
74
0
0
LTYPE
5
90
330
5
100
AcDbSymbolTableRecord
100
AcDbLinetypeTableRecord
2
ACAD_ISO02W100
70
0
3
ISO dash __ __ __ __ __ __ __ __ __ __ __ __ __
72
65
73
2
40
15.0
49
12.0
74
0
49
-3.0
74
0
0
LTYPE
5
91
330
5
100
AcDbSymbolTableRecord
100
AcDbLinetypeTableRecord
2
ACAD_ISO03W100
70
0
3
ISO dash space __    __    __    __    __    __
72
65
73
2
40
30.0
49
12.0
74
0
49
-18.0
74
0
0
LTYPE
5
92
330
5
100
AcDbSymbolTableRecord
100
AcDbLinetypeTableRecord
2
ACAD_ISO04W100
70
0
3
ISO long-dash dot ____ . ____ . ____ . ____ . _
72
65
73
4
40
30.0
49
24.0
74
0
49
-3.0
74
0
49
0.0
74
0
49
-3.0
74
0
0
LTYPE
5
93
330
5
100
AcDbSymbolTableRecord
100
AcDbLinetypeTableRecord
2
ACAD_ISO05W100
70
0
3
ISO long-dash double-dot ____ .. ____ .. ____ .
72
65
73
6
40
33.0
49
24.0
74
0
49
-3.0
74
0
49
0.0
74
0
49
-3.0
74
0
49
0.0
74
0
49
-3.0
74
0
0
LTYPE
5
94
330
5
100
AcDbSymbolTableRecord
100
AcDbLinetypeTableRecord
2
ACAD_ISO06W100
70
0
3
ISO long-dash triple-dot ____ ... ____ ... ____
72
65
73
8
40
36.0
49
24.0
74
0
49
-3.0
74
0
49
0.0
74
0
49
-3.0
74
0
49
0.0
74
0
49
-3.0
74
0
49
0.0
74
0
49
-3.0
74
0
0
LTYPE
5
95
330
5
100
AcDbSymbolTableRecord
100
AcDbLinetypeTableRecord
2
ACAD_ISO07W100
70
0
3
ISO dot . . . . . . . . . . . . . . . . . . . .
72
65
73
2
40
3.0
49
0.0
74
0
49
-3.0
74
0
0
LTYPE
5
96
330
5
100
AcDbSymbolTableRecord
100
AcDbLinetypeTableRecord
2
ACAD_ISO08W100
70
0
3
ISO long-dash short-dash ____ __ ____ __ ____ _
72
65
73
4
40
36.0
49
24.0
74
0
49
-3.0
74
0
49
6.0
74
0
49
-3.0
74
0
0
LTYPE
5
97
330
5
100
AcDbSymbolTableRecord
100
AcDbLinetypeTableRecord
2
ACAD_ISO09W100
70
0
3
ISO long-dash double-short-dash ____ __ __ ____
72
65
73
6
40
45.0
49
24.0
74
0
49
-3.0
74
0
49
6.0
74
0
49
-3.0
74
0
49
6.0
74
0
49
-3.0
74
0
0
LTYPE
5
98
330
5
100
AcDbSymbolTableRecord
100
AcDbLinetypeTableRecord
2
ACAD_ISO10W100
70
0
3
ISO dash dot __ . __ . __ . __ . __ . __ . __ .
72
65
73
4
40
18.0
49
12.0
74
0
49
-3.0
74
0
49
0.0
74
0
49
-3.0
74
0
0
LTYPE
5
99
330
5
100
AcDbSymbolTableRecord
100
AcDbLinetypeTableRecord
2
ACAD_ISO11W100
70
0
3
ISO double-dash dot __ __ . __ __ . __ __ . __ 
72
65
73
6
40
33.0
49
12.0
74
0
49
-3.0
74
0
49
12.0
74
0
49
-3.0
74
0
49
0.0
74
0
49
-3.0
74
0
0
LTYPE
5
9A
330
5
100
AcDbSymbolTableRecord
100
AcDbLinetypeTableRecord
2
ACAD_ISO12W100
70
0
3
ISO dash double-dot __ . . __ . . __ . . __ . .
72
65
73
6
40
21.0
49
12.0
74
0
49
-3.0
74
0
49
0.0
74
0
49
-3.0
74
0
49
0.0
74
0
49
-3.0
74
0
0
LTYPE
5
9B
330
5
100
AcDbSymbolTableRecord
100
AcDbLinetypeTableRecord
2
ACAD_ISO13W100
70
0
3
ISO double-dash double-dot __ __ . . __ __ . . 
72
65
73
8
40
36.0
49
12.0
74
0
49
-3.0
74
0
49
12.0
74
0
49
-3.0
74
0
49
0.0
74
0
49
-3.0
74
0
49
0.0
74
0
49
-3.0
74
0
0
LTYPE
5
9C
330
5
100
AcDbSymbolTableRecord
100
AcDbLinetypeTableRecord
2
ACAD_ISO14W100
70
0
3
ISO dash triple-dot __ . . . __ . . . __ . . . 
72
65
73
8
40
24.0
49
12.0
74
0
49
-3.0
74
0
49
0.0
74
0
49
-3.0
74
0
49
0.0
74
0
49
-3.0
74
0
49
0.0
74
0
49
-3.0
74
0
0
LTYPE
5
9D
330
5
100
AcDbSymbolTableRecord
100
AcDbLinetypeTableRecord
2
ACAD_ISO15W100
70
0
3
ISO double-dash triple-dot __ __ . . . __ __ . 
72
65
73
10
40
39.0
49
12.0
74
0
49
-3.0
74
0
49
12.0
74
0
49
-3.0
74
0
49
0.0
74
0
49
-3.0
74
0
49
0.0
74
0
49
-3.0
74
0
49
0.0
74
0
49
-3.0
74
0
0
LTYPE
5
A0
330
5
100
AcDbSymbolTableRecord
100
AcDbLinetypeTableRecord
2
FENCELINE1
70
0
3
Fenceline circle ----0-----0----0-----0----0---
72
65
73
3
40
1.35
49
0.25
74
0
49
-0.1
74
0
49
1.0
74
0
0
LTYPE
5
A1
330
5
100
AcDbSymbolTableRecord
100
AcDbLinetypeTableRecord
2
FENCELINE2
70
0
3
Fenceline square ----[]-----[]----[]-----[]----
72
65
73
3
40
1.35
49
0.25
74
0
49
-0.1
74
0
49
1.0
74
0
0
LTYPE
5
A2
330
5
100
AcDbSymbolTableRecord
100
AcDbLinetypeTableRecord
2
TRACKS
70
0
3
Tracks -|-|-|-|-|-|-|-|-|-|-|-|-|-|-|-|-|-|-|-|
72
65
73
1
40
0.15
49
0.15
74
0
0
LTYPE
5
A3
330
5
100
AcDbSymbolTableRecord
100
AcDbLinetypeTableRecord
2
BATTING
70
0
3
Batting SSSSSSSSSSSSSSSSSSSSSSSSSSSSSSSSSSSSSSS
72
65
73
2
40
0.1001
49
0.0001
74
0
49
-0.1
74
0
0
LTYPE
5
A4
330
5
100
AcDbSymbolTableRecord
100
AcDbLinetypeTableRecord
2
HOT_WATER_SUPPLY
70
0
3
Hot water supply ---- HW ---- HW ---- HW ----
72
65
73
3
40
0.9
49
0.5
74
0
49
-0.2
74
2
75
0
340
55
46
0.1
50
0.0
44
-0.1
45
-0.05
9
HW
49
-0.2
74
0
0
LTYPE
5
A5
330
5
100
AcDbSymbolTableRecord
100
AcDbLinetypeTableRecord
2
GAS_LINE
70
0
3
Gas line ----GAS----GAS----GAS----GAS----GAS---
72
65
73
3
40
0.95
49
0.5
74
0
49
-0.2
74
2
75
0
340
55
46
0.1
50
0.0
44
-0.1
45
-0.05
9
GAS
49
-0.25
74
0
0
LTYPE
5
A6
330
5
100
AcDbSymbolTableRecord
100
AcDbLinetypeTableRecord
2
ZIGZAG
70
0
3
Zig zag /\/\/\/\/\/\/\/\/\/\/\/\/\/\/\/\/\/\/\/
72
65
73
2
40
0.2001
49
0.0001
74
0
49
-0.2
74
0
0
ENDTAB
0
TABLE
2
LAYER
5
2
102
{ACAD_XDICTIONARY
360
216
102
}
330
0
100
AcDbSymbolTable
70
6
0
LAYER
5
54
330
2
100
AcDbSymbolTableRecord
100
AcDbLayerTableRecord
2
0
70
0
62
7
6
Continuous
290
1
370
-3
390
0
0
LAYER
5
A7
330
2
100
AcDbSymbolTableRecord
100
AcDbLayerTableRecord
2
IV_INTERIOR_PROFILES
70
0
62
7
6
Continuous
290
1
370
50
390
0
0
LAYER
5
A8
330
2
100
AcDbSymbolTableRecord
100
AcDbLayerTableRecord
2
IV_OUTER_PROFILE
70
0
62
7
6
Continuous
290
1
370
50
390
0
0
LAYER
5
220
330
2
100
AcDbSymbolTableRecord
100
AcDbLayerTableRecord
2
AutoDXF_BendInfo
70
0
62
-3
6
Continuous
290
1
370
-3
390
0
0
LAYER
5
221
330
2
100
AcDbSymbolTableRecord
100
AcDbLayerTableRecord
2
IV_BEND
70
0
62
250
6
Continuous
290
1
370
50
390
0
0
LAYER
5
222
330
2
100
AcDbSymbolTableRecord
100
AcDbLayerTableRecord
2
IV_BEND_DOWN
70
0
62
250
6
Continuous
290
1
370
50
390
0
0
ENDTAB
0
TABLE
2
STYLE
5
3
330
0
100
AcDbSymbolTable
70
2
0
STYLE
5
55
330
3
100
AcDbSymbolTableRecord
100
AcDbTextStyleTableRecord
2
Standard
3
txt.SHX
70
0
71
0
40
0.0
41
1.0
42
0.0
50
0.0
0
STYLE
5
5A
330
3
100
AcDbSymbolTableRecord
100
AcDbTextStyleTableRecord
2
Annotative
3
txt.SHX
70
0
71
0
40
0.0
41
1.0
42
0.0
50
0.0
1001
AcadAnnotative
1000
AnnotativeData
1002
{
1070
1
1070
1
1002
}
0
STYLE
5
9F
330
217
100
AcDbSymbolTableRecord
100
AcDbTextStyleTableRecord
2

3
ltypeshp.shx
70
1
40
0.0
41
1.0
42
0.0
50
0.0
0
ENDTAB
0
TABLE
2
DIMSTYLE
5
A
330
0
100
AcDbSymbolTable
70
2
100
AcDbDimStyleTable
0
DIMSTYLE
105
58
330
A
100
AcDbSymbolTableRecord
100
AcDbDimStyleTableRecord
2
Standard
3

4

40
1.0
41
0.18
42
0.0625
43
0.38
44
0.18
45
0.0
46
0.0
47
0.0
48
0.0
49
1.0
70
0
71
0
72
0
73
0
74
0
75
0
76
0
77
0
78
0
79
3
140
0.18
141
0.09
143
25.4
144
1.0
146
1.0
147
0.09
148
0.0
170
0
171
2
172
0
174
0
175
0
176
0
177
0
178
0
179
0
271
4
272
4
273
2
274
2
275
0
276
0
277
2
278
46
279
0
280
0
281
0
282
0
283
1
284
0
285
0
286
0
289
3
290
0
294
0
340
55
173
0
345
5B
346
5B
347
5B
371
-2
372
-2
0
DIMSTYLE
105
59
330
A
100
AcDbSymbolTableRecord
100
AcDbDimStyleTableRecord
2
Annotative
3

4

40
1.0
41
0.18
42
0.0625
43
0.38
44
0.18
45
0.0
46
0.0
47
0.0
48
0.0
49
1.0
70
0
71
0
72
0
73
0
74
0
75
0
76
0
77
0
78
0
79
3
140
0.18
141
0.09
143
25.4
144
1.0
146
1.0
147
0.09
148
0.0
170
0
171
2
172
0
174
0
175
0
176
0
177
0
178
0
179
0
271
4
272
4
273
2
274
2
275
0
276
0
277
2
278
46
279
0
280
0
281
0
282
0
283
1
284
0
285
0
286
0
289
3
290
0
294
0
340
55
173
0
345
5B
346
5B
347
5B
371
-2
372
-2
1001
AcadAnnotative
1000
AnnotativeData
1002
{
1070
1
1070
1
1002
}
0
ENDTAB
0
TABLE
2
VIEW
5
6
330
0
100
AcDbSymbolTable
70
0
0
ENDTAB
0
TABLE
2
UCS
5
7
330
0
100
AcDbSymbolTable
70
0
0
ENDTAB
0
TABLE
2
BLOCK_RECORD
5
1
330
0
100
AcDbSymbolTable
70
3
0
BLOCK_RECORD
5
70
330
1
100
AcDbSymbolTableRecord
100
AcDbBlockTableRecord
2
*Model_Space
340
73
0
BLOCK_RECORD
5
6C
330
1
100
AcDbSymbolTableRecord
100
AcDbBlockTableRecord
2
*Paper_Space
340
6F
0
BLOCK_RECORD
5
74
330
1
100
AcDbSymbolTableRecord
100
AcDbBlockTableRecord
2
*Paper_Space0
340
77
0
ENDTAB
0
ENDSEC
0
SECTION
2
BLOCKS
0
BLOCK
5
71
330
70
100
AcDbEntity
67
0
8
0
100
AcDbBlockBegin
2
*Model_Space
70
0
10
0.0
20
0.0
30
0.0
3
*Model_Space
4

0
ENDBLK
5
72
330
70
100
AcDbEntity
8
0
100
AcDbBlockEnd
0
BLOCK
5
6D
330
6C
100
AcDbEntity
67
1
8
0
100
AcDbBlockBegin
2
*Paper_Space
70
0
10
0.0
20
0.0
30
0.0
3
*Paper_Space
4

0
ENDBLK
5
6E
330
6C
100
AcDbEntity
8
0
100
AcDbBlockEnd
0
BLOCK
5
75
330
74
100
AcDbEntity
67
1
8
0
100
AcDbBlockBegin
2
*Paper_Space0
70
0
10
0.0
20
0.0
30
0.0
3
*Paper_Space0
4

0
VIEWPORT
5
21E
330
74
100
AcDbEntity
67
1
8
0
62
256
6
ByLayer
370
-1
48
1.0
60
0
100
AcDbViewport
10
0.0
20
0.0
30
0.0
40
297.0
41
210.0
68
1
69
1
12
50.0
22
100.0
13
0.0
23
0.0
14
10.0
24
10.0
15
10.0
25
10.0
16
0.0
26
0.0
36
1.0
17
0.0
27
0.0
37
0.0
42
50.0
43
0.0
44
0.0
45
250.0
50
0.0
51
0.0
72
1000
90
819232
110
0.0
120
0.0
130
0.0
111
1.0
121
0.0
131
0.0
112
0.0
122
1.0
132
0.0
0
ENDBLK
5
76
330
74
100
AcDbEntity
8
0
100
AcDbBlockEnd
0
ENDSEC
0
SECTION
2
ENTITIES
0
VIEWPORT
5
21D
330
6C
100
AcDbEntity
67
1
8
0
62
256
6
ByLayer
370
-1
48
1.0
60
0
100
AcDbViewport
10
0.0
20
0.0
30
0.0
40
297.0
41
210.0
68
1
69
1
12
50.0
22
100.0
13
0.0
23
0.0
14
10.0
24
10.0
15
10.0
25
10.0
16
0.0
26
0.0
36
1.0
17
0.0
27
0.0
37
0.0
42
50.0
43
0.0
44
0.0
45
250.0
50
0.0
51
0.0
72
1000
90
819232
110
0.0
120
0.0
130
0.0
111
1.0
121
0.0
131
0.0
112
0.0
122
1.0
132
0.0
0
LINE
5
AA
330
70
100
AcDbEntity
67
0
8
IV_BEND
62
256
6
ByLayer
370
-1
48
1.0
60
0
100
AcDbLine
10
23.1009954331327
20
0.23041341613542
30
0.0
11
23.1009954331327
21
369.022627840261
31
0.0
39
0.0
210
0.0
220
0.0
230
1.0
0
CIRCLE
5
AC
330
70
100
AcDbEntity
67
0
8
IV_INTERIOR_PROFILES
62
256
6
ByLayer
370
-1
48
1.0
60
0
100
AcDbCircle
10
10.0000000999974
20
320.22904115535
30
0.0
40
2.55
39
0.0
210
0.0
220
0.0
230
1.0
0
CIRCLE
5
AD
330
70
100
AcDbEntity
67
0
8
IV_INTERIOR_PROFILES
62
256
6
ByLayer
370
-1
48
1.0
60
0
100
AcDbCircle
10
10.0000000999974
20
200.229041155477
30
0.0
40
2.55
39
0.0
210
0.0
220
0.0
230
1.0
0
CIRCLE
5
AE
330
70
100
AcDbEntity
67
0
8
IV_INTERIOR_PROFILES
62
256
6
ByLayer
370
-1
48
1.0
60
0
100
AcDbCircle
10
10.0000000999974
20
80.2290411556046
30
0.0
40
2.55
39
0.0
210
0.0
220
0.0
230
1.0
0
LINE
5
AF
330
70
100
AcDbEntity
67
0
8
IV_OUTER_PROFILE
62
256
6
ByLayer
370
-1
48
1.0
60
0
100
AcDbLine
10
0.0000000999999994
20
0.23041341613542
30
0.0
11
40.053250101357
21
0.23041341613542
31
0.0
39
0.0
210
0.0
220
0.0
230
1.0
0
LINE
5
B0
330
70
100
AcDbEntity
67
0
8
IV_OUTER_PROFILE
62
256
6
ByLayer
370
-1
48
1.0
60
0
100
AcDbLine
10
25.9519907662655
20
368.814842264387
30
0.0
11
20.2500001000001
21
369.230413416135
31
0.0
39
0.0
210
0.0
220
0.0
230
1.0
0
LINE
5
B1
330
70
100
AcDbEntity
67
0
8
IV_OUTER_PROFILE
62
256
6
ByLayer
370
-1
48
1.0
60
0
100
AcDbLine
10
20.2500001000001
20
369.230413416135
30
0.0
11
0.0000001000001282
21
369.230413416135
31
0.0
39
0.0
210
0.0
220
0.0
230
1.0
0
LINE
5
B2
330
70
100
AcDbEntity
67
0
8
IV_OUTER_PROFILE
62
256
6
ByLayer
370
-1
48
1.0
60
0
100
AcDbLine
10
0.0000001000001282
20
369.230413416135
30
0.0
11
0.0000000999999994
21
0.23041341613542
31
0.0
39
0.0
210
0.0
220
0.0
230
1.0
0
ARC
5
B3
330
70
100
AcDbEntity
67
0
8
IV_OUTER_PROFILE
62
256
6
ByLayer
370
-1
48
1.0
60
0
100
AcDbCircle
39
0.0
10
40.0532501013572
20
2.23041341613545
30
0.0
40
2.0
210
0.0
220
0.0
230
1.0
100
AcDbArc
50
270.0
51
329.74356283647
0
LINE
5
B4
330
70
100
AcDbEntity
67
0
8
IV_OUTER_PROFILE
62
256
6
ByLayer
370
-1
48
1.0
60
0
100
AcDbLine
10
58.1231736293769
20
29.2381554671828
30
0.0
11
41.780807903154
21
1.22267136508725
31
0.0
39
0.0
210
0.0
220
0.0
230
1.0
0
ARC
5
B5
330
70
100
AcDbEntity
67
0
8
IV_OUTER_PROFILE
62
256
6
ByLayer
370
-1
48
1.0
60
0
100
AcDbCircle
39
0.0
10
59.8507314311737
20
28.2304134161345
30
0.0
40
2.0
210
0.0
220
0.0
230
1.0
100
AcDbArc
50
90.0
51
149.743562836468
0
LINE
5
B6
330
70
100
AcDbEntity
67
0
8
IV_OUTER_PROFILE
62
256
6
ByLayer
370
-1
48
1.0
60
0
100
AcDbLine
10
62.5532501013572
20
30.2304134161346
30
0.0
11
59.8507314311737
21
30.2304134161345
31
0.0
39
0.0
210
0.0
220
0.0
230
1.0
0
ARC
5
B7
330
70
100
AcDbEntity
67
0
8
IV_OUTER_PROFILE
62
256
6
ByLayer
370
-1
48
1.0
60
0
100
AcDbCircle
39
0.0
10
62.5532501013572
20
28.2304134161345
30
0.0
40
2.0
210
0.0
220
0.0
230
1.0
100
AcDbArc
50
30.2564371635324
51
90.0
0
LINE
5
B8
330
70
100
AcDbEntity
67
0
8
IV_OUTER_PROFILE
62
256
6
ByLayer
370
-1
48
1.0
60
0
100
AcDbLine
10
80.6231736293768
20
1.22267136508718
30
0.0
11
64.280807903154
21
29.2381554671828
31
0.0
39
0.0
210
0.0
220
0.0
230
1.0
0
ARC
5
B9
330
70
100
AcDbEntity
67
0
8
IV_OUTER_PROFILE
62
256
6
ByLayer
370
-1
48
1.0
60
0
100
AcDbCircle
39
0.0
10
82.3507314311737
20
2.23041341613538
30
0.0
40
2.0
210
0.0
220
0.0
230
1.0
100
AcDbArc
50
210.256437163529
51
270.0
0
LINE
5
BA
330
70
100
AcDbEntity
67
0
8
IV_OUTER_PROFILE
62
256
6
ByLayer
370
-1
48
1.0
60
0
100
AcDbLine
10
82.3507314311739
20
0.23041341613542
30
0.0
11
100.053250101357
21
0.23041341613542
31
0.0
39
0.0
210
0.0
220
0.0
230
1.0
0
ARC
5
BB
330
70
100
AcDbEntity
67
0
8
IV_OUTER_PROFILE
62
256
6
ByLayer
370
-1
48
1.0
60
0
100
AcDbCircle
39
0.0
10
100.053250101357
20
2.23041341613538
30
0.0
40
2.0
210
0.0
220
0.0
230
1.0
100
AcDbArc
50
270.0
51
329.743562836472
0
LINE
5
BC
330
70
100
AcDbEntity
67
0
8
IV_OUTER_PROFILE
62
256
6
ByLayer
370
-1
48
1.0
60
0
100
AcDbLine
10
118.123173629377
20
29.2381554671827
30
0.0
11
101.780807903154
21
1.22267136508725
31
0.0
39
0.0
210
0.0
220
0.0
230
1.0
0
ARC
5
BD
330
70
100
AcDbEntity
67
0
8
IV_OUTER_PROFILE
62
256
6
ByLayer
370
-1
48
1.0
60
0
100
AcDbCircle
39
0.0
10
119.850731431174
20
28.2304134161345
30
0.0
40
2.0
210
0.0
220
0.0
230
1.0
100
AcDbArc
50
90.0
51
149.74356283647
0
LINE
5
BE
330
70
100
AcDbEntity
67
0
8
IV_OUTER_PROFILE
62
256
6
ByLayer
370
-1
48
1.0
60
0
100
AcDbLine
10
122.553250101357
20
30.2304134161346
30
0.0
11
119.850731431174
21
30.2304134161345
31
0.0
39
0.0
210
0.0
220
0.0
230
1.0
0
ARC
5
BF
330
70
100
AcDbEntity
67
0
8
IV_OUTER_PROFILE
62
256
6
ByLayer
370
-1
48
1.0
60
0
100
AcDbCircle
39
0.0
10
122.553250101357
20
28.2304134161345
30
0.0
40
2.0
210
0.0
220
0.0
230
1.0
100
AcDbArc
50
30.2564371635322
51
90.0
0
LINE
5
C0
330
70
100
AcDbEntity
67
0
8
IV_OUTER_PROFILE
62
256
6
ByLayer
370
-1
48
1.0
60
0
100
AcDbLine
10
140.623173629377
20
1.22267136508711
30
0.0
11
124.280807903154
21
29.2381554671828
31
0.0
39
0.0
210
0.0
220
0.0
230
1.0
0
ARC
5
C1
330
70
100
AcDbEntity
67
0
8
IV_OUTER_PROFILE
62
256
6
ByLayer
370
-1
48
1.0
60
0
100
AcDbCircle
39
0.0
10
142.350731431174
20
2.23041341613538
30
0.0
40
2.0
210
0.0
220
0.0
230
1.0
100
AcDbArc
50
210.256437163531
51
270.0
0
LINE
5
C2
330
70
100
AcDbEntity
67
0
8
IV_OUTER_PROFILE
62
256
6
ByLayer
370
-1
48
1.0
60
0
100
AcDbLine
10
142.350731431174
20
0.23041341613542
30
0.0
11
160.053250101357
21
0.230413416135349
31
0.0
39
0.0
210
0.0
220
0.0
230
1.0
0
ARC
5
C3
330
70
100
AcDbEntity
67
0
8
IV_OUTER_PROFILE
62
256
6
ByLayer
370
-1
48
1.0
60
0
100
AcDbCircle
39
0.0
10
160.053250101357
20
2.23041341613538
30
0.0
40
2.0
210
0.0
220
0.0
230
1.0
100
AcDbArc
50
270.0
51
329.74356283647
0
LINE
5
C4
330
70
100
AcDbEntity
67
0
8
IV_OUTER_PROFILE
62
256
6
ByLayer
370
-1
48
1.0
60
0
100
AcDbLine
10
178.123173629377
20
29.2381554671827
30
0.0
11
161.780807903154
21
1.22267136508718
31
0.0
39
0.0
210
0.0
220
0.0
230
1.0
0
ARC
5
C5
330
70
100
AcDbEntity
67
0
8
IV_OUTER_PROFILE
62
256
6
ByLayer
370
-1
48
1.0
60
0
100
AcDbCircle
39
0.0
10
179.850731431174
20
28.2304134161345
30
0.0
40
2.0
210
0.0
220
0.0
230
1.0
100
AcDbArc
50
90.0
51
149.74356283647
0
LINE
5
C6
330
70
100
AcDbEntity
67
0
8
IV_OUTER_PROFILE
62
256
6
ByLayer
370
-1
48
1.0
60
0
100
AcDbLine
10
182.553250101357
20
30.2304134161345
30
0.0
11
179.850731431174
21
30.2304134161345
31
0.0
39
0.0
210
0.0
220
0.0
230
1.0
0
ARC
5
C7
330
70
100
AcDbEntity
67
0
8
IV_OUTER_PROFILE
62
256
6
ByLayer
370
-1
48
1.0
60
0
100
AcDbCircle
39
0.0
10
182.553250101357
20
28.2304134161345
30
0.0
40
2.0
210
0.0
220
0.0
230
1.0
100
AcDbArc
50
30.2564371635302
51
90.0
0
LINE
5
C8
330
70
100
AcDbEntity
67
0
8
IV_OUTER_PROFILE
62
256
6
ByLayer
370
-1
48
1.0
60
0
100
AcDbLine
10
200.623173629377
20
1.22267136508704
30
0.0
11
184.280807903154
21
29.2381554671827
31
0.0
39
0.0
210
0.0
220
0.0
230
1.0
0
ARC
5
C9
330
70
100
AcDbEntity
67
0
8
IV_OUTER_PROFILE
62
256
6
ByLayer
370
-1
48
1.0
60
0
100
AcDbCircle
39
0.0
10
202.350731431174
20
2.23041341613531
30
0.0
40
2.0
210
0.0
220
0.0
230
1.0
100
AcDbArc
50
210.256437163531
51
270.0
0
LINE
5
CA
330
70
100
AcDbEntity
67
0
8
IV_OUTER_PROFILE
62
256
6
ByLayer
370
-1
48
1.0
60
0
100
AcDbLine
10
202.350731431174
20
0.230413416135278
30
0.0
11
220.053250101357
21
0.230413416135278
31
0.0
39
0.0
210
0.0
220
0.0
230
1.0
0
ARC
5
CB
330
70
100
AcDbEntity
67
0
8
IV_OUTER_PROFILE
62
256
6
ByLayer
370
-1
48
1.0
60
0
100
AcDbCircle
39
0.0
10
220.053250101357
20
2.23041341613531
30
0.0
40
2.0
210
0.0
220
0.0
230
1.0
100
AcDbArc
50
270.0
51
329.74356283647
0
LINE
5
CC
330
70
100
AcDbEntity
67
0
8
IV_OUTER_PROFILE
62
256
6
ByLayer
370
-1
48
1.0
60
0
100
AcDbLine
10
238.123173629377
20
29.2381554671827
30
0.0
11
221.780807903154
21
1.22267136508711
31
0.0
39
0.0
210
0.0
220
0.0
230
1.0
0
ARC
5
CD
330
70
100
AcDbEntity
67
0
8
IV_OUTER_PROFILE
62
256
6
ByLayer
370
-1
48
1.0
60
0
100
AcDbCircle
39
0.0
10
239.850731431174
20
28.2304134161345
30
0.0
40
2.0
210
0.0
220
0.0
230
1.0
100
AcDbArc
50
90.0
51
149.743562836469
0
LINE
5
CE
330
70
100
AcDbEntity
67
0
8
IV_OUTER_PROFILE
62
256
6
ByLayer
370
-1
48
1.0
60
0
100
AcDbLine
10
242.553250101357
20
30.2304134161344
30
0.0
11
239.850731431174
21
30.2304134161344
31
0.0
39
0.0
210
0.0
220
0.0
230
1.0
0
ARC
5
CF
330
70
100
AcDbEntity
67
0
8
IV_OUTER_PROFILE
62
256
6
ByLayer
370
-1
48
1.0
60
0
100
AcDbCircle
39
0.0
10
242.553250101357
20
28.2304134161345
30
0.0
40
2.0
210
0.0
220
0.0
230
1.0
100
AcDbArc
50
30.2564371635302
51
90.0
0
LINE
5
D0
330
70
100
AcDbEntity
67
0
8
IV_OUTER_PROFILE
62
256
6
ByLayer
370
-1
48
1.0
60
0
100
AcDbLine
10
260.623173629377
20
1.22267136508704
30
0.0
11
244.280807903154
21
29.2381554671827
31
0.0
39
0.0
210
0.0
220
0.0
230
1.0
0
ARC
5
D1
330
70
100
AcDbEntity
67
0
8
IV_OUTER_PROFILE
62
256
6
ByLayer
370
-1
48
1.0
60
0
100
AcDbCircle
39
0.0
10
262.350731431174
20
2.23041341613531
30
0.0
40
2.0
210
0.0
220
0.0
230
1.0
100
AcDbArc
50
210.256437163531
51
270.0
0
LINE
5
D2
330
70
100
AcDbEntity
67
0
8
IV_OUTER_PROFILE
62
256
6
ByLayer
370
-1
48
1.0
60
0
100
AcDbLine
10
262.350731431174
20
0.230413416135278
30
0.0
11
280.053250101357
21
0.230413416135278
31
0.0
39
0.0
210
0.0
220
0.0
230
1.0
0
ARC
5
D3
330
70
100
AcDbEntity
67
0
8
IV_OUTER_PROFILE
62
256
6
ByLayer
370
-1
48
1.0
60
0
100
AcDbCircle
39
0.0
10
280.053250101357
20
2.23041341613524
30
0.0
40
2.0
210
0.0
220
0.0
230
1.0
100
AcDbArc
50
270.0
51
329.743562836472
0
LINE
5
D4
330
70
100
AcDbEntity
67
0
8
IV_OUTER_PROFILE
62
256
6
ByLayer
370
-1
48
1.0
60
0
100
AcDbLine
10
298.123173629377
20
29.2381554671827
30
0.0
11
281.780807903154
21
1.22267136508711
31
0.0
39
0.0
210
0.0
220
0.0
230
1.0
0
ARC
5
D5
330
70
100
AcDbEntity
67
0
8
IV_OUTER_PROFILE
62
256
6
ByLayer
370
-1
48
1.0
60
0
100
AcDbCircle
39
0.0
10
299.850731431174
20
28.2304134161344
30
0.0
40
2.0
210
0.0
220
0.0
230
1.0
100
AcDbArc
50
90.0
51
149.743562836469
0
LINE
5
D6
330
70
100
AcDbEntity
67
0
8
IV_OUTER_PROFILE
62
256
6
ByLayer
370
-1
48
1.0
60
0
100
AcDbLine
10
302.553250101357
20
30.2304134161344
30
0.0
11
299.850731431174
21
30.2304134161344
31
0.0
39
0.0
210
0.0
220
0.0
230
1.0
0
ARC
5
D7
330
70
100
AcDbEntity
67
0
8
IV_OUTER_PROFILE
62
256
6
ByLayer
370
-1
48
1.0
60
0
100
AcDbCircle
39
0.0
10
302.553250101357
20
28.2304134161344
30
0.0
40
2.0
210
0.0
220
0.0
230
1.0
100
AcDbArc
50
30.2564371635302
51
90.0
0
LINE
5
D8
330
70
100
AcDbEntity
67
0
8
IV_OUTER_PROFILE
62
256
6
ByLayer
370
-1
48
1.0
60
0
100
AcDbLine
10
320.623173629377
20
1.22267136508704
30
0.0
11
304.280807903154
21
29.2381554671826
31
0.0
39
0.0
210
0.0
220
0.0
230
1.0
0
ARC
5
D9
330
70
100
AcDbEntity
67
0
8
IV_OUTER_PROFILE
62
256
6
ByLayer
370
-1
48
1.0
60
0
100
AcDbCircle
39
0.0
10
322.350731431174
20
2.23041341613524
30
0.0
40
2.0
210
0.0
220
0.0
230
1.0
100
AcDbArc
50
210.256437163528
51
270.0
0
LINE
5
DA
330
70
100
AcDbEntity
67
0
8
IV_OUTER_PROFILE
62
256
6
ByLayer
370
-1
48
1.0
60
0
100
AcDbLine
10
322.350731431174
20
0.230413416135207
30
0.0
11
340.053250101357
21
0.230413416135278
31
0.0
39
0.0
210
0.0
220
0.0
230
1.0
0
ARC
5
DB
330
70
100
AcDbEntity
67
0
8
IV_OUTER_PROFILE
62
256
6
ByLayer
370
-1
48
1.0
60
0
100
AcDbCircle
39
0.0
10
340.053250101357
20
2.23041341613524
30
0.0
40
2.0
210
0.0
220
0.0
230
1.0
100
AcDbArc
50
270.0
51
329.743562836472
0
LINE
5
DC
330
70
100
AcDbEntity
67
0
8
IV_OUTER_PROFILE
62
256
6
ByLayer
370
-1
48
1.0
60
0
100
AcDbLine
10
358.123173629377
20
29.2381554671826
30
0.0
11
341.780807903154
21
1.22267136508711
31
0.0
39
0.0
210
0.0
220
0.0
230
1.0
0
ARC
5
DD
330
70
100
AcDbEntity
67
0
8
IV_OUTER_PROFILE
62
256
6
ByLayer
370
-1
48
1.0
60
0
100
AcDbCircle
39
0.0
10
359.850731431174
20
28.2304134161344
30
0.0
40
2.0
210
0.0
220
0.0
230
1.0
100
AcDbArc
50
90.0
51
149.74356283647
0
LINE
5
DE
330
70
100
AcDbEntity
67
0
8
IV_OUTER_PROFILE
62
256
6
ByLayer
370
-1
48
1.0
60
0
100
AcDbLine
10
362.553250101357
20
30.2304134161344
30
0.0
11
359.850731431174
21
30.2304134161344
31
0.0
39
0.0
210
0.0
220
0.0
230
1.0
0
ARC
5
DF
330
70
100
AcDbEntity
67
0
8
IV_OUTER_PROFILE
62
256
6
ByLayer
370
-1
48
1.0
60
0
100
AcDbCircle
39
0.0
10
362.553250101357
20
28.2304134161344
30
0.0
40
2.0
210
0.0
220
0.0
230
1.0
100
AcDbArc
50
30.2564371635302
51
90.0
0
LINE
5
E0
330
70
100
AcDbEntity
67
0
8
IV_OUTER_PROFILE
62
256
6
ByLayer
370
-1
48
1.0
60
0
100
AcDbLine
10
380.623173629377
20
1.22267136508704
30
0.0
11
364.280807903154
21
29.2381554671826
31
0.0
39
0.0
210
0.0
220
0.0
230
1.0
0
ARC
5
E1
330
70
100
AcDbEntity
67
0
8
IV_OUTER_PROFILE
62
256
6
ByLayer
370
-1
48
1.0
60
0
100
AcDbCircle
39
0.0
10
382.350731431174
20
2.23041341613524
30
0.0
40
2.0
210
0.0
220
0.0
230
1.0
100
AcDbArc
50
210.256437163529
51
270.0
0
LINE
5
E2
330
70
100
AcDbEntity
67
0
8
IV_OUTER_PROFILE
62
256
6
ByLayer
370
-1
48
1.0
60
0
100
AcDbLine
10
382.350731431174
20
0.230413416135278
30
0.0
11
400.053250101357
21
0.230413416135207
31
0.0
39
0.0
210
0.0
220
0.0
230
1.0
0
ARC
5
E3
330
70
100
AcDbEntity
67
0
8
IV_OUTER_PROFILE
62
256
6
ByLayer
370
-1
48
1.0
60
0
100
AcDbCircle
39
0.0
10
400.053250101357
20
2.23041341613524
30
0.0
40
2.0
210
0.0
220
0.0
230
1.0
100
AcDbArc
50
270.0
51
329.74356283647
0
LINE
5
E4
330
70
100
AcDbEntity
67
0
8
IV_OUTER_PROFILE
62
256
6
ByLayer
370
-1
48
1.0
60
0
100
AcDbLine
10
418.123173629377
20
29.2381554671826
30
0.0
11
401.780807903154
21
1.22267136508704
31
0.0
39
0.0
210
0.0
220
0.0
230
1.0
0
ARC
5
E5
330
70
100
AcDbEntity
67
0
8
IV_OUTER_PROFILE
62
256
6
ByLayer
370
-1
48
1.0
60
0
100
AcDbCircle
39
0.0
10
419.850731431174
20
28.2304134161344
30
0.0
40
2.0
210
0.0
220
0.0
230
1.0
100
AcDbArc
50
90.0
51
149.74356283647
0
LINE
5
E6
330
70
100
AcDbEntity
67
0
8
IV_OUTER_PROFILE
62
256
6
ByLayer
370
-1
48
1.0
60
0
100
AcDbLine
10
422.553250101357
20
30.2304134161344
30
0.0
11
419.850731431174
21
30.2304134161344
31
0.0
39
0.0
210
0.0
220
0.0
230
1.0
0
ARC
5
E7
330
70
100
AcDbEntity
67
0
8
IV_OUTER_PROFILE
62
256
6
ByLayer
370
-1
48
1.0
60
0
100
AcDbCircle
39
0.0
10
422.553250101357
20
28.2304134161344
30
0.0
40
2.0
210
0.0
220
0.0
230
1.0
100
AcDbArc
50
30.2564371635284
51
90.0
0
LINE
5
E8
330
70
100
AcDbEntity
67
0
8
IV_OUTER_PROFILE
62
256
6
ByLayer
370
-1
48
1.0
60
0
100
AcDbLine
10
440.623173629377
20
1.22267136508697
30
0.0
11
424.280807903154
21
29.2381554671825
31
0.0
39
0.0
210
0.0
220
0.0
230
1.0
0
ARC
5
E9
330
70
100
AcDbEntity
67
0
8
IV_OUTER_PROFILE
62
256
6
ByLayer
370
-1
48
1.0
60
0
100
AcDbCircle
39
0.0
10
442.350731431174
20
2.23041341613524
30
0.0
40
2.0
210
0.0
220
0.0
230
1.0
100
AcDbArc
50
210.256437163531
51
270.0
0
LINE
5
EA
330
70
100
AcDbEntity
67
0
8
IV_OUTER_PROFILE
62
256
6
ByLayer
370
-1
48
1.0
60
0
100
AcDbLine
10
442.350731431173
20
0.230413416135278
30
0.0
11
460.053250101357
21
0.230413416135207
31
0.0
39
0.0
210
0.0
220
0.0
230
1.0
0
ARC
5
EB
330
70
100
AcDbEntity
67
0
8
IV_OUTER_PROFILE
62
256
6
ByLayer
370
-1
48
1.0
60
0
100
AcDbCircle
39
0.0
10
460.053250101357
20
2.23041341613524
30
0.0
40
2.0
210
0.0
220
0.0
230
1.0
100
AcDbArc
50
270.0
51
329.74356283647
0
LINE
5
EC
330
70
100
AcDbEntity
67
0
8
IV_OUTER_PROFILE
62
256
6
ByLayer
370
-1
48
1.0
60
0
100
AcDbLine
10
478.123173629377
20
29.2381554671825
30
0.0
11
461.780807903154
21
1.22267136508704
31
0.0
39
0.0
210
0.0
220
0.0
230
1.0
0
ARC
5
ED
330
70
100
AcDbEntity
67
0
8
IV_OUTER_PROFILE
62
256
6
ByLayer
370
-1
48
1.0
60
0
100
AcDbCircle
39
0.0
10
479.850731431174
20
28.2304134161344
30
0.0
40
2.0
210
0.0
220
0.0
230
1.0
100
AcDbArc
50
90.0
51
149.74356283647
0
LINE
5
EE
330
70
100
AcDbEntity
67
0
8
IV_OUTER_PROFILE
62
256
6
ByLayer
370
-1
48
1.0
60
0
100
AcDbLine
10
482.553250101357
20
30.2304134161344
30
0.0
11
479.850731431174
21
30.2304134161344
31
0.0
39
0.0
210
0.0
220
0.0
230
1.0
0
ARC
5
EF
330
70
100
AcDbEntity
67
0
8
IV_OUTER_PROFILE
62
256
6
ByLayer
370
-1
48
1.0
60
0
100
AcDbCircle
39
0.0
10
482.553250101357
20
28.2304134161344
30
0.0
40
2.0
210
0.0
220
0.0
230
1.0
100
AcDbArc
50
30.2564371635284
51
90.0
0
LINE
5
F0
330
70
100
AcDbEntity
67
0
8
IV_OUTER_PROFILE
62
256
6
ByLayer
370
-1
48
1.0
60
0
100
AcDbLine
10
500.623173629377
20
1.22267136508697
30
0.0
11
484.280807903154
21
29.2381554671825
31
0.0
39
0.0
210
0.0
220
0.0
230
1.0
0
ARC
5
F1
330
70
100
AcDbEntity
67
0
8
IV_OUTER_PROFILE
62
256
6
ByLayer
370
-1
48
1.0
60
0
100
AcDbCircle
39
0.0
10
502.350731431174
20
2.23041341613524
30
0.0
40
2.0
210
0.0
220
0.0
230
1.0
100
AcDbArc
50
210.256437163531
51
270.0
0
LINE
5
F2
330
70
100
AcDbEntity
67
0
8
IV_OUTER_PROFILE
62
256
6
ByLayer
370
-1
48
1.0
60
0
100
AcDbLine
10
502.350731431174
20
0.230413416135278
30
0.0
11
520.053250101357
21
0.230413416135136
31
0.0
39
0.0
210
0.0
220
0.0
230
1.0
0
ARC
5
F3
330
70
100
AcDbEntity
67
0
8
IV_OUTER_PROFILE
62
256
6
ByLayer
370
-1
48
1.0
60
0
100
AcDbCircle
39
0.0
10
520.053250101357
20
2.23041341613509
30
0.0
40
2.0
210
0.0
220
0.0
230
1.0
100
AcDbArc
50
270.0
51
329.743562836473
0
LINE
5
F4
330
70
100
AcDbEntity
67
0
8
IV_OUTER_PROFILE
62
256
6
ByLayer
370
-1
48
1.0
60
0
100
AcDbLine
10
538.123173629377
20
29.2381554671825
30
0.0
11
521.780807903154
21
1.22267136508697
31
0.0
39
0.0
210
0.0
220
0.0
230
1.0
0
ARC
5
F5
330
70
100
AcDbEntity
67
0
8
IV_OUTER_PROFILE
62
256
6
ByLayer
370
-1
48
1.0
60
0
100
AcDbCircle
39
0.0
10
539.850731431174
20
28.2304134161343
30
0.0
40
2.0
210
0.0
220
0.0
230
1.0
100
AcDbArc
50
90.0
51
149.74356283647
0
LINE
5
F6
330
70
100
AcDbEntity
67
0
8
IV_OUTER_PROFILE
62
256
6
ByLayer
370
-1
48
1.0
60
0
100
AcDbLine
10
542.553250101357
20
30.2304134161343
30
0.0
11
539.850731431174
21
30.2304134161342
31
0.0
39
0.0
210
0.0
220
0.0
230
1.0
0
ARC
5
F7
330
70
100
AcDbEntity
67
0
8
IV_OUTER_PROFILE
62
256
6
ByLayer
370
-1
48
1.0
60
0
100
AcDbCircle
39
0.0
10
542.553250101357
20
28.2304134161343
30
0.0
40
2.0
210
0.0
220
0.0
230
1.0
100
AcDbArc
50
30.2564371635302
51
90.0
0
LINE
5
F8
330
70
100
AcDbEntity
67
0
8
IV_OUTER_PROFILE
62
256
6
ByLayer
370
-1
48
1.0
60
0
100
AcDbLine
10
560.623173629377
20
1.2226713650869
30
0.0
11
544.280807903154
21
29.2381554671825
31
0.0
39
0.0
210
0.0
220
0.0
230
1.0
0
ARC
5
F9
330
70
100
AcDbEntity
67
0
8
IV_OUTER_PROFILE
62
256
6
ByLayer
370
-1
48
1.0
60
0
100
AcDbCircle
39
0.0
10
562.350731431174
20
2.23041341613509
30
0.0
40
2.0
210
0.0
220
0.0
230
1.0
100
AcDbArc
50
210.25643716353
51
270.0
0
LINE
5
FA
330
70
100
AcDbEntity
67
0
8
IV_OUTER_PROFILE
62
256
6
ByLayer
370
-1
48
1.0
60
0
100
AcDbLine
10
562.350731431173
20
0.230413416135136
30
0.0
11
580.053250101357
21
0.230413416135136
31
0.0
39
0.0
210
0.0
220
0.0
230
1.0
0
ARC
5
FB
330
70
100
AcDbEntity
67
0
8
IV_OUTER_PROFILE
62
256
6
ByLayer
370
-1
48
1.0
60
0
100
AcDbCircle
39
0.0
10
580.053250101357
20
2.23041341613509
30
0.0
40
2.0
210
0.0
220
0.0
230
1.0
100
AcDbArc
50
270.0
51
329.74356283647
0
LINE
5
FC
330
70
100
AcDbEntity
67
0
8
IV_OUTER_PROFILE
62
256
6
ByLayer
370
-1
48
1.0
60
0
100
AcDbLine
10
598.123173629377
20
29.2381554671825
30
0.0
11
581.780807903154
21
1.2226713650869
31
0.0
39
0.0
210
0.0
220
0.0
230
1.0
0
ARC
5
FD
330
70
100
AcDbEntity
67
0
8
IV_OUTER_PROFILE
62
256
6
ByLayer
370
-1
48
1.0
60
0
100
AcDbCircle
39
0.0
10
599.850731431174
20
28.2304134161343
30
0.0
40
2.0
210
0.0
220
0.0
230
1.0
100
AcDbArc
50
90.0
51
149.74356283647
0
LINE
5
FE
330
70
100
AcDbEntity
67
0
8
IV_OUTER_PROFILE
62
256
6
ByLayer
370
-1
48
1.0
60
0
100
AcDbLine
10
602.553250101357
20
30.2304134161343
30
0.0
11
599.850731431174
21
30.2304134161342
31
0.0
39
0.0
210
0.0
220
0.0
230
1.0
0
ARC
5
FF
330
70
100
AcDbEntity
67
0
8
IV_OUTER_PROFILE
62
256
6
ByLayer
370
-1
48
1.0
60
0
100
AcDbCircle
39
0.0
10
602.553250101357
20
28.2304134161343
30
0.0
40
2.0
210
0.0
220
0.0
230
1.0
100
AcDbArc
50
30.2564371635302
51
90.0
0
LINE
5
100
330
70
100
AcDbEntity
67
0
8
IV_OUTER_PROFILE
62
256
6
ByLayer
370
-1
48
1.0
60
0
100
AcDbLine
10
620.623173629377
20
1.2226713650869
30
0.0
11
604.280807903154
21
29.2381554671825
31
0.0
39
0.0
210
0.0
220
0.0
230
1.0
0
ARC
5
101
330
70
100
AcDbEntity
67
0
8
IV_OUTER_PROFILE
62
256
6
ByLayer
370
-1
48
1.0
60
0
100
AcDbCircle
39
0.0
10
622.350731431174
20
2.23041341613509
30
0.0
40
2.0
210
0.0
220
0.0
230
1.0
100
AcDbArc
50
210.256437163529
51
270.0
0
LINE
5
102
330
70
100
AcDbEntity
67
0
8
IV_OUTER_PROFILE
62
256
6
ByLayer
370
-1
48
1.0
60
0
100
AcDbLine
10
622.350731431174
20
0.230413416135136
30
0.0
11
640.053250101357
21
0.230413416135065
31
0.0
39
0.0
210
0.0
220
0.0
230
1.0
0
ARC
5
103
330
70
100
AcDbEntity
67
0
8
IV_OUTER_PROFILE
62
256
6
ByLayer
370
-1
48
1.0
60
0
100
AcDbCircle
39
0.0
10
640.053250101357
20
2.23041341613509
30
0.0
40
2.0
210
0.0
220
0.0
230
1.0
100
AcDbArc
50
270.0
51
329.74356283647
0
LINE
5
104
330
70
100
AcDbEntity
67
0
8
IV_OUTER_PROFILE
62
256
6
ByLayer
370
-1
48
1.0
60
0
100
AcDbLine
10
658.123173629377
20
29.2381554671825
30
0.0
11
641.780807903154
21
1.2226713650869
31
0.0
39
0.0
210
0.0
220
0.0
230
1.0
0
ARC
5
105
330
70
100
AcDbEntity
67
0
8
IV_OUTER_PROFILE
62
256
6
ByLayer
370
-1
48
1.0
60
0
100
AcDbCircle
39
0.0
10
659.850731431174
20
28.2304134161343
30
0.0
40
2.0
210
0.0
220
0.0
230
1.0
100
AcDbArc
50
90.0
51
149.74356283647
0
LINE
5
106
330
70
100
AcDbEntity
67
0
8
IV_OUTER_PROFILE
62
256
6
ByLayer
370
-1
48
1.0
60
0
100
AcDbLine
10
662.553250101357
20
30.2304134161342
30
0.0
11
659.850731431174
21
30.2304134161342
31
0.0
39
0.0
210
0.0
220
0.0
230
1.0
0
ARC
5
107
330
70
100
AcDbEntity
67
0
8
IV_OUTER_PROFILE
62
256
6
ByLayer
370
-1
48
1.0
60
0
100
AcDbCircle
39
0.0
10
662.553250101357
20
28.2304134161343
30
0.0
40
2.0
210
0.0
220
0.0
230
1.0
100
AcDbArc
50
30.2564371635302
51
90.0
0
LINE
5
108
330
70
100
AcDbEntity
67
0
8
IV_OUTER_PROFILE
62
256
6
ByLayer
370
-1
48
1.0
60
0
100
AcDbLine
10
680.623173629377
20
1.2226713650869
30
0.0
11
664.280807903154
21
29.2381554671825
31
0.0
39
0.0
210
0.0
220
0.0
230
1.0
0
ARC
5
109
330
70
100
AcDbEntity
67
0
8
IV_OUTER_PROFILE
62
256
6
ByLayer
370
-1
48
1.0
60
0
100
AcDbCircle
39
0.0
10
682.350731431173
20
2.23041341613509
30
0.0
40
2.0
210
0.0
220
0.0
230
1.0
100
AcDbArc
50
210.25643716353
51
270.0
0
LINE
5
10A
330
70
100
AcDbEntity
67
0
8
IV_OUTER_PROFILE
62
256
6
ByLayer
370
-1
48
1.0
60
0
100
AcDbLine
10
682.350731431173
20
0.230413416135065
30
0.0
11
700.053250101357
21
0.230413416135065
31
0.0
39
0.0
210
0.0
220
0.0
230
1.0
0
ARC
5
10B
330
70
100
AcDbEntity
67
0
8
IV_OUTER_PROFILE
62
256
6
ByLayer
370
-1
48
1.0
60
0
100
AcDbCircle
39
0.0
10
700.053250101357
20
2.23041341613509
30
0.0
40
2.0
210
0.0
220
0.0
230
1.0
100
AcDbArc
50
270.0
51
329.74356283647
0
LINE
5
10C
330
70
100
AcDbEntity
67
0
8
IV_OUTER_PROFILE
62
256
6
ByLayer
370
-1
48
1.0
60
0
100
AcDbLine
10
718.123173629377
20
29.2381554671824
30
0.0
11
701.780807903154
21
1.2226713650869
31
0.0
39
0.0
210
0.0
220
0.0
230
1.0
0
ARC
5
10D
330
70
100
AcDbEntity
67
0
8
IV_OUTER_PROFILE
62
256
6
ByLayer
370
-1
48
1.0
60
0
100
AcDbCircle
39
0.0
10
719.850731431173
20
28.2304134161342
30
0.0
40
2.0
210
0.0
220
0.0
230
1.0
100
AcDbArc
50
90.0
51
149.74356283647
0
LINE
5
10E
330
70
100
AcDbEntity
67
0
8
IV_OUTER_PROFILE
62
256
6
ByLayer
370
-1
48
1.0
60
0
100
AcDbLine
10
722.553250101357
20
30.2304134161342
30
0.0
11
719.850731431173
21
30.2304134161341
31
0.0
39
0.0
210
0.0
220
0.0
230
1.0
0
ARC
5
10F
330
70
100
AcDbEntity
67
0
8
IV_OUTER_PROFILE
62
256
6
ByLayer
370
-1
48
1.0
60
0
100
AcDbCircle
39
0.0
10
722.553250101357
20
28.2304134161342
30
0.0
40
2.0
210
0.0
220
0.0
230
1.0
100
AcDbArc
50
30.2564371635302
51
90.0
0
LINE
5
110
330
70
100
AcDbEntity
67
0
8
IV_OUTER_PROFILE
62
256
6
ByLayer
370
-1
48
1.0
60
0
100
AcDbLine
10
740.623173629377
20
1.22267136508682
30
0.0
11
724.280807903154
21
29.2381554671824
31
0.0
39
0.0
210
0.0
220
0.0
230
1.0
0
ARC
5
111
330
70
100
AcDbEntity
67
0
8
IV_OUTER_PROFILE
62
256
6
ByLayer
370
-1
48
1.0
60
0
100
AcDbCircle
39
0.0
10
742.350731431173
20
2.23041341613509
30
0.0
40
2.0
210
0.0
220
0.0
230
1.0
100
AcDbArc
50
210.256437163532
51
270.0
0
LINE
5
112
330
70
100
AcDbEntity
67
0
8
IV_OUTER_PROFILE
62
256
6
ByLayer
370
-1
48
1.0
60
0
100
AcDbLine
10
742.350731431173
20
0.230413416135136
30
0.0
11
760.053250101357
21
0.230413416135065
31
0.0
39
0.0
210
0.0
220
0.0
230
1.0
0
ARC
5
113
330
70
100
AcDbEntity
67
0
8
IV_OUTER_PROFILE
62
256
6
ByLayer
370
-1
48
1.0
60
0
100
AcDbCircle
39
0.0
10
760.053250101357
20
2.23041341613502
30
0.0
40
2.0
210
0.0
220
0.0
230
1.0
100
AcDbArc
50
270.0
51
329.743562836472
0
LINE
5
114
330
70
100
AcDbEntity
67
0
8
IV_OUTER_PROFILE
62
256
6
ByLayer
370
-1
48
1.0
60
0
100
AcDbLine
10
778.123173629377
20
29.2381554671824
30
0.0
11
761.780807903154
21
1.2226713650869
31
0.0
39
0.0
210
0.0
220
0.0
230
1.0
0
ARC
5
115
330
70
100
AcDbEntity
67
0
8
IV_OUTER_PROFILE
62
256
6
ByLayer
370
-1
48
1.0
60
0
100
AcDbCircle
39
0.0
10
779.850731431173
20
28.2304134161342
30
0.0
40
2.0
210
0.0
220
0.0
230
1.0
100
AcDbArc
50
90.0
51
149.74356283647
0
LINE
5
116
330
70
100
AcDbEntity
67
0
8
IV_OUTER_PROFILE
62
256
6
ByLayer
370
-1
48
1.0
60
0
100
AcDbLine
10
782.553250101357
20
30.2304134161342
30
0.0
11
779.850731431173
21
30.2304134161341
31
0.0
39
0.0
210
0.0
220
0.0
230
1.0
0
ARC
5
117
330
70
100
AcDbEntity
67
0
8
IV_OUTER_PROFILE
62
256
6
ByLayer
370
-1
48
1.0
60
0
100
AcDbCircle
39
0.0
10
782.553250101357
20
28.2304134161342
30
0.0
40
2.0
210
0.0
220
0.0
230
1.0
100
AcDbArc
50
30.2564371635302
51
90.0
0
LINE
5
118
330
70
100
AcDbEntity
67
0
8
IV_OUTER_PROFILE
62
256
6
ByLayer
370
-1
48
1.0
60
0
100
AcDbLine
10
800.623173629377
20
1.2226713650869
30
0.0
11
784.280807903154
21
29.2381554671824
31
0.0
39
0.0
210
0.0
220
0.0
230
1.0
0
ARC
5
119
330
70
100
AcDbEntity
67
0
8
IV_OUTER_PROFILE
62
256
6
ByLayer
370
-1
48
1.0
60
0
100
AcDbCircle
39
0.0
10
802.350731431173
20
2.23041341613502
30
0.0
40
2.0
210
0.0
220
0.0
230
1.0
100
AcDbArc
50
210.25643716353
51
270.0
0
LINE
5
11A
330
70
100
AcDbEntity
67
0
8
IV_OUTER_PROFILE
62
256
6
ByLayer
370
-1
48
1.0
60
0
100
AcDbLine
10
802.350731431174
20
0.230413416134993
30
0.0
11
820.053250101357
21
0.230413416135065
31
0.0
39
0.0
210
0.0
220
0.0
230
1.0
0
ARC
5
11B
330
70
100
AcDbEntity
67
0
8
IV_OUTER_PROFILE
62
256
6
ByLayer
370
-1
48
1.0
60
0
100
AcDbCircle
39
0.0
10
820.053250101357
20
2.23041341613502
30
0.0
40
2.0
210
0.0
220
0.0
230
1.0
100
AcDbArc
50
270.0
51
329.74356283647
0
LINE
5
11C
330
70
100
AcDbEntity
67
0
8
IV_OUTER_PROFILE
62
256
6
ByLayer
370
-1
48
1.0
60
0
100
AcDbLine
10
838.123173629377
20
29.2381554671823
30
0.0
11
821.780807903154
21
1.22267136508682
31
0.0
39
0.0
210
0.0
220
0.0
230
1.0
0
ARC
5
11D
330
70
100
AcDbEntity
67
0
8
IV_OUTER_PROFILE
62
256
6
ByLayer
370
-1
48
1.0
60
0
100
AcDbCircle
39
0.0
10
839.850731431174
20
28.2304134161341
30
0.0
40
2.0
210
0.0
220
0.0
230
1.0
100
AcDbArc
50
90.0
51
149.74356283647
0
LINE
5
11E
330
70
100
AcDbEntity
67
0
8
IV_OUTER_PROFILE
62
256
6
ByLayer
370
-1
48
1.0
60
0
100
AcDbLine
10
842.553250101357
20
30.2304134161341
30
0.0
11
839.850731431174
21
30.2304134161341
31
0.0
39
0.0
210
0.0
220
0.0
230
1.0
0
ARC
5
11F
330
70
100
AcDbEntity
67
0
8
IV_OUTER_PROFILE
62
256
6
ByLayer
370
-1
48
1.0
60
0
100
AcDbCircle
39
0.0
10
842.553250101357
20
28.2304134161341
30
0.0
40
2.0
210
0.0
220
0.0
230
1.0
100
AcDbArc
50
30.2564371635302
51
90.0
0
LINE
5
120
330
70
100
AcDbEntity
67
0
8
IV_OUTER_PROFILE
62
256
6
ByLayer
370
-1
48
1.0
60
0
100
AcDbLine
10
860.623173629377
20
1.22267136508675
30
0.0
11
844.280807903154
21
29.2381554671823
31
0.0
39
0.0
210
0.0
220
0.0
230
1.0
0
ARC
5
121
330
70
100
AcDbEntity
67
0
8
IV_OUTER_PROFILE
62
256
6
ByLayer
370
-1
48
1.0
60
0
100
AcDbCircle
39
0.0
10
862.350731431173
20
2.23041341613495
30
0.0
40
2.0
210
0.0
220
0.0
230
1.0
100
AcDbArc
50
210.25643716353
51
270.0
0
LINE
5
122
330
70
100
AcDbEntity
67
0
8
IV_OUTER_PROFILE
62
256
6
ByLayer
370
-1
48
1.0
60
0
100
AcDbLine
10
862.350731431173
20
0.230413416134993
30
0.0
11
880.053250101357
21
0.230413416134922
31
0.0
39
0.0
210
0.0
220
0.0
230
1.0
0
ARC
5
123
330
70
100
AcDbEntity
67
0
8
IV_OUTER_PROFILE
62
256
6
ByLayer
370
-1
48
1.0
60
0
100
AcDbCircle
39
0.0
10
880.053250101357
20
2.23041341613495
30
0.0
40
2.0
210
0.0
220
0.0
230
1.0
100
AcDbArc
50
270.0
51
329.74356283647
0
LINE
5
124
330
70
100
AcDbEntity
67
0
8
IV_OUTER_PROFILE
62
256
6
ByLayer
370
-1
48
1.0
60
0
100
AcDbLine
10
898.123173629377
20
29.2381554671822
30
0.0
11
881.780807903154
21
1.22267136508675
31
0.0
39
0.0
210
0.0
220
0.0
230
1.0
0
ARC
5
125
330
70
100
AcDbEntity
67
0
8
IV_OUTER_PROFILE
62
256
6
ByLayer
370
-1
48
1.0
60
0
100
AcDbCircle
39
0.0
10
899.850731431173
20
28.2304134161341
30
0.0
40
2.0
210
0.0
220
0.0
230
1.0
100
AcDbArc
50
90.0
51
149.743562836472
0
LINE
5
126
330
70
100
AcDbEntity
67
0
8
IV_OUTER_PROFILE
62
256
6
ByLayer
370
-1
48
1.0
60
0
100
AcDbLine
10
902.553250101357
20
30.2304134161341
30
0.0
11
899.850731431173
21
30.2304134161341
31
0.0
39
0.0
210
0.0
220
0.0
230
1.0
0
ARC
5
127
330
70
100
AcDbEntity
67
0
8
IV_OUTER_PROFILE
62
256
6
ByLayer
370
-1
48
1.0
60
0
100
AcDbCircle
39
0.0
10
902.553250101357
20
28.2304134161341
30
0.0
40
2.0
210
0.0
220
0.0
230
1.0
100
AcDbArc
50
30.2564371635302
51
90.0
0
LINE
5
128
330
70
100
AcDbEntity
67
0
8
IV_OUTER_PROFILE
62
256
6
ByLayer
370
-1
48
1.0
60
0
100
AcDbLine
10
920.623173629377
20
1.22267136508682
30
0.0
11
904.280807903154
21
29.2381554671823
31
0.0
39
0.0
210
0.0
220
0.0
230
1.0
0
ARC
5
129
330
70
100
AcDbEntity
67
0
8
IV_OUTER_PROFILE
62
256
6
ByLayer
370
-1
48
1.0
60
0
100
AcDbCircle
39
0.0
10
922.350731431173
20
2.23041341613495
30
0.0
40
2.0
210
0.0
220
0.0
230
1.0
100
AcDbArc
50
210.25643716353
51
270.0
0
LINE
5
12A
330
70
100
AcDbEntity
67
0
8
IV_OUTER_PROFILE
62
256
6
ByLayer
370
-1
48
1.0
60
0
100
AcDbLine
10
922.350731431173
20
0.230413416134922
30
0.0
11
940.053250101357
21
0.230413416134922
31
0.0
39
0.0
210
0.0
220
0.0
230
1.0
0
ARC
5
12B
330
70
100
AcDbEntity
67
0
8
IV_OUTER_PROFILE
62
256
6
ByLayer
370
-1
48
1.0
60
0
100
AcDbCircle
39
0.0
10
940.053250101357
20
2.23041341613495
30
0.0
40
2.0
210
0.0
220
0.0
230
1.0
100
AcDbArc
50
270.0
51
329.74356283647
0
LINE
5
12C
330
70
100
AcDbEntity
67
0
8
IV_OUTER_PROFILE
62
256
6
ByLayer
370
-1
48
1.0
60
0
100
AcDbLine
10
958.123173629377
20
29.2381554671822
30
0.0
11
941.780807903154
21
1.22267136508675
31
0.0
39
0.0
210
0.0
220
0.0
230
1.0
0
ARC
5
12D
330
70
100
AcDbEntity
67
0
8
IV_OUTER_PROFILE
62
256
6
ByLayer
370
-1
48
1.0
60
0
100
AcDbCircle
39
0.0
10
959.850731431173
20
28.2304134161341
30
0.0
40
2.0
210
0.0
220
0.0
230
1.0
100
AcDbArc
50
90.0
51
149.743562836472
0
LINE
5
12E
330
70
100
AcDbEntity
67
0
8
IV_OUTER_PROFILE
62
256
6
ByLayer
370
-1
48
1.0
60
0
100
AcDbLine
10
962.553250101357
20
30.2304134161341
30
0.0
11
959.850731431173
21
30.2304134161341
31
0.0
39
0.0
210
0.0
220
0.0
230
1.0
0
ARC
5
12F
330
70
100
AcDbEntity
67
0
8
IV_OUTER_PROFILE
62
256
6
ByLayer
370
-1
48
1.0
60
0
100
AcDbCircle
39
0.0
10
962.553250101357
20
28.2304134161341
30
0.0
40
2.0
210
0.0
220
0.0
230
1.0
100
AcDbArc
50
30.2564371635284
51
90.0
0
LINE
5
130
330
70
100
AcDbEntity
67
0
8
IV_OUTER_PROFILE
62
256
6
ByLayer
370
-1
48
1.0
60
0
100
AcDbLine
10
980.623173629377
20
1.22267136508675
30
0.0
11
964.280807903154
21
29.2381554671822
31
0.0
39
0.0
210
0.0
220
0.0
230
1.0
0
ARC
5
131
330
70
100
AcDbEntity
67
0
8
IV_OUTER_PROFILE
62
256
6
ByLayer
370
-1
48
1.0
60
0
100
AcDbCircle
39
0.0
10
982.350731431174
20
2.23041341613488
30
0.0
40
2.0
210
0.0
220
0.0
230
1.0
100
AcDbArc
50
210.256437163528
51
270.0
0
LINE
5
132
330
70
100
AcDbEntity
67
0
8
IV_OUTER_PROFILE
62
256
6
ByLayer
370
-1
48
1.0
60
0
100
AcDbLine
10
982.350731431174
20
0.230413416134922
30
0.0
11
1000.05325010136
21
0.230413416134922
31
0.0
39
0.0
210
0.0
220
0.0
230
1.0
0
ARC
5
133
330
70
100
AcDbEntity
67
0
8
IV_OUTER_PROFILE
62
256
6
ByLayer
370
-1
48
1.0
60
0
100
AcDbCircle
39
0.0
10
1000.05325010136
20
2.23041341613488
30
0.0
40
2.0
210
0.0
220
0.0
230
1.0
100
AcDbArc
50
270.0
51
329.743562836472
0
LINE
5
134
330
70
100
AcDbEntity
67
0
8
IV_OUTER_PROFILE
62
256
6
ByLayer
370
-1
48
1.0
60
0
100
AcDbLine
10
1018.12317362938
20
29.2381554671822
30
0.0
11
1001.78080790315
21
1.22267136508675
31
0.0
39
0.0
210
0.0
220
0.0
230
1.0
0
ARC
5
135
330
70
100
AcDbEntity
67
0
8
IV_OUTER_PROFILE
62
256
6
ByLayer
370
-1
48
1.0
60
0
100
AcDbCircle
39
0.0
10
1019.85073143117
20
28.230413416134
30
0.0
40
2.0
210
0.0
220
0.0
230
1.0
100
AcDbArc
50
90.0
51
149.74356283647
0
LINE
5
136
330
70
100
AcDbEntity
67
0
8
IV_OUTER_PROFILE
62
256
6
ByLayer
370
-1
48
1.0
60
0
100
AcDbLine
10
1022.55325010136
20
30.2304134161341
30
0.0
11
1019.85073143117
21
30.230413416134
31
0.0
39
0.0
210
0.0
220
0.0
230
1.0
0
ARC
5
137
330
70
100
AcDbEntity
67
0
8
IV_OUTER_PROFILE
62
256
6
ByLayer
370
-1
48
1.0
60
0
100
AcDbCircle
39
0.0
10
1022.55325010136
20
28.230413416134
30
0.0
40
2.0
210
0.0
220
0.0
230
1.0
100
AcDbArc
50
30.2564371635302
51
90.0
0
LINE
5
138
330
70
100
AcDbEntity
67
0
8
IV_OUTER_PROFILE
62
256
6
ByLayer
370
-1
48
1.0
60
0
100
AcDbLine
10
1040.62317362938
20
1.22267136508661
30
0.0
11
1024.28080790315
21
29.2381554671822
31
0.0
39
0.0
210
0.0
220
0.0
230
1.0
0
ARC
5
139
330
70
100
AcDbEntity
67
0
8
IV_OUTER_PROFILE
62
256
6
ByLayer
370
-1
48
1.0
60
0
100
AcDbCircle
39
0.0
10
1042.35073143117
20
2.23041341613488
30
0.0
40
2.0
210
0.0
220
0.0
230
1.0
100
AcDbArc
50
210.25643716353
51
270.0
0
LINE
5
13A
330
70
100
AcDbEntity
67
0
8
IV_OUTER_PROFILE
62
256
6
ByLayer
370
-1
48
1.0
60
0
100
AcDbLine
10
1042.35073143117
20
0.230413416134851
30
0.0
11
1060.05325010136
21
0.230413416134922
31
0.0
39
0.0
210
0.0
220
0.0
230
1.0
0
ARC
5
13B
330
70
100
AcDbEntity
67
0
8
IV_OUTER_PROFILE
62
256
6
ByLayer
370
-1
48
1.0
60
0
100
AcDbCircle
39
0.0
10
1060.05325010136
20
2.23041341613488
30
0.0
40
2.0
210
0.0
220
0.0
230
1.0
100
AcDbArc
50
270.0
51
329.74356283647
0
LINE
5
13C
330
70
100
AcDbEntity
67
0
8
IV_OUTER_PROFILE
62
256
6
ByLayer
370
-1
48
1.0
60
0
100
AcDbLine
10
1078.12317362938
20
29.2381554671822
30
0.0
11
1061.78080790315
21
1.22267136508668
31
0.0
39
0.0
210
0.0
220
0.0
230
1.0
0
ARC
5
13D
330
70
100
AcDbEntity
67
0
8
IV_OUTER_PROFILE
62
256
6
ByLayer
370
-1
48
1.0
60
0
100
AcDbCircle
39
0.0
10
1079.85073143117
20
28.230413416134
30
0.0
40
2.0
210
0.0
220
0.0
230
1.0
100
AcDbArc
50
90.0
51
149.74356283647
0
LINE
5
13E
330
70
100
AcDbEntity
67
0
8
IV_OUTER_PROFILE
62
256
6
ByLayer
370
-1
48
1.0
60
0
100
AcDbLine
10
1082.55325010136
20
30.230413416134
30
0.0
11
1079.85073143117
21
30.230413416134
31
0.0
39
0.0
210
0.0
220
0.0
230
1.0
0
ARC
5
13F
330
70
100
AcDbEntity
67
0
8
IV_OUTER_PROFILE
62
256
6
ByLayer
370
-1
48
1.0
60
0
100
AcDbCircle
39
0.0
10
1082.55325010136
20
28.230413416134
30
0.0
40
2.0
210
0.0
220
0.0
230
1.0
100
AcDbArc
50
30.2564371635302
51
90.0
0
LINE
5
140
330
70
100
AcDbEntity
67
0
8
IV_OUTER_PROFILE
62
256
6
ByLayer
370
-1
48
1.0
60
0
100
AcDbLine
10
1100.62317362938
20
1.22267136508668
30
0.0
11
1084.28080790315
21
29.2381554671822
31
0.0
39
0.0
210
0.0
220
0.0
230
1.0
0
ARC
5
141
330
70
100
AcDbEntity
67
0
8
IV_OUTER_PROFILE
62
256
6
ByLayer
370
-1
48
1.0
60
0
100
AcDbCircle
39
0.0
10
1102.35073143117
20
2.23041341613488
30
0.0
40
2.0
210
0.0
220
0.0
230
1.0
100
AcDbArc
50
210.256437163528
51
270.0
0
LINE
5
142
330
70
100
AcDbEntity
67
0
8
IV_OUTER_PROFILE
62
256
6
ByLayer
370
-1
48
1.0
60
0
100
AcDbLine
10
1102.35073143117
20
0.230413416134851
30
0.0
11
1120.05325010136
21
0.230413416134851
31
0.0
39
0.0
210
0.0
220
0.0
230
1.0
0
ARC
5
143
330
70
100
AcDbEntity
67
0
8
IV_OUTER_PROFILE
62
256
6
ByLayer
370
-1
48
1.0
60
0
100
AcDbCircle
39
0.0
10
1120.05325010136
20
2.23041341613488
30
0.0
40
2.0
210
0.0
220
0.0
230
1.0
100
AcDbArc
50
270.0
51
329.743562836472
0
LINE
5
144
330
70
100
AcDbEntity
67
0
8
IV_OUTER_PROFILE
62
256
6
ByLayer
370
-1
48
1.0
60
0
100
AcDbLine
10
1138.12317362938
20
29.2381554671822
30
0.0
11
1121.78080790315
21
1.22267136508675
31
0.0
39
0.0
210
0.0
220
0.0
230
1.0
0
ARC
5
145
330
70
100
AcDbEntity
67
0
8
IV_OUTER_PROFILE
62
256
6
ByLayer
370
-1
48
1.0
60
0
100
AcDbCircle
39
0.0
10
1139.85073143117
20
28.230413416134
30
0.0
40
2.0
210
0.0
220
0.0
230
1.0
100
AcDbArc
50
90.0
51
149.74356283647
0
LINE
5
146
330
70
100
AcDbEntity
67
0
8
IV_OUTER_PROFILE
62
256
6
ByLayer
370
-1
48
1.0
60
0
100
AcDbLine
10
1142.55325010136
20
30.230413416134
30
0.0
11
1139.85073143117
21
30.230413416134
31
0.0
39
0.0
210
0.0
220
0.0
230
1.0
0
ARC
5
147
330
70
100
AcDbEntity
67
0
8
IV_OUTER_PROFILE
62
256
6
ByLayer
370
-1
48
1.0
60
0
100
AcDbCircle
39
0.0
10
1142.55325010136
20
28.230413416134
30
0.0
40
2.0
210
0.0
220
0.0
230
1.0
100
AcDbArc
50
30.2564371635302
51
90.0
0
LINE
5
148
330
70
100
AcDbEntity
67
0
8
IV_OUTER_PROFILE
62
256
6
ByLayer
370
-1
48
1.0
60
0
100
AcDbLine
10
1160.62317362938
20
1.22267136508668
30
0.0
11
1144.28080790315
21
29.2381554671822
31
0.0
39
0.0
210
0.0
220
0.0
230
1.0
0
ARC
5
149
330
70
100
AcDbEntity
67
0
8
IV_OUTER_PROFILE
62
256
6
ByLayer
370
-1
48
1.0
60
0
100
AcDbCircle
39
0.0
10
1162.35073143117
20
2.23041341613481
30
0.0
40
2.0
210
0.0
220
0.0
230
1.0
100
AcDbArc
50
210.25643716353
51
270.0
0
LINE
5
14A
330
70
100
AcDbEntity
67
0
8
IV_OUTER_PROFILE
62
256
6
ByLayer
370
-1
48
1.0
60
0
100
AcDbLine
10
1162.35073143117
20
0.23041341613478
30
0.0
11
1180.05325010136
21
0.23041341613478
31
0.0
39
0.0
210
0.0
220
0.0
230
1.0
0
ARC
5
14B
330
70
100
AcDbEntity
67
0
8
IV_OUTER_PROFILE
62
256
6
ByLayer
370
-1
48
1.0
60
0
100
AcDbCircle
39
0.0
10
1180.05325010136
20
2.23041341613481
30
0.0
40
2.0
210
0.0
220
0.0
230
1.0
100
AcDbArc
50
270.0
51
329.74356283647
0
LINE
5
14C
330
70
100
AcDbEntity
67
0
8
IV_OUTER_PROFILE
62
256
6
ByLayer
370
-1
48
1.0
60
0
100
AcDbLine
10
1198.12317362938
20
29.2381554671822
30
0.0
11
1181.78080790315
21
1.22267136508661
31
0.0
39
0.0
210
0.0
220
0.0
230
1.0
0
ARC
5
14D
330
70
100
AcDbEntity
67
0
8
IV_OUTER_PROFILE
62
256
6
ByLayer
370
-1
48
1.0
60
0
100
AcDbCircle
39
0.0
10
1199.85073143117
20
28.2304134161339
30
0.0
40
2.0
210
0.0
220
0.0
230
1.0
100
AcDbArc
50
90.0
51
149.743562836468
0
LINE
5
14E
330
70
100
AcDbEntity
67
0
8
IV_OUTER_PROFILE
62
256
6
ByLayer
370
-1
48
1.0
60
0
100
AcDbLine
10
1202.55325010136
20
30.2304134161339
30
0.0
11
1199.85073143117
21
30.2304134161339
31
0.0
39
0.0
210
0.0
220
0.0
230
1.0
0
ARC
5
14F
330
70
100
AcDbEntity
67
0
8
IV_OUTER_PROFILE
62
256
6
ByLayer
370
-1
48
1.0
60
0
100
AcDbCircle
39
0.0
10
1202.55325010136
20
28.2304134161339
30
0.0
40
2.0
210
0.0
220
0.0
230
1.0
100
AcDbArc
50
30.2564371635302
51
90.0
0
LINE
5
150
330
70
100
AcDbEntity
67
0
8
IV_OUTER_PROFILE
62
256
6
ByLayer
370
-1
48
1.0
60
0
100
AcDbLine
10
1220.62317362938
20
1.22267136508661
30
0.0
11
1204.28080790315
21
29.2381554671821
31
0.0
39
0.0
210
0.0
220
0.0
230
1.0
0
ARC
5
151
330
70
100
AcDbEntity
67
0
8
IV_OUTER_PROFILE
62
256
6
ByLayer
370
-1
48
1.0
60
0
100
AcDbCircle
39
0.0
10
1222.35073143117
20
2.23041341613474
30
0.0
40
2.0
210
0.0
220
0.0
230
1.0
100
AcDbArc
50
210.25643716353
51
270.0
0
LINE
5
152
330
70
100
AcDbEntity
67
0
8
IV_OUTER_PROFILE
62
256
6
ByLayer
370
-1
48
1.0
60
0
100
AcDbLine
10
1222.35073143117
20
0.230413416134709
30
0.0
11
1240.05325010136
21
0.23041341613478
31
0.0
39
0.0
210
0.0
220
0.0
230
1.0
0
ARC
5
153
330
70
100
AcDbEntity
67
0
8
IV_OUTER_PROFILE
62
256
6
ByLayer
370
-1
48
1.0
60
0
100
AcDbCircle
39
0.0
10
1240.05325010136
20
2.23041341613474
30
0.0
40
2.0
210
0.0
220
0.0
230
1.0
100
AcDbArc
50
270.0
51
329.74356283647
0
LINE
5
154
330
70
100
AcDbEntity
67
0
8
IV_OUTER_PROFILE
62
256
6
ByLayer
370
-1
48
1.0
60
0
100
AcDbLine
10
1258.12317362938
20
29.238155467182
30
0.0
11
1241.78080790315
21
1.22267136508654
31
0.0
39
0.0
210
0.0
220
0.0
230
1.0
0
ARC
5
155
330
70
100
AcDbEntity
67
0
8
IV_OUTER_PROFILE
62
256
6
ByLayer
370
-1
48
1.0
60
0
100
AcDbCircle
39
0.0
10
1259.85073143117
20
28.2304134161339
30
0.0
40
2.0
210
0.0
220
0.0
230
1.0
100
AcDbArc
50
90.0
51
149.743562836472
0
LINE
5
156
330
70
100
AcDbEntity
67
0
8
IV_OUTER_PROFILE
62
256
6
ByLayer
370
-1
48
1.0
60
0
100
AcDbLine
10
1262.55325010136
20
30.2304134161339
30
0.0
11
1259.85073143117
21
30.2304134161339
31
0.0
39
0.0
210
0.0
220
0.0
230
1.0
0
ARC
5
157
330
70
100
AcDbEntity
67
0
8
IV_OUTER_PROFILE
62
256
6
ByLayer
370
-1
48
1.0
60
0
100
AcDbCircle
39
0.0
10
1262.55325010136
20
28.2304134161339
30
0.0
40
2.0
210
0.0
220
0.0
230
1.0
100
AcDbArc
50
30.2564371635319
51
90.0
0
LINE
5
158
330
70
100
AcDbEntity
67
0
8
IV_OUTER_PROFILE
62
256
6
ByLayer
370
-1
48
1.0
60
0
100
AcDbLine
10
1280.62317362938
20
1.22267136508654
30
0.0
11
1264.28080790315
21
29.2381554671822
31
0.0
39
0.0
210
0.0
220
0.0
230
1.0
0
ARC
5
159
330
70
100
AcDbEntity
67
0
8
IV_OUTER_PROFILE
62
256
6
ByLayer
370
-1
48
1.0
60
0
100
AcDbCircle
39
0.0
10
1282.35073143117
20
2.23041341613474
30
0.0
40
2.0
210
0.0
220
0.0
230
1.0
100
AcDbArc
50
210.256437163528
51
270.0
0
LINE
5
15A
330
70
100
AcDbEntity
67
0
8
IV_OUTER_PROFILE
62
256
6
ByLayer
370
-1
48
1.0
60
0
100
AcDbLine
10
1282.35073143117
20
0.230413416134709
30
0.0
11
1300.05325010136
21
0.23041341613478
31
0.0
39
0.0
210
0.0
220
0.0
230
1.0
0
ARC
5
15B
330
70
100
AcDbEntity
67
0
8
IV_OUTER_PROFILE
62
256
6
ByLayer
370
-1
48
1.0
60
0
100
AcDbCircle
39
0.0
10
1300.05325010136
20
2.23041341613474
30
0.0
40
2.0
210
0.0
220
0.0
230
1.0
100
AcDbArc
50
270.0
51
329.743562836466
0
LINE
5
15C
330
70
100
AcDbEntity
67
0
8
IV_OUTER_PROFILE
62
256
6
ByLayer
370
-1
48
1.0
60
0
100
AcDbLine
10
1318.12317362938
20
29.2381554671821
30
0.0
11
1301.78080790315
21
1.22267136508647
31
0.0
39
0.0
210
0.0
220
0.0
230
1.0
0
ARC
5
15D
330
70
100
AcDbEntity
67
0
8
IV_OUTER_PROFILE
62
256
6
ByLayer
370
-1
48
1.0
60
0
100
AcDbCircle
39
0.0
10
1319.85073143117
20
28.2304134161339
30
0.0
40
2.0
210
0.0
220
0.0
230
1.0
100
AcDbArc
50
90.0
51
149.743562836472
0
LINE
5
15E
330
70
100
AcDbEntity
67
0
8
IV_OUTER_PROFILE
62
256
6
ByLayer
370
-1
48
1.0
60
0
100
AcDbLine
10
1322.55325010136
20
30.2304134161339
30
0.0
11
1319.85073143117
21
30.2304134161339
31
0.0
39
0.0
210
0.0
220
0.0
230
1.0
0
ARC
5
15F
330
70
100
AcDbEntity
67
0
8
IV_OUTER_PROFILE
62
256
6
ByLayer
370
-1
48
1.0
60
0
100
AcDbCircle
39
0.0
10
1322.55325010136
20
28.2304134161339
30
0.0
40
2.0
210
0.0
220
0.0
230
1.0
100
AcDbArc
50
30.2564371635298
51
90.0
0
LINE
5
160
330
70
100
AcDbEntity
67
0
8
IV_OUTER_PROFILE
62
256
6
ByLayer
370
-1
48
1.0
60
0
100
AcDbLine
10
1340.62317362938
20
1.22267136508654
30
0.0
11
1324.28080790315
21
29.2381554671822
31
0.0
39
0.0
210
0.0
220
0.0
230
1.0
0
ARC
5
161
330
70
100
AcDbEntity
67
0
8
IV_OUTER_PROFILE
62
256
6
ByLayer
370
-1
48
1.0
60
0
100
AcDbCircle
39
0.0
10
1342.35073143117
20
2.23041341613474
30
0.0
40
2.0
210
0.0
220
0.0
230
1.0
100
AcDbArc
50
210.256437163528
51
270.0
0
LINE
5
162
330
70
100
AcDbEntity
67
0
8
IV_OUTER_PROFILE
62
256
6
ByLayer
370
-1
48
1.0
60
0
100
AcDbLine
10
1342.35073143117
20
0.230413416134709
30
0.0
11
1360.05325010136
21
0.230413416134709
31
0.0
39
0.0
210
0.0
220
0.0
230
1.0
0
ARC
5
163
330
70
100
AcDbEntity
67
0
8
IV_OUTER_PROFILE
62
256
6
ByLayer
370
-1
48
1.0
60
0
100
AcDbCircle
39
0.0
10
1360.05325010136
20
2.23041341613474
30
0.0
40
2.0
210
0.0
220
0.0
230
1.0
100
AcDbArc
50
270.0
51
329.743562836468
0
LINE
5
164
330
70
100
AcDbEntity
67
0
8
IV_OUTER_PROFILE
62
256
6
ByLayer
370
-1
48
1.0
60
0
100
AcDbLine
10
1378.12317362938
20
29.2381554671821
30
0.0
11
1361.78080790315
21
1.22267136508654
31
0.0
39
0.0
210
0.0
220
0.0
230
1.0
0
ARC
5
165
330
70
100
AcDbEntity
67
0
8
IV_OUTER_PROFILE
62
256
6
ByLayer
370
-1
48
1.0
60
0
100
AcDbCircle
39
0.0
10
1379.85073143117
20
28.2304134161339
30
0.0
40
2.0
210
0.0
220
0.0
230
1.0
100
AcDbArc
50
90.0
51
149.743562836472
0
LINE
5
166
330
70
100
AcDbEntity
67
0
8
IV_OUTER_PROFILE
62
256
6
ByLayer
370
-1
48
1.0
60
0
100
AcDbLine
10
1382.55325010136
20
30.2304134161339
30
0.0
11
1379.85073143117
21
30.2304134161339
31
0.0
39
0.0
210
0.0
220
0.0
230
1.0
0
ARC
5
167
330
70
100
AcDbEntity
67
0
8
IV_OUTER_PROFILE
62
256
6
ByLayer
370
-1
48
1.0
60
0
100
AcDbCircle
39
0.0
10
1382.55325010136
20
28.2304134161339
30
0.0
40
2.0
210
0.0
220
0.0
230
1.0
100
AcDbArc
50
30.2564371635281
51
90.0
0
LINE
5
168
330
70
100
AcDbEntity
67
0
8
IV_OUTER_PROFILE
62
256
6
ByLayer
370
-1
48
1.0
60
0
100
AcDbLine
10
1400.62317362938
20
1.22267136508647
30
0.0
11
1384.28080790315
21
29.2381554671821
31
0.0
39
0.0
210
0.0
220
0.0
230
1.0
0
ARC
5
169
330
70
100
AcDbEntity
67
0
8
IV_OUTER_PROFILE
62
256
6
ByLayer
370
-1
48
1.0
60
0
100
AcDbCircle
39
0.0
10
1402.35073143117
20
2.23041341613474
30
0.0
40
2.0
210
0.0
220
0.0
230
1.0
100
AcDbArc
50
210.25643716353
51
270.0
0
LINE
5
16A
330
70
100
AcDbEntity
67
0
8
IV_OUTER_PROFILE
62
256
6
ByLayer
370
-1
48
1.0
60
0
100
AcDbLine
10
1402.35073143117
20
0.230413416134709
30
0.0
11
1420.05325010136
21
0.230413416134709
31
0.0
39
0.0
210
0.0
220
0.0
230
1.0
0
ARC
5
16B
330
70
100
AcDbEntity
67
0
8
IV_OUTER_PROFILE
62
256
6
ByLayer
370
-1
48
1.0
60
0
100
AcDbCircle
39
0.0
10
1420.05325010136
20
2.23041341613474
30
0.0
40
2.0
210
0.0
220
0.0
230
1.0
100
AcDbArc
50
270.0
51
329.743562836476
0
LINE
5
16C
330
70
100
AcDbEntity
67
0
8
IV_OUTER_PROFILE
62
256
6
ByLayer
370
-1
48
1.0
60
0
100
AcDbLine
10
1438.12317362938
20
29.2381554671822
30
0.0
11
1421.78080790315
21
1.22267136508668
31
0.0
39
0.0
210
0.0
220
0.0
230
1.0
0
ARC
5
16D
330
70
100
AcDbEntity
67
0
8
IV_OUTER_PROFILE
62
256
6
ByLayer
370
-1
48
1.0
60
0
100
AcDbCircle
39
0.0
10
1439.85073143117
20
28.2304134161338
30
0.0
40
2.0
210
0.0
220
0.0
230
1.0
100
AcDbArc
50
90.0
51
149.743562836468
0
LINE
5
16E
330
70
100
AcDbEntity
67
0
8
IV_OUTER_PROFILE
62
256
6
ByLayer
370
-1
48
1.0
60
0
100
AcDbLine
10
1442.55325010136
20
30.2304134161339
30
0.0
11
1439.85073143117
21
30.2304134161339
31
0.0
39
0.0
210
0.0
220
0.0
230
1.0
0
ARC
5
16F
330
70
100
AcDbEntity
67
0
8
IV_OUTER_PROFILE
62
256
6
ByLayer
370
-1
48
1.0
60
0
100
AcDbCircle
39
0.0
10
1442.55325010136
20
28.2304134161338
30
0.0
40
2.0
210
0.0
220
0.0
230
1.0
100
AcDbArc
50
30.2564371635298
51
90.0
0
LINE
5
170
330
70
100
AcDbEntity
67
0
8
IV_OUTER_PROFILE
62
256
6
ByLayer
370
-1
48
1.0
60
0
100
AcDbLine
10
1460.62317362938
20
1.22267136508661
30
0.0
11
1444.28080790315
21
29.2381554671821
31
0.0
39
0.0
210
0.0
220
0.0
230
1.0
0
ARC
5
171
330
70
100
AcDbEntity
67
0
8
IV_OUTER_PROFILE
62
256
6
ByLayer
370
-1
48
1.0
60
0
100
AcDbCircle
39
0.0
10
1462.35073143117
20
2.23041341613467
30
0.0
40
2.0
210
0.0
220
0.0
230
1.0
100
AcDbArc
50
210.256437163529
51
270.0
0
LINE
5
172
330
70
100
AcDbEntity
67
0
8
IV_OUTER_PROFILE
62
256
6
ByLayer
370
-1
48
1.0
60
0
100
AcDbLine
10
1462.35073143117
20
0.230413416134709
30
0.0
11
1480.05325010136
21
0.230413416134638
31
0.0
39
0.0
210
0.0
220
0.0
230
1.0
0
ARC
5
173
330
70
100
AcDbEntity
67
0
8
IV_OUTER_PROFILE
62
256
6
ByLayer
370
-1
48
1.0
60
0
100
AcDbCircle
39
0.0
10
1480.05325010136
20
2.2304134161346
30
0.0
40
2.0
210
0.0
220
0.0
230
1.0
100
AcDbArc
50
270.0
51
329.743562836476
0
LINE
5
174
330
70
100
AcDbEntity
67
0
8
IV_OUTER_PROFILE
62
256
6
ByLayer
370
-1
48
1.0
60
0
100
AcDbLine
10
1498.12317362938
20
29.238155467182
30
0.0
11
1481.78080790315
21
1.22267136508654
31
0.0
39
0.0
210
0.0
220
0.0
230
1.0
0
ARC
5
175
330
70
100
AcDbEntity
67
0
8
IV_OUTER_PROFILE
62
256
6
ByLayer
370
-1
48
1.0
60
0
100
AcDbCircle
39
0.0
10
1499.85073143117
20
28.2304134161338
30
0.0
40
2.0
210
0.0
220
0.0
230
1.0
100
AcDbArc
50
90.0
51
149.74356283647
0
LINE
5
176
330
70
100
AcDbEntity
67
0
8
IV_OUTER_PROFILE
62
256
6
ByLayer
370
-1
48
1.0
60
0
100
AcDbLine
10
1502.55325010136
20
30.2304134161338
30
0.0
11
1499.85073143117
21
30.2304134161338
31
0.0
39
0.0
210
0.0
220
0.0
230
1.0
0
ARC
5
177
330
70
100
AcDbEntity
67
0
8
IV_OUTER_PROFILE
62
256
6
ByLayer
370
-1
48
1.0
60
0
100
AcDbCircle
39
0.0
10
1502.55325010136
20
28.2304134161338
30
0.0
40
2.0
210
0.0
220
0.0
230
1.0
100
AcDbArc
50
30.2564371635263
51
90.0
0
LINE
5
178
330
70
100
AcDbEntity
67
0
8
IV_OUTER_PROFILE
62
256
6
ByLayer
370
-1
48
1.0
60
0
100
AcDbLine
10
1520.62317362938
20
1.22267136508633
30
0.0
11
1504.28080790315
21
29.2381554671819
31
0.0
39
0.0
210
0.0
220
0.0
230
1.0
0
ARC
5
179
330
70
100
AcDbEntity
67
0
8
IV_OUTER_PROFILE
62
256
6
ByLayer
370
-1
48
1.0
60
0
100
AcDbCircle
39
0.0
10
1522.35073143117
20
2.2304134161346
30
0.0
40
2.0
210
0.0
220
0.0
230
1.0
100
AcDbArc
50
210.25643716353
51
270.0
0
LINE
5
17A
330
70
100
AcDbEntity
67
0
8
IV_OUTER_PROFILE
62
256
6
ByLayer
370
-1
48
1.0
60
0
100
AcDbLine
10
1522.35073143117
20
0.230413416134567
30
0.0
11
1540.05325010136
21
0.230413416134567
31
0.0
39
0.0
210
0.0
220
0.0
230
1.0
0
ARC
5
17B
330
70
100
AcDbEntity
67
0
8
IV_OUTER_PROFILE
62
256
6
ByLayer
370
-1
48
1.0
60
0
100
AcDbCircle
39
0.0
10
1540.05325010136
20
2.2304134161346
30
0.0
40
2.0
210
0.0
220
0.0
230
1.0
100
AcDbArc
50
270.0
51
329.74356283647
0
LINE
5
17C
330
70
100
AcDbEntity
67
0
8
IV_OUTER_PROFILE
62
256
6
ByLayer
370
-1
48
1.0
60
0
100
AcDbLine
10
1558.12317362938
20
29.238155467182
30
0.0
11
1541.78080790315
21
1.22267136508633
31
0.0
39
0.0
210
0.0
220
0.0
230
1.0
0
ARC
5
17D
330
70
100
AcDbEntity
67
0
8
IV_OUTER_PROFILE
62
256
6
ByLayer
370
-1
48
1.0
60
0
100
AcDbCircle
39
0.0
10
1559.85073143117
20
28.2304134161338
30
0.0
40
2.0
210
0.0
220
0.0
230
1.0
100
AcDbArc
50
90.0
51
149.743562836472
0
LINE
5
17E
330
70
100
AcDbEntity
67
0
8
IV_OUTER_PROFILE
62
256
6
ByLayer
370
-1
48
1.0
60
0
100
AcDbLine
10
1562.55325010136
20
30.2304134161338
30
0.0
11
1559.85073143117
21
30.2304134161338
31
0.0
39
0.0
210
0.0
220
0.0
230
1.0
0
ARC
5
17F
330
70
100
AcDbEntity
67
0
8
IV_OUTER_PROFILE
62
256
6
ByLayer
370
-1
48
1.0
60
0
100
AcDbCircle
39
0.0
10
1562.55325010136
20
28.2304134161338
30
0.0
40
2.0
210
0.0
220
0.0
230
1.0
100
AcDbArc
50
30.2564371635281
51
90.0
0
LINE
5
180
330
70
100
AcDbEntity
67
0
8
IV_OUTER_PROFILE
62
256
6
ByLayer
370
-1
48
1.0
60
0
100
AcDbLine
10
1580.62317362938
20
1.22267136508626
30
0.0
11
1564.28080790315
21
29.238155467182
31
0.0
39
0.0
210
0.0
220
0.0
230
1.0
0
ARC
5
181
330
70
100
AcDbEntity
67
0
8
IV_OUTER_PROFILE
62
256
6
ByLayer
370
-1
48
1.0
60
0
100
AcDbCircle
39
0.0
10
1582.35073143117
20
2.2304134161346
30
0.0
40
2.0
210
0.0
220
0.0
230
1.0
100
AcDbArc
50
210.256437163527
51
270.0
0
LINE
5
182
330
70
100
AcDbEntity
67
0
8
IV_OUTER_PROFILE
62
256
6
ByLayer
370
-1
48
1.0
60
0
100
AcDbLine
10
1582.35073143117
20
0.230413416134567
30
0.0
11
1600.05325010136
21
0.230413416134567
31
0.0
39
0.0
210
0.0
220
0.0
230
1.0
0
ARC
5
183
330
70
100
AcDbEntity
67
0
8
IV_OUTER_PROFILE
62
256
6
ByLayer
370
-1
48
1.0
60
0
100
AcDbCircle
39
0.0
10
1600.05325010136
20
2.2304134161346
30
0.0
40
2.0
210
0.0
220
0.0
230
1.0
100
AcDbArc
50
270.0
51
329.743562836476
0
LINE
5
184
330
70
100
AcDbEntity
67
0
8
IV_OUTER_PROFILE
62
256
6
ByLayer
370
-1
48
1.0
60
0
100
AcDbLine
10
1618.12317362938
20
29.238155467182
30
0.0
11
1601.78080790315
21
1.22267136508654
31
0.0
39
0.0
210
0.0
220
0.0
230
1.0
0
ARC
5
185
330
70
100
AcDbEntity
67
0
8
IV_OUTER_PROFILE
62
256
6
ByLayer
370
-1
48
1.0
60
0
100
AcDbCircle
39
0.0
10
1619.85073143117
20
28.2304134161338
30
0.0
40
2.0
210
0.0
220
0.0
230
1.0
100
AcDbArc
50
90.0
51
149.743562836472
0
LINE
5
186
330
70
100
AcDbEntity
67
0
8
IV_OUTER_PROFILE
62
256
6
ByLayer
370
-1
48
1.0
60
0
100
AcDbLine
10
1622.55325010136
20
30.2304134161337
30
0.0
11
1619.85073143117
21
30.2304134161338
31
0.0
39
0.0
210
0.0
220
0.0
230
1.0
0
ARC
5
187
330
70
100
AcDbEntity
67
0
8
IV_OUTER_PROFILE
62
256
6
ByLayer
370
-1
48
1.0
60
0
100
AcDbCircle
39
0.0
10
1622.55325010136
20
28.2304134161338
30
0.0
40
2.0
210
0.0
220
0.0
230
1.0
100
AcDbArc
50
30.2564371635281
51
90.0
0
LINE
5
188
330
70
100
AcDbEntity
67
0
8
IV_OUTER_PROFILE
62
256
6
ByLayer
370
-1
48
1.0
60
0
100
AcDbLine
10
1640.62317362938
20
1.2226713650864
30
0.0
11
1624.28080790315
21
29.238155467182
31
0.0
39
0.0
210
0.0
220
0.0
230
1.0
0
ARC
5
189
330
70
100
AcDbEntity
67
0
8
IV_OUTER_PROFILE
62
256
6
ByLayer
370
-1
48
1.0
60
0
100
AcDbCircle
39
0.0
10
1642.35073143117
20
2.2304134161346
30
0.0
40
2.0
210
0.0
220
0.0
230
1.0
100
AcDbArc
50
210.256437163528
51
270.0
0
LINE
5
18A
330
70
100
AcDbEntity
67
0
8
IV_OUTER_PROFILE
62
256
6
ByLayer
370
-1
48
1.0
60
0
100
AcDbLine
10
1642.35073143117
20
0.230413416134567
30
0.0
11
1660.05325010136
21
0.230413416134567
31
0.0
39
0.0
210
0.0
220
0.0
230
1.0
0
ARC
5
18B
330
70
100
AcDbEntity
67
0
8
IV_OUTER_PROFILE
62
256
6
ByLayer
370
-1
48
1.0
60
0
100
AcDbCircle
39
0.0
10
1660.05325010136
20
2.2304134161346
30
0.0
40
2.0
210
0.0
220
0.0
230
1.0
100
AcDbArc
50
270.0
51
329.743562836474
0
LINE
5
18C
330
70
100
AcDbEntity
67
0
8
IV_OUTER_PROFILE
62
256
6
ByLayer
370
-1
48
1.0
60
0
100
AcDbLine
10
1678.12317362938
20
29.2381554671819
30
0.0
11
1661.78080790315
21
1.22267136508647
31
0.0
39
0.0
210
0.0
220
0.0
230
1.0
0
ARC
5
18D
330
70
100
AcDbEntity
67
0
8
IV_OUTER_PROFILE
62
256
6
ByLayer
370
-1
48
1.0
60
0
100
AcDbCircle
39
0.0
10
1679.85073143117
20
28.2304134161337
30
0.0
40
2.0
210
0.0
220
0.0
230
1.0
100
AcDbArc
50
90.0
51
149.743562836472
0
LINE
5
18E
330
70
100
AcDbEntity
67
0
8
IV_OUTER_PROFILE
62
256
6
ByLayer
370
-1
48
1.0
60
0
100
AcDbLine
10
1682.55325010136
20
30.2304134161337
30
0.0
11
1679.85073143117
21
30.2304134161337
31
0.0
39
0.0
210
0.0
220
0.0
230
1.0
0
ARC
5
18F
330
70
100
AcDbEntity
67
0
8
IV_OUTER_PROFILE
62
256
6
ByLayer
370
-1
48
1.0
60
0
100
AcDbCircle
39
0.0
10
1682.55325010136
20
28.2304134161337
30
0.0
40
2.0
210
0.0
220
0.0
230
1.0
100
AcDbArc
50
30.2564371635281
51
90.0
0
LINE
5
190
330
70
100
AcDbEntity
67
0
8
IV_OUTER_PROFILE
62
256
6
ByLayer
370
-1
48
1.0
60
0
100
AcDbLine
10
1700.62317362938
20
1.22267136508618
30
0.0
11
1684.28080790315
21
29.2381554671819
31
0.0
39
0.0
210
0.0
220
0.0
230
1.0
0
ARC
5
191
330
70
100
AcDbEntity
67
0
8
IV_OUTER_PROFILE
62
256
6
ByLayer
370
-1
48
1.0
60
0
100
AcDbCircle
39
0.0
10
1702.35073143117
20
2.23041341613452
30
0.0
40
2.0
210
0.0
220
0.0
230
1.0
100
AcDbArc
50
210.256437163527
51
270.0
0
LINE
5
192
330
70
100
AcDbEntity
67
0
8
IV_OUTER_PROFILE
62
256
6
ByLayer
370
-1
48
1.0
60
0
100
AcDbLine
10
1702.35073143118
20
0.230413416134496
30
0.0
11
1720.05325010136
21
0.230413416134567
31
0.0
39
0.0
210
0.0
220
0.0
230
1.0
0
ARC
5
193
330
70
100
AcDbEntity
67
0
8
IV_OUTER_PROFILE
62
256
6
ByLayer
370
-1
48
1.0
60
0
100
AcDbCircle
39
0.0
10
1720.05325010136
20
2.23041341613452
30
0.0
40
2.0
210
0.0
220
0.0
230
1.0
100
AcDbArc
50
270.0
51
329.743562836476
0
LINE
5
194
330
70
100
AcDbEntity
67
0
8
IV_OUTER_PROFILE
62
256
6
ByLayer
370
-1
48
1.0
60
0
100
AcDbLine
10
1738.12317362938
20
29.238155467182
30
0.0
11
1721.78080790315
21
1.22267136508647
31
0.0
39
0.0
210
0.0
220
0.0
230
1.0
0
ARC
5
195
330
70
100
AcDbEntity
67
0
8
IV_OUTER_PROFILE
62
256
6
ByLayer
370
-1
48
1.0
60
0
100
AcDbCircle
39
0.0
10
1739.85073143117
20
28.2304134161337
30
0.0
40
2.0
210
0.0
220
0.0
230
1.0
100
AcDbArc
50
90.0
51
149.74356283647
0
LINE
5
196
330
70
100
AcDbEntity
67
0
8
IV_OUTER_PROFILE
62
256
6
ByLayer
370
-1
48
1.0
60
0
100
AcDbLine
10
1742.55325010136
20
30.2304134161337
30
0.0
11
1739.85073143117
21
30.2304134161337
31
0.0
39
0.0
210
0.0
220
0.0
230
1.0
0
ARC
5
197
330
70
100
AcDbEntity
67
0
8
IV_OUTER_PROFILE
62
256
6
ByLayer
370
-1
48
1.0
60
0
100
AcDbCircle
39
0.0
10
1742.55325010136
20
28.2304134161337
30
0.0
40
2.0
210
0.0
220
0.0
230
1.0
100
AcDbArc
50
30.2564371635298
51
90.0
0
LINE
5
198
330
70
100
AcDbEntity
67
0
8
IV_OUTER_PROFILE
62
256
6
ByLayer
370
-1
48
1.0
60
0
100
AcDbLine
10
1760.62317362938
20
1.22267136508633
30
0.0
11
1744.28080790315
21
29.238155467182
31
0.0
39
0.0
210
0.0
220
0.0
230
1.0
0
ARC
5
199
330
70
100
AcDbEntity
67
0
8
IV_OUTER_PROFILE
62
256
6
ByLayer
370
-1
48
1.0
60
0
100
AcDbCircle
39
0.0
10
1762.35073143117
20
2.23041341613452
30
0.0
40
2.0
210
0.0
220
0.0
230
1.0
100
AcDbArc
50
210.256437163528
51
270.0
0
LINE
5
19A
330
70
100
AcDbEntity
67
0
8
IV_OUTER_PROFILE
62
256
6
ByLayer
370
-1
48
1.0
60
0
100
AcDbLine
10
1762.35073143117
20
0.230413416134496
30
0.0
11
1780.05325010136
21
0.230413416134496
31
0.0
39
0.0
210
0.0
220
0.0
230
1.0
0
ARC
5
19B
330
70
100
AcDbEntity
67
0
8
IV_OUTER_PROFILE
62
256
6
ByLayer
370
-1
48
1.0
60
0
100
AcDbCircle
39
0.0
10
1780.05325010136
20
2.23041341613452
30
0.0
40
2.0
210
0.0
220
0.0
230
1.0
100
AcDbArc
50
270.0
51
329.743562836472
0
LINE
5
19C
330
70
100
AcDbEntity
67
0
8
IV_OUTER_PROFILE
62
256
6
ByLayer
370
-1
48
1.0
60
0
100
AcDbLine
10
1798.12317362938
20
29.2381554671818
30
0.0
11
1781.78080790315
21
1.22267136508633
31
0.0
39
0.0
210
0.0
220
0.0
230
1.0
0
ARC
5
19D
330
70
100
AcDbEntity
67
0
8
IV_OUTER_PROFILE
62
256
6
ByLayer
370
-1
48
1.0
60
0
100
AcDbCircle
39
0.0
10
1799.85073143117
20
28.2304134161336
30
0.0
40
2.0
210
0.0
220
0.0
230
1.0
100
AcDbArc
50
90.0
51
149.743562836472
0
LINE
5
19E
330
70
100
AcDbEntity
67
0
8
IV_OUTER_PROFILE
62
256
6
ByLayer
370
-1
48
1.0
60
0
100
AcDbLine
10
1802.55325010136
20
30.2304134161336
30
0.0
11
1799.85073143117
21
30.2304134161336
31
0.0
39
0.0
210
0.0
220
0.0
230
1.0
0
ARC
5
19F
330
70
100
AcDbEntity
67
0
8
IV_OUTER_PROFILE
62
256
6
ByLayer
370
-1
48
1.0
60
0
100
AcDbCircle
39
0.0
10
1802.55325010136
20
28.2304134161336
30
0.0
40
2.0
210
0.0
220
0.0
230
1.0
100
AcDbArc
50
30.2564371635298
51
90.0
0
LINE
5
1A0
330
70
100
AcDbEntity
67
0
8
IV_OUTER_PROFILE
62
256
6
ByLayer
370
-1
48
1.0
60
0
100
AcDbLine
10
1820.62317362938
20
1.22267136508626
30
0.0
11
1804.28080790315
21
29.2381554671819
31
0.0
39
0.0
210
0.0
220
0.0
230
1.0
0
ARC
5
1A1
330
70
100
AcDbEntity
67
0
8
IV_OUTER_PROFILE
62
256
6
ByLayer
370
-1
48
1.0
60
0
100
AcDbCircle
39
0.0
10
1822.35073143117
20
2.23041341613445
30
0.0
40
2.0
210
0.0
220
0.0
230
1.0
100
AcDbArc
50
210.256437163532
51
270.0
0
LINE
5
1A2
330
70
100
AcDbEntity
67
0
8
IV_OUTER_PROFILE
62
256
6
ByLayer
370
-1
48
1.0
60
0
100
AcDbLine
10
1822.35073143117
20
0.230413416134496
30
0.0
11
1840.05325010136
21
0.230413416134425
31
0.0
39
0.0
210
0.0
220
0.0
230
1.0
0
ARC
5
1A3
330
70
100
AcDbEntity
67
0
8
IV_OUTER_PROFILE
62
256
6
ByLayer
370
-1
48
1.0
60
0
100
AcDbCircle
39
0.0
10
1840.05325010136
20
2.23041341613445
30
0.0
40
2.0
210
0.0
220
0.0
230
1.0
100
AcDbArc
50
270.0
51
329.743562836472
0
LINE
5
1A4
330
70
100
AcDbEntity
67
0
8
IV_OUTER_PROFILE
62
256
6
ByLayer
370
-1
48
1.0
60
0
100
AcDbLine
10
1858.12317362938
20
29.2381554671819
30
0.0
11
1841.78080790315
21
1.22267136508626
31
0.0
39
0.0
210
0.0
220
0.0
230
1.0
0
ARC
5
1A5
330
70
100
AcDbEntity
67
0
8
IV_OUTER_PROFILE
62
256
6
ByLayer
370
-1
48
1.0
60
0
100
AcDbCircle
39
0.0
10
1859.85073143117
20
28.2304134161336
30
0.0
40
2.0
210
0.0
220
0.0
230
1.0
100
AcDbArc
50
90.0
51
149.74356283647
0
LINE
5
1A6
330
70
100
AcDbEntity
67
0
8
IV_OUTER_PROFILE
62
256
6
ByLayer
370
-1
48
1.0
60
0
100
AcDbLine
10
1862.55325010136
20
30.2304134161336
30
0.0
11
1859.85073143117
21
30.2304134161336
31
0.0
39
0.0
210
0.0
220
0.0
230
1.0
0
ARC
5
1A7
330
70
100
AcDbEntity
67
0
8
IV_OUTER_PROFILE
62
256
6
ByLayer
370
-1
48
1.0
60
0
100
AcDbCircle
39
0.0
10
1862.55325010136
20
28.2304134161336
30
0.0
40
2.0
210
0.0
220
0.0
230
1.0
100
AcDbArc
50
30.2564371635281
51
90.0
0
LINE
5
1A8
330
70
100
AcDbEntity
67
0
8
IV_OUTER_PROFILE
62
256
6
ByLayer
370
-1
48
1.0
60
0
100
AcDbLine
10
1880.62317362938
20
1.22267136508618
30
0.0
11
1864.28080790315
21
29.2381554671818
31
0.0
39
0.0
210
0.0
220
0.0
230
1.0
0
ARC
5
1A9
330
70
100
AcDbEntity
67
0
8
IV_OUTER_PROFILE
62
256
6
ByLayer
370
-1
48
1.0
60
0
100
AcDbCircle
39
0.0
10
1882.35073143117
20
2.23041341613445
30
0.0
40
2.0
210
0.0
220
0.0
230
1.0
100
AcDbArc
50
210.25643716353
51
270.0
0
LINE
5
1AA
330
70
100
AcDbEntity
67
0
8
IV_OUTER_PROFILE
62
256
6
ByLayer
370
-1
48
1.0
60
0
100
AcDbLine
10
1882.35073143117
20
0.230413416134425
30
0.0
11
1900.05325010136
21
0.230413416134425
31
0.0
39
0.0
210
0.0
220
0.0
230
1.0
0
ARC
5
1AB
330
70
100
AcDbEntity
67
0
8
IV_OUTER_PROFILE
62
256
6
ByLayer
370
-1
48
1.0
60
0
100
AcDbCircle
39
0.0
10
1900.05325010136
20
2.23041341613445
30
0.0
40
2.0
210
0.0
220
0.0
230
1.0
100
AcDbArc
50
270.0
51
329.743562836474
0
LINE
5
1AC
330
70
100
AcDbEntity
67
0
8
IV_OUTER_PROFILE
62
256
6
ByLayer
370
-1
48
1.0
60
0
100
AcDbLine
10
1918.12317362938
20
29.2381554671818
30
0.0
11
1901.78080790315
21
1.22267136508633
31
0.0
39
0.0
210
0.0
220
0.0
230
1.0
0
ARC
5
1AD
330
70
100
AcDbEntity
67
0
8
IV_OUTER_PROFILE
62
256
6
ByLayer
370
-1
48
1.0
60
0
100
AcDbCircle
39
0.0
10
1919.85073143117
20
28.2304134161335
30
0.0
40
2.0
210
0.0
220
0.0
230
1.0
100
AcDbArc
50
90.0
51
149.74356283647
0
LINE
5
1AE
330
70
100
AcDbEntity
67
0
8
IV_OUTER_PROFILE
62
256
6
ByLayer
370
-1
48
1.0
60
0
100
AcDbLine
10
1922.55325010136
20
30.2304134161336
30
0.0
11
1919.85073143117
21
30.2304134161336
31
0.0
39
0.0
210
0.0
220
0.0
230
1.0
0
ARC
5
1AF
330
70
100
AcDbEntity
67
0
8
IV_OUTER_PROFILE
62
256
6
ByLayer
370
-1
48
1.0
60
0
100
AcDbCircle
39
0.0
10
1922.55325010136
20
28.2304134161335
30
0.0
40
2.0
210
0.0
220
0.0
230
1.0
100
AcDbArc
50
30.2564371635298
51
90.0
0
LINE
5
1B0
330
70
100
AcDbEntity
67
0
8
IV_OUTER_PROFILE
62
256
6
ByLayer
370
-1
48
1.0
60
0
100
AcDbLine
10
1940.62317362938
20
1.22267136508611
30
0.0
11
1924.28080790315
21
29.2381554671818
31
0.0
39
0.0
210
0.0
220
0.0
230
1.0
0
ARC
5
1B1
330
70
100
AcDbEntity
67
0
8
IV_OUTER_PROFILE
62
256
6
ByLayer
370
-1
48
1.0
60
0
100
AcDbCircle
39
0.0
10
1942.35073143117
20
2.23041341613438
30
0.0
40
2.0
210
0.0
220
0.0
230
1.0
100
AcDbArc
50
210.256437163526
51
270.0
0
LINE
5
1B2
330
70
100
AcDbEntity
67
0
8
IV_OUTER_PROFILE
62
256
6
ByLayer
370
-1
48
1.0
60
0
100
AcDbLine
10
1942.35073143117
20
0.230413416134354
30
0.0
11
1960.05325010136
21
0.230413416134425
31
0.0
39
0.0
210
0.0
220
0.0
230
1.0
0
ARC
5
1B3
330
70
100
AcDbEntity
67
0
8
IV_OUTER_PROFILE
62
256
6
ByLayer
370
-1
48
1.0
60
0
100
AcDbCircle
39
0.0
10
1960.05325010136
20
2.23041341613438
30
0.0
40
2.0
210
0.0
220
0.0
230
1.0
100
AcDbArc
50
270.0
51
329.743562836474
0
LINE
5
1B4
330
70
100
AcDbEntity
67
0
8
IV_OUTER_PROFILE
62
256
6
ByLayer
370
-1
48
1.0
60
0
100
AcDbLine
10
1978.12317362938
20
29.2381554671817
30
0.0
11
1961.78080790315
21
1.22267136508626
31
0.0
39
0.0
210
0.0
220
0.0
230
1.0
0
ARC
5
1B5
330
70
100
AcDbEntity
67
0
8
IV_OUTER_PROFILE
62
256
6
ByLayer
370
-1
48
1.0
60
0
100
AcDbCircle
39
0.0
10
1979.85073143117
20
28.2304134161335
30
0.0
40
2.0
210
0.0
220
0.0
230
1.0
100
AcDbArc
50
90.0
51
149.743562836472
0
LINE
5
1B6
330
70
100
AcDbEntity
67
0
8
IV_OUTER_PROFILE
62
256
6
ByLayer
370
-1
48
1.0
60
0
100
AcDbLine
10
1982.55325010136
20
30.2304134161336
30
0.0
11
1979.85073143117
21
30.2304134161336
31
0.0
39
0.0
210
0.0
220
0.0
230
1.0
0
ARC
5
1B7
330
70
100
AcDbEntity
67
0
8
IV_OUTER_PROFILE
62
256
6
ByLayer
370
-1
48
1.0
60
0
100
AcDbCircle
39
0.0
10
1982.55325010136
20
28.2304134161335
30
0.0
40
2.0
210
0.0
220
0.0
230
1.0
100
AcDbArc
50
30.2564371635281
51
90.0
0
LINE
5
1B8
330
70
100
AcDbEntity
67
0
8
IV_OUTER_PROFILE
62
256
6
ByLayer
370
-1
48
1.0
60
0
100
AcDbLine
10
2000.62317362938
20
1.22267136508611
30
0.0
11
1984.28080790315
21
29.2381554671817
31
0.0
39
0.0
210
0.0
220
0.0
230
1.0
0
ARC
5
1B9
330
70
100
AcDbEntity
67
0
8
IV_OUTER_PROFILE
62
256
6
ByLayer
370
-1
48
1.0
60
0
100
AcDbCircle
39
0.0
10
2002.35073143118
20
2.23041341613438
30
0.0
40
2.0
210
0.0
220
0.0
230
1.0
100
AcDbArc
50
210.25643716353
51
270.0
0
LINE
5
1BA
330
70
100
AcDbEntity
67
0
8
IV_OUTER_PROFILE
62
256
6
ByLayer
370
-1
48
1.0
60
0
100
AcDbLine
10
2002.35073143118
20
0.230413416134354
30
0.0
11
2021.20199076627
21
0.230413416134354
31
0.0
39
0.0
210
0.0
220
0.0
230
1.0
0
LINE
5
1BB
330
70
100
AcDbEntity
67
0
8
IV_OUTER_PROFILE
62
256
6
ByLayer
370
-1
48
1.0
60
0
100
AcDbLine
10
2021.20199076627
20
0.230413416134354
30
0.0
11
2021.20199076627
21
194.253086364287
31
0.0
39
0.0
210
0.0
220
0.0
230
1.0
0
LINE
5
1BC
330
70
100
AcDbEntity
67
0
8
IV_OUTER_PROFILE
62
256
6
ByLayer
370
-1
48
1.0
60
0
100
AcDbLine
10
2021.20199076627
20
194.253086364287
30
0.0
11
25.9519907662655
21
368.814842264387
31
0.0
39
0.0
210
0.0
220
0.0
230
1.0
0
MTEXT
5
223
330
70
100
AcDbEntity
67
0
8
AutoDXF_BendInfo
62
256
6
ByLayer
370
-1
48
1.0
60
0
100
AcDbMText
10
21.8509954331327
20
184.626520628198
30
0.0
210
0.0
220
0.0
230
1.0
1
90 - UP - R2,8
40
5.0
41
0.0
44
1.0
11
0.0000000000000003
21
1.0
31
0.0
71
8
72
5
73
1
7
Standard
0
ENDSEC
0
SECTION
2
OBJECTS
0
DICTIONARY
5
228
330
0
100
AcDbDictionary
280
1
281
1
3
ACAD_GROUP
350
D
3
ACAD_LAYOUT
350
62
3
ACAD_DGNDEFINITIONS
350
219
3
ACAD_DWFDEFINITIONS
350
21A
3
ACAD_PDFDEFINITIONS
350
21B
3
ACAD_MLINESTYLE
350
5F
3
ACAD_IMAGE_DICT
350
218
3
ACAD_IMAGE_VARS
350
21C
0
DICTIONARY
5
D
330
228
100
AcDbDictionary
280
1
281
1
0
DICTIONARY
5
62
330
228
100
AcDbDictionary
280
1
281
1
3
Layout1
350
6F
3
Layout2
350
77
3
Model
350
73
0
DICTIONARY
5
219
330
228
100
AcDbDictionary
280
1
281
1
0
DICTIONARY
5
21A
330
228
100
AcDbDictionary
280
1
281
1
0
DICTIONARY
5
21B
330
228
100
AcDbDictionary
280
1
281
1
0
DICTIONARY
5
5F
330
228
100
AcDbDictionary
280
1
281
1
3
STANDARD
350
60
0
DICTIONARY
5
218
330
228
100
AcDbDictionary
280
1
281
1
0
DICTIONARY
5
216
330
2
100
AcDbDictionary
280
1
281
1
3
ACAD_LAYERSTATES
360
229
0
DICTIONARY
5
229
330
216
100
AcDbDictionary
280
1
281
1
0
LAYOUT
5
6F
330
62
100
AcDbPlotSettings
1

2

4

6

40
0.0
41
0.0
42
0.0
43
0.0
44
0.0
45
0.0
46
0.0
47
0.0
48
0.0
49
0.0
140
0.0
141
0.0
142
1.0
143
1.0
70
688
72
0
73
0
74
5
7

75
16
76
0
77
2
78
300
147
1.0
148
0.0
149
0.0
100
AcDbLayout
1
Layout1
71
1
10
0.0
20
0.0
11
12.0
21
9.0
12
0.0
22
0.0
32
0.0
14
0.0
24
0.0
34
0.0
15
0.0
25
0.0
35
0.0
146
0.0
13
0.0
23
0.0
33
0.0
16
1.0
26
0.0
36
0.0
17
0.0
27
1.0
37
0.0
76
0
330
6C
0
LAYOUT
5
77
330
62
100
AcDbPlotSettings
1

2

4

6

40
0.0
41
0.0
42
0.0
43
0.0
44
0.0
45
0.0
46
0.0
47
0.0
48
0.0
49
0.0
140
0.0
141
0.0
142
1.0
143
1.0
70
688
72
0
73
0
74
5
7

75
16
76
0
77
2
78
300
147
1.0
148
0.0
149
0.0
100
AcDbLayout
1
Layout2
71
2
10
0.0
20
0.0
11
12.0
21
9.0
12
0.0
22
0.0
32
0.0
14
0.0
24
0.0
34
0.0
15
0.0
25
0.0
35
0.0
146
0.0
13
0.0
23
0.0
33
0.0
16
1.0
26
0.0
36
0.0
17
0.0
27
1.0
37
0.0
76
0
330
74
0
LAYOUT
5
73
330
62
100
AcDbPlotSettings
1

2

4

6

40
0.0
41
0.0
42
0.0
43
0.0
44
0.0
45
0.0
46
0.0
47
0.0
48
0.0
49
0.0
140
0.0
141
0.0
142
1.0
143
1.0
70
1712
72
0
73
0
74
0
7

75
0
76
0
77
2
78
300
147
1.0
148
0.0
149
0.0
100
AcDbLayout
1
Model
71
3
10
0.0
20
0.0
11
12.0
21
9.0
12
0.0
22
0.0
32
0.0
14
0.0
24
0.0
34
0.0
15
0.0
25
0.0
35
0.0
146
0.0
13
0.0
23
0.0
33
0.0
16
1.0
26
0.0
36
0.0
17
0.0
27
1.0
37
0.0
76
0
330
70
0
MLINESTYLE
5
60
330
5F
100
AcDbMlineStyle
2
STANDARD
70
0
3

62
256
51
90.0
52
90.0
71
2
49
0.5
62
256
6
ByLayer
49
-0.5
62
256
6
ByLayer
0
RASTERVARIABLES
5
21C
330
218
100
AcDbRasterVariables
90
0
70
1
71
1
72
0
0
ENDSEC
0
EOF
