999
autodxfXMIN:1,236634998998317
999
autodxfXMAX:816,0484199682535
999
autodxfYMIN:0,4552721433073436
999
autodxfYMAX:1980,485674318243
0
SECTION
2
HEADER
9
$ACADVER
1
AC1015
9
$DWGCODEPAGE
3
ANSI_1252
9
$HANDSEED
5
1F9
9
$ANGBASE
50
0.0
9
$ANGDIR
70
0
9
$ATTMODE
70
1
9
$AUNITS
70
0
9
$AUPREC
70
0
9
$CECOLOR
62
256
9
$CELTSCALE
40
1.0
9
$CELTYPE
6
ByLayer
9
$CELWEIGHT
370
-1
9
$CLAYER
8
0
9
$CMLJUST
70
0
9
$CMLSCALE
40
1.0
9
$CMLSTYLE
2
Standard
9
$DIMSTYLE
2
Standard
9
$TEXTSIZE
40
0.2
9
$TEXTSTYLE
7
Standard
9
$LUNITS
70
2
9
$LUPREC
70
4
9
$MIRRTEXT
70
0
9
$EXTNAMES
290
1
9
$INSBASE
10
0.0
20
0.0
30
0.0
9
$INSUNITS
70
4
9
$LTSCALE
40
1.0
9
$LWDISPLAY
290
0
9
$PDMODE
70
0
9
$PDSIZE
40
0.0
9
$PLINEGEN
70
0
9
$PSLTSCALE
70
1
9
$SPLINESEGS
70
6
9
$SURFU
70
6
9
$SURFV
70
6
9
$TDCREATE
40
2460563.37700231
9
$TDUCREATE
40
2460563.25200231
9
$TDUPDATE
40
2460563.37700231
9
$TDUUPDATE
40
2460563.25200231
9
$TDINDWG
40
0.0
9
$UCSORG
10
0.0
20
0.0
30
0.0
9
$UCSXDIR
10
1.0
20
0.0
30
0.0
9
$UCSYDIR
10
0.0
20
1.0
30
0.0
9
$DIMADEC
70
0
9
$DIMALT
70
0
9
$DIMALTD
70
2
9
$DIMALTF
40
25.4
9
$DIMALTRND
40
0.0
9
$DIMALTTD
70
2
9
$DIMALTTZ
70
0
9
$DIMALTU
70
2
9
$DIMALTZ
70
0
9
$DIMAPOST
1

9
$DIMATFIT
70
3
9
$DIMAUNIT
70
0
9
$DIMASZ
40
0.18
9
$DIMAZIN
70
3
9
$DIMSAH
70
0
9
$DIMBLK
1

9
$DIMLDRBLK
1

9
$DIMCEN
40
0.09
9
$DIMCLRD
70
0
9
$DIMCLRE
70
0
9
$DIMCLRT
70
0
9
$DIMDEC
70
4
9
$DIMDLE
40
0.0
9
$DIMDLI
40
0.38
9
$DIMDSEP
70
46
9
$DIMEXE
40
0.18
9
$DIMEXO
40
0.0625
9
$DIMFXLON
70
0
9
$DIMFXL
40
1.0
9
$DIMGAP
40
0.09
9
$DIMJUST
70
0
9
$DIMLFAC
40
1.0
9
$DIMLUNIT
70
2
9
$DIMLWD
70
-2
9
$DIMLWE
70
-2
9
$DIMPOST
1

9
$DIMRND
40
0.0
9
$DIMSCALE
40
1.0
9
$DIMSD1
70
0
9
$DIMSD2
70
0
9
$DIMSE1
70
0
9
$DIMSE2
70
0
9
$DIMSOXD
70
0
9
$DIMTAD
70
0
9
$DIMTDEC
70
4
9
$DIMTFAC
40
1.0
9
$DIMTIH
70
0
9
$DIMTIX
70
0
9
$DIMTM
40
0.0
9
$DIMTMOVE
70
0
9
$DIMTOFL
70
0
9
$DIMTOH
70
0
9
$DIMTOL
70
0
9
$DIMLIM
70
0
9
$DIMTOLJ
70
1
9
$DIMTP
40
0.0
9
$DIMTXT
40
0.18
9
$DIMTXTDIRECTION
70
0
9
$DIMTZIN
70
0
9
$DIMZIN
70
0
9
$DIMFRAC
70
0
9
$DIMLTYPE
6
ByBlock
9
$DIMLTEX1
6
ByBlock
9
$DIMLTEX2
6
ByBlock
9
$EXTMIN
10
0.0
20
0.0
30
0.0
9
$EXTMAX
10
5422.01643234138
20
1980.94094646155
30
0.0
9
$LIMMIN
10
0.0
20
0.0
9
$LIMMAX
10
5422.01643234138
20
1980.94094646155
9
$ORTHOMODE
70
0
9
$REGENMODE
70
1
9
$FILLMODE
70
1
9
$QTEXTMODE
70
0
9
$TRACEWID
40
0.05
9
$DISPSILH
70
0
9
$SKETCHINC
40
0.1
9
$FILLETRAD
40
0.0
9
$MENU
1
.
9
$ELEVATION
40
0.0
9
$PELEVATION
40
0.0
9
$THICKNESS
40
0.0
9
$LIMCHECK
70
0
9
$CHAMFERA
40
0.0
9
$CHAMFERB
40
0.0
9
$CHAMFERC
40
0.0
9
$CHAMFERD
40
0.0
9
$SKPOLY
70
0
9
$TDUSRTIMER
40
0.0
9
$USRTIMER
70
1
9
$PLINEWID
40
0.0
9
$SPLFRAME
70
0
9
$SPLINETYPE
70
6
9
$SURFTAB1
70
6
9
$SURFTAB2
70
6
9
$SURFTYPE
70
6
9
$UCSBASE
2

9
$UCSNAME
2

9
$UCSORTHOREF
2

9
$UCSORTHOVIEW
70
0
9
$UCSORGTOP
10
0.0
20
0.0
30
0.0
9
$UCSORGBOTTOM
10
0.0
20
0.0
30
0.0
9
$UCSORGLEFT
10
0.0
20
0.0
30
0.0
9
$UCSORGRIGHT
10
0.0
20
0.0
30
0.0
9
$UCSORGFRONT
10
0.0
20
0.0
30
0.0
9
$UCSORGBACK
10
0.0
20
0.0
30
0.0
9
$PUCSBASE
2

9
$PUCSNAME
2

9
$PUCSORG
10
0.0
20
0.0
30
0.0
9
$PUCSXDIR
10
1.0
20
0.0
30
0.0
9
$PUCSYDIR
10
0.0
20
1.0
30
0.0
9
$PUCSORTHOREF
2

9
$PUCSORTHOVIEW
70
0
9
$PUCSORGTOP
10
0.0
20
0.0
30
0.0
9
$PUCSORGBOTTOM
10
0.0
20
0.0
30
0.0
9
$PUCSORGLEFT
10
0.0
20
0.0
30
0.0
9
$PUCSORGRIGHT
10
0.0
20
0.0
30
0.0
9
$PUCSORGFRONT
10
0.0
20
0.0
30
0.0
9
$PUCSORGBACK
10
0.0
20
0.0
30
0.0
9
$USERI1
70
0
9
$USERI2
70
0
9
$USERI3
70
0
9
$USERI4
70
0
9
$USERI5
70
0
9
$USERR1
40
0.0
9
$USERR2
40
0.0
9
$USERR3
40
0.0
9
$USERR4
40
0.0
9
$USERR5
40
0.0
9
$WORLDVIEW
70
1
9
$SHADEDGE
70
3
9
$SHADEDIF
70
70
9
$TILEMODE
70
1
9
$MAXACTVP
70
64
9
$PINSBASE
10
0.0
20
0.0
30
0.0
9
$PLIMCHECK
70
0
9
$PEXTMIN
10
0.0
20
0.0
30
0.0
9
$PEXTMAX
10
5422.01643234138
20
1980.94094646155
30
0.0
9
$PLIMMIN
10
0.0
20
0.0
9
$PLIMMAX
10
5422.01643234138
20
1980.94094646155
9
$UNITMODE
70
0
9
$VISRETAIN
70
1
9
$TREEDEPTH
70
3020
9
$PROXYGRAPHICS
70
1
9
$MEASUREMENT
70
1
9
$ENDCAPS
280
0
9
$JOINSTYLE
280
0
9
$HYPERLINKBASE
1

9
$STYLESHEET
1

9
$XEDIT
290
1
9
$CEPSNTYPE
380
0
9
$PSTYLEMODE
290
1
9
$FINGERPRINTGUID
2
{EAB81A0A-25E5-164A-8D59-782CFD056B2A}
9
$VERSIONGUID
2
{6A9E6EB3-E52A-DE42-8117-C3ABE8391C69}
9
$PSVPSCALE
40
0.0
9
$OLESTARTUP
290
0
0
ENDSEC
0
SECTION
2
CLASSES
0
CLASS
1
RASTERVARIABLES
2
AcDbRasterVariables
3
ISM
90
0
280
0
281
0
0
ENDSEC
0
SECTION
2
TABLES
0
TABLE
2
APPID
5
9
330
0
100
AcDbSymbolTable
70
7
0
APPID
5
56
330
9
100
AcDbSymbolTableRecord
100
AcDbRegAppTableRecord
2
ACAD
70
0
0
APPID
5
5E
330
9
100
AcDbSymbolTableRecord
100
AcDbRegAppTableRecord
2
AcadAnnotative
70
0
0
APPID
5
1D8
330
9
100
AcDbSymbolTableRecord
100
AcDbRegAppTableRecord
2
ACAD_MLEADERVER
70
0
0
APPID
5
1F3
330
9
100
AcDbSymbolTableRecord
100
AcDbRegAppTableRecord
2
AcCmTransparency
70
0
0
APPID
5
1F4
330
9
100
AcDbSymbolTableRecord
100
AcDbRegAppTableRecord
2
AcAecLayerStandard
70
0
0
APPID
5
1F5
330
9
100
AcDbSymbolTableRecord
100
AcDbRegAppTableRecord
2
GradientColor1ACI
70
0
0
APPID
5
1F6
330
9
100
AcDbSymbolTableRecord
100
AcDbRegAppTableRecord
2
GradientColor2ACI
70
0
0
ENDTAB
0
TABLE
2
VPORT
5
8
330
0
100
AcDbSymbolTable
70
1
0
VPORT
5
1E9
330
8
100
AcDbSymbolTableRecord
100
AcDbViewportTableRecord
2
*Active
70
0
10
0.0
20
0.0
11
1.0
21
1.0
12
408.642527483626
22
990.470473230775
13
0.0
23
0.0
14
0.5
24
0.5
15
10.0
25
10.0
16
0.0
26
0.0
36
1.0
17
0.0
27
0.0
37
0.0
40
2178.033
41
1.0
75
0
76
1
0
ENDTAB
0
TABLE
2
LTYPE
5
5
330
0
100
AcDbSymbolTable
70
48
0
LTYPE
5
5B
330
5
100
AcDbSymbolTableRecord
100
AcDbLinetypeTableRecord
2
ByBlock
70
0
3

72
65
73
0
40
0.0
0
LTYPE
5
5C
330
5
100
AcDbSymbolTableRecord
100
AcDbLinetypeTableRecord
2
ByLayer
70
0
3

72
65
73
0
40
0.0
0
LTYPE
5
5D
330
5
100
AcDbSymbolTableRecord
100
AcDbLinetypeTableRecord
2
Continuous
70
0
3
Solid line
72
65
73
0
40
0.0
0
LTYPE
5
78
330
5
100
AcDbSymbolTableRecord
100
AcDbLinetypeTableRecord
2
BORDER
70
0
3
Border __ __ . __ __ . __ __ . __ __ . __ __ .
72
65
73
6
40
1.75
49
0.5
74
0
49
-0.25
74
0
49
0.5
74
0
49
-0.25
74
0
49
0.0
74
0
49
-0.25
74
0
0
LTYPE
5
79
330
5
100
AcDbSymbolTableRecord
100
AcDbLinetypeTableRecord
2
BORDER2
70
0
3
Border (.5x) __.__.__.__.__.__.__.__.__.__.__.
72
65
73
6
40
0.875
49
0.25
74
0
49
-0.125
74
0
49
0.25
74
0
49
-0.125
74
0
49
0.0
74
0
49
-0.125
74
0
0
LTYPE
5
7A
330
5
100
AcDbSymbolTableRecord
100
AcDbLinetypeTableRecord
2
BORDERX2
70
0
3
Border (2x) ____  ____  .  ____  ____  .  ___
72
65
73
6
40
3.5
49
1.0
74
0
49
-0.5
74
0
49
1.0
74
0
49
-0.5
74
0
49
0.0
74
0
49
-0.5
74
0
0
LTYPE
5
7B
330
5
100
AcDbSymbolTableRecord
100
AcDbLinetypeTableRecord
2
CENTER
70
0
3
Center ____ _ ____ _ ____ _ ____ _ ____ _ ____
72
65
73
4
40
2.0
49
1.25
74
0
49
-0.25
74
0
49
0.25
74
0
49
-0.25
74
0
0
LTYPE
5
7C
330
5
100
AcDbSymbolTableRecord
100
AcDbLinetypeTableRecord
2
CENTER2
70
0
3
Center (.5x) ___ _ ___ _ ___ _ ___ _ ___ _ ___
72
65
73
4
40
1.125
49
0.75
74
0
49
-0.125
74
0
49
0.125
74
0
49
-0.125
74
0
0
LTYPE
5
7D
330
5
100
AcDbSymbolTableRecord
100
AcDbLinetypeTableRecord
2
CENTERX2
70
0
3
Center (2x) ________  __  ________  __  _____
72
65
73
4
40
4.0
49
2.5
74
0
49
-0.5
74
0
49
0.5
74
0
49
-0.5
74
0
0
LTYPE
5
7E
330
5
100
AcDbSymbolTableRecord
100
AcDbLinetypeTableRecord
2
DASHDOT
70
0
3
Dash dot __ . __ . __ . __ . __ . __ . __ . __
72
65
73
4
40
1.0
49
0.5
74
0
49
-0.25
74
0
49
0.0
74
0
49
-0.25
74
0
0
LTYPE
5
7F
330
5
100
AcDbSymbolTableRecord
100
AcDbLinetypeTableRecord
2
DASHDOT2
70
0
3
Dash dot (.5x) _._._._._._._._._._._._._._._.
72
65
73
4
40
0.5
49
0.25
74
0
49
-0.125
74
0
49
0.0
74
0
49
-0.125
74
0
0
LTYPE
5
80
330
5
100
AcDbSymbolTableRecord
100
AcDbLinetypeTableRecord
2
DASHDOTX2
70
0
3
Dash dot (2x) ____  .  ____  .  ____  .  ___
72
65
73
4
40
2.0
49
1.0
74
0
49
-0.5
74
0
49
0.0
74
0
49
-0.5
74
0
0
LTYPE
5
81
330
5
100
AcDbSymbolTableRecord
100
AcDbLinetypeTableRecord
2
DASHED
70
0
3
Dashed __ __ __ __ __ __ __ __ __ __ __ __ __ _
72
65
73
2
40
0.75
49
0.5
74
0
49
-0.25
74
0
0
LTYPE
5
82
330
5
100
AcDbSymbolTableRecord
100
AcDbLinetypeTableRecord
2
DASHED2
70
0
3
Dashed (.5x) _ _ _ _ _ _ _ _ _ _ _ _ _ _ _ _ _
72
65
73
2
40
0.375
49
0.25
74
0
49
-0.125
74
0
0
LTYPE
5
83
330
5
100
AcDbSymbolTableRecord
100
AcDbLinetypeTableRecord
2
DASHEDX2
70
0
3
Dashed (2x) ____  ____  ____  ____  ____  ___
72
65
73
2
40
1.5
49
1.0
74
0
49
-0.5
74
0
0
LTYPE
5
84
330
5
100
AcDbSymbolTableRecord
100
AcDbLinetypeTableRecord
2
DIVIDE
70
0
3
Divide ____ . . ____ . . ____ . . ____ . . ____
72
65
73
6
40
1.25
49
0.5
74
0
49
-0.25
74
0
49
0.0
74
0
49
-0.25
74
0
49
0.0
74
0
49
-0.25
74
0
0
LTYPE
5
85
330
5
100
AcDbSymbolTableRecord
100
AcDbLinetypeTableRecord
2
DIVIDE2
70
0
3
Divide (.5x) __..__..__..__..__..__..__..__.._
72
65
73
6
40
0.625
49
0.25
74
0
49
-0.125
74
0
49
0.0
74
0
49
-0.125
74
0
49
0.0
74
0
49
-0.125
74
0
0
LTYPE
5
86
330
5
100
AcDbSymbolTableRecord
100
AcDbLinetypeTableRecord
2
DIVIDEX2
70
0
3
Divide (2x) ________  .  .  ________  .  .  _
72
65
73
6
40
2.5
49
1.0
74
0
49
-0.5
74
0
49
0.0
74
0
49
-0.5
74
0
49
0.0
74
0
49
-0.5
74
0
0
LTYPE
5
87
330
5
100
AcDbSymbolTableRecord
100
AcDbLinetypeTableRecord
2
DOT
70
0
3
Dot . . . . . . . . . . . . . . . . . . . . . .
72
65
73
2
40
0.25
49
0.0
74
0
49
-0.25
74
0
0
LTYPE
5
88
330
5
100
AcDbSymbolTableRecord
100
AcDbLinetypeTableRecord
2
DOT2
70
0
3
Dot (.5x) .....................................
72
65
73
2
40
0.125
49
0.0
74
0
49
-0.125
74
0
0
LTYPE
5
89
330
5
100
AcDbSymbolTableRecord
100
AcDbLinetypeTableRecord
2
DOTX2
70
0
3
Dot (2x) .  .  .  .  .  .  .  .  .  .  .  .  . 
72
65
73
2
40
0.5
49
0.0
74
0
49
-0.5
74
0
0
LTYPE
5
8A
330
5
100
AcDbSymbolTableRecord
100
AcDbLinetypeTableRecord
2
HIDDEN
70
0
3
Hidden __ __ __ __ __ __ __ __ __ __ __ __ __ _
72
65
73
2
40
0.375
49
0.25
74
0
49
-0.125
74
0
0
LTYPE
5
8B
330
5
100
AcDbSymbolTableRecord
100
AcDbLinetypeTableRecord
2
HIDDEN2
70
0
3
Hidden (.5x) _ _ _ _ _ _ _ _ _ _ _ _ _ _ _ _ _
72
65
73
2
40
0.1875
49
0.125
74
0
49
-0.0625
74
0
0
LTYPE
5
8C
330
5
100
AcDbSymbolTableRecord
100
AcDbLinetypeTableRecord
2
HIDDENX2
70
0
3
Hidden (2x) ____ ____ ____ ____ ____ ____ ____
72
65
73
2
40
0.75
49
0.5
74
0
49
-0.25
74
0
0
LTYPE
5
8D
330
5
100
AcDbSymbolTableRecord
100
AcDbLinetypeTableRecord
2
PHANTOM
70
0
3
Phantom ______  __  __  ______  __  __  ______
72
65
73
6
40
2.5
49
1.25
74
0
49
-0.25
74
0
49
0.25
74
0
49
-0.25
74
0
49
0.25
74
0
49
-0.25
74
0
0
LTYPE
5
8E
330
5
100
AcDbSymbolTableRecord
100
AcDbLinetypeTableRecord
2
PHANTOM2
70
0
3
Phantom (.5x) ___ _ _ ___ _ _ ___ _ _ ___ _ _
72
65
73
6
40
1.25
49
0.625
74
0
49
-0.125
74
0
49
0.125
74
0
49
-0.125
74
0
49
0.125
74
0
49
-0.125
74
0
0
LTYPE
5
8F
330
5
100
AcDbSymbolTableRecord
100
AcDbLinetypeTableRecord
2
PHANTOMX2
70
0
3
Phantom (2x) ____________    ____    ____   _
72
65
73
6
40
5.0
49
2.5
74
0
49
-0.5
74
0
49
0.5
74
0
49
-0.5
74
0
49
0.5
74
0
49
-0.5
74
0
0
LTYPE
5
90
330
5
100
AcDbSymbolTableRecord
100
AcDbLinetypeTableRecord
2
ACAD_ISO02W100
70
0
3
ISO dash __ __ __ __ __ __ __ __ __ __ __ __ __
72
65
73
2
40
15.0
49
12.0
74
0
49
-3.0
74
0
0
LTYPE
5
91
330
5
100
AcDbSymbolTableRecord
100
AcDbLinetypeTableRecord
2
ACAD_ISO03W100
70
0
3
ISO dash space __    __    __    __    __    __
72
65
73
2
40
30.0
49
12.0
74
0
49
-18.0
74
0
0
LTYPE
5
92
330
5
100
AcDbSymbolTableRecord
100
AcDbLinetypeTableRecord
2
ACAD_ISO04W100
70
0
3
ISO long-dash dot ____ . ____ . ____ . ____ . _
72
65
73
4
40
30.0
49
24.0
74
0
49
-3.0
74
0
49
0.0
74
0
49
-3.0
74
0
0
LTYPE
5
93
330
5
100
AcDbSymbolTableRecord
100
AcDbLinetypeTableRecord
2
ACAD_ISO05W100
70
0
3
ISO long-dash double-dot ____ .. ____ .. ____ .
72
65
73
6
40
33.0
49
24.0
74
0
49
-3.0
74
0
49
0.0
74
0
49
-3.0
74
0
49
0.0
74
0
49
-3.0
74
0
0
LTYPE
5
94
330
5
100
AcDbSymbolTableRecord
100
AcDbLinetypeTableRecord
2
ACAD_ISO06W100
70
0
3
ISO long-dash triple-dot ____ ... ____ ... ____
72
65
73
8
40
36.0
49
24.0
74
0
49
-3.0
74
0
49
0.0
74
0
49
-3.0
74
0
49
0.0
74
0
49
-3.0
74
0
49
0.0
74
0
49
-3.0
74
0
0
LTYPE
5
95
330
5
100
AcDbSymbolTableRecord
100
AcDbLinetypeTableRecord
2
ACAD_ISO07W100
70
0
3
ISO dot . . . . . . . . . . . . . . . . . . . .
72
65
73
2
40
3.0
49
0.0
74
0
49
-3.0
74
0
0
LTYPE
5
96
330
5
100
AcDbSymbolTableRecord
100
AcDbLinetypeTableRecord
2
ACAD_ISO08W100
70
0
3
ISO long-dash short-dash ____ __ ____ __ ____ _
72
65
73
4
40
36.0
49
24.0
74
0
49
-3.0
74
0
49
6.0
74
0
49
-3.0
74
0
0
LTYPE
5
97
330
5
100
AcDbSymbolTableRecord
100
AcDbLinetypeTableRecord
2
ACAD_ISO09W100
70
0
3
ISO long-dash double-short-dash ____ __ __ ____
72
65
73
6
40
45.0
49
24.0
74
0
49
-3.0
74
0
49
6.0
74
0
49
-3.0
74
0
49
6.0
74
0
49
-3.0
74
0
0
LTYPE
5
98
330
5
100
AcDbSymbolTableRecord
100
AcDbLinetypeTableRecord
2
ACAD_ISO10W100
70
0
3
ISO dash dot __ . __ . __ . __ . __ . __ . __ .
72
65
73
4
40
18.0
49
12.0
74
0
49
-3.0
74
0
49
0.0
74
0
49
-3.0
74
0
0
LTYPE
5
99
330
5
100
AcDbSymbolTableRecord
100
AcDbLinetypeTableRecord
2
ACAD_ISO11W100
70
0
3
ISO double-dash dot __ __ . __ __ . __ __ . __ 
72
65
73
6
40
33.0
49
12.0
74
0
49
-3.0
74
0
49
12.0
74
0
49
-3.0
74
0
49
0.0
74
0
49
-3.0
74
0
0
LTYPE
5
9A
330
5
100
AcDbSymbolTableRecord
100
AcDbLinetypeTableRecord
2
ACAD_ISO12W100
70
0
3
ISO dash double-dot __ . . __ . . __ . . __ . .
72
65
73
6
40
21.0
49
12.0
74
0
49
-3.0
74
0
49
0.0
74
0
49
-3.0
74
0
49
0.0
74
0
49
-3.0
74
0
0
LTYPE
5
9B
330
5
100
AcDbSymbolTableRecord
100
AcDbLinetypeTableRecord
2
ACAD_ISO13W100
70
0
3
ISO double-dash double-dot __ __ . . __ __ . . 
72
65
73
8
40
36.0
49
12.0
74
0
49
-3.0
74
0
49
12.0
74
0
49
-3.0
74
0
49
0.0
74
0
49
-3.0
74
0
49
0.0
74
0
49
-3.0
74
0
0
LTYPE
5
9C
330
5
100
AcDbSymbolTableRecord
100
AcDbLinetypeTableRecord
2
ACAD_ISO14W100
70
0
3
ISO dash triple-dot __ . . . __ . . . __ . . . 
72
65
73
8
40
24.0
49
12.0
74
0
49
-3.0
74
0
49
0.0
74
0
49
-3.0
74
0
49
0.0
74
0
49
-3.0
74
0
49
0.0
74
0
49
-3.0
74
0
0
LTYPE
5
9D
330
5
100
AcDbSymbolTableRecord
100
AcDbLinetypeTableRecord
2
ACAD_ISO15W100
70
0
3
ISO double-dash triple-dot __ __ . . . __ __ . 
72
65
73
10
40
39.0
49
12.0
74
0
49
-3.0
74
0
49
12.0
74
0
49
-3.0
74
0
49
0.0
74
0
49
-3.0
74
0
49
0.0
74
0
49
-3.0
74
0
49
0.0
74
0
49
-3.0
74
0
0
LTYPE
5
A0
330
5
100
AcDbSymbolTableRecord
100
AcDbLinetypeTableRecord
2
FENCELINE1
70
0
3
Fenceline circle ----0-----0----0-----0----0---
72
65
73
3
40
1.35
49
0.25
74
0
49
-0.1
74
0
49
1.0
74
0
0
LTYPE
5
A1
330
5
100
AcDbSymbolTableRecord
100
AcDbLinetypeTableRecord
2
FENCELINE2
70
0
3
Fenceline square ----[]-----[]----[]-----[]----
72
65
73
3
40
1.35
49
0.25
74
0
49
-0.1
74
0
49
1.0
74
0
0
LTYPE
5
A2
330
5
100
AcDbSymbolTableRecord
100
AcDbLinetypeTableRecord
2
TRACKS
70
0
3
Tracks -|-|-|-|-|-|-|-|-|-|-|-|-|-|-|-|-|-|-|-|
72
65
73
1
40
0.15
49
0.15
74
0
0
LTYPE
5
A3
330
5
100
AcDbSymbolTableRecord
100
AcDbLinetypeTableRecord
2
BATTING
70
0
3
Batting SSSSSSSSSSSSSSSSSSSSSSSSSSSSSSSSSSSSSSS
72
65
73
2
40
0.1001
49
0.0001
74
0
49
-0.1
74
0
0
LTYPE
5
A4
330
5
100
AcDbSymbolTableRecord
100
AcDbLinetypeTableRecord
2
HOT_WATER_SUPPLY
70
0
3
Hot water supply ---- HW ---- HW ---- HW ----
72
65
73
3
40
0.9
49
0.5
74
0
49
-0.2
74
2
75
0
340
55
46
0.1
50
0.0
44
-0.1
45
-0.05
9
HW
49
-0.2
74
0
0
LTYPE
5
A5
330
5
100
AcDbSymbolTableRecord
100
AcDbLinetypeTableRecord
2
GAS_LINE
70
0
3
Gas line ----GAS----GAS----GAS----GAS----GAS---
72
65
73
3
40
0.95
49
0.5
74
0
49
-0.2
74
2
75
0
340
55
46
0.1
50
0.0
44
-0.1
45
-0.05
9
GAS
49
-0.25
74
0
0
LTYPE
5
A6
330
5
100
AcDbSymbolTableRecord
100
AcDbLinetypeTableRecord
2
ZIGZAG
70
0
3
Zig zag /\/\/\/\/\/\/\/\/\/\/\/\/\/\/\/\/\/\/\/
72
65
73
2
40
0.2001
49
0.0001
74
0
49
-0.2
74
0
0
ENDTAB
0
TABLE
2
LAYER
5
2
102
{ACAD_XDICTIONARY
360
1EA
102
}
330
0
100
AcDbSymbolTable
70
3
0
LAYER
5
54
330
2
100
AcDbSymbolTableRecord
100
AcDbLayerTableRecord
2
0
70
0
62
7
6
Continuous
290
1
370
-3
390
0
0
LAYER
5
A7
330
2
100
AcDbSymbolTableRecord
100
AcDbLayerTableRecord
2
IV_OUTER_PROFILE
70
0
62
7
6
Continuous
290
1
370
50
390
0
0
LAYER
5
A8
330
2
100
AcDbSymbolTableRecord
100
AcDbLayerTableRecord
2
IV_MARK_SURFACE
70
0
62
2
6
Continuous
290
1
370
25
390
0
0
ENDTAB
0
TABLE
2
STYLE
5
3
330
0
100
AcDbSymbolTable
70
2
0
STYLE
5
55
330
3
100
AcDbSymbolTableRecord
100
AcDbTextStyleTableRecord
2
Standard
3
txt.SHX
70
0
71
0
40
0.0
41
1.0
42
0.0
50
0.0
0
STYLE
5
5A
330
3
100
AcDbSymbolTableRecord
100
AcDbTextStyleTableRecord
2
Annotative
3
txt.SHX
70
0
71
0
40
0.0
41
1.0
42
0.0
50
0.0
1001
AcadAnnotative
1000
AnnotativeData
1002
{
1070
1
1070
1
1002
}
0
STYLE
5
9F
330
1EB
100
AcDbSymbolTableRecord
100
AcDbTextStyleTableRecord
2

3
ltypeshp.shx
70
1
40
0.0
41
1.0
42
0.0
50
0.0
0
ENDTAB
0
TABLE
2
DIMSTYLE
5
A
330
0
100
AcDbSymbolTable
70
2
100
AcDbDimStyleTable
0
DIMSTYLE
105
58
330
A
100
AcDbSymbolTableRecord
100
AcDbDimStyleTableRecord
2
Standard
3

4

40
1.0
41
0.18
42
0.0625
43
0.38
44
0.18
45
0.0
46
0.0
47
0.0
48
0.0
49
1.0
70
0
71
0
72
0
73
0
74
0
75
0
76
0
77
0
78
0
79
3
140
0.18
141
0.09
143
25.4
144
1.0
146
1.0
147
0.09
148
0.0
170
0
171
2
172
0
174
0
175
0
176
0
177
0
178
0
179
0
271
4
272
4
273
2
274
2
275
0
276
0
277
2
278
46
279
0
280
0
281
0
282
0
283
1
284
0
285
0
286
0
289
3
290
0
294
0
340
55
173
0
345
5B
346
5B
347
5B
371
-2
372
-2
0
DIMSTYLE
105
59
330
A
100
AcDbSymbolTableRecord
100
AcDbDimStyleTableRecord
2
Annotative
3

4

40
1.0
41
0.18
42
0.0625
43
0.38
44
0.18
45
0.0
46
0.0
47
0.0
48
0.0
49
1.0
70
0
71
0
72
0
73
0
74
0
75
0
76
0
77
0
78
0
79
3
140
0.18
141
0.09
143
25.4
144
1.0
146
1.0
147
0.09
148
0.0
170
0
171
2
172
0
174
0
175
0
176
0
177
0
178
0
179
0
271
4
272
4
273
2
274
2
275
0
276
0
277
2
278
46
279
0
280
0
281
0
282
0
283
1
284
0
285
0
286
0
289
3
290
0
294
0
340
55
173
0
345
5B
346
5B
347
5B
371
-2
372
-2
1001
AcadAnnotative
1000
AnnotativeData
1002
{
1070
1
1070
1
1002
}
0
ENDTAB
0
TABLE
2
VIEW
5
6
330
0
100
AcDbSymbolTable
70
0
0
ENDTAB
0
TABLE
2
UCS
5
7
330
0
100
AcDbSymbolTable
70
0
0
ENDTAB
0
TABLE
2
BLOCK_RECORD
5
1
330
0
100
AcDbSymbolTable
70
3
0
BLOCK_RECORD
5
70
330
1
100
AcDbSymbolTableRecord
100
AcDbBlockTableRecord
2
*Model_Space
340
73
0
BLOCK_RECORD
5
6C
330
1
100
AcDbSymbolTableRecord
100
AcDbBlockTableRecord
2
*Paper_Space
340
6F
0
BLOCK_RECORD
5
74
330
1
100
AcDbSymbolTableRecord
100
AcDbBlockTableRecord
2
*Paper_Space0
340
77
0
ENDTAB
0
ENDSEC
0
SECTION
2
BLOCKS
0
BLOCK
5
71
330
70
100
AcDbEntity
67
0
8
0
100
AcDbBlockBegin
2
*Model_Space
70
0
10
0.0
20
0.0
30
0.0
3
*Model_Space
4

0
ENDBLK
5
72
330
70
100
AcDbEntity
8
0
100
AcDbBlockEnd
0
BLOCK
5
6D
330
6C
100
AcDbEntity
67
1
8
0
100
AcDbBlockBegin
2
*Paper_Space
70
0
10
0.0
20
0.0
30
0.0
3
*Paper_Space
4

0
ENDBLK
5
6E
330
6C
100
AcDbEntity
8
0
100
AcDbBlockEnd
0
BLOCK
5
75
330
74
100
AcDbEntity
67
1
8
0
100
AcDbBlockBegin
2
*Paper_Space0
70
0
10
0.0
20
0.0
30
0.0
3
*Paper_Space0
4

0
VIEWPORT
5
1F2
330
74
100
AcDbEntity
67
1
8
0
62
256
6
ByLayer
370
-1
48
1.0
60
0
100
AcDbViewport
10
0.0
20
0.0
30
0.0
40
297.0
41
210.0
68
1
69
1
12
50.0
22
100.0
13
0.0
23
0.0
14
10.0
24
10.0
15
10.0
25
10.0
16
0.0
26
0.0
36
1.0
17
0.0
27
0.0
37
0.0
42
50.0
43
0.0
44
0.0
45
250.0
50
0.0
51
0.0
72
1000
90
819232
110
0.0
120
0.0
130
0.0
111
1.0
121
0.0
131
0.0
112
0.0
122
1.0
132
0.0
0
ENDBLK
5
76
330
74
100
AcDbEntity
8
0
100
AcDbBlockEnd
0
ENDSEC
0
SECTION
2
ENTITIES
0
VIEWPORT
5
1F1
330
6C
100
AcDbEntity
67
1
8
0
62
256
6
ByLayer
370
-1
48
1.0
60
0
100
AcDbViewport
10
0.0
20
0.0
30
0.0
40
297.0
41
210.0
68
1
69
1
12
50.0
22
100.0
13
0.0
23
0.0
14
10.0
24
10.0
15
10.0
25
10.0
16
0.0
26
0.0
36
1.0
17
0.0
27
0.0
37
0.0
42
50.0
43
0.0
44
0.0
45
250.0
50
0.0
51
0.0
72
1000
90
819232
110
0.0
120
0.0
130
0.0
111
1.0
121
0.0
131
0.0
112
0.0
122
1.0
132
0.0
0
LINE
5
A9
330
70
100
AcDbEntity
67
0
8
IV_MARK_SURFACE
62
256
6
ByLayer
370
-1
48
1.0
60
0
100
AcDbLine
10
655.495763668111
20
5.45906645394105
30
0.0
11
654.141096984702
21
5.45906645394105
31
0.0
39
0.0
210
0.0
220
0.0
230
1.0
0
LINE
5
AB
330
70
100
AcDbEntity
67
0
8
IV_MARK_SURFACE
62
256
6
ByLayer
370
-1
48
1.0
60
0
100
AcDbLine
10
654.141096984702
20
5.45906645394105
30
0.0
11
654.141096984702
21
5.12039978308886
31
0.0
39
0.0
210
0.0
220
0.0
230
1.0
0
ARC
5
AC
330
70
100
AcDbEntity
67
0
8
IV_MARK_SURFACE
62
256
6
ByLayer
370
-1
48
1.0
60
0
100
AcDbCircle
39
0.0
10
654.818430326406
20
5.12039978308886
30
0.0
40
0.677333341704475
210
0.0
220
0.0
230
1.0
100
AcDbArc
50
180.0
51
0.0
0
LINE
5
AD
330
70
100
AcDbEntity
67
0
8
IV_MARK_SURFACE
62
256
6
ByLayer
370
-1
48
1.0
60
0
100
AcDbLine
10
655.495763668111
20
5.12039978308886
30
0.0
11
655.495763668111
21
5.45906645394105
31
0.0
39
0.0
210
0.0
220
0.0
230
1.0
0
ARC
5
AE
330
70
100
AcDbEntity
67
0
8
IV_MARK_SURFACE
62
256
6
ByLayer
370
-1
48
1.0
60
0
100
AcDbCircle
39
0.0
10
670.227763850183
20
4.10439977053215
30
0.0
40
0.677333341704475
210
0.0
220
0.0
230
1.0
100
AcDbArc
50
90.0
51
270.0
0
LINE
5
AF
330
70
100
AcDbEntity
67
0
8
IV_MARK_SURFACE
62
256
6
ByLayer
370
-1
48
1.0
60
0
100
AcDbLine
10
671.074430527314
20
3.42706642882771
30
0.0
11
670.227763850183
21
3.42706642882774
31
0.0
39
0.0
210
0.0
220
0.0
230
1.0
0
LINE
5
B0
330
70
100
AcDbEntity
67
0
8
IV_MARK_SURFACE
62
256
6
ByLayer
370
-1
48
1.0
60
0
100
AcDbLine
10
671.074430527314
20
4.78173311223666
30
0.0
11
671.074430527314
21
3.42706642882771
31
0.0
39
0.0
210
0.0
220
0.0
230
1.0
0
LINE
5
B1
330
70
100
AcDbEntity
67
0
8
IV_MARK_SURFACE
62
256
6
ByLayer
370
-1
48
1.0
60
0
100
AcDbLine
10
670.227763850183
20
4.78173311223666
30
0.0
11
671.074430527314
21
4.78173311223666
31
0.0
39
0.0
210
0.0
220
0.0
230
1.0
0
ARC
5
B2
330
70
100
AcDbEntity
67
0
8
IV_MARK_SURFACE
62
256
6
ByLayer
370
-1
48
1.0
60
0
100
AcDbCircle
39
0.0
10
674.596837978254
20
4.95106644766283
30
0.0
40
4.26559264531092
210
0.0
220
0.0
230
1.0
100
AcDbArc
50
343.866136540414
51
16.1338634595856
0
ARC
5
B3
330
70
100
AcDbEntity
67
0
8
IV_MARK_SURFACE
62
256
6
ByLayer
370
-1
48
1.0
60
0
100
AcDbCircle
39
0.0
10
678.186430615211
20
5.92037598345213
30
0.0
40
0.552023816346253
210
0.0
220
0.0
230
1.0
100
AcDbArc
50
23.0373186897642
51
156.962681310245
0
ARC
5
B4
330
70
100
AcDbEntity
67
0
8
IV_MARK_SURFACE
62
256
6
ByLayer
370
-1
48
1.0
60
0
100
AcDbCircle
39
0.0
10
681.776023252167
20
4.9510664476629
30
0.0
40
4.26559264531092
210
0.0
220
0.0
230
1.0
100
AcDbArc
50
163.866136540413
51
196.133863459586
0
ARC
5
B5
330
70
100
AcDbEntity
67
0
8
IV_MARK_SURFACE
62
256
6
ByLayer
370
-1
48
1.0
60
0
100
AcDbCircle
39
0.0
10
678.186430615211
20
3.97523898462225
30
0.0
40
0.549505889144265
210
0.0
220
0.0
230
1.0
100
AcDbArc
50
202.411895014809
51
337.5881049852
0
LINE
5
B6
330
70
100
AcDbEntity
67
0
8
IV_MARK_SURFACE
62
256
6
ByLayer
370
-1
48
1.0
60
0
100
AcDbLine
10
671.074430527314
20
6.47506646649786
30
0.0
11
671.074430527314
21
4.78173311223666
31
0.0
39
0.0
210
0.0
220
0.0
230
1.0
0
LINE
5
B7
330
70
100
AcDbEntity
67
0
8
IV_MARK_SURFACE
62
256
6
ByLayer
370
-1
48
1.0
60
0
100
AcDbLine
10
670.227763850183
20
6.47506646649783
30
0.0
11
671.074430527314
21
6.47506646649786
31
0.0
39
0.0
210
0.0
220
0.0
230
1.0
0
ARC
5
B8
330
70
100
AcDbEntity
67
0
8
IV_MARK_SURFACE
62
256
6
ByLayer
370
-1
48
1.0
60
0
100
AcDbCircle
39
0.0
10
670.227763850183
20
5.62839978936723
30
0.0
40
0.846666677130593
210
0.0
220
0.0
230
1.0
100
AcDbArc
50
90.0
51
270.0
0
LINE
5
B9
330
70
100
AcDbEntity
67
0
8
IV_MARK_SURFACE
62
256
6
ByLayer
370
-1
48
1.0
60
0
100
AcDbLine
10
651.093096947032
20
6.47506646649776
30
0.0
11
651.093096947032
21
5.45906645394105
31
0.0
39
0.0
210
0.0
220
0.0
230
1.0
0
LINE
5
BA
330
70
100
AcDbEntity
67
0
8
IV_MARK_SURFACE
62
256
6
ByLayer
370
-1
48
1.0
60
0
100
AcDbLine
10
651.093096947032
20
5.45906645394105
30
0.0
11
651.093096947032
21
3.42706642882764
31
0.0
39
0.0
210
0.0
220
0.0
230
1.0
0
LINE
5
BB
330
70
100
AcDbEntity
67
0
8
IV_MARK_SURFACE
62
256
6
ByLayer
370
-1
48
1.0
60
0
100
AcDbLine
10
651.093096947032
20
5.45906645394105
30
0.0
11
649.738430263623
21
4.44306644138436
31
0.0
39
0.0
210
0.0
220
0.0
230
1.0
0
LINE
5
BC
330
70
100
AcDbEntity
67
0
8
IV_MARK_SURFACE
62
256
6
ByLayer
370
-1
48
1.0
60
0
100
AcDbLine
10
660.237097060042
20
5.45906645394108
30
0.0
11
658.882430376633
21
5.45906645394108
31
0.0
39
0.0
210
0.0
220
0.0
230
1.0
0
LINE
5
BD
330
70
100
AcDbEntity
67
0
8
IV_MARK_SURFACE
62
256
6
ByLayer
370
-1
48
1.0
60
0
100
AcDbLine
10
662.94643042686
20
6.47506646649779
30
0.0
11
662.94643042686
21
5.12039978308886
31
0.0
39
0.0
210
0.0
220
0.0
230
1.0
0
LINE
5
BE
330
70
100
AcDbEntity
67
0
8
IV_MARK_SURFACE
62
256
6
ByLayer
370
-1
48
1.0
60
0
100
AcDbLine
10
662.94643042686
20
5.12039978308886
30
0.0
11
662.94643042686
21
3.42706642882767
31
0.0
39
0.0
210
0.0
220
0.0
230
1.0
0
LINE
5
BF
330
70
100
AcDbEntity
67
0
8
IV_MARK_SURFACE
62
256
6
ByLayer
370
-1
48
1.0
60
0
100
AcDbLine
10
662.438430420582
20
4.6123997768105
30
0.0
11
662.94643042686
21
5.12039978308886
31
0.0
39
0.0
210
0.0
220
0.0
230
1.0
0
LINE
5
C0
330
70
100
AcDbEntity
67
0
8
IV_MARK_SURFACE
62
256
6
ByLayer
370
-1
48
1.0
60
0
100
AcDbLine
10
661.253097072599
20
3.42706642882767
30
0.0
11
662.438430420582
21
4.6123997768105
31
0.0
39
0.0
210
0.0
220
0.0
230
1.0
0
LINE
5
C1
330
70
100
AcDbEntity
67
0
8
IV_MARK_SURFACE
62
256
6
ByLayer
370
-1
48
1.0
60
0
100
AcDbLine
10
662.438430420582
20
4.6123997768105
30
0.0
11
661.253097072599
21
6.47506646649779
31
0.0
39
0.0
210
0.0
220
0.0
230
1.0
0
LINE
5
C2
330
70
100
AcDbEntity
67
0
8
IV_MARK_SURFACE
62
256
6
ByLayer
370
-1
48
1.0
60
0
100
AcDbLine
10
668.026430489644
20
5.62839978936719
30
0.0
11
666.671763806235
21
5.62839978936719
31
0.0
39
0.0
210
0.0
220
0.0
230
1.0
0
LINE
5
C3
330
70
100
AcDbEntity
67
0
8
IV_MARK_SURFACE
62
256
6
ByLayer
370
-1
48
1.0
60
0
100
AcDbLine
10
666.333097135382
20
6.47506646649786
30
0.0
11
667.349097147939
21
3.42706642882774
31
0.0
39
0.0
210
0.0
220
0.0
230
1.0
0
LINE
5
C4
330
70
100
AcDbEntity
67
0
8
IV_MARK_SURFACE
62
256
6
ByLayer
370
-1
48
1.0
60
0
100
AcDbLine
10
667.349097147939
20
3.42706642882774
30
0.0
11
668.365097160496
21
6.47506646649786
31
0.0
39
0.0
210
0.0
220
0.0
230
1.0
0
LINE
5
C5
330
70
100
AcDbEntity
67
0
8
IV_MARK_SURFACE
62
256
6
ByLayer
370
-1
48
1.0
60
0
100
AcDbLine
10
685.298430703108
20
6.47506646649811
30
0.0
11
685.975764044812
21
6.47506646649811
31
0.0
39
0.0
210
0.0
220
0.0
230
1.0
0
ARC
5
C6
330
70
100
AcDbEntity
67
0
8
IV_MARK_SURFACE
62
256
6
ByLayer
370
-1
48
1.0
60
0
100
AcDbCircle
39
0.0
10
685.975764044812
20
5.79773312479363
30
0.0
40
0.677333341704475
210
0.0
220
0.0
230
1.0
100
AcDbArc
50
0.0
51
90.0
0
LINE
5
C7
330
70
100
AcDbEntity
67
0
8
IV_MARK_SURFACE
62
256
6
ByLayer
370
-1
48
1.0
60
0
100
AcDbLine
10
686.653097386517
20
5.79773312479363
30
0.0
11
686.653097386517
21
4.10439977053238
31
0.0
39
0.0
210
0.0
220
0.0
230
1.0
0
ARC
5
C8
330
70
100
AcDbEntity
67
0
8
IV_MARK_SURFACE
62
256
6
ByLayer
370
-1
48
1.0
60
0
100
AcDbCircle
39
0.0
10
685.975764044812
20
4.10439977053242
30
0.0
40
0.677333341704475
210
0.0
220
0.0
230
1.0
100
AcDbArc
50
270.0
51
359.999999999997
0
LINE
5
C9
330
70
100
AcDbEntity
67
0
8
IV_MARK_SURFACE
62
256
6
ByLayer
370
-1
48
1.0
60
0
100
AcDbLine
10
685.975764044812
20
3.42706642882795
30
0.0
11
685.298430703108
21
3.42706642882792
31
0.0
39
0.0
210
0.0
220
0.0
230
1.0
0
LINE
5
CA
330
70
100
AcDbEntity
67
0
8
IV_MARK_SURFACE
62
256
6
ByLayer
370
-1
48
1.0
60
0
100
AcDbLine
10
692.241097455579
20
6.47506646649828
30
0.0
11
692.241097455579
21
3.42706642882816
31
0.0
39
0.0
210
0.0
220
0.0
230
1.0
0
LINE
5
CB
330
70
100
AcDbEntity
67
0
8
IV_MARK_SURFACE
62
256
6
ByLayer
370
-1
48
1.0
60
0
100
AcDbLine
10
692.241097455579
20
3.42706642882816
30
0.0
11
691.225097443022
21
5.12039978308936
31
0.0
39
0.0
210
0.0
220
0.0
230
1.0
0
LINE
5
CC
330
70
100
AcDbEntity
67
0
8
IV_MARK_SURFACE
62
256
6
ByLayer
370
-1
48
1.0
60
0
100
AcDbLine
10
691.225097443022
20
5.12039978308936
30
0.0
11
690.209097430465
21
3.42706642882812
31
0.0
39
0.0
210
0.0
220
0.0
230
1.0
0
LINE
5
CD
330
70
100
AcDbEntity
67
0
8
IV_MARK_SURFACE
62
256
6
ByLayer
370
-1
48
1.0
60
0
100
AcDbLine
10
690.209097430465
20
3.42706642882812
30
0.0
11
690.209097430465
21
6.47506646649828
31
0.0
39
0.0
210
0.0
220
0.0
230
1.0
0
ARC
5
CE
330
70
100
AcDbEntity
67
0
8
IV_MARK_SURFACE
62
256
6
ByLayer
370
-1
48
1.0
60
0
100
AcDbCircle
39
0.0
10
688.563044076789
20
5.35679978601093
30
0.0
40
1.1390529864873
210
0.0
220
0.0
230
1.0
100
AcDbArc
50
56.4174486636133
51
100.962686388336
0
ARC
5
CF
330
70
100
AcDbEntity
67
0
8
IV_MARK_SURFACE
62
256
6
ByLayer
370
-1
48
1.0
60
0
100
AcDbCircle
39
0.0
10
688.376507934132
20
5.74788049259863
30
0.0
40
0.727807720621526
210
0.0
220
0.0
230
1.0
100
AcDbArc
50
92.3684650213332
51
239.559048042815
0
LINE
5
D0
330
70
100
AcDbEntity
67
0
8
IV_MARK_SURFACE
62
256
6
ByLayer
370
-1
48
1.0
60
0
100
AcDbLine
10
688.007764069926
20
5.12039978308925
30
0.0
11
688.854430747057
21
4.61239977681089
31
0.0
39
0.0
210
0.0
220
0.0
230
1.0
0
ARC
5
D1
330
70
100
AcDbEntity
67
0
8
IV_MARK_SURFACE
62
256
6
ByLayer
370
-1
48
1.0
60
0
100
AcDbCircle
39
0.0
10
688.510351646759
20
4.03294214253076
30
0.0
40
0.673915111261936
210
0.0
220
0.0
230
1.0
100
AcDbArc
50
319.626277176391
51
59.2983672396603
0
ARC
5
D2
330
70
100
AcDbEntity
67
0
8
IV_MARK_SURFACE
62
256
6
ByLayer
370
-1
48
1.0
60
0
100
AcDbCircle
39
0.0
10
688.346430740778
20
4.85514977981098
30
0.0
40
1.42941668433278
210
0.0
220
0.0
230
1.0
100
AcDbArc
50
241.715306715943
51
298.284693284069
0
LINE
5
D3
330
70
100
AcDbEntity
67
0
8
IV_MARK_SURFACE
62
256
6
ByLayer
370
-1
48
1.0
60
0
100
AcDbLine
10
679.879763969472
20
6.47506646649804
30
0.0
11
681.234430652881
21
6.47506646649803
31
0.0
39
0.0
210
0.0
220
0.0
230
1.0
0
LINE
5
D4
330
70
100
AcDbEntity
67
0
8
IV_MARK_SURFACE
62
256
6
ByLayer
370
-1
48
1.0
60
0
100
AcDbLine
10
681.234430652881
20
6.47506646649803
30
0.0
11
680.049097304898
21
4.61239977681075
31
0.0
39
0.0
210
0.0
220
0.0
230
1.0
0
ARC
5
D5
330
70
100
AcDbEntity
67
0
8
IV_MARK_SURFACE
62
256
6
ByLayer
370
-1
48
1.0
60
0
100
AcDbCircle
39
0.0
10
680.791310647405
20
4.06701310340363
30
0.0
40
0.921046833404499
210
0.0
220
0.0
230
1.0
100
AcDbArc
50
143.691137669713
51
188.236375394438
0
ARC
5
D6
330
70
100
AcDbEntity
67
0
8
IV_MARK_SURFACE
62
256
6
ByLayer
370
-1
48
1.0
60
0
100
AcDbCircle
39
0.0
10
680.557097311176
20
4.13447696388656
30
0.0
40
0.706077201708842
210
0.0
220
0.0
230
1.0
100
AcDbArc
50
196.404708489257
51
343.595291510753
0
LINE
5
D7
330
70
100
AcDbEntity
67
0
8
IV_MARK_SURFACE
62
256
6
ByLayer
370
-1
48
1.0
60
0
100
AcDbLine
10
675.138430577541
20
6.47506646649786
30
0.0
11
676.49309726095
21
6.47506646649786
31
0.0
39
0.0
210
0.0
220
0.0
230
1.0
0
LINE
5
D8
330
70
100
AcDbEntity
67
0
8
IV_MARK_SURFACE
62
256
6
ByLayer
370
-1
48
1.0
60
0
100
AcDbLine
10
676.49309726095
20
6.47506646649786
30
0.0
11
675.307763912967
21
4.61239977681057
31
0.0
39
0.0
210
0.0
220
0.0
230
1.0
0
ARC
5
D9
330
70
100
AcDbEntity
67
0
8
IV_MARK_SURFACE
62
256
6
ByLayer
370
-1
48
1.0
60
0
100
AcDbCircle
39
0.0
10
676.049977255473
20
4.06701310340349
30
0.0
40
0.9210468334045
210
0.0
220
0.0
230
1.0
100
AcDbArc
50
143.691137669713
51
188.236375394438
0
ARC
5
DA
330
70
100
AcDbEntity
67
0
8
IV_MARK_SURFACE
62
256
6
ByLayer
370
-1
48
1.0
60
0
100
AcDbCircle
39
0.0
10
675.815763919245
20
4.13447696388639
30
0.0
40
0.706077201708842
210
0.0
220
0.0
230
1.0
100
AcDbArc
50
196.404708489253
51
343.595291510753
0
LINE
5
DB
330
70
100
AcDbEntity
67
0
8
IV_MARK_SURFACE
62
256
6
ByLayer
370
-1
48
1.0
60
0
100
AcDbLine
10
663.962430439417
20
6.47506646649786
30
0.0
11
664.639763781121
21
6.47506646649786
31
0.0
39
0.0
210
0.0
220
0.0
230
1.0
0
ARC
5
DC
330
70
100
AcDbEntity
67
0
8
IV_MARK_SURFACE
62
256
6
ByLayer
370
-1
48
1.0
60
0
100
AcDbCircle
39
0.0
10
664.639763781121
20
5.7977331247934
30
0.0
40
0.677333341704475
210
0.0
220
0.0
230
1.0
100
AcDbArc
50
0.0
51
90.0
0
LINE
5
DD
330
70
100
AcDbEntity
67
0
8
IV_MARK_SURFACE
62
256
6
ByLayer
370
-1
48
1.0
60
0
100
AcDbLine
10
665.317097122826
20
5.7977331247934
30
0.0
11
665.317097122826
21
4.10439977053212
31
0.0
39
0.0
210
0.0
220
0.0
230
1.0
0
ARC
5
DE
330
70
100
AcDbEntity
67
0
8
IV_MARK_SURFACE
62
256
6
ByLayer
370
-1
48
1.0
60
0
100
AcDbCircle
39
0.0
10
664.639763781121
20
4.10439977053212
30
0.0
40
0.677333341704475
210
0.0
220
0.0
230
1.0
100
AcDbArc
50
270.0
51
0.0
0
LINE
5
DF
330
70
100
AcDbEntity
67
0
8
IV_MARK_SURFACE
62
256
6
ByLayer
370
-1
48
1.0
60
0
100
AcDbLine
10
664.639763781121
20
3.42706642882767
30
0.0
11
663.962430439417
21
3.42706642882767
31
0.0
39
0.0
210
0.0
220
0.0
230
1.0
0
LINE
5
E0
330
70
100
AcDbEntity
67
0
8
IV_MARK_SURFACE
62
256
6
ByLayer
370
-1
48
1.0
60
0
100
AcDbLine
10
657.866430364077
20
6.47506646649779
30
0.0
11
657.866430364077
21
4.44306644138435
31
0.0
39
0.0
210
0.0
220
0.0
230
1.0
0
LINE
5
E1
330
70
100
AcDbEntity
67
0
8
IV_MARK_SURFACE
62
256
6
ByLayer
370
-1
48
1.0
60
0
100
AcDbLine
10
657.866430364077
20
4.44306644138435
30
0.0
11
657.019763686946
21
4.44306644138435
31
0.0
39
0.0
210
0.0
220
0.0
230
1.0
0
ARC
5
E2
330
70
100
AcDbEntity
67
0
8
IV_MARK_SURFACE
62
256
6
ByLayer
370
-1
48
1.0
60
0
100
AcDbCircle
39
0.0
10
657.019763686946
20
4.95106644766272
30
0.0
40
0.508000006278356
210
0.0
220
0.0
230
1.0
100
AcDbArc
50
180.0
51
270.0
0
LINE
5
E3
330
70
100
AcDbEntity
67
0
8
IV_MARK_SURFACE
62
256
6
ByLayer
370
-1
48
1.0
60
0
100
AcDbLine
10
656.511763680668
20
4.95106644766272
30
0.0
11
656.511763680668
21
6.47506646649776
31
0.0
39
0.0
210
0.0
220
0.0
230
1.0
0
LINE
5
E4
330
70
100
AcDbEntity
67
0
8
IV_MARK_SURFACE
62
256
6
ByLayer
370
-1
48
1.0
60
0
100
AcDbLine
10
655.495763668111
20
5.45906645394105
30
0.0
11
655.495763668111
21
5.96706646021947
31
0.0
39
0.0
210
0.0
220
0.0
230
1.0
0
ARC
5
E5
330
70
100
AcDbEntity
67
0
8
IV_MARK_SURFACE
62
256
6
ByLayer
370
-1
48
1.0
60
0
100
AcDbCircle
39
0.0
10
654.987763661833
20
5.96706646021943
30
0.0
40
0.508000006278356
210
0.0
220
0.0
230
1.0
100
AcDbArc
50
0.000000000004007
51
90.0
0
LINE
5
E6
330
70
100
AcDbEntity
67
0
8
IV_MARK_SURFACE
62
256
6
ByLayer
370
-1
48
1.0
60
0
100
AcDbLine
10
654.987763661833
20
6.47506646649776
30
0.0
11
654.141096984702
21
6.47506646649776
31
0.0
39
0.0
210
0.0
220
0.0
230
1.0
0
LINE
5
E7
330
70
100
AcDbEntity
67
0
8
IV_MARK_SURFACE
62
256
6
ByLayer
370
-1
48
1.0
60
0
100
AcDbLine
10
652.109096959589
20
6.47506646649776
30
0.0
11
652.617096965867
21
6.47506646649776
31
0.0
39
0.0
210
0.0
220
0.0
230
1.0
0
ARC
5
E8
330
70
100
AcDbEntity
67
0
8
IV_MARK_SURFACE
62
256
6
ByLayer
370
-1
48
1.0
60
0
100
AcDbCircle
39
0.0
10
652.617096965867
20
5.96706646021943
30
0.0
40
0.508000006278356
210
0.0
220
0.0
230
1.0
100
AcDbArc
50
0.0
51
90.0
0
LINE
5
E9
330
70
100
AcDbEntity
67
0
8
IV_MARK_SURFACE
62
256
6
ByLayer
370
-1
48
1.0
60
0
100
AcDbLine
10
653.125096972145
20
5.96706646021943
30
0.0
11
653.125096972145
21
4.95106644766273
31
0.0
39
0.0
210
0.0
220
0.0
230
1.0
0
ARC
5
EA
330
70
100
AcDbEntity
67
0
8
IV_MARK_SURFACE
62
256
6
ByLayer
370
-1
48
1.0
60
0
100
AcDbCircle
39
0.0
10
652.617096965867
20
4.95106644766269
30
0.0
40
0.508000006278356
210
0.0
220
0.0
230
1.0
100
AcDbArc
50
270.0
51
0.0
0
LINE
5
EB
330
70
100
AcDbEntity
67
0
8
IV_MARK_SURFACE
62
256
6
ByLayer
370
-1
48
1.0
60
0
100
AcDbLine
10
652.617096965867
20
4.44306644138435
30
0.0
11
652.109096959589
21
4.44306644138435
31
0.0
39
0.0
210
0.0
220
0.0
230
1.0
0
LINE
5
EC
330
70
100
AcDbEntity
67
0
8
IV_MARK_SURFACE
62
256
6
ByLayer
370
-1
48
1.0
60
0
100
AcDbLine
10
650.585096940754
20
5.12039978308883
30
0.0
11
649.738430263623
21
6.47506646649776
31
0.0
39
0.0
210
0.0
220
0.0
230
1.0
0
LINE
5
ED
330
70
100
AcDbEntity
67
0
8
IV_OUTER_PROFILE
62
256
6
ByLayer
370
-1
48
1.0
60
0
100
AcDbLine
10
1.2366349989988
20
1976.95896391597
30
0.0
11
275.769359601723
21
1745.78711421101
31
0.0
39
0.0
210
0.0
220
0.0
230
1.0
0
ARC
5
EE
330
70
100
AcDbEntity
67
0
8
IV_OUTER_PROFILE
62
256
6
ByLayer
370
-1
48
1.0
60
0
100
AcDbCircle
39
0.0
10
151.738025545417
20
1622.13225205893
30
0.0
40
175.140791255597
210
0.0
220
0.0
230
1.0
100
AcDbArc
50
44.2654510768407
51
44.9129130531425
0
ARC
5
EF
330
70
100
AcDbEntity
67
0
8
IV_OUTER_PROFILE
62
256
6
ByLayer
370
-1
48
1.0
60
0
100
AcDbCircle
39
0.0
10
216.994264600861
20
1686.15746654539
30
0.0
40
83.7218949659871
210
0.0
220
0.0
230
1.0
100
AcDbArc
50
43.3916989837765
51
44.0590815157446
0
ARC
5
F0
330
70
100
AcDbEntity
67
0
8
IV_OUTER_PROFILE
62
256
6
ByLayer
370
-1
48
1.0
60
0
100
AcDbCircle
39
0.0
10
231.731100126796
20
1700.19901826021
30
0.0
40
63.3667701668704
210
0.0
220
0.0
230
1.0
100
AcDbArc
50
42.449986309836
51
43.3196445265132
0
ARC
5
F1
330
70
100
AcDbEntity
67
0
8
IV_OUTER_PROFILE
62
256
6
ByLayer
370
-1
48
1.0
60
0
100
AcDbCircle
39
0.0
10
241.697595390704
20
1709.40953993852
30
0.0
40
49.7962643450213
210
0.0
220
0.0
230
1.0
100
AcDbArc
50
41.2820860645892
51
42.3702631222899
0
ARC
5
F2
330
70
100
AcDbEntity
67
0
8
IV_OUTER_PROFILE
62
256
6
ByLayer
370
-1
48
1.0
60
0
100
AcDbCircle
39
0.0
10
249.001420202231
20
1715.90520306378
30
0.0
40
40.0220820531621
210
0.0
220
0.0
230
1.0
100
AcDbArc
50
39.8652536489832
51
41.1926420375188
0
ARC
5
F3
330
70
100
AcDbEntity
67
0
8
IV_OUTER_PROFILE
62
256
6
ByLayer
370
-1
48
1.0
60
0
100
AcDbCircle
39
0.0
10
254.647485711178
20
1720.69546317948
30
0.0
40
32.6179915329947
210
0.0
220
0.0
230
1.0
100
AcDbArc
50
38.1716055334534
51
39.7638219591401
0
ARC
5
F4
330
70
100
AcDbEntity
67
0
8
IV_OUTER_PROFILE
62
256
6
ByLayer
370
-1
48
1.0
60
0
100
AcDbCircle
39
0.0
10
259.172879096559
20
1724.32195841883
30
0.0
40
26.8191058587138
210
0.0
220
0.0
230
1.0
100
AcDbArc
50
36.1676867878123
51
38.0557307090551
0
ARC
5
F5
330
70
100
AcDbEntity
67
0
8
IV_OUTER_PROFILE
62
256
6
ByLayer
370
-1
48
1.0
60
0
100
AcDbCircle
39
0.0
10
262.888406570601
20
1727.10180455426
30
0.0
40
22.1791176644567
210
0.0
220
0.0
230
1.0
100
AcDbArc
50
33.8142545429442
51
36.0348244422766
0
ARC
5
F6
330
70
100
AcDbEntity
67
0
8
IV_OUTER_PROFILE
62
256
6
ByLayer
370
-1
48
1.0
60
0
100
AcDbCircle
39
0.0
10
265.984484993145
20
1729.23447764045
30
0.0
40
18.4199806344069
210
0.0
220
0.0
230
1.0
100
AcDbArc
50
31.066559480298
51
33.6620001086348
0
ARC
5
F7
330
70
100
AcDbEntity
67
0
8
IV_OUTER_PROFILE
62
256
6
ByLayer
370
-1
48
1.0
60
0
100
AcDbCircle
39
0.0
10
268.491778288461
20
1730.79392556558
30
0.0
40
15.4676418767512
210
0.0
220
0.0
230
1.0
100
AcDbArc
50
27.9141556457842
51
30.911253533648
0
ARC
5
F8
330
70
100
AcDbEntity
67
0
8
IV_OUTER_PROFILE
62
256
6
ByLayer
370
-1
48
1.0
60
0
100
AcDbCircle
39
0.0
10
270.008957538131
20
1731.63109200951
30
0.0
40
13.735100196389
210
0.0
220
0.0
230
1.0
100
AcDbArc
50
24.515574544791
51
27.7911072564931
0
ARC
5
F9
330
70
100
AcDbEntity
67
0
8
IV_OUTER_PROFILE
62
256
6
ByLayer
370
-1
48
1.0
60
0
100
AcDbCircle
39
0.0
10
271.433670831257
20
1732.31377410416
30
0.0
40
12.1555913581166
210
0.0
220
0.0
230
1.0
100
AcDbArc
50
20.776315018307
51
24.3743290108345
0
ARC
5
FA
330
70
100
AcDbEntity
67
0
8
IV_OUTER_PROFILE
62
256
6
ByLayer
370
-1
48
1.0
60
0
100
AcDbCircle
39
0.0
10
272.650077612934
20
1732.80438566244
30
0.0
40
10.844288799117
210
0.0
220
0.0
230
1.0
100
AcDbArc
50
16.7015133826033
51
20.6324777152525
0
ARC
5
FB
330
70
100
AcDbEntity
67
0
8
IV_OUTER_PROFILE
62
256
6
ByLayer
370
-1
48
1.0
60
0
100
AcDbCircle
39
0.0
10
273.660703298453
20
1733.13264986696
30
0.0
40
9.7819873626767
210
0.0
220
0.0
230
1.0
100
AcDbArc
50
12.2978363877621
51
16.5610742220741
0
ARC
5
FC
330
70
100
AcDbEntity
67
0
8
IV_OUTER_PROFILE
62
256
6
ByLayer
370
-1
48
1.0
60
0
100
AcDbCircle
39
0.0
10
274.467125415447
20
1733.3290964896
30
0.0
40
8.95225059975117
210
0.0
220
0.0
230
1.0
100
AcDbArc
50
7.58921510832119
51
12.1687053591236
0
ARC
5
FD
330
70
100
AcDbEntity
67
0
8
IV_OUTER_PROFILE
62
256
6
ByLayer
370
-1
48
1.0
60
0
100
AcDbCircle
39
0.0
10
-4605.96801237312
20
969.350862344157
30
0.0
40
4948.81934251722
210
0.0
220
0.0
230
1.0
100
AcDbArc
50
8.75824394019458
51
8.89445477041413
0
ARC
5
FE
330
70
100
AcDbEntity
67
0
8
IV_OUTER_PROFILE
62
256
6
ByLayer
370
-1
48
1.0
60
0
100
AcDbCircle
39
0.0
10
-4599.97683513699
20
970.278730718734
30
0.0
40
4942.75674230464
210
0.0
220
0.0
230
1.0
100
AcDbArc
50
8.62186039210641
51
8.75818831187576
0
ARC
5
FF
330
70
100
AcDbEntity
67
0
8
IV_OUTER_PROFILE
62
256
6
ByLayer
370
-1
48
1.0
60
0
100
AcDbCircle
39
0.0
10
-4594.07118331157
20
971.178968214097
30
0.0
40
4936.78287181675
210
0.0
220
0.0
230
1.0
100
AcDbArc
50
8.48536185355924
51
8.62180546548461
0
ARC
5
100
330
70
100
AcDbEntity
67
0
8
IV_OUTER_PROFILE
62
256
6
ByLayer
370
-1
48
1.0
60
0
100
AcDbCircle
39
0.0
10
-4588.25106804382
20
972.051988110909
30
0.0
40
4930.8976459358
210
0.0
220
0.0
230
1.0
100
AcDbArc
50
8.34874973353363
51
8.48530763237375
0
ARC
5
101
330
70
100
AcDbEntity
67
0
8
IV_OUTER_PROFILE
62
256
6
ByLayer
370
-1
48
1.0
60
0
100
AcDbCircle
39
0.0
10
-4582.51648141661
20
972.898206640369
30
0.0
40
4925.10096167658
210
0.0
220
0.0
230
1.0
100
AcDbArc
50
8.2120254482609
51
8.34869622153334
0
ARC
5
102
330
70
100
AcDbEntity
67
0
8
IV_OUTER_PROFILE
62
256
6
ByLayer
370
-1
48
1.0
60
0
100
AcDbCircle
39
0.0
10
-4576.86743814309
20
973.718036785915
30
0.0
40
4919.3927403425
210
0.0
220
0.0
230
1.0
100
AcDbArc
50
8.07519042172794
51
8.21197264914997
0
ARC
5
103
330
70
100
AcDbEntity
67
0
8
IV_OUTER_PROFILE
62
256
6
ByLayer
370
-1
48
1.0
60
0
100
AcDbCircle
39
0.0
10
-4571.3039318529
20
974.511894707541
30
0.0
40
4913.77288334551
210
0.0
220
0.0
230
1.0
100
AcDbArc
50
7.93824608499114
51
8.0751383391464
0
ARC
5
104
330
70
100
AcDbEntity
67
0
8
IV_OUTER_PROFILE
62
256
6
ByLayer
370
-1
48
1.0
60
0
100
AcDbCircle
39
0.0
10
-4565.82596971118
20
975.280194699677
30
0.0
40
4908.24130719376
210
0.0
220
0.0
230
1.0
100
AcDbArc
50
7.80119387658525
51
7.93819472262085
0
ARC
5
105
330
70
100
AcDbEntity
67
0
8
IV_OUTER_PROFILE
62
256
6
ByLayer
370
-1
48
1.0
60
0
100
AcDbCircle
39
0.0
10
-4560.4335571491
20
976.023351429777
30
0.0
40
4902.79792806236
210
0.0
220
0.0
230
1.0
100
AcDbArc
50
7.66403524222785
51
7.80114323798055
0
ARC
5
106
330
70
100
AcDbEntity
67
0
8
IV_OUTER_PROFILE
62
256
6
ByLayer
370
-1
48
1.0
60
0
100
AcDbCircle
39
0.0
10
-4555.12669435822
20
976.741780384331
30
0.0
40
4897.44265826306
210
0.0
220
0.0
230
1.0
100
AcDbArc
50
7.5267716346937
51
7.66398533091675
0
ARC
5
107
330
70
100
AcDbEntity
67
0
8
IV_OUTER_PROFILE
62
256
6
ByLayer
370
-1
48
1.0
60
0
100
AcDbCircle
39
0.0
10
-4549.90538536278
20
977.435896617664
30
0.0
40
4892.1754154057
210
0.0
220
0.0
230
1.0
100
AcDbArc
50
7.38940451385827
51
7.52672245419374
0
ARC
5
108
330
70
100
AcDbEntity
67
0
8
IV_OUTER_PROFILE
62
256
6
ByLayer
370
-1
48
1.0
60
0
100
AcDbCircle
39
0.0
10
-4544.76963438263
20
978.106115265666
30
0.0
40
4886.99611872823
210
0.0
220
0.0
230
1.0
100
AcDbArc
50
7.25193534656749
51
7.38935606762196
0
ARC
5
109
330
70
100
AcDbEntity
67
0
8
IV_OUTER_PROFILE
62
256
6
ByLayer
370
-1
48
1.0
60
0
100
AcDbCircle
39
0.0
10
-4539.71944232579
20
978.752851990371
30
0.0
40
4881.90468556452
210
0.0
220
0.0
230
1.0
100
AcDbArc
50
7.11436560650318
51
7.25188763802421
0
ARC
5
10A
330
70
100
AcDbEntity
67
0
8
IV_OUTER_PROFILE
62
256
6
ByLayer
370
-1
48
1.0
60
0
100
AcDbCircle
39
0.0
10
-4534.75481546884
20
979.376521866686
30
0.0
40
4876.90104009899
210
0.0
220
0.0
230
1.0
100
AcDbArc
50
6.97669677422278
51
7.1143186390303
0
ARC
5
10B
330
70
100
AcDbEntity
67
0
8
IV_OUTER_PROFILE
62
256
6
ByLayer
370
-1
48
1.0
60
0
100
AcDbCircle
39
0.0
10
-4529.87575372785
20
979.977540868858
30
0.0
40
4871.98510154676
210
0.0
220
0.0
230
1.0
100
AcDbArc
50
6.83893033690755
51
6.97665055115928
0
ARC
5
10C
330
70
100
AcDbEntity
67
0
8
IV_OUTER_PROFILE
62
256
6
ByLayer
370
-1
48
1.0
60
0
100
AcDbCircle
39
0.0
10
-4525.08226279876
20
980.556324351722
30
0.0
40
4867.15679639179
210
0.0
220
0.0
230
1.0
100
AcDbArc
50
6.70106778844832
51
6.8388848615614
0
ARC
5
10D
330
70
100
AcDbEntity
67
0
8
IV_OUTER_PROFILE
62
256
6
ByLayer
370
-1
48
1.0
60
0
100
AcDbCircle
39
0.0
10
-4520.37434642026
20
981.113288020823
30
0.0
40
4862.41605059229
210
0.0
220
0.0
230
1.0
100
AcDbArc
50
6.56311062924791
51
6.70102306404144
0
ARC
5
10E
330
70
100
AcDbEntity
67
0
8
IV_OUTER_PROFILE
62
256
6
ByLayer
370
-1
48
1.0
60
0
100
AcDbCircle
39
0.0
10
-4515.75200486619
20
981.648848080051
30
0.0
40
4857.76278806925
210
0.0
220
0.0
230
1.0
100
AcDbArc
50
6.42506036611207
51
6.56306665899412
0
ARC
5
10F
330
70
100
AcDbEntity
67
0
8
IV_OUTER_PROFILE
62
256
6
ByLayer
370
-1
48
1.0
60
0
100
AcDbCircle
39
0.0
10
-4511.2152437065
20
982.163420213624
30
0.0
40
4853.19693952926
210
0.0
220
0.0
230
1.0
100
AcDbArc
50
6.28691851228322
51
6.42501715318891
0
ARC
5
110
330
70
100
AcDbEntity
67
0
8
IV_OUTER_PROFILE
62
256
6
ByLayer
370
-1
48
1.0
60
0
100
AcDbCircle
39
0.0
10
-4506.76406507961
20
982.657420601505
30
0.0
40
4848.71843368097
210
0.0
220
0.0
230
1.0
100
AcDbArc
50
6.14868658722602
51
6.28687605980569
0
ARC
5
111
330
70
100
AcDbEntity
67
0
8
IV_OUTER_PROFILE
62
256
6
ByLayer
370
-1
48
1.0
60
0
100
AcDbCircle
39
0.0
10
-4502.39847234694
20
983.131265381659
30
0.0
40
4844.32720192349
210
0.0
220
0.0
230
1.0
100
AcDbArc
50
6.0103661166036
51
6.14864489827919
0
ARC
5
112
330
70
100
AcDbEntity
67
0
8
IV_OUTER_PROFILE
62
256
6
ByLayer
370
-1
48
1.0
60
0
100
AcDbCircle
39
0.0
10
-4498.11847144778
20
983.585370524318
30
0.0
40
4840.02317970971
210
0.0
220
0.0
230
1.0
100
AcDbArc
50
5.87195863220041
51
6.01032519418367
0
ARC
5
113
330
70
100
AcDbEntity
67
0
8
IV_OUTER_PROFILE
62
256
6
ByLayer
370
-1
48
1.0
60
0
100
AcDbCircle
39
0.0
10
-4493.92406151379
20
984.020152816864
30
0.0
40
4835.80629711219
210
0.0
220
0.0
230
1.0
100
AcDbArc
50
5.73346567169815
51
5.8719184792795
0
ARC
5
114
330
70
100
AcDbEntity
67
0
8
IV_OUTER_PROFILE
62
256
6
ByLayer
370
-1
48
1.0
60
0
100
AcDbCircle
39
0.0
10
-4489.81524870291
20
984.436028408866
30
0.0
40
4831.67649273606
210
0.0
220
0.0
230
1.0
100
AcDbArc
50
5.59488877877702
51
5.73342629121802
0
ARC
5
115
330
70
100
AcDbEntity
67
0
8
IV_OUTER_PROFILE
62
256
6
ByLayer
370
-1
48
1.0
60
0
100
AcDbCircle
39
0.0
10
-4485.79203394121
20
984.833414083703
30
0.0
40
4827.63370139791
210
0.0
220
0.0
230
1.0
100
AcDbArc
50
5.4562295028438
51
5.59485017362311
0
ARC
5
116
330
70
100
AcDbEntity
67
0
8
IV_OUTER_PROFILE
62
256
6
ByLayer
370
-1
48
1.0
60
0
100
AcDbCircle
39
0.0
10
-4481.85442321677
20
985.212726223921
30
0.0
40
4823.67786447423
210
0.0
220
0.0
230
1.0
100
AcDbArc
50
5.31748939908432
51
5.45619167584809
0
ARC
5
117
330
70
100
AcDbEntity
67
0
8
IV_OUTER_PROFILE
62
256
6
ByLayer
370
-1
48
1.0
60
0
100
AcDbCircle
39
0.0
10
-4478.00241789353
20
985.574381762734
30
0.0
40
4819.80892017126
210
0.0
220
0.0
230
1.0
100
AcDbArc
50
5.17867002822635
51
5.31745235301894
0
ARC
5
118
330
70
100
AcDbEntity
67
0
8
IV_OUTER_PROFILE
62
256
6
ByLayer
370
-1
48
1.0
60
0
100
AcDbCircle
39
0.0
10
-4474.23602212829
20
985.918797464583
30
0.0
40
4816.02681097953
210
0.0
220
0.0
230
1.0
100
AcDbArc
50
5.03977295654567
51
5.1786337658273
0
ARC
5
119
330
70
100
AcDbEntity
67
0
8
IV_OUTER_PROFILE
62
256
6
ByLayer
370
-1
48
1.0
60
0
100
AcDbCircle
39
0.0
10
-4470.55523647907
20
986.246390514935
30
0.0
40
4812.33147725754
210
0.0
220
0.0
230
1.0
100
AcDbArc
50
4.90079975567595
51
5.03973748052615
0
ARC
5
11A
330
70
100
AcDbEntity
67
0
8
IV_OUTER_PROFILE
62
256
6
ByLayer
370
-1
48
1.0
60
0
100
AcDbCircle
39
0.0
10
-4466.96006957441
20
986.557577489902
30
0.0
40
4808.72286894903
210
0.0
220
0.0
230
1.0
100
AcDbArc
50
4.76175200267854
51
4.90076506866248
0
ARC
5
11B
330
70
100
AcDbEntity
67
0
8
IV_OUTER_PROFILE
62
256
6
ByLayer
370
-1
48
1.0
60
0
100
AcDbCircle
39
0.0
10
-4463.45051967451
20
986.852775968634
30
0.0
40
4805.2009270763
210
0.0
220
0.0
230
1.0
100
AcDbArc
50
4.62263127966948
51
4.76171810723952
0
ARC
5
11C
330
70
100
AcDbEntity
67
0
8
IV_OUTER_PROFILE
62
256
6
ByLayer
370
-1
48
1.0
60
0
100
AcDbCircle
39
0.0
10
-4460.02659394113
20
987.132402871772
30
0.0
40
4801.76560308409
210
0.0
220
0.0
230
1.0
100
AcDbArc
50
4.48343917400033
51
4.62259817833985
0
ARC
5
11D
330
70
100
AcDbEntity
67
0
8
IV_OUTER_PROFILE
62
256
6
ByLayer
370
-1
48
1.0
60
0
100
AcDbCircle
39
0.0
10
-4456.68829305113
20
987.396875757912
30
0.0
40
4798.416843401
210
0.0
220
0.0
230
1.0
100
AcDbArc
50
4.34417727793153
51
4.48340686924602
0
ARC
5
11E
330
70
100
AcDbEntity
67
0
8
IV_OUTER_PROFILE
62
256
6
ByLayer
370
-1
48
1.0
60
0
100
AcDbCircle
39
0.0
10
-4453.43562115785
20
987.646612000046
30
0.0
40
4795.15459943729
210
0.0
220
0.0
230
1.0
100
AcDbArc
50
4.20484718866983
51
4.34414577218967
0
ARC
5
11F
330
70
100
AcDbEntity
67
0
8
IV_OUTER_PROFILE
62
256
6
ByLayer
370
-1
48
1.0
60
0
100
AcDbCircle
39
0.0
10
-4450.26858083596
20
987.882029193255
30
0.0
40
4791.97882251559
210
0.0
220
0.0
230
1.0
100
AcDbArc
50
4.06545050819329
51
4.20481648432431
0
ARC
5
120
330
70
100
AcDbEntity
67
0
8
IV_OUTER_PROFILE
62
256
6
ByLayer
370
-1
48
1.0
60
0
100
AcDbCircle
39
0.0
10
-4447.18717491559
20
988.10354500744
30
0.0
40
4788.88946571323
210
0.0
220
0.0
230
1.0
100
AcDbArc
50
3.92598884317035
51
4.06542060759184
0
ARC
5
121
330
70
100
AcDbEntity
67
0
8
IV_OUTER_PROFILE
62
256
6
ByLayer
370
-1
48
1.0
60
0
100
AcDbCircle
39
0.0
10
-4444.19140933555
20
988.311576998042
30
0.0
40
4785.88648672399
210
0.0
220
0.0
230
1.0
100
AcDbArc
50
3.78646380489587
51
3.92595974857611
0
ARC
5
122
330
70
100
AcDbEntity
67
0
8
IV_OUTER_PROFILE
62
256
6
ByLayer
370
-1
48
1.0
60
0
100
AcDbCircle
39
0.0
10
-4441.2812858708
20
988.50654311654
30
0.0
40
4782.96984056989
210
0.0
220
0.0
230
1.0
100
AcDbArc
50
3.64687700907695
51
3.78643551850172
0
ARC
5
123
330
70
100
AcDbEntity
67
0
8
IV_OUTER_PROFILE
62
256
6
ByLayer
370
-1
48
1.0
60
0
100
AcDbCircle
39
0.0
10
-4438.45680637609
20
988.688861394312
30
0.0
40
4780.13948385868
210
0.0
220
0.0
230
1.0
100
AcDbArc
50
3.5072300757857
51
3.64684953306395
0
ARC
5
124
330
70
100
AcDbEntity
67
0
8
IV_OUTER_PROFILE
62
256
6
ByLayer
370
-1
48
1.0
60
0
100
AcDbCircle
39
0.0
10
-4435.71797680099
20
988.858949702222
30
0.0
40
4777.39537880816
210
0.0
220
0.0
230
1.0
100
AcDbArc
50
3.36752462941177
51
3.50720341226447
0
ARC
5
125
330
70
100
AcDbEntity
67
0
8
IV_OUTER_PROFILE
62
256
6
ByLayer
370
-1
48
1.0
60
0
100
AcDbCircle
39
0.0
10
-4433.06479875347
20
989.017226286977
30
0.0
40
4774.73748479479
210
0.0
220
0.0
230
1.0
100
AcDbArc
50
3.22776229842734
51
3.36749878042384
0
ARC
5
126
330
70
100
AcDbEntity
67
0
8
IV_OUTER_PROFILE
62
256
6
ByLayer
370
-1
48
1.0
60
0
100
AcDbCircle
39
0.0
10
-4430.49727602086
20
989.164109358214
30
0.0
40
4772.1657648898
210
0.0
220
0.0
230
1.0
100
AcDbArc
50
3.08794471537227
51
3.22773726597667
0
ARC
5
127
330
70
100
AcDbEntity
67
0
8
IV_OUTER_PROFILE
62
256
6
ByLayer
370
-1
48
1.0
60
0
100
AcDbCircle
39
0.0
10
-4428.01541143597
20
989.300017280495
30
0.0
40
4769.68018272141
210
0.0
220
0.0
230
1.0
100
AcDbArc
50
2.94807351669606
51
3.08792050140598
0
ARC
5
128
330
70
100
AcDbEntity
67
0
8
IV_OUTER_PROFILE
62
256
6
ByLayer
370
-1
48
1.0
60
0
100
AcDbCircle
39
0.0
10
-4425.61920864008
20
989.425368472632
30
0.0
40
4767.28070424271
210
0.0
220
0.0
230
1.0
100
AcDbArc
50
2.8081503426761
51
2.94805012311055
0
ARC
5
129
330
70
100
AcDbEntity
67
0
8
IV_OUTER_PROFILE
62
256
6
ByLayer
370
-1
48
1.0
60
0
100
AcDbCircle
39
0.0
10
-4423.30867215971
20
989.540581414398
30
0.0
40
4764.96729780982
210
0.0
220
0.0
230
1.0
100
AcDbArc
50
2.66817683730054
51
2.80812777128602
0
ARC
5
12A
330
70
100
AcDbEntity
67
0
8
IV_OUTER_PROFILE
62
256
6
ByLayer
370
-1
48
1.0
60
0
100
AcDbCircle
39
0.0
10
-4421.08380410517
20
989.646074806806
30
0.0
40
4762.73993087857
210
0.0
220
0.0
230
1.0
100
AcDbArc
50
2.52815464811111
51
2.66815508986552
0
ARC
5
12B
330
70
100
AcDbEntity
67
0
8
IV_OUTER_PROFILE
62
256
6
ByLayer
370
-1
48
1.0
60
0
100
AcDbCircle
39
0.0
10
-4418.94460594687
20
989.742267466471
30
0.0
40
4760.5985717856
210
0.0
220
0.0
230
1.0
100
AcDbArc
50
2.388085426113
51
2.52813372637808
0
ARC
5
12C
330
70
100
AcDbEntity
67
0
8
IV_OUTER_PROFILE
62
256
6
ByLayer
370
-1
48
1.0
60
0
100
AcDbCircle
39
0.0
10
-4416.89108451619
20
989.829578074741
30
0.0
40
4758.54319575621
210
0.0
220
0.0
230
1.0
100
AcDbArc
50
2.24797082575023
51
2.38806533174791
0
ARC
5
12D
330
70
100
AcDbEntity
67
0
8
IV_OUTER_PROFILE
62
256
6
ByLayer
370
-1
48
1.0
60
0
100
AcDbCircle
39
0.0
10
-4414.92324144364
20
989.90842564508
30
0.0
40
4756.57377433394
210
0.0
220
0.0
230
1.0
100
AcDbArc
50
2.10781250463451
51
2.2479515603347
0
ARC
5
12E
330
70
100
AcDbEntity
67
0
8
IV_OUTER_PROFILE
62
256
6
ByLayer
370
-1
48
1.0
60
0
100
AcDbCircle
39
0.0
10
-4413.04107847496
20
989.979229270248
30
0.0
40
4754.69028070435
210
0.0
220
0.0
230
1.0
100
AcDbArc
50
1.96761212350752
51
2.10779406974021
0
ARC
5
12F
330
70
100
AcDbEntity
67
0
8
IV_OUTER_PROFILE
62
256
6
ByLayer
370
-1
48
1.0
60
0
100
AcDbCircle
39
0.0
10
-4411.24460432011
20
990.042407896685
30
0.0
40
4752.89269654921
210
0.0
220
0.0
230
1.0
100
AcDbArc
50
1.82737134622739
51
1.96759452059306
0
ARC
5
130
330
70
100
AcDbEntity
67
0
8
IV_OUTER_PROFILE
62
256
6
ByLayer
370
-1
48
1.0
60
0
100
AcDbCircle
39
0.0
10
-4409.53381570436
20
990.098380991355
30
0.0
40
4751.18099308755
210
0.0
220
0.0
230
1.0
100
AcDbArc
50
1.68709183937021
51
1.82735457670991
0
ARC
5
131
330
70
100
AcDbEntity
67
0
8
IV_OUTER_PROFILE
62
256
6
ByLayer
370
-1
48
1.0
60
0
100
AcDbCircle
39
0.0
10
-4407.90871930973
20
990.147567775376
30
0.0
40
4749.55515303202
210
0.0
220
0.0
230
1.0
100
AcDbArc
50
1.54677527243852
51
1.68707590465704
0
ARC
5
132
330
70
100
AcDbEntity
67
0
8
IV_OUTER_PROFILE
62
256
6
ByLayer
370
-1
48
1.0
60
0
100
AcDbCircle
39
0.0
10
-4406.36931904525
20
990.190387674163
30
0.0
40
4748.01515785281
210
0.0
220
0.0
230
1.0
100
AcDbArc
50
1.40642331755584
51
1.54676017382095
0
ARC
5
133
330
70
100
AcDbEntity
67
0
8
IV_OUTER_PROFILE
62
256
6
ByLayer
370
-1
48
1.0
60
0
100
AcDbCircle
39
0.0
10
-4404.91561597494
20
990.227260285286
30
0.0
40
4746.56098770807
210
0.0
220
0.0
230
1.0
100
AcDbArc
50
1.26603764934543
51
1.40640905629001
0
ARC
5
134
330
70
100
AcDbEntity
67
0
8
IV_OUTER_PROFILE
62
256
6
ByLayer
370
-1
48
1.0
60
0
100
AcDbCircle
39
0.0
10
-4403.54761510603
20
990.258605201739
30
0.0
40
4745.19262823594
210
0.0
220
0.0
230
1.0
100
AcDbArc
50
1.12561994491401
51
1.26602422663788
0
ARC
5
135
330
70
100
AcDbEntity
67
0
8
IV_OUTER_PROFILE
62
256
6
ByLayer
370
-1
48
1.0
60
0
100
AcDbCircle
39
0.0
10
-4402.26531952362
20
990.284842168298
30
0.0
40
4743.91006468843
210
0.0
220
0.0
230
1.0
100
AcDbArc
50
0.985171883646346
51
1.125607361892
0
ARC
5
136
330
70
100
AcDbEntity
67
0
8
IV_OUTER_PROFILE
62
256
6
ByLayer
370
-1
48
1.0
60
0
100
AcDbCircle
39
0.0
10
-4401.06873245811
20
990.306391025253
30
0.0
40
4742.7132840011
210
0.0
220
0.0
230
1.0
100
AcDbArc
50
0.844695147112712
51
0.985160141380316
0
ARC
5
137
330
70
100
AcDbEntity
67
0
8
IV_OUTER_PROFILE
62
256
6
ByLayer
370
-1
48
1.0
60
0
100
AcDbCircle
39
0.0
10
-4399.9578581265
20
990.32367169833
30
0.0
40
4741.60227563553
210
0.0
220
0.0
230
1.0
100
AcDbArc
50
0.704191418967282
51
0.84468424660515
0
ARC
5
138
330
70
100
AcDbEntity
67
0
8
IV_OUTER_PROFILE
62
256
6
ByLayer
370
-1
48
1.0
60
0
100
AcDbCircle
39
0.0
10
-4398.9326973602
20
990.337104259569
30
0.0
40
4740.57702720818
210
0.0
220
0.0
230
1.0
100
AcDbArc
50
0.563662384758362
51
0.704181361183373
0
ARC
5
139
330
70
100
AcDbEntity
67
0
8
IV_OUTER_PROFILE
62
256
6
ByLayer
370
-1
48
1.0
60
0
100
AcDbCircle
39
0.0
10
-4397.99325501584
20
990.347108821813
30
0.0
40
4739.63753190294
210
0.0
220
0.0
230
1.0
100
AcDbArc
50
0.423109731919643
51
0.563653170618445
0
ARC
5
13A
330
70
100
AcDbEntity
67
0
8
IV_OUTER_PROFILE
62
256
6
ByLayer
370
-1
48
1.0
60
0
100
AcDbCircle
39
0.0
10
-4397.1395361986
20
990.354105611385
30
0.0
40
4738.78378469521
210
0.0
220
0.0
230
1.0
100
AcDbArc
50
0.282535149592823
51
0.423101362235173
0
ARC
5
13B
330
70
100
AcDbEntity
67
0
8
IV_OUTER_PROFILE
62
256
6
ByLayer
370
-1
48
1.0
60
0
100
AcDbCircle
39
0.0
10
-4396.37154172759
20
990.358514987891
30
0.0
40
4738.01577781837
210
0.0
220
0.0
230
1.0
100
AcDbArc
50
0.141940328439742
51
0.282527625126734
0
ARC
5
13C
330
70
100
AcDbEntity
67
0
8
IV_OUTER_PROFILE
62
256
6
ByLayer
370
-1
48
1.0
60
0
100
AcDbCircle
39
0.0
10
-4395.68927737378
20
990.360757380047
30
0.0
40
4737.33351000304
210
0.0
220
0.0
230
1.0
100
AcDbArc
50
0.0013269606582806
51
0.141933649896874
0
ARC
5
13D
330
70
100
AcDbEntity
67
0
8
IV_OUTER_PROFILE
62
256
6
ByLayer
370
-1
48
1.0
60
0
100
AcDbCircle
39
0.0
10
-4395.09274167578
20
990.361253331948
30
0.0
40
4736.73697429374
210
0.0
220
0.0
230
1.0
100
AcDbArc
50
359.860696739678
51
0.0013211287171444
0
ARC
5
13E
330
70
100
AcDbEntity
67
0
8
IV_OUTER_PROFILE
62
256
6
ByLayer
370
-1
48
1.0
60
0
100
AcDbCircle
39
0.0
10
-4394.58194558709
20
990.360423485958
30
0.0
40
4736.22617769718
210
0.0
220
0.0
230
1.0
100
AcDbArc
50
359.720051360332
51
359.860691754916
0
ARC
5
13F
330
70
100
AcDbEntity
67
0
8
IV_OUTER_PROFILE
62
256
6
ByLayer
370
-1
48
1.0
60
0
100
AcDbCircle
39
0.0
10
-4394.15688450064
20
990.358688564316
30
0.0
40
4735.80111320769
210
0.0
220
0.0
230
1.0
100
AcDbArc
50
359.579392518316
51
359.720047223271
0
ARC
5
140
330
70
100
AcDbEntity
67
0
8
IV_OUTER_PROFILE
62
256
6
ByLayer
370
-1
48
1.0
60
0
100
AcDbCircle
39
0.0
10
-4393.8175661885
20
990.356469417256
30
0.0
40
4735.46178774788
210
0.0
220
0.0
230
1.0
100
AcDbArc
50
359.438721910486
51
359.57938922947
0
ARC
5
141
330
70
100
AcDbEntity
67
0
8
IV_OUTER_PROFILE
62
256
6
ByLayer
370
-1
48
1.0
60
0
100
AcDbCircle
39
0.0
10
-4393.56399433484
20
990.354186993635
30
0.0
40
4735.20820570247
210
0.0
220
0.0
230
1.0
100
AcDbArc
50
359.298041234488
51
359.438719470238
0
ARC
5
142
330
70
100
AcDbEntity
67
0
8
IV_OUTER_PROFILE
62
256
6
ByLayer
370
-1
48
1.0
60
0
100
AcDbCircle
39
0.0
10
-4393.39617153206
20
990.352262331048
30
0.0
40
4735.04037191516
210
0.0
220
0.0
230
1.0
100
AcDbArc
50
359.157352188679
51
359.298039643166
0
ARC
5
143
330
70
100
AcDbEntity
67
0
8
IV_OUTER_PROFILE
62
256
6
ByLayer
370
-1
48
1.0
60
0
100
AcDbCircle
39
0.0
10
-4393.31410138784
20
990.351116576143
30
0.0
40
4734.95829379649
210
0.0
220
0.0
230
1.0
100
AcDbArc
50
359.016656472036
51
359.157351446558
0
ARC
5
144
330
70
100
AcDbEntity
67
0
8
IV_OUTER_PROFILE
62
256
6
ByLayer
370
-1
48
1.0
60
0
100
AcDbCircle
39
0.0
10
-4393.80874673284
20
990.35851824753
30
0.0
40
4735.45299331902
210
0.0
220
0.0
230
1.0
100
AcDbArc
50
358.875983435566
51
359.016669640859
0
ARC
5
145
330
70
100
AcDbEntity
67
0
8
IV_OUTER_PROFILE
62
256
6
ByLayer
370
-1
48
1.0
60
0
100
AcDbCircle
39
0.0
10
-4397.58049451783
20
990.428938239165
30
0.0
40
4739.22539673158
210
0.0
220
0.0
230
1.0
100
AcDbArc
50
358.735445755641
51
358.876026742881
0
ARC
5
146
330
70
100
AcDbEntity
67
0
8
IV_OUTER_PROFILE
62
256
6
ByLayer
370
-1
48
1.0
60
0
100
AcDbCircle
39
0.0
10
-4399.03673637159
20
990.459886262346
30
0.0
40
4740.68196690984
210
0.0
220
0.0
230
1.0
100
AcDbArc
50
358.594914819691
51
358.735460223614
0
ARC
5
147
330
70
100
AcDbEntity
67
0
8
IV_OUTER_PROFILE
62
256
6
ByLayer
370
-1
48
1.0
60
0
100
AcDbCircle
39
0.0
10
-4400.57886775512
20
990.496444619565
30
0.0
40
4742.22453104547
210
0.0
220
0.0
230
1.0
100
AcDbArc
50
358.454421990243
51
358.594930128756
0
ARC
5
148
330
70
100
AcDbEntity
67
0
8
IV_OUTER_PROFILE
62
256
6
ByLayer
370
-1
48
1.0
60
0
100
AcDbCircle
39
0.0
10
-4402.20688097036
20
990.539034077209
30
0.0
40
4743.85310069513
210
0.0
220
0.0
230
1.0
100
AcDbArc
50
358.313968945315
51
358.454438139115
0
ARC
5
149
330
70
100
AcDbEntity
67
0
8
IV_OUTER_PROFILE
62
256
6
ByLayer
370
-1
48
1.0
60
0
100
AcDbCircle
39
0.0
10
-4403.92077767772
20
990.588075527745
30
0.0
40
4745.56769831804
210
0.0
220
0.0
230
1.0
100
AcDbArc
50
358.173557360201
51
358.313985932619
0
ARC
5
14A
330
70
100
AcDbEntity
67
0
8
IV_OUTER_PROFILE
62
256
6
ByLayer
370
-1
48
1.0
60
0
100
AcDbCircle
39
0.0
10
-4405.72054918298
20
990.643989452027
30
0.0
40
4747.36833755391
210
0.0
220
0.0
230
1.0
100
AcDbArc
50
358.03318890706
51
358.173575184482
0
ARC
5
14B
330
70
100
AcDbEntity
67
0
8
IV_OUTER_PROFILE
62
256
6
ByLayer
370
-1
48
1.0
60
0
100
AcDbCircle
39
0.0
10
-4407.60619291343
20
990.707196378014
30
0.0
40
4749.25503970378
210
0.0
220
0.0
230
1.0
100
AcDbArc
50
357.892865255041
51
358.033207566849
0
ARC
5
14C
330
70
100
AcDbEntity
67
0
8
IV_OUTER_PROFILE
62
256
6
ByLayer
370
-1
48
1.0
60
0
100
AcDbCircle
39
0.0
10
-4409.57770655132
20
990.77811673296
30
0.0
40
4751.22782785994
210
0.0
220
0.0
230
1.0
100
AcDbArc
50
357.752588070079
51
357.892884748758
0
ARC
5
14D
330
70
100
AcDbEntity
67
0
8
IV_OUTER_PROFILE
62
256
6
ByLayer
370
-1
48
1.0
60
0
100
AcDbCircle
39
0.0
10
-4411.63508273273
20
990.857170631897
30
0.0
40
4753.28672159895
210
0.0
220
0.0
230
1.0
100
AcDbArc
50
357.612359014705
51
357.752608396109
0
ARC
5
14E
330
70
100
AcDbEntity
67
0
8
IV_OUTER_PROFILE
62
256
6
ByLayer
370
-1
48
1.0
60
0
100
AcDbCircle
39
0.0
10
-4413.77831865061
20
990.944778228172
30
0.0
40
4755.43174658916
210
0.0
220
0.0
230
1.0
100
AcDbArc
50
357.472179748063
51
357.612380171398
0
ARC
5
14F
330
70
100
AcDbEntity
67
0
8
IV_OUTER_PROFILE
62
256
6
ByLayer
370
-1
48
1.0
60
0
100
AcDbCircle
39
0.0
10
-4416.00740935105
20
991.041359464799
30
0.0
40
4757.66292788048
210
0.0
220
0.0
230
1.0
100
AcDbArc
50
357.332051925705
51
357.472201733708
0
ARC
5
150
330
70
100
AcDbEntity
67
0
8
IV_OUTER_PROFILE
62
256
6
ByLayer
370
-1
48
1.0
60
0
100
AcDbCircle
39
0.0
10
-4418.32235300862
20
991.147334300735
30
0.0
40
4759.9802951827
210
0.0
220
0.0
230
1.0
100
AcDbArc
50
357.191977199549
51
357.332074738509
0
ARC
5
151
330
70
100
AcDbEntity
67
0
8
IV_OUTER_PROFILE
62
256
6
ByLayer
370
-1
48
1.0
60
0
100
AcDbCircle
39
0.0
10
-4420.72314339898
20
991.263122370534
30
0.0
40
4762.38387532848
210
0.0
220
0.0
230
1.0
100
AcDbArc
50
357.051957217656
51
357.19200083766
0
ARC
5
152
330
70
100
AcDbEntity
67
0
8
IV_OUTER_PROFILE
62
256
6
ByLayer
370
-1
48
1.0
60
0
100
AcDbCircle
39
0.0
10
-4423.20977659429
20
991.389143283774
30
0.0
40
4764.87369897331
210
0.0
220
0.0
230
1.0
100
AcDbArc
50
356.911993624213
51
357.051981679191
0
ARC
5
153
330
70
100
AcDbEntity
67
0
8
IV_OUTER_PROFILE
62
256
6
ByLayer
370
-1
48
1.0
60
0
100
AcDbCircle
39
0.0
10
-4425.78224941573
20
991.525816567394
30
0.0
40
4767.44979904516
210
0.0
220
0.0
230
1.0
100
AcDbArc
50
356.772088059404
51
356.912018907219
0
ARC
5
154
330
70
100
AcDbEntity
67
0
8
IV_OUTER_PROFILE
62
256
6
ByLayer
370
-1
48
1.0
60
0
100
AcDbCircle
39
0.0
10
-4428.44055649696
20
991.673561506076
30
0.0
40
4770.11220780138
210
0.0
220
0.0
230
1.0
100
AcDbArc
50
356.632242159245
51
356.772114161872
0
ARC
5
155
330
70
100
AcDbEntity
67
0
8
IV_OUTER_PROFILE
62
256
6
ByLayer
370
-1
48
1.0
60
0
100
AcDbCircle
39
0.0
10
-4431.18469545094
20
991.832797425507
30
0.0
40
4772.86096200118
210
0.0
220
0.0
230
1.0
100
AcDbArc
50
356.492457555559
51
356.632269079107
0
ARC
5
156
330
70
100
AcDbEntity
67
0
8
IV_OUTER_PROFILE
62
256
6
ByLayer
370
-1
48
1.0
60
0
100
AcDbCircle
39
0.0
10
-4434.01466153147
20
992.003943395342
30
0.0
40
4775.69609755681
210
0.0
220
0.0
230
1.0
100
AcDbArc
50
356.352735875778
51
356.492485290672
0
ARC
5
157
330
70
100
AcDbEntity
67
0
8
IV_OUTER_PROFILE
62
256
6
ByLayer
370
-1
48
1.0
60
0
100
AcDbCircle
39
0.0
10
-4436.93044920783
20
992.187418302384
30
0.0
40
4778.61765110749
210
0.0
220
0.0
230
1.0
100
AcDbArc
50
356.213078742866
51
356.352764423979
0
ARC
5
158
330
70
100
AcDbEntity
67
0
8
IV_OUTER_PROFILE
62
256
6
ByLayer
370
-1
48
1.0
60
0
100
AcDbCircle
39
0.0
10
-4439.93205594736
20
992.383641096214
30
0.0
40
4781.62566380761
210
0.0
220
0.0
230
1.0
100
AcDbArc
50
356.073487775258
51
356.21310810193
0
ARC
5
159
330
70
100
AcDbEntity
67
0
8
IV_OUTER_PROFILE
62
256
6
ByLayer
370
-1
48
1.0
60
0
100
AcDbCircle
39
0.0
10
-4443.01947593091
20
992.593030386695
30
0.0
40
4784.72017502704
210
0.0
220
0.0
230
1.0
100
AcDbArc
50
355.933964586663
51
356.073517942911
0
ARC
5
15A
330
70
100
AcDbEntity
67
0
8
IV_OUTER_PROFILE
62
256
6
ByLayer
370
-1
48
1.0
60
0
100
AcDbCircle
39
0.0
10
-4446.19270780253
20
992.81600496417
30
0.0
40
4787.90123011589
210
0.0
220
0.0
230
1.0
100
AcDbArc
50
355.794510786068
51
355.93399556056
0
ARC
5
15B
330
70
100
AcDbEntity
67
0
8
IV_OUTER_PROFILE
62
256
6
ByLayer
370
-1
48
1.0
60
0
100
AcDbCircle
39
0.0
10
-4449.45174476667
20
993.052983113681
30
0.0
40
4791.16887047562
210
0.0
220
0.0
230
1.0
100
AcDbArc
50
355.655127977494
51
355.794542563813
0
ARC
5
15C
330
70
100
AcDbEntity
67
0
8
IV_OUTER_PROFILE
62
256
6
ByLayer
370
-1
48
1.0
60
0
100
AcDbCircle
39
0.0
10
-4452.79658437811
20
993.304383304462
30
0.0
40
4794.52314337076
210
0.0
220
0.0
230
1.0
100
AcDbArc
50
355.515817760023
51
355.655160556651
0
ARC
5
15D
330
70
100
AcDbEntity
67
0
8
IV_OUTER_PROFILE
62
256
6
ByLayer
370
-1
48
1.0
60
0
100
AcDbCircle
39
0.0
10
-4456.2272208835
20
993.570623632898
30
0.0
40
4797.96409424772
210
0.0
220
0.0
230
1.0
100
AcDbArc
50
355.376581727588
51
355.515851138104
0
ARC
5
15E
330
70
100
AcDbEntity
67
0
8
IV_OUTER_PROFILE
62
256
6
ByLayer
370
-1
48
1.0
60
0
100
AcDbCircle
39
0.0
10
-4459.74365288307
20
993.852122411222
30
0.0
40
4801.49177441661
210
0.0
220
0.0
230
1.0
100
AcDbArc
50
355.237421468982
51
355.37661590204
0
ARC
5
15F
330
70
100
AcDbEntity
67
0
8
IV_OUTER_PROFILE
62
256
6
ByLayer
370
-1
48
1.0
60
0
100
AcDbCircle
39
0.0
10
-4463.34587469842
20
994.149297490992
30
0.0
40
4805.10623238999
210
0.0
220
0.0
230
1.0
100
AcDbArc
50
355.098338567623
51
355.237456437181
0
ARC
5
160
330
70
100
AcDbEntity
67
0
8
IV_OUTER_PROFILE
62
256
6
ByLayer
370
-1
48
1.0
60
0
100
AcDbCircle
39
0.0
10
-4467.03388204334
20
994.462566703768
30
0.0
40
4808.80751956815
210
0.0
220
0.0
230
1.0
100
AcDbArc
50
354.959334601544
51
355.098374326926
0
ARC
5
161
330
70
100
AcDbEntity
67
0
8
IV_OUTER_PROFILE
62
256
6
ByLayer
370
-1
48
1.0
60
0
100
AcDbCircle
39
0.0
10
-4470.80767182532
20
994.792347860886
30
0.0
40
4812.59569003865
210
0.0
220
0.0
230
1.0
100
AcDbArc
50
354.820411143279
51
354.95937114924
0
ARC
5
162
330
70
100
AcDbEntity
67
0
8
IV_OUTER_PROFILE
62
256
6
ByLayer
370
-1
48
1.0
60
0
100
AcDbCircle
39
0.0
10
-4474.66723654202
20
995.139058252804
30
0.0
40
4816.4707949478
210
0.0
220
0.0
230
1.0
100
AcDbArc
50
354.681569759688
51
354.820448476645
0
ARC
5
163
330
70
100
AcDbEntity
67
0
8
IV_OUTER_PROFILE
62
256
6
ByLayer
370
-1
48
1.0
60
0
100
AcDbCircle
39
0.0
10
-4478.61257916224
20
995.50311599886
30
0.0
40
4820.43289743994
210
0.0
220
0.0
230
1.0
100
AcDbArc
50
354.542812012073
51
354.681607875901
0
ARC
5
164
330
70
100
AcDbEntity
67
0
8
IV_OUTER_PROFILE
62
256
6
ByLayer
370
-1
48
1.0
60
0
100
AcDbCircle
39
0.0
10
-4482.64368906585
20
995.884937847238
30
0.0
40
4824.48204849431
210
0.0
220
0.0
230
1.0
100
AcDbArc
50
354.40413945573
51
354.542850908251
0
ARC
5
165
330
70
100
AcDbEntity
67
0
8
IV_OUTER_PROFILE
62
256
6
ByLayer
370
-1
48
1.0
60
0
100
AcDbCircle
39
0.0
10
-4486.7605652216
20
996.284941308204
30
0.0
40
4828.61831019798
210
0.0
220
0.0
230
1.0
100
AcDbArc
50
354.265553640186
51
354.404179128994
0
ARC
5
166
330
70
100
AcDbEntity
67
0
8
IV_OUTER_PROFILE
62
256
6
ByLayer
370
-1
48
1.0
60
0
100
AcDbCircle
39
0.0
10
-4490.96320060363
20
996.70354318725
30
0.0
40
4832.8417400906
210
0.0
220
0.0
230
1.0
100
AcDbArc
50
354.12705610888
51
354.265594087609
0
ARC
5
167
330
70
100
AcDbEntity
67
0
8
IV_OUTER_PROFILE
62
256
6
ByLayer
370
-1
48
1.0
60
0
100
AcDbCircle
39
0.0
10
-4495.25159456452
20
997.141160799696
30
0.0
40
4837.15240359405
210
0.0
220
0.0
230
1.0
100
AcDbArc
50
353.988648399246
51
354.12709732748
0
ARC
5
168
330
70
100
AcDbEntity
67
0
8
IV_OUTER_PROFILE
62
256
6
ByLayer
370
-1
48
1.0
60
0
100
AcDbCircle
39
0.0
10
-4499.62574289992
20
997.598210990291
30
0.0
40
4841.55036402595
210
0.0
220
0.0
230
1.0
100
AcDbArc
50
353.850332042476
51
353.988690385949
0
ARC
5
169
330
70
100
AcDbEntity
67
0
8
IV_OUTER_PROFILE
62
256
6
ByLayer
370
-1
48
1.0
60
0
100
AcDbCircle
39
0.0
10
-4504.0856382366
20
998.075110132031
30
0.0
40
4846.03568298259
210
0.0
220
0.0
230
1.0
100
AcDbArc
50
353.712108563429
51
353.850374794208
0
ARC
5
16A
330
70
100
AcDbEntity
67
0
8
IV_OUTER_PROFILE
62
256
6
ByLayer
370
-1
48
1.0
60
0
100
AcDbCircle
39
0.0
10
-4508.63128202862
20
998.57227542386
30
0.0
40
4850.6084324021
210
0.0
220
0.0
230
1.0
100
AcDbArc
50
353.573979480718
51
353.712152077042
0
ARC
5
16B
330
70
100
AcDbEntity
67
0
8
IV_OUTER_PROFILE
62
256
6
ByLayer
370
-1
48
1.0
60
0
100
AcDbCircle
39
0.0
10
-4513.26266479673
20
999.090122748839
30
0.0
40
4855.268674685
210
0.0
220
0.0
230
1.0
100
AcDbArc
50
353.435946306327
51
353.574023753016
0
ARC
5
16C
330
70
100
AcDbEntity
67
0
8
IV_OUTER_PROFILE
62
256
6
ByLayer
370
-1
48
1.0
60
0
100
AcDbCircle
39
0.0
10
-4517.97978646454
20
999.62906890547
30
0.0
40
4860.01648314945
210
0.0
220
0.0
230
1.0
100
AcDbArc
50
353.298010545821
51
353.435991334092
0
ARC
5
16D
330
70
100
AcDbEntity
67
0
8
IV_OUTER_PROFILE
62
256
6
ByLayer
370
-1
48
1.0
60
0
100
AcDbCircle
39
0.0
10
-4522.78263998182
20
1000.1895297781
30
0.0
40
4864.85192554947
210
0.0
220
0.0
230
1.0
100
AcDbArc
50
353.160173698017
51
353.298056325775
0
ARC
5
16E
330
70
100
AcDbEntity
67
0
8
IV_OUTER_PROFILE
62
256
6
ByLayer
370
-1
48
1.0
60
0
100
AcDbCircle
39
0.0
10
-4527.67122369759
20
1000.77192175107
30
0.0
40
4869.7750765255
210
0.0
220
0.0
230
1.0
100
AcDbArc
50
353.022437255077
51
353.16022022685
0
ARC
5
16F
330
70
100
AcDbEntity
67
0
8
IV_OUTER_PROFILE
62
256
6
ByLayer
370
-1
48
1.0
60
0
100
AcDbCircle
39
0.0
10
-4532.64553114809
20
1001.37666051225
30
0.0
40
4874.7860073193
210
0.0
220
0.0
230
1.0
100
AcDbArc
50
352.884802702271
51
353.022484529433
0
ARC
5
170
330
70
100
AcDbEntity
67
0
8
IV_OUTER_PROFILE
62
256
6
ByLayer
370
-1
48
1.0
60
0
100
AcDbCircle
39
0.0
10
-4537.70556281046
20
1002.00416247588
30
0.0
40
4879.88479761028
210
0.0
220
0.0
230
1.0
100
AcDbArc
50
352.747271518064
51
352.884850718725
0
ARC
5
171
330
70
100
AcDbEntity
67
0
8
IV_OUTER_PROFILE
62
256
6
ByLayer
370
-1
48
1.0
60
0
100
AcDbCircle
39
0.0
10
-4542.85130961432
20
1002.65484274872
30
0.0
40
4885.07151889888
210
0.0
220
0.0
230
1.0
100
AcDbArc
50
352.609845173794
51
352.747320273156
0
ARC
5
172
330
70
100
AcDbEntity
67
0
8
IV_OUTER_PROFILE
62
256
6
ByLayer
370
-1
48
1.0
60
0
100
AcDbCircle
39
0.0
10
-4548.08276934763
20
1003.32911716145
30
0.0
40
4890.34625103435
210
0.0
220
0.0
230
1.0
100
AcDbArc
50
352.472525133823
51
352.609894664069
0
ARC
5
173
330
70
100
AcDbEntity
67
0
8
IV_OUTER_PROFILE
62
256
6
ByLayer
370
-1
48
1.0
60
0
100
AcDbCircle
39
0.0
10
-4553.399938705
20
1004.02740129195
30
0.0
40
4895.70907420008
210
0.0
220
0.0
230
1.0
100
AcDbArc
50
352.335312855343
51
352.472575355749
0
ARC
5
174
330
70
100
AcDbEntity
67
0
8
IV_OUTER_PROFILE
62
256
6
ByLayer
370
-1
48
1.0
60
0
100
AcDbCircle
39
0.0
10
-4558.8028133856
20
1004.7501104652
30
0.0
40
4901.1600690074
210
0.0
220
0.0
230
1.0
100
AcDbArc
50
352.198209788293
51
352.335363805341
0
ARC
5
175
330
70
100
AcDbEntity
67
0
8
IV_OUTER_PROFILE
62
256
6
ByLayer
370
-1
48
1.0
60
0
100
AcDbCircle
39
0.0
10
-4564.29138880805
20
1005.49765983997
30
0.0
40
4906.69931721221
210
0.0
220
0.0
230
1.0
100
AcDbArc
50
352.061217375294
51
352.198261462758
0
ARC
5
176
330
70
100
AcDbEntity
67
0
8
IV_OUTER_PROFILE
62
256
6
ByLayer
370
-1
48
1.0
60
0
100
AcDbCircle
39
0.0
10
-4569.86566220178
20
1006.27046469966
30
0.0
40
4912.32690382307
210
0.0
220
0.0
230
1.0
100
AcDbArc
50
351.924337051597
51
352.061269770572
0
ARC
5
177
330
70
100
AcDbEntity
67
0
8
IV_OUTER_PROFILE
62
256
6
ByLayer
370
-1
48
1.0
60
0
100
AcDbCircle
39
0.0
10
-4575.52562821997
20
1007.0689398464
30
0.0
40
4918.04291266902
210
0.0
220
0.0
230
1.0
100
AcDbArc
50
351.787570244944
51
351.924390163998
0
ARC
5
178
330
70
100
AcDbEntity
67
0
8
IV_OUTER_PROFILE
62
256
6
ByLayer
370
-1
48
1.0
60
0
100
AcDbCircle
39
0.0
10
-4581.27128335653
20
1007.89350021275
30
0.0
40
4923.84743085529
210
0.0
220
0.0
230
1.0
100
AcDbArc
50
351.650918375557
51
351.787624070751
0
ARC
5
179
330
70
100
AcDbEntity
67
0
8
IV_OUTER_PROFILE
62
256
6
ByLayer
370
-1
48
1.0
60
0
100
AcDbCircle
39
0.0
10
-4587.10262356371
20
1008.74456053132
30
0.0
40
4929.74054635449
210
0.0
220
0.0
230
1.0
100
AcDbArc
50
351.514382856026
51
351.65097291101
0
ARC
5
17A
330
70
100
AcDbEntity
67
0
8
IV_OUTER_PROFILE
62
256
6
ByLayer
370
-1
48
1.0
60
0
100
AcDbCircle
39
0.0
10
-4593.01964754164
20
1009.6225358231
30
0.0
40
4935.72235132876
210
0.0
220
0.0
230
1.0
100
AcDbArc
50
351.377965091281
51
351.514438097291
0
ARC
5
17B
330
70
100
AcDbEntity
67
0
8
IV_OUTER_PROFILE
62
256
6
ByLayer
370
-1
48
1.0
60
0
100
AcDbCircle
39
0.0
10
-4599.0223461584
20
1010.52783981391
30
0.0
40
4941.7929314284
210
0.0
220
0.0
230
1.0
100
AcDbArc
50
351.241666478374
51
351.378021034524
0
ARC
5
17C
330
70
100
AcDbEntity
67
0
8
IV_OUTER_PROFILE
62
256
6
ByLayer
370
-1
48
1.0
60
0
100
AcDbCircle
39
0.0
10
-4605.11071927738
20
1011.46088745172
30
0.0
40
4947.95238280283
210
0.0
220
0.0
230
1.0
100
AcDbArc
50
351.105488406644
51
351.241723119743
0
ARC
5
17D
330
70
100
AcDbEntity
67
0
8
IV_OUTER_PROFILE
62
256
6
ByLayer
370
-1
48
1.0
60
0
100
AcDbCircle
39
0.0
10
275.125497533759
20
247.506449651967
30
0.0
40
8.28574388156148
210
0.0
220
0.0
230
1.0
100
AcDbArc
50
347.582930840464
51
352.53197681744
0
ARC
5
17E
330
70
100
AcDbEntity
67
0
8
IV_OUTER_PROFILE
62
256
6
ByLayer
370
-1
48
1.0
60
0
100
AcDbCircle
39
0.0
10
274.361439969445
20
247.6516005786
30
0.0
40
9.06316809647791
210
0.0
220
0.0
230
1.0
100
AcDbArc
50
343.120799845488
51
347.72540512864
0
ARC
5
17F
330
70
100
AcDbEntity
67
0
8
IV_OUTER_PROFILE
62
256
6
ByLayer
370
-1
48
1.0
60
0
100
AcDbCircle
39
0.0
10
273.371751518791
20
247.923102874095
30
0.0
40
10.0890894627358
210
0.0
220
0.0
230
1.0
100
AcDbArc
50
339.047673669384
51
343.27728500994
0
ARC
5
180
330
70
100
AcDbEntity
67
0
8
IV_OUTER_PROFILE
62
256
6
ByLayer
370
-1
48
1.0
60
0
100
AcDbCircle
39
0.0
10
272.152031639929
20
248.35604279471
30
0.0
40
11.3830193584638
210
0.0
220
0.0
230
1.0
100
AcDbArc
50
335.361760660501
51
339.207977431834
0
ARC
5
181
330
70
100
AcDbEntity
67
0
8
IV_OUTER_PROFILE
62
256
6
ByLayer
370
-1
48
1.0
60
0
100
AcDbCircle
39
0.0
10
270.69563703236
20
248.985009945058
30
0.0
40
12.9690780080077
210
0.0
220
0.0
230
1.0
100
AcDbArc
50
332.047405320288
51
335.518365600347
0
ARC
5
182
330
70
100
AcDbEntity
67
0
8
IV_OUTER_PROFILE
62
256
6
ByLayer
370
-1
48
1.0
60
0
100
AcDbCircle
39
0.0
10
268.993112926168
20
249.844949727228
30
0.0
40
14.8761169206708
210
0.0
220
0.0
230
1.0
100
AcDbArc
50
329.080661241104
51
332.195408543592
0
ARC
5
183
330
70
100
AcDbEntity
67
0
8
IV_OUTER_PROFILE
62
256
6
ByLayer
370
-1
48
1.0
60
0
100
AcDbCircle
39
0.0
10
267.031437542953
20
250.972237574391
30
0.0
40
17.1383056195061
210
0.0
220
0.0
230
1.0
100
AcDbArc
50
326.433576548609
51
329.217324389622
0
ARC
5
184
330
70
100
AcDbEntity
67
0
8
IV_OUTER_PROFILE
62
256
6
ByLayer
370
-1
48
1.0
60
0
100
AcDbCircle
39
0.0
10
264.792997630077
20
252.406070431046
30
0.0
40
19.7962928526714
210
0.0
220
0.0
230
1.0
100
AcDbArc
50
324.077160169135
51
326.557758944464
0
ARC
5
185
330
70
100
AcDbEntity
67
0
8
IV_OUTER_PROFILE
62
256
6
ByLayer
370
-1
48
1.0
60
0
100
AcDbCircle
39
0.0
10
262.254175966316
20
254.190318551103
30
0.0
40
22.8991038193947
210
0.0
220
0.0
230
1.0
100
AcDbArc
50
321.983253967714
51
324.188794873159
0
ARC
5
186
330
70
100
AcDbEntity
67
0
8
IV_OUTER_PROFILE
62
256
6
ByLayer
370
-1
48
1.0
60
0
100
AcDbCircle
39
0.0
10
259.532862496884
20
256.252076271984
30
0.0
40
26.3129087539531
210
0.0
220
0.0
230
1.0
100
AcDbArc
50
320.124256411596
51
322.095869634301
0
ARC
5
187
330
70
100
AcDbEntity
67
0
8
IV_OUTER_PROFILE
62
256
6
ByLayer
370
-1
48
1.0
60
0
100
AcDbCircle
39
0.0
10
253.920113773314
20
260.838862165667
30
0.0
40
33.5611315285955
210
0.0
220
0.0
230
1.0
100
AcDbArc
50
318.675061454114
51
320.258109685261
0
ARC
5
188
330
70
100
AcDbEntity
67
0
8
IV_OUTER_PROFILE
62
256
6
ByLayer
370
-1
48
1.0
60
0
100
AcDbCircle
39
0.0
10
247.699055867672
20
266.208677424363
30
0.0
40
41.7789121436393
210
0.0
220
0.0
230
1.0
100
AcDbArc
50
317.480470955751
51
318.778377395371
0
ARC
5
189
330
70
100
AcDbEntity
67
0
8
IV_OUTER_PROFILE
62
256
6
ByLayer
370
-1
48
1.0
60
0
100
AcDbCircle
39
0.0
10
237.57914494426
20
275.291832481247
30
0.0
40
55.3767243476515
210
0.0
220
0.0
230
1.0
100
AcDbArc
50
315.623926553882
51
317.630230188031
0
ARC
5
18A
330
70
100
AcDbEntity
67
0
8
IV_OUTER_PROFILE
62
256
6
ByLayer
370
-1
48
1.0
60
0
100
AcDbCircle
39
0.0
10
203.718788179067
20
307.65793083581
30
0.0
40
102.216090484787
210
0.0
220
0.0
230
1.0
100
AcDbArc
50
314.820240279673
51
315.930315756623
0
ELLIPSE
5
18B
330
70
100
AcDbEntity
67
0
8
IV_OUTER_PROFILE
62
256
6
ByLayer
370
-1
48
1.0
60
0
100
AcDbEllipse
10
2.53500737149967
20
1978.48567431824
30
0.0
11
-2.00992976794575
21
-0.0000000000001783
31
0.0
210
0.0
220
0.0
230
1.0
40
0.995059644319859
41
-1.570796326795
42
0.868491274340785
0
LINE
5
18C
330
70
100
AcDbEntity
67
0
8
IV_OUTER_PROFILE
62
256
6
ByLayer
370
-1
48
1.0
60
0
100
AcDbLine
10
275.769359601723
20
235.153832250539
30
0.0
11
1.23663499899832
21
3.98198254557586
31
0.0
39
0.0
210
0.0
220
0.0
230
1.0
0
ELLIPSE
5
18D
330
70
100
AcDbEntity
67
0
8
IV_OUTER_PROFILE
62
256
6
ByLayer
370
-1
48
1.0
60
0
100
AcDbEllipse
10
2.53500737149918
20
2.45527214330753
30
0.0
11
-2.00992976794575
21
0.0000000000001797
31
0.0
210
0.0
220
0.0
230
1.0
40
0.995059644319859
41
-0.868491274340792
42
1.57079632679506
0
LINE
5
18E
330
70
100
AcDbEntity
67
0
8
IV_OUTER_PROFILE
62
256
6
ByLayer
370
-1
48
1.0
60
0
100
AcDbLine
10
2.5350073714997
20
1980.48567431824
30
0.0
11
816.048419968253
21
1980.48567431824
31
0.0
39
0.0
210
0.0
220
0.0
230
1.0
0
LINE
5
18F
330
70
100
AcDbEntity
67
0
8
IV_OUTER_PROFILE
62
256
6
ByLayer
370
-1
48
1.0
60
0
100
AcDbLine
10
2.53500737149932
20
0.455272143307527
30
0.0
11
816.048419968253
21
0.455272143307344
31
0.0
39
0.0
210
0.0
220
0.0
230
1.0
0
LINE
5
190
330
70
100
AcDbEntity
67
0
8
IV_OUTER_PROFILE
62
256
6
ByLayer
370
-1
48
1.0
60
0
100
AcDbLine
10
816.048419968253
20
0.455272143307344
30
0.0
11
816.048419968253
21
1980.48567431824
31
0.0
39
0.0
210
0.0
220
0.0
230
1.0
0
ENDSEC
0
SECTION
2
OBJECTS
0
DICTIONARY
5
1F7
330
0
100
AcDbDictionary
280
1
281
1
3
ACAD_GROUP
350
D
3
ACAD_LAYOUT
350
62
3
ACAD_DGNDEFINITIONS
350
1ED
3
ACAD_DWFDEFINITIONS
350
1EE
3
ACAD_PDFDEFINITIONS
350
1EF
3
ACAD_MLINESTYLE
350
5F
3
ACAD_IMAGE_DICT
350
1EC
3
ACAD_IMAGE_VARS
350
1F0
0
DICTIONARY
5
D
330
1F7
100
AcDbDictionary
280
1
281
1
0
DICTIONARY
5
62
330
1F7
100
AcDbDictionary
280
1
281
1
3
Layout1
350
6F
3
Layout2
350
77
3
Model
350
73
0
DICTIONARY
5
1ED
330
1F7
100
AcDbDictionary
280
1
281
1
0
DICTIONARY
5
1EE
330
1F7
100
AcDbDictionary
280
1
281
1
0
DICTIONARY
5
1EF
330
1F7
100
AcDbDictionary
280
1
281
1
0
DICTIONARY
5
5F
330
1F7
100
AcDbDictionary
280
1
281
1
3
STANDARD
350
60
0
DICTIONARY
5
1EC
330
1F7
100
AcDbDictionary
280
1
281
1
0
DICTIONARY
5
1EA
330
2
100
AcDbDictionary
280
1
281
1
3
ACAD_LAYERSTATES
360
1F8
0
DICTIONARY
5
1F8
330
1EA
100
AcDbDictionary
280
1
281
1
0
LAYOUT
5
6F
330
62
100
AcDbPlotSettings
1

2

4

6

40
0.0
41
0.0
42
0.0
43
0.0
44
0.0
45
0.0
46
0.0
47
0.0
48
0.0
49
0.0
140
0.0
141
0.0
142
1.0
143
1.0
70
688
72
0
73
0
74
5
7

75
16
76
0
77
2
78
300
147
1.0
148
0.0
149
0.0
100
AcDbLayout
1
Layout1
71
1
10
0.0
20
0.0
11
12.0
21
9.0
12
0.0
22
0.0
32
0.0
14
0.0
24
0.0
34
0.0
15
0.0
25
0.0
35
0.0
146
0.0
13
0.0
23
0.0
33
0.0
16
1.0
26
0.0
36
0.0
17
0.0
27
1.0
37
0.0
76
0
330
6C
0
LAYOUT
5
77
330
62
100
AcDbPlotSettings
1

2

4

6

40
0.0
41
0.0
42
0.0
43
0.0
44
0.0
45
0.0
46
0.0
47
0.0
48
0.0
49
0.0
140
0.0
141
0.0
142
1.0
143
1.0
70
688
72
0
73
0
74
5
7

75
16
76
0
77
2
78
300
147
1.0
148
0.0
149
0.0
100
AcDbLayout
1
Layout2
71
2
10
0.0
20
0.0
11
12.0
21
9.0
12
0.0
22
0.0
32
0.0
14
0.0
24
0.0
34
0.0
15
0.0
25
0.0
35
0.0
146
0.0
13
0.0
23
0.0
33
0.0
16
1.0
26
0.0
36
0.0
17
0.0
27
1.0
37
0.0
76
0
330
74
0
LAYOUT
5
73
330
62
100
AcDbPlotSettings
1

2

4

6

40
0.0
41
0.0
42
0.0
43
0.0
44
0.0
45
0.0
46
0.0
47
0.0
48
0.0
49
0.0
140
0.0
141
0.0
142
1.0
143
1.0
70
1712
72
0
73
0
74
0
7

75
0
76
0
77
2
78
300
147
1.0
148
0.0
149
0.0
100
AcDbLayout
1
Model
71
3
10
0.0
20
0.0
11
12.0
21
9.0
12
0.0
22
0.0
32
0.0
14
0.0
24
0.0
34
0.0
15
0.0
25
0.0
35
0.0
146
0.0
13
0.0
23
0.0
33
0.0
16
1.0
26
0.0
36
0.0
17
0.0
27
1.0
37
0.0
76
0
330
70
0
MLINESTYLE
5
60
330
5F
100
AcDbMlineStyle
2
STANDARD
70
0
3

62
256
51
90.0
52
90.0
71
2
49
0.5
62
256
6
ByLayer
49
-0.5
62
256
6
ByLayer
0
RASTERVARIABLES
5
1F0
330
1EC
100
AcDbRasterVariables
90
0
70
1
71
1
72
0
0
ENDSEC
0
EOF
