999
autodxfXMIN:1,397941407E-07
999
autodxfXMAX:1185,806175756651
999
autodxfYMIN:0,5771126804882544
999
autodxfYMAX:50,57711268048826
0
SECTION
2
HEADER
9
$ACADVER
1
AC1015
9
$DWGCODEPAGE
3
ANSI_1252
9
$HANDSEED
5
1AF
9
$ANGBASE
50
0.0
9
$ANGDIR
70
0
9
$ATTMODE
70
1
9
$AUNITS
70
0
9
$AUPREC
70
0
9
$CECOLOR
62
256
9
$CELTSCALE
40
1.0
9
$CELTYPE
6
ByLayer
9
$CELWEIGHT
370
-1
9
$CLAYER
8
0
9
$CMLJUST
70
0
9
$CMLSCALE
40
1.0
9
$CMLSTYLE
2
Standard
9
$DIMSTYLE
2
Standard
9
$TEXTSIZE
40
0.2
9
$TEXTSTYLE
7
Standard
9
$LUNITS
70
2
9
$LUPREC
70
4
9
$MIRRTEXT
70
0
9
$EXTNAMES
290
1
9
$INSBASE
10
0.0
20
0.0
30
0.0
9
$INSUNITS
70
4
9
$LTSCALE
40
1.0
9
$LWDISPLAY
290
0
9
$PDMODE
70
0
9
$PDSIZE
40
0.0
9
$PLINEGEN
70
0
9
$PSLTSCALE
70
1
9
$SPLINESEGS
70
6
9
$SURFU
70
6
9
$SURFV
70
6
9
$TDCREATE
40
2460565.84284721
9
$TDUCREATE
40
2460565.71784721
9
$TDUPDATE
40
2460565.84284721
9
$TDUUPDATE
40
2460565.71784721
9
$TDINDWG
40
0.0
9
$UCSORG
10
0.0
20
0.0
30
0.0
9
$UCSXDIR
10
1.0
20
0.0
30
0.0
9
$UCSYDIR
10
0.0
20
1.0
30
0.0
9
$DIMADEC
70
0
9
$DIMALT
70
0
9
$DIMALTD
70
2
9
$DIMALTF
40
25.4
9
$DIMALTRND
40
0.0
9
$DIMALTTD
70
2
9
$DIMALTTZ
70
0
9
$DIMALTU
70
2
9
$DIMALTZ
70
0
9
$DIMAPOST
1

9
$DIMATFIT
70
3
9
$DIMAUNIT
70
0
9
$DIMASZ
40
0.18
9
$DIMAZIN
70
3
9
$DIMSAH
70
0
9
$DIMBLK
1

9
$DIMLDRBLK
1

9
$DIMCEN
40
0.09
9
$DIMCLRD
70
0
9
$DIMCLRE
70
0
9
$DIMCLRT
70
0
9
$DIMDEC
70
4
9
$DIMDLE
40
0.0
9
$DIMDLI
40
0.38
9
$DIMDSEP
70
46
9
$DIMEXE
40
0.18
9
$DIMEXO
40
0.0625
9
$DIMFXLON
70
0
9
$DIMFXL
40
1.0
9
$DIMGAP
40
0.09
9
$DIMJUST
70
0
9
$DIMLFAC
40
1.0
9
$DIMLUNIT
70
2
9
$DIMLWD
70
-2
9
$DIMLWE
70
-2
9
$DIMPOST
1

9
$DIMRND
40
0.0
9
$DIMSCALE
40
1.0
9
$DIMSD1
70
0
9
$DIMSD2
70
0
9
$DIMSE1
70
0
9
$DIMSE2
70
0
9
$DIMSOXD
70
0
9
$DIMTAD
70
0
9
$DIMTDEC
70
4
9
$DIMTFAC
40
1.0
9
$DIMTIH
70
0
9
$DIMTIX
70
0
9
$DIMTM
40
0.0
9
$DIMTMOVE
70
0
9
$DIMTOFL
70
0
9
$DIMTOH
70
0
9
$DIMTOL
70
0
9
$DIMLIM
70
0
9
$DIMTOLJ
70
1
9
$DIMTP
40
0.0
9
$DIMTXT
40
0.18
9
$DIMTXTDIRECTION
70
0
9
$DIMTZIN
70
0
9
$DIMZIN
70
0
9
$DIMFRAC
70
0
9
$DIMLTYPE
6
ByBlock
9
$DIMLTEX1
6
ByBlock
9
$DIMLTEX2
6
ByBlock
9
$EXTMIN
10
0.0
20
0.0
30
0.0
9
$EXTMAX
10
1185.80617561686
20
50.5771126804883
30
0.0
9
$LIMMIN
10
0.0
20
0.0
9
$LIMMAX
10
1185.80617561686
20
50.5771126804883
9
$ORTHOMODE
70
0
9
$REGENMODE
70
1
9
$FILLMODE
70
1
9
$QTEXTMODE
70
0
9
$TRACEWID
40
0.05
9
$DISPSILH
70
0
9
$SKETCHINC
40
0.1
9
$FILLETRAD
40
0.0
9
$MENU
1
.
9
$ELEVATION
40
0.0
9
$PELEVATION
40
0.0
9
$THICKNESS
40
0.0
9
$LIMCHECK
70
0
9
$CHAMFERA
40
0.0
9
$CHAMFERB
40
0.0
9
$CHAMFERC
40
0.0
9
$CHAMFERD
40
0.0
9
$SKPOLY
70
0
9
$TDUSRTIMER
40
0.0
9
$USRTIMER
70
1
9
$PLINEWID
40
0.0
9
$SPLFRAME
70
0
9
$SPLINETYPE
70
6
9
$SURFTAB1
70
6
9
$SURFTAB2
70
6
9
$SURFTYPE
70
6
9
$UCSBASE
2

9
$UCSNAME
2

9
$UCSORTHOREF
2

9
$UCSORTHOVIEW
70
0
9
$UCSORGTOP
10
0.0
20
0.0
30
0.0
9
$UCSORGBOTTOM
10
0.0
20
0.0
30
0.0
9
$UCSORGLEFT
10
0.0
20
0.0
30
0.0
9
$UCSORGRIGHT
10
0.0
20
0.0
30
0.0
9
$UCSORGFRONT
10
0.0
20
0.0
30
0.0
9
$UCSORGBACK
10
0.0
20
0.0
30
0.0
9
$PUCSBASE
2

9
$PUCSNAME
2

9
$PUCSORG
10
0.0
20
0.0
30
0.0
9
$PUCSXDIR
10
1.0
20
0.0
30
0.0
9
$PUCSYDIR
10
0.0
20
1.0
30
0.0
9
$PUCSORTHOREF
2

9
$PUCSORTHOVIEW
70
0
9
$PUCSORGTOP
10
0.0
20
0.0
30
0.0
9
$PUCSORGBOTTOM
10
0.0
20
0.0
30
0.0
9
$PUCSORGLEFT
10
0.0
20
0.0
30
0.0
9
$PUCSORGRIGHT
10
0.0
20
0.0
30
0.0
9
$PUCSORGFRONT
10
0.0
20
0.0
30
0.0
9
$PUCSORGBACK
10
0.0
20
0.0
30
0.0
9
$USERI1
70
0
9
$USERI2
70
0
9
$USERI3
70
0
9
$USERI4
70
0
9
$USERI5
70
0
9
$USERR1
40
0.0
9
$USERR2
40
0.0
9
$USERR3
40
0.0
9
$USERR4
40
0.0
9
$USERR5
40
0.0
9
$WORLDVIEW
70
1
9
$SHADEDGE
70
3
9
$SHADEDIF
70
70
9
$TILEMODE
70
1
9
$MAXACTVP
70
64
9
$PINSBASE
10
0.0
20
0.0
30
0.0
9
$PLIMCHECK
70
0
9
$PEXTMIN
10
0.0
20
0.0
30
0.0
9
$PEXTMAX
10
1185.80617561686
20
50.5771126804883
30
0.0
9
$PLIMMIN
10
0.0
20
0.0
9
$PLIMMAX
10
1185.80617561686
20
50.5771126804883
9
$UNITMODE
70
0
9
$VISRETAIN
70
1
9
$TREEDEPTH
70
3020
9
$PROXYGRAPHICS
70
1
9
$MEASUREMENT
70
1
9
$ENDCAPS
280
0
9
$JOINSTYLE
280
0
9
$HYPERLINKBASE
1

9
$STYLESHEET
1

9
$XEDIT
290
1
9
$CEPSNTYPE
380
0
9
$PSTYLEMODE
290
1
9
$FINGERPRINTGUID
2
{32F95223-94F6-C446-A88D-C45AA0619B24}
9
$VERSIONGUID
2
{D51022DF-7DB4-5746-AD17-4E7604B8618B}
9
$PSVPSCALE
40
0.0
9
$OLESTARTUP
290
0
0
ENDSEC
0
SECTION
2
CLASSES
0
CLASS
1
RASTERVARIABLES
2
AcDbRasterVariables
3
ISM
90
0
280
0
281
0
0
ENDSEC
0
SECTION
2
TABLES
0
TABLE
2
APPID
5
9
330
0
100
AcDbSymbolTable
70
7
0
APPID
5
56
330
9
100
AcDbSymbolTableRecord
100
AcDbRegAppTableRecord
2
ACAD
70
0
0
APPID
5
5E
330
9
100
AcDbSymbolTableRecord
100
AcDbRegAppTableRecord
2
AcadAnnotative
70
0
0
APPID
5
18A
330
9
100
AcDbSymbolTableRecord
100
AcDbRegAppTableRecord
2
ACAD_MLEADERVER
70
0
0
APPID
5
1A9
330
9
100
AcDbSymbolTableRecord
100
AcDbRegAppTableRecord
2
AcCmTransparency
70
0
0
APPID
5
1AA
330
9
100
AcDbSymbolTableRecord
100
AcDbRegAppTableRecord
2
AcAecLayerStandard
70
0
0
APPID
5
1AB
330
9
100
AcDbSymbolTableRecord
100
AcDbRegAppTableRecord
2
GradientColor1ACI
70
0
0
APPID
5
1AC
330
9
100
AcDbSymbolTableRecord
100
AcDbRegAppTableRecord
2
GradientColor2ACI
70
0
0
ENDTAB
0
TABLE
2
VPORT
5
8
330
0
100
AcDbSymbolTable
70
1
0
VPORT
5
19B
330
8
100
AcDbSymbolTableRecord
100
AcDbViewportTableRecord
2
*Active
70
0
10
0.0
20
0.0
11
1.0
21
1.0
12
592.903087948223
22
25.5771126804883
13
0.0
23
0.0
14
0.5
24
0.5
15
10.0
25
10.0
16
0.0
26
0.0
36
1.0
17
0.0
27
0.0
37
0.0
40
1304.391
41
1.0
75
0
76
1
0
ENDTAB
0
TABLE
2
LTYPE
5
5
330
0
100
AcDbSymbolTable
70
48
0
LTYPE
5
5B
330
5
100
AcDbSymbolTableRecord
100
AcDbLinetypeTableRecord
2
ByBlock
70
0
3

72
65
73
0
40
0.0
0
LTYPE
5
5C
330
5
100
AcDbSymbolTableRecord
100
AcDbLinetypeTableRecord
2
ByLayer
70
0
3

72
65
73
0
40
0.0
0
LTYPE
5
5D
330
5
100
AcDbSymbolTableRecord
100
AcDbLinetypeTableRecord
2
Continuous
70
0
3
Solid line
72
65
73
0
40
0.0
0
LTYPE
5
78
330
5
100
AcDbSymbolTableRecord
100
AcDbLinetypeTableRecord
2
BORDER
70
0
3
Border __ __ . __ __ . __ __ . __ __ . __ __ .
72
65
73
6
40
1.75
49
0.5
74
0
49
-0.25
74
0
49
0.5
74
0
49
-0.25
74
0
49
0.0
74
0
49
-0.25
74
0
0
LTYPE
5
79
330
5
100
AcDbSymbolTableRecord
100
AcDbLinetypeTableRecord
2
BORDER2
70
0
3
Border (.5x) __.__.__.__.__.__.__.__.__.__.__.
72
65
73
6
40
0.875
49
0.25
74
0
49
-0.125
74
0
49
0.25
74
0
49
-0.125
74
0
49
0.0
74
0
49
-0.125
74
0
0
LTYPE
5
7A
330
5
100
AcDbSymbolTableRecord
100
AcDbLinetypeTableRecord
2
BORDERX2
70
0
3
Border (2x) ____  ____  .  ____  ____  .  ___
72
65
73
6
40
3.5
49
1.0
74
0
49
-0.5
74
0
49
1.0
74
0
49
-0.5
74
0
49
0.0
74
0
49
-0.5
74
0
0
LTYPE
5
7B
330
5
100
AcDbSymbolTableRecord
100
AcDbLinetypeTableRecord
2
CENTER
70
0
3
Center ____ _ ____ _ ____ _ ____ _ ____ _ ____
72
65
73
4
40
2.0
49
1.25
74
0
49
-0.25
74
0
49
0.25
74
0
49
-0.25
74
0
0
LTYPE
5
7C
330
5
100
AcDbSymbolTableRecord
100
AcDbLinetypeTableRecord
2
CENTER2
70
0
3
Center (.5x) ___ _ ___ _ ___ _ ___ _ ___ _ ___
72
65
73
4
40
1.125
49
0.75
74
0
49
-0.125
74
0
49
0.125
74
0
49
-0.125
74
0
0
LTYPE
5
7D
330
5
100
AcDbSymbolTableRecord
100
AcDbLinetypeTableRecord
2
CENTERX2
70
0
3
Center (2x) ________  __  ________  __  _____
72
65
73
4
40
4.0
49
2.5
74
0
49
-0.5
74
0
49
0.5
74
0
49
-0.5
74
0
0
LTYPE
5
7E
330
5
100
AcDbSymbolTableRecord
100
AcDbLinetypeTableRecord
2
DASHDOT
70
0
3
Dash dot __ . __ . __ . __ . __ . __ . __ . __
72
65
73
4
40
1.0
49
0.5
74
0
49
-0.25
74
0
49
0.0
74
0
49
-0.25
74
0
0
LTYPE
5
7F
330
5
100
AcDbSymbolTableRecord
100
AcDbLinetypeTableRecord
2
DASHDOT2
70
0
3
Dash dot (.5x) _._._._._._._._._._._._._._._.
72
65
73
4
40
0.5
49
0.25
74
0
49
-0.125
74
0
49
0.0
74
0
49
-0.125
74
0
0
LTYPE
5
80
330
5
100
AcDbSymbolTableRecord
100
AcDbLinetypeTableRecord
2
DASHDOTX2
70
0
3
Dash dot (2x) ____  .  ____  .  ____  .  ___
72
65
73
4
40
2.0
49
1.0
74
0
49
-0.5
74
0
49
0.0
74
0
49
-0.5
74
0
0
LTYPE
5
81
330
5
100
AcDbSymbolTableRecord
100
AcDbLinetypeTableRecord
2
DASHED
70
0
3
Dashed __ __ __ __ __ __ __ __ __ __ __ __ __ _
72
65
73
2
40
0.75
49
0.5
74
0
49
-0.25
74
0
0
LTYPE
5
82
330
5
100
AcDbSymbolTableRecord
100
AcDbLinetypeTableRecord
2
DASHED2
70
0
3
Dashed (.5x) _ _ _ _ _ _ _ _ _ _ _ _ _ _ _ _ _
72
65
73
2
40
0.375
49
0.25
74
0
49
-0.125
74
0
0
LTYPE
5
83
330
5
100
AcDbSymbolTableRecord
100
AcDbLinetypeTableRecord
2
DASHEDX2
70
0
3
Dashed (2x) ____  ____  ____  ____  ____  ___
72
65
73
2
40
1.5
49
1.0
74
0
49
-0.5
74
0
0
LTYPE
5
84
330
5
100
AcDbSymbolTableRecord
100
AcDbLinetypeTableRecord
2
DIVIDE
70
0
3
Divide ____ . . ____ . . ____ . . ____ . . ____
72
65
73
6
40
1.25
49
0.5
74
0
49
-0.25
74
0
49
0.0
74
0
49
-0.25
74
0
49
0.0
74
0
49
-0.25
74
0
0
LTYPE
5
85
330
5
100
AcDbSymbolTableRecord
100
AcDbLinetypeTableRecord
2
DIVIDE2
70
0
3
Divide (.5x) __..__..__..__..__..__..__..__.._
72
65
73
6
40
0.625
49
0.25
74
0
49
-0.125
74
0
49
0.0
74
0
49
-0.125
74
0
49
0.0
74
0
49
-0.125
74
0
0
LTYPE
5
86
330
5
100
AcDbSymbolTableRecord
100
AcDbLinetypeTableRecord
2
DIVIDEX2
70
0
3
Divide (2x) ________  .  .  ________  .  .  _
72
65
73
6
40
2.5
49
1.0
74
0
49
-0.5
74
0
49
0.0
74
0
49
-0.5
74
0
49
0.0
74
0
49
-0.5
74
0
0
LTYPE
5
87
330
5
100
AcDbSymbolTableRecord
100
AcDbLinetypeTableRecord
2
DOT
70
0
3
Dot . . . . . . . . . . . . . . . . . . . . . .
72
65
73
2
40
0.25
49
0.0
74
0
49
-0.25
74
0
0
LTYPE
5
88
330
5
100
AcDbSymbolTableRecord
100
AcDbLinetypeTableRecord
2
DOT2
70
0
3
Dot (.5x) .....................................
72
65
73
2
40
0.125
49
0.0
74
0
49
-0.125
74
0
0
LTYPE
5
89
330
5
100
AcDbSymbolTableRecord
100
AcDbLinetypeTableRecord
2
DOTX2
70
0
3
Dot (2x) .  .  .  .  .  .  .  .  .  .  .  .  . 
72
65
73
2
40
0.5
49
0.0
74
0
49
-0.5
74
0
0
LTYPE
5
8A
330
5
100
AcDbSymbolTableRecord
100
AcDbLinetypeTableRecord
2
HIDDEN
70
0
3
Hidden __ __ __ __ __ __ __ __ __ __ __ __ __ _
72
65
73
2
40
0.375
49
0.25
74
0
49
-0.125
74
0
0
LTYPE
5
8B
330
5
100
AcDbSymbolTableRecord
100
AcDbLinetypeTableRecord
2
HIDDEN2
70
0
3
Hidden (.5x) _ _ _ _ _ _ _ _ _ _ _ _ _ _ _ _ _
72
65
73
2
40
0.1875
49
0.125
74
0
49
-0.0625
74
0
0
LTYPE
5
8C
330
5
100
AcDbSymbolTableRecord
100
AcDbLinetypeTableRecord
2
HIDDENX2
70
0
3
Hidden (2x) ____ ____ ____ ____ ____ ____ ____
72
65
73
2
40
0.75
49
0.5
74
0
49
-0.25
74
0
0
LTYPE
5
8D
330
5
100
AcDbSymbolTableRecord
100
AcDbLinetypeTableRecord
2
PHANTOM
70
0
3
Phantom ______  __  __  ______  __  __  ______
72
65
73
6
40
2.5
49
1.25
74
0
49
-0.25
74
0
49
0.25
74
0
49
-0.25
74
0
49
0.25
74
0
49
-0.25
74
0
0
LTYPE
5
8E
330
5
100
AcDbSymbolTableRecord
100
AcDbLinetypeTableRecord
2
PHANTOM2
70
0
3
Phantom (.5x) ___ _ _ ___ _ _ ___ _ _ ___ _ _
72
65
73
6
40
1.25
49
0.625
74
0
49
-0.125
74
0
49
0.125
74
0
49
-0.125
74
0
49
0.125
74
0
49
-0.125
74
0
0
LTYPE
5
8F
330
5
100
AcDbSymbolTableRecord
100
AcDbLinetypeTableRecord
2
PHANTOMX2
70
0
3
Phantom (2x) ____________    ____    ____   _
72
65
73
6
40
5.0
49
2.5
74
0
49
-0.5
74
0
49
0.5
74
0
49
-0.5
74
0
49
0.5
74
0
49
-0.5
74
0
0
LTYPE
5
90
330
5
100
AcDbSymbolTableRecord
100
AcDbLinetypeTableRecord
2
ACAD_ISO02W100
70
0
3
ISO dash __ __ __ __ __ __ __ __ __ __ __ __ __
72
65
73
2
40
15.0
49
12.0
74
0
49
-3.0
74
0
0
LTYPE
5
91
330
5
100
AcDbSymbolTableRecord
100
AcDbLinetypeTableRecord
2
ACAD_ISO03W100
70
0
3
ISO dash space __    __    __    __    __    __
72
65
73
2
40
30.0
49
12.0
74
0
49
-18.0
74
0
0
LTYPE
5
92
330
5
100
AcDbSymbolTableRecord
100
AcDbLinetypeTableRecord
2
ACAD_ISO04W100
70
0
3
ISO long-dash dot ____ . ____ . ____ . ____ . _
72
65
73
4
40
30.0
49
24.0
74
0
49
-3.0
74
0
49
0.0
74
0
49
-3.0
74
0
0
LTYPE
5
93
330
5
100
AcDbSymbolTableRecord
100
AcDbLinetypeTableRecord
2
ACAD_ISO05W100
70
0
3
ISO long-dash double-dot ____ .. ____ .. ____ .
72
65
73
6
40
33.0
49
24.0
74
0
49
-3.0
74
0
49
0.0
74
0
49
-3.0
74
0
49
0.0
74
0
49
-3.0
74
0
0
LTYPE
5
94
330
5
100
AcDbSymbolTableRecord
100
AcDbLinetypeTableRecord
2
ACAD_ISO06W100
70
0
3
ISO long-dash triple-dot ____ ... ____ ... ____
72
65
73
8
40
36.0
49
24.0
74
0
49
-3.0
74
0
49
0.0
74
0
49
-3.0
74
0
49
0.0
74
0
49
-3.0
74
0
49
0.0
74
0
49
-3.0
74
0
0
LTYPE
5
95
330
5
100
AcDbSymbolTableRecord
100
AcDbLinetypeTableRecord
2
ACAD_ISO07W100
70
0
3
ISO dot . . . . . . . . . . . . . . . . . . . .
72
65
73
2
40
3.0
49
0.0
74
0
49
-3.0
74
0
0
LTYPE
5
96
330
5
100
AcDbSymbolTableRecord
100
AcDbLinetypeTableRecord
2
ACAD_ISO08W100
70
0
3
ISO long-dash short-dash ____ __ ____ __ ____ _
72
65
73
4
40
36.0
49
24.0
74
0
49
-3.0
74
0
49
6.0
74
0
49
-3.0
74
0
0
LTYPE
5
97
330
5
100
AcDbSymbolTableRecord
100
AcDbLinetypeTableRecord
2
ACAD_ISO09W100
70
0
3
ISO long-dash double-short-dash ____ __ __ ____
72
65
73
6
40
45.0
49
24.0
74
0
49
-3.0
74
0
49
6.0
74
0
49
-3.0
74
0
49
6.0
74
0
49
-3.0
74
0
0
LTYPE
5
98
330
5
100
AcDbSymbolTableRecord
100
AcDbLinetypeTableRecord
2
ACAD_ISO10W100
70
0
3
ISO dash dot __ . __ . __ . __ . __ . __ . __ .
72
65
73
4
40
18.0
49
12.0
74
0
49
-3.0
74
0
49
0.0
74
0
49
-3.0
74
0
0
LTYPE
5
99
330
5
100
AcDbSymbolTableRecord
100
AcDbLinetypeTableRecord
2
ACAD_ISO11W100
70
0
3
ISO double-dash dot __ __ . __ __ . __ __ . __ 
72
65
73
6
40
33.0
49
12.0
74
0
49
-3.0
74
0
49
12.0
74
0
49
-3.0
74
0
49
0.0
74
0
49
-3.0
74
0
0
LTYPE
5
9A
330
5
100
AcDbSymbolTableRecord
100
AcDbLinetypeTableRecord
2
ACAD_ISO12W100
70
0
3
ISO dash double-dot __ . . __ . . __ . . __ . .
72
65
73
6
40
21.0
49
12.0
74
0
49
-3.0
74
0
49
0.0
74
0
49
-3.0
74
0
49
0.0
74
0
49
-3.0
74
0
0
LTYPE
5
9B
330
5
100
AcDbSymbolTableRecord
100
AcDbLinetypeTableRecord
2
ACAD_ISO13W100
70
0
3
ISO double-dash double-dot __ __ . . __ __ . . 
72
65
73
8
40
36.0
49
12.0
74
0
49
-3.0
74
0
49
12.0
74
0
49
-3.0
74
0
49
0.0
74
0
49
-3.0
74
0
49
0.0
74
0
49
-3.0
74
0
0
LTYPE
5
9C
330
5
100
AcDbSymbolTableRecord
100
AcDbLinetypeTableRecord
2
ACAD_ISO14W100
70
0
3
ISO dash triple-dot __ . . . __ . . . __ . . . 
72
65
73
8
40
24.0
49
12.0
74
0
49
-3.0
74
0
49
0.0
74
0
49
-3.0
74
0
49
0.0
74
0
49
-3.0
74
0
49
0.0
74
0
49
-3.0
74
0
0
LTYPE
5
9D
330
5
100
AcDbSymbolTableRecord
100
AcDbLinetypeTableRecord
2
ACAD_ISO15W100
70
0
3
ISO double-dash triple-dot __ __ . . . __ __ . 
72
65
73
10
40
39.0
49
12.0
74
0
49
-3.0
74
0
49
12.0
74
0
49
-3.0
74
0
49
0.0
74
0
49
-3.0
74
0
49
0.0
74
0
49
-3.0
74
0
49
0.0
74
0
49
-3.0
74
0
0
LTYPE
5
A0
330
5
100
AcDbSymbolTableRecord
100
AcDbLinetypeTableRecord
2
FENCELINE1
70
0
3
Fenceline circle ----0-----0----0-----0----0---
72
65
73
3
40
1.35
49
0.25
74
0
49
-0.1
74
0
49
1.0
74
0
0
LTYPE
5
A1
330
5
100
AcDbSymbolTableRecord
100
AcDbLinetypeTableRecord
2
FENCELINE2
70
0
3
Fenceline square ----[]-----[]----[]-----[]----
72
65
73
3
40
1.35
49
0.25
74
0
49
-0.1
74
0
49
1.0
74
0
0
LTYPE
5
A2
330
5
100
AcDbSymbolTableRecord
100
AcDbLinetypeTableRecord
2
TRACKS
70
0
3
Tracks -|-|-|-|-|-|-|-|-|-|-|-|-|-|-|-|-|-|-|-|
72
65
73
1
40
0.15
49
0.15
74
0
0
LTYPE
5
A3
330
5
100
AcDbSymbolTableRecord
100
AcDbLinetypeTableRecord
2
BATTING
70
0
3
Batting SSSSSSSSSSSSSSSSSSSSSSSSSSSSSSSSSSSSSSS
72
65
73
2
40
0.1001
49
0.0001
74
0
49
-0.1
74
0
0
LTYPE
5
A4
330
5
100
AcDbSymbolTableRecord
100
AcDbLinetypeTableRecord
2
HOT_WATER_SUPPLY
70
0
3
Hot water supply ---- HW ---- HW ---- HW ----
72
65
73
3
40
0.9
49
0.5
74
0
49
-0.2
74
2
75
0
340
55
46
0.1
50
0.0
44
-0.1
45
-0.05
9
HW
49
-0.2
74
0
0
LTYPE
5
A5
330
5
100
AcDbSymbolTableRecord
100
AcDbLinetypeTableRecord
2
GAS_LINE
70
0
3
Gas line ----GAS----GAS----GAS----GAS----GAS---
72
65
73
3
40
0.95
49
0.5
74
0
49
-0.2
74
2
75
0
340
55
46
0.1
50
0.0
44
-0.1
45
-0.05
9
GAS
49
-0.25
74
0
0
LTYPE
5
A6
330
5
100
AcDbSymbolTableRecord
100
AcDbLinetypeTableRecord
2
ZIGZAG
70
0
3
Zig zag /\/\/\/\/\/\/\/\/\/\/\/\/\/\/\/\/\/\/\/
72
65
73
2
40
0.2001
49
0.0001
74
0
49
-0.2
74
0
0
ENDTAB
0
TABLE
2
LAYER
5
2
102
{ACAD_XDICTIONARY
360
19C
102
}
330
0
100
AcDbSymbolTable
70
5
0
LAYER
5
54
330
2
100
AcDbSymbolTableRecord
100
AcDbLayerTableRecord
2
0
70
0
62
7
6
Continuous
290
1
370
-3
390
0
0
LAYER
5
A7
330
2
100
AcDbSymbolTableRecord
100
AcDbLayerTableRecord
2
IV_MARK_SURFACE_BACK
70
0
62
91
6
Continuous
290
1
370
25
390
0
0
LAYER
5
A8
330
2
100
AcDbSymbolTableRecord
100
AcDbLayerTableRecord
2
IV_OUTER_PROFILE
70
0
62
7
6
Continuous
290
1
370
50
390
0
0
LAYER
5
1A5
330
2
100
AcDbSymbolTableRecord
100
AcDbLayerTableRecord
2
AutoDXF_SmallHoles
70
0
62
-4
6
Continuous
290
1
370
-3
390
0
0
LAYER
5
1A7
330
2
100
AcDbSymbolTableRecord
100
AcDbLayerTableRecord
2
AutoDXF_SmallHoles_Points
70
0
62
-4
6
Continuous
290
1
370
-3
390
0
0
ENDTAB
0
TABLE
2
STYLE
5
3
330
0
100
AcDbSymbolTable
70
2
0
STYLE
5
55
330
3
100
AcDbSymbolTableRecord
100
AcDbTextStyleTableRecord
2
Standard
3
txt.SHX
70
0
71
0
40
0.0
41
1.0
42
0.0
50
0.0
0
STYLE
5
5A
330
3
100
AcDbSymbolTableRecord
100
AcDbTextStyleTableRecord
2
Annotative
3
txt.SHX
70
0
71
0
40
0.0
41
1.0
42
0.0
50
0.0
1001
AcadAnnotative
1000
AnnotativeData
1002
{
1070
1
1070
1
1002
}
0
STYLE
5
9F
330
19D
100
AcDbSymbolTableRecord
100
AcDbTextStyleTableRecord
2

3
ltypeshp.shx
70
1
40
0.0
41
1.0
42
0.0
50
0.0
0
ENDTAB
0
TABLE
2
DIMSTYLE
5
A
330
0
100
AcDbSymbolTable
70
2
100
AcDbDimStyleTable
0
DIMSTYLE
105
58
330
A
100
AcDbSymbolTableRecord
100
AcDbDimStyleTableRecord
2
Standard
3

4

40
1.0
41
0.18
42
0.0625
43
0.38
44
0.18
45
0.0
46
0.0
47
0.0
48
0.0
49
1.0
70
0
71
0
72
0
73
0
74
0
75
0
76
0
77
0
78
0
79
3
140
0.18
141
0.09
143
25.4
144
1.0
146
1.0
147
0.09
148
0.0
170
0
171
2
172
0
174
0
175
0
176
0
177
0
178
0
179
0
271
4
272
4
273
2
274
2
275
0
276
0
277
2
278
46
279
0
280
0
281
0
282
0
283
1
284
0
285
0
286
0
289
3
290
0
294
0
340
55
173
0
345
5B
346
5B
347
5B
371
-2
372
-2
0
DIMSTYLE
105
59
330
A
100
AcDbSymbolTableRecord
100
AcDbDimStyleTableRecord
2
Annotative
3

4

40
1.0
41
0.18
42
0.0625
43
0.38
44
0.18
45
0.0
46
0.0
47
0.0
48
0.0
49
1.0
70
0
71
0
72
0
73
0
74
0
75
0
76
0
77
0
78
0
79
3
140
0.18
141
0.09
143
25.4
144
1.0
146
1.0
147
0.09
148
0.0
170
0
171
2
172
0
174
0
175
0
176
0
177
0
178
0
179
0
271
4
272
4
273
2
274
2
275
0
276
0
277
2
278
46
279
0
280
0
281
0
282
0
283
1
284
0
285
0
286
0
289
3
290
0
294
0
340
55
173
0
345
5B
346
5B
347
5B
371
-2
372
-2
1001
AcadAnnotative
1000
AnnotativeData
1002
{
1070
1
1070
1
1002
}
0
ENDTAB
0
TABLE
2
VIEW
5
6
330
0
100
AcDbSymbolTable
70
0
0
ENDTAB
0
TABLE
2
UCS
5
7
330
0
100
AcDbSymbolTable
70
0
0
ENDTAB
0
TABLE
2
BLOCK_RECORD
5
1
330
0
100
AcDbSymbolTable
70
3
0
BLOCK_RECORD
5
70
330
1
100
AcDbSymbolTableRecord
100
AcDbBlockTableRecord
2
*Model_Space
340
73
0
BLOCK_RECORD
5
6C
330
1
100
AcDbSymbolTableRecord
100
AcDbBlockTableRecord
2
*Paper_Space
340
6F
0
BLOCK_RECORD
5
74
330
1
100
AcDbSymbolTableRecord
100
AcDbBlockTableRecord
2
*Paper_Space0
340
77
0
ENDTAB
0
ENDSEC
0
SECTION
2
BLOCKS
0
BLOCK
5
71
330
70
100
AcDbEntity
67
0
8
0
100
AcDbBlockBegin
2
*Model_Space
70
0
10
0.0
20
0.0
30
0.0
3
*Model_Space
4

0
ENDBLK
5
72
330
70
100
AcDbEntity
8
0
100
AcDbBlockEnd
0
BLOCK
5
6D
330
6C
100
AcDbEntity
67
1
8
0
100
AcDbBlockBegin
2
*Paper_Space
70
0
10
0.0
20
0.0
30
0.0
3
*Paper_Space
4

0
ENDBLK
5
6E
330
6C
100
AcDbEntity
8
0
100
AcDbBlockEnd
0
BLOCK
5
75
330
74
100
AcDbEntity
67
1
8
0
100
AcDbBlockBegin
2
*Paper_Space0
70
0
10
0.0
20
0.0
30
0.0
3
*Paper_Space0
4

0
VIEWPORT
5
1A4
330
74
100
AcDbEntity
67
1
8
0
62
256
6
ByLayer
370
-1
48
1.0
60
0
100
AcDbViewport
10
0.0
20
0.0
30
0.0
40
297.0
41
210.0
68
1
69
1
12
50.0
22
100.0
13
0.0
23
0.0
14
10.0
24
10.0
15
10.0
25
10.0
16
0.0
26
0.0
36
1.0
17
0.0
27
0.0
37
0.0
42
50.0
43
0.0
44
0.0
45
250.0
50
0.0
51
0.0
72
1000
90
819232
110
0.0
120
0.0
130
0.0
111
1.0
121
0.0
131
0.0
112
0.0
122
1.0
132
0.0
0
ENDBLK
5
76
330
74
100
AcDbEntity
8
0
100
AcDbBlockEnd
0
ENDSEC
0
SECTION
2
ENTITIES
0
VIEWPORT
5
1A3
330
6C
100
AcDbEntity
67
1
8
0
62
256
6
ByLayer
370
-1
48
1.0
60
0
100
AcDbViewport
10
0.0
20
0.0
30
0.0
40
297.0
41
210.0
68
1
69
1
12
50.0
22
100.0
13
0.0
23
0.0
14
10.0
24
10.0
15
10.0
25
10.0
16
0.0
26
0.0
36
1.0
17
0.0
27
0.0
37
0.0
42
50.0
43
0.0
44
0.0
45
250.0
50
0.0
51
0.0
72
1000
90
819232
110
0.0
120
0.0
130
0.0
111
1.0
121
0.0
131
0.0
112
0.0
122
1.0
132
0.0
0
ARC
5
A9
330
70
100
AcDbEntity
67
0
8
IV_MARK_SURFACE_BACK
62
256
6
ByLayer
370
-1
48
1.0
60
0
100
AcDbCircle
39
0.0
10
419.659299578944
20
25.8154738323018
30
0.0
40
1.3555555873447
210
0.0
220
0.0
230
1.0
100
AcDbArc
50
179.999999999988
51
270.0
0
LINE
5
AB
330
70
100
AcDbEntity
67
0
8
IV_MARK_SURFACE_BACK
62
256
6
ByLayer
370
-1
48
1.0
60
0
100
AcDbLine
10
418.3037439916
20
27.509918316483
30
0.0
11
418.3037439916
21
25.8154738323021
31
0.0
39
0.0
210
0.0
220
0.0
230
1.0
0
ARC
5
AC
330
70
100
AcDbEntity
67
0
8
IV_MARK_SURFACE_BACK
62
256
6
ByLayer
370
-1
48
1.0
60
0
100
AcDbCircle
39
0.0
10
419.320410682109
20
27.5099183164828
30
0.0
40
1.01666669050852
210
0.0
220
0.0
230
1.0
100
AcDbArc
50
90.0
51
179.999999999987
0
LINE
5
AD
330
70
100
AcDbEntity
67
0
8
IV_MARK_SURFACE_BACK
62
256
6
ByLayer
370
-1
48
1.0
60
0
100
AcDbLine
10
419.998188475781
20
28.5265850069912
30
0.0
11
419.320410682109
21
28.5265850069913
31
0.0
39
0.0
210
0.0
220
0.0
230
1.0
0
ARC
5
AE
330
70
100
AcDbEntity
67
0
8
IV_MARK_SURFACE_BACK
62
256
6
ByLayer
370
-1
48
1.0
60
0
100
AcDbCircle
39
0.0
10
419.998188475781
20
27.5099183164826
30
0.0
40
1.01666669050852
210
0.0
220
0.0
230
1.0
100
AcDbArc
50
359.999999999989
51
90.0
0
LINE
5
AF
330
70
100
AcDbEntity
67
0
8
IV_MARK_SURFACE_BACK
62
256
6
ByLayer
370
-1
48
1.0
60
0
100
AcDbLine
10
421.014855166289
20
24.4599182449568
30
0.0
11
421.01485516629
21
27.5099183164824
31
0.0
39
0.0
210
0.0
220
0.0
230
1.0
0
LINE
5
B0
330
70
100
AcDbEntity
67
0
8
IV_MARK_SURFACE_BACK
62
256
6
ByLayer
370
-1
48
1.0
60
0
100
AcDbLine
10
419.659299578944
20
24.4599182449572
30
0.0
11
421.014855166289
21
24.4599182449568
31
0.0
39
0.0
210
0.0
220
0.0
230
1.0
0
CIRCLE
5
B1
330
70
100
AcDbEntity
67
0
8
AutoDXF_SmallHoles
62
256
6
ByLayer
370
-1
48
1.0
60
0
100
AcDbCircle
10
340.528742167697
20
22.5960293123753
30
0.0
40
0.169444448418087
39
0.0
210
0.0
220
0.0
230
1.0
0
ARC
5
B2
330
70
100
AcDbEntity
67
0
8
IV_MARK_SURFACE_BACK
62
256
6
ByLayer
370
-1
48
1.0
60
0
100
AcDbCircle
39
0.0
10
320.432082077475
20
25.4765849354872
30
0.0
40
8.53678327592282
210
0.0
220
0.0
230
1.0
100
AcDbArc
50
163.866136540401
51
196.133863459574
0
ARC
5
B3
330
70
100
AcDbEntity
67
0
8
IV_MARK_SURFACE_BACK
62
256
6
ByLayer
370
-1
48
1.0
60
0
100
AcDbCircle
39
0.0
10
313.248185972387
20
27.4164760883427
30
0.0
40
1.10477208565055
210
0.0
220
0.0
230
1.0
100
AcDbArc
50
23.0373186897471
51
156.962681310229
0
ARC
5
B4
330
70
100
AcDbEntity
67
0
8
IV_MARK_SURFACE_BACK
62
256
6
ByLayer
370
-1
48
1.0
60
0
100
AcDbCircle
39
0.0
10
306.064289867298
20
25.4765849354903
30
0.0
40
8.53678327592282
210
0.0
220
0.0
230
1.0
100
AcDbArc
50
343.866136540401
51
16.1338634595738
0
ARC
5
B5
330
70
100
AcDbEntity
67
0
8
IV_MARK_SURFACE_BACK
62
256
6
ByLayer
370
-1
48
1.0
60
0
100
AcDbCircle
39
0.0
10
313.248185972386
20
23.5236493742769
30
0.0
40
1.09973292682427
210
0.0
220
0.0
230
1.0
100
AcDbArc
50
202.411895014793
51
337.588104985182
0
ARC
5
B6
330
70
100
AcDbEntity
67
0
8
IV_MARK_SURFACE_BACK
62
256
6
ByLayer
370
-1
48
1.0
60
0
100
AcDbCircle
39
0.0
10
348.492631243348
20
25.4765849354811
30
0.0
40
1.01666669050852
210
0.0
220
0.0
230
1.0
100
AcDbArc
50
179.999999999988
51
270.0
0
LINE
5
B7
330
70
100
AcDbEntity
67
0
8
IV_MARK_SURFACE_BACK
62
256
6
ByLayer
370
-1
48
1.0
60
0
100
AcDbLine
10
347.47596455284
20
27.5099183164984
30
0.0
11
347.47596455284
21
25.4765849354813
31
0.0
39
0.0
210
0.0
220
0.0
230
1.0
0
ARC
5
B8
330
70
100
AcDbEntity
67
0
8
IV_MARK_SURFACE_BACK
62
256
6
ByLayer
370
-1
48
1.0
60
0
100
AcDbCircle
39
0.0
10
348.492631243349
20
27.5099183164981
30
0.0
40
1.01666669050852
210
0.0
220
0.0
230
1.0
100
AcDbArc
50
90.0
51
179.999999999987
0
LINE
5
B9
330
70
100
AcDbEntity
67
0
8
IV_MARK_SURFACE_BACK
62
256
6
ByLayer
370
-1
48
1.0
60
0
100
AcDbLine
10
350.18707572753
20
28.5265850070063
30
0.0
11
348.492631243349
21
28.5265850070067
31
0.0
39
0.0
210
0.0
220
0.0
230
1.0
0
LINE
5
BA
330
70
100
AcDbEntity
67
0
8
IV_MARK_SURFACE_BACK
62
256
6
ByLayer
370
-1
48
1.0
60
0
100
AcDbLine
10
350.187075727529
20
24.4599182449722
30
0.0
11
350.18707572753
21
28.5265850070063
31
0.0
39
0.0
210
0.0
220
0.0
230
1.0
0
LINE
5
BB
330
70
100
AcDbEntity
67
0
8
IV_MARK_SURFACE_BACK
62
256
6
ByLayer
370
-1
48
1.0
60
0
100
AcDbLine
10
348.492631243348
20
24.4599182449726
30
0.0
11
350.187075727529
21
24.4599182449722
31
0.0
39
0.0
210
0.0
220
0.0
230
1.0
0
LINE
5
BC
330
70
100
AcDbEntity
67
0
8
IV_MARK_SURFACE_BACK
62
256
6
ByLayer
370
-1
48
1.0
60
0
100
AcDbLine
10
352.220409108546
20
26.4932516259888
30
0.0
11
354.931520283236
21
26.4932516259882
31
0.0
39
0.0
210
0.0
220
0.0
230
1.0
0
LINE
5
BD
330
70
100
AcDbEntity
67
0
8
IV_MARK_SURFACE_BACK
62
256
6
ByLayer
370
-1
48
1.0
60
0
100
AcDbLine
10
354.931520283236
20
26.4932516259882
30
0.0
11
354.931520283236
21
25.8154738323159
31
0.0
39
0.0
210
0.0
220
0.0
230
1.0
0
ARC
5
BE
330
70
100
AcDbEntity
67
0
8
IV_MARK_SURFACE_BACK
62
256
6
ByLayer
370
-1
48
1.0
60
0
100
AcDbCircle
39
0.0
10
353.575964695891
20
25.8154738323162
30
0.0
40
1.3555555873447
210
0.0
220
0.0
230
1.0
100
AcDbArc
50
179.999999999988
51
359.999999999988
0
LINE
5
BF
330
70
100
AcDbEntity
67
0
8
IV_MARK_SURFACE_BACK
62
256
6
ByLayer
370
-1
48
1.0
60
0
100
AcDbLine
10
352.220409108546
20
25.8154738323164
30
0.0
11
352.220409108546
21
26.4932516259888
31
0.0
39
0.0
210
0.0
220
0.0
230
1.0
0
LINE
5
C0
330
70
100
AcDbEntity
67
0
8
IV_MARK_SURFACE_BACK
62
256
6
ByLayer
370
-1
48
1.0
60
0
100
AcDbLine
10
371.198187331372
20
25.8154738323123
30
0.0
11
371.198187331372
21
27.171029419657
31
0.0
39
0.0
210
0.0
220
0.0
230
1.0
0
ARC
5
C1
330
70
100
AcDbEntity
67
0
8
IV_MARK_SURFACE_BACK
62
256
6
ByLayer
370
-1
48
1.0
60
0
100
AcDbCircle
39
0.0
10
372.553742918717
20
27.1710294196568
30
0.0
40
1.3555555873447
210
0.0
220
0.0
230
1.0
100
AcDbArc
50
359.999999999988
51
179.999999999988
0
LINE
5
C2
330
70
100
AcDbEntity
67
0
8
IV_MARK_SURFACE_BACK
62
256
6
ByLayer
370
-1
48
1.0
60
0
100
AcDbLine
10
373.909298506061
20
27.1710294196565
30
0.0
11
373.909298506061
21
25.8154738323118
31
0.0
39
0.0
210
0.0
220
0.0
230
1.0
0
ARC
5
C3
330
70
100
AcDbEntity
67
0
8
IV_MARK_SURFACE_BACK
62
256
6
ByLayer
370
-1
48
1.0
60
0
100
AcDbCircle
39
0.0
10
372.553742918717
20
25.8154738323121
30
0.0
40
1.3555555873447
210
0.0
220
0.0
230
1.0
100
AcDbArc
50
179.999999999988
51
359.999999999988
0
LINE
5
C4
330
70
100
AcDbEntity
67
0
8
IV_MARK_SURFACE_BACK
62
256
6
ByLayer
370
-1
48
1.0
60
0
100
AcDbLine
10
380.687076442785
20
26.4932516259826
30
0.0
11
383.398187617474
21
26.4932516259821
31
0.0
39
0.0
210
0.0
220
0.0
230
1.0
0
LINE
5
C5
330
70
100
AcDbEntity
67
0
8
IV_MARK_SURFACE_BACK
62
256
6
ByLayer
370
-1
48
1.0
60
0
100
AcDbLine
10
383.398187617474
20
26.4932516259821
30
0.0
11
383.398187617474
21
25.8154738323097
31
0.0
39
0.0
210
0.0
220
0.0
230
1.0
0
ARC
5
C6
330
70
100
AcDbEntity
67
0
8
IV_MARK_SURFACE_BACK
62
256
6
ByLayer
370
-1
48
1.0
60
0
100
AcDbCircle
39
0.0
10
382.042632030129
20
25.81547383231
30
0.0
40
1.3555555873447
210
0.0
220
0.0
230
1.0
100
AcDbArc
50
179.999999999988
51
359.999999999988
0
LINE
5
C7
330
70
100
AcDbEntity
67
0
8
IV_MARK_SURFACE_BACK
62
256
6
ByLayer
370
-1
48
1.0
60
0
100
AcDbLine
10
380.687076442785
20
25.8154738323103
30
0.0
11
380.687076442785
21
26.4932516259826
31
0.0
39
0.0
210
0.0
220
0.0
230
1.0
0
LINE
5
C8
330
70
100
AcDbEntity
67
0
8
IV_MARK_SURFACE_BACK
62
256
6
ByLayer
370
-1
48
1.0
60
0
100
AcDbLine
10
391.531521141542
20
26.4932516259803
30
0.0
11
394.242632316232
21
26.4932516259797
31
0.0
39
0.0
210
0.0
220
0.0
230
1.0
0
LINE
5
C9
330
70
100
AcDbEntity
67
0
8
IV_MARK_SURFACE_BACK
62
256
6
ByLayer
370
-1
48
1.0
60
0
100
AcDbLine
10
394.242632316232
20
26.4932516259797
30
0.0
11
394.242632316232
21
25.8154738323074
31
0.0
39
0.0
210
0.0
220
0.0
230
1.0
0
ARC
5
CA
330
70
100
AcDbEntity
67
0
8
IV_MARK_SURFACE_BACK
62
256
6
ByLayer
370
-1
48
1.0
60
0
100
AcDbCircle
39
0.0
10
392.887076728887
20
25.8154738323076
30
0.0
40
1.3555555873447
210
0.0
220
0.0
230
1.0
100
AcDbArc
50
179.999999999988
51
359.999999999988
0
LINE
5
CB
330
70
100
AcDbEntity
67
0
8
IV_MARK_SURFACE_BACK
62
256
6
ByLayer
370
-1
48
1.0
60
0
100
AcDbLine
10
391.531521141542
20
25.8154738323079
30
0.0
11
391.531521141542
21
26.4932516259803
31
0.0
39
0.0
210
0.0
220
0.0
230
1.0
0
CIRCLE
5
CC
330
70
100
AcDbEntity
67
0
8
AutoDXF_SmallHoles
62
256
6
ByLayer
370
-1
48
1.0
60
0
100
AcDbCircle
10
401.189854701372
20
22.5960293123622
30
0.0
40
0.169444448418087
39
0.0
210
0.0
220
0.0
230
1.0
0
LINE
5
CD
330
70
100
AcDbEntity
67
0
8
IV_MARK_SURFACE_BACK
62
256
6
ByLayer
370
-1
48
1.0
60
0
100
AcDbLine
10
413.559299435893
20
24.4599182449585
30
0.0
11
413.559299435894
21
28.5265850069926
31
0.0
39
0.0
210
0.0
220
0.0
230
1.0
0
LINE
5
CE
330
70
100
AcDbEntity
67
0
8
IV_MARK_SURFACE_BACK
62
256
6
ByLayer
370
-1
48
1.0
60
0
100
AcDbLine
10
413.559299435894
20
28.5265850069926
30
0.0
11
415.253743920075
21
28.5265850069922
31
0.0
39
0.0
210
0.0
220
0.0
230
1.0
0
ARC
5
CF
330
70
100
AcDbEntity
67
0
8
IV_MARK_SURFACE_BACK
62
256
6
ByLayer
370
-1
48
1.0
60
0
100
AcDbCircle
39
0.0
10
415.253743920075
20
27.5099183164837
30
0.0
40
1.01666669050852
210
0.0
220
0.0
230
1.0
100
AcDbArc
50
359.999999999989
51
90.0
0
LINE
5
D0
330
70
100
AcDbEntity
67
0
8
IV_MARK_SURFACE_BACK
62
256
6
ByLayer
370
-1
48
1.0
60
0
100
AcDbLine
10
416.270410610583
20
27.5099183164835
30
0.0
11
416.270410610583
21
25.4765849354664
31
0.0
39
0.0
210
0.0
220
0.0
230
1.0
0
ARC
5
D1
330
70
100
AcDbEntity
67
0
8
IV_MARK_SURFACE_BACK
62
256
6
ByLayer
370
-1
48
1.0
60
0
100
AcDbCircle
39
0.0
10
415.253743920074
20
25.4765849354666
30
0.0
40
1.01666669050852
210
0.0
220
0.0
230
1.0
100
AcDbArc
50
270.0
51
359.999999999987
0
LINE
5
D2
330
70
100
AcDbEntity
67
0
8
IV_MARK_SURFACE_BACK
62
256
6
ByLayer
370
-1
48
1.0
60
0
100
AcDbLine
10
415.253743920074
20
24.4599182449581
30
0.0
11
413.559299435893
21
24.4599182449585
31
0.0
39
0.0
210
0.0
220
0.0
230
1.0
0
LINE
5
D3
330
70
100
AcDbEntity
67
0
8
IV_MARK_SURFACE_BACK
62
256
6
ByLayer
370
-1
48
1.0
60
0
100
AcDbLine
10
427.792633103013
20
28.5265850069895
30
0.0
11
427.792633103013
21
26.4932516259724
31
0.0
39
0.0
210
0.0
220
0.0
230
1.0
0
LINE
5
D4
330
70
100
AcDbEntity
67
0
8
IV_MARK_SURFACE_BACK
62
256
6
ByLayer
370
-1
48
1.0
60
0
100
AcDbLine
10
427.792633103013
20
26.4932516259724
30
0.0
11
427.792633103012
21
22.4265848639383
31
0.0
39
0.0
210
0.0
220
0.0
230
1.0
0
LINE
5
D5
330
70
100
AcDbEntity
67
0
8
IV_MARK_SURFACE_BACK
62
256
6
ByLayer
370
-1
48
1.0
60
0
100
AcDbLine
10
427.792633103013
20
26.4932516259724
30
0.0
11
430.503744277702
21
24.4599182449548
31
0.0
39
0.0
210
0.0
220
0.0
230
1.0
0
LINE
5
D6
330
70
100
AcDbEntity
67
0
8
IV_MARK_SURFACE_BACK
62
256
6
ByLayer
370
-1
48
1.0
60
0
100
AcDbLine
10
413.559299435893
20
22.4265848639414
30
0.0
11
413.559299435893
21
24.4599182449585
31
0.0
39
0.0
210
0.0
220
0.0
230
1.0
0
LINE
5
D7
330
70
100
AcDbEntity
67
0
8
IV_MARK_SURFACE_BACK
62
256
6
ByLayer
370
-1
48
1.0
60
0
100
AcDbLine
10
401.189854701374
20
28.5265850069953
30
0.0
11
401.189854701373
21
24.4599182449611
31
0.0
39
0.0
210
0.0
220
0.0
230
1.0
0
LINE
5
D8
330
70
100
AcDbEntity
67
0
8
IV_MARK_SURFACE_BACK
62
256
6
ByLayer
370
-1
48
1.0
60
0
100
AcDbLine
10
396.275965697249
20
28.5265850069963
30
0.0
11
397.631521284593
21
26.4932516259789
31
0.0
39
0.0
210
0.0
220
0.0
230
1.0
0
LINE
5
D9
330
70
100
AcDbEntity
67
0
8
IV_MARK_SURFACE_BACK
62
256
6
ByLayer
370
-1
48
1.0
60
0
100
AcDbLine
10
396.275965697248
20
24.4599182449622
30
0.0
11
397.631521284593
21
26.4932516259789
31
0.0
39
0.0
210
0.0
220
0.0
230
1.0
0
LINE
5
DA
330
70
100
AcDbEntity
67
0
8
IV_MARK_SURFACE_BACK
62
256
6
ByLayer
370
-1
48
1.0
60
0
100
AcDbLine
10
397.631521284593
20
26.4932516259789
30
0.0
11
398.987076871938
21
24.4599182449616
31
0.0
39
0.0
210
0.0
220
0.0
230
1.0
0
LINE
5
DB
330
70
100
AcDbEntity
67
0
8
IV_MARK_SURFACE_BACK
62
256
6
ByLayer
370
-1
48
1.0
60
0
100
AcDbLine
10
397.631521284593
20
26.4932516259789
30
0.0
11
398.987076871939
21
28.5265850069957
31
0.0
39
0.0
210
0.0
220
0.0
230
1.0
0
LINE
5
DC
330
70
100
AcDbEntity
67
0
8
IV_MARK_SURFACE_BACK
62
256
6
ByLayer
370
-1
48
1.0
60
0
100
AcDbLine
10
391.531521141542
20
26.4932516259803
30
0.0
11
391.531521141543
21
27.5099183164888
31
0.0
39
0.0
210
0.0
220
0.0
230
1.0
0
ARC
5
DD
330
70
100
AcDbEntity
67
0
8
IV_MARK_SURFACE_BACK
62
256
6
ByLayer
370
-1
48
1.0
60
0
100
AcDbCircle
39
0.0
10
392.548187832051
20
27.5099183164886
30
0.0
40
1.01666669050852
210
0.0
220
0.0
230
1.0
100
AcDbArc
50
90.0
51
179.999999999987
0
LINE
5
DE
330
70
100
AcDbEntity
67
0
8
IV_MARK_SURFACE_BACK
62
256
6
ByLayer
370
-1
48
1.0
60
0
100
AcDbLine
10
392.548187832051
20
28.5265850069971
30
0.0
11
394.242632316232
21
28.5265850069968
31
0.0
39
0.0
210
0.0
220
0.0
230
1.0
0
LINE
5
DF
330
70
100
AcDbEntity
67
0
8
IV_MARK_SURFACE_BACK
62
256
6
ByLayer
370
-1
48
1.0
60
0
100
AcDbLine
10
380.687076442785
20
26.4932516259826
30
0.0
11
380.687076442785
21
27.5099183164912
31
0.0
39
0.0
210
0.0
220
0.0
230
1.0
0
ARC
5
E0
330
70
100
AcDbEntity
67
0
8
IV_MARK_SURFACE_BACK
62
256
6
ByLayer
370
-1
48
1.0
60
0
100
AcDbCircle
39
0.0
10
381.703743133293
20
27.5099183164909
30
0.0
40
1.01666669050852
210
0.0
220
0.0
230
1.0
100
AcDbArc
50
90.0
51
179.999999999987
0
LINE
5
E1
330
70
100
AcDbEntity
67
0
8
IV_MARK_SURFACE_BACK
62
256
6
ByLayer
370
-1
48
1.0
60
0
100
AcDbLine
10
381.703743133294
20
28.5265850069995
30
0.0
11
383.398187617475
21
28.5265850069991
31
0.0
39
0.0
210
0.0
220
0.0
230
1.0
0
LINE
5
E2
330
70
100
AcDbEntity
67
0
8
IV_MARK_SURFACE_BACK
62
256
6
ByLayer
370
-1
48
1.0
60
0
100
AcDbLine
10
375.942631887079
20
28.5265850070007
30
0.0
11
375.942631887078
21
24.4599182449666
31
0.0
39
0.0
210
0.0
220
0.0
230
1.0
0
LINE
5
E3
330
70
100
AcDbEntity
67
0
8
IV_MARK_SURFACE_BACK
62
256
6
ByLayer
370
-1
48
1.0
60
0
100
AcDbLine
10
375.942631887078
20
24.4599182449666
30
0.0
11
377.637076371259
21
24.4599182449663
31
0.0
39
0.0
210
0.0
220
0.0
230
1.0
0
ARC
5
E4
330
70
100
AcDbEntity
67
0
8
IV_MARK_SURFACE_BACK
62
256
6
ByLayer
370
-1
48
1.0
60
0
100
AcDbCircle
39
0.0
10
377.637076371259
20
25.4765849354748
30
0.0
40
1.01666669050852
210
0.0
220
0.0
230
1.0
100
AcDbArc
50
270.0
51
359.999999999987
0
LINE
5
E5
330
70
100
AcDbEntity
67
0
8
IV_MARK_SURFACE_BACK
62
256
6
ByLayer
370
-1
48
1.0
60
0
100
AcDbLine
10
378.653743061768
20
25.4765849354745
30
0.0
11
378.653743061768
21
28.5265850070001
31
0.0
39
0.0
210
0.0
220
0.0
230
1.0
0
LINE
5
E6
330
70
100
AcDbEntity
67
0
8
IV_MARK_SURFACE_BACK
62
256
6
ByLayer
370
-1
48
1.0
60
0
100
AcDbLine
10
356.964853664253
20
28.5265850070048
30
0.0
11
356.964853664252
21
24.4599182449707
31
0.0
39
0.0
210
0.0
220
0.0
230
1.0
0
LINE
5
E7
330
70
100
AcDbEntity
67
0
8
IV_MARK_SURFACE_BACK
62
256
6
ByLayer
370
-1
48
1.0
60
0
100
AcDbLine
10
356.964853664252
20
24.4599182449707
30
0.0
11
358.320409251597
21
24.4599182449704
31
0.0
39
0.0
210
0.0
220
0.0
230
1.0
0
ARC
5
E8
330
70
100
AcDbEntity
67
0
8
IV_MARK_SURFACE_BACK
62
256
6
ByLayer
370
-1
48
1.0
60
0
100
AcDbCircle
39
0.0
10
358.320409251597
20
25.1376960386428
30
0.0
40
0.67777779367235
210
0.0
220
0.0
230
1.0
100
AcDbArc
50
270.0
51
359.999999999988
0
LINE
5
E9
330
70
100
AcDbEntity
67
0
8
IV_MARK_SURFACE_BACK
62
256
6
ByLayer
370
-1
48
1.0
60
0
100
AcDbLine
10
352.220409108546
20
26.4932516259888
30
0.0
11
352.220409108547
21
27.5099183164973
31
0.0
39
0.0
210
0.0
220
0.0
230
1.0
0
ARC
5
EA
330
70
100
AcDbEntity
67
0
8
IV_MARK_SURFACE_BACK
62
256
6
ByLayer
370
-1
48
1.0
60
0
100
AcDbCircle
39
0.0
10
353.237075799055
20
27.5099183164971
30
0.0
40
1.01666669050852
210
0.0
220
0.0
230
1.0
100
AcDbArc
50
90.0
51
179.999999999987
0
LINE
5
EB
330
70
100
AcDbEntity
67
0
8
IV_MARK_SURFACE_BACK
62
256
6
ByLayer
370
-1
48
1.0
60
0
100
AcDbLine
10
353.237075799055
20
28.5265850070056
30
0.0
11
354.931520283236
21
28.5265850070053
31
0.0
39
0.0
210
0.0
220
0.0
230
1.0
0
LINE
5
EC
330
70
100
AcDbEntity
67
0
8
IV_MARK_SURFACE_BACK
62
256
6
ByLayer
370
-1
48
1.0
60
0
100
AcDbLine
10
350.18707572753
20
28.5265850070063
30
0.0
11
350.18707572753
21
29.5432516975148
31
0.0
39
0.0
210
0.0
220
0.0
230
1.0
0
ARC
5
ED
330
70
100
AcDbEntity
67
0
8
IV_MARK_SURFACE_BACK
62
256
6
ByLayer
370
-1
48
1.0
60
0
100
AcDbCircle
39
0.0
10
349.170409037021
20
29.543251697515
30
0.0
40
1.01666669050852
210
0.0
220
0.0
230
1.0
100
AcDbArc
50
359.999999999987
51
90.0
0
LINE
5
EE
330
70
100
AcDbEntity
67
0
8
IV_MARK_SURFACE_BACK
62
256
6
ByLayer
370
-1
48
1.0
60
0
100
AcDbLine
10
349.170409037022
20
30.5599183880236
30
0.0
11
347.475964552841
21
30.5599183880239
31
0.0
39
0.0
210
0.0
220
0.0
230
1.0
0
LINE
5
EF
330
70
100
AcDbEntity
67
0
8
IV_MARK_SURFACE_BACK
62
256
6
ByLayer
370
-1
48
1.0
60
0
100
AcDbLine
10
342.731519997134
20
28.5265850070079
30
0.0
11
342.731519997133
21
24.4599182449738
31
0.0
39
0.0
210
0.0
220
0.0
230
1.0
0
LINE
5
F0
330
70
100
AcDbEntity
67
0
8
IV_MARK_SURFACE_BACK
62
256
6
ByLayer
370
-1
48
1.0
60
0
100
AcDbLine
10
342.731519997133
20
24.4599182449738
30
0.0
11
344.425964481314
21
24.4599182449734
31
0.0
39
0.0
210
0.0
220
0.0
230
1.0
0
ARC
5
F1
330
70
100
AcDbEntity
67
0
8
IV_MARK_SURFACE_BACK
62
256
6
ByLayer
370
-1
48
1.0
60
0
100
AcDbCircle
39
0.0
10
344.425964481314
20
25.476584935482
30
0.0
40
1.01666669050852
210
0.0
220
0.0
230
1.0
100
AcDbArc
50
270.0
51
359.999999999987
0
LINE
5
F2
330
70
100
AcDbEntity
67
0
8
IV_MARK_SURFACE_BACK
62
256
6
ByLayer
370
-1
48
1.0
60
0
100
AcDbLine
10
345.442631171823
20
25.4765849354817
30
0.0
11
345.442631171823
21
28.5265850070073
31
0.0
39
0.0
210
0.0
220
0.0
230
1.0
0
LINE
5
F3
330
70
100
AcDbEntity
67
0
8
IV_MARK_SURFACE_BACK
62
256
6
ByLayer
370
-1
48
1.0
60
0
100
AcDbLine
10
336.292630957247
20
28.5265850070093
30
0.0
11
336.292630957246
21
24.4599182449752
31
0.0
39
0.0
210
0.0
220
0.0
230
1.0
0
LINE
5
F4
330
70
100
AcDbEntity
67
0
8
IV_MARK_SURFACE_BACK
62
256
6
ByLayer
370
-1
48
1.0
60
0
100
AcDbLine
10
336.292630957246
20
24.4599182449752
30
0.0
11
337.648186544591
21
24.4599182449749
31
0.0
39
0.0
210
0.0
220
0.0
230
1.0
0
ARC
5
F5
330
70
100
AcDbEntity
67
0
8
IV_MARK_SURFACE_BACK
62
256
6
ByLayer
370
-1
48
1.0
60
0
100
AcDbCircle
39
0.0
10
337.648186544591
20
25.1376960386473
30
0.0
40
0.67777779367235
210
0.0
220
0.0
230
1.0
100
AcDbArc
50
270.0
51
359.999999999988
0
ARC
5
F6
330
70
100
AcDbEntity
67
0
8
IV_MARK_SURFACE_BACK
62
256
6
ByLayer
370
-1
48
1.0
60
0
100
AcDbCircle
39
0.0
10
328.505454253931
20
27.4142942064182
30
0.0
40
1.11231454535191
210
0.0
220
0.0
230
1.0
100
AcDbArc
50
90.3743764128115
51
157.005758639125
0
LINE
5
F7
330
70
100
AcDbEntity
67
0
8
IV_MARK_SURFACE_BACK
62
256
6
ByLayer
370
-1
48
1.0
60
0
100
AcDbLine
10
328.498186330015
20
28.526585007011
30
0.0
11
329.175964123687
21
28.5265850070108
31
0.0
39
0.0
210
0.0
220
0.0
230
1.0
0
ARC
5
F8
330
70
100
AcDbEntity
67
0
8
IV_MARK_SURFACE_BACK
62
256
6
ByLayer
370
-1
48
1.0
60
0
100
AcDbCircle
39
0.0
10
329.16869619977
20
27.4142942064181
30
0.0
40
1.1123145453519
210
0.0
220
0.0
230
1.0
100
AcDbArc
50
22.9942413608493
51
89.6256235871629
0
LINE
5
F9
330
70
100
AcDbEntity
67
0
8
IV_MARK_SURFACE_BACK
62
256
6
ByLayer
370
-1
48
1.0
60
0
100
AcDbLine
10
330.192630814195
20
27.8488072133383
30
0.0
11
330.192630814195
21
27.5099183165021
31
0.0
39
0.0
210
0.0
220
0.0
230
1.0
0
ARC
5
FA
330
70
100
AcDbEntity
67
0
8
IV_MARK_SURFACE_BACK
62
256
6
ByLayer
370
-1
48
1.0
60
0
100
AcDbCircle
39
0.0
10
329.060760372415
20
27.9640109646101
30
0.0
40
1.21956173687143
210
0.0
220
0.0
230
1.0
100
AcDbArc
50
291.860055904182
51
338.139944095792
0
LINE
5
FB
330
70
100
AcDbEntity
67
0
8
IV_MARK_SURFACE_BACK
62
256
6
ByLayer
370
-1
48
1.0
60
0
100
AcDbLine
10
329.514853020523
20
26.8321405228299
30
0.0
11
328.159297433178
21
26.1543627291578
31
0.0
39
0.0
210
0.0
220
0.0
230
1.0
0
ARC
5
FC
330
70
100
AcDbEntity
67
0
8
IV_MARK_SURFACE_BACK
62
256
6
ByLayer
370
-1
48
1.0
60
0
100
AcDbCircle
39
0.0
10
328.613390081285
20
25.0224922873777
30
0.0
40
1.21956173687143
210
0.0
220
0.0
230
1.0
100
AcDbArc
50
111.860055904182
51
158.139944095791
0
LINE
5
FD
330
70
100
AcDbEntity
67
0
8
IV_MARK_SURFACE_BACK
62
256
6
ByLayer
370
-1
48
1.0
60
0
100
AcDbLine
10
327.481519639505
20
25.4765849354856
30
0.0
11
327.481519639505
21
25.1376960386495
31
0.0
39
0.0
210
0.0
220
0.0
230
1.0
0
ARC
5
FE
330
70
100
AcDbEntity
67
0
8
IV_MARK_SURFACE_BACK
62
256
6
ByLayer
370
-1
48
1.0
60
0
100
AcDbCircle
39
0.0
10
328.505454253931
20
25.5722090455697
30
0.0
40
1.11231454535191
210
0.0
220
0.0
230
1.0
100
AcDbArc
50
202.994241360851
51
269.625623587167
0
LINE
5
FF
330
70
100
AcDbEntity
67
0
8
IV_MARK_SURFACE_BACK
62
256
6
ByLayer
370
-1
48
1.0
60
0
100
AcDbLine
10
328.498186330014
20
24.4599182449769
30
0.0
11
329.175964123686
21
24.4599182449767
31
0.0
39
0.0
210
0.0
220
0.0
230
1.0
0
ARC
5
100
330
70
100
AcDbEntity
67
0
8
IV_MARK_SURFACE_BACK
62
256
6
ByLayer
370
-1
48
1.0
60
0
100
AcDbCircle
39
0.0
10
329.168696199769
20
25.5722090455695
30
0.0
40
1.1123145453519
210
0.0
220
0.0
230
1.0
100
AcDbArc
50
270.374376412812
51
337.005758639124
0
LINE
5
101
330
70
100
AcDbEntity
67
0
8
IV_MARK_SURFACE_BACK
62
256
6
ByLayer
370
-1
48
1.0
60
0
100
AcDbLine
10
319.348186115438
20
28.526585007013
30
0.0
11
316.637074940749
21
28.5265850070136
31
0.0
39
0.0
210
0.0
220
0.0
230
1.0
0
LINE
5
102
330
70
100
AcDbEntity
67
0
8
IV_MARK_SURFACE_BACK
62
256
6
ByLayer
370
-1
48
1.0
60
0
100
AcDbLine
10
316.637074940749
20
28.5265850070136
30
0.0
11
319.009297218601
21
24.7988071418151
31
0.0
39
0.0
210
0.0
220
0.0
230
1.0
0
ARC
5
103
330
70
100
AcDbEntity
67
0
8
IV_MARK_SURFACE_BACK
62
256
6
ByLayer
370
-1
48
1.0
60
0
100
AcDbCircle
39
0.0
10
317.523896483854
20
23.7073180523519
30
0.0
40
1.84330241013347
210
0.0
220
0.0
230
1.0
100
AcDbArc
50
351.763624605551
51
36.3088623302774
0
ARC
5
104
330
70
100
AcDbEntity
67
0
8
IV_MARK_SURFACE_BACK
62
256
6
ByLayer
370
-1
48
1.0
60
0
100
AcDbCircle
39
0.0
10
317.992630528092
20
23.8423343100652
30
0.0
40
1.41308102959256
210
0.0
220
0.0
230
1.0
100
AcDbArc
50
196.404708489239
51
343.595291510736
0
ARC
5
105
330
70
100
AcDbEntity
67
0
8
IV_MARK_SURFACE_BACK
62
256
6
ByLayer
370
-1
48
1.0
60
0
100
AcDbCircle
39
0.0
10
310.66358510867
20
25.6202689014404
30
0.0
40
3.5208148287279
210
0.0
220
0.0
230
1.0
100
AcDbArc
50
176.821713949423
51
245.105799114699
0
LINE
5
106
330
70
100
AcDbEntity
67
0
8
IV_MARK_SURFACE_BACK
62
256
6
ByLayer
370
-1
48
1.0
60
0
100
AcDbLine
10
307.148185829335
20
25.8154738323262
30
0.0
11
307.148185829336
21
27.1710294196709
31
0.0
39
0.0
210
0.0
220
0.0
230
1.0
0
ARC
5
107
330
70
100
AcDbEntity
67
0
8
IV_MARK_SURFACE_BACK
62
256
6
ByLayer
370
-1
48
1.0
60
0
100
AcDbCircle
39
0.0
10
308.50374141668
20
27.1710294196706
30
0.0
40
1.3555555873447
210
0.0
220
0.0
230
1.0
100
AcDbArc
50
359.999999999988
51
179.999999999988
0
LINE
5
108
330
70
100
AcDbEntity
67
0
8
IV_MARK_SURFACE_BACK
62
256
6
ByLayer
370
-1
48
1.0
60
0
100
AcDbLine
10
309.859297004025
20
27.1710294196703
30
0.0
11
309.859297004025
21
26.493251625998
31
0.0
39
0.0
210
0.0
220
0.0
230
1.0
0
ARC
5
109
330
70
100
AcDbEntity
67
0
8
IV_MARK_SURFACE_BACK
62
256
6
ByLayer
370
-1
48
1.0
60
0
100
AcDbCircle
39
0.0
10
308.50374141668
20
26.4932516259983
30
0.0
40
1.3555555873447
210
0.0
220
0.0
230
1.0
100
AcDbArc
50
270.0
51
359.999999999988
0
LINE
5
10A
330
70
100
AcDbEntity
67
0
8
IV_MARK_SURFACE_BACK
62
256
6
ByLayer
370
-1
48
1.0
60
0
100
AcDbLine
10
308.50374141668
20
25.1376960386536
30
0.0
11
307.487074726171
21
25.1376960386538
31
0.0
39
0.0
210
0.0
220
0.0
230
1.0
0
ARC
5
10B
330
70
100
AcDbEntity
67
0
8
IV_MARK_SURFACE_BACK
62
256
6
ByLayer
370
-1
48
1.0
60
0
100
AcDbCircle
39
0.0
10
292.481341215917
20
26.2885840796448
30
0.0
40
2.27960081845226
210
0.0
220
0.0
230
1.0
100
AcDbArc
50
79.0373136116437
51
123.582551336371
0
ARC
5
10C
330
70
100
AcDbEntity
67
0
8
IV_MARK_SURFACE_BACK
62
256
6
ByLayer
370
-1
48
1.0
60
0
100
AcDbCircle
39
0.0
10
292.854658303458
20
27.0712587307754
30
0.0
40
1.45657058564167
210
0.0
220
0.0
230
1.0
100
AcDbArc
50
300.440951957165
51
87.6315349786614
0
LINE
5
10D
330
70
100
AcDbEntity
67
0
8
IV_MARK_SURFACE_BACK
62
256
6
ByLayer
370
-1
48
1.0
60
0
100
AcDbLine
10
293.592629955888
20
25.8154738323292
30
0.0
11
291.898185471707
21
24.798807141821
31
0.0
39
0.0
210
0.0
220
0.0
230
1.0
0
ARC
5
10E
330
70
100
AcDbEntity
67
0
8
IV_MARK_SURFACE_BACK
62
256
6
ByLayer
370
-1
48
1.0
60
0
100
AcDbCircle
39
0.0
10
292.586795227316
20
23.6391314173078
30
0.0
40
1.34871464051702
210
0.0
220
0.0
230
1.0
100
AcDbArc
50
120.701632760325
51
220.373722823601
0
ARC
5
10F
330
70
100
AcDbEntity
67
0
8
IV_MARK_SURFACE_BACK
62
256
6
ByLayer
370
-1
48
1.0
60
0
100
AcDbCircle
39
0.0
10
292.914852162216
20
25.2846257227675
30
0.0
40
2.86070927531049
210
0.0
220
0.0
230
1.0
100
AcDbArc
50
241.715306715923
51
298.284693284054
0
LINE
5
110
330
70
100
AcDbEntity
67
0
8
IV_MARK_SURFACE_BACK
62
256
6
ByLayer
370
-1
48
1.0
60
0
100
AcDbLine
10
285.120407534985
20
28.5265850070204
30
0.0
11
285.120407534983
21
22.4265848639692
31
0.0
39
0.0
210
0.0
220
0.0
230
1.0
0
LINE
5
111
330
70
100
AcDbEntity
67
0
8
IV_MARK_SURFACE_BACK
62
256
6
ByLayer
370
-1
48
1.0
60
0
100
AcDbLine
10
285.120407534983
20
22.4265848639692
30
0.0
11
287.153740916001
21
25.8154738323306
31
0.0
39
0.0
210
0.0
220
0.0
230
1.0
0
LINE
5
112
330
70
100
AcDbEntity
67
0
8
IV_MARK_SURFACE_BACK
62
256
6
ByLayer
370
-1
48
1.0
60
0
100
AcDbLine
10
287.153740916001
20
25.8154738323306
30
0.0
11
289.187074297017
21
22.4265848639684
31
0.0
39
0.0
210
0.0
220
0.0
230
1.0
0
LINE
5
113
330
70
100
AcDbEntity
67
0
8
IV_MARK_SURFACE_BACK
62
256
6
ByLayer
370
-1
48
1.0
60
0
100
AcDbLine
10
289.187074297017
20
22.4265848639684
30
0.0
11
289.187074297019
21
28.5265850070195
31
0.0
39
0.0
210
0.0
220
0.0
230
1.0
0
LINE
5
114
330
70
100
AcDbEntity
67
0
8
IV_MARK_SURFACE_BACK
62
256
6
ByLayer
370
-1
48
1.0
60
0
100
AcDbLine
10
299.014852305268
20
28.5265850070174
30
0.0
11
297.659296717923
21
28.5265850070177
31
0.0
39
0.0
210
0.0
220
0.0
230
1.0
0
ARC
5
115
330
70
100
AcDbEntity
67
0
8
IV_MARK_SURFACE_BACK
62
256
6
ByLayer
370
-1
48
1.0
60
0
100
AcDbCircle
39
0.0
10
297.659296717923
20
27.171029419673
30
0.0
40
1.3555555873447
210
0.0
220
0.0
230
1.0
100
AcDbArc
50
90.0
51
179.999999999988
0
LINE
5
116
330
70
100
AcDbEntity
67
0
8
IV_MARK_SURFACE_BACK
62
256
6
ByLayer
370
-1
48
1.0
60
0
100
AcDbLine
10
296.303741130578
20
27.1710294196733
30
0.0
11
296.303741130577
21
23.7821404513115
31
0.0
39
0.0
210
0.0
220
0.0
230
1.0
0
ARC
5
117
330
70
100
AcDbEntity
67
0
8
IV_MARK_SURFACE_BACK
62
256
6
ByLayer
370
-1
48
1.0
60
0
100
AcDbCircle
39
0.0
10
297.659296717922
20
23.7821404513112
30
0.0
40
1.3555555873447
210
0.0
220
0.0
230
1.0
100
AcDbArc
50
179.999999999988
51
270.0
0
LINE
5
118
330
70
100
AcDbEntity
67
0
8
IV_MARK_SURFACE_BACK
62
256
6
ByLayer
370
-1
48
1.0
60
0
100
AcDbLine
10
297.659296717922
20
22.4265848639665
30
0.0
11
299.014852305267
21
22.4265848639662
31
0.0
39
0.0
210
0.0
220
0.0
230
1.0
0
LINE
5
119
330
70
100
AcDbEntity
67
0
8
IV_MARK_SURFACE_BACK
62
256
6
ByLayer
370
-1
48
1.0
60
0
100
AcDbLine
10
332.903741988885
20
28.52658500701
30
0.0
11
332.903741988884
21
24.4599182449759
31
0.0
39
0.0
210
0.0
220
0.0
230
1.0
0
LINE
5
11A
330
70
100
AcDbEntity
67
0
8
IV_MARK_SURFACE_BACK
62
256
6
ByLayer
370
-1
48
1.0
60
0
100
AcDbLine
10
332.225964195212
20
24.4599182449761
30
0.0
11
332.903741988884
21
24.4599182449759
31
0.0
39
0.0
210
0.0
220
0.0
230
1.0
0
LINE
5
11B
330
70
100
AcDbEntity
67
0
8
IV_MARK_SURFACE_BACK
62
256
6
ByLayer
370
-1
48
1.0
60
0
100
AcDbLine
10
332.903741988884
20
24.4599182449759
30
0.0
11
332.903741988884
21
22.4265848639589
31
0.0
39
0.0
210
0.0
220
0.0
230
1.0
0
LINE
5
11C
330
70
100
AcDbEntity
67
0
8
IV_MARK_SURFACE_BACK
62
256
6
ByLayer
370
-1
48
1.0
60
0
100
AcDbLine
10
332.903741988884
20
24.4599182449759
30
0.0
11
334.259297576229
21
24.4599182449757
31
0.0
39
0.0
210
0.0
220
0.0
230
1.0
0
LINE
5
11D
330
70
100
AcDbEntity
67
0
8
IV_MARK_SURFACE_BACK
62
256
6
ByLayer
370
-1
48
1.0
60
0
100
AcDbLine
10
340.528742167699
20
28.5265850070084
30
0.0
11
340.528742167698
21
24.4599182449743
31
0.0
39
0.0
210
0.0
220
0.0
230
1.0
0
LINE
5
11E
330
70
100
AcDbEntity
67
0
8
IV_MARK_SURFACE_BACK
62
256
6
ByLayer
370
-1
48
1.0
60
0
100
AcDbLine
10
369.164853950355
20
28.5265850070022
30
0.0
11
368.148187259847
21
28.5265850070024
31
0.0
39
0.0
210
0.0
220
0.0
230
1.0
0
ARC
5
11F
330
70
100
AcDbEntity
67
0
8
IV_MARK_SURFACE_BACK
62
256
6
ByLayer
370
-1
48
1.0
60
0
100
AcDbCircle
39
0.0
10
368.148187259847
20
27.5099183164939
30
0.0
40
1.01666669050852
210
0.0
220
0.0
230
1.0
100
AcDbArc
50
90.0
51
179.999999999987
0
LINE
5
120
330
70
100
AcDbEntity
67
0
8
IV_MARK_SURFACE_BACK
62
256
6
ByLayer
370
-1
48
1.0
60
0
100
AcDbLine
10
367.131520569338
20
27.5099183164941
30
0.0
11
367.131520569338
21
25.476584935477
31
0.0
39
0.0
210
0.0
220
0.0
230
1.0
0
ARC
5
121
330
70
100
AcDbEntity
67
0
8
IV_MARK_SURFACE_BACK
62
256
6
ByLayer
370
-1
48
1.0
60
0
100
AcDbCircle
39
0.0
10
368.148187259846
20
25.4765849354768
30
0.0
40
1.01666669050852
210
0.0
220
0.0
230
1.0
100
AcDbArc
50
179.999999999988
51
270.0
0
LINE
5
122
330
70
100
AcDbEntity
67
0
8
IV_MARK_SURFACE_BACK
62
256
6
ByLayer
370
-1
48
1.0
60
0
100
AcDbLine
10
368.148187259846
20
24.4599182449683
30
0.0
11
369.164853950355
21
24.4599182449681
31
0.0
39
0.0
210
0.0
220
0.0
230
1.0
0
LINE
5
123
330
70
100
AcDbEntity
67
0
8
IV_MARK_SURFACE_BACK
62
256
6
ByLayer
370
-1
48
1.0
60
0
100
AcDbLine
10
404.070410324481
20
28.5265850069946
30
0.0
11
404.07041032448
21
24.4599182449605
31
0.0
39
0.0
210
0.0
220
0.0
230
1.0
0
LINE
5
124
330
70
100
AcDbEntity
67
0
8
IV_MARK_SURFACE_BACK
62
256
6
ByLayer
370
-1
48
1.0
60
0
100
AcDbLine
10
403.392632530808
20
24.4599182449607
30
0.0
11
404.07041032448
21
24.4599182449605
31
0.0
39
0.0
210
0.0
220
0.0
230
1.0
0
LINE
5
125
330
70
100
AcDbEntity
67
0
8
IV_MARK_SURFACE_BACK
62
256
6
ByLayer
370
-1
48
1.0
60
0
100
AcDbLine
10
404.07041032448
20
24.4599182449605
30
0.0
11
404.07041032448
21
22.4265848639435
31
0.0
39
0.0
210
0.0
220
0.0
230
1.0
0
LINE
5
126
330
70
100
AcDbEntity
67
0
8
IV_MARK_SURFACE_BACK
62
256
6
ByLayer
370
-1
48
1.0
60
0
100
AcDbLine
10
404.07041032448
20
24.4599182449605
30
0.0
11
405.425965911825
21
24.4599182449602
31
0.0
39
0.0
210
0.0
220
0.0
230
1.0
0
LINE
5
127
330
70
100
AcDbEntity
67
0
8
IV_MARK_SURFACE_BACK
62
256
6
ByLayer
370
-1
48
1.0
60
0
100
AcDbLine
10
421.01485516629
20
27.5099183164824
30
0.0
11
421.01485516629
21
27.8488072133186
31
0.0
39
0.0
210
0.0
220
0.0
230
1.0
0
ARC
5
128
330
70
100
AcDbEntity
67
0
8
IV_MARK_SURFACE_BACK
62
256
6
ByLayer
370
-1
48
1.0
60
0
100
AcDbCircle
39
0.0
10
421.692632959962
20
27.8488072133185
30
0.0
40
0.67777779367235
210
0.0
220
0.0
230
1.0
100
AcDbArc
50
90.0
51
179.999999999988
0
LINE
5
129
330
70
100
AcDbEntity
67
0
8
IV_MARK_SURFACE_BACK
62
256
6
ByLayer
370
-1
48
1.0
60
0
100
AcDbLine
10
425.759299721996
20
28.5265850069899
30
0.0
11
424.742633031488
21
28.5265850069901
31
0.0
39
0.0
210
0.0
220
0.0
230
1.0
0
ARC
5
12A
330
70
100
AcDbEntity
67
0
8
IV_MARK_SURFACE_BACK
62
256
6
ByLayer
370
-1
48
1.0
60
0
100
AcDbCircle
39
0.0
10
424.742633031487
20
27.5099183164816
30
0.0
40
1.01666669050852
210
0.0
220
0.0
230
1.0
100
AcDbArc
50
90.0
51
179.999999999987
0
LINE
5
12B
330
70
100
AcDbEntity
67
0
8
IV_MARK_SURFACE_BACK
62
256
6
ByLayer
370
-1
48
1.0
60
0
100
AcDbLine
10
423.725966340979
20
27.5099183164818
30
0.0
11
423.725966340978
21
25.4765849354648
31
0.0
39
0.0
210
0.0
220
0.0
230
1.0
0
ARC
5
12C
330
70
100
AcDbEntity
67
0
8
IV_MARK_SURFACE_BACK
62
256
6
ByLayer
370
-1
48
1.0
60
0
100
AcDbCircle
39
0.0
10
424.742633031487
20
25.4765849354646
30
0.0
40
1.01666669050852
210
0.0
220
0.0
230
1.0
100
AcDbArc
50
179.999999999988
51
270.0
0
LINE
5
12D
330
70
100
AcDbEntity
67
0
8
IV_MARK_SURFACE_BACK
62
256
6
ByLayer
370
-1
48
1.0
60
0
100
AcDbLine
10
424.742633031487
20
24.459918244956
30
0.0
11
425.759299721995
21
24.4599182449558
31
0.0
39
0.0
210
0.0
220
0.0
230
1.0
0
LINE
5
12E
330
70
100
AcDbEntity
67
0
8
IV_MARK_SURFACE_BACK
62
256
6
ByLayer
370
-1
48
1.0
60
0
100
AcDbLine
10
428.809299793521
20
25.8154738322999
30
0.0
11
430.503744277702
21
28.5265850069889
31
0.0
39
0.0
210
0.0
220
0.0
230
1.0
0
LINE
5
12F
330
70
100
AcDbEntity
67
0
8
IV_OUTER_PROFILE
62
256
6
ByLayer
370
-1
48
1.0
60
0
100
AcDbLine
10
832.082215293049
20
50.5771126804883
30
0.0
11
832.082215293049
21
24.5771126804883
31
0.0
39
0.0
210
0.0
220
0.0
230
1.0
0
LINE
5
130
330
70
100
AcDbEntity
67
0
8
IV_OUTER_PROFILE
62
256
6
ByLayer
370
-1
48
1.0
60
0
100
AcDbLine
10
829.082215293049
20
24.5771126804883
30
0.0
11
829.082215293049
21
50.5771126804883
31
0.0
39
0.0
210
0.0
220
0.0
230
1.0
0
LINE
5
131
330
70
100
AcDbEntity
67
0
8
IV_OUTER_PROFILE
62
256
6
ByLayer
370
-1
48
1.0
60
0
100
AcDbLine
10
832.082215293049
20
24.5771126804883
30
0.0
11
829.082215293049
21
24.5771126804883
31
0.0
39
0.0
210
0.0
220
0.0
230
1.0
0
LINE
5
132
330
70
100
AcDbEntity
67
0
8
IV_OUTER_PROFILE
62
256
6
ByLayer
370
-1
48
1.0
60
0
100
AcDbLine
10
509.082215293049
20
50.5771126804883
30
0.0
11
509.082215293049
21
24.5771126804883
31
0.0
39
0.0
210
0.0
220
0.0
230
1.0
0
LINE
5
133
330
70
100
AcDbEntity
67
0
8
IV_OUTER_PROFILE
62
256
6
ByLayer
370
-1
48
1.0
60
0
100
AcDbLine
10
506.082215293048
20
24.5771126804883
30
0.0
11
506.082215293048
21
50.5771126804883
31
0.0
39
0.0
210
0.0
220
0.0
230
1.0
0
LINE
5
134
330
70
100
AcDbEntity
67
0
8
IV_OUTER_PROFILE
62
256
6
ByLayer
370
-1
48
1.0
60
0
100
AcDbLine
10
509.082215293049
20
24.5771126804883
30
0.0
11
506.082215293048
21
24.5771126804883
31
0.0
39
0.0
210
0.0
220
0.0
230
1.0
0
LINE
5
135
330
70
100
AcDbEntity
67
0
8
IV_OUTER_PROFILE
62
256
6
ByLayer
370
-1
48
1.0
60
0
100
AcDbLine
10
509.082215293049
20
50.5771126804883
30
0.0
11
829.082215293049
21
50.5771126804883
31
0.0
39
0.0
210
0.0
220
0.0
230
1.0
0
LINE
5
136
330
70
100
AcDbEntity
67
0
8
IV_OUTER_PROFILE
62
256
6
ByLayer
370
-1
48
1.0
60
0
100
AcDbLine
10
186.082215293049
20
50.5771126804883
30
0.0
11
506.082215293048
21
50.5771126804883
31
0.0
39
0.0
210
0.0
220
0.0
230
1.0
0
LINE
5
137
330
70
100
AcDbEntity
67
0
8
IV_OUTER_PROFILE
62
256
6
ByLayer
370
-1
48
1.0
60
0
100
AcDbLine
10
186.082215293049
20
50.5771126804883
30
0.0
11
186.082215293049
21
24.5771126804883
31
0.0
39
0.0
210
0.0
220
0.0
230
1.0
0
LINE
5
138
330
70
100
AcDbEntity
67
0
8
IV_OUTER_PROFILE
62
256
6
ByLayer
370
-1
48
1.0
60
0
100
AcDbLine
10
186.082215293049
20
24.5771126804883
30
0.0
11
183.082215293049
21
24.5771126804883
31
0.0
39
0.0
210
0.0
220
0.0
230
1.0
0
LINE
5
139
330
70
100
AcDbEntity
67
0
8
IV_OUTER_PROFILE
62
256
6
ByLayer
370
-1
48
1.0
60
0
100
AcDbLine
10
183.082215293049
20
24.5771126804883
30
0.0
11
183.082215293049
21
50.5771126804883
31
0.0
39
0.0
210
0.0
220
0.0
230
1.0
0
LINE
5
13A
330
70
100
AcDbEntity
67
0
8
IV_OUTER_PROFILE
62
256
6
ByLayer
370
-1
48
1.0
60
0
100
AcDbLine
10
0.582215293048565
20
50.5771126804883
30
0.0
11
183.082215293049
21
50.5771126804883
31
0.0
39
0.0
210
0.0
220
0.0
230
1.0
0
LINE
5
13B
330
70
100
AcDbEntity
67
0
8
IV_OUTER_PROFILE
62
256
6
ByLayer
370
-1
48
1.0
60
0
100
AcDbLine
10
0.0000001397941407
20
48.8010731440906
30
0.0
11
0.582215293048565
21
50.5771126804883
31
0.0
39
0.0
210
0.0
220
0.0
230
1.0
0
LINE
5
13C
330
70
100
AcDbEntity
67
0
8
IV_OUTER_PROFILE
62
256
6
ByLayer
370
-1
48
1.0
60
0
100
AcDbLine
10
64.063787334287
20
1.74154298699727
30
0.0
11
0.0000001397941407
21
48.8010731440906
31
0.0
39
0.0
210
0.0
220
0.0
230
1.0
0
ARC
5
13D
330
70
100
AcDbEntity
67
0
8
IV_OUTER_PROFILE
62
256
6
ByLayer
370
-1
48
1.0
60
0
100
AcDbCircle
39
0.0
10
67.6158664070823
20
6.57711268048829
30
0.0
40
6.0
210
0.0
220
0.0
230
1.0
100
AcDbArc
50
233.7
51
270.0
0
LINE
5
13E
330
70
100
AcDbEntity
67
0
8
IV_OUTER_PROFILE
62
256
6
ByLayer
370
-1
48
1.0
60
0
100
AcDbLine
10
1147.81617087809
20
0.577112680488254
30
0.0
11
67.6158664070823
21
0.577112680488289
31
0.0
39
0.0
210
0.0
220
0.0
230
1.0
0
ARC
5
13F
330
70
100
AcDbEntity
67
0
8
IV_OUTER_PROFILE
62
256
6
ByLayer
370
-1
48
1.0
60
0
100
AcDbCircle
39
0.0
10
1147.81617087809
20
6.57711268048826
30
0.0
40
6.0
210
0.0
220
0.0
230
1.0
100
AcDbArc
50
270.0
51
323.7
0
LINE
5
140
330
70
100
AcDbEntity
67
0
8
IV_OUTER_PROFILE
62
256
6
ByLayer
370
-1
48
1.0
60
0
100
AcDbLine
10
1185.80617575665
20
48.1593278337427
30
0.0
11
1152.65174057158
21
3.02503360769293
31
0.0
39
0.0
210
0.0
220
0.0
230
1.0
0
LINE
5
141
330
70
100
AcDbEntity
67
0
8
IV_OUTER_PROFILE
62
256
6
ByLayer
370
-1
48
1.0
60
0
100
AcDbLine
10
1184.58221529305
20
50.5771126804883
30
0.0
11
1185.80617575665
21
48.1593278337427
31
0.0
39
0.0
210
0.0
220
0.0
230
1.0
0
LINE
5
142
330
70
100
AcDbEntity
67
0
8
IV_OUTER_PROFILE
62
256
6
ByLayer
370
-1
48
1.0
60
0
100
AcDbLine
10
832.082215293049
20
50.5771126804883
30
0.0
11
1184.58221529305
21
50.5771126804883
31
0.0
39
0.0
210
0.0
220
0.0
230
1.0
0
POINT
5
1A6
330
70
100
AcDbEntity
67
0
8
AutoDXF_SmallHoles_Points
62
256
6
ByLayer
370
-1
48
1.0
60
0
100
AcDbPoint
10
340.528742167697
20
22.5960293123753
30
0.0
39
0.0
210
0.0
220
0.0
230
1.0
50
360.0
0
POINT
5
1A8
330
70
100
AcDbEntity
67
0
8
AutoDXF_SmallHoles_Points
62
256
6
ByLayer
370
-1
48
1.0
60
0
100
AcDbPoint
10
401.189854701372
20
22.5960293123622
30
0.0
39
0.0
210
0.0
220
0.0
230
1.0
50
360.0
0
ENDSEC
0
SECTION
2
OBJECTS
0
DICTIONARY
5
1AD
330
0
100
AcDbDictionary
280
1
281
1
3
ACAD_GROUP
350
D
3
ACAD_LAYOUT
350
62
3
ACAD_DGNDEFINITIONS
350
19F
3
ACAD_DWFDEFINITIONS
350
1A0
3
ACAD_PDFDEFINITIONS
350
1A1
3
ACAD_MLINESTYLE
350
5F
3
ACAD_IMAGE_DICT
350
19E
3
ACAD_IMAGE_VARS
350
1A2
0
DICTIONARY
5
D
330
1AD
100
AcDbDictionary
280
1
281
1
0
DICTIONARY
5
62
330
1AD
100
AcDbDictionary
280
1
281
1
3
Layout1
350
6F
3
Layout2
350
77
3
Model
350
73
0
DICTIONARY
5
19F
330
1AD
100
AcDbDictionary
280
1
281
1
0
DICTIONARY
5
1A0
330
1AD
100
AcDbDictionary
280
1
281
1
0
DICTIONARY
5
1A1
330
1AD
100
AcDbDictionary
280
1
281
1
0
DICTIONARY
5
5F
330
1AD
100
AcDbDictionary
280
1
281
1
3
STANDARD
350
60
0
DICTIONARY
5
19E
330
1AD
100
AcDbDictionary
280
1
281
1
0
DICTIONARY
5
19C
330
2
100
AcDbDictionary
280
1
281
1
3
ACAD_LAYERSTATES
360
1AE
0
DICTIONARY
5
1AE
330
19C
100
AcDbDictionary
280
1
281
1
0
LAYOUT
5
6F
330
62
100
AcDbPlotSettings
1

2

4

6

40
0.0
41
0.0
42
0.0
43
0.0
44
0.0
45
0.0
46
0.0
47
0.0
48
0.0
49
0.0
140
0.0
141
0.0
142
1.0
143
1.0
70
688
72
0
73
0
74
5
7

75
16
76
0
77
2
78
300
147
1.0
148
0.0
149
0.0
100
AcDbLayout
1
Layout1
71
1
10
0.0
20
0.0
11
12.0
21
9.0
12
0.0
22
0.0
32
0.0
14
0.0
24
0.0
34
0.0
15
0.0
25
0.0
35
0.0
146
0.0
13
0.0
23
0.0
33
0.0
16
1.0
26
0.0
36
0.0
17
0.0
27
1.0
37
0.0
76
0
330
6C
0
LAYOUT
5
77
330
62
100
AcDbPlotSettings
1

2

4

6

40
0.0
41
0.0
42
0.0
43
0.0
44
0.0
45
0.0
46
0.0
47
0.0
48
0.0
49
0.0
140
0.0
141
0.0
142
1.0
143
1.0
70
688
72
0
73
0
74
5
7

75
16
76
0
77
2
78
300
147
1.0
148
0.0
149
0.0
100
AcDbLayout
1
Layout2
71
2
10
0.0
20
0.0
11
12.0
21
9.0
12
0.0
22
0.0
32
0.0
14
0.0
24
0.0
34
0.0
15
0.0
25
0.0
35
0.0
146
0.0
13
0.0
23
0.0
33
0.0
16
1.0
26
0.0
36
0.0
17
0.0
27
1.0
37
0.0
76
0
330
74
0
LAYOUT
5
73
330
62
100
AcDbPlotSettings
1

2

4

6

40
0.0
41
0.0
42
0.0
43
0.0
44
0.0
45
0.0
46
0.0
47
0.0
48
0.0
49
0.0
140
0.0
141
0.0
142
1.0
143
1.0
70
1712
72
0
73
0
74
0
7

75
0
76
0
77
2
78
300
147
1.0
148
0.0
149
0.0
100
AcDbLayout
1
Model
71
3
10
0.0
20
0.0
11
12.0
21
9.0
12
0.0
22
0.0
32
0.0
14
0.0
24
0.0
34
0.0
15
0.0
25
0.0
35
0.0
146
0.0
13
0.0
23
0.0
33
0.0
16
1.0
26
0.0
36
0.0
17
0.0
27
1.0
37
0.0
76
0
330
70
0
MLINESTYLE
5
60
330
5F
100
AcDbMlineStyle
2
STANDARD
70
0
3

62
256
51
90.0
52
90.0
71
2
49
0.5
62
256
6
ByLayer
49
-0.5
62
256
6
ByLayer
0
RASTERVARIABLES
5
1A2
330
19E
100
AcDbRasterVariables
90
0
70
1
71
1
72
0
0
ENDSEC
0
EOF
