999
autodxfXMIN:0,61704530516566
999
autodxfXMAX:120,03734305704991
999
autodxfYMIN:1,408832073E-07
999
autodxfYMAX:55,20199080714868
0
SECTION
2
HEADER
9
$ACADVER
1
AC1015
9
$DWGCODEPAGE
3
ANSI_1251
9
$HANDSEED
5
16F
9
$ANGBASE
50
0.0
9
$ANGDIR
70
0
9
$ATTMODE
70
1
9
$AUNITS
70
0
9
$AUPREC
70
0
9
$CECOLOR
62
256
9
$CELTSCALE
40
1.0
9
$CELTYPE
6
ByLayer
9
$CELWEIGHT
370
-1
9
$CLAYER
8
0
9
$CMLJUST
70
0
9
$CMLSCALE
40
1.0
9
$CMLSTYLE
2
Standard
9
$DIMSTYLE
2
Standard
9
$TEXTSIZE
40
0.2
9
$TEXTSTYLE
7
Standard
9
$LUNITS
70
2
9
$LUPREC
70
4
9
$MIRRTEXT
70
0
9
$EXTNAMES
290
1
9
$INSBASE
10
0.0
20
0.0
30
0.0
9
$INSUNITS
70
4
9
$LTSCALE
40
1.0
9
$LWDISPLAY
290
0
9
$PDMODE
70
0
9
$PDSIZE
40
0.0
9
$PLINEGEN
70
0
9
$PSLTSCALE
70
1
9
$SPLINESEGS
70
6
9
$SURFU
70
6
9
$SURFV
70
6
9
$TDCREATE
40
2460567.59587963
9
$TDUCREATE
40
2460567.47087963
9
$TDUPDATE
40
2460567.59587963
9
$TDUUPDATE
40
2460567.47087963
9
$TDINDWG
40
0.0
9
$UCSORG
10
0.0
20
0.0
30
0.0
9
$UCSXDIR
10
1.0
20
0.0
30
0.0
9
$UCSYDIR
10
0.0
20
1.0
30
0.0
9
$DIMADEC
70
0
9
$DIMALT
70
0
9
$DIMALTD
70
2
9
$DIMALTF
40
25.4
9
$DIMALTRND
40
0.0
9
$DIMALTTD
70
2
9
$DIMALTTZ
70
0
9
$DIMALTU
70
2
9
$DIMALTZ
70
0
9
$DIMAPOST
1

9
$DIMATFIT
70
3
9
$DIMAUNIT
70
0
9
$DIMASZ
40
0.18
9
$DIMAZIN
70
3
9
$DIMSAH
70
0
9
$DIMBLK
1

9
$DIMLDRBLK
1

9
$DIMCEN
40
0.09
9
$DIMCLRD
70
0
9
$DIMCLRE
70
0
9
$DIMCLRT
70
0
9
$DIMDEC
70
4
9
$DIMDLE
40
0.0
9
$DIMDLI
40
0.38
9
$DIMDSEP
70
46
9
$DIMEXE
40
0.18
9
$DIMEXO
40
0.0625
9
$DIMFXLON
70
0
9
$DIMFXL
40
1.0
9
$DIMGAP
40
0.09
9
$DIMJUST
70
0
9
$DIMLFAC
40
1.0
9
$DIMLUNIT
70
2
9
$DIMLWD
70
-2
9
$DIMLWE
70
-2
9
$DIMPOST
1

9
$DIMRND
40
0.0
9
$DIMSCALE
40
1.0
9
$DIMSD1
70
0
9
$DIMSD2
70
0
9
$DIMSE1
70
0
9
$DIMSE2
70
0
9
$DIMSOXD
70
0
9
$DIMTAD
70
0
9
$DIMTDEC
70
4
9
$DIMTFAC
40
1.0
9
$DIMTIH
70
0
9
$DIMTIX
70
0
9
$DIMTM
40
0.0
9
$DIMTMOVE
70
0
9
$DIMTOFL
70
0
9
$DIMTOH
70
0
9
$DIMTOL
70
0
9
$DIMLIM
70
0
9
$DIMTOLJ
70
1
9
$DIMTP
40
0.0
9
$DIMTXT
40
0.18
9
$DIMTXTDIRECTION
70
0
9
$DIMTZIN
70
0
9
$DIMZIN
70
0
9
$DIMFRAC
70
0
9
$DIMLTYPE
6
ByBlock
9
$DIMLTEX1
6
ByBlock
9
$DIMLTEX2
6
ByBlock
9
$EXTMIN
10
0.0
20
0.0
30
0.0
9
$EXTMAX
10
192.25978229236
20
304.440435193187
30
0.0
9
$LIMMIN
10
0.0
20
0.0
9
$LIMMAX
10
192.25978229236
20
304.440435193187
9
$ORTHOMODE
70
0
9
$REGENMODE
70
1
9
$FILLMODE
70
1
9
$QTEXTMODE
70
0
9
$TRACEWID
40
0.05
9
$DISPSILH
70
0
9
$SKETCHINC
40
0.1
9
$FILLETRAD
40
0.0
9
$MENU
1
.
9
$ELEVATION
40
0.0
9
$PELEVATION
40
0.0
9
$THICKNESS
40
0.0
9
$LIMCHECK
70
0
9
$CHAMFERA
40
0.0
9
$CHAMFERB
40
0.0
9
$CHAMFERC
40
0.0
9
$CHAMFERD
40
0.0
9
$SKPOLY
70
0
9
$TDUSRTIMER
40
0.0
9
$USRTIMER
70
1
9
$PLINEWID
40
0.0
9
$SPLFRAME
70
0
9
$SPLINETYPE
70
6
9
$SURFTAB1
70
6
9
$SURFTAB2
70
6
9
$SURFTYPE
70
6
9
$UCSBASE
2

9
$UCSNAME
2

9
$UCSORTHOREF
2

9
$UCSORTHOVIEW
70
0
9
$UCSORGTOP
10
0.0
20
0.0
30
0.0
9
$UCSORGBOTTOM
10
0.0
20
0.0
30
0.0
9
$UCSORGLEFT
10
0.0
20
0.0
30
0.0
9
$UCSORGRIGHT
10
0.0
20
0.0
30
0.0
9
$UCSORGFRONT
10
0.0
20
0.0
30
0.0
9
$UCSORGBACK
10
0.0
20
0.0
30
0.0
9
$PUCSBASE
2

9
$PUCSNAME
2

9
$PUCSORG
10
0.0
20
0.0
30
0.0
9
$PUCSXDIR
10
1.0
20
0.0
30
0.0
9
$PUCSYDIR
10
0.0
20
1.0
30
0.0
9
$PUCSORTHOREF
2

9
$PUCSORTHOVIEW
70
0
9
$PUCSORGTOP
10
0.0
20
0.0
30
0.0
9
$PUCSORGBOTTOM
10
0.0
20
0.0
30
0.0
9
$PUCSORGLEFT
10
0.0
20
0.0
30
0.0
9
$PUCSORGRIGHT
10
0.0
20
0.0
30
0.0
9
$PUCSORGFRONT
10
0.0
20
0.0
30
0.0
9
$PUCSORGBACK
10
0.0
20
0.0
30
0.0
9
$USERI1
70
0
9
$USERI2
70
0
9
$USERI3
70
0
9
$USERI4
70
0
9
$USERI5
70
0
9
$USERR1
40
0.0
9
$USERR2
40
0.0
9
$USERR3
40
0.0
9
$USERR4
40
0.0
9
$USERR5
40
0.0
9
$WORLDVIEW
70
1
9
$SHADEDGE
70
3
9
$SHADEDIF
70
70
9
$TILEMODE
70
1
9
$MAXACTVP
70
64
9
$PINSBASE
10
0.0
20
0.0
30
0.0
9
$PLIMCHECK
70
0
9
$PEXTMIN
10
0.0
20
0.0
30
0.0
9
$PEXTMAX
10
192.25978229236
20
304.440435193187
30
0.0
9
$PLIMMIN
10
0.0
20
0.0
9
$PLIMMAX
10
192.25978229236
20
304.440435193187
9
$UNITMODE
70
0
9
$VISRETAIN
70
1
9
$TREEDEPTH
70
3020
9
$PROXYGRAPHICS
70
1
9
$MEASUREMENT
70
1
9
$ENDCAPS
280
0
9
$JOINSTYLE
280
0
9
$HYPERLINKBASE
1

9
$STYLESHEET
1

9
$XEDIT
290
1
9
$CEPSNTYPE
380
0
9
$PSTYLEMODE
290
1
9
$FINGERPRINTGUID
2
{1FACC13B-EB70-5346-9574-AB8F155D3DCC}
9
$VERSIONGUID
2
{E15E1D7E-87B1-EE4E-9105-843D1EF68579}
9
$PSVPSCALE
40
0.0
9
$OLESTARTUP
290
0
0
ENDSEC
0
SECTION
2
CLASSES
0
CLASS
1
RASTERVARIABLES
2
AcDbRasterVariables
3
ISM
90
0
280
0
281
0
0
ENDSEC
0
SECTION
2
TABLES
0
TABLE
2
APPID
5
9
330
0
100
AcDbSymbolTable
70
7
0
APPID
5
56
330
9
100
AcDbSymbolTableRecord
100
AcDbRegAppTableRecord
2
ACAD
70
0
0
APPID
5
5E
330
9
100
AcDbSymbolTableRecord
100
AcDbRegAppTableRecord
2
AcadAnnotative
70
0
0
APPID
5
146
330
9
100
AcDbSymbolTableRecord
100
AcDbRegAppTableRecord
2
ACAD_MLEADERVER
70
0
0
APPID
5
169
330
9
100
AcDbSymbolTableRecord
100
AcDbRegAppTableRecord
2
AcCmTransparency
70
0
0
APPID
5
16A
330
9
100
AcDbSymbolTableRecord
100
AcDbRegAppTableRecord
2
AcAecLayerStandard
70
0
0
APPID
5
16B
330
9
100
AcDbSymbolTableRecord
100
AcDbRegAppTableRecord
2
GradientColor1ACI
70
0
0
APPID
5
16C
330
9
100
AcDbSymbolTableRecord
100
AcDbRegAppTableRecord
2
GradientColor2ACI
70
0
0
ENDTAB
0
TABLE
2
VPORT
5
8
330
0
100
AcDbSymbolTable
70
1
0
VPORT
5
157
330
8
100
AcDbSymbolTableRecord
100
AcDbViewportTableRecord
2
*Active
70
0
10
0.0
20
0.0
11
1.0
21
1.0
12
60.3271941811078
22
27.6009954740159
13
0.0
23
0.0
14
0.5
24
0.5
15
10.0
25
10.0
16
0.0
26
0.0
36
1.0
17
0.0
27
0.0
37
0.0
40
131.362
41
1.0
75
0
76
1
0
ENDTAB
0
TABLE
2
LTYPE
5
5
330
0
100
AcDbSymbolTable
70
48
0
LTYPE
5
5B
330
5
100
AcDbSymbolTableRecord
100
AcDbLinetypeTableRecord
2
ByBlock
70
0
3

72
65
73
0
40
0.0
0
LTYPE
5
5C
330
5
100
AcDbSymbolTableRecord
100
AcDbLinetypeTableRecord
2
ByLayer
70
0
3

72
65
73
0
40
0.0
0
LTYPE
5
5D
330
5
100
AcDbSymbolTableRecord
100
AcDbLinetypeTableRecord
2
Continuous
70
0
3
Solid line
72
65
73
0
40
0.0
0
LTYPE
5
78
330
5
100
AcDbSymbolTableRecord
100
AcDbLinetypeTableRecord
2
BORDER
70
0
3
Border __ __ . __ __ . __ __ . __ __ . __ __ .
72
65
73
6
40
1.75
49
0.5
74
0
49
-0.25
74
0
49
0.5
74
0
49
-0.25
74
0
49
0.0
74
0
49
-0.25
74
0
0
LTYPE
5
79
330
5
100
AcDbSymbolTableRecord
100
AcDbLinetypeTableRecord
2
BORDER2
70
0
3
Border (.5x) __.__.__.__.__.__.__.__.__.__.__.
72
65
73
6
40
0.875
49
0.25
74
0
49
-0.125
74
0
49
0.25
74
0
49
-0.125
74
0
49
0.0
74
0
49
-0.125
74
0
0
LTYPE
5
7A
330
5
100
AcDbSymbolTableRecord
100
AcDbLinetypeTableRecord
2
BORDERX2
70
0
3
Border (2x) ____  ____  .  ____  ____  .  ___
72
65
73
6
40
3.5
49
1.0
74
0
49
-0.5
74
0
49
1.0
74
0
49
-0.5
74
0
49
0.0
74
0
49
-0.5
74
0
0
LTYPE
5
7B
330
5
100
AcDbSymbolTableRecord
100
AcDbLinetypeTableRecord
2
CENTER
70
0
3
Center ____ _ ____ _ ____ _ ____ _ ____ _ ____
72
65
73
4
40
2.0
49
1.25
74
0
49
-0.25
74
0
49
0.25
74
0
49
-0.25
74
0
0
LTYPE
5
7C
330
5
100
AcDbSymbolTableRecord
100
AcDbLinetypeTableRecord
2
CENTER2
70
0
3
Center (.5x) ___ _ ___ _ ___ _ ___ _ ___ _ ___
72
65
73
4
40
1.125
49
0.75
74
0
49
-0.125
74
0
49
0.125
74
0
49
-0.125
74
0
0
LTYPE
5
7D
330
5
100
AcDbSymbolTableRecord
100
AcDbLinetypeTableRecord
2
CENTERX2
70
0
3
Center (2x) ________  __  ________  __  _____
72
65
73
4
40
4.0
49
2.5
74
0
49
-0.5
74
0
49
0.5
74
0
49
-0.5
74
0
0
LTYPE
5
7E
330
5
100
AcDbSymbolTableRecord
100
AcDbLinetypeTableRecord
2
DASHDOT
70
0
3
Dash dot __ . __ . __ . __ . __ . __ . __ . __
72
65
73
4
40
1.0
49
0.5
74
0
49
-0.25
74
0
49
0.0
74
0
49
-0.25
74
0
0
LTYPE
5
7F
330
5
100
AcDbSymbolTableRecord
100
AcDbLinetypeTableRecord
2
DASHDOT2
70
0
3
Dash dot (.5x) _._._._._._._._._._._._._._._.
72
65
73
4
40
0.5
49
0.25
74
0
49
-0.125
74
0
49
0.0
74
0
49
-0.125
74
0
0
LTYPE
5
80
330
5
100
AcDbSymbolTableRecord
100
AcDbLinetypeTableRecord
2
DASHDOTX2
70
0
3
Dash dot (2x) ____  .  ____  .  ____  .  ___
72
65
73
4
40
2.0
49
1.0
74
0
49
-0.5
74
0
49
0.0
74
0
49
-0.5
74
0
0
LTYPE
5
81
330
5
100
AcDbSymbolTableRecord
100
AcDbLinetypeTableRecord
2
DASHED
70
0
3
Dashed __ __ __ __ __ __ __ __ __ __ __ __ __ _
72
65
73
2
40
0.75
49
0.5
74
0
49
-0.25
74
0
0
LTYPE
5
82
330
5
100
AcDbSymbolTableRecord
100
AcDbLinetypeTableRecord
2
DASHED2
70
0
3
Dashed (.5x) _ _ _ _ _ _ _ _ _ _ _ _ _ _ _ _ _
72
65
73
2
40
0.375
49
0.25
74
0
49
-0.125
74
0
0
LTYPE
5
83
330
5
100
AcDbSymbolTableRecord
100
AcDbLinetypeTableRecord
2
DASHEDX2
70
0
3
Dashed (2x) ____  ____  ____  ____  ____  ___
72
65
73
2
40
1.5
49
1.0
74
0
49
-0.5
74
0
0
LTYPE
5
84
330
5
100
AcDbSymbolTableRecord
100
AcDbLinetypeTableRecord
2
DIVIDE
70
0
3
Divide ____ . . ____ . . ____ . . ____ . . ____
72
65
73
6
40
1.25
49
0.5
74
0
49
-0.25
74
0
49
0.0
74
0
49
-0.25
74
0
49
0.0
74
0
49
-0.25
74
0
0
LTYPE
5
85
330
5
100
AcDbSymbolTableRecord
100
AcDbLinetypeTableRecord
2
DIVIDE2
70
0
3
Divide (.5x) __..__..__..__..__..__..__..__.._
72
65
73
6
40
0.625
49
0.25
74
0
49
-0.125
74
0
49
0.0
74
0
49
-0.125
74
0
49
0.0
74
0
49
-0.125
74
0
0
LTYPE
5
86
330
5
100
AcDbSymbolTableRecord
100
AcDbLinetypeTableRecord
2
DIVIDEX2
70
0
3
Divide (2x) ________  .  .  ________  .  .  _
72
65
73
6
40
2.5
49
1.0
74
0
49
-0.5
74
0
49
0.0
74
0
49
-0.5
74
0
49
0.0
74
0
49
-0.5
74
0
0
LTYPE
5
87
330
5
100
AcDbSymbolTableRecord
100
AcDbLinetypeTableRecord
2
DOT
70
0
3
Dot . . . . . . . . . . . . . . . . . . . . . .
72
65
73
2
40
0.25
49
0.0
74
0
49
-0.25
74
0
0
LTYPE
5
88
330
5
100
AcDbSymbolTableRecord
100
AcDbLinetypeTableRecord
2
DOT2
70
0
3
Dot (.5x) .....................................
72
65
73
2
40
0.125
49
0.0
74
0
49
-0.125
74
0
0
LTYPE
5
89
330
5
100
AcDbSymbolTableRecord
100
AcDbLinetypeTableRecord
2
DOTX2
70
0
3
Dot (2x) .  .  .  .  .  .  .  .  .  .  .  .  . 
72
65
73
2
40
0.5
49
0.0
74
0
49
-0.5
74
0
0
LTYPE
5
8A
330
5
100
AcDbSymbolTableRecord
100
AcDbLinetypeTableRecord
2
HIDDEN
70
0
3
Hidden __ __ __ __ __ __ __ __ __ __ __ __ __ _
72
65
73
2
40
0.375
49
0.25
74
0
49
-0.125
74
0
0
LTYPE
5
8B
330
5
100
AcDbSymbolTableRecord
100
AcDbLinetypeTableRecord
2
HIDDEN2
70
0
3
Hidden (.5x) _ _ _ _ _ _ _ _ _ _ _ _ _ _ _ _ _
72
65
73
2
40
0.1875
49
0.125
74
0
49
-0.0625
74
0
0
LTYPE
5
8C
330
5
100
AcDbSymbolTableRecord
100
AcDbLinetypeTableRecord
2
HIDDENX2
70
0
3
Hidden (2x) ____ ____ ____ ____ ____ ____ ____
72
65
73
2
40
0.75
49
0.5
74
0
49
-0.25
74
0
0
LTYPE
5
8D
330
5
100
AcDbSymbolTableRecord
100
AcDbLinetypeTableRecord
2
PHANTOM
70
0
3
Phantom ______  __  __  ______  __  __  ______
72
65
73
6
40
2.5
49
1.25
74
0
49
-0.25
74
0
49
0.25
74
0
49
-0.25
74
0
49
0.25
74
0
49
-0.25
74
0
0
LTYPE
5
8E
330
5
100
AcDbSymbolTableRecord
100
AcDbLinetypeTableRecord
2
PHANTOM2
70
0
3
Phantom (.5x) ___ _ _ ___ _ _ ___ _ _ ___ _ _
72
65
73
6
40
1.25
49
0.625
74
0
49
-0.125
74
0
49
0.125
74
0
49
-0.125
74
0
49
0.125
74
0
49
-0.125
74
0
0
LTYPE
5
8F
330
5
100
AcDbSymbolTableRecord
100
AcDbLinetypeTableRecord
2
PHANTOMX2
70
0
3
Phantom (2x) ____________    ____    ____   _
72
65
73
6
40
5.0
49
2.5
74
0
49
-0.5
74
0
49
0.5
74
0
49
-0.5
74
0
49
0.5
74
0
49
-0.5
74
0
0
LTYPE
5
90
330
5
100
AcDbSymbolTableRecord
100
AcDbLinetypeTableRecord
2
ACAD_ISO02W100
70
0
3
ISO dash __ __ __ __ __ __ __ __ __ __ __ __ __
72
65
73
2
40
15.0
49
12.0
74
0
49
-3.0
74
0
0
LTYPE
5
91
330
5
100
AcDbSymbolTableRecord
100
AcDbLinetypeTableRecord
2
ACAD_ISO03W100
70
0
3
ISO dash space __    __    __    __    __    __
72
65
73
2
40
30.0
49
12.0
74
0
49
-18.0
74
0
0
LTYPE
5
92
330
5
100
AcDbSymbolTableRecord
100
AcDbLinetypeTableRecord
2
ACAD_ISO04W100
70
0
3
ISO long-dash dot ____ . ____ . ____ . ____ . _
72
65
73
4
40
30.0
49
24.0
74
0
49
-3.0
74
0
49
0.0
74
0
49
-3.0
74
0
0
LTYPE
5
93
330
5
100
AcDbSymbolTableRecord
100
AcDbLinetypeTableRecord
2
ACAD_ISO05W100
70
0
3
ISO long-dash double-dot ____ .. ____ .. ____ .
72
65
73
6
40
33.0
49
24.0
74
0
49
-3.0
74
0
49
0.0
74
0
49
-3.0
74
0
49
0.0
74
0
49
-3.0
74
0
0
LTYPE
5
94
330
5
100
AcDbSymbolTableRecord
100
AcDbLinetypeTableRecord
2
ACAD_ISO06W100
70
0
3
ISO long-dash triple-dot ____ ... ____ ... ____
72
65
73
8
40
36.0
49
24.0
74
0
49
-3.0
74
0
49
0.0
74
0
49
-3.0
74
0
49
0.0
74
0
49
-3.0
74
0
49
0.0
74
0
49
-3.0
74
0
0
LTYPE
5
95
330
5
100
AcDbSymbolTableRecord
100
AcDbLinetypeTableRecord
2
ACAD_ISO07W100
70
0
3
ISO dot . . . . . . . . . . . . . . . . . . . .
72
65
73
2
40
3.0
49
0.0
74
0
49
-3.0
74
0
0
LTYPE
5
96
330
5
100
AcDbSymbolTableRecord
100
AcDbLinetypeTableRecord
2
ACAD_ISO08W100
70
0
3
ISO long-dash short-dash ____ __ ____ __ ____ _
72
65
73
4
40
36.0
49
24.0
74
0
49
-3.0
74
0
49
6.0
74
0
49
-3.0
74
0
0
LTYPE
5
97
330
5
100
AcDbSymbolTableRecord
100
AcDbLinetypeTableRecord
2
ACAD_ISO09W100
70
0
3
ISO long-dash double-short-dash ____ __ __ ____
72
65
73
6
40
45.0
49
24.0
74
0
49
-3.0
74
0
49
6.0
74
0
49
-3.0
74
0
49
6.0
74
0
49
-3.0
74
0
0
LTYPE
5
98
330
5
100
AcDbSymbolTableRecord
100
AcDbLinetypeTableRecord
2
ACAD_ISO10W100
70
0
3
ISO dash dot __ . __ . __ . __ . __ . __ . __ .
72
65
73
4
40
18.0
49
12.0
74
0
49
-3.0
74
0
49
0.0
74
0
49
-3.0
74
0
0
LTYPE
5
99
330
5
100
AcDbSymbolTableRecord
100
AcDbLinetypeTableRecord
2
ACAD_ISO11W100
70
0
3
ISO double-dash dot __ __ . __ __ . __ __ . __ 
72
65
73
6
40
33.0
49
12.0
74
0
49
-3.0
74
0
49
12.0
74
0
49
-3.0
74
0
49
0.0
74
0
49
-3.0
74
0
0
LTYPE
5
9A
330
5
100
AcDbSymbolTableRecord
100
AcDbLinetypeTableRecord
2
ACAD_ISO12W100
70
0
3
ISO dash double-dot __ . . __ . . __ . . __ . .
72
65
73
6
40
21.0
49
12.0
74
0
49
-3.0
74
0
49
0.0
74
0
49
-3.0
74
0
49
0.0
74
0
49
-3.0
74
0
0
LTYPE
5
9B
330
5
100
AcDbSymbolTableRecord
100
AcDbLinetypeTableRecord
2
ACAD_ISO13W100
70
0
3
ISO double-dash double-dot __ __ . . __ __ . . 
72
65
73
8
40
36.0
49
12.0
74
0
49
-3.0
74
0
49
12.0
74
0
49
-3.0
74
0
49
0.0
74
0
49
-3.0
74
0
49
0.0
74
0
49
-3.0
74
0
0
LTYPE
5
9C
330
5
100
AcDbSymbolTableRecord
100
AcDbLinetypeTableRecord
2
ACAD_ISO14W100
70
0
3
ISO dash triple-dot __ . . . __ . . . __ . . . 
72
65
73
8
40
24.0
49
12.0
74
0
49
-3.0
74
0
49
0.0
74
0
49
-3.0
74
0
49
0.0
74
0
49
-3.0
74
0
49
0.0
74
0
49
-3.0
74
0
0
LTYPE
5
9D
330
5
100
AcDbSymbolTableRecord
100
AcDbLinetypeTableRecord
2
ACAD_ISO15W100
70
0
3
ISO double-dash triple-dot __ __ . . . __ __ . 
72
65
73
10
40
39.0
49
12.0
74
0
49
-3.0
74
0
49
12.0
74
0
49
-3.0
74
0
49
0.0
74
0
49
-3.0
74
0
49
0.0
74
0
49
-3.0
74
0
49
0.0
74
0
49
-3.0
74
0
0
LTYPE
5
A0
330
5
100
AcDbSymbolTableRecord
100
AcDbLinetypeTableRecord
2
FENCELINE1
70
0
3
Fenceline circle ----0-----0----0-----0----0---
72
65
73
3
40
1.35
49
0.25
74
0
49
-0.1
74
0
49
1.0
74
0
0
LTYPE
5
A1
330
5
100
AcDbSymbolTableRecord
100
AcDbLinetypeTableRecord
2
FENCELINE2
70
0
3
Fenceline square ----[]-----[]----[]-----[]----
72
65
73
3
40
1.35
49
0.25
74
0
49
-0.1
74
0
49
1.0
74
0
0
LTYPE
5
A2
330
5
100
AcDbSymbolTableRecord
100
AcDbLinetypeTableRecord
2
TRACKS
70
0
3
Tracks -|-|-|-|-|-|-|-|-|-|-|-|-|-|-|-|-|-|-|-|
72
65
73
1
40
0.15
49
0.15
74
0
0
LTYPE
5
A3
330
5
100
AcDbSymbolTableRecord
100
AcDbLinetypeTableRecord
2
BATTING
70
0
3
Batting SSSSSSSSSSSSSSSSSSSSSSSSSSSSSSSSSSSSSSS
72
65
73
2
40
0.1001
49
0.0001
74
0
49
-0.1
74
0
0
LTYPE
5
A4
330
5
100
AcDbSymbolTableRecord
100
AcDbLinetypeTableRecord
2
HOT_WATER_SUPPLY
70
0
3
Hot water supply ---- HW ---- HW ---- HW ----
72
65
73
3
40
0.9
49
0.5
74
0
49
-0.2
74
2
75
0
340
55
46
0.1
50
0.0
44
-0.1
45
-0.05
9
HW
49
-0.2
74
0
0
LTYPE
5
A5
330
5
100
AcDbSymbolTableRecord
100
AcDbLinetypeTableRecord
2
GAS_LINE
70
0
3
Gas line ----GAS----GAS----GAS----GAS----GAS---
72
65
73
3
40
0.95
49
0.5
74
0
49
-0.2
74
2
75
0
340
55
46
0.1
50
0.0
44
-0.1
45
-0.05
9
GAS
49
-0.25
74
0
0
LTYPE
5
A6
330
5
100
AcDbSymbolTableRecord
100
AcDbLinetypeTableRecord
2
ZIGZAG
70
0
3
Zig zag /\/\/\/\/\/\/\/\/\/\/\/\/\/\/\/\/\/\/\/
72
65
73
2
40
0.2001
49
0.0001
74
0
49
-0.2
74
0
0
ENDTAB
0
TABLE
2
LAYER
5
2
102
{ACAD_XDICTIONARY
360
158
102
}
330
0
100
AcDbSymbolTable
70
8
0
LAYER
5
54
330
2
100
AcDbSymbolTableRecord
100
AcDbLayerTableRecord
2
0
70
0
62
7
6
Continuous
290
1
370
-3
390
0
0
LAYER
5
A7
330
2
100
AcDbSymbolTableRecord
100
AcDbLayerTableRecord
2
IV_OUTER_PROFILE
70
0
62
7
6
Continuous
290
1
370
5
390
0
0
LAYER
5
A8
330
2
100
AcDbSymbolTableRecord
100
AcDbLayerTableRecord
2
IV_MARK_SURFACE
70
0
62
2
6
Continuous
290
1
370
25
390
0
0
LAYER
5
161
330
2
100
AcDbSymbolTableRecord
100
AcDbLayerTableRecord
2
AutoDXF_SmallHoles
70
0
62
-4
6
Continuous
290
1
370
-3
390
0
0
LAYER
5
163
330
2
100
AcDbSymbolTableRecord
100
AcDbLayerTableRecord
2
AutoDXF_SmallHoles_Points
70
0
62
-4
6
Continuous
290
1
370
-3
390
0
0
LAYER
5
165
330
2
100
AcDbSymbolTableRecord
100
AcDbLayerTableRecord
2
AutoDXF_BendInfo
70
0
62
-3
6
Continuous
290
1
370
-3
390
0
0
LAYER
5
166
330
2
100
AcDbSymbolTableRecord
100
AcDbLayerTableRecord
2
IV_BEND
70
0
62
250
6
Continuous
290
1
370
50
390
0
0
LAYER
5
167
330
2
100
AcDbSymbolTableRecord
100
AcDbLayerTableRecord
2
IV_BEND_DOWN
70
0
62
250
6
Continuous
290
1
370
50
390
0
0
ENDTAB
0
TABLE
2
STYLE
5
3
330
0
100
AcDbSymbolTable
70
2
0
STYLE
5
55
330
3
100
AcDbSymbolTableRecord
100
AcDbTextStyleTableRecord
2
Standard
3
txt.SHX
70
0
71
0
40
0.0
41
1.0
42
0.0
50
0.0
0
STYLE
5
5A
330
3
100
AcDbSymbolTableRecord
100
AcDbTextStyleTableRecord
2
Annotative
3
txt.SHX
70
0
71
0
40
0.0
41
1.0
42
0.0
50
0.0
1001
AcadAnnotative
1000
AnnotativeData
1002
{
1070
1
1070
1
1002
}
0
STYLE
5
9F
330
159
100
AcDbSymbolTableRecord
100
AcDbTextStyleTableRecord
2

3
ltypeshp.shx
70
1
40
0.0
41
1.0
42
0.0
50
0.0
0
ENDTAB
0
TABLE
2
DIMSTYLE
5
A
330
0
100
AcDbSymbolTable
70
2
100
AcDbDimStyleTable
0
DIMSTYLE
105
58
330
A
100
AcDbSymbolTableRecord
100
AcDbDimStyleTableRecord
2
Standard
3

4

40
1.0
41
0.18
42
0.0625
43
0.38
44
0.18
45
0.0
46
0.0
47
0.0
48
0.0
49
1.0
70
0
71
0
72
0
73
0
74
0
75
0
76
0
77
0
78
0
79
3
140
0.18
141
0.09
143
25.4
144
1.0
146
1.0
147
0.09
148
0.0
170
0
171
2
172
0
174
0
175
0
176
0
177
0
178
0
179
0
271
4
272
4
273
2
274
2
275
0
276
0
277
2
278
46
279
0
280
0
281
0
282
0
283
1
284
0
285
0
286
0
289
3
290
0
294
0
340
55
173
0
345
5B
346
5B
347
5B
371
-2
372
-2
0
DIMSTYLE
105
59
330
A
100
AcDbSymbolTableRecord
100
AcDbDimStyleTableRecord
2
Annotative
3

4

40
1.0
41
0.18
42
0.0625
43
0.38
44
0.18
45
0.0
46
0.0
47
0.0
48
0.0
49
1.0
70
0
71
0
72
0
73
0
74
0
75
0
76
0
77
0
78
0
79
3
140
0.18
141
0.09
143
25.4
144
1.0
146
1.0
147
0.09
148
0.0
170
0
171
2
172
0
174
0
175
0
176
0
177
0
178
0
179
0
271
4
272
4
273
2
274
2
275
0
276
0
277
2
278
46
279
0
280
0
281
0
282
0
283
1
284
0
285
0
286
0
289
3
290
0
294
0
340
55
173
0
345
5B
346
5B
347
5B
371
-2
372
-2
1001
AcadAnnotative
1000
AnnotativeData
1002
{
1070
1
1070
1
1002
}
0
ENDTAB
0
TABLE
2
VIEW
5
6
330
0
100
AcDbSymbolTable
70
0
0
ENDTAB
0
TABLE
2
UCS
5
7
330
0
100
AcDbSymbolTable
70
0
0
ENDTAB
0
TABLE
2
BLOCK_RECORD
5
1
330
0
100
AcDbSymbolTable
70
3
0
BLOCK_RECORD
5
70
330
1
100
AcDbSymbolTableRecord
100
AcDbBlockTableRecord
2
*Model_Space
340
73
0
BLOCK_RECORD
5
6C
330
1
100
AcDbSymbolTableRecord
100
AcDbBlockTableRecord
2
*Paper_Space
340
6F
0
BLOCK_RECORD
5
74
330
1
100
AcDbSymbolTableRecord
100
AcDbBlockTableRecord
2
*Paper_Space0
340
77
0
ENDTAB
0
ENDSEC
0
SECTION
2
BLOCKS
0
BLOCK
5
71
330
70
100
AcDbEntity
67
0
8
0
100
AcDbBlockBegin
2
*Model_Space
70
0
10
0.0
20
0.0
30
0.0
3
*Model_Space
4

0
ENDBLK
5
72
330
70
100
AcDbEntity
8
0
100
AcDbBlockEnd
0
BLOCK
5
6D
330
6C
100
AcDbEntity
67
1
8
0
100
AcDbBlockBegin
2
*Paper_Space
70
0
10
0.0
20
0.0
30
0.0
3
*Paper_Space
4

0
ENDBLK
5
6E
330
6C
100
AcDbEntity
8
0
100
AcDbBlockEnd
0
BLOCK
5
75
330
74
100
AcDbEntity
67
1
8
0
100
AcDbBlockBegin
2
*Paper_Space0
70
0
10
0.0
20
0.0
30
0.0
3
*Paper_Space0
4

0
VIEWPORT
5
160
330
74
100
AcDbEntity
67
1
8
0
62
256
6
ByLayer
370
-1
48
1.0
60
0
100
AcDbViewport
10
0.0
20
0.0
30
0.0
40
297.0
41
210.0
68
1
69
1
12
50.0
22
100.0
13
0.0
23
0.0
14
10.0
24
10.0
15
10.0
25
10.0
16
0.0
26
0.0
36
1.0
17
0.0
27
0.0
37
0.0
42
50.0
43
0.0
44
0.0
45
250.0
50
0.0
51
0.0
72
1000
90
819232
110
0.0
120
0.0
130
0.0
111
1.0
121
0.0
131
0.0
112
0.0
122
1.0
132
0.0
0
ENDBLK
5
76
330
74
100
AcDbEntity
8
0
100
AcDbBlockEnd
0
ENDSEC
0
SECTION
2
ENTITIES
0
VIEWPORT
5
15F
330
6C
100
AcDbEntity
67
1
8
0
62
256
6
ByLayer
370
-1
48
1.0
60
0
100
AcDbViewport
10
0.0
20
0.0
30
0.0
40
297.0
41
210.0
68
1
69
1
12
50.0
22
100.0
13
0.0
23
0.0
14
10.0
24
10.0
15
10.0
25
10.0
16
0.0
26
0.0
36
1.0
17
0.0
27
0.0
37
0.0
42
50.0
43
0.0
44
0.0
45
250.0
50
0.0
51
0.0
72
1000
90
819232
110
0.0
120
0.0
130
0.0
111
1.0
121
0.0
131
0.0
112
0.0
122
1.0
132
0.0
0
LINE
5
AA
330
70
100
AcDbEntity
67
0
8
IV_BEND
62
256
6
ByLayer
370
-1
48
1.0
60
0
100
AcDbLine
10
120.03734305705
20
18.100995474016
30
0.0
11
3.96444146718623
21
18.100995474016
31
0.0
39
0.0
210
0.0
220
0.0
230
1.0
0
ARC
5
AC
330
70
100
AcDbEntity
67
0
8
IV_MARK_SURFACE
62
256
6
ByLayer
370
-1
48
1.0
60
0
100
AcDbCircle
39
0.0
10
4.6514363562939
20
39.8137587322039
30
0.0
40
2.22222222222222
210
0.0
220
0.0
230
1.0
100
AcDbArc
50
222.021152929188
51
0.0
0
LINE
5
AD
330
70
100
AcDbEntity
67
0
8
IV_MARK_SURFACE
62
256
6
ByLayer
370
-1
48
1.0
60
0
100
AcDbLine
10
6.87365857851611
20
39.8137587322039
30
0.0
11
6.87365857851611
21
40.924869843315
31
0.0
39
0.0
210
0.0
220
0.0
230
1.0
0
LINE
5
AE
330
70
100
AcDbEntity
67
0
8
IV_MARK_SURFACE
62
256
6
ByLayer
370
-1
48
1.0
60
0
100
AcDbLine
10
6.87365857851611
20
40.924869843315
30
0.0
11
3.00055249035411
21
40.924869843315
31
0.0
39
0.0
210
0.0
220
0.0
230
1.0
0
LINE
5
AF
330
70
100
AcDbEntity
67
0
8
IV_MARK_SURFACE
62
256
6
ByLayer
370
-1
48
1.0
60
0
100
AcDbLine
10
6.87365857851611
20
40.924869843315
30
0.0
11
6.87365857851611
21
42.5915365099817
31
0.0
39
0.0
210
0.0
220
0.0
230
1.0
0
ARC
5
B0
330
70
100
AcDbEntity
67
0
8
IV_MARK_SURFACE
62
256
6
ByLayer
370
-1
48
1.0
60
0
100
AcDbCircle
39
0.0
10
5.20699191184947
20
42.5915365099817
30
0.0
40
1.66666666666667
210
0.0
220
0.0
230
1.0
100
AcDbArc
50
0.0
51
90.0
0
LINE
5
B1
330
70
100
AcDbEntity
67
0
8
IV_MARK_SURFACE
62
256
6
ByLayer
370
-1
48
1.0
60
0
100
AcDbLine
10
5.20699191184947
20
44.2582031766484
30
0.0
11
3.00055249035411
21
44.2582031766484
31
0.0
39
0.0
210
0.0
220
0.0
230
1.0
0
CIRCLE
5
B2
330
70
100
AcDbEntity
67
0
8
AutoDXF_SmallHoles
62
256
6
ByLayer
370
-1
48
1.0
60
0
100
AcDbCircle
10
26.0403252451828
20
34.5359809544261
30
0.0
40
0.277777777777778
39
0.0
210
0.0
220
0.0
230
1.0
0
ARC
5
B3
330
70
100
AcDbEntity
67
0
8
IV_MARK_SURFACE
62
256
6
ByLayer
370
-1
48
1.0
60
0
100
AcDbCircle
39
0.0
10
12.9847696896273
20
39.2582031766484
30
0.0
40
1.66666666666667
210
0.0
220
0.0
230
1.0
100
AcDbArc
50
270.0
51
0.0
0
LINE
5
B4
330
70
100
AcDbEntity
67
0
8
IV_MARK_SURFACE
62
256
6
ByLayer
370
-1
48
1.0
60
0
100
AcDbLine
10
14.6514363562939
20
42.5915365099817
30
0.0
11
14.6514363562939
21
39.2582031766484
31
0.0
39
0.0
210
0.0
220
0.0
230
1.0
0
ARC
5
B5
330
70
100
AcDbEntity
67
0
8
IV_MARK_SURFACE
62
256
6
ByLayer
370
-1
48
1.0
60
0
100
AcDbCircle
39
0.0
10
12.9847696896273
20
42.5915365099817
30
0.0
40
1.66666666666667
210
0.0
220
0.0
230
1.0
100
AcDbArc
50
0.0
51
90.0
0
LINE
5
B6
330
70
100
AcDbEntity
67
0
8
IV_MARK_SURFACE
62
256
6
ByLayer
370
-1
48
1.0
60
0
100
AcDbLine
10
10.2069919118495
20
44.2582031766484
30
0.0
11
12.9847696896273
21
44.2582031766484
31
0.0
39
0.0
210
0.0
220
0.0
230
1.0
0
LINE
5
B7
330
70
100
AcDbEntity
67
0
8
IV_MARK_SURFACE
62
256
6
ByLayer
370
-1
48
1.0
60
0
100
AcDbLine
10
10.2069919118495
20
37.5915365099817
30
0.0
11
10.2069919118495
21
44.2582031766484
31
0.0
39
0.0
210
0.0
220
0.0
230
1.0
0
LINE
5
B8
330
70
100
AcDbEntity
67
0
8
IV_MARK_SURFACE
62
256
6
ByLayer
370
-1
48
1.0
60
0
100
AcDbLine
10
12.9847696896273
20
37.5915365099817
30
0.0
11
10.2069919118495
21
37.5915365099817
31
0.0
39
0.0
210
0.0
220
0.0
230
1.0
0
LINE
5
B9
330
70
100
AcDbEntity
67
0
8
IV_MARK_SURFACE
62
256
6
ByLayer
370
-1
48
1.0
60
0
100
AcDbLine
10
10.2069919118495
20
44.2582031766484
30
0.0
11
10.2069919118495
21
45.924869843315
31
0.0
39
0.0
210
0.0
220
0.0
230
1.0
0
ARC
5
BA
330
70
100
AcDbEntity
67
0
8
IV_MARK_SURFACE
62
256
6
ByLayer
370
-1
48
1.0
60
0
100
AcDbCircle
39
0.0
10
11.8736585785161
20
45.924869843315
30
0.0
40
1.66666666666667
210
0.0
220
0.0
230
1.0
100
AcDbArc
50
90.0
51
180.0
0
LINE
5
BB
330
70
100
AcDbEntity
67
0
8
IV_MARK_SURFACE
62
256
6
ByLayer
370
-1
48
1.0
60
0
100
AcDbLine
10
11.8736585785161
20
47.5915365099817
30
0.0
11
14.6514363562939
21
47.5915365099817
31
0.0
39
0.0
210
0.0
220
0.0
230
1.0
0
LINE
5
BC
330
70
100
AcDbEntity
67
0
8
IV_MARK_SURFACE
62
256
6
ByLayer
370
-1
48
1.0
60
0
100
AcDbLine
10
22.4292141340717
20
44.2582031766484
30
0.0
11
22.4292141340717
21
37.5915365099817
31
0.0
39
0.0
210
0.0
220
0.0
230
1.0
0
LINE
5
BD
330
70
100
AcDbEntity
67
0
8
IV_MARK_SURFACE
62
256
6
ByLayer
370
-1
48
1.0
60
0
100
AcDbLine
10
22.4292141340717
20
37.5915365099817
30
0.0
11
19.6514363562939
21
37.5915365099817
31
0.0
39
0.0
210
0.0
220
0.0
230
1.0
0
ARC
5
BE
330
70
100
AcDbEntity
67
0
8
IV_MARK_SURFACE
62
256
6
ByLayer
370
-1
48
1.0
60
0
100
AcDbCircle
39
0.0
10
19.6514363562939
20
39.2582031766484
30
0.0
40
1.66666666666667
210
0.0
220
0.0
230
1.0
100
AcDbArc
50
180.0
51
270.0
0
LINE
5
BF
330
70
100
AcDbEntity
67
0
8
IV_MARK_SURFACE
62
256
6
ByLayer
370
-1
48
1.0
60
0
100
AcDbLine
10
17.9847696896273
20
39.2582031766484
30
0.0
11
17.9847696896273
21
44.2582031766484
31
0.0
39
0.0
210
0.0
220
0.0
230
1.0
0
LINE
5
C0
330
70
100
AcDbEntity
67
0
8
IV_MARK_SURFACE
62
256
6
ByLayer
370
-1
48
1.0
60
0
100
AcDbLine
10
32.9847696896272
20
44.2582031766484
30
0.0
11
32.9847696896272
21
37.5915365099817
31
0.0
39
0.0
210
0.0
220
0.0
230
1.0
0
LINE
5
C1
330
70
100
AcDbEntity
67
0
8
IV_MARK_SURFACE
62
256
6
ByLayer
370
-1
48
1.0
60
0
100
AcDbLine
10
32.9847696896272
20
37.5915365099817
30
0.0
11
30.762547467405
21
37.5915365099817
31
0.0
39
0.0
210
0.0
220
0.0
230
1.0
0
ARC
5
C2
330
70
100
AcDbEntity
67
0
8
IV_MARK_SURFACE
62
256
6
ByLayer
370
-1
48
1.0
60
0
100
AcDbCircle
39
0.0
10
30.762547467405
20
38.7026476210928
30
0.0
40
1.11111111111111
210
0.0
220
0.0
230
1.0
100
AcDbArc
50
180.0
51
270.0
0
ARC
5
C3
330
70
100
AcDbEntity
67
0
8
IV_MARK_SURFACE
62
256
6
ByLayer
370
-1
48
1.0
60
0
100
AcDbCircle
39
0.0
10
45.7506328383123
20
42.4347756774541
30
0.0
40
1.82346642502788
210
0.0
220
0.0
230
1.0
100
AcDbArc
50
22.9942413608626
51
89.6256235871757
0
LINE
5
C4
330
70
100
AcDbEntity
67
0
8
IV_MARK_SURFACE
62
256
6
ByLayer
370
-1
48
1.0
60
0
100
AcDbLine
10
45.7625474674048
20
44.2582031766483
30
0.0
11
44.6514363562937
21
44.2582031766483
31
0.0
39
0.0
210
0.0
220
0.0
230
1.0
0
ARC
5
C5
330
70
100
AcDbEntity
67
0
8
IV_MARK_SURFACE
62
256
6
ByLayer
370
-1
48
1.0
60
0
100
AcDbCircle
39
0.0
10
44.6633509853861
20
42.4347756774541
30
0.0
40
1.82346642502788
210
0.0
220
0.0
230
1.0
100
AcDbArc
50
90.374376412822
51
157.005758639138
0
LINE
5
C6
330
70
100
AcDbEntity
67
0
8
IV_MARK_SURFACE
62
256
6
ByLayer
370
-1
48
1.0
60
0
100
AcDbLine
10
42.984769689627
20
43.1470920655372
30
0.0
11
42.984769689627
21
42.5915365099817
31
0.0
39
0.0
210
0.0
220
0.0
230
1.0
0
ARC
5
C7
330
70
100
AcDbEntity
67
0
8
IV_MARK_SURFACE
62
256
6
ByLayer
370
-1
48
1.0
60
0
100
AcDbCircle
39
0.0
10
44.8402949605066
20
43.3359506697501
30
0.0
40
1.99928148896964
210
0.0
220
0.0
230
1.0
100
AcDbArc
50
201.860055904196
51
248.139944095804
0
LINE
5
C8
330
70
100
AcDbEntity
67
0
8
IV_MARK_SURFACE
62
256
6
ByLayer
370
-1
48
1.0
60
0
100
AcDbLine
10
44.0958808007381
20
41.4804253988706
30
0.0
11
46.3181030229603
21
40.3693142877595
31
0.0
39
0.0
210
0.0
220
0.0
230
1.0
0
ARC
5
C9
330
70
100
AcDbEntity
67
0
8
IV_MARK_SURFACE
62
256
6
ByLayer
370
-1
48
1.0
60
0
100
AcDbCircle
39
0.0
10
45.5736888631918
20
38.5137890168798
30
0.0
40
1.99928148896964
210
0.0
220
0.0
230
1.0
100
AcDbArc
50
21.8600559041967
51
68.1399440958038
0
LINE
5
CA
330
70
100
AcDbEntity
67
0
8
IV_MARK_SURFACE
62
256
6
ByLayer
370
-1
48
1.0
60
0
100
AcDbLine
10
47.4292141340714
20
39.2582031766484
30
0.0
11
47.4292141340715
21
38.7026476210928
31
0.0
39
0.0
210
0.0
220
0.0
230
1.0
0
ARC
5
CB
330
70
100
AcDbEntity
67
0
8
IV_MARK_SURFACE
62
256
6
ByLayer
370
-1
48
1.0
60
0
100
AcDbCircle
39
0.0
10
45.7506328383124
20
39.4149640091758
30
0.0
40
1.82346642502788
210
0.0
220
0.0
230
1.0
100
AcDbArc
50
270.374376412822
51
337.005758639137
0
LINE
5
CC
330
70
100
AcDbEntity
67
0
8
IV_MARK_SURFACE
62
256
6
ByLayer
370
-1
48
1.0
60
0
100
AcDbLine
10
45.7625474674048
20
37.5915365099817
30
0.0
11
44.6514363562938
21
37.5915365099817
31
0.0
39
0.0
210
0.0
220
0.0
230
1.0
0
ARC
5
CD
330
70
100
AcDbEntity
67
0
8
IV_MARK_SURFACE
62
256
6
ByLayer
370
-1
48
1.0
60
0
100
AcDbCircle
39
0.0
10
44.6633509853862
20
39.4149640091758
30
0.0
40
1.82346642502788
210
0.0
220
0.0
230
1.0
100
AcDbArc
50
202.994241360862
51
269.625623587176
0
ARC
5
CE
330
70
100
AcDbEntity
67
0
8
IV_MARK_SURFACE
62
256
6
ByLayer
370
-1
48
1.0
60
0
100
AcDbCircle
39
0.0
10
69.5689874232798
20
37.7716498653774
30
0.0
40
8.85551475170021
210
0.0
220
0.0
230
1.0
100
AcDbArc
50
132.904667902494
51
173.965229743349
0
LINE
5
CF
330
70
100
AcDbEntity
67
0
8
IV_MARK_SURFACE
62
256
6
ByLayer
370
-1
48
1.0
60
0
100
AcDbLine
10
60.7625474674047
20
38.7026476210928
30
0.0
11
60.7625474674048
21
36.4804253988705
31
0.0
39
0.0
210
0.0
220
0.0
230
1.0
0
ARC
5
D0
330
70
100
AcDbEntity
67
0
8
IV_MARK_SURFACE
62
256
6
ByLayer
370
-1
48
1.0
60
0
100
AcDbCircle
39
0.0
10
62.984769689627
20
36.4804253988705
30
0.0
40
2.22222222222222
210
0.0
220
0.0
230
1.0
100
AcDbArc
50
180.0
51
0.0
0
LINE
5
D1
330
70
100
AcDbEntity
67
0
8
IV_MARK_SURFACE
62
256
6
ByLayer
370
-1
48
1.0
60
0
100
AcDbLine
10
65.2069919118493
20
36.4804253988705
30
0.0
11
65.2069919118492
21
37.5915365099817
31
0.0
39
0.0
210
0.0
220
0.0
230
1.0
0
ARC
5
D2
330
70
100
AcDbEntity
67
0
8
IV_MARK_SURFACE
62
256
6
ByLayer
370
-1
48
1.0
60
0
100
AcDbCircle
39
0.0
10
62.984769689627
20
37.5915365099817
30
0.0
40
2.22222222222222
210
0.0
220
0.0
230
1.0
100
AcDbArc
50
0.0
51
90.0
0
LINE
5
D3
330
70
100
AcDbEntity
67
0
8
IV_MARK_SURFACE
62
256
6
ByLayer
370
-1
48
1.0
60
0
100
AcDbLine
10
62.984769689627
20
39.8137587322039
30
0.0
11
61.3181030229603
21
39.8137587322039
31
0.0
39
0.0
210
0.0
220
0.0
230
1.0
0
LINE
5
D4
330
70
100
AcDbEntity
67
0
8
IV_MARK_SURFACE
62
256
6
ByLayer
370
-1
48
1.0
60
0
100
AcDbLine
10
78.5403252451825
20
44.2582031766483
30
0.0
11
76.8736585785158
21
44.2582031766483
31
0.0
39
0.0
210
0.0
220
0.0
230
1.0
0
ARC
5
D5
330
70
100
AcDbEntity
67
0
8
IV_MARK_SURFACE
62
256
6
ByLayer
370
-1
48
1.0
60
0
100
AcDbCircle
39
0.0
10
76.8736585785158
20
41.4804253988705
30
0.0
40
2.77777777777778
210
0.0
220
0.0
230
1.0
100
AcDbArc
50
90.0
51
270.0
0
LINE
5
D6
330
70
100
AcDbEntity
67
0
8
IV_MARK_SURFACE
62
256
6
ByLayer
370
-1
48
1.0
60
0
100
AcDbLine
10
76.8736585785158
20
38.7026476210927
30
0.0
11
77.4292141340713
21
38.7026476210928
31
0.0
39
0.0
210
0.0
220
0.0
230
1.0
0
ARC
5
D7
330
70
100
AcDbEntity
67
0
8
IV_MARK_SURFACE
62
256
6
ByLayer
370
-1
48
1.0
60
0
100
AcDbCircle
39
0.0
10
76.3181030229602
20
36.4804253988705
30
0.0
40
2.22222222222222
210
0.0
220
0.0
230
1.0
100
AcDbArc
50
90.0
51
270.0
0
LINE
5
D8
330
70
100
AcDbEntity
67
0
8
IV_MARK_SURFACE
62
256
6
ByLayer
370
-1
48
1.0
60
0
100
AcDbLine
10
76.3181030229602
20
34.2582031766483
30
0.0
11
78.5403252451825
21
34.2582031766483
31
0.0
39
0.0
210
0.0
220
0.0
230
1.0
0
LINE
5
D9
330
70
100
AcDbEntity
67
0
8
IV_MARK_SURFACE
62
256
6
ByLayer
370
-1
48
1.0
60
0
100
AcDbLine
10
70.7625474674048
20
36.4804253988705
30
0.0
11
68.5403252451825
21
34.2582031766483
31
0.0
39
0.0
210
0.0
220
0.0
230
1.0
0
LINE
5
DA
330
70
100
AcDbEntity
67
0
8
IV_MARK_SURFACE
62
256
6
ByLayer
370
-1
48
1.0
60
0
100
AcDbLine
10
68.5403252451825
20
34.2582031766483
30
0.0
11
68.5403252451825
21
44.2582031766483
31
0.0
39
0.0
210
0.0
220
0.0
230
1.0
0
LINE
5
DB
330
70
100
AcDbEntity
67
0
8
IV_MARK_SURFACE
62
256
6
ByLayer
370
-1
48
1.0
60
0
100
AcDbLine
10
38.5403252451828
20
44.2582031766484
30
0.0
11
38.5403252451828
21
37.5915365099817
31
0.0
39
0.0
210
0.0
220
0.0
230
1.0
0
LINE
5
DC
330
70
100
AcDbEntity
67
0
8
IV_MARK_SURFACE
62
256
6
ByLayer
370
-1
48
1.0
60
0
100
AcDbLine
10
39.6514363562939
20
37.5915365099817
30
0.0
11
38.5403252451828
21
37.5915365099817
31
0.0
39
0.0
210
0.0
220
0.0
230
1.0
0
LINE
5
DD
330
70
100
AcDbEntity
67
0
8
IV_MARK_SURFACE
62
256
6
ByLayer
370
-1
48
1.0
60
0
100
AcDbLine
10
38.5403252451828
20
37.5915365099817
30
0.0
11
38.5403252451828
21
34.2582031766484
31
0.0
39
0.0
210
0.0
220
0.0
230
1.0
0
LINE
5
DE
330
70
100
AcDbEntity
67
0
8
IV_MARK_SURFACE
62
256
6
ByLayer
370
-1
48
1.0
60
0
100
AcDbLine
10
38.5403252451828
20
37.5915365099817
30
0.0
11
36.3181030229605
21
37.5915365099817
31
0.0
39
0.0
210
0.0
220
0.0
230
1.0
0
LINE
5
DF
330
70
100
AcDbEntity
67
0
8
IV_MARK_SURFACE
62
256
6
ByLayer
370
-1
48
1.0
60
0
100
AcDbLine
10
26.0403252451828
20
44.2582031766484
30
0.0
11
26.0403252451828
21
37.5915365099817
31
0.0
39
0.0
210
0.0
220
0.0
230
1.0
0
LINE
5
E0
330
70
100
AcDbEntity
67
0
8
IV_MARK_SURFACE
62
256
6
ByLayer
370
-1
48
1.0
60
0
100
AcDbLine
10
91.9952718124271
20
34.2582031766483
30
0.0
11
91.8736585785158
21
34.2582031766483
31
0.0
39
0.0
210
0.0
220
0.0
230
1.0
0
ARC
5
E1
330
70
100
AcDbEntity
67
0
8
IV_OUTER_PROFILE
62
256
6
ByLayer
370
-1
48
1.0
60
0
100
AcDbCircle
39
0.0
10
192.87218973427
20
304.44043533407
30
0.0
40
344.163545639127
210
0.0
220
0.0
230
1.0
100
AcDbArc
50
236.873061333101
51
237.168682690779
0
LINE
5
E2
330
70
100
AcDbEntity
67
0
8
IV_OUTER_PROFILE
62
256
6
ByLayer
370
-1
48
1.0
60
0
100
AcDbLine
10
6.27787486998814
20
15.2500001408832
30
0.0
11
24.4521171570499
21
0.0000001408832073
31
0.0
39
0.0
210
0.0
220
0.0
230
1.0
0
ARC
5
E3
330
70
100
AcDbEntity
67
0
8
IV_OUTER_PROFILE
62
256
6
ByLayer
370
-1
48
1.0
60
0
100
AcDbCircle
39
0.0
10
27.9160145092142
20
50.9273027655554
30
0.0
40
41.7100249412556
210
0.0
220
0.0
230
1.0
100
AcDbArc
50
234.885052165684
51
236.324480235476
0
ARC
5
E4
330
70
100
AcDbEntity
67
0
8
IV_OUTER_PROFILE
62
256
6
ByLayer
370
-1
48
1.0
60
0
100
AcDbCircle
39
0.0
10
19.3384950562122
20
38.5021397516753
30
0.0
40
26.6126175330592
210
0.0
220
0.0
230
1.0
100
AcDbArc
50
232.459312051983
51
234.603492454565
0
ARC
5
E5
330
70
100
AcDbEntity
67
0
8
IV_OUTER_PROFILE
62
256
6
ByLayer
370
-1
48
1.0
60
0
100
AcDbCircle
39
0.0
10
14.1632603105405
20
31.6169671150111
30
0.0
40
18.0000563670108
210
0.0
220
0.0
230
1.0
100
AcDbArc
50
230.65678203444
51
232.167249450392
0
ARC
5
E6
330
70
100
AcDbEntity
67
0
8
IV_OUTER_PROFILE
62
256
6
ByLayer
370
-1
48
1.0
60
0
100
AcDbCircle
39
0.0
10
12.0177873146826
20
28.9516411718594
30
0.0
40
14.5786723418948
210
0.0
220
0.0
230
1.0
100
AcDbArc
50
228.740756762206
51
230.536937317054
0
ARC
5
E7
330
70
100
AcDbEntity
67
0
8
IV_OUTER_PROFILE
62
256
6
ByLayer
370
-1
48
1.0
60
0
100
AcDbCircle
39
0.0
10
10.1894452506494
20
26.8223932027238
30
0.0
40
11.7723516054255
210
0.0
220
0.0
230
1.0
100
AcDbArc
50
226.462558850643
51
228.595997449004
0
ARC
5
E8
330
70
100
AcDbEntity
67
0
8
IV_OUTER_PROFILE
62
256
6
ByLayer
370
-1
48
1.0
60
0
100
AcDbCircle
39
0.0
10
8.62030373459382
20
25.1288548812866
30
0.0
40
9.46383963843116
210
0.0
220
0.0
230
1.0
100
AcDbArc
50
223.751637613939
51
226.286694396272
0
ARC
5
E9
330
70
100
AcDbEntity
67
0
8
IV_OUTER_PROFILE
62
256
6
ByLayer
370
-1
48
1.0
60
0
100
AcDbCircle
39
0.0
10
7.27154436446721
20
23.7984582099814
30
0.0
40
7.56960987001688
210
0.0
220
0.0
230
1.0
100
AcDbArc
50
220.521270719523
51
223.537491579201
0
ARC
5
EA
330
70
100
AcDbEntity
67
0
8
IV_OUTER_PROFILE
62
256
6
ByLayer
370
-1
48
1.0
60
0
100
AcDbCircle
39
0.0
10
6.1167700940585
20
22.7754629142119
30
0.0
40
6.02718213546579
210
0.0
220
0.0
230
1.0
100
AcDbArc
50
216.667419232834
51
220.261244100872
0
ARC
5
EB
330
70
100
AcDbEntity
67
0
8
IV_OUTER_PROFILE
62
256
6
ByLayer
370
-1
48
1.0
60
0
100
AcDbCircle
39
0.0
10
5.13795653572057
20
22.014204106198
30
0.0
40
4.787531643747
210
0.0
220
0.0
230
1.0
100
AcDbArc
50
212.070877640482
51
216.355058884469
0
ARC
5
EC
330
70
100
AcDbEntity
67
0
8
IV_OUTER_PROFILE
62
256
6
ByLayer
370
-1
48
1.0
60
0
100
AcDbCircle
39
0.0
10
4.34713860928071
20
21.4932187270501
30
0.0
40
3.84083302228562
210
0.0
220
0.0
230
1.0
100
AcDbArc
50
206.688623621304
51
211.748957896247
0
ARC
5
ED
330
70
100
AcDbEntity
67
0
8
IV_OUTER_PROFILE
62
256
6
ByLayer
370
-1
48
1.0
60
0
100
AcDbCircle
39
0.0
10
3.89809442209777
20
21.2516773844696
30
0.0
40
3.33117341281441
210
0.0
220
0.0
230
1.0
100
AcDbArc
50
200.885601857715
51
206.445704842927
0
ARC
5
EE
330
70
100
AcDbEntity
67
0
8
IV_OUTER_PROFILE
62
256
6
ByLayer
370
-1
48
1.0
60
0
100
AcDbCircle
39
0.0
10
3.47907702453145
20
21.0764433263098
30
0.0
40
2.87725215728698
210
0.0
220
0.0
230
1.0
100
AcDbArc
50
194.417147118872
51
200.600061094125
0
ARC
5
EF
330
70
100
AcDbEntity
67
0
8
IV_OUTER_PROFILE
62
256
6
ByLayer
370
-1
48
1.0
60
0
100
AcDbCircle
39
0.0
10
3.17451600474644
20
20.9867989899378
30
0.0
40
2.55998613612468
210
0.0
220
0.0
230
1.0
100
AcDbArc
50
187.423827900762
51
194.171135907685
0
ARC
5
F0
330
70
100
AcDbEntity
67
0
8
IV_OUTER_PROFILE
62
256
6
ByLayer
370
-1
48
1.0
60
0
100
AcDbCircle
39
0.0
10
2.98508623751852
20
20.9549740179687
30
0.0
40
2.36804281144685
210
0.0
220
0.0
230
1.0
100
AcDbArc
50
180.072180044116
51
187.252467032488
0
LINE
5
F1
330
70
100
AcDbEntity
67
0
8
IV_OUTER_PROFILE
62
256
6
ByLayer
370
-1
48
1.0
60
0
100
AcDbLine
10
120.03734305705
20
20.3764242484338
30
0.0
11
120.03734305705
21
19.9492881374768
31
0.0
39
0.0
210
0.0
220
0.0
230
1.0
0
ARC
5
F2
330
70
100
AcDbEntity
67
0
8
IV_OUTER_PROFILE
62
256
6
ByLayer
370
-1
48
1.0
60
0
100
AcDbCircle
39
0.0
10
119.633805861606
20
63.1761741036679
30
0.0
40
42.7687455943307
210
0.0
220
0.0
230
1.0
100
AcDbArc
50
260.847071899291
51
263.318114236001
0
ARC
5
F3
330
70
100
AcDbEntity
67
0
8
IV_OUTER_PROFILE
62
256
6
ByLayer
370
-1
48
1.0
60
0
100
AcDbCircle
39
0.0
10
120.09388248914
20
66.6902359983568
30
0.0
40
46.3124961324566
210
0.0
220
0.0
230
1.0
100
AcDbArc
50
263.258648131014
51
265.534588602732
0
ARC
5
F4
330
70
100
AcDbEntity
67
0
8
IV_OUTER_PROFILE
62
256
6
ByLayer
370
-1
48
1.0
60
0
100
AcDbCircle
39
0.0
10
120.187818890518
20
67.7085647600261
30
0.0
40
47.3350495850203
210
0.0
220
0.0
230
1.0
100
AcDbArc
50
265.517198380887
51
266.617856307209
0
ARC
5
F5
330
70
100
AcDbEntity
67
0
8
IV_OUTER_PROFILE
62
256
6
ByLayer
370
-1
48
1.0
60
0
100
AcDbCircle
39
0.0
10
120.157982269782
20
67.2597630387483
30
0.0
40
46.8852694558221
210
0.0
220
0.0
230
1.0
100
AcDbArc
50
266.621898181828
51
267.718823396481
0
ARC
5
F6
330
70
100
AcDbEntity
67
0
8
IV_OUTER_PROFILE
62
256
6
ByLayer
370
-1
48
1.0
60
0
100
AcDbCircle
39
0.0
10
120.102214198974
20
66.0632609207146
30
0.0
40
45.6874964870092
210
0.0
220
0.0
230
1.0
100
AcDbArc
50
267.728980033542
51
268.835570658833
0
ARC
5
F7
330
70
100
AcDbEntity
67
0
8
IV_OUTER_PROFILE
62
256
6
ByLayer
370
-1
48
1.0
60
0
100
AcDbCircle
39
0.0
10
120.050174675543
20
64.1374220636649
30
0.0
40
43.7609996964773
210
0.0
220
0.0
230
1.0
100
AcDbArc
50
268.852450539072
51
269.983199707511
0
LINE
5
F8
330
70
100
AcDbEntity
67
0
8
IV_OUTER_PROFILE
62
256
6
ByLayer
370
-1
48
1.0
60
0
100
AcDbLine
10
0.61704530516566
20
55.2019908071487
30
0.0
11
3.00055249035411
21
55.2019908071487
31
0.0
39
0.0
210
0.0
220
0.0
230
1.0
0
LINE
5
F9
330
70
100
AcDbEntity
67
0
8
IV_OUTER_PROFILE
62
256
6
ByLayer
370
-1
48
1.0
60
0
100
AcDbLine
10
0.617045305165731
20
20.9519908071487
30
0.0
11
0.61704530516566
21
55.2019908071487
31
0.0
39
0.0
210
0.0
220
0.0
230
1.0
0
ARC
5
FA
330
70
100
AcDbEntity
67
0
8
IV_OUTER_PROFILE
62
256
6
ByLayer
370
-1
48
1.0
60
0
100
AcDbCircle
39
0.0
10
120.03734305705
20
55.2019908071487
30
0.0
40
35.0
210
0.0
220
0.0
230
1.0
100
AcDbArc
50
180.0
51
216.754957909424
0
ARC
5
FB
330
70
100
AcDbEntity
67
0
8
IV_OUTER_PROFILE
62
256
6
ByLayer
370
-1
48
1.0
60
0
100
AcDbCircle
39
0.0
10
120.03734305705
20
55.2019908071487
30
0.0
40
35.0
210
0.0
220
0.0
230
1.0
100
AcDbArc
50
216.754957909424
51
258.117362992075
0
LINE
5
FC
330
70
100
AcDbEntity
67
0
8
IV_OUTER_PROFILE
62
256
6
ByLayer
370
-1
48
1.0
60
0
100
AcDbLine
10
3.00055249035411
20
55.2019908071487
30
0.0
11
85.0373430570498
21
55.2019908071487
31
0.0
39
0.0
210
0.0
220
0.0
230
1.0
0
LINE
5
FD
330
70
100
AcDbEntity
67
0
8
IV_OUTER_PROFILE
62
256
6
ByLayer
370
-1
48
1.0
60
0
100
AcDbLine
10
120.03734305705
20
19.9492881374768
30
0.0
11
120.03734305705
21
0.0000001408832073
31
0.0
39
0.0
210
0.0
220
0.0
230
1.0
0
LINE
5
FE
330
70
100
AcDbEntity
67
0
8
IV_OUTER_PROFILE
62
256
6
ByLayer
370
-1
48
1.0
60
0
100
AcDbLine
10
24.4521171570499
20
0.0000001408832073
30
0.0
11
120.03734305705
21
0.0000001408832073
31
0.0
39
0.0
210
0.0
220
0.0
230
1.0
0
POINT
5
162
330
70
100
AcDbEntity
67
0
8
AutoDXF_SmallHoles_Points
62
256
6
ByLayer
370
-1
48
1.0
60
0
100
AcDbPoint
10
26.0403252451828
20
34.5359809544261
30
0.0
39
0.0
210
0.0
220
0.0
230
1.0
50
360.0
0
MTEXT
5
168
330
70
100
AcDbEntity
67
0
8
AutoDXF_BendInfo
62
256
6
ByLayer
370
-1
48
1.0
60
0
100
AcDbMText
10
62.000892262118
20
19.350995474016
30
0.0
210
0.0
220
0.0
230
1.0
1
90 - UP - R2,8
40
5.0
41
0.0
44
1.0
11
1.0
21
0.0
31
0.0
71
8
72
5
73
1
7
Standard
0
ENDSEC
0
SECTION
2
OBJECTS
0
DICTIONARY
5
16D
330
0
100
AcDbDictionary
280
1
281
1
3
ACAD_GROUP
350
D
3
ACAD_LAYOUT
350
62
3
ACAD_DGNDEFINITIONS
350
15B
3
ACAD_DWFDEFINITIONS
350
15C
3
ACAD_PDFDEFINITIONS
350
15D
3
ACAD_MLINESTYLE
350
5F
3
ACAD_IMAGE_DICT
350
15A
3
ACAD_IMAGE_VARS
350
15E
0
DICTIONARY
5
D
330
16D
100
AcDbDictionary
280
1
281
1
0
DICTIONARY
5
62
330
16D
100
AcDbDictionary
280
1
281
1
3
Layout1
350
6F
3
Layout2
350
77
3
Model
350
73
0
DICTIONARY
5
15B
330
16D
100
AcDbDictionary
280
1
281
1
0
DICTIONARY
5
15C
330
16D
100
AcDbDictionary
280
1
281
1
0
DICTIONARY
5
15D
330
16D
100
AcDbDictionary
280
1
281
1
0
DICTIONARY
5
5F
330
16D
100
AcDbDictionary
280
1
281
1
3
STANDARD
350
60
0
DICTIONARY
5
15A
330
16D
100
AcDbDictionary
280
1
281
1
0
DICTIONARY
5
158
330
2
100
AcDbDictionary
280
1
281
1
3
ACAD_LAYERSTATES
360
16E
0
DICTIONARY
5
16E
330
158
100
AcDbDictionary
280
1
281
1
0
LAYOUT
5
6F
330
62
100
AcDbPlotSettings
1

2

4

6

40
0.0
41
0.0
42
0.0
43
0.0
44
0.0
45
0.0
46
0.0
47
0.0
48
0.0
49
0.0
140
0.0
141
0.0
142
1.0
143
1.0
70
688
72
0
73
0
74
5
7

75
16
76
0
77
2
78
300
147
1.0
148
0.0
149
0.0
100
AcDbLayout
1
Layout1
71
1
10
0.0
20
0.0
11
12.0
21
9.0
12
0.0
22
0.0
32
0.0
14
0.0
24
0.0
34
0.0
15
0.0
25
0.0
35
0.0
146
0.0
13
0.0
23
0.0
33
0.0
16
1.0
26
0.0
36
0.0
17
0.0
27
1.0
37
0.0
76
0
330
6C
0
LAYOUT
5
77
330
62
100
AcDbPlotSettings
1

2

4

6

40
0.0
41
0.0
42
0.0
43
0.0
44
0.0
45
0.0
46
0.0
47
0.0
48
0.0
49
0.0
140
0.0
141
0.0
142
1.0
143
1.0
70
688
72
0
73
0
74
5
7

75
16
76
0
77
2
78
300
147
1.0
148
0.0
149
0.0
100
AcDbLayout
1
Layout2
71
2
10
0.0
20
0.0
11
12.0
21
9.0
12
0.0
22
0.0
32
0.0
14
0.0
24
0.0
34
0.0
15
0.0
25
0.0
35
0.0
146
0.0
13
0.0
23
0.0
33
0.0
16
1.0
26
0.0
36
0.0
17
0.0
27
1.0
37
0.0
76
0
330
74
0
LAYOUT
5
73
330
62
100
AcDbPlotSettings
1

2

4

6

40
0.0
41
0.0
42
0.0
43
0.0
44
0.0
45
0.0
46
0.0
47
0.0
48
0.0
49
0.0
140
0.0
141
0.0
142
1.0
143
1.0
70
1712
72
0
73
0
74
0
7

75
0
76
0
77
2
78
300
147
1.0
148
0.0
149
0.0
100
AcDbLayout
1
Model
71
3
10
0.0
20
0.0
11
12.0
21
9.0
12
0.0
22
0.0
32
0.0
14
0.0
24
0.0
34
0.0
15
0.0
25
0.0
35
0.0
146
0.0
13
0.0
23
0.0
33
0.0
16
1.0
26
0.0
36
0.0
17
0.0
27
1.0
37
0.0
76
0
330
70
0
MLINESTYLE
5
60
330
5F
100
AcDbMlineStyle
2
STANDARD
70
0
3

62
256
51
90.0
52
90.0
71
2
49
0.5
62
256
6
ByLayer
49
-0.5
62
256
6
ByLayer
0
RASTERVARIABLES
5
15E
330
15A
100
AcDbRasterVariables
90
0
70
1
71
1
72
0
0
ENDSEC
0
EOF
