999
autodxfXMIN:1,408832073E-07
999
autodxfXMAX:55,201990807148704
999
autodxfYMIN:0,6074365159562057
999
autodxfYMAX:121,7327465088764
0
SECTION
2
HEADER
9
$ACADVER
1
AC1015
9
$DWGCODEPAGE
3
ANSI_1251
9
$HANDSEED
5
152
9
$ANGBASE
50
0.0
9
$ANGDIR
70
0
9
$ATTMODE
70
1
9
$AUNITS
70
0
9
$AUPREC
70
0
9
$CECOLOR
62
256
9
$CELTSCALE
40
1.0
9
$CELTYPE
6
ByLayer
9
$CELWEIGHT
370
-1
9
$CLAYER
8
0
9
$CMLJUST
70
0
9
$CMLSCALE
40
1.0
9
$CMLSTYLE
2
Standard
9
$DIMSTYLE
2
Standard
9
$TEXTSIZE
40
0.2
9
$TEXTSTYLE
7
Standard
9
$LUNITS
70
2
9
$LUPREC
70
4
9
$MIRRTEXT
70
0
9
$EXTNAMES
290
1
9
$INSBASE
10
0.0
20
0.0
30
0.0
9
$INSUNITS
70
4
9
$LTSCALE
40
1.0
9
$LWDISPLAY
290
0
9
$PDMODE
70
0
9
$PDSIZE
40
0.0
9
$PLINEGEN
70
0
9
$PSLTSCALE
70
1
9
$SPLINESEGS
70
6
9
$SURFU
70
6
9
$SURFV
70
6
9
$TDCREATE
40
2460567.59597221
9
$TDUCREATE
40
2460567.47097221
9
$TDUPDATE
40
2460567.59597221
9
$TDUUPDATE
40
2460567.47097221
9
$TDINDWG
40
0.0
9
$UCSORG
10
0.0
20
0.0
30
0.0
9
$UCSXDIR
10
1.0
20
0.0
30
0.0
9
$UCSYDIR
10
0.0
20
1.0
30
0.0
9
$DIMADEC
70
0
9
$DIMALT
70
0
9
$DIMALTD
70
2
9
$DIMALTF
40
25.4
9
$DIMALTRND
40
0.0
9
$DIMALTTD
70
2
9
$DIMALTTZ
70
0
9
$DIMALTU
70
2
9
$DIMALTZ
70
0
9
$DIMAPOST
1

9
$DIMATFIT
70
3
9
$DIMAUNIT
70
0
9
$DIMASZ
40
0.18
9
$DIMAZIN
70
3
9
$DIMSAH
70
0
9
$DIMBLK
1

9
$DIMLDRBLK
1

9
$DIMCEN
40
0.09
9
$DIMCLRD
70
0
9
$DIMCLRE
70
0
9
$DIMCLRT
70
0
9
$DIMDEC
70
4
9
$DIMDLE
40
0.0
9
$DIMDLI
40
0.38
9
$DIMDSEP
70
46
9
$DIMEXE
40
0.18
9
$DIMEXO
40
0.0625
9
$DIMFXLON
70
0
9
$DIMFXL
40
1.0
9
$DIMGAP
40
0.09
9
$DIMJUST
70
0
9
$DIMLFAC
40
1.0
9
$DIMLUNIT
70
2
9
$DIMLWD
70
-2
9
$DIMLWE
70
-2
9
$DIMPOST
1

9
$DIMRND
40
0.0
9
$DIMSCALE
40
1.0
9
$DIMSD1
70
0
9
$DIMSD2
70
0
9
$DIMSE1
70
0
9
$DIMSE2
70
0
9
$DIMSOXD
70
0
9
$DIMTAD
70
0
9
$DIMTDEC
70
4
9
$DIMTFAC
40
1.0
9
$DIMTIH
70
0
9
$DIMTIX
70
0
9
$DIMTM
40
0.0
9
$DIMTMOVE
70
0
9
$DIMTOFL
70
0
9
$DIMTOH
70
0
9
$DIMTOL
70
0
9
$DIMLIM
70
0
9
$DIMTOLJ
70
1
9
$DIMTP
40
0.0
9
$DIMTXT
40
0.18
9
$DIMTXTDIRECTION
70
0
9
$DIMTZIN
70
0
9
$DIMZIN
70
0
9
$DIMFRAC
70
0
9
$DIMLTYPE
6
ByBlock
9
$DIMLTEX1
6
ByBlock
9
$DIMLTEX2
6
ByBlock
9
$EXTMIN
10
0.0
20
0.0
30
0.0
9
$EXTMAX
10
176.136207649297
20
184.690447851304
30
0.0
9
$LIMMIN
10
0.0
20
0.0
9
$LIMMAX
10
176.136207649297
20
184.690447851304
9
$ORTHOMODE
70
0
9
$REGENMODE
70
1
9
$FILLMODE
70
1
9
$QTEXTMODE
70
0
9
$TRACEWID
40
0.05
9
$DISPSILH
70
0
9
$SKETCHINC
40
0.1
9
$FILLETRAD
40
0.0
9
$MENU
1
.
9
$ELEVATION
40
0.0
9
$PELEVATION
40
0.0
9
$THICKNESS
40
0.0
9
$LIMCHECK
70
0
9
$CHAMFERA
40
0.0
9
$CHAMFERB
40
0.0
9
$CHAMFERC
40
0.0
9
$CHAMFERD
40
0.0
9
$SKPOLY
70
0
9
$TDUSRTIMER
40
0.0
9
$USRTIMER
70
1
9
$PLINEWID
40
0.0
9
$SPLFRAME
70
0
9
$SPLINETYPE
70
6
9
$SURFTAB1
70
6
9
$SURFTAB2
70
6
9
$SURFTYPE
70
6
9
$UCSBASE
2

9
$UCSNAME
2

9
$UCSORTHOREF
2

9
$UCSORTHOVIEW
70
0
9
$UCSORGTOP
10
0.0
20
0.0
30
0.0
9
$UCSORGBOTTOM
10
0.0
20
0.0
30
0.0
9
$UCSORGLEFT
10
0.0
20
0.0
30
0.0
9
$UCSORGRIGHT
10
0.0
20
0.0
30
0.0
9
$UCSORGFRONT
10
0.0
20
0.0
30
0.0
9
$UCSORGBACK
10
0.0
20
0.0
30
0.0
9
$PUCSBASE
2

9
$PUCSNAME
2

9
$PUCSORG
10
0.0
20
0.0
30
0.0
9
$PUCSXDIR
10
1.0
20
0.0
30
0.0
9
$PUCSYDIR
10
0.0
20
1.0
30
0.0
9
$PUCSORTHOREF
2

9
$PUCSORTHOVIEW
70
0
9
$PUCSORGTOP
10
0.0
20
0.0
30
0.0
9
$PUCSORGBOTTOM
10
0.0
20
0.0
30
0.0
9
$PUCSORGLEFT
10
0.0
20
0.0
30
0.0
9
$PUCSORGRIGHT
10
0.0
20
0.0
30
0.0
9
$PUCSORGFRONT
10
0.0
20
0.0
30
0.0
9
$PUCSORGBACK
10
0.0
20
0.0
30
0.0
9
$USERI1
70
0
9
$USERI2
70
0
9
$USERI3
70
0
9
$USERI4
70
0
9
$USERI5
70
0
9
$USERR1
40
0.0
9
$USERR2
40
0.0
9
$USERR3
40
0.0
9
$USERR4
40
0.0
9
$USERR5
40
0.0
9
$WORLDVIEW
70
1
9
$SHADEDGE
70
3
9
$SHADEDIF
70
70
9
$TILEMODE
70
1
9
$MAXACTVP
70
64
9
$PINSBASE
10
0.0
20
0.0
30
0.0
9
$PLIMCHECK
70
0
9
$PEXTMIN
10
0.0
20
0.0
30
0.0
9
$PEXTMAX
10
176.136207649297
20
184.690447851304
30
0.0
9
$PLIMMIN
10
0.0
20
0.0
9
$PLIMMAX
10
176.136207649297
20
184.690447851304
9
$UNITMODE
70
0
9
$VISRETAIN
70
1
9
$TREEDEPTH
70
3020
9
$PROXYGRAPHICS
70
1
9
$MEASUREMENT
70
1
9
$ENDCAPS
280
0
9
$JOINSTYLE
280
0
9
$HYPERLINKBASE
1

9
$STYLESHEET
1

9
$XEDIT
290
1
9
$CEPSNTYPE
380
0
9
$PSTYLEMODE
290
1
9
$FINGERPRINTGUID
2
{3350C828-4846-004A-B47A-39643F024F48}
9
$VERSIONGUID
2
{86ED3D25-1B30-904D-B6C6-DA77A5488936}
9
$PSVPSCALE
40
0.0
9
$OLESTARTUP
290
0
0
ENDSEC
0
SECTION
2
CLASSES
0
CLASS
1
RASTERVARIABLES
2
AcDbRasterVariables
3
ISM
90
0
280
0
281
0
0
ENDSEC
0
SECTION
2
TABLES
0
TABLE
2
APPID
5
9
330
0
100
AcDbSymbolTable
70
7
0
APPID
5
56
330
9
100
AcDbSymbolTableRecord
100
AcDbRegAppTableRecord
2
ACAD
70
0
0
APPID
5
5E
330
9
100
AcDbSymbolTableRecord
100
AcDbRegAppTableRecord
2
AcadAnnotative
70
0
0
APPID
5
12C
330
9
100
AcDbSymbolTableRecord
100
AcDbRegAppTableRecord
2
ACAD_MLEADERVER
70
0
0
APPID
5
14C
330
9
100
AcDbSymbolTableRecord
100
AcDbRegAppTableRecord
2
AcCmTransparency
70
0
0
APPID
5
14D
330
9
100
AcDbSymbolTableRecord
100
AcDbRegAppTableRecord
2
AcAecLayerStandard
70
0
0
APPID
5
14E
330
9
100
AcDbSymbolTableRecord
100
AcDbRegAppTableRecord
2
GradientColor1ACI
70
0
0
APPID
5
14F
330
9
100
AcDbSymbolTableRecord
100
AcDbRegAppTableRecord
2
GradientColor2ACI
70
0
0
ENDTAB
0
TABLE
2
VPORT
5
8
330
0
100
AcDbSymbolTable
70
1
0
VPORT
5
13D
330
8
100
AcDbSymbolTableRecord
100
AcDbViewportTableRecord
2
*Active
70
0
10
0.0
20
0.0
11
1.0
21
1.0
12
27.600995474016
22
61.1700915124163
13
0.0
23
0.0
14
0.5
24
0.5
15
10.0
25
10.0
16
0.0
26
0.0
36
1.0
17
0.0
27
0.0
37
0.0
40
133.243
41
1.0
75
0
76
1
0
ENDTAB
0
TABLE
2
LTYPE
5
5
330
0
100
AcDbSymbolTable
70
48
0
LTYPE
5
5B
330
5
100
AcDbSymbolTableRecord
100
AcDbLinetypeTableRecord
2
ByBlock
70
0
3

72
65
73
0
40
0.0
0
LTYPE
5
5C
330
5
100
AcDbSymbolTableRecord
100
AcDbLinetypeTableRecord
2
ByLayer
70
0
3

72
65
73
0
40
0.0
0
LTYPE
5
5D
330
5
100
AcDbSymbolTableRecord
100
AcDbLinetypeTableRecord
2
Continuous
70
0
3
Solid line
72
65
73
0
40
0.0
0
LTYPE
5
78
330
5
100
AcDbSymbolTableRecord
100
AcDbLinetypeTableRecord
2
BORDER
70
0
3
Border __ __ . __ __ . __ __ . __ __ . __ __ .
72
65
73
6
40
1.75
49
0.5
74
0
49
-0.25
74
0
49
0.5
74
0
49
-0.25
74
0
49
0.0
74
0
49
-0.25
74
0
0
LTYPE
5
79
330
5
100
AcDbSymbolTableRecord
100
AcDbLinetypeTableRecord
2
BORDER2
70
0
3
Border (.5x) __.__.__.__.__.__.__.__.__.__.__.
72
65
73
6
40
0.875
49
0.25
74
0
49
-0.125
74
0
49
0.25
74
0
49
-0.125
74
0
49
0.0
74
0
49
-0.125
74
0
0
LTYPE
5
7A
330
5
100
AcDbSymbolTableRecord
100
AcDbLinetypeTableRecord
2
BORDERX2
70
0
3
Border (2x) ____  ____  .  ____  ____  .  ___
72
65
73
6
40
3.5
49
1.0
74
0
49
-0.5
74
0
49
1.0
74
0
49
-0.5
74
0
49
0.0
74
0
49
-0.5
74
0
0
LTYPE
5
7B
330
5
100
AcDbSymbolTableRecord
100
AcDbLinetypeTableRecord
2
CENTER
70
0
3
Center ____ _ ____ _ ____ _ ____ _ ____ _ ____
72
65
73
4
40
2.0
49
1.25
74
0
49
-0.25
74
0
49
0.25
74
0
49
-0.25
74
0
0
LTYPE
5
7C
330
5
100
AcDbSymbolTableRecord
100
AcDbLinetypeTableRecord
2
CENTER2
70
0
3
Center (.5x) ___ _ ___ _ ___ _ ___ _ ___ _ ___
72
65
73
4
40
1.125
49
0.75
74
0
49
-0.125
74
0
49
0.125
74
0
49
-0.125
74
0
0
LTYPE
5
7D
330
5
100
AcDbSymbolTableRecord
100
AcDbLinetypeTableRecord
2
CENTERX2
70
0
3
Center (2x) ________  __  ________  __  _____
72
65
73
4
40
4.0
49
2.5
74
0
49
-0.5
74
0
49
0.5
74
0
49
-0.5
74
0
0
LTYPE
5
7E
330
5
100
AcDbSymbolTableRecord
100
AcDbLinetypeTableRecord
2
DASHDOT
70
0
3
Dash dot __ . __ . __ . __ . __ . __ . __ . __
72
65
73
4
40
1.0
49
0.5
74
0
49
-0.25
74
0
49
0.0
74
0
49
-0.25
74
0
0
LTYPE
5
7F
330
5
100
AcDbSymbolTableRecord
100
AcDbLinetypeTableRecord
2
DASHDOT2
70
0
3
Dash dot (.5x) _._._._._._._._._._._._._._._.
72
65
73
4
40
0.5
49
0.25
74
0
49
-0.125
74
0
49
0.0
74
0
49
-0.125
74
0
0
LTYPE
5
80
330
5
100
AcDbSymbolTableRecord
100
AcDbLinetypeTableRecord
2
DASHDOTX2
70
0
3
Dash dot (2x) ____  .  ____  .  ____  .  ___
72
65
73
4
40
2.0
49
1.0
74
0
49
-0.5
74
0
49
0.0
74
0
49
-0.5
74
0
0
LTYPE
5
81
330
5
100
AcDbSymbolTableRecord
100
AcDbLinetypeTableRecord
2
DASHED
70
0
3
Dashed __ __ __ __ __ __ __ __ __ __ __ __ __ _
72
65
73
2
40
0.75
49
0.5
74
0
49
-0.25
74
0
0
LTYPE
5
82
330
5
100
AcDbSymbolTableRecord
100
AcDbLinetypeTableRecord
2
DASHED2
70
0
3
Dashed (.5x) _ _ _ _ _ _ _ _ _ _ _ _ _ _ _ _ _
72
65
73
2
40
0.375
49
0.25
74
0
49
-0.125
74
0
0
LTYPE
5
83
330
5
100
AcDbSymbolTableRecord
100
AcDbLinetypeTableRecord
2
DASHEDX2
70
0
3
Dashed (2x) ____  ____  ____  ____  ____  ___
72
65
73
2
40
1.5
49
1.0
74
0
49
-0.5
74
0
0
LTYPE
5
84
330
5
100
AcDbSymbolTableRecord
100
AcDbLinetypeTableRecord
2
DIVIDE
70
0
3
Divide ____ . . ____ . . ____ . . ____ . . ____
72
65
73
6
40
1.25
49
0.5
74
0
49
-0.25
74
0
49
0.0
74
0
49
-0.25
74
0
49
0.0
74
0
49
-0.25
74
0
0
LTYPE
5
85
330
5
100
AcDbSymbolTableRecord
100
AcDbLinetypeTableRecord
2
DIVIDE2
70
0
3
Divide (.5x) __..__..__..__..__..__..__..__.._
72
65
73
6
40
0.625
49
0.25
74
0
49
-0.125
74
0
49
0.0
74
0
49
-0.125
74
0
49
0.0
74
0
49
-0.125
74
0
0
LTYPE
5
86
330
5
100
AcDbSymbolTableRecord
100
AcDbLinetypeTableRecord
2
DIVIDEX2
70
0
3
Divide (2x) ________  .  .  ________  .  .  _
72
65
73
6
40
2.5
49
1.0
74
0
49
-0.5
74
0
49
0.0
74
0
49
-0.5
74
0
49
0.0
74
0
49
-0.5
74
0
0
LTYPE
5
87
330
5
100
AcDbSymbolTableRecord
100
AcDbLinetypeTableRecord
2
DOT
70
0
3
Dot . . . . . . . . . . . . . . . . . . . . . .
72
65
73
2
40
0.25
49
0.0
74
0
49
-0.25
74
0
0
LTYPE
5
88
330
5
100
AcDbSymbolTableRecord
100
AcDbLinetypeTableRecord
2
DOT2
70
0
3
Dot (.5x) .....................................
72
65
73
2
40
0.125
49
0.0
74
0
49
-0.125
74
0
0
LTYPE
5
89
330
5
100
AcDbSymbolTableRecord
100
AcDbLinetypeTableRecord
2
DOTX2
70
0
3
Dot (2x) .  .  .  .  .  .  .  .  .  .  .  .  . 
72
65
73
2
40
0.5
49
0.0
74
0
49
-0.5
74
0
0
LTYPE
5
8A
330
5
100
AcDbSymbolTableRecord
100
AcDbLinetypeTableRecord
2
HIDDEN
70
0
3
Hidden __ __ __ __ __ __ __ __ __ __ __ __ __ _
72
65
73
2
40
0.375
49
0.25
74
0
49
-0.125
74
0
0
LTYPE
5
8B
330
5
100
AcDbSymbolTableRecord
100
AcDbLinetypeTableRecord
2
HIDDEN2
70
0
3
Hidden (.5x) _ _ _ _ _ _ _ _ _ _ _ _ _ _ _ _ _
72
65
73
2
40
0.1875
49
0.125
74
0
49
-0.0625
74
0
0
LTYPE
5
8C
330
5
100
AcDbSymbolTableRecord
100
AcDbLinetypeTableRecord
2
HIDDENX2
70
0
3
Hidden (2x) ____ ____ ____ ____ ____ ____ ____
72
65
73
2
40
0.75
49
0.5
74
0
49
-0.25
74
0
0
LTYPE
5
8D
330
5
100
AcDbSymbolTableRecord
100
AcDbLinetypeTableRecord
2
PHANTOM
70
0
3
Phantom ______  __  __  ______  __  __  ______
72
65
73
6
40
2.5
49
1.25
74
0
49
-0.25
74
0
49
0.25
74
0
49
-0.25
74
0
49
0.25
74
0
49
-0.25
74
0
0
LTYPE
5
8E
330
5
100
AcDbSymbolTableRecord
100
AcDbLinetypeTableRecord
2
PHANTOM2
70
0
3
Phantom (.5x) ___ _ _ ___ _ _ ___ _ _ ___ _ _
72
65
73
6
40
1.25
49
0.625
74
0
49
-0.125
74
0
49
0.125
74
0
49
-0.125
74
0
49
0.125
74
0
49
-0.125
74
0
0
LTYPE
5
8F
330
5
100
AcDbSymbolTableRecord
100
AcDbLinetypeTableRecord
2
PHANTOMX2
70
0
3
Phantom (2x) ____________    ____    ____   _
72
65
73
6
40
5.0
49
2.5
74
0
49
-0.5
74
0
49
0.5
74
0
49
-0.5
74
0
49
0.5
74
0
49
-0.5
74
0
0
LTYPE
5
90
330
5
100
AcDbSymbolTableRecord
100
AcDbLinetypeTableRecord
2
ACAD_ISO02W100
70
0
3
ISO dash __ __ __ __ __ __ __ __ __ __ __ __ __
72
65
73
2
40
15.0
49
12.0
74
0
49
-3.0
74
0
0
LTYPE
5
91
330
5
100
AcDbSymbolTableRecord
100
AcDbLinetypeTableRecord
2
ACAD_ISO03W100
70
0
3
ISO dash space __    __    __    __    __    __
72
65
73
2
40
30.0
49
12.0
74
0
49
-18.0
74
0
0
LTYPE
5
92
330
5
100
AcDbSymbolTableRecord
100
AcDbLinetypeTableRecord
2
ACAD_ISO04W100
70
0
3
ISO long-dash dot ____ . ____ . ____ . ____ . _
72
65
73
4
40
30.0
49
24.0
74
0
49
-3.0
74
0
49
0.0
74
0
49
-3.0
74
0
0
LTYPE
5
93
330
5
100
AcDbSymbolTableRecord
100
AcDbLinetypeTableRecord
2
ACAD_ISO05W100
70
0
3
ISO long-dash double-dot ____ .. ____ .. ____ .
72
65
73
6
40
33.0
49
24.0
74
0
49
-3.0
74
0
49
0.0
74
0
49
-3.0
74
0
49
0.0
74
0
49
-3.0
74
0
0
LTYPE
5
94
330
5
100
AcDbSymbolTableRecord
100
AcDbLinetypeTableRecord
2
ACAD_ISO06W100
70
0
3
ISO long-dash triple-dot ____ ... ____ ... ____
72
65
73
8
40
36.0
49
24.0
74
0
49
-3.0
74
0
49
0.0
74
0
49
-3.0
74
0
49
0.0
74
0
49
-3.0
74
0
49
0.0
74
0
49
-3.0
74
0
0
LTYPE
5
95
330
5
100
AcDbSymbolTableRecord
100
AcDbLinetypeTableRecord
2
ACAD_ISO07W100
70
0
3
ISO dot . . . . . . . . . . . . . . . . . . . .
72
65
73
2
40
3.0
49
0.0
74
0
49
-3.0
74
0
0
LTYPE
5
96
330
5
100
AcDbSymbolTableRecord
100
AcDbLinetypeTableRecord
2
ACAD_ISO08W100
70
0
3
ISO long-dash short-dash ____ __ ____ __ ____ _
72
65
73
4
40
36.0
49
24.0
74
0
49
-3.0
74
0
49
6.0
74
0
49
-3.0
74
0
0
LTYPE
5
97
330
5
100
AcDbSymbolTableRecord
100
AcDbLinetypeTableRecord
2
ACAD_ISO09W100
70
0
3
ISO long-dash double-short-dash ____ __ __ ____
72
65
73
6
40
45.0
49
24.0
74
0
49
-3.0
74
0
49
6.0
74
0
49
-3.0
74
0
49
6.0
74
0
49
-3.0
74
0
0
LTYPE
5
98
330
5
100
AcDbSymbolTableRecord
100
AcDbLinetypeTableRecord
2
ACAD_ISO10W100
70
0
3
ISO dash dot __ . __ . __ . __ . __ . __ . __ .
72
65
73
4
40
18.0
49
12.0
74
0
49
-3.0
74
0
49
0.0
74
0
49
-3.0
74
0
0
LTYPE
5
99
330
5
100
AcDbSymbolTableRecord
100
AcDbLinetypeTableRecord
2
ACAD_ISO11W100
70
0
3
ISO double-dash dot __ __ . __ __ . __ __ . __ 
72
65
73
6
40
33.0
49
12.0
74
0
49
-3.0
74
0
49
12.0
74
0
49
-3.0
74
0
49
0.0
74
0
49
-3.0
74
0
0
LTYPE
5
9A
330
5
100
AcDbSymbolTableRecord
100
AcDbLinetypeTableRecord
2
ACAD_ISO12W100
70
0
3
ISO dash double-dot __ . . __ . . __ . . __ . .
72
65
73
6
40
21.0
49
12.0
74
0
49
-3.0
74
0
49
0.0
74
0
49
-3.0
74
0
49
0.0
74
0
49
-3.0
74
0
0
LTYPE
5
9B
330
5
100
AcDbSymbolTableRecord
100
AcDbLinetypeTableRecord
2
ACAD_ISO13W100
70
0
3
ISO double-dash double-dot __ __ . . __ __ . . 
72
65
73
8
40
36.0
49
12.0
74
0
49
-3.0
74
0
49
12.0
74
0
49
-3.0
74
0
49
0.0
74
0
49
-3.0
74
0
49
0.0
74
0
49
-3.0
74
0
0
LTYPE
5
9C
330
5
100
AcDbSymbolTableRecord
100
AcDbLinetypeTableRecord
2
ACAD_ISO14W100
70
0
3
ISO dash triple-dot __ . . . __ . . . __ . . . 
72
65
73
8
40
24.0
49
12.0
74
0
49
-3.0
74
0
49
0.0
74
0
49
-3.0
74
0
49
0.0
74
0
49
-3.0
74
0
49
0.0
74
0
49
-3.0
74
0
0
LTYPE
5
9D
330
5
100
AcDbSymbolTableRecord
100
AcDbLinetypeTableRecord
2
ACAD_ISO15W100
70
0
3
ISO double-dash triple-dot __ __ . . . __ __ . 
72
65
73
10
40
39.0
49
12.0
74
0
49
-3.0
74
0
49
12.0
74
0
49
-3.0
74
0
49
0.0
74
0
49
-3.0
74
0
49
0.0
74
0
49
-3.0
74
0
49
0.0
74
0
49
-3.0
74
0
0
LTYPE
5
A0
330
5
100
AcDbSymbolTableRecord
100
AcDbLinetypeTableRecord
2
FENCELINE1
70
0
3
Fenceline circle ----0-----0----0-----0----0---
72
65
73
3
40
1.35
49
0.25
74
0
49
-0.1
74
0
49
1.0
74
0
0
LTYPE
5
A1
330
5
100
AcDbSymbolTableRecord
100
AcDbLinetypeTableRecord
2
FENCELINE2
70
0
3
Fenceline square ----[]-----[]----[]-----[]----
72
65
73
3
40
1.35
49
0.25
74
0
49
-0.1
74
0
49
1.0
74
0
0
LTYPE
5
A2
330
5
100
AcDbSymbolTableRecord
100
AcDbLinetypeTableRecord
2
TRACKS
70
0
3
Tracks -|-|-|-|-|-|-|-|-|-|-|-|-|-|-|-|-|-|-|-|
72
65
73
1
40
0.15
49
0.15
74
0
0
LTYPE
5
A3
330
5
100
AcDbSymbolTableRecord
100
AcDbLinetypeTableRecord
2
BATTING
70
0
3
Batting SSSSSSSSSSSSSSSSSSSSSSSSSSSSSSSSSSSSSSS
72
65
73
2
40
0.1001
49
0.0001
74
0
49
-0.1
74
0
0
LTYPE
5
A4
330
5
100
AcDbSymbolTableRecord
100
AcDbLinetypeTableRecord
2
HOT_WATER_SUPPLY
70
0
3
Hot water supply ---- HW ---- HW ---- HW ----
72
65
73
3
40
0.9
49
0.5
74
0
49
-0.2
74
2
75
0
340
55
46
0.1
50
0.0
44
-0.1
45
-0.05
9
HW
49
-0.2
74
0
0
LTYPE
5
A5
330
5
100
AcDbSymbolTableRecord
100
AcDbLinetypeTableRecord
2
GAS_LINE
70
0
3
Gas line ----GAS----GAS----GAS----GAS----GAS---
72
65
73
3
40
0.95
49
0.5
74
0
49
-0.2
74
2
75
0
340
55
46
0.1
50
0.0
44
-0.1
45
-0.05
9
GAS
49
-0.25
74
0
0
LTYPE
5
A6
330
5
100
AcDbSymbolTableRecord
100
AcDbLinetypeTableRecord
2
ZIGZAG
70
0
3
Zig zag /\/\/\/\/\/\/\/\/\/\/\/\/\/\/\/\/\/\/\/
72
65
73
2
40
0.2001
49
0.0001
74
0
49
-0.2
74
0
0
ENDTAB
0
TABLE
2
LAYER
5
2
102
{ACAD_XDICTIONARY
360
13E
102
}
330
0
100
AcDbSymbolTable
70
6
0
LAYER
5
54
330
2
100
AcDbSymbolTableRecord
100
AcDbLayerTableRecord
2
0
70
0
62
7
6
Continuous
290
1
370
-3
390
0
0
LAYER
5
A7
330
2
100
AcDbSymbolTableRecord
100
AcDbLayerTableRecord
2
IV_OUTER_PROFILE
70
0
62
7
6
Continuous
290
1
370
5
390
0
0
LAYER
5
A8
330
2
100
AcDbSymbolTableRecord
100
AcDbLayerTableRecord
2
IV_MARK_SURFACE
70
0
62
2
6
Continuous
290
1
370
25
390
0
0
LAYER
5
148
330
2
100
AcDbSymbolTableRecord
100
AcDbLayerTableRecord
2
AutoDXF_BendInfo
70
0
62
-3
6
Continuous
290
1
370
-3
390
0
0
LAYER
5
149
330
2
100
AcDbSymbolTableRecord
100
AcDbLayerTableRecord
2
IV_BEND
70
0
62
250
6
Continuous
290
1
370
50
390
0
0
LAYER
5
14A
330
2
100
AcDbSymbolTableRecord
100
AcDbLayerTableRecord
2
IV_BEND_DOWN
70
0
62
250
6
Continuous
290
1
370
50
390
0
0
ENDTAB
0
TABLE
2
STYLE
5
3
330
0
100
AcDbSymbolTable
70
2
0
STYLE
5
55
330
3
100
AcDbSymbolTableRecord
100
AcDbTextStyleTableRecord
2
Standard
3
txt.SHX
70
0
71
0
40
0.0
41
1.0
42
0.0
50
0.0
0
STYLE
5
5A
330
3
100
AcDbSymbolTableRecord
100
AcDbTextStyleTableRecord
2
Annotative
3
txt.SHX
70
0
71
0
40
0.0
41
1.0
42
0.0
50
0.0
1001
AcadAnnotative
1000
AnnotativeData
1002
{
1070
1
1070
1
1002
}
0
STYLE
5
9F
330
13F
100
AcDbSymbolTableRecord
100
AcDbTextStyleTableRecord
2

3
ltypeshp.shx
70
1
40
0.0
41
1.0
42
0.0
50
0.0
0
ENDTAB
0
TABLE
2
DIMSTYLE
5
A
330
0
100
AcDbSymbolTable
70
2
100
AcDbDimStyleTable
0
DIMSTYLE
105
58
330
A
100
AcDbSymbolTableRecord
100
AcDbDimStyleTableRecord
2
Standard
3

4

40
1.0
41
0.18
42
0.0625
43
0.38
44
0.18
45
0.0
46
0.0
47
0.0
48
0.0
49
1.0
70
0
71
0
72
0
73
0
74
0
75
0
76
0
77
0
78
0
79
3
140
0.18
141
0.09
143
25.4
144
1.0
146
1.0
147
0.09
148
0.0
170
0
171
2
172
0
174
0
175
0
176
0
177
0
178
0
179
0
271
4
272
4
273
2
274
2
275
0
276
0
277
2
278
46
279
0
280
0
281
0
282
0
283
1
284
0
285
0
286
0
289
3
290
0
294
0
340
55
173
0
345
5B
346
5B
347
5B
371
-2
372
-2
0
DIMSTYLE
105
59
330
A
100
AcDbSymbolTableRecord
100
AcDbDimStyleTableRecord
2
Annotative
3

4

40
1.0
41
0.18
42
0.0625
43
0.38
44
0.18
45
0.0
46
0.0
47
0.0
48
0.0
49
1.0
70
0
71
0
72
0
73
0
74
0
75
0
76
0
77
0
78
0
79
3
140
0.18
141
0.09
143
25.4
144
1.0
146
1.0
147
0.09
148
0.0
170
0
171
2
172
0
174
0
175
0
176
0
177
0
178
0
179
0
271
4
272
4
273
2
274
2
275
0
276
0
277
2
278
46
279
0
280
0
281
0
282
0
283
1
284
0
285
0
286
0
289
3
290
0
294
0
340
55
173
0
345
5B
346
5B
347
5B
371
-2
372
-2
1001
AcadAnnotative
1000
AnnotativeData
1002
{
1070
1
1070
1
1002
}
0
ENDTAB
0
TABLE
2
VIEW
5
6
330
0
100
AcDbSymbolTable
70
0
0
ENDTAB
0
TABLE
2
UCS
5
7
330
0
100
AcDbSymbolTable
70
0
0
ENDTAB
0
TABLE
2
BLOCK_RECORD
5
1
330
0
100
AcDbSymbolTable
70
3
0
BLOCK_RECORD
5
70
330
1
100
AcDbSymbolTableRecord
100
AcDbBlockTableRecord
2
*Model_Space
340
73
0
BLOCK_RECORD
5
6C
330
1
100
AcDbSymbolTableRecord
100
AcDbBlockTableRecord
2
*Paper_Space
340
6F
0
BLOCK_RECORD
5
74
330
1
100
AcDbSymbolTableRecord
100
AcDbBlockTableRecord
2
*Paper_Space0
340
77
0
ENDTAB
0
ENDSEC
0
SECTION
2
BLOCKS
0
BLOCK
5
71
330
70
100
AcDbEntity
67
0
8
0
100
AcDbBlockBegin
2
*Model_Space
70
0
10
0.0
20
0.0
30
0.0
3
*Model_Space
4

0
ENDBLK
5
72
330
70
100
AcDbEntity
8
0
100
AcDbBlockEnd
0
BLOCK
5
6D
330
6C
100
AcDbEntity
67
1
8
0
100
AcDbBlockBegin
2
*Paper_Space
70
0
10
0.0
20
0.0
30
0.0
3
*Paper_Space
4

0
ENDBLK
5
6E
330
6C
100
AcDbEntity
8
0
100
AcDbBlockEnd
0
BLOCK
5
75
330
74
100
AcDbEntity
67
1
8
0
100
AcDbBlockBegin
2
*Paper_Space0
70
0
10
0.0
20
0.0
30
0.0
3
*Paper_Space0
4

0
VIEWPORT
5
146
330
74
100
AcDbEntity
67
1
8
0
62
256
6
ByLayer
370
-1
48
1.0
60
0
100
AcDbViewport
10
0.0
20
0.0
30
0.0
40
297.0
41
210.0
68
1
69
1
12
50.0
22
100.0
13
0.0
23
0.0
14
10.0
24
10.0
15
10.0
25
10.0
16
0.0
26
0.0
36
1.0
17
0.0
27
0.0
37
0.0
42
50.0
43
0.0
44
0.0
45
250.0
50
0.0
51
0.0
72
1000
90
819232
110
0.0
120
0.0
130
0.0
111
1.0
121
0.0
131
0.0
112
0.0
122
1.0
132
0.0
0
ENDBLK
5
76
330
74
100
AcDbEntity
8
0
100
AcDbBlockEnd
0
ENDSEC
0
SECTION
2
ENTITIES
0
VIEWPORT
5
145
330
6C
100
AcDbEntity
67
1
8
0
62
256
6
ByLayer
370
-1
48
1.0
60
0
100
AcDbViewport
10
0.0
20
0.0
30
0.0
40
297.0
41
210.0
68
1
69
1
12
50.0
22
100.0
13
0.0
23
0.0
14
10.0
24
10.0
15
10.0
25
10.0
16
0.0
26
0.0
36
1.0
17
0.0
27
0.0
37
0.0
42
50.0
43
0.0
44
0.0
45
250.0
50
0.0
51
0.0
72
1000
90
819232
110
0.0
120
0.0
130
0.0
111
1.0
121
0.0
131
0.0
112
0.0
122
1.0
132
0.0
0
LINE
5
AA
330
70
100
AcDbEntity
67
0
8
IV_BEND
62
256
6
ByLayer
370
-1
48
1.0
60
0
100
AcDbLine
10
18.1009954740159
20
3.95670256305214
30
0.0
11
18.100995474016
21
121.732746508876
31
0.0
39
0.0
210
0.0
220
0.0
230
1.0
0
LINE
5
AC
330
70
100
AcDbEntity
67
0
8
IV_MARK_SURFACE
62
256
6
ByLayer
370
-1
48
1.0
60
0
100
AcDbLine
10
44.2582031766486
20
77.3913912921527
30
0.0
11
42.0359809544264
21
77.3913912921527
31
0.0
39
0.0
210
0.0
220
0.0
230
1.0
0
LINE
5
AD
330
70
100
AcDbEntity
67
0
8
IV_MARK_SURFACE
62
256
6
ByLayer
370
-1
48
1.0
60
0
100
AcDbLine
10
42.0359809544264
20
73.5025024032639
30
0.0
11
42.0359809544264
21
77.3913912921527
31
0.0
39
0.0
210
0.0
220
0.0
230
1.0
0
LINE
5
AE
330
70
100
AcDbEntity
67
0
8
IV_MARK_SURFACE
62
256
6
ByLayer
370
-1
48
1.0
60
0
100
AcDbLine
10
34.2582031766486
20
75.7247246254861
30
0.0
11
42.0359809544264
21
73.5025024032639
31
0.0
39
0.0
210
0.0
220
0.0
230
1.0
0
LINE
5
AF
330
70
100
AcDbEntity
67
0
8
IV_MARK_SURFACE
62
256
6
ByLayer
370
-1
48
1.0
60
0
100
AcDbLine
10
42.0359809544264
20
77.3913912921527
30
0.0
11
39.8137587322042
21
77.3913912921527
31
0.0
39
0.0
210
0.0
220
0.0
230
1.0
0
LINE
5
B0
330
70
100
AcDbEntity
67
0
8
IV_MARK_SURFACE
62
256
6
ByLayer
370
-1
48
1.0
60
0
100
AcDbLine
10
42.0359809544264
20
77.3913912921527
30
0.0
11
42.0359809544264
21
79.0580579588193
31
0.0
39
0.0
210
0.0
220
0.0
230
1.0
0
LINE
5
B1
330
70
100
AcDbEntity
67
0
8
IV_MARK_SURFACE
62
256
6
ByLayer
370
-1
48
1.0
60
0
100
AcDbLine
10
44.2582031766486
20
70.1691690699304
30
0.0
11
44.2582031766486
21
65.7247246254859
31
0.0
39
0.0
210
0.0
220
0.0
230
1.0
0
LINE
5
B2
330
70
100
AcDbEntity
67
0
8
IV_MARK_SURFACE
62
256
6
ByLayer
370
-1
48
1.0
60
0
100
AcDbLine
10
44.2582031766486
20
65.7247246254859
30
0.0
11
38.1470920655375
21
69.6136135143749
31
0.0
39
0.0
210
0.0
220
0.0
230
1.0
0
ARC
5
B3
330
70
100
AcDbEntity
67
0
8
IV_MARK_SURFACE
62
256
6
ByLayer
370
-1
48
1.0
60
0
100
AcDbCircle
39
0.0
10
36.3577657313293
20
67.1785303997642
30
0.0
40
3.02180715886257
210
0.0
220
0.0
230
1.0
100
AcDbArc
50
53.6911376697105
51
98.2363753944371
0
ARC
5
B4
330
70
100
AcDbEntity
67
0
8
IV_MARK_SURFACE
62
256
6
ByLayer
370
-1
48
1.0
60
0
100
AcDbCircle
39
0.0
10
36.5791038535377
20
67.9469468477082
30
0.0
40
2.31652622369572
210
0.0
220
0.0
230
1.0
100
AcDbArc
50
106.404708489251
51
253.595291510749
0
ARC
5
B5
330
70
100
AcDbEntity
67
0
8
IV_MARK_SURFACE
62
256
6
ByLayer
370
-1
48
1.0
60
0
100
AcDbCircle
39
0.0
10
36.4804253988708
20
60.1691690699304
30
0.0
40
2.22222222222222
210
0.0
220
0.0
230
1.0
100
AcDbArc
50
0.0
51
180.0
0
LINE
5
B6
330
70
100
AcDbEntity
67
0
8
IV_MARK_SURFACE
62
256
6
ByLayer
370
-1
48
1.0
60
0
100
AcDbLine
10
34.2582031766486
20
60.1691690699304
30
0.0
11
34.2582031766486
21
57.9469468477082
31
0.0
39
0.0
210
0.0
220
0.0
230
1.0
0
LINE
5
B7
330
70
100
AcDbEntity
67
0
8
IV_MARK_SURFACE
62
256
6
ByLayer
370
-1
48
1.0
60
0
100
AcDbLine
10
44.2582031766486
20
44.6136135143748
30
0.0
11
44.2582031766486
21
42.3913912921526
31
0.0
39
0.0
210
0.0
220
0.0
230
1.0
0
ARC
5
B8
330
70
100
AcDbEntity
67
0
8
IV_MARK_SURFACE
62
256
6
ByLayer
370
-1
48
1.0
60
0
100
AcDbCircle
39
0.0
10
42.0359809544263
20
42.3913912921526
30
0.0
40
2.22222222222222
210
0.0
220
0.0
230
1.0
100
AcDbArc
50
270.0
51
0.0
0
LINE
5
B9
330
70
100
AcDbEntity
67
0
8
IV_MARK_SURFACE
62
256
6
ByLayer
370
-1
48
1.0
60
0
100
AcDbLine
10
42.0359809544263
20
40.1691690699304
30
0.0
11
36.4804253988708
21
40.1691690699304
31
0.0
39
0.0
210
0.0
220
0.0
230
1.0
0
ARC
5
BA
330
70
100
AcDbEntity
67
0
8
IV_MARK_SURFACE
62
256
6
ByLayer
370
-1
48
1.0
60
0
100
AcDbCircle
39
0.0
10
36.4804253988708
20
42.3913912921527
30
0.0
40
2.22222222222222
210
0.0
220
0.0
230
1.0
100
AcDbArc
50
180.0
51
270.0
0
LINE
5
BB
330
70
100
AcDbEntity
67
0
8
IV_MARK_SURFACE
62
256
6
ByLayer
370
-1
48
1.0
60
0
100
AcDbLine
10
34.2582031766486
20
42.3913912921527
30
0.0
11
34.2582031766486
21
44.6136135143748
31
0.0
39
0.0
210
0.0
220
0.0
230
1.0
0
LINE
5
BC
330
70
100
AcDbEntity
67
0
8
IV_MARK_SURFACE
62
256
6
ByLayer
370
-1
48
1.0
60
0
100
AcDbLine
10
44.2582031766485
20
21.835835736597
30
0.0
11
34.2582031766485
21
21.835835736597
31
0.0
39
0.0
210
0.0
220
0.0
230
1.0
0
LINE
5
BD
330
70
100
AcDbEntity
67
0
8
IV_MARK_SURFACE
62
256
6
ByLayer
370
-1
48
1.0
60
0
100
AcDbLine
10
34.2582031766485
20
21.835835736597
30
0.0
11
39.8137587322041
21
25.1691690699304
31
0.0
39
0.0
210
0.0
220
0.0
230
1.0
0
LINE
5
BE
330
70
100
AcDbEntity
67
0
8
IV_MARK_SURFACE
62
256
6
ByLayer
370
-1
48
1.0
60
0
100
AcDbLine
10
39.8137587322041
20
25.1691690699304
30
0.0
11
34.2582031766485
21
28.5025024032637
31
0.0
39
0.0
210
0.0
220
0.0
230
1.0
0
LINE
5
BF
330
70
100
AcDbEntity
67
0
8
IV_MARK_SURFACE
62
256
6
ByLayer
370
-1
48
1.0
60
0
100
AcDbLine
10
34.2582031766485
20
28.5025024032637
30
0.0
11
44.2582031766486
21
28.5025024032637
31
0.0
39
0.0
210
0.0
220
0.0
230
1.0
0
ARC
5
C0
330
70
100
AcDbEntity
67
0
8
IV_MARK_SURFACE
62
256
6
ByLayer
370
-1
48
1.0
60
0
100
AcDbCircle
39
0.0
10
40.5893492833852
20
33.902939848583
30
0.0
40
3.73705043441529
210
0.0
220
0.0
230
1.0
100
AcDbArc
50
326.417448663616
51
10.9626863883424
0
ARC
5
C1
330
70
100
AcDbEntity
67
0
8
IV_MARK_SURFACE
62
256
6
ByLayer
370
-1
48
1.0
60
0
100
AcDbCircle
39
0.0
10
41.8724224518707
20
34.5149350597079
30
0.0
40
2.38782057620267
210
0.0
220
0.0
230
1.0
100
AcDbArc
50
2.36846502132508
51
149.559048042823
0
LINE
5
C2
330
70
100
AcDbEntity
67
0
8
IV_MARK_SURFACE
62
256
6
ByLayer
370
-1
48
1.0
60
0
100
AcDbLine
10
39.8137587322041
20
35.7247246254858
30
0.0
11
38.1470920655374
21
32.9469468477081
31
0.0
39
0.0
210
0.0
220
0.0
230
1.0
0
ARC
5
C3
330
70
100
AcDbEntity
67
0
8
IV_MARK_SURFACE
62
256
6
ByLayer
370
-1
48
1.0
60
0
100
AcDbCircle
39
0.0
10
36.245984365017
20
34.0758152730532
30
0.0
40
2.21100755555459
210
0.0
220
0.0
230
1.0
100
AcDbArc
50
229.626277176388
51
329.298367239664
0
ARC
5
C4
330
70
100
AcDbEntity
67
0
8
IV_MARK_SURFACE
62
256
6
ByLayer
370
-1
48
1.0
60
0
100
AcDbCircle
39
0.0
10
38.9435159500519
20
34.6136135143748
30
0.0
40
4.68968722659668
210
0.0
220
0.0
230
1.0
100
AcDbArc
50
151.715306715935
51
208.284693284065
0
LINE
5
C5
330
70
100
AcDbEntity
67
0
8
IV_MARK_SURFACE
62
256
6
ByLayer
370
-1
48
1.0
60
0
100
AcDbLine
10
44.2582031766486
20
57.9469468477081
30
0.0
11
44.2582031766486
21
59.6136135143749
31
0.0
39
0.0
210
0.0
220
0.0
230
1.0
0
ARC
5
C6
330
70
100
AcDbEntity
67
0
8
IV_MARK_SURFACE
62
256
6
ByLayer
370
-1
48
1.0
60
0
100
AcDbCircle
39
0.0
10
41.4804253988708
20
59.6136135143749
30
0.0
40
2.77777777777778
210
0.0
220
0.0
230
1.0
100
AcDbArc
50
0.0
51
180.0
0
LINE
5
C7
330
70
100
AcDbEntity
67
0
8
IV_MARK_SURFACE
62
256
6
ByLayer
370
-1
48
1.0
60
0
100
AcDbLine
10
38.702647621093
20
59.6136135143749
30
0.0
11
38.702647621093
21
59.0580579588193
31
0.0
39
0.0
210
0.0
220
0.0
230
1.0
0
ARC
5
C8
330
70
100
AcDbEntity
67
0
8
IV_OUTER_PROFILE
62
256
6
ByLayer
370
-1
48
1.0
60
0
100
AcDbCircle
39
0.0
10
20.9505234941384
20
2.80548751440884
30
0.0
40
2.1980514882062
210
0.0
220
0.0
230
1.0
100
AcDbArc
50
262.300351131403
51
270.038247897926
0
ARC
5
C9
330
70
100
AcDbEntity
67
0
8
IV_OUTER_PROFILE
62
256
6
ByLayer
370
-1
48
1.0
60
0
100
AcDbCircle
39
0.0
10
20.9643972757113
20
2.96293826045767
30
0.0
40
2.35595292686338
210
0.0
220
0.0
230
1.0
100
AcDbArc
50
255.136771362045
51
262.479016966325
0
ARC
5
CA
330
70
100
AcDbEntity
67
0
8
IV_OUTER_PROFILE
62
256
6
ByLayer
370
-1
48
1.0
60
0
100
AcDbCircle
39
0.0
10
21.026449411161
20
3.24534684343933
30
0.0
40
2.64485889989818
210
0.0
220
0.0
230
1.0
100
AcDbArc
50
248.662843164002
51
255.406811602706
0
ARC
5
CB
330
70
100
AcDbEntity
67
0
8
IV_OUTER_PROFILE
62
256
6
ByLayer
370
-1
48
1.0
60
0
100
AcDbCircle
39
0.0
10
21.1671980189333
20
3.65217467879145
30
0.0
40
3.07505962432453
210
0.0
220
0.0
230
1.0
100
AcDbArc
50
242.937051930007
51
248.978206370211
0
ARC
5
CC
330
70
100
AcDbEntity
67
0
8
IV_OUTER_PROFILE
62
256
6
ByLayer
370
-1
48
1.0
60
0
100
AcDbCircle
39
0.0
10
21.4155072982031
20
4.1834628491937
30
0.0
40
3.66120657297135
210
0.0
220
0.0
230
1.0
100
AcDbArc
50
237.941205219274
51
243.259408537172
0
ARC
5
CD
330
70
100
AcDbEntity
67
0
8
IV_OUTER_PROFILE
62
256
6
ByLayer
370
-1
48
1.0
60
0
100
AcDbCircle
39
0.0
10
21.7989519544243
20
4.83994077356915
30
0.0
40
4.42116479471339
210
0.0
220
0.0
230
1.0
100
AcDbArc
50
233.61395095027
51
238.245501562302
0
ARC
5
CE
330
70
100
AcDbEntity
67
0
8
IV_OUTER_PROFILE
62
256
6
ByLayer
370
-1
48
1.0
60
0
100
AcDbCircle
39
0.0
10
22.3442067462422
20
5.62312695823138
30
0.0
40
5.37517847763604
210
0.0
220
0.0
230
1.0
100
AcDbArc
50
229.876669119555
51
233.887395641616
0
ARC
5
CF
330
70
100
AcDbEntity
67
0
8
IV_OUTER_PROFILE
62
256
6
ByLayer
370
-1
48
1.0
60
0
100
AcDbCircle
39
0.0
10
23.0774750131472
20
6.53545551239466
30
0.0
40
6.54539920459261
210
0.0
220
0.0
230
1.0
100
AcDbArc
50
226.649109116874
51
230.115085228556
0
ARC
5
D0
330
70
100
AcDbEntity
67
0
8
IV_OUTER_PROFILE
62
256
6
ByLayer
370
-1
48
1.0
60
0
100
AcDbCircle
39
0.0
10
24.0249868301544
20
7.58045100808356
30
0.0
40
7.95576535685161
210
0.0
220
0.0
230
1.0
100
AcDbArc
50
223.857161830227
51
226.853327020707
0
ARC
5
D1
330
70
100
AcDbEntity
67
0
8
IV_OUTER_PROFILE
62
256
6
ByLayer
370
-1
48
1.0
60
0
100
AcDbCircle
39
0.0
10
25.2136050733493
20
8.762968518341
30
0.0
40
9.63220808856626
210
0.0
220
0.0
230
1.0
100
AcDbArc
50
221.43584644315
51
224.03042359509
0
ARC
5
D2
330
70
100
AcDbEntity
67
0
8
IV_OUTER_PROFILE
62
256
6
ByLayer
370
-1
48
1.0
60
0
100
AcDbCircle
39
0.0
10
26.6715858953634
20
10.089517525723
30
0.0
40
11.60317504706
210
0.0
220
0.0
230
1.0
100
AcDbArc
50
219.329778462105
51
221.582236738551
0
ARC
5
D3
330
70
100
AcDbEntity
67
0
8
IV_OUTER_PROFILE
62
256
6
ByLayer
370
-1
48
1.0
60
0
100
AcDbCircle
39
0.0
10
28.6371373655429
20
11.7461744506111
30
0.0
40
14.1735565073188
210
0.0
220
0.0
230
1.0
100
AcDbArc
50
217.552705851358
51
219.474130801458
0
ARC
5
D4
330
70
100
AcDbEntity
67
0
8
IV_OUTER_PROFILE
62
256
6
ByLayer
370
-1
48
1.0
60
0
100
AcDbCircle
39
0.0
10
33.0094993215877
20
15.2132590323746
30
0.0
40
19.7532688576694
210
0.0
220
0.0
230
1.0
100
AcDbArc
50
214.898463967732
51
217.795673855417
0
ARC
5
D5
330
70
100
AcDbEntity
67
0
8
IV_OUTER_PROFILE
62
256
6
ByLayer
370
-1
48
1.0
60
0
100
AcDbCircle
39
0.0
10
42.998162195658
20
22.4336634800812
30
0.0
40
32.0772776236414
210
0.0
220
0.0
230
1.0
100
AcDbArc
50
213.393754365666
51
215.268538633689
0
LINE
5
D6
330
70
100
AcDbEntity
67
0
8
IV_OUTER_PROFILE
62
256
6
ByLayer
370
-1
48
1.0
60
0
100
AcDbLine
10
0.0000001408832073
20
24.4425083678406
30
0.0
11
15.2500001408832
21
6.26826608077883
31
0.0
39
0.0
210
0.0
220
0.0
230
1.0
0
ARC
5
D7
330
70
100
AcDbEntity
67
0
8
IV_OUTER_PROFILE
62
256
6
ByLayer
370
-1
48
1.0
60
0
100
AcDbCircle
39
0.0
10
62.4697134951107
20
121.728632176851
30
0.0
40
42.0932894477508
210
0.0
220
0.0
230
1.0
100
AcDbArc
50
179.994399728222
51
181.169950025196
0
ARC
5
D8
330
70
100
AcDbEntity
67
0
8
IV_OUTER_PROFILE
62
256
6
ByLayer
370
-1
48
1.0
60
0
100
AcDbCircle
39
0.0
10
64.8547789808161
20
121.761376563188
30
0.0
40
44.4785291586544
210
0.0
220
0.0
230
1.0
100
AcDbArc
50
181.14938977898
51
182.286059528648
0
ARC
5
D9
330
70
100
AcDbEntity
67
0
8
IV_OUTER_PROFILE
62
256
6
ByLayer
370
-1
48
1.0
60
0
100
AcDbCircle
39
0.0
10
66.5426964078984
20
121.817943475909
30
0.0
40
46.1673608670478
210
0.0
220
0.0
230
1.0
100
AcDbArc
50
182.272647670567
51
183.386630751128
0
ARC
5
DA
330
70
100
AcDbEntity
67
0
8
IV_OUTER_PROFILE
62
256
6
ByLayer
370
-1
48
1.0
60
0
100
AcDbCircle
39
0.0
10
67.4910838864779
20
121.868272147832
30
0.0
40
47.1170655618885
210
0.0
220
0.0
230
1.0
100
AcDbArc
50
183.379597552983
51
184.485347758926
0
ARC
5
DB
330
70
100
AcDbEntity
67
0
8
IV_OUTER_PROFILE
62
256
6
ByLayer
370
-1
48
1.0
60
0
100
AcDbCircle
39
0.0
10
67.6848561587137
20
121.886868568183
30
0.0
40
47.3116988188901
210
0.0
220
0.0
230
1.0
100
AcDbArc
50
184.489447899386
51
186.717315366877
0
ARC
5
DC
330
70
100
AcDbEntity
67
0
8
IV_OUTER_PROFILE
62
256
6
ByLayer
370
-1
48
1.0
60
0
100
AcDbCircle
39
0.0
10
65.7698119198828
20
121.689909475929
30
0.0
40
45.386771103678
210
0.0
220
0.0
230
1.0
100
AcDbArc
50
186.753163908609
51
189.081649956111
0
LINE
5
DD
330
70
100
AcDbEntity
67
0
8
IV_OUTER_PROFILE
62
256
6
ByLayer
370
-1
48
1.0
60
0
100
AcDbLine
10
19.9492881374768
20
121.732746508876
30
0.0
11
20.3764242484339
21
121.732746508876
31
0.0
39
0.0
210
0.0
220
0.0
230
1.0
0
ARC
5
DE
330
70
100
AcDbEntity
67
0
8
IV_OUTER_PROFILE
62
256
6
ByLayer
370
-1
48
1.0
60
0
100
AcDbCircle
39
0.0
10
69.5329753407854
20
40.4335261631719
30
0.0
40
64.1397411364495
210
0.0
220
0.0
230
1.0
100
AcDbArc
50
212.185975181796
51
213.772280794323
0
LINE
5
DF
330
70
100
AcDbEntity
67
0
8
IV_OUTER_PROFILE
62
256
6
ByLayer
370
-1
48
1.0
60
0
100
AcDbLine
10
55.2019908071487
20
0.607436515956206
30
0.0
11
20.9519908071487
21
0.607436515956348
31
0.0
39
0.0
210
0.0
220
0.0
230
1.0
0
LINE
5
E0
330
70
100
AcDbEntity
67
0
8
IV_OUTER_PROFILE
62
256
6
ByLayer
370
-1
48
1.0
60
0
100
AcDbLine
10
55.2019908071487
20
2.9909437011448
30
0.0
11
55.2019908071487
21
0.607436515956206
31
0.0
39
0.0
210
0.0
220
0.0
230
1.0
0
LINE
5
E1
330
70
100
AcDbEntity
67
0
8
IV_OUTER_PROFILE
62
256
6
ByLayer
370
-1
48
1.0
60
0
100
AcDbLine
10
55.2019908071487
20
86.7327465088764
30
0.0
11
55.2019908071487
21
2.9909437011448
31
0.0
39
0.0
210
0.0
220
0.0
230
1.0
0
LINE
5
E2
330
70
100
AcDbEntity
67
0
8
IV_OUTER_PROFILE
62
256
6
ByLayer
370
-1
48
1.0
60
0
100
AcDbLine
10
0.0000001408832295
20
121.732746508876
30
0.0
11
0.0000001408832073
21
24.4425083678406
31
0.0
39
0.0
210
0.0
220
0.0
230
1.0
0
ARC
5
E3
330
70
100
AcDbEntity
67
0
8
IV_OUTER_PROFILE
62
256
6
ByLayer
370
-1
48
1.0
60
0
100
AcDbCircle
39
0.0
10
55.2019908071487
20
121.732746508876
30
0.0
40
35.0
210
0.0
220
0.0
230
1.0
100
AcDbArc
50
191.882637007934
51
270.0
0
LINE
5
E4
330
70
100
AcDbEntity
67
0
8
IV_OUTER_PROFILE
62
256
6
ByLayer
370
-1
48
1.0
60
0
100
AcDbLine
10
19.9492881374768
20
121.732746508876
30
0.0
11
0.0000001408832295
21
121.732746508876
31
0.0
39
0.0
210
0.0
220
0.0
230
1.0
0
MTEXT
5
14B
330
70
100
AcDbEntity
67
0
8
AutoDXF_BendInfo
62
256
6
ByLayer
370
-1
48
1.0
60
0
100
AcDbMText
10
16.850995474016
20
62.8447245359643
30
0.0
210
0.0
220
0.0
230
1.0
1
90 - UP - R2,8
40
5.0
41
0.0
44
1.0
11
0.0000000000000003
21
1.0
31
0.0
71
8
72
5
73
1
7
Standard
0
ENDSEC
0
SECTION
2
OBJECTS
0
DICTIONARY
5
150
330
0
100
AcDbDictionary
280
1
281
1
3
ACAD_GROUP
350
D
3
ACAD_LAYOUT
350
62
3
ACAD_DGNDEFINITIONS
350
141
3
ACAD_DWFDEFINITIONS
350
142
3
ACAD_PDFDEFINITIONS
350
143
3
ACAD_MLINESTYLE
350
5F
3
ACAD_IMAGE_DICT
350
140
3
ACAD_IMAGE_VARS
350
144
0
DICTIONARY
5
D
330
150
100
AcDbDictionary
280
1
281
1
0
DICTIONARY
5
62
330
150
100
AcDbDictionary
280
1
281
1
3
Layout1
350
6F
3
Layout2
350
77
3
Model
350
73
0
DICTIONARY
5
141
330
150
100
AcDbDictionary
280
1
281
1
0
DICTIONARY
5
142
330
150
100
AcDbDictionary
280
1
281
1
0
DICTIONARY
5
143
330
150
100
AcDbDictionary
280
1
281
1
0
DICTIONARY
5
5F
330
150
100
AcDbDictionary
280
1
281
1
3
STANDARD
350
60
0
DICTIONARY
5
140
330
150
100
AcDbDictionary
280
1
281
1
0
DICTIONARY
5
13E
330
2
100
AcDbDictionary
280
1
281
1
3
ACAD_LAYERSTATES
360
151
0
DICTIONARY
5
151
330
13E
100
AcDbDictionary
280
1
281
1
0
LAYOUT
5
6F
330
62
100
AcDbPlotSettings
1

2

4

6

40
0.0
41
0.0
42
0.0
43
0.0
44
0.0
45
0.0
46
0.0
47
0.0
48
0.0
49
0.0
140
0.0
141
0.0
142
1.0
143
1.0
70
688
72
0
73
0
74
5
7

75
16
76
0
77
2
78
300
147
1.0
148
0.0
149
0.0
100
AcDbLayout
1
Layout1
71
1
10
0.0
20
0.0
11
12.0
21
9.0
12
0.0
22
0.0
32
0.0
14
0.0
24
0.0
34
0.0
15
0.0
25
0.0
35
0.0
146
0.0
13
0.0
23
0.0
33
0.0
16
1.0
26
0.0
36
0.0
17
0.0
27
1.0
37
0.0
76
0
330
6C
0
LAYOUT
5
77
330
62
100
AcDbPlotSettings
1

2

4

6

40
0.0
41
0.0
42
0.0
43
0.0
44
0.0
45
0.0
46
0.0
47
0.0
48
0.0
49
0.0
140
0.0
141
0.0
142
1.0
143
1.0
70
688
72
0
73
0
74
5
7

75
16
76
0
77
2
78
300
147
1.0
148
0.0
149
0.0
100
AcDbLayout
1
Layout2
71
2
10
0.0
20
0.0
11
12.0
21
9.0
12
0.0
22
0.0
32
0.0
14
0.0
24
0.0
34
0.0
15
0.0
25
0.0
35
0.0
146
0.0
13
0.0
23
0.0
33
0.0
16
1.0
26
0.0
36
0.0
17
0.0
27
1.0
37
0.0
76
0
330
74
0
LAYOUT
5
73
330
62
100
AcDbPlotSettings
1

2

4

6

40
0.0
41
0.0
42
0.0
43
0.0
44
0.0
45
0.0
46
0.0
47
0.0
48
0.0
49
0.0
140
0.0
141
0.0
142
1.0
143
1.0
70
1712
72
0
73
0
74
0
7

75
0
76
0
77
2
78
300
147
1.0
148
0.0
149
0.0
100
AcDbLayout
1
Model
71
3
10
0.0
20
0.0
11
12.0
21
9.0
12
0.0
22
0.0
32
0.0
14
0.0
24
0.0
34
0.0
15
0.0
25
0.0
35
0.0
146
0.0
13
0.0
23
0.0
33
0.0
16
1.0
26
0.0
36
0.0
17
0.0
27
1.0
37
0.0
76
0
330
70
0
MLINESTYLE
5
60
330
5F
100
AcDbMlineStyle
2
STANDARD
70
0
3

62
256
51
90.0
52
90.0
71
2
49
0.5
62
256
6
ByLayer
49
-0.5
62
256
6
ByLayer
0
RASTERVARIABLES
5
144
330
140
100
AcDbRasterVariables
90
0
70
1
71
1
72
0
0
ENDSEC
0
EOF
