999
autodxfXMIN:1E-07
999
autodxfXMAX:227,000564445065
999
autodxfYMIN:1,408831807E-07
999
autodxfYMAX:55,20199080714867
0
SECTION
2
HEADER
9
$ACADVER
1
AC1015
9
$DWGCODEPAGE
3
ANSI_1252
9
$HANDSEED
5
1A5
9
$ANGBASE
50
0.0
9
$ANGDIR
70
0
9
$ATTMODE
70
1
9
$AUNITS
70
0
9
$AUPREC
70
0
9
$CECOLOR
62
256
9
$CELTSCALE
40
1.0
9
$CELTYPE
6
ByLayer
9
$CELWEIGHT
370
-1
9
$CLAYER
8
0
9
$CMLJUST
70
0
9
$CMLSCALE
40
1.0
9
$CMLSTYLE
2
Standard
9
$DIMSTYLE
2
Standard
9
$TEXTSIZE
40
0.2
9
$TEXTSTYLE
7
Standard
9
$LUNITS
70
2
9
$LUPREC
70
4
9
$MIRRTEXT
70
0
9
$EXTNAMES
290
1
9
$INSBASE
10
0.0
20
0.0
30
0.0
9
$INSUNITS
70
4
9
$LTSCALE
40
1.0
9
$LWDISPLAY
290
0
9
$PDMODE
70
0
9
$PDSIZE
40
0.0
9
$PLINEGEN
70
0
9
$PSLTSCALE
70
1
9
$SPLINESEGS
70
6
9
$SURFU
70
6
9
$SURFV
70
6
9
$TDCREATE
40
2460565.84274306
9
$TDUCREATE
40
2460565.71774304
9
$TDUPDATE
40
2460565.84274306
9
$TDUUPDATE
40
2460565.71774304
9
$TDINDWG
40
0.0
9
$UCSORG
10
0.0
20
0.0
30
0.0
9
$UCSXDIR
10
1.0
20
0.0
30
0.0
9
$UCSYDIR
10
0.0
20
1.0
30
0.0
9
$DIMADEC
70
0
9
$DIMALT
70
0
9
$DIMALTD
70
2
9
$DIMALTF
40
25.4
9
$DIMALTRND
40
0.0
9
$DIMALTTD
70
2
9
$DIMALTTZ
70
0
9
$DIMALTU
70
2
9
$DIMALTZ
70
0
9
$DIMAPOST
1

9
$DIMATFIT
70
3
9
$DIMAUNIT
70
0
9
$DIMASZ
40
0.18
9
$DIMAZIN
70
3
9
$DIMSAH
70
0
9
$DIMBLK
1

9
$DIMLDRBLK
1

9
$DIMCEN
40
0.09
9
$DIMCLRD
70
0
9
$DIMCLRE
70
0
9
$DIMCLRT
70
0
9
$DIMDEC
70
4
9
$DIMDLE
40
0.0
9
$DIMDLI
40
0.38
9
$DIMDSEP
70
46
9
$DIMEXE
40
0.18
9
$DIMEXO
40
0.0625
9
$DIMFXLON
70
0
9
$DIMFXL
40
1.0
9
$DIMGAP
40
0.09
9
$DIMJUST
70
0
9
$DIMLFAC
40
1.0
9
$DIMLUNIT
70
2
9
$DIMLWD
70
-2
9
$DIMLWE
70
-2
9
$DIMPOST
1

9
$DIMRND
40
0.0
9
$DIMSCALE
40
1.0
9
$DIMSD1
70
0
9
$DIMSD2
70
0
9
$DIMSE1
70
0
9
$DIMSE2
70
0
9
$DIMSOXD
70
0
9
$DIMTAD
70
0
9
$DIMTDEC
70
4
9
$DIMTFAC
40
1.0
9
$DIMTIH
70
0
9
$DIMTIX
70
0
9
$DIMTM
40
0.0
9
$DIMTMOVE
70
0
9
$DIMTOFL
70
0
9
$DIMTOH
70
0
9
$DIMTOL
70
0
9
$DIMLIM
70
0
9
$DIMTOLJ
70
1
9
$DIMTP
40
0.0
9
$DIMTXT
40
0.18
9
$DIMTXTDIRECTION
70
0
9
$DIMTZIN
70
0
9
$DIMZIN
70
0
9
$DIMFRAC
70
0
9
$DIMLTYPE
6
ByBlock
9
$DIMLTEX1
6
ByBlock
9
$DIMLTEX2
6
ByBlock
9
$EXTMIN
10
0.0
20
0.0
30
0.0
9
$EXTMAX
10
227.005562633487
20
176.136207642913
30
0.0
9
$LIMMIN
10
0.0
20
0.0
9
$LIMMAX
10
227.005562633487
20
176.136207642913
9
$ORTHOMODE
70
0
9
$REGENMODE
70
1
9
$FILLMODE
70
1
9
$QTEXTMODE
70
0
9
$TRACEWID
40
0.05
9
$DISPSILH
70
0
9
$SKETCHINC
40
0.1
9
$FILLETRAD
40
0.0
9
$MENU
1
.
9
$ELEVATION
40
0.0
9
$PELEVATION
40
0.0
9
$THICKNESS
40
0.0
9
$LIMCHECK
70
0
9
$CHAMFERA
40
0.0
9
$CHAMFERB
40
0.0
9
$CHAMFERC
40
0.0
9
$CHAMFERD
40
0.0
9
$SKPOLY
70
0
9
$TDUSRTIMER
40
0.0
9
$USRTIMER
70
1
9
$PLINEWID
40
0.0
9
$SPLFRAME
70
0
9
$SPLINETYPE
70
6
9
$SURFTAB1
70
6
9
$SURFTAB2
70
6
9
$SURFTYPE
70
6
9
$UCSBASE
2

9
$UCSNAME
2

9
$UCSORTHOREF
2

9
$UCSORTHOVIEW
70
0
9
$UCSORGTOP
10
0.0
20
0.0
30
0.0
9
$UCSORGBOTTOM
10
0.0
20
0.0
30
0.0
9
$UCSORGLEFT
10
0.0
20
0.0
30
0.0
9
$UCSORGRIGHT
10
0.0
20
0.0
30
0.0
9
$UCSORGFRONT
10
0.0
20
0.0
30
0.0
9
$UCSORGBACK
10
0.0
20
0.0
30
0.0
9
$PUCSBASE
2

9
$PUCSNAME
2

9
$PUCSORG
10
0.0
20
0.0
30
0.0
9
$PUCSXDIR
10
1.0
20
0.0
30
0.0
9
$PUCSYDIR
10
0.0
20
1.0
30
0.0
9
$PUCSORTHOREF
2

9
$PUCSORTHOVIEW
70
0
9
$PUCSORGTOP
10
0.0
20
0.0
30
0.0
9
$PUCSORGBOTTOM
10
0.0
20
0.0
30
0.0
9
$PUCSORGLEFT
10
0.0
20
0.0
30
0.0
9
$PUCSORGRIGHT
10
0.0
20
0.0
30
0.0
9
$PUCSORGFRONT
10
0.0
20
0.0
30
0.0
9
$PUCSORGBACK
10
0.0
20
0.0
30
0.0
9
$USERI1
70
0
9
$USERI2
70
0
9
$USERI3
70
0
9
$USERI4
70
0
9
$USERI5
70
0
9
$USERR1
40
0.0
9
$USERR2
40
0.0
9
$USERR3
40
0.0
9
$USERR4
40
0.0
9
$USERR5
40
0.0
9
$WORLDVIEW
70
1
9
$SHADEDGE
70
3
9
$SHADEDIF
70
70
9
$TILEMODE
70
1
9
$MAXACTVP
70
64
9
$PINSBASE
10
0.0
20
0.0
30
0.0
9
$PLIMCHECK
70
0
9
$PEXTMIN
10
0.0
20
0.0
30
0.0
9
$PEXTMAX
10
227.005562633487
20
176.136207642913
30
0.0
9
$PLIMMIN
10
0.0
20
0.0
9
$PLIMMAX
10
227.005562633487
20
176.136207642913
9
$UNITMODE
70
0
9
$VISRETAIN
70
1
9
$TREEDEPTH
70
3020
9
$PROXYGRAPHICS
70
1
9
$MEASUREMENT
70
1
9
$ENDCAPS
280
0
9
$JOINSTYLE
280
0
9
$HYPERLINKBASE
1

9
$STYLESHEET
1

9
$XEDIT
290
1
9
$CEPSNTYPE
380
0
9
$PSTYLEMODE
290
1
9
$FINGERPRINTGUID
2
{A8769B6B-015F-C140-9F28-8149B2C9D863}
9
$VERSIONGUID
2
{A159DBDE-4E83-7748-85B0-A0D44591021A}
9
$PSVPSCALE
40
0.0
9
$OLESTARTUP
290
0
0
ENDSEC
0
SECTION
2
CLASSES
0
CLASS
1
RASTERVARIABLES
2
AcDbRasterVariables
3
ISM
90
0
280
0
281
0
0
ENDSEC
0
SECTION
2
TABLES
0
TABLE
2
APPID
5
9
330
0
100
AcDbSymbolTable
70
7
0
APPID
5
56
330
9
100
AcDbSymbolTableRecord
100
AcDbRegAppTableRecord
2
ACAD
70
0
0
APPID
5
5E
330
9
100
AcDbSymbolTableRecord
100
AcDbRegAppTableRecord
2
AcadAnnotative
70
0
0
APPID
5
181
330
9
100
AcDbSymbolTableRecord
100
AcDbRegAppTableRecord
2
ACAD_MLEADERVER
70
0
0
APPID
5
19F
330
9
100
AcDbSymbolTableRecord
100
AcDbRegAppTableRecord
2
AcCmTransparency
70
0
0
APPID
5
1A0
330
9
100
AcDbSymbolTableRecord
100
AcDbRegAppTableRecord
2
AcAecLayerStandard
70
0
0
APPID
5
1A1
330
9
100
AcDbSymbolTableRecord
100
AcDbRegAppTableRecord
2
GradientColor1ACI
70
0
0
APPID
5
1A2
330
9
100
AcDbSymbolTableRecord
100
AcDbRegAppTableRecord
2
GradientColor2ACI
70
0
0
ENDTAB
0
TABLE
2
VPORT
5
8
330
0
100
AcDbSymbolTable
70
1
0
VPORT
5
192
330
8
100
AcDbSymbolTableRecord
100
AcDbViewportTableRecord
2
*Active
70
0
10
0.0
20
0.0
11
1.0
21
1.0
12
113.500282272533
22
27.6009954740159
13
0.0
23
0.0
14
0.5
24
0.5
15
10.0
25
10.0
16
0.0
26
0.0
36
1.0
17
0.0
27
0.0
37
0.0
40
249.7
41
1.0
75
0
76
1
0
ENDTAB
0
TABLE
2
LTYPE
5
5
330
0
100
AcDbSymbolTable
70
48
0
LTYPE
5
5B
330
5
100
AcDbSymbolTableRecord
100
AcDbLinetypeTableRecord
2
ByBlock
70
0
3

72
65
73
0
40
0.0
0
LTYPE
5
5C
330
5
100
AcDbSymbolTableRecord
100
AcDbLinetypeTableRecord
2
ByLayer
70
0
3

72
65
73
0
40
0.0
0
LTYPE
5
5D
330
5
100
AcDbSymbolTableRecord
100
AcDbLinetypeTableRecord
2
Continuous
70
0
3
Solid line
72
65
73
0
40
0.0
0
LTYPE
5
78
330
5
100
AcDbSymbolTableRecord
100
AcDbLinetypeTableRecord
2
BORDER
70
0
3
Border __ __ . __ __ . __ __ . __ __ . __ __ .
72
65
73
6
40
1.75
49
0.5
74
0
49
-0.25
74
0
49
0.5
74
0
49
-0.25
74
0
49
0.0
74
0
49
-0.25
74
0
0
LTYPE
5
79
330
5
100
AcDbSymbolTableRecord
100
AcDbLinetypeTableRecord
2
BORDER2
70
0
3
Border (.5x) __.__.__.__.__.__.__.__.__.__.__.
72
65
73
6
40
0.875
49
0.25
74
0
49
-0.125
74
0
49
0.25
74
0
49
-0.125
74
0
49
0.0
74
0
49
-0.125
74
0
0
LTYPE
5
7A
330
5
100
AcDbSymbolTableRecord
100
AcDbLinetypeTableRecord
2
BORDERX2
70
0
3
Border (2x) ____  ____  .  ____  ____  .  ___
72
65
73
6
40
3.5
49
1.0
74
0
49
-0.5
74
0
49
1.0
74
0
49
-0.5
74
0
49
0.0
74
0
49
-0.5
74
0
0
LTYPE
5
7B
330
5
100
AcDbSymbolTableRecord
100
AcDbLinetypeTableRecord
2
CENTER
70
0
3
Center ____ _ ____ _ ____ _ ____ _ ____ _ ____
72
65
73
4
40
2.0
49
1.25
74
0
49
-0.25
74
0
49
0.25
74
0
49
-0.25
74
0
0
LTYPE
5
7C
330
5
100
AcDbSymbolTableRecord
100
AcDbLinetypeTableRecord
2
CENTER2
70
0
3
Center (.5x) ___ _ ___ _ ___ _ ___ _ ___ _ ___
72
65
73
4
40
1.125
49
0.75
74
0
49
-0.125
74
0
49
0.125
74
0
49
-0.125
74
0
0
LTYPE
5
7D
330
5
100
AcDbSymbolTableRecord
100
AcDbLinetypeTableRecord
2
CENTERX2
70
0
3
Center (2x) ________  __  ________  __  _____
72
65
73
4
40
4.0
49
2.5
74
0
49
-0.5
74
0
49
0.5
74
0
49
-0.5
74
0
0
LTYPE
5
7E
330
5
100
AcDbSymbolTableRecord
100
AcDbLinetypeTableRecord
2
DASHDOT
70
0
3
Dash dot __ . __ . __ . __ . __ . __ . __ . __
72
65
73
4
40
1.0
49
0.5
74
0
49
-0.25
74
0
49
0.0
74
0
49
-0.25
74
0
0
LTYPE
5
7F
330
5
100
AcDbSymbolTableRecord
100
AcDbLinetypeTableRecord
2
DASHDOT2
70
0
3
Dash dot (.5x) _._._._._._._._._._._._._._._.
72
65
73
4
40
0.5
49
0.25
74
0
49
-0.125
74
0
49
0.0
74
0
49
-0.125
74
0
0
LTYPE
5
80
330
5
100
AcDbSymbolTableRecord
100
AcDbLinetypeTableRecord
2
DASHDOTX2
70
0
3
Dash dot (2x) ____  .  ____  .  ____  .  ___
72
65
73
4
40
2.0
49
1.0
74
0
49
-0.5
74
0
49
0.0
74
0
49
-0.5
74
0
0
LTYPE
5
81
330
5
100
AcDbSymbolTableRecord
100
AcDbLinetypeTableRecord
2
DASHED
70
0
3
Dashed __ __ __ __ __ __ __ __ __ __ __ __ __ _
72
65
73
2
40
0.75
49
0.5
74
0
49
-0.25
74
0
0
LTYPE
5
82
330
5
100
AcDbSymbolTableRecord
100
AcDbLinetypeTableRecord
2
DASHED2
70
0
3
Dashed (.5x) _ _ _ _ _ _ _ _ _ _ _ _ _ _ _ _ _
72
65
73
2
40
0.375
49
0.25
74
0
49
-0.125
74
0
0
LTYPE
5
83
330
5
100
AcDbSymbolTableRecord
100
AcDbLinetypeTableRecord
2
DASHEDX2
70
0
3
Dashed (2x) ____  ____  ____  ____  ____  ___
72
65
73
2
40
1.5
49
1.0
74
0
49
-0.5
74
0
0
LTYPE
5
84
330
5
100
AcDbSymbolTableRecord
100
AcDbLinetypeTableRecord
2
DIVIDE
70
0
3
Divide ____ . . ____ . . ____ . . ____ . . ____
72
65
73
6
40
1.25
49
0.5
74
0
49
-0.25
74
0
49
0.0
74
0
49
-0.25
74
0
49
0.0
74
0
49
-0.25
74
0
0
LTYPE
5
85
330
5
100
AcDbSymbolTableRecord
100
AcDbLinetypeTableRecord
2
DIVIDE2
70
0
3
Divide (.5x) __..__..__..__..__..__..__..__.._
72
65
73
6
40
0.625
49
0.25
74
0
49
-0.125
74
0
49
0.0
74
0
49
-0.125
74
0
49
0.0
74
0
49
-0.125
74
0
0
LTYPE
5
86
330
5
100
AcDbSymbolTableRecord
100
AcDbLinetypeTableRecord
2
DIVIDEX2
70
0
3
Divide (2x) ________  .  .  ________  .  .  _
72
65
73
6
40
2.5
49
1.0
74
0
49
-0.5
74
0
49
0.0
74
0
49
-0.5
74
0
49
0.0
74
0
49
-0.5
74
0
0
LTYPE
5
87
330
5
100
AcDbSymbolTableRecord
100
AcDbLinetypeTableRecord
2
DOT
70
0
3
Dot . . . . . . . . . . . . . . . . . . . . . .
72
65
73
2
40
0.25
49
0.0
74
0
49
-0.25
74
0
0
LTYPE
5
88
330
5
100
AcDbSymbolTableRecord
100
AcDbLinetypeTableRecord
2
DOT2
70
0
3
Dot (.5x) .....................................
72
65
73
2
40
0.125
49
0.0
74
0
49
-0.125
74
0
0
LTYPE
5
89
330
5
100
AcDbSymbolTableRecord
100
AcDbLinetypeTableRecord
2
DOTX2
70
0
3
Dot (2x) .  .  .  .  .  .  .  .  .  .  .  .  . 
72
65
73
2
40
0.5
49
0.0
74
0
49
-0.5
74
0
0
LTYPE
5
8A
330
5
100
AcDbSymbolTableRecord
100
AcDbLinetypeTableRecord
2
HIDDEN
70
0
3
Hidden __ __ __ __ __ __ __ __ __ __ __ __ __ _
72
65
73
2
40
0.375
49
0.25
74
0
49
-0.125
74
0
0
LTYPE
5
8B
330
5
100
AcDbSymbolTableRecord
100
AcDbLinetypeTableRecord
2
HIDDEN2
70
0
3
Hidden (.5x) _ _ _ _ _ _ _ _ _ _ _ _ _ _ _ _ _
72
65
73
2
40
0.1875
49
0.125
74
0
49
-0.0625
74
0
0
LTYPE
5
8C
330
5
100
AcDbSymbolTableRecord
100
AcDbLinetypeTableRecord
2
HIDDENX2
70
0
3
Hidden (2x) ____ ____ ____ ____ ____ ____ ____
72
65
73
2
40
0.75
49
0.5
74
0
49
-0.25
74
0
0
LTYPE
5
8D
330
5
100
AcDbSymbolTableRecord
100
AcDbLinetypeTableRecord
2
PHANTOM
70
0
3
Phantom ______  __  __  ______  __  __  ______
72
65
73
6
40
2.5
49
1.25
74
0
49
-0.25
74
0
49
0.25
74
0
49
-0.25
74
0
49
0.25
74
0
49
-0.25
74
0
0
LTYPE
5
8E
330
5
100
AcDbSymbolTableRecord
100
AcDbLinetypeTableRecord
2
PHANTOM2
70
0
3
Phantom (.5x) ___ _ _ ___ _ _ ___ _ _ ___ _ _
72
65
73
6
40
1.25
49
0.625
74
0
49
-0.125
74
0
49
0.125
74
0
49
-0.125
74
0
49
0.125
74
0
49
-0.125
74
0
0
LTYPE
5
8F
330
5
100
AcDbSymbolTableRecord
100
AcDbLinetypeTableRecord
2
PHANTOMX2
70
0
3
Phantom (2x) ____________    ____    ____   _
72
65
73
6
40
5.0
49
2.5
74
0
49
-0.5
74
0
49
0.5
74
0
49
-0.5
74
0
49
0.5
74
0
49
-0.5
74
0
0
LTYPE
5
90
330
5
100
AcDbSymbolTableRecord
100
AcDbLinetypeTableRecord
2
ACAD_ISO02W100
70
0
3
ISO dash __ __ __ __ __ __ __ __ __ __ __ __ __
72
65
73
2
40
15.0
49
12.0
74
0
49
-3.0
74
0
0
LTYPE
5
91
330
5
100
AcDbSymbolTableRecord
100
AcDbLinetypeTableRecord
2
ACAD_ISO03W100
70
0
3
ISO dash space __    __    __    __    __    __
72
65
73
2
40
30.0
49
12.0
74
0
49
-18.0
74
0
0
LTYPE
5
92
330
5
100
AcDbSymbolTableRecord
100
AcDbLinetypeTableRecord
2
ACAD_ISO04W100
70
0
3
ISO long-dash dot ____ . ____ . ____ . ____ . _
72
65
73
4
40
30.0
49
24.0
74
0
49
-3.0
74
0
49
0.0
74
0
49
-3.0
74
0
0
LTYPE
5
93
330
5
100
AcDbSymbolTableRecord
100
AcDbLinetypeTableRecord
2
ACAD_ISO05W100
70
0
3
ISO long-dash double-dot ____ .. ____ .. ____ .
72
65
73
6
40
33.0
49
24.0
74
0
49
-3.0
74
0
49
0.0
74
0
49
-3.0
74
0
49
0.0
74
0
49
-3.0
74
0
0
LTYPE
5
94
330
5
100
AcDbSymbolTableRecord
100
AcDbLinetypeTableRecord
2
ACAD_ISO06W100
70
0
3
ISO long-dash triple-dot ____ ... ____ ... ____
72
65
73
8
40
36.0
49
24.0
74
0
49
-3.0
74
0
49
0.0
74
0
49
-3.0
74
0
49
0.0
74
0
49
-3.0
74
0
49
0.0
74
0
49
-3.0
74
0
0
LTYPE
5
95
330
5
100
AcDbSymbolTableRecord
100
AcDbLinetypeTableRecord
2
ACAD_ISO07W100
70
0
3
ISO dot . . . . . . . . . . . . . . . . . . . .
72
65
73
2
40
3.0
49
0.0
74
0
49
-3.0
74
0
0
LTYPE
5
96
330
5
100
AcDbSymbolTableRecord
100
AcDbLinetypeTableRecord
2
ACAD_ISO08W100
70
0
3
ISO long-dash short-dash ____ __ ____ __ ____ _
72
65
73
4
40
36.0
49
24.0
74
0
49
-3.0
74
0
49
6.0
74
0
49
-3.0
74
0
0
LTYPE
5
97
330
5
100
AcDbSymbolTableRecord
100
AcDbLinetypeTableRecord
2
ACAD_ISO09W100
70
0
3
ISO long-dash double-short-dash ____ __ __ ____
72
65
73
6
40
45.0
49
24.0
74
0
49
-3.0
74
0
49
6.0
74
0
49
-3.0
74
0
49
6.0
74
0
49
-3.0
74
0
0
LTYPE
5
98
330
5
100
AcDbSymbolTableRecord
100
AcDbLinetypeTableRecord
2
ACAD_ISO10W100
70
0
3
ISO dash dot __ . __ . __ . __ . __ . __ . __ .
72
65
73
4
40
18.0
49
12.0
74
0
49
-3.0
74
0
49
0.0
74
0
49
-3.0
74
0
0
LTYPE
5
99
330
5
100
AcDbSymbolTableRecord
100
AcDbLinetypeTableRecord
2
ACAD_ISO11W100
70
0
3
ISO double-dash dot __ __ . __ __ . __ __ . __ 
72
65
73
6
40
33.0
49
12.0
74
0
49
-3.0
74
0
49
12.0
74
0
49
-3.0
74
0
49
0.0
74
0
49
-3.0
74
0
0
LTYPE
5
9A
330
5
100
AcDbSymbolTableRecord
100
AcDbLinetypeTableRecord
2
ACAD_ISO12W100
70
0
3
ISO dash double-dot __ . . __ . . __ . . __ . .
72
65
73
6
40
21.0
49
12.0
74
0
49
-3.0
74
0
49
0.0
74
0
49
-3.0
74
0
49
0.0
74
0
49
-3.0
74
0
0
LTYPE
5
9B
330
5
100
AcDbSymbolTableRecord
100
AcDbLinetypeTableRecord
2
ACAD_ISO13W100
70
0
3
ISO double-dash double-dot __ __ . . __ __ . . 
72
65
73
8
40
36.0
49
12.0
74
0
49
-3.0
74
0
49
12.0
74
0
49
-3.0
74
0
49
0.0
74
0
49
-3.0
74
0
49
0.0
74
0
49
-3.0
74
0
0
LTYPE
5
9C
330
5
100
AcDbSymbolTableRecord
100
AcDbLinetypeTableRecord
2
ACAD_ISO14W100
70
0
3
ISO dash triple-dot __ . . . __ . . . __ . . . 
72
65
73
8
40
24.0
49
12.0
74
0
49
-3.0
74
0
49
0.0
74
0
49
-3.0
74
0
49
0.0
74
0
49
-3.0
74
0
49
0.0
74
0
49
-3.0
74
0
0
LTYPE
5
9D
330
5
100
AcDbSymbolTableRecord
100
AcDbLinetypeTableRecord
2
ACAD_ISO15W100
70
0
3
ISO double-dash triple-dot __ __ . . . __ __ . 
72
65
73
10
40
39.0
49
12.0
74
0
49
-3.0
74
0
49
12.0
74
0
49
-3.0
74
0
49
0.0
74
0
49
-3.0
74
0
49
0.0
74
0
49
-3.0
74
0
49
0.0
74
0
49
-3.0
74
0
0
LTYPE
5
A0
330
5
100
AcDbSymbolTableRecord
100
AcDbLinetypeTableRecord
2
FENCELINE1
70
0
3
Fenceline circle ----0-----0----0-----0----0---
72
65
73
3
40
1.35
49
0.25
74
0
49
-0.1
74
0
49
1.0
74
0
0
LTYPE
5
A1
330
5
100
AcDbSymbolTableRecord
100
AcDbLinetypeTableRecord
2
FENCELINE2
70
0
3
Fenceline square ----[]-----[]----[]-----[]----
72
65
73
3
40
1.35
49
0.25
74
0
49
-0.1
74
0
49
1.0
74
0
0
LTYPE
5
A2
330
5
100
AcDbSymbolTableRecord
100
AcDbLinetypeTableRecord
2
TRACKS
70
0
3
Tracks -|-|-|-|-|-|-|-|-|-|-|-|-|-|-|-|-|-|-|-|
72
65
73
1
40
0.15
49
0.15
74
0
0
LTYPE
5
A3
330
5
100
AcDbSymbolTableRecord
100
AcDbLinetypeTableRecord
2
BATTING
70
0
3
Batting SSSSSSSSSSSSSSSSSSSSSSSSSSSSSSSSSSSSSSS
72
65
73
2
40
0.1001
49
0.0001
74
0
49
-0.1
74
0
0
LTYPE
5
A4
330
5
100
AcDbSymbolTableRecord
100
AcDbLinetypeTableRecord
2
HOT_WATER_SUPPLY
70
0
3
Hot water supply ---- HW ---- HW ---- HW ----
72
65
73
3
40
0.9
49
0.5
74
0
49
-0.2
74
2
75
0
340
55
46
0.1
50
0.0
44
-0.1
45
-0.05
9
HW
49
-0.2
74
0
0
LTYPE
5
A5
330
5
100
AcDbSymbolTableRecord
100
AcDbLinetypeTableRecord
2
GAS_LINE
70
0
3
Gas line ----GAS----GAS----GAS----GAS----GAS---
72
65
73
3
40
0.95
49
0.5
74
0
49
-0.2
74
2
75
0
340
55
46
0.1
50
0.0
44
-0.1
45
-0.05
9
GAS
49
-0.25
74
0
0
LTYPE
5
A6
330
5
100
AcDbSymbolTableRecord
100
AcDbLinetypeTableRecord
2
ZIGZAG
70
0
3
Zig zag /\/\/\/\/\/\/\/\/\/\/\/\/\/\/\/\/\/\/\/
72
65
73
2
40
0.2001
49
0.0001
74
0
49
-0.2
74
0
0
ENDTAB
0
TABLE
2
LAYER
5
2
102
{ACAD_XDICTIONARY
360
193
102
}
330
0
100
AcDbSymbolTable
70
5
0
LAYER
5
54
330
2
100
AcDbSymbolTableRecord
100
AcDbLayerTableRecord
2
0
70
0
62
7
6
Continuous
290
1
370
-3
390
0
0
LAYER
5
A7
330
2
100
AcDbSymbolTableRecord
100
AcDbLayerTableRecord
2
IV_OUTER_PROFILE
70
0
62
7
6
Continuous
290
1
370
50
390
0
0
LAYER
5
A8
330
2
100
AcDbSymbolTableRecord
100
AcDbLayerTableRecord
2
IV_MARK_SURFACE
70
0
62
2
6
Continuous
290
1
370
25
390
0
0
LAYER
5
19C
330
2
100
AcDbSymbolTableRecord
100
AcDbLayerTableRecord
2
AutoDXF_SmallHoles
70
0
62
-4
6
Continuous
290
1
370
-3
390
0
0
LAYER
5
19E
330
2
100
AcDbSymbolTableRecord
100
AcDbLayerTableRecord
2
AutoDXF_SmallHoles_Points
70
0
62
-4
6
Continuous
290
1
370
-3
390
0
0
ENDTAB
0
TABLE
2
STYLE
5
3
330
0
100
AcDbSymbolTable
70
2
0
STYLE
5
55
330
3
100
AcDbSymbolTableRecord
100
AcDbTextStyleTableRecord
2
Standard
3
txt.SHX
70
0
71
0
40
0.0
41
1.0
42
0.0
50
0.0
0
STYLE
5
5A
330
3
100
AcDbSymbolTableRecord
100
AcDbTextStyleTableRecord
2
Annotative
3
txt.SHX
70
0
71
0
40
0.0
41
1.0
42
0.0
50
0.0
1001
AcadAnnotative
1000
AnnotativeData
1002
{
1070
1
1070
1
1002
}
0
STYLE
5
9F
330
194
100
AcDbSymbolTableRecord
100
AcDbTextStyleTableRecord
2

3
ltypeshp.shx
70
1
40
0.0
41
1.0
42
0.0
50
0.0
0
ENDTAB
0
TABLE
2
DIMSTYLE
5
A
330
0
100
AcDbSymbolTable
70
2
100
AcDbDimStyleTable
0
DIMSTYLE
105
58
330
A
100
AcDbSymbolTableRecord
100
AcDbDimStyleTableRecord
2
Standard
3

4

40
1.0
41
0.18
42
0.0625
43
0.38
44
0.18
45
0.0
46
0.0
47
0.0
48
0.0
49
1.0
70
0
71
0
72
0
73
0
74
0
75
0
76
0
77
0
78
0
79
3
140
0.18
141
0.09
143
25.4
144
1.0
146
1.0
147
0.09
148
0.0
170
0
171
2
172
0
174
0
175
0
176
0
177
0
178
0
179
0
271
4
272
4
273
2
274
2
275
0
276
0
277
2
278
46
279
0
280
0
281
0
282
0
283
1
284
0
285
0
286
0
289
3
290
0
294
0
340
55
173
0
345
5B
346
5B
347
5B
371
-2
372
-2
0
DIMSTYLE
105
59
330
A
100
AcDbSymbolTableRecord
100
AcDbDimStyleTableRecord
2
Annotative
3

4

40
1.0
41
0.18
42
0.0625
43
0.38
44
0.18
45
0.0
46
0.0
47
0.0
48
0.0
49
1.0
70
0
71
0
72
0
73
0
74
0
75
0
76
0
77
0
78
0
79
3
140
0.18
141
0.09
143
25.4
144
1.0
146
1.0
147
0.09
148
0.0
170
0
171
2
172
0
174
0
175
0
176
0
177
0
178
0
179
0
271
4
272
4
273
2
274
2
275
0
276
0
277
2
278
46
279
0
280
0
281
0
282
0
283
1
284
0
285
0
286
0
289
3
290
0
294
0
340
55
173
0
345
5B
346
5B
347
5B
371
-2
372
-2
1001
AcadAnnotative
1000
AnnotativeData
1002
{
1070
1
1070
1
1002
}
0
ENDTAB
0
TABLE
2
VIEW
5
6
330
0
100
AcDbSymbolTable
70
0
0
ENDTAB
0
TABLE
2
UCS
5
7
330
0
100
AcDbSymbolTable
70
0
0
ENDTAB
0
TABLE
2
BLOCK_RECORD
5
1
330
0
100
AcDbSymbolTable
70
3
0
BLOCK_RECORD
5
70
330
1
100
AcDbSymbolTableRecord
100
AcDbBlockTableRecord
2
*Model_Space
340
73
0
BLOCK_RECORD
5
6C
330
1
100
AcDbSymbolTableRecord
100
AcDbBlockTableRecord
2
*Paper_Space
340
6F
0
BLOCK_RECORD
5
74
330
1
100
AcDbSymbolTableRecord
100
AcDbBlockTableRecord
2
*Paper_Space0
340
77
0
ENDTAB
0
ENDSEC
0
SECTION
2
BLOCKS
0
BLOCK
5
71
330
70
100
AcDbEntity
67
0
8
0
100
AcDbBlockBegin
2
*Model_Space
70
0
10
0.0
20
0.0
30
0.0
3
*Model_Space
4

0
ENDBLK
5
72
330
70
100
AcDbEntity
8
0
100
AcDbBlockEnd
0
BLOCK
5
6D
330
6C
100
AcDbEntity
67
1
8
0
100
AcDbBlockBegin
2
*Paper_Space
70
0
10
0.0
20
0.0
30
0.0
3
*Paper_Space
4

0
ENDBLK
5
6E
330
6C
100
AcDbEntity
8
0
100
AcDbBlockEnd
0
BLOCK
5
75
330
74
100
AcDbEntity
67
1
8
0
100
AcDbBlockBegin
2
*Paper_Space0
70
0
10
0.0
20
0.0
30
0.0
3
*Paper_Space0
4

0
VIEWPORT
5
19B
330
74
100
AcDbEntity
67
1
8
0
62
256
6
ByLayer
370
-1
48
1.0
60
0
100
AcDbViewport
10
0.0
20
0.0
30
0.0
40
297.0
41
210.0
68
1
69
1
12
50.0
22
100.0
13
0.0
23
0.0
14
10.0
24
10.0
15
10.0
25
10.0
16
0.0
26
0.0
36
1.0
17
0.0
27
0.0
37
0.0
42
50.0
43
0.0
44
0.0
45
250.0
50
0.0
51
0.0
72
1000
90
819232
110
0.0
120
0.0
130
0.0
111
1.0
121
0.0
131
0.0
112
0.0
122
1.0
132
0.0
0
ENDBLK
5
76
330
74
100
AcDbEntity
8
0
100
AcDbBlockEnd
0
ENDSEC
0
SECTION
2
ENTITIES
0
VIEWPORT
5
19A
330
6C
100
AcDbEntity
67
1
8
0
62
256
6
ByLayer
370
-1
48
1.0
60
0
100
AcDbViewport
10
0.0
20
0.0
30
0.0
40
297.0
41
210.0
68
1
69
1
12
50.0
22
100.0
13
0.0
23
0.0
14
10.0
24
10.0
15
10.0
25
10.0
16
0.0
26
0.0
36
1.0
17
0.0
27
0.0
37
0.0
42
50.0
43
0.0
44
0.0
45
250.0
50
0.0
51
0.0
72
1000
90
819232
110
0.0
120
0.0
130
0.0
111
1.0
121
0.0
131
0.0
112
0.0
122
1.0
132
0.0
0
LINE
5
A9
330
70
100
AcDbEntity
67
0
8
IV_MARK_SURFACE
62
256
6
ByLayer
370
-1
48
1.0
60
0
100
AcDbLine
10
51.2973503867766
20
28.9666847241124
30
0.0
11
51.2973503867766
21
38.9666847241124
31
0.0
39
0.0
210
0.0
220
0.0
230
1.0
0
LINE
5
AB
330
70
100
AcDbEntity
67
0
8
IV_MARK_SURFACE
62
256
6
ByLayer
370
-1
48
1.0
60
0
100
AcDbLine
10
51.2973503867766
20
38.9666847241124
30
0.0
11
47.9640170534434
21
38.9666847241124
31
0.0
39
0.0
210
0.0
220
0.0
230
1.0
0
ARC
5
AC
330
70
100
AcDbEntity
67
0
8
IV_MARK_SURFACE
62
256
6
ByLayer
370
-1
48
1.0
60
0
100
AcDbCircle
39
0.0
10
47.9640170534434
20
36.7444625018902
30
0.0
40
2.22222222222222
210
0.0
220
0.0
230
1.0
100
AcDbArc
50
90.0
51
180.0
0
LINE
5
AD
330
70
100
AcDbEntity
67
0
8
IV_MARK_SURFACE
62
256
6
ByLayer
370
-1
48
1.0
60
0
100
AcDbLine
10
45.7417948312211
20
36.7444625018902
30
0.0
11
45.7417948312211
21
31.1889069463346
31
0.0
39
0.0
210
0.0
220
0.0
230
1.0
0
ARC
5
AE
330
70
100
AcDbEntity
67
0
8
IV_MARK_SURFACE
62
256
6
ByLayer
370
-1
48
1.0
60
0
100
AcDbCircle
39
0.0
10
47.9640170534434
20
31.1889069463346
30
0.0
40
2.22222222222222
210
0.0
220
0.0
230
1.0
100
AcDbArc
50
180.0
51
270.0
0
LINE
5
AF
330
70
100
AcDbEntity
67
0
8
IV_MARK_SURFACE
62
256
6
ByLayer
370
-1
48
1.0
60
0
100
AcDbLine
10
47.9640170534434
20
28.9666847241124
30
0.0
11
51.2973503867766
21
28.9666847241124
31
0.0
39
0.0
210
0.0
220
0.0
230
1.0
0
LINE
5
B0
330
70
100
AcDbEntity
67
0
8
IV_MARK_SURFACE
62
256
6
ByLayer
370
-1
48
1.0
60
0
100
AcDbLine
10
60.1862392756655
20
34.522240279668
30
0.0
11
60.1862392756656
21
28.9666847241124
31
0.0
39
0.0
210
0.0
220
0.0
230
1.0
0
LINE
5
B1
330
70
100
AcDbEntity
67
0
8
IV_MARK_SURFACE
62
256
6
ByLayer
370
-1
48
1.0
60
0
100
AcDbLine
10
57.4084614978877
20
34.522240279668
30
0.0
11
60.1862392756655
21
34.522240279668
31
0.0
39
0.0
210
0.0
220
0.0
230
1.0
0
ARC
5
B2
330
70
100
AcDbEntity
67
0
8
IV_MARK_SURFACE
62
256
6
ByLayer
370
-1
48
1.0
60
0
100
AcDbCircle
39
0.0
10
57.4084614978877
20
31.7444625018902
30
0.0
40
2.77777777777778
210
0.0
220
0.0
230
1.0
100
AcDbArc
50
90.0
51
270.0
0
LINE
5
B3
330
70
100
AcDbEntity
67
0
8
IV_MARK_SURFACE
62
256
6
ByLayer
370
-1
48
1.0
60
0
100
AcDbLine
10
60.1862392756656
20
28.9666847241124
30
0.0
11
57.4084614978877
21
28.9666847241124
31
0.0
39
0.0
210
0.0
220
0.0
230
1.0
0
ARC
5
B4
330
70
100
AcDbEntity
67
0
8
IV_MARK_SURFACE
62
256
6
ByLayer
370
-1
48
1.0
60
0
100
AcDbCircle
39
0.0
10
85.1862392756656
20
31.1889069463346
30
0.0
40
2.22222222222222
210
0.0
220
0.0
230
1.0
100
AcDbArc
50
90.0
51
270.0
0
LINE
5
B5
330
70
100
AcDbEntity
67
0
8
IV_MARK_SURFACE
62
256
6
ByLayer
370
-1
48
1.0
60
0
100
AcDbLine
10
87.9640170534434
20
28.9666847241124
30
0.0
11
85.1862392756656
21
28.9666847241124
31
0.0
39
0.0
210
0.0
220
0.0
230
1.0
0
LINE
5
B6
330
70
100
AcDbEntity
67
0
8
IV_MARK_SURFACE
62
256
6
ByLayer
370
-1
48
1.0
60
0
100
AcDbLine
10
87.9640170534434
20
33.4111291685569
30
0.0
11
87.9640170534434
21
28.9666847241124
31
0.0
39
0.0
210
0.0
220
0.0
230
1.0
0
LINE
5
B7
330
70
100
AcDbEntity
67
0
8
IV_MARK_SURFACE
62
256
6
ByLayer
370
-1
48
1.0
60
0
100
AcDbLine
10
85.1862392756656
20
33.4111291685569
30
0.0
11
87.9640170534434
21
33.4111291685569
31
0.0
39
0.0
210
0.0
220
0.0
230
1.0
0
CIRCLE
5
B8
330
70
100
AcDbEntity
67
0
8
AutoDXF_SmallHoles
62
256
6
ByLayer
370
-1
48
1.0
60
0
100
AcDbCircle
10
131.575128164554
20
29.2444625018902
30
0.0
40
0.277777777777778
39
0.0
210
0.0
220
0.0
230
1.0
0
ARC
5
B9
330
70
100
AcDbEntity
67
0
8
IV_MARK_SURFACE
62
256
6
ByLayer
370
-1
48
1.0
60
0
100
AcDbCircle
39
0.0
10
118.519572608999
20
33.9666847241124
30
0.0
40
1.66666666666667
210
0.0
220
0.0
230
1.0
100
AcDbArc
50
270.0
51
0.0
0
LINE
5
BA
330
70
100
AcDbEntity
67
0
8
IV_MARK_SURFACE
62
256
6
ByLayer
370
-1
48
1.0
60
0
100
AcDbLine
10
120.186239275666
20
37.3000180574457
30
0.0
11
120.186239275666
21
33.9666847241124
31
0.0
39
0.0
210
0.0
220
0.0
230
1.0
0
ARC
5
BB
330
70
100
AcDbEntity
67
0
8
IV_MARK_SURFACE
62
256
6
ByLayer
370
-1
48
1.0
60
0
100
AcDbCircle
39
0.0
10
118.519572608999
20
37.3000180574457
30
0.0
40
1.66666666666667
210
0.0
220
0.0
230
1.0
100
AcDbArc
50
0.0
51
90.0
0
LINE
5
BC
330
70
100
AcDbEntity
67
0
8
IV_MARK_SURFACE
62
256
6
ByLayer
370
-1
48
1.0
60
0
100
AcDbLine
10
115.741794831221
20
38.9666847241124
30
0.0
11
118.519572608999
21
38.9666847241124
31
0.0
39
0.0
210
0.0
220
0.0
230
1.0
0
LINE
5
BD
330
70
100
AcDbEntity
67
0
8
IV_MARK_SURFACE
62
256
6
ByLayer
370
-1
48
1.0
60
0
100
AcDbLine
10
115.741794831221
20
32.3000180574457
30
0.0
11
115.741794831221
21
38.9666847241124
31
0.0
39
0.0
210
0.0
220
0.0
230
1.0
0
LINE
5
BE
330
70
100
AcDbEntity
67
0
8
IV_MARK_SURFACE
62
256
6
ByLayer
370
-1
48
1.0
60
0
100
AcDbLine
10
118.519572608999
20
32.3000180574457
30
0.0
11
115.741794831221
21
32.3000180574457
31
0.0
39
0.0
210
0.0
220
0.0
230
1.0
0
LINE
5
BF
330
70
100
AcDbEntity
67
0
8
IV_MARK_SURFACE
62
256
6
ByLayer
370
-1
48
1.0
60
0
100
AcDbLine
10
112.408461497888
20
35.6333513907791
30
0.0
11
107.964017053443
21
35.6333513907791
31
0.0
39
0.0
210
0.0
220
0.0
230
1.0
0
LINE
5
C0
330
70
100
AcDbEntity
67
0
8
IV_MARK_SURFACE
62
256
6
ByLayer
370
-1
48
1.0
60
0
100
AcDbLine
10
107.964017053443
20
35.6333513907791
30
0.0
11
107.964017053443
21
34.522240279668
31
0.0
39
0.0
210
0.0
220
0.0
230
1.0
0
ARC
5
C1
330
70
100
AcDbEntity
67
0
8
IV_MARK_SURFACE
62
256
6
ByLayer
370
-1
48
1.0
60
0
100
AcDbCircle
39
0.0
10
110.186239275666
20
34.522240279668
30
0.0
40
2.22222222222222
210
0.0
220
0.0
230
1.0
100
AcDbArc
50
180.0
51
0.0
0
LINE
5
C2
330
70
100
AcDbEntity
67
0
8
IV_MARK_SURFACE
62
256
6
ByLayer
370
-1
48
1.0
60
0
100
AcDbLine
10
112.408461497888
20
34.522240279668
30
0.0
11
112.408461497888
21
35.6333513907791
31
0.0
39
0.0
210
0.0
220
0.0
230
1.0
0
LINE
5
C3
330
70
100
AcDbEntity
67
0
8
IV_MARK_SURFACE
62
256
6
ByLayer
370
-1
48
1.0
60
0
100
AcDbLine
10
79.0751281645545
20
31.7444625018902
30
0.0
11
79.0751281645545
21
36.1889069463346
31
0.0
39
0.0
210
0.0
220
0.0
230
1.0
0
ARC
5
C4
330
70
100
AcDbEntity
67
0
8
IV_MARK_SURFACE
62
256
6
ByLayer
370
-1
48
1.0
60
0
100
AcDbCircle
39
0.0
10
76.2973503867767
20
36.1889069463346
30
0.0
40
2.77777777777778
210
0.0
220
0.0
230
1.0
100
AcDbArc
50
0.0
51
180.0
0
LINE
5
C5
330
70
100
AcDbEntity
67
0
8
IV_MARK_SURFACE
62
256
6
ByLayer
370
-1
48
1.0
60
0
100
AcDbLine
10
73.5195726089989
20
36.1889069463346
30
0.0
11
73.5195726089989
21
31.7444625018902
31
0.0
39
0.0
210
0.0
220
0.0
230
1.0
0
ARC
5
C6
330
70
100
AcDbEntity
67
0
8
IV_MARK_SURFACE
62
256
6
ByLayer
370
-1
48
1.0
60
0
100
AcDbCircle
39
0.0
10
76.2973503867767
20
31.7444625018902
30
0.0
40
2.77777777777778
210
0.0
220
0.0
230
1.0
100
AcDbArc
50
180.0
51
0.0
0
LINE
5
C7
330
70
100
AcDbEntity
67
0
8
IV_MARK_SURFACE
62
256
6
ByLayer
370
-1
48
1.0
60
0
100
AcDbLine
10
17.9640170534434
20
36.7444625018902
30
0.0
11
20.1862392756657
21
36.7444625018902
31
0.0
39
0.0
210
0.0
220
0.0
230
1.0
0
LINE
5
C8
330
70
100
AcDbEntity
67
0
8
IV_MARK_SURFACE
62
256
6
ByLayer
370
-1
48
1.0
60
0
100
AcDbLine
10
16.8529059423323
20
34.522240279668
30
0.0
11
17.9640170534434
21
36.7444625018902
31
0.0
39
0.0
210
0.0
220
0.0
230
1.0
0
LINE
5
C9
330
70
100
AcDbEntity
67
0
8
IV_MARK_SURFACE
62
256
6
ByLayer
370
-1
48
1.0
60
0
100
AcDbLine
10
19.0751281645545
20
34.522240279668
30
0.0
11
16.8529059423323
21
34.522240279668
31
0.0
39
0.0
210
0.0
220
0.0
230
1.0
0
LINE
5
CA
330
70
100
AcDbEntity
67
0
8
IV_MARK_SURFACE
62
256
6
ByLayer
370
-1
48
1.0
60
0
100
AcDbLine
10
20.1862392756657
20
36.7444625018902
30
0.0
11
19.0751281645545
21
34.522240279668
31
0.0
39
0.0
210
0.0
220
0.0
230
1.0
0
LINE
5
CB
330
70
100
AcDbEntity
67
0
8
IV_MARK_SURFACE
62
256
6
ByLayer
370
-1
48
1.0
60
0
100
AcDbLine
10
6.8529059423323
20
36.7444625018902
30
0.0
11
9.07512816455458
21
36.7444625018902
31
0.0
39
0.0
210
0.0
220
0.0
230
1.0
0
LINE
5
CC
330
70
100
AcDbEntity
67
0
8
IV_MARK_SURFACE
62
256
6
ByLayer
370
-1
48
1.0
60
0
100
AcDbLine
10
5.74179483122123
20
34.522240279668
30
0.0
11
6.8529059423323
21
36.7444625018902
31
0.0
39
0.0
210
0.0
220
0.0
230
1.0
0
LINE
5
CD
330
70
100
AcDbEntity
67
0
8
IV_MARK_SURFACE
62
256
6
ByLayer
370
-1
48
1.0
60
0
100
AcDbLine
10
7.96401705344351
20
34.522240279668
30
0.0
11
5.74179483122123
21
34.522240279668
31
0.0
39
0.0
210
0.0
220
0.0
230
1.0
0
LINE
5
CE
330
70
100
AcDbEntity
67
0
8
IV_MARK_SURFACE
62
256
6
ByLayer
370
-1
48
1.0
60
0
100
AcDbLine
10
9.07512816455458
20
36.7444625018902
30
0.0
11
7.96401705344351
21
34.522240279668
31
0.0
39
0.0
210
0.0
220
0.0
230
1.0
0
LINE
5
CF
330
70
100
AcDbEntity
67
0
8
IV_MARK_SURFACE
62
256
6
ByLayer
370
-1
48
1.0
60
0
100
AcDbLine
10
87.9640170534434
20
38.9666847241124
30
0.0
11
87.9640170534434
21
33.4111291685569
31
0.0
39
0.0
210
0.0
220
0.0
230
1.0
0
LINE
5
D0
330
70
100
AcDbEntity
67
0
8
IV_MARK_SURFACE
62
256
6
ByLayer
370
-1
48
1.0
60
0
100
AcDbLine
10
85.1862392756656
20
38.9666847241124
30
0.0
11
87.9640170534434
21
38.9666847241124
31
0.0
39
0.0
210
0.0
220
0.0
230
1.0
0
ARC
5
D1
330
70
100
AcDbEntity
67
0
8
IV_MARK_SURFACE
62
256
6
ByLayer
370
-1
48
1.0
60
0
100
AcDbCircle
39
0.0
10
85.1862392756656
20
36.1889069463346
30
0.0
40
2.77777777777778
210
0.0
220
0.0
230
1.0
100
AcDbArc
50
90.0
51
270.0
0
LINE
5
D2
330
70
100
AcDbEntity
67
0
8
IV_MARK_SURFACE
62
256
6
ByLayer
370
-1
48
1.0
60
0
100
AcDbLine
10
60.1862392756656
20
38.9666847241124
30
0.0
11
60.1862392756655
21
34.522240279668
31
0.0
39
0.0
210
0.0
220
0.0
230
1.0
0
LINE
5
D3
330
70
100
AcDbEntity
67
0
8
IV_MARK_SURFACE
62
256
6
ByLayer
370
-1
48
1.0
60
0
100
AcDbLine
10
131.575128164554
20
38.9666847241124
30
0.0
11
131.575128164554
21
32.3000180574457
31
0.0
39
0.0
210
0.0
220
0.0
230
1.0
0
LINE
5
D4
330
70
100
AcDbEntity
67
0
8
IV_MARK_SURFACE
62
256
6
ByLayer
370
-1
48
1.0
60
0
100
AcDbLine
10
144.075128164554
20
38.9666847241124
30
0.0
11
144.075128164554
21
32.3000180574457
31
0.0
39
0.0
210
0.0
220
0.0
230
1.0
0
LINE
5
D5
330
70
100
AcDbEntity
67
0
8
IV_MARK_SURFACE
62
256
6
ByLayer
370
-1
48
1.0
60
0
100
AcDbLine
10
145.186239275666
20
32.3000180574457
30
0.0
11
144.075128164554
21
32.3000180574457
31
0.0
39
0.0
210
0.0
220
0.0
230
1.0
0
LINE
5
D6
330
70
100
AcDbEntity
67
0
8
IV_MARK_SURFACE
62
256
6
ByLayer
370
-1
48
1.0
60
0
100
AcDbLine
10
144.075128164554
20
32.3000180574457
30
0.0
11
144.075128164554
21
28.9666847241124
31
0.0
39
0.0
210
0.0
220
0.0
230
1.0
0
LINE
5
D7
330
70
100
AcDbEntity
67
0
8
IV_MARK_SURFACE
62
256
6
ByLayer
370
-1
48
1.0
60
0
100
AcDbLine
10
144.075128164554
20
32.3000180574457
30
0.0
11
141.852905942332
21
32.3000180574457
31
0.0
39
0.0
210
0.0
220
0.0
230
1.0
0
LINE
5
D8
330
70
100
AcDbEntity
67
0
8
IV_MARK_SURFACE
62
256
6
ByLayer
370
-1
48
1.0
60
0
100
AcDbLine
10
170.741794831221
20
38.9666847241124
30
0.0
11
167.964017053443
21
38.9666847241124
31
0.0
39
0.0
210
0.0
220
0.0
230
1.0
0
ARC
5
D9
330
70
100
AcDbEntity
67
0
8
IV_MARK_SURFACE
62
256
6
ByLayer
370
-1
48
1.0
60
0
100
AcDbCircle
39
0.0
10
168.672198347855
20
36.6994376421928
30
0.0
40
2.37527473699934
210
0.0
220
0.0
230
1.0
100
AcDbArc
50
107.346348095759
51
178.913856612552
0
LINE
5
DA
330
70
100
AcDbEntity
67
0
8
IV_MARK_SURFACE
62
256
6
ByLayer
370
-1
48
1.0
60
0
100
AcDbLine
10
166.297350386777
20
36.7444625018902
30
0.0
11
166.297350386777
21
35.6333513907791
31
0.0
39
0.0
210
0.0
220
0.0
230
1.0
0
ARC
5
DB
330
70
100
AcDbEntity
67
0
8
IV_MARK_SURFACE
62
256
6
ByLayer
370
-1
48
1.0
60
0
100
AcDbCircle
39
0.0
10
168.672198347855
20
35.6783762504765
30
0.0
40
2.37527473699934
210
0.0
220
0.0
230
1.0
100
AcDbArc
50
181.086143387448
51
252.653651904241
0
LINE
5
DC
330
70
100
AcDbEntity
67
0
8
IV_MARK_SURFACE
62
256
6
ByLayer
370
-1
48
1.0
60
0
100
AcDbLine
10
167.964017053443
20
33.4111291685568
30
0.0
11
170.741794831221
21
33.4111291685568
31
0.0
39
0.0
210
0.0
220
0.0
230
1.0
0
LINE
5
DD
330
70
100
AcDbEntity
67
0
8
IV_MARK_SURFACE
62
256
6
ByLayer
370
-1
48
1.0
60
0
100
AcDbLine
10
170.741794831221
20
33.4111291685568
30
0.0
11
170.741794831221
21
28.9666847241124
31
0.0
39
0.0
210
0.0
220
0.0
230
1.0
0
LINE
5
DE
330
70
100
AcDbEntity
67
0
8
IV_MARK_SURFACE
62
256
6
ByLayer
370
-1
48
1.0
60
0
100
AcDbLine
10
170.741794831221
20
28.9666847241124
30
0.0
11
166.297350386777
21
28.9666847241124
31
0.0
39
0.0
210
0.0
220
0.0
230
1.0
0
LINE
5
DF
330
70
100
AcDbEntity
67
0
8
IV_MARK_SURFACE
62
256
6
ByLayer
370
-1
48
1.0
60
0
100
AcDbLine
10
174.075128164554
20
38.9666847241124
30
0.0
11
178.519572608999
21
38.9666847241124
31
0.0
39
0.0
210
0.0
220
0.0
230
1.0
0
LINE
5
E0
330
70
100
AcDbEntity
67
0
8
IV_MARK_SURFACE
62
256
6
ByLayer
370
-1
48
1.0
60
0
100
AcDbLine
10
178.519572608999
20
38.9666847241124
30
0.0
11
174.63068372011
21
32.8555736130013
31
0.0
39
0.0
210
0.0
220
0.0
230
1.0
0
ARC
5
E1
330
70
100
AcDbEntity
67
0
8
IV_MARK_SURFACE
62
256
6
ByLayer
370
-1
48
1.0
60
0
100
AcDbCircle
39
0.0
10
177.065766834721
20
31.0662472787931
30
0.0
40
3.02180715886257
210
0.0
220
0.0
230
1.0
100
AcDbArc
50
143.69113766971
51
188.236375394437
0
ARC
5
E2
330
70
100
AcDbEntity
67
0
8
IV_MARK_SURFACE
62
256
6
ByLayer
370
-1
48
1.0
60
0
100
AcDbCircle
39
0.0
10
176.297350386777
20
31.2875854010015
30
0.0
40
2.31652622369572
210
0.0
220
0.0
230
1.0
100
AcDbArc
50
196.404708489251
51
343.595291510749
0
ARC
5
E3
330
70
100
AcDbEntity
67
0
8
IV_MARK_SURFACE
62
256
6
ByLayer
370
-1
48
1.0
60
0
100
AcDbCircle
39
0.0
10
184.075128164554
20
31.1889069463346
30
0.0
40
2.22222222222222
210
0.0
220
0.0
230
1.0
100
AcDbArc
50
90.0
51
270.0
0
LINE
5
E4
330
70
100
AcDbEntity
67
0
8
IV_MARK_SURFACE
62
256
6
ByLayer
370
-1
48
1.0
60
0
100
AcDbLine
10
184.075128164554
20
28.9666847241124
30
0.0
11
186.297350386777
21
28.9666847241124
31
0.0
39
0.0
210
0.0
220
0.0
230
1.0
0
LINE
5
E5
330
70
100
AcDbEntity
67
0
8
IV_MARK_SURFACE
62
256
6
ByLayer
370
-1
48
1.0
60
0
100
AcDbLine
10
199.63068372011
20
38.9666847241124
30
0.0
11
201.852905942332
21
38.9666847241124
31
0.0
39
0.0
210
0.0
220
0.0
230
1.0
0
ARC
5
E6
330
70
100
AcDbEntity
67
0
8
IV_MARK_SURFACE
62
256
6
ByLayer
370
-1
48
1.0
60
0
100
AcDbCircle
39
0.0
10
201.852905942332
20
36.7444625018902
30
0.0
40
2.22222222222222
210
0.0
220
0.0
230
1.0
100
AcDbArc
50
0.0
51
90.0
0
LINE
5
E7
330
70
100
AcDbEntity
67
0
8
IV_MARK_SURFACE
62
256
6
ByLayer
370
-1
48
1.0
60
0
100
AcDbLine
10
204.075128164554
20
36.7444625018902
30
0.0
11
204.075128164554
21
31.1889069463346
31
0.0
39
0.0
210
0.0
220
0.0
230
1.0
0
ARC
5
E8
330
70
100
AcDbEntity
67
0
8
IV_MARK_SURFACE
62
256
6
ByLayer
370
-1
48
1.0
60
0
100
AcDbCircle
39
0.0
10
201.852905942332
20
31.1889069463346
30
0.0
40
2.22222222222222
210
0.0
220
0.0
230
1.0
100
AcDbArc
50
270.0
51
0.0
0
LINE
5
E9
330
70
100
AcDbEntity
67
0
8
IV_MARK_SURFACE
62
256
6
ByLayer
370
-1
48
1.0
60
0
100
AcDbLine
10
201.852905942332
20
28.9666847241124
30
0.0
11
199.63068372011
21
28.9666847241124
31
0.0
39
0.0
210
0.0
220
0.0
230
1.0
0
LINE
5
EA
330
70
100
AcDbEntity
67
0
8
IV_MARK_SURFACE
62
256
6
ByLayer
370
-1
48
1.0
60
0
100
AcDbLine
10
222.408461497888
20
38.9666847241124
30
0.0
11
222.408461497888
21
28.9666847241124
31
0.0
39
0.0
210
0.0
220
0.0
230
1.0
0
LINE
5
EB
330
70
100
AcDbEntity
67
0
8
IV_MARK_SURFACE
62
256
6
ByLayer
370
-1
48
1.0
60
0
100
AcDbLine
10
222.408461497888
20
28.9666847241124
30
0.0
11
219.075128164554
21
34.522240279668
31
0.0
39
0.0
210
0.0
220
0.0
230
1.0
0
LINE
5
EC
330
70
100
AcDbEntity
67
0
8
IV_MARK_SURFACE
62
256
6
ByLayer
370
-1
48
1.0
60
0
100
AcDbLine
10
219.075128164554
20
34.522240279668
30
0.0
11
215.741794831221
21
28.9666847241124
31
0.0
39
0.0
210
0.0
220
0.0
230
1.0
0
LINE
5
ED
330
70
100
AcDbEntity
67
0
8
IV_MARK_SURFACE
62
256
6
ByLayer
370
-1
48
1.0
60
0
100
AcDbLine
10
215.741794831221
20
28.9666847241124
30
0.0
11
215.741794831221
21
38.9666847241124
31
0.0
39
0.0
210
0.0
220
0.0
230
1.0
0
ARC
5
EE
330
70
100
AcDbEntity
67
0
8
IV_MARK_SURFACE
62
256
6
ByLayer
370
-1
48
1.0
60
0
100
AcDbCircle
39
0.0
10
210.341357385902
20
35.2978308308491
30
0.0
40
3.73705043441529
210
0.0
220
0.0
230
1.0
100
AcDbArc
50
56.4174486636164
51
100.962686388343
0
ARC
5
EF
330
70
100
AcDbEntity
67
0
8
IV_MARK_SURFACE
62
256
6
ByLayer
370
-1
48
1.0
60
0
100
AcDbCircle
39
0.0
10
209.729362174777
20
36.5809039993346
30
0.0
40
2.38782057620267
210
0.0
220
0.0
230
1.0
100
AcDbArc
50
92.3684650213242
51
239.559048042822
0
LINE
5
F0
330
70
100
AcDbEntity
67
0
8
IV_MARK_SURFACE
62
256
6
ByLayer
370
-1
48
1.0
60
0
100
AcDbLine
10
208.519572608999
20
34.522240279668
30
0.0
11
211.297350386777
21
32.8555736130013
31
0.0
39
0.0
210
0.0
220
0.0
230
1.0
0
ARC
5
F1
330
70
100
AcDbEntity
67
0
8
IV_MARK_SURFACE
62
256
6
ByLayer
370
-1
48
1.0
60
0
100
AcDbCircle
39
0.0
10
210.168481961431
20
30.9544659124808
30
0.0
40
2.21100755555459
210
0.0
220
0.0
230
1.0
100
AcDbArc
50
319.626277176387
51
59.2983672396628
0
ARC
5
F2
330
70
100
AcDbEntity
67
0
8
IV_MARK_SURFACE
62
256
6
ByLayer
370
-1
48
1.0
60
0
100
AcDbCircle
39
0.0
10
209.63068372011
20
33.6519974975158
30
0.0
40
4.68968722659668
210
0.0
220
0.0
230
1.0
100
AcDbArc
50
241.715306715935
51
298.284693284065
0
LINE
5
F3
330
70
100
AcDbEntity
67
0
8
IV_MARK_SURFACE
62
256
6
ByLayer
370
-1
48
1.0
60
0
100
AcDbLine
10
186.297350386777
20
38.9666847241124
30
0.0
11
184.63068372011
21
38.9666847241124
31
0.0
39
0.0
210
0.0
220
0.0
230
1.0
0
ARC
5
F4
330
70
100
AcDbEntity
67
0
8
IV_MARK_SURFACE
62
256
6
ByLayer
370
-1
48
1.0
60
0
100
AcDbCircle
39
0.0
10
184.63068372011
20
36.1889069463346
30
0.0
40
2.77777777777778
210
0.0
220
0.0
230
1.0
100
AcDbArc
50
90.0
51
270.0
0
LINE
5
F5
330
70
100
AcDbEntity
67
0
8
IV_MARK_SURFACE
62
256
6
ByLayer
370
-1
48
1.0
60
0
100
AcDbLine
10
184.63068372011
20
33.4111291685569
30
0.0
11
185.186239275666
21
33.4111291685569
31
0.0
39
0.0
210
0.0
220
0.0
230
1.0
0
ARC
5
F6
330
70
100
AcDbEntity
67
0
8
IV_MARK_SURFACE
62
256
6
ByLayer
370
-1
48
1.0
60
0
100
AcDbCircle
39
0.0
10
151.285435757684
20
37.1432572249182
30
0.0
40
1.82346642502788
210
0.0
220
0.0
230
1.0
100
AcDbArc
50
22.9942413608624
51
89.6256235871752
0
LINE
5
F7
330
70
100
AcDbEntity
67
0
8
IV_MARK_SURFACE
62
256
6
ByLayer
370
-1
48
1.0
60
0
100
AcDbLine
10
151.297350386777
20
38.9666847241124
30
0.0
11
150.186239275665
21
38.9666847241124
31
0.0
39
0.0
210
0.0
220
0.0
230
1.0
0
ARC
5
F8
330
70
100
AcDbEntity
67
0
8
IV_MARK_SURFACE
62
256
6
ByLayer
370
-1
48
1.0
60
0
100
AcDbCircle
39
0.0
10
150.198153904758
20
37.1432572249182
30
0.0
40
1.82346642502788
210
0.0
220
0.0
230
1.0
100
AcDbArc
50
90.3743764128237
51
157.005758639137
0
LINE
5
F9
330
70
100
AcDbEntity
67
0
8
IV_MARK_SURFACE
62
256
6
ByLayer
370
-1
48
1.0
60
0
100
AcDbLine
10
148.519572608999
20
37.8555736130013
30
0.0
11
148.519572608999
21
37.3000180574457
31
0.0
39
0.0
210
0.0
220
0.0
230
1.0
0
ARC
5
FA
330
70
100
AcDbEntity
67
0
8
IV_MARK_SURFACE
62
256
6
ByLayer
370
-1
48
1.0
60
0
100
AcDbCircle
39
0.0
10
150.375097879878
20
38.0444322172142
30
0.0
40
1.99928148896964
210
0.0
220
0.0
230
1.0
100
AcDbArc
50
201.860055904196
51
248.139944095804
0
LINE
5
FB
330
70
100
AcDbEntity
67
0
8
IV_MARK_SURFACE
62
256
6
ByLayer
370
-1
48
1.0
60
0
100
AcDbLine
10
149.63068372011
20
36.1889069463346
30
0.0
11
151.852905942332
21
35.0777958352235
31
0.0
39
0.0
210
0.0
220
0.0
230
1.0
0
ARC
5
FC
330
70
100
AcDbEntity
67
0
8
IV_MARK_SURFACE
62
256
6
ByLayer
370
-1
48
1.0
60
0
100
AcDbCircle
39
0.0
10
151.108491782564
20
33.2222705643439
30
0.0
40
1.99928148896964
210
0.0
220
0.0
230
1.0
100
AcDbArc
50
21.8600559041962
51
68.1399440958038
0
LINE
5
FD
330
70
100
AcDbEntity
67
0
8
IV_MARK_SURFACE
62
256
6
ByLayer
370
-1
48
1.0
60
0
100
AcDbLine
10
152.964017053443
20
33.9666847241124
30
0.0
11
152.964017053443
21
33.4111291685568
31
0.0
39
0.0
210
0.0
220
0.0
230
1.0
0
ARC
5
FE
330
70
100
AcDbEntity
67
0
8
IV_MARK_SURFACE
62
256
6
ByLayer
370
-1
48
1.0
60
0
100
AcDbCircle
39
0.0
10
151.285435757684
20
34.1234455566399
30
0.0
40
1.82346642502788
210
0.0
220
0.0
230
1.0
100
AcDbArc
50
270.374376412822
51
337.005758639137
0
LINE
5
FF
330
70
100
AcDbEntity
67
0
8
IV_MARK_SURFACE
62
256
6
ByLayer
370
-1
48
1.0
60
0
100
AcDbLine
10
151.297350386777
20
32.3000180574457
30
0.0
11
150.186239275666
21
32.3000180574457
31
0.0
39
0.0
210
0.0
220
0.0
230
1.0
0
ARC
5
100
330
70
100
AcDbEntity
67
0
8
IV_MARK_SURFACE
62
256
6
ByLayer
370
-1
48
1.0
60
0
100
AcDbCircle
39
0.0
10
150.198153904758
20
34.1234455566399
30
0.0
40
1.82346642502788
210
0.0
220
0.0
230
1.0
100
AcDbArc
50
202.994241360863
51
269.625623587176
0
LINE
5
101
330
70
100
AcDbEntity
67
0
8
IV_MARK_SURFACE
62
256
6
ByLayer
370
-1
48
1.0
60
0
100
AcDbLine
10
138.519572608999
20
38.9666847241124
30
0.0
11
138.519572608999
21
32.3000180574457
31
0.0
39
0.0
210
0.0
220
0.0
230
1.0
0
LINE
5
102
330
70
100
AcDbEntity
67
0
8
IV_MARK_SURFACE
62
256
6
ByLayer
370
-1
48
1.0
60
0
100
AcDbLine
10
138.519572608999
20
32.3000180574457
30
0.0
11
136.297350386777
21
32.3000180574457
31
0.0
39
0.0
210
0.0
220
0.0
230
1.0
0
ARC
5
103
330
70
100
AcDbEntity
67
0
8
IV_MARK_SURFACE
62
256
6
ByLayer
370
-1
48
1.0
60
0
100
AcDbCircle
39
0.0
10
136.297350386777
20
33.4111291685568
30
0.0
40
1.11111111111111
210
0.0
220
0.0
230
1.0
100
AcDbArc
50
180.0
51
270.0
0
LINE
5
104
330
70
100
AcDbEntity
67
0
8
IV_MARK_SURFACE
62
256
6
ByLayer
370
-1
48
1.0
60
0
100
AcDbLine
10
127.964017053443
20
38.9666847241124
30
0.0
11
127.964017053443
21
32.3000180574457
31
0.0
39
0.0
210
0.0
220
0.0
230
1.0
0
LINE
5
105
330
70
100
AcDbEntity
67
0
8
IV_MARK_SURFACE
62
256
6
ByLayer
370
-1
48
1.0
60
0
100
AcDbLine
10
127.964017053443
20
32.3000180574457
30
0.0
11
125.186239275666
21
32.3000180574457
31
0.0
39
0.0
210
0.0
220
0.0
230
1.0
0
ARC
5
106
330
70
100
AcDbEntity
67
0
8
IV_MARK_SURFACE
62
256
6
ByLayer
370
-1
48
1.0
60
0
100
AcDbCircle
39
0.0
10
125.186239275666
20
33.9666847241124
30
0.0
40
1.66666666666667
210
0.0
220
0.0
230
1.0
100
AcDbArc
50
180.0
51
270.0
0
LINE
5
107
330
70
100
AcDbEntity
67
0
8
IV_MARK_SURFACE
62
256
6
ByLayer
370
-1
48
1.0
60
0
100
AcDbLine
10
123.519572608999
20
33.9666847241124
30
0.0
11
123.519572608999
21
38.9666847241124
31
0.0
39
0.0
210
0.0
220
0.0
230
1.0
0
LINE
5
108
330
70
100
AcDbEntity
67
0
8
IV_MARK_SURFACE
62
256
6
ByLayer
370
-1
48
1.0
60
0
100
AcDbLine
10
115.741794831221
20
38.9666847241124
30
0.0
11
115.741794831221
21
40.6333513907791
31
0.0
39
0.0
210
0.0
220
0.0
230
1.0
0
ARC
5
109
330
70
100
AcDbEntity
67
0
8
IV_MARK_SURFACE
62
256
6
ByLayer
370
-1
48
1.0
60
0
100
AcDbCircle
39
0.0
10
117.408461497888
20
40.6333513907791
30
0.0
40
1.66666666666667
210
0.0
220
0.0
230
1.0
100
AcDbArc
50
90.0
51
180.0
0
LINE
5
10A
330
70
100
AcDbEntity
67
0
8
IV_MARK_SURFACE
62
256
6
ByLayer
370
-1
48
1.0
60
0
100
AcDbLine
10
117.408461497888
20
42.3000180574457
30
0.0
11
120.186239275666
21
42.3000180574457
31
0.0
39
0.0
210
0.0
220
0.0
230
1.0
0
LINE
5
10B
330
70
100
AcDbEntity
67
0
8
IV_MARK_SURFACE
62
256
6
ByLayer
370
-1
48
1.0
60
0
100
AcDbLine
10
112.408461497888
20
35.6333513907791
30
0.0
11
112.408461497888
21
37.3000180574458
31
0.0
39
0.0
210
0.0
220
0.0
230
1.0
0
ARC
5
10C
330
70
100
AcDbEntity
67
0
8
IV_MARK_SURFACE
62
256
6
ByLayer
370
-1
48
1.0
60
0
100
AcDbCircle
39
0.0
10
110.741794831221
20
37.3000180574457
30
0.0
40
1.66666666666667
210
0.0
220
0.0
230
1.0
100
AcDbArc
50
0.0
51
90.0
0
LINE
5
10D
330
70
100
AcDbEntity
67
0
8
IV_MARK_SURFACE
62
256
6
ByLayer
370
-1
48
1.0
60
0
100
AcDbLine
10
110.741794831221
20
38.9666847241124
30
0.0
11
107.964017053443
21
38.9666847241124
31
0.0
39
0.0
210
0.0
220
0.0
230
1.0
0
LINE
5
10E
330
70
100
AcDbEntity
67
0
8
IV_MARK_SURFACE
62
256
6
ByLayer
370
-1
48
1.0
60
0
100
AcDbLine
10
104.63068372011
20
38.9666847241124
30
0.0
11
104.63068372011
21
32.3000180574458
31
0.0
39
0.0
210
0.0
220
0.0
230
1.0
0
LINE
5
10F
330
70
100
AcDbEntity
67
0
8
IV_MARK_SURFACE
62
256
6
ByLayer
370
-1
48
1.0
60
0
100
AcDbLine
10
104.63068372011
20
32.3000180574458
30
0.0
11
102.408461497888
21
32.3000180574458
31
0.0
39
0.0
210
0.0
220
0.0
230
1.0
0
ARC
5
110
330
70
100
AcDbEntity
67
0
8
IV_MARK_SURFACE
62
256
6
ByLayer
370
-1
48
1.0
60
0
100
AcDbCircle
39
0.0
10
102.408461497888
20
33.4111291685569
30
0.0
40
1.11111111111111
210
0.0
220
0.0
230
1.0
100
AcDbArc
50
180.0
51
270.0
0
LINE
5
111
330
70
100
AcDbEntity
67
0
8
IV_MARK_SURFACE
62
256
6
ByLayer
370
-1
48
1.0
60
0
100
AcDbLine
10
63.5195726089989
20
38.9666847241124
30
0.0
11
66.8529059423322
21
28.9666847241124
31
0.0
39
0.0
210
0.0
220
0.0
230
1.0
0
LINE
5
112
330
70
100
AcDbEntity
67
0
8
IV_MARK_SURFACE
62
256
6
ByLayer
370
-1
48
1.0
60
0
100
AcDbLine
10
66.8529059423322
20
28.9666847241124
30
0.0
11
70.1862392756656
21
38.9666847241124
31
0.0
39
0.0
210
0.0
220
0.0
230
1.0
0
LINE
5
113
330
70
100
AcDbEntity
67
0
8
IV_MARK_SURFACE
62
256
6
ByLayer
370
-1
48
1.0
60
0
100
AcDbLine
10
69.0751281645545
20
36.1889069463346
30
0.0
11
64.63068372011
21
36.1889069463346
31
0.0
39
0.0
210
0.0
220
0.0
230
1.0
0
LINE
5
114
330
70
100
AcDbEntity
67
0
8
IV_MARK_SURFACE
62
256
6
ByLayer
370
-1
48
1.0
60
0
100
AcDbLine
10
56.8529059423322
20
34.522240279668
30
0.0
11
54.63068372011
21
38.9666847241124
31
0.0
39
0.0
210
0.0
220
0.0
230
1.0
0
LINE
5
115
330
70
100
AcDbEntity
67
0
8
IV_MARK_SURFACE
62
256
6
ByLayer
370
-1
48
1.0
60
0
100
AcDbLine
10
21.2973503867767
20
38.9666847241124
30
0.0
11
20.1862392756657
21
36.7444625018902
31
0.0
39
0.0
210
0.0
220
0.0
230
1.0
0
LINE
5
116
330
70
100
AcDbEntity
67
0
8
IV_MARK_SURFACE
62
256
6
ByLayer
370
-1
48
1.0
60
0
100
AcDbLine
10
20.1862392756657
20
36.7444625018902
30
0.0
11
22.4084614978879
21
36.7444625018902
31
0.0
39
0.0
210
0.0
220
0.0
230
1.0
0
LINE
5
117
330
70
100
AcDbEntity
67
0
8
IV_MARK_SURFACE
62
256
6
ByLayer
370
-1
48
1.0
60
0
100
AcDbLine
10
21.2973503867768
20
34.522240279668
30
0.0
11
19.0751281645545
21
34.522240279668
31
0.0
39
0.0
210
0.0
220
0.0
230
1.0
0
LINE
5
118
330
70
100
AcDbEntity
67
0
8
IV_MARK_SURFACE
62
256
6
ByLayer
370
-1
48
1.0
60
0
100
AcDbLine
10
19.0751281645545
20
34.522240279668
30
0.0
11
17.9640170534434
21
32.3000180574458
31
0.0
39
0.0
210
0.0
220
0.0
230
1.0
0
LINE
5
119
330
70
100
AcDbEntity
67
0
8
IV_MARK_SURFACE
62
256
6
ByLayer
370
-1
48
1.0
60
0
100
AcDbLine
10
15.7417948312211
20
32.3000180574458
30
0.0
11
16.8529059423323
21
34.522240279668
31
0.0
39
0.0
210
0.0
220
0.0
230
1.0
0
LINE
5
11A
330
70
100
AcDbEntity
67
0
8
IV_MARK_SURFACE
62
256
6
ByLayer
370
-1
48
1.0
60
0
100
AcDbLine
10
16.8529059423323
20
34.522240279668
30
0.0
11
14.6306837201101
21
34.522240279668
31
0.0
39
0.0
210
0.0
220
0.0
230
1.0
0
LINE
5
11B
330
70
100
AcDbEntity
67
0
8
IV_MARK_SURFACE
62
256
6
ByLayer
370
-1
48
1.0
60
0
100
AcDbLine
10
15.7417948312211
20
36.7444625018902
30
0.0
11
17.9640170534434
21
36.7444625018902
31
0.0
39
0.0
210
0.0
220
0.0
230
1.0
0
LINE
5
11C
330
70
100
AcDbEntity
67
0
8
IV_MARK_SURFACE
62
256
6
ByLayer
370
-1
48
1.0
60
0
100
AcDbLine
10
17.9640170534434
20
36.7444625018902
30
0.0
11
19.0751281645545
21
38.9666847241124
31
0.0
39
0.0
210
0.0
220
0.0
230
1.0
0
LINE
5
11D
330
70
100
AcDbEntity
67
0
8
IV_MARK_SURFACE
62
256
6
ByLayer
370
-1
48
1.0
60
0
100
AcDbLine
10
10.1862392756657
20
38.9666847241124
30
0.0
11
9.07512816455458
21
36.7444625018902
31
0.0
39
0.0
210
0.0
220
0.0
230
1.0
0
LINE
5
11E
330
70
100
AcDbEntity
67
0
8
IV_MARK_SURFACE
62
256
6
ByLayer
370
-1
48
1.0
60
0
100
AcDbLine
10
9.07512816455458
20
36.7444625018902
30
0.0
11
11.2973503867769
21
36.7444625018902
31
0.0
39
0.0
210
0.0
220
0.0
230
1.0
0
LINE
5
11F
330
70
100
AcDbEntity
67
0
8
IV_MARK_SURFACE
62
256
6
ByLayer
370
-1
48
1.0
60
0
100
AcDbLine
10
10.1862392756657
20
34.522240279668
30
0.0
11
7.96401705344351
21
34.522240279668
31
0.0
39
0.0
210
0.0
220
0.0
230
1.0
0
LINE
5
120
330
70
100
AcDbEntity
67
0
8
IV_MARK_SURFACE
62
256
6
ByLayer
370
-1
48
1.0
60
0
100
AcDbLine
10
7.96401705344351
20
34.522240279668
30
0.0
11
6.85290594233237
21
32.3000180574458
31
0.0
39
0.0
210
0.0
220
0.0
230
1.0
0
LINE
5
121
330
70
100
AcDbEntity
67
0
8
IV_MARK_SURFACE
62
256
6
ByLayer
370
-1
48
1.0
60
0
100
AcDbLine
10
4.63068372011015
20
32.3000180574458
30
0.0
11
5.74179483122123
21
34.522240279668
31
0.0
39
0.0
210
0.0
220
0.0
230
1.0
0
LINE
5
122
330
70
100
AcDbEntity
67
0
8
IV_MARK_SURFACE
62
256
6
ByLayer
370
-1
48
1.0
60
0
100
AcDbLine
10
5.74179483122123
20
34.522240279668
30
0.0
11
3.51957260899908
21
34.522240279668
31
0.0
39
0.0
210
0.0
220
0.0
230
1.0
0
LINE
5
123
330
70
100
AcDbEntity
67
0
8
IV_MARK_SURFACE
62
256
6
ByLayer
370
-1
48
1.0
60
0
100
AcDbLine
10
4.63068372011015
20
36.7444625018902
30
0.0
11
6.8529059423323
21
36.7444625018902
31
0.0
39
0.0
210
0.0
220
0.0
230
1.0
0
LINE
5
124
330
70
100
AcDbEntity
67
0
8
IV_MARK_SURFACE
62
256
6
ByLayer
370
-1
48
1.0
60
0
100
AcDbLine
10
6.8529059423323
20
36.7444625018902
30
0.0
11
7.96401705344344
21
38.9666847241124
31
0.0
39
0.0
210
0.0
220
0.0
230
1.0
0
ARC
5
125
330
70
100
AcDbEntity
67
0
8
IV_OUTER_PROFILE
62
256
6
ByLayer
370
-1
48
1.0
60
0
100
AcDbCircle
39
0.0
10
187.174474797916
20
69.5329753406828
30
0.0
40
64.1397411363274
210
0.0
220
0.0
230
1.0
100
AcDbArc
50
302.185975181795
51
303.772280794325
0
LINE
5
126
330
70
100
AcDbEntity
67
0
8
IV_OUTER_PROFILE
62
256
6
ByLayer
370
-1
48
1.0
60
0
100
AcDbLine
10
203.165492593181
20
0.0000001408832073
30
0.0
11
221.339734880243
21
15.2500001408832
31
0.0
39
0.0
210
0.0
220
0.0
230
1.0
0
ARC
5
127
330
70
100
AcDbEntity
67
0
8
IV_OUTER_PROFILE
62
256
6
ByLayer
370
-1
48
1.0
60
0
100
AcDbCircle
39
0.0
10
224.802513446608
20
20.9505234941385
30
0.0
40
2.1980514882101
210
0.0
220
0.0
230
1.0
100
AcDbArc
50
352.300351131413
51
0.0382478979225987
0
ARC
5
128
330
70
100
AcDbEntity
67
0
8
IV_OUTER_PROFILE
62
256
6
ByLayer
370
-1
48
1.0
60
0
100
AcDbCircle
39
0.0
10
224.645062700576
20
20.964397275709
30
0.0
40
2.3559529268507
210
0.0
220
0.0
230
1.0
100
AcDbArc
50
345.136771362021
51
352.479016966342
0
ARC
5
129
330
70
100
AcDbEntity
67
0
8
IV_OUTER_PROFILE
62
256
6
ByLayer
370
-1
48
1.0
60
0
100
AcDbCircle
39
0.0
10
224.362654117582
20
21.026449411161
30
0.0
40
2.64485889989792
210
0.0
220
0.0
230
1.0
100
AcDbArc
50
338.662843164002
51
345.406811602706
0
ARC
5
12A
330
70
100
AcDbEntity
67
0
8
IV_OUTER_PROFILE
62
256
6
ByLayer
370
-1
48
1.0
60
0
100
AcDbCircle
39
0.0
10
223.955826282238
20
21.1671980189297
30
0.0
40
3.07505962431573
210
0.0
220
0.0
230
1.0
100
AcDbArc
50
332.937051929999
51
338.97820637022
0
ARC
5
12B
330
70
100
AcDbEntity
67
0
8
IV_OUTER_PROFILE
62
256
6
ByLayer
370
-1
48
1.0
60
0
100
AcDbCircle
39
0.0
10
223.424538111817
20
21.4155072982091
30
0.0
40
3.66120657298395
210
0.0
220
0.0
230
1.0
100
AcDbArc
50
327.941205219286
51
333.259408537166
0
ARC
5
12C
330
70
100
AcDbEntity
67
0
8
IV_OUTER_PROFILE
62
256
6
ByLayer
370
-1
48
1.0
60
0
100
AcDbCircle
39
0.0
10
222.768060187455
20
21.7989519544224
30
0.0
40
4.42116479471
210
0.0
220
0.0
230
1.0
100
AcDbArc
50
323.613950950268
51
328.245501562304
0
ARC
5
12D
330
70
100
AcDbEntity
67
0
8
IV_OUTER_PROFILE
62
256
6
ByLayer
370
-1
48
1.0
60
0
100
AcDbCircle
39
0.0
10
221.984874002805
20
22.3442067462307
30
0.0
40
5.3751784776173
210
0.0
220
0.0
230
1.0
100
AcDbArc
50
319.876669119546
51
323.887395641621
0
ARC
5
12E
330
70
100
AcDbEntity
67
0
8
IV_OUTER_PROFILE
62
256
6
ByLayer
370
-1
48
1.0
60
0
100
AcDbCircle
39
0.0
10
221.072545448612
20
23.0774750131598
30
0.0
40
6.54539920461164
210
0.0
220
0.0
230
1.0
100
AcDbArc
50
316.649109116879
51
320.115085228551
0
ARC
5
12F
330
70
100
AcDbEntity
67
0
8
IV_OUTER_PROFILE
62
256
6
ByLayer
370
-1
48
1.0
60
0
100
AcDbCircle
39
0.0
10
220.027549952981
20
24.0249868301126
30
0.0
40
7.95576535679158
210
0.0
220
0.0
230
1.0
100
AcDbArc
50
313.857161830212
51
316.853327020714
0
ARC
5
130
330
70
100
AcDbEntity
67
0
8
IV_OUTER_PROFILE
62
256
6
ByLayer
370
-1
48
1.0
60
0
100
AcDbCircle
39
0.0
10
218.845032442659
20
25.2136050733727
30
0.0
40
9.63220808859817
210
0.0
220
0.0
230
1.0
100
AcDbArc
50
311.435846443155
51
314.030423595086
0
ARC
5
131
330
70
100
AcDbEntity
67
0
8
IV_OUTER_PROFILE
62
256
6
ByLayer
370
-1
48
1.0
60
0
100
AcDbCircle
39
0.0
10
217.518483435331
20
26.6715858953249
30
0.0
40
11.6031750470094
210
0.0
220
0.0
230
1.0
100
AcDbArc
50
309.3297784621
51
311.582236738556
0
ARC
5
132
330
70
100
AcDbEntity
67
0
8
IV_OUTER_PROFILE
62
256
6
ByLayer
370
-1
48
1.0
60
0
100
AcDbCircle
39
0.0
10
215.861826510418
20
28.6371373655317
30
0.0
40
14.1735565073048
210
0.0
220
0.0
230
1.0
100
AcDbArc
50
307.552705851359
51
309.474130801461
0
ARC
5
133
330
70
100
AcDbEntity
67
0
8
IV_OUTER_PROFILE
62
256
6
ByLayer
370
-1
48
1.0
60
0
100
AcDbCircle
39
0.0
10
212.394741928636
20
33.0094993216022
30
0.0
40
19.7532688576874
210
0.0
220
0.0
230
1.0
100
AcDbArc
50
304.898463967733
51
307.795673855416
0
ARC
5
134
330
70
100
AcDbEntity
67
0
8
IV_OUTER_PROFILE
62
256
6
ByLayer
370
-1
48
1.0
60
0
100
AcDbCircle
39
0.0
10
205.174337481003
20
42.9981621955666
30
0.0
40
32.0772776235306
210
0.0
220
0.0
230
1.0
100
AcDbArc
50
303.393754365662
51
305.268538633691
0
LINE
5
135
330
70
100
AcDbEntity
67
0
8
IV_OUTER_PROFILE
62
256
6
ByLayer
370
-1
48
1.0
60
0
100
AcDbLine
10
227.000564445065
20
55.2019908071487
30
0.0
11
227.000564445065
21
20.9519908071487
31
0.0
39
0.0
210
0.0
220
0.0
230
1.0
0
LINE
5
136
330
70
100
AcDbEntity
67
0
8
IV_OUTER_PROFILE
62
256
6
ByLayer
370
-1
48
1.0
60
0
100
AcDbLine
10
224.617057259877
20
55.2019908071487
30
0.0
11
227.000564445065
21
55.2019908071487
31
0.0
39
0.0
210
0.0
220
0.0
230
1.0
0
LINE
5
137
330
70
100
AcDbEntity
67
0
8
IV_OUTER_PROFILE
62
256
6
ByLayer
370
-1
48
1.0
60
0
100
AcDbLine
10
0.0000001
20
0.0000001408831807
30
0.0
11
203.165492593181
21
0.0000001408832073
31
0.0
39
0.0
210
0.0
220
0.0
230
1.0
0
LINE
5
138
330
70
100
AcDbEntity
67
0
8
IV_OUTER_PROFILE
62
256
6
ByLayer
370
-1
48
1.0
60
0
100
AcDbLine
10
0.0000001000000123
20
55.2019908071487
30
0.0
11
224.617057259877
21
55.2019908071487
31
0.0
39
0.0
210
0.0
220
0.0
230
1.0
0
LINE
5
139
330
70
100
AcDbEntity
67
0
8
IV_OUTER_PROFILE
62
256
6
ByLayer
370
-1
48
1.0
60
0
100
AcDbLine
10
0.0000001000000123
20
55.2019908071487
30
0.0
11
0.0000001
21
0.0000001408831807
31
0.0
39
0.0
210
0.0
220
0.0
230
1.0
0
POINT
5
19D
330
70
100
AcDbEntity
67
0
8
AutoDXF_SmallHoles_Points
62
256
6
ByLayer
370
-1
48
1.0
60
0
100
AcDbPoint
10
131.575128164554
20
29.2444625018902
30
0.0
39
0.0
210
0.0
220
0.0
230
1.0
50
360.0
0
ENDSEC
0
SECTION
2
OBJECTS
0
DICTIONARY
5
1A3
330
0
100
AcDbDictionary
280
1
281
1
3
ACAD_GROUP
350
D
3
ACAD_LAYOUT
350
62
3
ACAD_DGNDEFINITIONS
350
196
3
ACAD_DWFDEFINITIONS
350
197
3
ACAD_PDFDEFINITIONS
350
198
3
ACAD_MLINESTYLE
350
5F
3
ACAD_IMAGE_DICT
350
195
3
ACAD_IMAGE_VARS
350
199
0
DICTIONARY
5
D
330
1A3
100
AcDbDictionary
280
1
281
1
0
DICTIONARY
5
62
330
1A3
100
AcDbDictionary
280
1
281
1
3
Layout1
350
6F
3
Layout2
350
77
3
Model
350
73
0
DICTIONARY
5
196
330
1A3
100
AcDbDictionary
280
1
281
1
0
DICTIONARY
5
197
330
1A3
100
AcDbDictionary
280
1
281
1
0
DICTIONARY
5
198
330
1A3
100
AcDbDictionary
280
1
281
1
0
DICTIONARY
5
5F
330
1A3
100
AcDbDictionary
280
1
281
1
3
STANDARD
350
60
0
DICTIONARY
5
195
330
1A3
100
AcDbDictionary
280
1
281
1
0
DICTIONARY
5
193
330
2
100
AcDbDictionary
280
1
281
1
3
ACAD_LAYERSTATES
360
1A4
0
DICTIONARY
5
1A4
330
193
100
AcDbDictionary
280
1
281
1
0
LAYOUT
5
6F
330
62
100
AcDbPlotSettings
1

2

4

6

40
0.0
41
0.0
42
0.0
43
0.0
44
0.0
45
0.0
46
0.0
47
0.0
48
0.0
49
0.0
140
0.0
141
0.0
142
1.0
143
1.0
70
688
72
0
73
0
74
5
7

75
16
76
0
77
2
78
300
147
1.0
148
0.0
149
0.0
100
AcDbLayout
1
Layout1
71
1
10
0.0
20
0.0
11
12.0
21
9.0
12
0.0
22
0.0
32
0.0
14
0.0
24
0.0
34
0.0
15
0.0
25
0.0
35
0.0
146
0.0
13
0.0
23
0.0
33
0.0
16
1.0
26
0.0
36
0.0
17
0.0
27
1.0
37
0.0
76
0
330
6C
0
LAYOUT
5
77
330
62
100
AcDbPlotSettings
1

2

4

6

40
0.0
41
0.0
42
0.0
43
0.0
44
0.0
45
0.0
46
0.0
47
0.0
48
0.0
49
0.0
140
0.0
141
0.0
142
1.0
143
1.0
70
688
72
0
73
0
74
5
7

75
16
76
0
77
2
78
300
147
1.0
148
0.0
149
0.0
100
AcDbLayout
1
Layout2
71
2
10
0.0
20
0.0
11
12.0
21
9.0
12
0.0
22
0.0
32
0.0
14
0.0
24
0.0
34
0.0
15
0.0
25
0.0
35
0.0
146
0.0
13
0.0
23
0.0
33
0.0
16
1.0
26
0.0
36
0.0
17
0.0
27
1.0
37
0.0
76
0
330
74
0
LAYOUT
5
73
330
62
100
AcDbPlotSettings
1

2

4

6

40
0.0
41
0.0
42
0.0
43
0.0
44
0.0
45
0.0
46
0.0
47
0.0
48
0.0
49
0.0
140
0.0
141
0.0
142
1.0
143
1.0
70
1712
72
0
73
0
74
0
7

75
0
76
0
77
2
78
300
147
1.0
148
0.0
149
0.0
100
AcDbLayout
1
Model
71
3
10
0.0
20
0.0
11
12.0
21
9.0
12
0.0
22
0.0
32
0.0
14
0.0
24
0.0
34
0.0
15
0.0
25
0.0
35
0.0
146
0.0
13
0.0
23
0.0
33
0.0
16
1.0
26
0.0
36
0.0
17
0.0
27
1.0
37
0.0
76
0
330
70
0
MLINESTYLE
5
60
330
5F
100
AcDbMlineStyle
2
STANDARD
70
0
3

62
256
51
90.0
52
90.0
71
2
49
0.5
62
256
6
ByLayer
49
-0.5
62
256
6
ByLayer
0
RASTERVARIABLES
5
199
330
195
100
AcDbRasterVariables
90
0
70
1
71
1
72
0
0
ENDSEC
0
EOF
