999
autodxfXMIN:9,99999994E-08
999
autodxfXMAX:78,2019907662657
999
autodxfYMIN:1,000000793E-07
999
autodxfYMAX:980,0000001
0
SECTION
2
HEADER
9
$ACADVER
1
AC1015
9
$DWGCODEPAGE
3
ANSI_1252
9
$HANDSEED
5
18F
9
$ANGBASE
50
0.0
9
$ANGDIR
70
0
9
$ATTMODE
70
1
9
$AUNITS
70
0
9
$AUPREC
70
0
9
$CECOLOR
62
256
9
$CELTSCALE
40
1.0
9
$CELTYPE
6
ByLayer
9
$CELWEIGHT
370
-1
9
$CLAYER
8
0
9
$CMLJUST
70
0
9
$CMLSCALE
40
1.0
9
$CMLSTYLE
2
Standard
9
$DIMSTYLE
2
Standard
9
$TEXTSIZE
40
0.2
9
$TEXTSTYLE
7
Standard
9
$LUNITS
70
2
9
$LUPREC
70
4
9
$MIRRTEXT
70
0
9
$EXTNAMES
290
1
9
$INSBASE
10
0.0
20
0.0
30
0.0
9
$INSUNITS
70
4
9
$LTSCALE
40
1.0
9
$LWDISPLAY
290
0
9
$PDMODE
70
0
9
$PDSIZE
40
0.0
9
$PLINEGEN
70
0
9
$PSLTSCALE
70
1
9
$SPLINESEGS
70
6
9
$SURFU
70
6
9
$SURFV
70
6
9
$TDCREATE
40
2460565.84273148
9
$TDUCREATE
40
2460565.71773148
9
$TDUPDATE
40
2460565.84273148
9
$TDUUPDATE
40
2460565.71773148
9
$TDINDWG
40
0.0
9
$UCSORG
10
0.0
20
0.0
30
0.0
9
$UCSXDIR
10
1.0
20
0.0
30
0.0
9
$UCSYDIR
10
0.0
20
1.0
30
0.0
9
$DIMADEC
70
0
9
$DIMALT
70
0
9
$DIMALTD
70
2
9
$DIMALTF
40
25.4
9
$DIMALTRND
40
0.0
9
$DIMALTTD
70
2
9
$DIMALTTZ
70
0
9
$DIMALTU
70
2
9
$DIMALTZ
70
0
9
$DIMAPOST
1

9
$DIMATFIT
70
3
9
$DIMAUNIT
70
0
9
$DIMASZ
40
0.18
9
$DIMAZIN
70
3
9
$DIMSAH
70
0
9
$DIMBLK
1

9
$DIMLDRBLK
1

9
$DIMCEN
40
0.09
9
$DIMCLRD
70
0
9
$DIMCLRE
70
0
9
$DIMCLRT
70
0
9
$DIMDEC
70
4
9
$DIMDLE
40
0.0
9
$DIMDLI
40
0.38
9
$DIMDSEP
70
46
9
$DIMEXE
40
0.18
9
$DIMEXO
40
0.0625
9
$DIMFXLON
70
0
9
$DIMFXL
40
1.0
9
$DIMGAP
40
0.09
9
$DIMJUST
70
0
9
$DIMLFAC
40
1.0
9
$DIMLUNIT
70
2
9
$DIMLWD
70
-2
9
$DIMLWE
70
-2
9
$DIMPOST
1

9
$DIMRND
40
0.0
9
$DIMSCALE
40
1.0
9
$DIMSD1
70
0
9
$DIMSD2
70
0
9
$DIMSE1
70
0
9
$DIMSE2
70
0
9
$DIMSOXD
70
0
9
$DIMTAD
70
0
9
$DIMTDEC
70
4
9
$DIMTFAC
40
1.0
9
$DIMTIH
70
0
9
$DIMTIX
70
0
9
$DIMTM
40
0.0
9
$DIMTMOVE
70
0
9
$DIMTOFL
70
0
9
$DIMTOH
70
0
9
$DIMTOL
70
0
9
$DIMLIM
70
0
9
$DIMTOLJ
70
1
9
$DIMTP
40
0.0
9
$DIMTXT
40
0.18
9
$DIMTXTDIRECTION
70
0
9
$DIMTZIN
70
0
9
$DIMZIN
70
0
9
$DIMFRAC
70
0
9
$DIMLTYPE
6
ByBlock
9
$DIMLTEX1
6
ByBlock
9
$DIMLTEX2
6
ByBlock
9
$EXTMIN
10
0.0
20
0.0
30
0.0
9
$EXTMAX
10
78.2019908076871
20
980.000000141421
30
0.0
9
$LIMMIN
10
0.0
20
0.0
9
$LIMMAX
10
78.2019908076871
20
980.000000141421
9
$ORTHOMODE
70
0
9
$REGENMODE
70
1
9
$FILLMODE
70
1
9
$QTEXTMODE
70
0
9
$TRACEWID
40
0.05
9
$DISPSILH
70
0
9
$SKETCHINC
40
0.1
9
$FILLETRAD
40
0.0
9
$MENU
1
.
9
$ELEVATION
40
0.0
9
$PELEVATION
40
0.0
9
$THICKNESS
40
0.0
9
$LIMCHECK
70
0
9
$CHAMFERA
40
0.0
9
$CHAMFERB
40
0.0
9
$CHAMFERC
40
0.0
9
$CHAMFERD
40
0.0
9
$SKPOLY
70
0
9
$TDUSRTIMER
40
0.0
9
$USRTIMER
70
1
9
$PLINEWID
40
0.0
9
$SPLFRAME
70
0
9
$SPLINETYPE
70
6
9
$SURFTAB1
70
6
9
$SURFTAB2
70
6
9
$SURFTYPE
70
6
9
$UCSBASE
2

9
$UCSNAME
2

9
$UCSORTHOREF
2

9
$UCSORTHOVIEW
70
0
9
$UCSORGTOP
10
0.0
20
0.0
30
0.0
9
$UCSORGBOTTOM
10
0.0
20
0.0
30
0.0
9
$UCSORGLEFT
10
0.0
20
0.0
30
0.0
9
$UCSORGRIGHT
10
0.0
20
0.0
30
0.0
9
$UCSORGFRONT
10
0.0
20
0.0
30
0.0
9
$UCSORGBACK
10
0.0
20
0.0
30
0.0
9
$PUCSBASE
2

9
$PUCSNAME
2

9
$PUCSORG
10
0.0
20
0.0
30
0.0
9
$PUCSXDIR
10
1.0
20
0.0
30
0.0
9
$PUCSYDIR
10
0.0
20
1.0
30
0.0
9
$PUCSORTHOREF
2

9
$PUCSORTHOVIEW
70
0
9
$PUCSORGTOP
10
0.0
20
0.0
30
0.0
9
$PUCSORGBOTTOM
10
0.0
20
0.0
30
0.0
9
$PUCSORGLEFT
10
0.0
20
0.0
30
0.0
9
$PUCSORGRIGHT
10
0.0
20
0.0
30
0.0
9
$PUCSORGFRONT
10
0.0
20
0.0
30
0.0
9
$PUCSORGBACK
10
0.0
20
0.0
30
0.0
9
$USERI1
70
0
9
$USERI2
70
0
9
$USERI3
70
0
9
$USERI4
70
0
9
$USERI5
70
0
9
$USERR1
40
0.0
9
$USERR2
40
0.0
9
$USERR3
40
0.0
9
$USERR4
40
0.0
9
$USERR5
40
0.0
9
$WORLDVIEW
70
1
9
$SHADEDGE
70
3
9
$SHADEDIF
70
70
9
$TILEMODE
70
1
9
$MAXACTVP
70
64
9
$PINSBASE
10
0.0
20
0.0
30
0.0
9
$PLIMCHECK
70
0
9
$PEXTMIN
10
0.0
20
0.0
30
0.0
9
$PEXTMAX
10
78.2019908076871
20
980.000000141421
30
0.0
9
$PLIMMIN
10
0.0
20
0.0
9
$PLIMMAX
10
78.2019908076871
20
980.000000141421
9
$UNITMODE
70
0
9
$VISRETAIN
70
1
9
$TREEDEPTH
70
3020
9
$PROXYGRAPHICS
70
1
9
$MEASUREMENT
70
1
9
$ENDCAPS
280
0
9
$JOINSTYLE
280
0
9
$HYPERLINKBASE
1

9
$STYLESHEET
1

9
$XEDIT
290
1
9
$CEPSNTYPE
380
0
9
$PSTYLEMODE
290
1
9
$FINGERPRINTGUID
2
{A34EA675-ADF0-9242-B7E1-3D01B8DF232D}
9
$VERSIONGUID
2
{E0DCD08F-AC6B-3A45-A7B4-7CF496F3CFA8}
9
$PSVPSCALE
40
0.0
9
$OLESTARTUP
290
0
0
ENDSEC
0
SECTION
2
CLASSES
0
CLASS
1
RASTERVARIABLES
2
AcDbRasterVariables
3
ISM
90
0
280
0
281
0
0
ENDSEC
0
SECTION
2
TABLES
0
TABLE
2
APPID
5
9
330
0
100
AcDbSymbolTable
70
7
0
APPID
5
56
330
9
100
AcDbSymbolTableRecord
100
AcDbRegAppTableRecord
2
ACAD
70
0
0
APPID
5
5E
330
9
100
AcDbSymbolTableRecord
100
AcDbRegAppTableRecord
2
AcadAnnotative
70
0
0
APPID
5
16B
330
9
100
AcDbSymbolTableRecord
100
AcDbRegAppTableRecord
2
ACAD_MLEADERVER
70
0
0
APPID
5
189
330
9
100
AcDbSymbolTableRecord
100
AcDbRegAppTableRecord
2
AcCmTransparency
70
0
0
APPID
5
18A
330
9
100
AcDbSymbolTableRecord
100
AcDbRegAppTableRecord
2
AcAecLayerStandard
70
0
0
APPID
5
18B
330
9
100
AcDbSymbolTableRecord
100
AcDbRegAppTableRecord
2
GradientColor1ACI
70
0
0
APPID
5
18C
330
9
100
AcDbSymbolTableRecord
100
AcDbRegAppTableRecord
2
GradientColor2ACI
70
0
0
ENDTAB
0
TABLE
2
VPORT
5
8
330
0
100
AcDbSymbolTable
70
1
0
VPORT
5
17C
330
8
100
AcDbSymbolTableRecord
100
AcDbViewportTableRecord
2
*Active
70
0
10
0.0
20
0.0
11
1.0
21
1.0
12
39.1009954331329
22
490.0000001
13
0.0
23
0.0
14
0.5
24
0.5
15
10.0
25
10.0
16
0.0
26
0.0
36
1.0
17
0.0
27
0.0
37
0.0
40
1078.0
41
1.0
75
0
76
1
0
ENDTAB
0
TABLE
2
LTYPE
5
5
330
0
100
AcDbSymbolTable
70
48
0
LTYPE
5
5B
330
5
100
AcDbSymbolTableRecord
100
AcDbLinetypeTableRecord
2
ByBlock
70
0
3

72
65
73
0
40
0.0
0
LTYPE
5
5C
330
5
100
AcDbSymbolTableRecord
100
AcDbLinetypeTableRecord
2
ByLayer
70
0
3

72
65
73
0
40
0.0
0
LTYPE
5
5D
330
5
100
AcDbSymbolTableRecord
100
AcDbLinetypeTableRecord
2
Continuous
70
0
3
Solid line
72
65
73
0
40
0.0
0
LTYPE
5
78
330
5
100
AcDbSymbolTableRecord
100
AcDbLinetypeTableRecord
2
BORDER
70
0
3
Border __ __ . __ __ . __ __ . __ __ . __ __ .
72
65
73
6
40
1.75
49
0.5
74
0
49
-0.25
74
0
49
0.5
74
0
49
-0.25
74
0
49
0.0
74
0
49
-0.25
74
0
0
LTYPE
5
79
330
5
100
AcDbSymbolTableRecord
100
AcDbLinetypeTableRecord
2
BORDER2
70
0
3
Border (.5x) __.__.__.__.__.__.__.__.__.__.__.
72
65
73
6
40
0.875
49
0.25
74
0
49
-0.125
74
0
49
0.25
74
0
49
-0.125
74
0
49
0.0
74
0
49
-0.125
74
0
0
LTYPE
5
7A
330
5
100
AcDbSymbolTableRecord
100
AcDbLinetypeTableRecord
2
BORDERX2
70
0
3
Border (2x) ____  ____  .  ____  ____  .  ___
72
65
73
6
40
3.5
49
1.0
74
0
49
-0.5
74
0
49
1.0
74
0
49
-0.5
74
0
49
0.0
74
0
49
-0.5
74
0
0
LTYPE
5
7B
330
5
100
AcDbSymbolTableRecord
100
AcDbLinetypeTableRecord
2
CENTER
70
0
3
Center ____ _ ____ _ ____ _ ____ _ ____ _ ____
72
65
73
4
40
2.0
49
1.25
74
0
49
-0.25
74
0
49
0.25
74
0
49
-0.25
74
0
0
LTYPE
5
7C
330
5
100
AcDbSymbolTableRecord
100
AcDbLinetypeTableRecord
2
CENTER2
70
0
3
Center (.5x) ___ _ ___ _ ___ _ ___ _ ___ _ ___
72
65
73
4
40
1.125
49
0.75
74
0
49
-0.125
74
0
49
0.125
74
0
49
-0.125
74
0
0
LTYPE
5
7D
330
5
100
AcDbSymbolTableRecord
100
AcDbLinetypeTableRecord
2
CENTERX2
70
0
3
Center (2x) ________  __  ________  __  _____
72
65
73
4
40
4.0
49
2.5
74
0
49
-0.5
74
0
49
0.5
74
0
49
-0.5
74
0
0
LTYPE
5
7E
330
5
100
AcDbSymbolTableRecord
100
AcDbLinetypeTableRecord
2
DASHDOT
70
0
3
Dash dot __ . __ . __ . __ . __ . __ . __ . __
72
65
73
4
40
1.0
49
0.5
74
0
49
-0.25
74
0
49
0.0
74
0
49
-0.25
74
0
0
LTYPE
5
7F
330
5
100
AcDbSymbolTableRecord
100
AcDbLinetypeTableRecord
2
DASHDOT2
70
0
3
Dash dot (.5x) _._._._._._._._._._._._._._._.
72
65
73
4
40
0.5
49
0.25
74
0
49
-0.125
74
0
49
0.0
74
0
49
-0.125
74
0
0
LTYPE
5
80
330
5
100
AcDbSymbolTableRecord
100
AcDbLinetypeTableRecord
2
DASHDOTX2
70
0
3
Dash dot (2x) ____  .  ____  .  ____  .  ___
72
65
73
4
40
2.0
49
1.0
74
0
49
-0.5
74
0
49
0.0
74
0
49
-0.5
74
0
0
LTYPE
5
81
330
5
100
AcDbSymbolTableRecord
100
AcDbLinetypeTableRecord
2
DASHED
70
0
3
Dashed __ __ __ __ __ __ __ __ __ __ __ __ __ _
72
65
73
2
40
0.75
49
0.5
74
0
49
-0.25
74
0
0
LTYPE
5
82
330
5
100
AcDbSymbolTableRecord
100
AcDbLinetypeTableRecord
2
DASHED2
70
0
3
Dashed (.5x) _ _ _ _ _ _ _ _ _ _ _ _ _ _ _ _ _
72
65
73
2
40
0.375
49
0.25
74
0
49
-0.125
74
0
0
LTYPE
5
83
330
5
100
AcDbSymbolTableRecord
100
AcDbLinetypeTableRecord
2
DASHEDX2
70
0
3
Dashed (2x) ____  ____  ____  ____  ____  ___
72
65
73
2
40
1.5
49
1.0
74
0
49
-0.5
74
0
0
LTYPE
5
84
330
5
100
AcDbSymbolTableRecord
100
AcDbLinetypeTableRecord
2
DIVIDE
70
0
3
Divide ____ . . ____ . . ____ . . ____ . . ____
72
65
73
6
40
1.25
49
0.5
74
0
49
-0.25
74
0
49
0.0
74
0
49
-0.25
74
0
49
0.0
74
0
49
-0.25
74
0
0
LTYPE
5
85
330
5
100
AcDbSymbolTableRecord
100
AcDbLinetypeTableRecord
2
DIVIDE2
70
0
3
Divide (.5x) __..__..__..__..__..__..__..__.._
72
65
73
6
40
0.625
49
0.25
74
0
49
-0.125
74
0
49
0.0
74
0
49
-0.125
74
0
49
0.0
74
0
49
-0.125
74
0
0
LTYPE
5
86
330
5
100
AcDbSymbolTableRecord
100
AcDbLinetypeTableRecord
2
DIVIDEX2
70
0
3
Divide (2x) ________  .  .  ________  .  .  _
72
65
73
6
40
2.5
49
1.0
74
0
49
-0.5
74
0
49
0.0
74
0
49
-0.5
74
0
49
0.0
74
0
49
-0.5
74
0
0
LTYPE
5
87
330
5
100
AcDbSymbolTableRecord
100
AcDbLinetypeTableRecord
2
DOT
70
0
3
Dot . . . . . . . . . . . . . . . . . . . . . .
72
65
73
2
40
0.25
49
0.0
74
0
49
-0.25
74
0
0
LTYPE
5
88
330
5
100
AcDbSymbolTableRecord
100
AcDbLinetypeTableRecord
2
DOT2
70
0
3
Dot (.5x) .....................................
72
65
73
2
40
0.125
49
0.0
74
0
49
-0.125
74
0
0
LTYPE
5
89
330
5
100
AcDbSymbolTableRecord
100
AcDbLinetypeTableRecord
2
DOTX2
70
0
3
Dot (2x) .  .  .  .  .  .  .  .  .  .  .  .  . 
72
65
73
2
40
0.5
49
0.0
74
0
49
-0.5
74
0
0
LTYPE
5
8A
330
5
100
AcDbSymbolTableRecord
100
AcDbLinetypeTableRecord
2
HIDDEN
70
0
3
Hidden __ __ __ __ __ __ __ __ __ __ __ __ __ _
72
65
73
2
40
0.375
49
0.25
74
0
49
-0.125
74
0
0
LTYPE
5
8B
330
5
100
AcDbSymbolTableRecord
100
AcDbLinetypeTableRecord
2
HIDDEN2
70
0
3
Hidden (.5x) _ _ _ _ _ _ _ _ _ _ _ _ _ _ _ _ _
72
65
73
2
40
0.1875
49
0.125
74
0
49
-0.0625
74
0
0
LTYPE
5
8C
330
5
100
AcDbSymbolTableRecord
100
AcDbLinetypeTableRecord
2
HIDDENX2
70
0
3
Hidden (2x) ____ ____ ____ ____ ____ ____ ____
72
65
73
2
40
0.75
49
0.5
74
0
49
-0.25
74
0
0
LTYPE
5
8D
330
5
100
AcDbSymbolTableRecord
100
AcDbLinetypeTableRecord
2
PHANTOM
70
0
3
Phantom ______  __  __  ______  __  __  ______
72
65
73
6
40
2.5
49
1.25
74
0
49
-0.25
74
0
49
0.25
74
0
49
-0.25
74
0
49
0.25
74
0
49
-0.25
74
0
0
LTYPE
5
8E
330
5
100
AcDbSymbolTableRecord
100
AcDbLinetypeTableRecord
2
PHANTOM2
70
0
3
Phantom (.5x) ___ _ _ ___ _ _ ___ _ _ ___ _ _
72
65
73
6
40
1.25
49
0.625
74
0
49
-0.125
74
0
49
0.125
74
0
49
-0.125
74
0
49
0.125
74
0
49
-0.125
74
0
0
LTYPE
5
8F
330
5
100
AcDbSymbolTableRecord
100
AcDbLinetypeTableRecord
2
PHANTOMX2
70
0
3
Phantom (2x) ____________    ____    ____   _
72
65
73
6
40
5.0
49
2.5
74
0
49
-0.5
74
0
49
0.5
74
0
49
-0.5
74
0
49
0.5
74
0
49
-0.5
74
0
0
LTYPE
5
90
330
5
100
AcDbSymbolTableRecord
100
AcDbLinetypeTableRecord
2
ACAD_ISO02W100
70
0
3
ISO dash __ __ __ __ __ __ __ __ __ __ __ __ __
72
65
73
2
40
15.0
49
12.0
74
0
49
-3.0
74
0
0
LTYPE
5
91
330
5
100
AcDbSymbolTableRecord
100
AcDbLinetypeTableRecord
2
ACAD_ISO03W100
70
0
3
ISO dash space __    __    __    __    __    __
72
65
73
2
40
30.0
49
12.0
74
0
49
-18.0
74
0
0
LTYPE
5
92
330
5
100
AcDbSymbolTableRecord
100
AcDbLinetypeTableRecord
2
ACAD_ISO04W100
70
0
3
ISO long-dash dot ____ . ____ . ____ . ____ . _
72
65
73
4
40
30.0
49
24.0
74
0
49
-3.0
74
0
49
0.0
74
0
49
-3.0
74
0
0
LTYPE
5
93
330
5
100
AcDbSymbolTableRecord
100
AcDbLinetypeTableRecord
2
ACAD_ISO05W100
70
0
3
ISO long-dash double-dot ____ .. ____ .. ____ .
72
65
73
6
40
33.0
49
24.0
74
0
49
-3.0
74
0
49
0.0
74
0
49
-3.0
74
0
49
0.0
74
0
49
-3.0
74
0
0
LTYPE
5
94
330
5
100
AcDbSymbolTableRecord
100
AcDbLinetypeTableRecord
2
ACAD_ISO06W100
70
0
3
ISO long-dash triple-dot ____ ... ____ ... ____
72
65
73
8
40
36.0
49
24.0
74
0
49
-3.0
74
0
49
0.0
74
0
49
-3.0
74
0
49
0.0
74
0
49
-3.0
74
0
49
0.0
74
0
49
-3.0
74
0
0
LTYPE
5
95
330
5
100
AcDbSymbolTableRecord
100
AcDbLinetypeTableRecord
2
ACAD_ISO07W100
70
0
3
ISO dot . . . . . . . . . . . . . . . . . . . .
72
65
73
2
40
3.0
49
0.0
74
0
49
-3.0
74
0
0
LTYPE
5
96
330
5
100
AcDbSymbolTableRecord
100
AcDbLinetypeTableRecord
2
ACAD_ISO08W100
70
0
3
ISO long-dash short-dash ____ __ ____ __ ____ _
72
65
73
4
40
36.0
49
24.0
74
0
49
-3.0
74
0
49
6.0
74
0
49
-3.0
74
0
0
LTYPE
5
97
330
5
100
AcDbSymbolTableRecord
100
AcDbLinetypeTableRecord
2
ACAD_ISO09W100
70
0
3
ISO long-dash double-short-dash ____ __ __ ____
72
65
73
6
40
45.0
49
24.0
74
0
49
-3.0
74
0
49
6.0
74
0
49
-3.0
74
0
49
6.0
74
0
49
-3.0
74
0
0
LTYPE
5
98
330
5
100
AcDbSymbolTableRecord
100
AcDbLinetypeTableRecord
2
ACAD_ISO10W100
70
0
3
ISO dash dot __ . __ . __ . __ . __ . __ . __ .
72
65
73
4
40
18.0
49
12.0
74
0
49
-3.0
74
0
49
0.0
74
0
49
-3.0
74
0
0
LTYPE
5
99
330
5
100
AcDbSymbolTableRecord
100
AcDbLinetypeTableRecord
2
ACAD_ISO11W100
70
0
3
ISO double-dash dot __ __ . __ __ . __ __ . __ 
72
65
73
6
40
33.0
49
12.0
74
0
49
-3.0
74
0
49
12.0
74
0
49
-3.0
74
0
49
0.0
74
0
49
-3.0
74
0
0
LTYPE
5
9A
330
5
100
AcDbSymbolTableRecord
100
AcDbLinetypeTableRecord
2
ACAD_ISO12W100
70
0
3
ISO dash double-dot __ . . __ . . __ . . __ . .
72
65
73
6
40
21.0
49
12.0
74
0
49
-3.0
74
0
49
0.0
74
0
49
-3.0
74
0
49
0.0
74
0
49
-3.0
74
0
0
LTYPE
5
9B
330
5
100
AcDbSymbolTableRecord
100
AcDbLinetypeTableRecord
2
ACAD_ISO13W100
70
0
3
ISO double-dash double-dot __ __ . . __ __ . . 
72
65
73
8
40
36.0
49
12.0
74
0
49
-3.0
74
0
49
12.0
74
0
49
-3.0
74
0
49
0.0
74
0
49
-3.0
74
0
49
0.0
74
0
49
-3.0
74
0
0
LTYPE
5
9C
330
5
100
AcDbSymbolTableRecord
100
AcDbLinetypeTableRecord
2
ACAD_ISO14W100
70
0
3
ISO dash triple-dot __ . . . __ . . . __ . . . 
72
65
73
8
40
24.0
49
12.0
74
0
49
-3.0
74
0
49
0.0
74
0
49
-3.0
74
0
49
0.0
74
0
49
-3.0
74
0
49
0.0
74
0
49
-3.0
74
0
0
LTYPE
5
9D
330
5
100
AcDbSymbolTableRecord
100
AcDbLinetypeTableRecord
2
ACAD_ISO15W100
70
0
3
ISO double-dash triple-dot __ __ . . . __ __ . 
72
65
73
10
40
39.0
49
12.0
74
0
49
-3.0
74
0
49
12.0
74
0
49
-3.0
74
0
49
0.0
74
0
49
-3.0
74
0
49
0.0
74
0
49
-3.0
74
0
49
0.0
74
0
49
-3.0
74
0
0
LTYPE
5
A0
330
5
100
AcDbSymbolTableRecord
100
AcDbLinetypeTableRecord
2
FENCELINE1
70
0
3
Fenceline circle ----0-----0----0-----0----0---
72
65
73
3
40
1.35
49
0.25
74
0
49
-0.1
74
0
49
1.0
74
0
0
LTYPE
5
A1
330
5
100
AcDbSymbolTableRecord
100
AcDbLinetypeTableRecord
2
FENCELINE2
70
0
3
Fenceline square ----[]-----[]----[]-----[]----
72
65
73
3
40
1.35
49
0.25
74
0
49
-0.1
74
0
49
1.0
74
0
0
LTYPE
5
A2
330
5
100
AcDbSymbolTableRecord
100
AcDbLinetypeTableRecord
2
TRACKS
70
0
3
Tracks -|-|-|-|-|-|-|-|-|-|-|-|-|-|-|-|-|-|-|-|
72
65
73
1
40
0.15
49
0.15
74
0
0
LTYPE
5
A3
330
5
100
AcDbSymbolTableRecord
100
AcDbLinetypeTableRecord
2
BATTING
70
0
3
Batting SSSSSSSSSSSSSSSSSSSSSSSSSSSSSSSSSSSSSSS
72
65
73
2
40
0.1001
49
0.0001
74
0
49
-0.1
74
0
0
LTYPE
5
A4
330
5
100
AcDbSymbolTableRecord
100
AcDbLinetypeTableRecord
2
HOT_WATER_SUPPLY
70
0
3
Hot water supply ---- HW ---- HW ---- HW ----
72
65
73
3
40
0.9
49
0.5
74
0
49
-0.2
74
2
75
0
340
55
46
0.1
50
0.0
44
-0.1
45
-0.05
9
HW
49
-0.2
74
0
0
LTYPE
5
A5
330
5
100
AcDbSymbolTableRecord
100
AcDbLinetypeTableRecord
2
GAS_LINE
70
0
3
Gas line ----GAS----GAS----GAS----GAS----GAS---
72
65
73
3
40
0.95
49
0.5
74
0
49
-0.2
74
2
75
0
340
55
46
0.1
50
0.0
44
-0.1
45
-0.05
9
GAS
49
-0.25
74
0
0
LTYPE
5
A6
330
5
100
AcDbSymbolTableRecord
100
AcDbLinetypeTableRecord
2
ZIGZAG
70
0
3
Zig zag /\/\/\/\/\/\/\/\/\/\/\/\/\/\/\/\/\/\/\/
72
65
73
2
40
0.2001
49
0.0001
74
0
49
-0.2
74
0
0
ENDTAB
0
TABLE
2
LAYER
5
2
102
{ACAD_XDICTIONARY
360
17D
102
}
330
0
100
AcDbSymbolTable
70
5
0
LAYER
5
54
330
2
100
AcDbSymbolTableRecord
100
AcDbLayerTableRecord
2
0
70
0
62
7
6
Continuous
290
1
370
-3
390
0
0
LAYER
5
A7
330
2
100
AcDbSymbolTableRecord
100
AcDbLayerTableRecord
2
IV_MARK_SURFACE
70
0
62
2
6
Continuous
290
1
370
25
390
0
0
LAYER
5
A8
330
2
100
AcDbSymbolTableRecord
100
AcDbLayerTableRecord
2
IV_OUTER_PROFILE
70
0
62
7
6
Continuous
290
1
370
50
390
0
0
LAYER
5
186
330
2
100
AcDbSymbolTableRecord
100
AcDbLayerTableRecord
2
AutoDXF_SmallHoles
70
0
62
-4
6
Continuous
290
1
370
-3
390
0
0
LAYER
5
188
330
2
100
AcDbSymbolTableRecord
100
AcDbLayerTableRecord
2
AutoDXF_SmallHoles_Points
70
0
62
-4
6
Continuous
290
1
370
-3
390
0
0
ENDTAB
0
TABLE
2
STYLE
5
3
330
0
100
AcDbSymbolTable
70
2
0
STYLE
5
55
330
3
100
AcDbSymbolTableRecord
100
AcDbTextStyleTableRecord
2
Standard
3
txt.SHX
70
0
71
0
40
0.0
41
1.0
42
0.0
50
0.0
0
STYLE
5
5A
330
3
100
AcDbSymbolTableRecord
100
AcDbTextStyleTableRecord
2
Annotative
3
txt.SHX
70
0
71
0
40
0.0
41
1.0
42
0.0
50
0.0
1001
AcadAnnotative
1000
AnnotativeData
1002
{
1070
1
1070
1
1002
}
0
STYLE
5
9F
330
17E
100
AcDbSymbolTableRecord
100
AcDbTextStyleTableRecord
2

3
ltypeshp.shx
70
1
40
0.0
41
1.0
42
0.0
50
0.0
0
ENDTAB
0
TABLE
2
DIMSTYLE
5
A
330
0
100
AcDbSymbolTable
70
2
100
AcDbDimStyleTable
0
DIMSTYLE
105
58
330
A
100
AcDbSymbolTableRecord
100
AcDbDimStyleTableRecord
2
Standard
3

4

40
1.0
41
0.18
42
0.0625
43
0.38
44
0.18
45
0.0
46
0.0
47
0.0
48
0.0
49
1.0
70
0
71
0
72
0
73
0
74
0
75
0
76
0
77
0
78
0
79
3
140
0.18
141
0.09
143
25.4
144
1.0
146
1.0
147
0.09
148
0.0
170
0
171
2
172
0
174
0
175
0
176
0
177
0
178
0
179
0
271
4
272
4
273
2
274
2
275
0
276
0
277
2
278
46
279
0
280
0
281
0
282
0
283
1
284
0
285
0
286
0
289
3
290
0
294
0
340
55
173
0
345
5B
346
5B
347
5B
371
-2
372
-2
0
DIMSTYLE
105
59
330
A
100
AcDbSymbolTableRecord
100
AcDbDimStyleTableRecord
2
Annotative
3

4

40
1.0
41
0.18
42
0.0625
43
0.38
44
0.18
45
0.0
46
0.0
47
0.0
48
0.0
49
1.0
70
0
71
0
72
0
73
0
74
0
75
0
76
0
77
0
78
0
79
3
140
0.18
141
0.09
143
25.4
144
1.0
146
1.0
147
0.09
148
0.0
170
0
171
2
172
0
174
0
175
0
176
0
177
0
178
0
179
0
271
4
272
4
273
2
274
2
275
0
276
0
277
2
278
46
279
0
280
0
281
0
282
0
283
1
284
0
285
0
286
0
289
3
290
0
294
0
340
55
173
0
345
5B
346
5B
347
5B
371
-2
372
-2
1001
AcadAnnotative
1000
AnnotativeData
1002
{
1070
1
1070
1
1002
}
0
ENDTAB
0
TABLE
2
VIEW
5
6
330
0
100
AcDbSymbolTable
70
0
0
ENDTAB
0
TABLE
2
UCS
5
7
330
0
100
AcDbSymbolTable
70
0
0
ENDTAB
0
TABLE
2
BLOCK_RECORD
5
1
330
0
100
AcDbSymbolTable
70
3
0
BLOCK_RECORD
5
70
330
1
100
AcDbSymbolTableRecord
100
AcDbBlockTableRecord
2
*Model_Space
340
73
0
BLOCK_RECORD
5
6C
330
1
100
AcDbSymbolTableRecord
100
AcDbBlockTableRecord
2
*Paper_Space
340
6F
0
BLOCK_RECORD
5
74
330
1
100
AcDbSymbolTableRecord
100
AcDbBlockTableRecord
2
*Paper_Space0
340
77
0
ENDTAB
0
ENDSEC
0
SECTION
2
BLOCKS
0
BLOCK
5
71
330
70
100
AcDbEntity
67
0
8
0
100
AcDbBlockBegin
2
*Model_Space
70
0
10
0.0
20
0.0
30
0.0
3
*Model_Space
4

0
ENDBLK
5
72
330
70
100
AcDbEntity
8
0
100
AcDbBlockEnd
0
BLOCK
5
6D
330
6C
100
AcDbEntity
67
1
8
0
100
AcDbBlockBegin
2
*Paper_Space
70
0
10
0.0
20
0.0
30
0.0
3
*Paper_Space
4

0
ENDBLK
5
6E
330
6C
100
AcDbEntity
8
0
100
AcDbBlockEnd
0
BLOCK
5
75
330
74
100
AcDbEntity
67
1
8
0
100
AcDbBlockBegin
2
*Paper_Space0
70
0
10
0.0
20
0.0
30
0.0
3
*Paper_Space0
4

0
VIEWPORT
5
185
330
74
100
AcDbEntity
67
1
8
0
62
256
6
ByLayer
370
-1
48
1.0
60
0
100
AcDbViewport
10
0.0
20
0.0
30
0.0
40
297.0
41
210.0
68
1
69
1
12
50.0
22
100.0
13
0.0
23
0.0
14
10.0
24
10.0
15
10.0
25
10.0
16
0.0
26
0.0
36
1.0
17
0.0
27
0.0
37
0.0
42
50.0
43
0.0
44
0.0
45
250.0
50
0.0
51
0.0
72
1000
90
819232
110
0.0
120
0.0
130
0.0
111
1.0
121
0.0
131
0.0
112
0.0
122
1.0
132
0.0
0
ENDBLK
5
76
330
74
100
AcDbEntity
8
0
100
AcDbBlockEnd
0
ENDSEC
0
SECTION
2
ENTITIES
0
VIEWPORT
5
184
330
6C
100
AcDbEntity
67
1
8
0
62
256
6
ByLayer
370
-1
48
1.0
60
0
100
AcDbViewport
10
0.0
20
0.0
30
0.0
40
297.0
41
210.0
68
1
69
1
12
50.0
22
100.0
13
0.0
23
0.0
14
10.0
24
10.0
15
10.0
25
10.0
16
0.0
26
0.0
36
1.0
17
0.0
27
0.0
37
0.0
42
50.0
43
0.0
44
0.0
45
250.0
50
0.0
51
0.0
72
1000
90
819232
110
0.0
120
0.0
130
0.0
111
1.0
121
0.0
131
0.0
112
0.0
122
1.0
132
0.0
0
LINE
5
A9
330
70
100
AcDbEntity
67
0
8
IV_MARK_SURFACE
62
256
6
ByLayer
370
-1
48
1.0
60
0
100
AcDbLine
10
34.2572826730329
20
176.152800116251
30
0.0
11
44.2372829305249
21
176.152800116251
31
0.0
39
0.0
210
0.0
220
0.0
230
1.0
0
LINE
5
AB
330
70
100
AcDbEntity
67
0
8
IV_MARK_SURFACE
62
256
6
ByLayer
370
-1
48
1.0
60
0
100
AcDbLine
10
44.2372829305249
20
176.152800116251
30
0.0
11
44.2372829305249
21
179.479466868748
31
0.0
39
0.0
210
0.0
220
0.0
230
1.0
0
ARC
5
AC
330
70
100
AcDbEntity
67
0
8
IV_MARK_SURFACE
62
256
6
ByLayer
370
-1
48
1.0
60
0
100
AcDbCircle
39
0.0
10
42.0195050955267
20
179.479466868748
30
0.0
40
2.21777783499824
210
0.0
220
0.0
230
1.0
100
AcDbArc
50
0.0
51
90.0
0
LINE
5
AD
330
70
100
AcDbEntity
67
0
8
IV_MARK_SURFACE
62
256
6
ByLayer
370
-1
48
1.0
60
0
100
AcDbLine
10
42.0195050955267
20
181.697244703747
30
0.0
11
36.4750605080311
21
181.697244703747
31
0.0
39
0.0
210
0.0
220
0.0
230
1.0
0
ARC
5
AE
330
70
100
AcDbEntity
67
0
8
IV_MARK_SURFACE
62
256
6
ByLayer
370
-1
48
1.0
60
0
100
AcDbCircle
39
0.0
10
36.4750605080311
20
179.479466868748
30
0.0
40
2.21777783499824
210
0.0
220
0.0
230
1.0
100
AcDbArc
50
90.0
51
180.0
0
LINE
5
AF
330
70
100
AcDbEntity
67
0
8
IV_MARK_SURFACE
62
256
6
ByLayer
370
-1
48
1.0
60
0
100
AcDbLine
10
34.2572826730329
20
179.479466868748
30
0.0
11
34.2572826730329
21
176.152800116251
31
0.0
39
0.0
210
0.0
220
0.0
230
1.0
0
LINE
5
B0
330
70
100
AcDbEntity
67
0
8
IV_MARK_SURFACE
62
256
6
ByLayer
370
-1
48
1.0
60
0
100
AcDbLine
10
39.8017272605285
20
167.281688776258
30
0.0
11
34.2572826730329
21
167.281688776258
31
0.0
39
0.0
210
0.0
220
0.0
230
1.0
0
LINE
5
B1
330
70
100
AcDbEntity
67
0
8
IV_MARK_SURFACE
62
256
6
ByLayer
370
-1
48
1.0
60
0
100
AcDbLine
10
39.8017272605285
20
170.053911070006
30
0.0
11
39.8017272605285
21
167.281688776258
31
0.0
39
0.0
210
0.0
220
0.0
230
1.0
0
ARC
5
B2
330
70
100
AcDbEntity
67
0
8
IV_MARK_SURFACE
62
256
6
ByLayer
370
-1
48
1.0
60
0
100
AcDbCircle
39
0.0
10
37.0295049667806
20
170.053911070006
30
0.0
40
2.7722222937478
210
0.0
220
0.0
230
1.0
100
AcDbArc
50
0.0
51
180.0
0
LINE
5
B3
330
70
100
AcDbEntity
67
0
8
IV_MARK_SURFACE
62
256
6
ByLayer
370
-1
48
1.0
60
0
100
AcDbLine
10
34.2572826730329
20
167.281688776258
30
0.0
11
34.2572826730329
21
170.053911070006
31
0.0
39
0.0
210
0.0
220
0.0
230
1.0
0
ARC
5
B4
330
70
100
AcDbEntity
67
0
8
IV_MARK_SURFACE
62
256
6
ByLayer
370
-1
48
1.0
60
0
100
AcDbCircle
39
0.0
10
36.4750605080311
20
142.331688132528
30
0.0
40
2.21777783499824
210
0.0
220
0.0
230
1.0
100
AcDbArc
50
0.0
51
180.0
0
LINE
5
B5
330
70
100
AcDbEntity
67
0
8
IV_MARK_SURFACE
62
256
6
ByLayer
370
-1
48
1.0
60
0
100
AcDbLine
10
34.2572826730328
20
139.55946583878
30
0.0
11
34.2572826730328
21
142.331688132528
31
0.0
39
0.0
210
0.0
220
0.0
230
1.0
0
LINE
5
B6
330
70
100
AcDbEntity
67
0
8
IV_MARK_SURFACE
62
256
6
ByLayer
370
-1
48
1.0
60
0
100
AcDbLine
10
38.6928383430293
20
139.55946583878
30
0.0
11
34.2572826730328
21
139.55946583878
31
0.0
39
0.0
210
0.0
220
0.0
230
1.0
0
LINE
5
B7
330
70
100
AcDbEntity
67
0
8
IV_MARK_SURFACE
62
256
6
ByLayer
370
-1
48
1.0
60
0
100
AcDbLine
10
38.6928383430293
20
142.331688132528
30
0.0
11
38.6928383430293
21
139.55946583878
31
0.0
39
0.0
210
0.0
220
0.0
230
1.0
0
CIRCLE
5
B8
330
70
100
AcDbEntity
67
0
8
AutoDXF_SmallHoles
62
256
6
ByLayer
370
-1
48
1.0
60
0
100
AcDbCircle
10
34.5345049024076
20
96.0355758269392
30
0.0
40
0.27722222937478
39
0.0
210
0.0
220
0.0
230
1.0
0
ARC
5
B9
330
70
100
AcDbEntity
67
0
8
IV_MARK_SURFACE
62
256
6
ByLayer
370
-1
48
1.0
60
0
100
AcDbCircle
39
0.0
10
39.2472828017789
20
109.065020607554
30
0.0
40
1.66333337624868
210
0.0
220
0.0
230
1.0
100
AcDbArc
50
180.0
51
270.0
0
LINE
5
BA
330
70
100
AcDbEntity
67
0
8
IV_MARK_SURFACE
62
256
6
ByLayer
370
-1
48
1.0
60
0
100
AcDbLine
10
42.5739495542762
20
107.401687231305
30
0.0
11
39.2472828017789
21
107.401687231305
31
0.0
39
0.0
210
0.0
220
0.0
230
1.0
0
ARC
5
BB
330
70
100
AcDbEntity
67
0
8
IV_MARK_SURFACE
62
256
6
ByLayer
370
-1
48
1.0
60
0
100
AcDbCircle
39
0.0
10
42.5739495542762
20
109.065020607554
30
0.0
40
1.66333337624868
210
0.0
220
0.0
230
1.0
100
AcDbArc
50
270.0
51
0.0
0
LINE
5
BC
330
70
100
AcDbEntity
67
0
8
IV_MARK_SURFACE
62
256
6
ByLayer
370
-1
48
1.0
60
0
100
AcDbLine
10
44.2372829305249
20
111.837242901302
30
0.0
11
44.2372829305249
21
109.065020607554
31
0.0
39
0.0
210
0.0
220
0.0
230
1.0
0
LINE
5
BD
330
70
100
AcDbEntity
67
0
8
IV_MARK_SURFACE
62
256
6
ByLayer
370
-1
48
1.0
60
0
100
AcDbLine
10
37.5839494255302
20
111.837242901302
30
0.0
11
44.2372829305249
21
111.837242901302
31
0.0
39
0.0
210
0.0
220
0.0
230
1.0
0
LINE
5
BE
330
70
100
AcDbEntity
67
0
8
IV_MARK_SURFACE
62
256
6
ByLayer
370
-1
48
1.0
60
0
100
AcDbLine
10
37.5839494255302
20
109.065020607554
30
0.0
11
37.5839494255302
21
111.837242901302
31
0.0
39
0.0
210
0.0
220
0.0
230
1.0
0
LINE
5
BF
330
70
100
AcDbEntity
67
0
8
IV_MARK_SURFACE
62
256
6
ByLayer
370
-1
48
1.0
60
0
100
AcDbLine
10
40.9106161780275
20
115.163909653799
30
0.0
11
40.9106161780275
21
119.599465323796
31
0.0
39
0.0
210
0.0
220
0.0
230
1.0
0
LINE
5
C0
330
70
100
AcDbEntity
67
0
8
IV_MARK_SURFACE
62
256
6
ByLayer
370
-1
48
1.0
60
0
100
AcDbLine
10
40.9106161780275
20
119.599465323796
30
0.0
11
39.8017272605284
21
119.599465323795
31
0.0
39
0.0
210
0.0
220
0.0
230
1.0
0
ARC
5
C1
330
70
100
AcDbEntity
67
0
8
IV_MARK_SURFACE
62
256
6
ByLayer
370
-1
48
1.0
60
0
100
AcDbCircle
39
0.0
10
39.8017272605284
20
117.381687488797
30
0.0
40
2.21777783499824
210
0.0
220
0.0
230
1.0
100
AcDbArc
50
90.0
51
270.0
0
LINE
5
C2
330
70
100
AcDbEntity
67
0
8
IV_MARK_SURFACE
62
256
6
ByLayer
370
-1
48
1.0
60
0
100
AcDbLine
10
39.8017272605284
20
115.163909653799
30
0.0
11
40.9106161780275
21
115.163909653799
31
0.0
39
0.0
210
0.0
220
0.0
230
1.0
0
LINE
5
C3
330
70
100
AcDbEntity
67
0
8
IV_MARK_SURFACE
62
256
6
ByLayer
370
-1
48
1.0
60
0
100
AcDbLine
10
37.0295049667806
20
148.430577178773
30
0.0
11
41.4650606367771
21
148.430577178773
31
0.0
39
0.0
210
0.0
220
0.0
230
1.0
0
ARC
5
C4
330
70
100
AcDbEntity
67
0
8
IV_MARK_SURFACE
62
256
6
ByLayer
370
-1
48
1.0
60
0
100
AcDbCircle
39
0.0
10
41.4650606367771
20
151.202799472521
30
0.0
40
2.7722222937478
210
0.0
220
0.0
230
1.0
100
AcDbArc
50
270.0
51
90.0
0
LINE
5
C5
330
70
100
AcDbEntity
67
0
8
IV_MARK_SURFACE
62
256
6
ByLayer
370
-1
48
1.0
60
0
100
AcDbLine
10
41.4650606367771
20
153.975021766269
30
0.0
11
37.0295049667806
21
153.975021766269
31
0.0
39
0.0
210
0.0
220
0.0
230
1.0
0
ARC
5
C6
330
70
100
AcDbEntity
67
0
8
IV_MARK_SURFACE
62
256
6
ByLayer
370
-1
48
1.0
60
0
100
AcDbCircle
39
0.0
10
37.0295049667806
20
151.202799472521
30
0.0
40
2.7722222937478
210
0.0
220
0.0
230
1.0
100
AcDbArc
50
90.0
51
270.0
0
LINE
5
C7
330
70
100
AcDbEntity
67
0
8
IV_MARK_SURFACE
62
256
6
ByLayer
370
-1
48
1.0
60
0
100
AcDbLine
10
42.0195050955267
20
209.419467641225
30
0.0
11
42.0195050955267
21
207.201689806227
31
0.0
39
0.0
210
0.0
220
0.0
230
1.0
0
LINE
5
C8
330
70
100
AcDbEntity
67
0
8
IV_MARK_SURFACE
62
256
6
ByLayer
370
-1
48
1.0
60
0
100
AcDbLine
10
39.8017272605285
20
210.528356558724
30
0.0
11
42.0195050955267
21
209.419467641225
31
0.0
39
0.0
210
0.0
220
0.0
230
1.0
0
LINE
5
C9
330
70
100
AcDbEntity
67
0
8
IV_MARK_SURFACE
62
256
6
ByLayer
370
-1
48
1.0
60
0
100
AcDbLine
10
39.8017272605285
20
208.310578723726
30
0.0
11
39.8017272605285
21
210.528356558724
31
0.0
39
0.0
210
0.0
220
0.0
230
1.0
0
LINE
5
CA
330
70
100
AcDbEntity
67
0
8
IV_MARK_SURFACE
62
256
6
ByLayer
370
-1
48
1.0
60
0
100
AcDbLine
10
42.0195050955267
20
207.201689806227
30
0.0
11
39.8017272605285
21
208.310578723726
31
0.0
39
0.0
210
0.0
220
0.0
230
1.0
0
LINE
5
CB
330
70
100
AcDbEntity
67
0
8
IV_MARK_SURFACE
62
256
6
ByLayer
370
-1
48
1.0
60
0
100
AcDbLine
10
44.2372829305249
20
139.55946583878
30
0.0
11
38.6928383430293
21
139.55946583878
31
0.0
39
0.0
210
0.0
220
0.0
230
1.0
0
LINE
5
CC
330
70
100
AcDbEntity
67
0
8
IV_MARK_SURFACE
62
256
6
ByLayer
370
-1
48
1.0
60
0
100
AcDbLine
10
44.2372829305249
20
142.331688132528
30
0.0
11
44.2372829305249
21
139.55946583878
31
0.0
39
0.0
210
0.0
220
0.0
230
1.0
0
ARC
5
CD
330
70
100
AcDbEntity
67
0
8
IV_MARK_SURFACE
62
256
6
ByLayer
370
-1
48
1.0
60
0
100
AcDbCircle
39
0.0
10
41.4650606367771
20
142.331688132528
30
0.0
40
2.7722222937478
210
0.0
220
0.0
230
1.0
100
AcDbArc
50
0.0
51
180.0
0
LINE
5
CE
330
70
100
AcDbEntity
67
0
8
IV_MARK_SURFACE
62
256
6
ByLayer
370
-1
48
1.0
60
0
100
AcDbLine
10
44.2372829305249
20
167.281688776258
30
0.0
11
39.8017272605285
21
167.281688776258
31
0.0
39
0.0
210
0.0
220
0.0
230
1.0
0
LINE
5
CF
330
70
100
AcDbEntity
67
0
8
IV_MARK_SURFACE
62
256
6
ByLayer
370
-1
48
1.0
60
0
100
AcDbLine
10
44.2372829305249
20
96.0355758269392
30
0.0
11
37.5839494255302
21
96.0355758269392
31
0.0
39
0.0
210
0.0
220
0.0
230
1.0
0
LINE
5
D0
330
70
100
AcDbEntity
67
0
8
IV_MARK_SURFACE
62
256
6
ByLayer
370
-1
48
1.0
60
0
100
AcDbLine
10
44.2372829305249
20
83.5605755050742
30
0.0
11
37.5839494255302
21
83.5605755050742
31
0.0
39
0.0
210
0.0
220
0.0
230
1.0
0
LINE
5
D1
330
70
100
AcDbEntity
67
0
8
IV_MARK_SURFACE
62
256
6
ByLayer
370
-1
48
1.0
60
0
100
AcDbLine
10
37.5839494255302
20
82.4516865875751
30
0.0
11
37.5839494255302
21
83.5605755050742
31
0.0
39
0.0
210
0.0
220
0.0
230
1.0
0
LINE
5
D2
330
70
100
AcDbEntity
67
0
8
IV_MARK_SURFACE
62
256
6
ByLayer
370
-1
48
1.0
60
0
100
AcDbLine
10
37.5839494255302
20
83.5605755050742
30
0.0
11
34.2572826730328
21
83.5605755050742
31
0.0
39
0.0
210
0.0
220
0.0
230
1.0
0
LINE
5
D3
330
70
100
AcDbEntity
67
0
8
IV_MARK_SURFACE
62
256
6
ByLayer
370
-1
48
1.0
60
0
100
AcDbLine
10
37.5839494255302
20
83.5605755050742
30
0.0
11
37.5839494255302
21
85.7783533400725
31
0.0
39
0.0
210
0.0
220
0.0
230
1.0
0
LINE
5
D4
330
70
100
AcDbEntity
67
0
8
IV_MARK_SURFACE
62
256
6
ByLayer
370
-1
48
1.0
60
0
100
AcDbLine
10
44.2372829305249
20
56.9472414850951
30
0.0
11
44.2372829305249
21
58.6105748613437
31
0.0
39
0.0
210
0.0
220
0.0
230
1.0
0
ARC
5
D5
330
70
100
AcDbEntity
67
0
8
IV_MARK_SURFACE
62
256
6
ByLayer
370
-1
48
1.0
60
0
100
AcDbCircle
39
0.0
10
41.4650606367771
20
58.6105748613437
30
0.0
40
2.7722222937478
210
0.0
220
0.0
230
1.0
100
AcDbArc
50
0.0
51
180.0
0
LINE
5
D6
330
70
100
AcDbEntity
67
0
8
IV_MARK_SURFACE
62
256
6
ByLayer
370
-1
48
1.0
60
0
100
AcDbLine
10
38.6928383430293
20
58.6105748613437
30
0.0
11
38.6928383430293
21
58.0561304025942
31
0.0
39
0.0
210
0.0
220
0.0
230
1.0
0
LINE
5
D7
330
70
100
AcDbEntity
67
0
8
IV_MARK_SURFACE
62
256
6
ByLayer
370
-1
48
1.0
60
0
100
AcDbLine
10
44.2372829305249
20
53.6205747325977
30
0.0
11
44.2372829305248
21
49.1850190626012
31
0.0
39
0.0
210
0.0
220
0.0
230
1.0
0
LINE
5
D8
330
70
100
AcDbEntity
67
0
8
IV_MARK_SURFACE
62
256
6
ByLayer
370
-1
48
1.0
60
0
100
AcDbLine
10
44.2372829305248
20
49.1850190626012
30
0.0
11
38.1383938842797
21
53.0661302738481
31
0.0
39
0.0
210
0.0
220
0.0
230
1.0
0
ARC
5
D9
330
70
100
AcDbEntity
67
0
8
IV_MARK_SURFACE
62
256
6
ByLayer
370
-1
48
1.0
60
0
100
AcDbCircle
39
0.0
10
36.3526461566662
20
50.6359172627651
30
0.0
40
3.01576362235398
210
0.0
220
0.0
230
1.0
100
AcDbArc
50
53.6911376697095
51
98.2363753944363
0
ARC
5
DA
330
70
100
AcDbEntity
67
0
8
IV_MARK_SURFACE
62
256
6
ByLayer
370
-1
48
1.0
60
0
100
AcDbCircle
39
0.0
10
36.5735416083294
20
51.4027968975995
30
0.0
40
2.31189323089705
210
0.0
220
0.0
230
1.0
100
AcDbArc
50
106.404708489252
51
253.595291510748
0
ARC
5
DB
330
70
100
AcDbEntity
67
0
8
IV_MARK_SURFACE
62
256
6
ByLayer
370
-1
48
1.0
60
0
100
AcDbCircle
39
0.0
10
36.475060508031
20
43.6405744751056
30
0.0
40
2.21777783499824
210
0.0
220
0.0
230
1.0
100
AcDbArc
50
0.0
51
180.0
0
LINE
5
DC
330
70
100
AcDbEntity
67
0
8
IV_MARK_SURFACE
62
256
6
ByLayer
370
-1
48
1.0
60
0
100
AcDbLine
10
34.2572826730328
20
43.6405744751056
30
0.0
11
34.2572826730328
21
41.4227966401074
31
0.0
39
0.0
210
0.0
220
0.0
230
1.0
0
LINE
5
DD
330
70
100
AcDbEntity
67
0
8
IV_MARK_SURFACE
62
256
6
ByLayer
370
-1
48
1.0
60
0
100
AcDbLine
10
44.2372829305248
20
28.1161296301178
30
0.0
11
44.2372829305248
21
25.8983517951196
31
0.0
39
0.0
210
0.0
220
0.0
230
1.0
0
ARC
5
DE
330
70
100
AcDbEntity
67
0
8
IV_MARK_SURFACE
62
256
6
ByLayer
370
-1
48
1.0
60
0
100
AcDbCircle
39
0.0
10
42.0195050955266
20
25.8983517951196
30
0.0
40
2.21777783499824
210
0.0
220
0.0
230
1.0
100
AcDbArc
50
270.0
51
0.0
0
LINE
5
DF
330
70
100
AcDbEntity
67
0
8
IV_MARK_SURFACE
62
256
6
ByLayer
370
-1
48
1.0
60
0
100
AcDbLine
10
42.0195050955266
20
23.6805739601215
30
0.0
11
36.475060508031
21
23.6805739601215
31
0.0
39
0.0
210
0.0
220
0.0
230
1.0
0
ARC
5
E0
330
70
100
AcDbEntity
67
0
8
IV_MARK_SURFACE
62
256
6
ByLayer
370
-1
48
1.0
60
0
100
AcDbCircle
39
0.0
10
36.475060508031
20
25.8983517951196
30
0.0
40
2.21777783499824
210
0.0
220
0.0
230
1.0
100
AcDbArc
50
180.0
51
270.0
0
LINE
5
E1
330
70
100
AcDbEntity
67
0
8
IV_MARK_SURFACE
62
256
6
ByLayer
370
-1
48
1.0
60
0
100
AcDbLine
10
34.2572826730328
20
25.8983517951196
30
0.0
11
34.2572826730328
21
28.116129630118
31
0.0
39
0.0
210
0.0
220
0.0
230
1.0
0
LINE
5
E2
330
70
100
AcDbEntity
67
0
8
IV_MARK_SURFACE
62
256
6
ByLayer
370
-1
48
1.0
60
0
100
AcDbLine
10
44.2372829305248
20
5.38390682138584
30
0.0
11
34.2572826730328
21
5.38390682138584
31
0.0
39
0.0
210
0.0
220
0.0
230
1.0
0
LINE
5
E3
330
70
100
AcDbEntity
67
0
8
IV_MARK_SURFACE
62
256
6
ByLayer
370
-1
48
1.0
60
0
100
AcDbLine
10
34.2572826730328
20
5.38390682138584
30
0.0
11
39.8017272605284
21
8.7105735738831
31
0.0
39
0.0
210
0.0
220
0.0
230
1.0
0
LINE
5
E4
330
70
100
AcDbEntity
67
0
8
IV_MARK_SURFACE
62
256
6
ByLayer
370
-1
48
1.0
60
0
100
AcDbLine
10
39.8017272605284
20
8.7105735738831
30
0.0
11
34.2572826730328
21
12.0372403263805
31
0.0
39
0.0
210
0.0
220
0.0
230
1.0
0
LINE
5
E5
330
70
100
AcDbEntity
67
0
8
IV_MARK_SURFACE
62
256
6
ByLayer
370
-1
48
1.0
60
0
100
AcDbLine
10
34.2572826730328
20
12.0372403263805
30
0.0
11
44.2372829305248
21
12.0372403263805
31
0.0
39
0.0
210
0.0
220
0.0
230
1.0
0
ARC
5
E6
330
70
100
AcDbEntity
67
0
8
IV_MARK_SURFACE
62
256
6
ByLayer
370
-1
48
1.0
60
0
100
AcDbCircle
39
0.0
10
40.5757666505779
20
17.4268770358663
30
0.0
40
3.72957642977254
210
0.0
220
0.0
230
1.0
100
AcDbArc
50
326.417448663616
51
10.9626863883415
0
ARC
5
E7
330
70
100
AcDbEntity
67
0
8
IV_MARK_SURFACE
62
256
6
ByLayer
370
-1
48
1.0
60
0
100
AcDbCircle
39
0.0
10
41.8562737057646
20
18.0376482723273
30
0.0
40
2.38304499653475
210
0.0
220
0.0
230
1.0
100
AcDbArc
50
2.36846502132346
51
149.55904804282
0
LINE
5
E8
330
70
100
AcDbEntity
67
0
8
IV_MARK_SURFACE
62
256
6
ByLayer
370
-1
48
1.0
60
0
100
AcDbLine
10
39.8017272605284
20
19.2450182901248
30
0.0
11
38.1383938842797
21
16.472795996377
31
0.0
39
0.0
210
0.0
220
0.0
230
1.0
0
ARC
5
E9
330
70
100
AcDbEntity
67
0
8
IV_MARK_SURFACE
62
256
6
ByLayer
370
-1
48
1.0
60
0
100
AcDbCircle
39
0.0
10
36.2410883502082
20
17.5994067139391
30
0.0
40
2.20658559737517
210
0.0
220
0.0
230
1.0
100
AcDbArc
50
229.626277176387
51
329.29836723966
0
ARC
5
EA
330
70
100
AcDbEntity
67
0
8
IV_MARK_SURFACE
62
256
6
ByLayer
370
-1
48
1.0
60
0
100
AcDbCircle
39
0.0
10
38.9332249415324
20
18.1361293726258
30
0.0
40
4.68030797289921
210
0.0
220
0.0
230
1.0
100
AcDbArc
50
151.715306715937
51
208.284693284066
0
LINE
5
EB
330
70
100
AcDbEntity
67
0
8
IV_MARK_SURFACE
62
256
6
ByLayer
370
-1
48
1.0
60
0
100
AcDbLine
10
44.2372829305248
20
41.4227966401074
30
0.0
11
44.2372829305248
21
43.0861300163561
31
0.0
39
0.0
210
0.0
220
0.0
230
1.0
0
ARC
5
EC
330
70
100
AcDbEntity
67
0
8
IV_MARK_SURFACE
62
256
6
ByLayer
370
-1
48
1.0
60
0
100
AcDbCircle
39
0.0
10
41.465060636777
20
43.0861300163561
30
0.0
40
2.7722222937478
210
0.0
220
0.0
230
1.0
100
AcDbArc
50
0.0
51
180.0
0
LINE
5
ED
330
70
100
AcDbEntity
67
0
8
IV_MARK_SURFACE
62
256
6
ByLayer
370
-1
48
1.0
60
0
100
AcDbLine
10
38.6928383430293
20
43.0861300163561
30
0.0
11
38.6928383430293
21
42.5316855576065
31
0.0
39
0.0
210
0.0
220
0.0
230
1.0
0
ARC
5
EE
330
70
100
AcDbEntity
67
0
8
IV_MARK_SURFACE
62
256
6
ByLayer
370
-1
48
1.0
60
0
100
AcDbCircle
39
0.0
10
36.475060508031
20
59.1650193200934
30
0.0
40
2.21777783499824
210
0.0
220
0.0
230
1.0
100
AcDbArc
50
0.0
51
180.0
0
LINE
5
EF
330
70
100
AcDbEntity
67
0
8
IV_MARK_SURFACE
62
256
6
ByLayer
370
-1
48
1.0
60
0
100
AcDbLine
10
34.2572826730328
20
59.1650193200934
30
0.0
11
34.2572826730328
21
56.9472414850951
31
0.0
39
0.0
210
0.0
220
0.0
230
1.0
0
ARC
5
F0
330
70
100
AcDbEntity
67
0
8
IV_MARK_SURFACE
62
256
6
ByLayer
370
-1
48
1.0
60
0
100
AcDbCircle
39
0.0
10
42.4175022393773
20
76.3646883414707
30
0.0
40
1.81981953913064
210
0.0
220
0.0
230
1.0
100
AcDbArc
50
292.994241360861
51
359.625623587178
0
LINE
5
F1
330
70
100
AcDbEntity
67
0
8
IV_MARK_SURFACE
62
256
6
ByLayer
370
-1
48
1.0
60
0
100
AcDbLine
10
44.2372829305249
20
76.3527975413297
30
0.0
11
44.2372829305249
21
77.4616864588288
31
0.0
39
0.0
210
0.0
220
0.0
230
1.0
0
ARC
5
F2
330
70
100
AcDbEntity
67
0
8
IV_MARK_SURFACE
62
256
6
ByLayer
370
-1
48
1.0
60
0
100
AcDbCircle
39
0.0
10
42.4175022393773
20
77.4497956586877
30
0.0
40
1.81981953913064
210
0.0
220
0.0
230
1.0
100
AcDbArc
50
0.37437641282183
51
67.0057586391359
0
LINE
5
F3
330
70
100
AcDbEntity
67
0
8
IV_MARK_SURFACE
62
256
6
ByLayer
370
-1
48
1.0
60
0
100
AcDbLine
10
43.1283940130258
20
79.1250198350775
30
0.0
11
42.5739495542762
21
79.1250198350775
31
0.0
39
0.0
210
0.0
220
0.0
230
1.0
0
ARC
5
F4
330
70
100
AcDbEntity
67
0
8
IV_MARK_SURFACE
62
256
6
ByLayer
370
-1
48
1.0
60
0
100
AcDbCircle
39
0.0
10
43.3168749048932
20
77.2732055669613
30
0.0
40
1.99528297747161
210
0.0
220
0.0
230
1.0
100
AcDbArc
50
111.860055904196
51
158.1399440958
0
LINE
5
F5
330
70
100
AcDbEntity
67
0
8
IV_MARK_SURFACE
62
256
6
ByLayer
370
-1
48
1.0
60
0
100
AcDbLine
10
41.4650606367771
20
78.0161309175784
30
0.0
11
40.356171719278
21
75.7983530825801
31
0.0
39
0.0
210
0.0
220
0.0
230
1.0
0
ARC
5
F6
330
70
100
AcDbEntity
67
0
8
IV_MARK_SURFACE
62
256
6
ByLayer
370
-1
48
1.0
60
0
100
AcDbCircle
39
0.0
10
38.5043574511618
20
76.5412784331971
30
0.0
40
1.99528297747161
210
0.0
220
0.0
230
1.0
100
AcDbArc
50
291.860055904197
51
338.139944095804
0
LINE
5
F7
330
70
100
AcDbEntity
67
0
8
IV_MARK_SURFACE
62
256
6
ByLayer
370
-1
48
1.0
60
0
100
AcDbLine
10
39.2472828017788
20
74.689464165081
30
0.0
11
38.6928383430293
21
74.6894641650812
31
0.0
39
0.0
210
0.0
220
0.0
230
1.0
0
ARC
5
F8
330
70
100
AcDbEntity
67
0
8
IV_MARK_SURFACE
62
256
6
ByLayer
370
-1
48
1.0
60
0
100
AcDbCircle
39
0.0
10
39.4037301166778
20
76.3646883414708
30
0.0
40
1.81981953913064
210
0.0
220
0.0
230
1.0
100
AcDbArc
50
180.374376412822
51
247.005758639135
0
LINE
5
F9
330
70
100
AcDbEntity
67
0
8
IV_MARK_SURFACE
62
256
6
ByLayer
370
-1
48
1.0
60
0
100
AcDbLine
10
37.5839494255302
20
76.3527975413298
30
0.0
11
37.5839494255302
21
77.461686458829
31
0.0
39
0.0
210
0.0
220
0.0
230
1.0
0
ARC
5
FA
330
70
100
AcDbEntity
67
0
8
IV_MARK_SURFACE
62
256
6
ByLayer
370
-1
48
1.0
60
0
100
AcDbCircle
39
0.0
10
39.4037301166778
20
77.4497956586879
30
0.0
40
1.81981953913064
210
0.0
220
0.0
230
1.0
100
AcDbArc
50
112.994241360865
51
179.625623587174
0
LINE
5
FB
330
70
100
AcDbEntity
67
0
8
IV_MARK_SURFACE
62
256
6
ByLayer
370
-1
48
1.0
60
0
100
AcDbLine
10
44.2372829305249
20
89.1050200925699
30
0.0
11
37.5839494255302
21
89.1050200925699
31
0.0
39
0.0
210
0.0
220
0.0
230
1.0
0
LINE
5
FC
330
70
100
AcDbEntity
67
0
8
IV_MARK_SURFACE
62
256
6
ByLayer
370
-1
48
1.0
60
0
100
AcDbLine
10
37.5839494255302
20
89.1050200925699
30
0.0
11
37.5839494255302
21
91.322797927568
31
0.0
39
0.0
210
0.0
220
0.0
230
1.0
0
ARC
5
FD
330
70
100
AcDbEntity
67
0
8
IV_MARK_SURFACE
62
256
6
ByLayer
370
-1
48
1.0
60
0
100
AcDbCircle
39
0.0
10
38.6928383430293
20
91.322797927568
30
0.0
40
1.10888891749912
210
0.0
220
0.0
230
1.0
100
AcDbArc
50
90.0
51
180.0
0
LINE
5
FE
330
70
100
AcDbEntity
67
0
8
IV_MARK_SURFACE
62
256
6
ByLayer
370
-1
48
1.0
60
0
100
AcDbLine
10
44.2372829305249
20
99.6394648088113
30
0.0
11
37.5839494255302
21
99.6394648088113
31
0.0
39
0.0
210
0.0
220
0.0
230
1.0
0
LINE
5
FF
330
70
100
AcDbEntity
67
0
8
IV_MARK_SURFACE
62
256
6
ByLayer
370
-1
48
1.0
60
0
100
AcDbLine
10
37.5839494255302
20
99.6394648088113
30
0.0
11
37.5839494255302
21
102.411687102559
31
0.0
39
0.0
210
0.0
220
0.0
230
1.0
0
ARC
5
100
330
70
100
AcDbEntity
67
0
8
IV_MARK_SURFACE
62
256
6
ByLayer
370
-1
48
1.0
60
0
100
AcDbCircle
39
0.0
10
39.2472828017789
20
102.411687102559
30
0.0
40
1.66333337624868
210
0.0
220
0.0
230
1.0
100
AcDbArc
50
90.0
51
180.0
0
LINE
5
101
330
70
100
AcDbEntity
67
0
8
IV_MARK_SURFACE
62
256
6
ByLayer
370
-1
48
1.0
60
0
100
AcDbLine
10
39.2472828017789
20
104.075020478808
30
0.0
11
44.2372829305249
21
104.075020478808
31
0.0
39
0.0
210
0.0
220
0.0
230
1.0
0
LINE
5
102
330
70
100
AcDbEntity
67
0
8
IV_MARK_SURFACE
62
256
6
ByLayer
370
-1
48
1.0
60
0
100
AcDbLine
10
44.2372829305249
20
111.837242901302
30
0.0
11
45.9006163067736
21
111.837242901302
31
0.0
39
0.0
210
0.0
220
0.0
230
1.0
0
ARC
5
103
330
70
100
AcDbEntity
67
0
8
IV_MARK_SURFACE
62
256
6
ByLayer
370
-1
48
1.0
60
0
100
AcDbCircle
39
0.0
10
45.9006163067736
20
110.173909525053
30
0.0
40
1.66333337624868
210
0.0
220
0.0
230
1.0
100
AcDbArc
50
0.0
51
90.0
0
LINE
5
104
330
70
100
AcDbEntity
67
0
8
IV_MARK_SURFACE
62
256
6
ByLayer
370
-1
48
1.0
60
0
100
AcDbLine
10
47.5639496830223
20
110.173909525053
30
0.0
11
47.5639496830223
21
107.401687231305
31
0.0
39
0.0
210
0.0
220
0.0
230
1.0
0
LINE
5
105
330
70
100
AcDbEntity
67
0
8
IV_MARK_SURFACE
62
256
6
ByLayer
370
-1
48
1.0
60
0
100
AcDbLine
10
40.9106161780275
20
115.163909653799
30
0.0
11
42.5739495542762
21
115.163909653799
31
0.0
39
0.0
210
0.0
220
0.0
230
1.0
0
ARC
5
106
330
70
100
AcDbEntity
67
0
8
IV_MARK_SURFACE
62
256
6
ByLayer
370
-1
48
1.0
60
0
100
AcDbCircle
39
0.0
10
42.5739495542762
20
116.827243030048
30
0.0
40
1.66333337624868
210
0.0
220
0.0
230
1.0
100
AcDbArc
50
270.0
51
0.0
0
LINE
5
107
330
70
100
AcDbEntity
67
0
8
IV_MARK_SURFACE
62
256
6
ByLayer
370
-1
48
1.0
60
0
100
AcDbLine
10
44.2372829305249
20
116.827243030048
30
0.0
11
44.2372829305249
21
119.599465323796
31
0.0
39
0.0
210
0.0
220
0.0
230
1.0
0
LINE
5
108
330
70
100
AcDbEntity
67
0
8
IV_MARK_SURFACE
62
256
6
ByLayer
370
-1
48
1.0
60
0
100
AcDbLine
10
44.2372829305249
20
122.926132076293
30
0.0
11
37.5839494255302
21
122.926132076293
31
0.0
39
0.0
210
0.0
220
0.0
230
1.0
0
LINE
5
109
330
70
100
AcDbEntity
67
0
8
IV_MARK_SURFACE
62
256
6
ByLayer
370
-1
48
1.0
60
0
100
AcDbLine
10
37.5839494255302
20
122.926132076293
30
0.0
11
37.5839494255302
21
125.143909911291
31
0.0
39
0.0
210
0.0
220
0.0
230
1.0
0
ARC
5
10A
330
70
100
AcDbEntity
67
0
8
IV_MARK_SURFACE
62
256
6
ByLayer
370
-1
48
1.0
60
0
100
AcDbCircle
39
0.0
10
38.6928383430293
20
125.143909911291
30
0.0
40
1.10888891749912
210
0.0
220
0.0
230
1.0
100
AcDbArc
50
90.0
51
179.999999999993
0
LINE
5
10B
330
70
100
AcDbEntity
67
0
8
IV_MARK_SURFACE
62
256
6
ByLayer
370
-1
48
1.0
60
0
100
AcDbLine
10
44.2372829305249
20
163.955022023761
30
0.0
11
34.2572826730328
21
160.628355271263
31
0.0
39
0.0
210
0.0
220
0.0
230
1.0
0
LINE
5
10C
330
70
100
AcDbEntity
67
0
8
IV_MARK_SURFACE
62
256
6
ByLayer
370
-1
48
1.0
60
0
100
AcDbLine
10
34.2572826730328
20
160.628355271263
30
0.0
11
44.2372829305249
21
157.301688518766
31
0.0
39
0.0
210
0.0
220
0.0
230
1.0
0
LINE
5
10D
330
70
100
AcDbEntity
67
0
8
IV_MARK_SURFACE
62
256
6
ByLayer
370
-1
48
1.0
60
0
100
AcDbLine
10
41.4650606367771
20
158.410577436265
30
0.0
11
41.4650606367771
21
162.846133106262
31
0.0
39
0.0
210
0.0
220
0.0
230
1.0
0
LINE
5
10E
330
70
100
AcDbEntity
67
0
8
IV_MARK_SURFACE
62
256
6
ByLayer
370
-1
48
1.0
60
0
100
AcDbLine
10
39.8017272605285
20
170.608355528755
30
0.0
11
44.2372829305249
21
172.826133363754
31
0.0
39
0.0
210
0.0
220
0.0
230
1.0
0
LINE
5
10F
330
70
100
AcDbEntity
67
0
8
IV_MARK_SURFACE
62
256
6
ByLayer
370
-1
48
1.0
60
0
100
AcDbLine
10
44.2372829305249
20
206.092800888727
30
0.0
11
42.0195050955267
21
207.201689806227
31
0.0
39
0.0
210
0.0
220
0.0
230
1.0
0
LINE
5
110
330
70
100
AcDbEntity
67
0
8
IV_MARK_SURFACE
62
256
6
ByLayer
370
-1
48
1.0
60
0
100
AcDbLine
10
42.0195050955267
20
207.201689806227
30
0.0
11
42.0195050955267
21
204.983911971228
31
0.0
39
0.0
210
0.0
220
0.0
230
1.0
0
LINE
5
111
330
70
100
AcDbEntity
67
0
8
IV_MARK_SURFACE
62
256
6
ByLayer
370
-1
48
1.0
60
0
100
AcDbLine
10
39.8017272605285
20
206.092800888727
30
0.0
11
39.8017272605285
21
208.310578723726
31
0.0
39
0.0
210
0.0
220
0.0
230
1.0
0
LINE
5
112
330
70
100
AcDbEntity
67
0
8
IV_MARK_SURFACE
62
256
6
ByLayer
370
-1
48
1.0
60
0
100
AcDbLine
10
39.8017272605285
20
208.310578723726
30
0.0
11
37.5839494255302
21
209.419467641225
31
0.0
39
0.0
210
0.0
220
0.0
230
1.0
0
LINE
5
113
330
70
100
AcDbEntity
67
0
8
IV_MARK_SURFACE
62
256
6
ByLayer
370
-1
48
1.0
60
0
100
AcDbLine
10
37.5839494255302
20
211.637245476223
30
0.0
11
39.8017272605285
21
210.528356558724
31
0.0
39
0.0
210
0.0
220
0.0
230
1.0
0
LINE
5
114
330
70
100
AcDbEntity
67
0
8
IV_MARK_SURFACE
62
256
6
ByLayer
370
-1
48
1.0
60
0
100
AcDbLine
10
39.8017272605285
20
210.528356558724
30
0.0
11
39.8017272605285
21
212.746134393722
31
0.0
39
0.0
210
0.0
220
0.0
230
1.0
0
LINE
5
115
330
70
100
AcDbEntity
67
0
8
IV_MARK_SURFACE
62
256
6
ByLayer
370
-1
48
1.0
60
0
100
AcDbLine
10
42.0195050955267
20
211.637245476223
30
0.0
11
42.0195050955267
21
209.419467641225
31
0.0
39
0.0
210
0.0
220
0.0
230
1.0
0
LINE
5
116
330
70
100
AcDbEntity
67
0
8
IV_MARK_SURFACE
62
256
6
ByLayer
370
-1
48
1.0
60
0
100
AcDbLine
10
42.0195050955267
20
209.419467641225
30
0.0
11
44.2372829305249
21
208.310578723726
31
0.0
39
0.0
210
0.0
220
0.0
230
1.0
0
LINE
5
117
330
70
100
AcDbEntity
67
0
8
IV_OUTER_PROFILE
62
256
6
ByLayer
370
-1
48
1.0
60
0
100
AcDbLine
10
45.2019907662655
20
736.0500001
30
0.0
11
78.2019907662656
21
736.0500001
31
0.0
39
0.0
210
0.0
220
0.0
230
1.0
0
LINE
5
118
330
70
100
AcDbEntity
67
0
8
IV_OUTER_PROFILE
62
256
6
ByLayer
370
-1
48
1.0
60
0
100
AcDbLine
10
78.2019907662656
20
733.9500001
30
0.0
11
45.2019907662655
21
733.9500001
31
0.0
39
0.0
210
0.0
220
0.0
230
1.0
0
LINE
5
119
330
70
100
AcDbEntity
67
0
8
IV_OUTER_PROFILE
62
256
6
ByLayer
370
-1
48
1.0
60
0
100
AcDbLine
10
45.2019907662655
20
733.9500001
30
0.0
11
45.2019907662655
21
736.0500001
31
0.0
39
0.0
210
0.0
220
0.0
230
1.0
0
LINE
5
11A
330
70
100
AcDbEntity
67
0
8
IV_OUTER_PROFILE
62
256
6
ByLayer
370
-1
48
1.0
60
0
100
AcDbLine
10
45.2019907662654
20
246.0500001
30
0.0
11
78.2019907662655
21
246.0500001
31
0.0
39
0.0
210
0.0
220
0.0
230
1.0
0
LINE
5
11B
330
70
100
AcDbEntity
67
0
8
IV_OUTER_PROFILE
62
256
6
ByLayer
370
-1
48
1.0
60
0
100
AcDbLine
10
78.2019907662655
20
243.9500001
30
0.0
11
45.2019907662654
21
243.9500001
31
0.0
39
0.0
210
0.0
220
0.0
230
1.0
0
LINE
5
11C
330
70
100
AcDbEntity
67
0
8
IV_OUTER_PROFILE
62
256
6
ByLayer
370
-1
48
1.0
60
0
100
AcDbLine
10
45.2019907662654
20
243.9500001
30
0.0
11
45.2019907662654
21
246.0500001
31
0.0
39
0.0
210
0.0
220
0.0
230
1.0
0
ARC
5
11D
330
70
100
AcDbEntity
67
0
8
IV_OUTER_PROFILE
62
256
6
ByLayer
370
-1
48
1.0
60
0
100
AcDbCircle
39
0.0
10
78.2019907662657
20
980.0000001
30
0.0
40
35.0
210
0.0
220
0.0
230
1.0
100
AcDbArc
50
180.0
51
270.0
0
LINE
5
11E
330
70
100
AcDbEntity
67
0
8
IV_OUTER_PROFILE
62
256
6
ByLayer
370
-1
48
1.0
60
0
100
AcDbLine
10
78.2019907662655
20
243.9500001
30
0.0
11
78.2019907662655
21
0.0000001000000793
31
0.0
39
0.0
210
0.0
220
0.0
230
1.0
0
LINE
5
11F
330
70
100
AcDbEntity
67
0
8
IV_OUTER_PROFILE
62
256
6
ByLayer
370
-1
48
1.0
60
0
100
AcDbLine
10
78.2019907662657
20
945.0000001
30
0.0
11
78.2019907662656
21
736.0500001
31
0.0
39
0.0
210
0.0
220
0.0
230
1.0
0
LINE
5
120
330
70
100
AcDbEntity
67
0
8
IV_OUTER_PROFILE
62
256
6
ByLayer
370
-1
48
1.0
60
0
100
AcDbLine
10
78.2019907662656
20
733.9500001
30
0.0
11
78.2019907662655
21
246.0500001
31
0.0
39
0.0
210
0.0
220
0.0
230
1.0
0
LINE
5
121
330
70
100
AcDbEntity
67
0
8
IV_OUTER_PROFILE
62
256
6
ByLayer
370
-1
48
1.0
60
0
100
AcDbLine
10
78.2019907662655
20
0.0000001000000793
30
0.0
11
0.0000000999999994
21
0.0000001000000793
31
0.0
39
0.0
210
0.0
220
0.0
230
1.0
0
LINE
5
122
330
70
100
AcDbEntity
67
0
8
IV_OUTER_PROFILE
62
256
6
ByLayer
370
-1
48
1.0
60
0
100
AcDbLine
10
43.2019907662657
20
980.0000001
30
0.0
11
0.000000100000217
21
980.0000001
31
0.0
39
0.0
210
0.0
220
0.0
230
1.0
0
LINE
5
123
330
70
100
AcDbEntity
67
0
8
IV_OUTER_PROFILE
62
256
6
ByLayer
370
-1
48
1.0
60
0
100
AcDbLine
10
0.000000100000217
20
980.0000001
30
0.0
11
0.0000000999999994
21
0.0000001000000793
31
0.0
39
0.0
210
0.0
220
0.0
230
1.0
0
POINT
5
187
330
70
100
AcDbEntity
67
0
8
AutoDXF_SmallHoles_Points
62
256
6
ByLayer
370
-1
48
1.0
60
0
100
AcDbPoint
10
34.5345049024076
20
96.0355758269392
30
0.0
39
0.0
210
0.0
220
0.0
230
1.0
50
360.0
0
ENDSEC
0
SECTION
2
OBJECTS
0
DICTIONARY
5
18D
330
0
100
AcDbDictionary
280
1
281
1
3
ACAD_GROUP
350
D
3
ACAD_LAYOUT
350
62
3
ACAD_DGNDEFINITIONS
350
180
3
ACAD_DWFDEFINITIONS
350
181
3
ACAD_PDFDEFINITIONS
350
182
3
ACAD_MLINESTYLE
350
5F
3
ACAD_IMAGE_DICT
350
17F
3
ACAD_IMAGE_VARS
350
183
0
DICTIONARY
5
D
330
18D
100
AcDbDictionary
280
1
281
1
0
DICTIONARY
5
62
330
18D
100
AcDbDictionary
280
1
281
1
3
Layout1
350
6F
3
Layout2
350
77
3
Model
350
73
0
DICTIONARY
5
180
330
18D
100
AcDbDictionary
280
1
281
1
0
DICTIONARY
5
181
330
18D
100
AcDbDictionary
280
1
281
1
0
DICTIONARY
5
182
330
18D
100
AcDbDictionary
280
1
281
1
0
DICTIONARY
5
5F
330
18D
100
AcDbDictionary
280
1
281
1
3
STANDARD
350
60
0
DICTIONARY
5
17F
330
18D
100
AcDbDictionary
280
1
281
1
0
DICTIONARY
5
17D
330
2
100
AcDbDictionary
280
1
281
1
3
ACAD_LAYERSTATES
360
18E
0
DICTIONARY
5
18E
330
17D
100
AcDbDictionary
280
1
281
1
0
LAYOUT
5
6F
330
62
100
AcDbPlotSettings
1

2

4

6

40
0.0
41
0.0
42
0.0
43
0.0
44
0.0
45
0.0
46
0.0
47
0.0
48
0.0
49
0.0
140
0.0
141
0.0
142
1.0
143
1.0
70
688
72
0
73
0
74
5
7

75
16
76
0
77
2
78
300
147
1.0
148
0.0
149
0.0
100
AcDbLayout
1
Layout1
71
1
10
0.0
20
0.0
11
12.0
21
9.0
12
0.0
22
0.0
32
0.0
14
0.0
24
0.0
34
0.0
15
0.0
25
0.0
35
0.0
146
0.0
13
0.0
23
0.0
33
0.0
16
1.0
26
0.0
36
0.0
17
0.0
27
1.0
37
0.0
76
0
330
6C
0
LAYOUT
5
77
330
62
100
AcDbPlotSettings
1

2

4

6

40
0.0
41
0.0
42
0.0
43
0.0
44
0.0
45
0.0
46
0.0
47
0.0
48
0.0
49
0.0
140
0.0
141
0.0
142
1.0
143
1.0
70
688
72
0
73
0
74
5
7

75
16
76
0
77
2
78
300
147
1.0
148
0.0
149
0.0
100
AcDbLayout
1
Layout2
71
2
10
0.0
20
0.0
11
12.0
21
9.0
12
0.0
22
0.0
32
0.0
14
0.0
24
0.0
34
0.0
15
0.0
25
0.0
35
0.0
146
0.0
13
0.0
23
0.0
33
0.0
16
1.0
26
0.0
36
0.0
17
0.0
27
1.0
37
0.0
76
0
330
74
0
LAYOUT
5
73
330
62
100
AcDbPlotSettings
1

2

4

6

40
0.0
41
0.0
42
0.0
43
0.0
44
0.0
45
0.0
46
0.0
47
0.0
48
0.0
49
0.0
140
0.0
141
0.0
142
1.0
143
1.0
70
1712
72
0
73
0
74
0
7

75
0
76
0
77
2
78
300
147
1.0
148
0.0
149
0.0
100
AcDbLayout
1
Model
71
3
10
0.0
20
0.0
11
12.0
21
9.0
12
0.0
22
0.0
32
0.0
14
0.0
24
0.0
34
0.0
15
0.0
25
0.0
35
0.0
146
0.0
13
0.0
23
0.0
33
0.0
16
1.0
26
0.0
36
0.0
17
0.0
27
1.0
37
0.0
76
0
330
70
0
MLINESTYLE
5
60
330
5F
100
AcDbMlineStyle
2
STANDARD
70
0
3

62
256
51
90.0
52
90.0
71
2
49
0.5
62
256
6
ByLayer
49
-0.5
62
256
6
ByLayer
0
RASTERVARIABLES
5
183
330
17F
100
AcDbRasterVariables
90
0
70
1
71
1
72
0
0
ENDSEC
0
EOF
