999
autodxfXMIN:1E-07
999
autodxfXMAX:50,00000010000024
999
autodxfYMIN:1,2426408285406279
999
autodxfYMAX:1081,24264082854
0
SECTION
2
HEADER
9
$ACADVER
1
AC1015
9
$DWGCODEPAGE
3
ANSI_1251
9
$HANDSEED
5
18B
9
$ANGBASE
50
0.0
9
$ANGDIR
70
0
9
$ATTMODE
70
1
9
$AUNITS
70
0
9
$AUPREC
70
0
9
$CECOLOR
62
256
9
$CELTSCALE
40
1.0
9
$CELTYPE
6
ByLayer
9
$CELWEIGHT
370
-1
9
$CLAYER
8
0
9
$CMLJUST
70
0
9
$CMLSCALE
40
1.0
9
$CMLSTYLE
2
Standard
9
$DIMSTYLE
2
Standard
9
$TEXTSIZE
40
0.2
9
$TEXTSTYLE
7
Standard
9
$LUNITS
70
2
9
$LUPREC
70
4
9
$MIRRTEXT
70
0
9
$EXTNAMES
290
1
9
$INSBASE
10
0.0
20
0.0
30
0.0
9
$INSUNITS
70
4
9
$LTSCALE
40
1.0
9
$LWDISPLAY
290
0
9
$PDMODE
70
0
9
$PDSIZE
40
0.0
9
$PLINEGEN
70
0
9
$PSLTSCALE
70
1
9
$SPLINESEGS
70
6
9
$SURFU
70
6
9
$SURFV
70
6
9
$TDCREATE
40
2460567.59390046
9
$TDUCREATE
40
2460567.46890046
9
$TDUPDATE
40
2460567.59390046
9
$TDUUPDATE
40
2460567.46890046
9
$TDINDWG
40
0.0000115740740741
9
$UCSORG
10
0.0
20
0.0
30
0.0
9
$UCSXDIR
10
1.0
20
0.0
30
0.0
9
$UCSYDIR
10
0.0
20
1.0
30
0.0
9
$DIMADEC
70
0
9
$DIMALT
70
0
9
$DIMALTD
70
2
9
$DIMALTF
40
25.4
9
$DIMALTRND
40
0.0
9
$DIMALTTD
70
2
9
$DIMALTTZ
70
0
9
$DIMALTU
70
2
9
$DIMALTZ
70
0
9
$DIMAPOST
1

9
$DIMATFIT
70
3
9
$DIMAUNIT
70
0
9
$DIMASZ
40
0.18
9
$DIMAZIN
70
3
9
$DIMSAH
70
0
9
$DIMBLK
1

9
$DIMLDRBLK
1

9
$DIMCEN
40
0.09
9
$DIMCLRD
70
0
9
$DIMCLRE
70
0
9
$DIMCLRT
70
0
9
$DIMDEC
70
4
9
$DIMDLE
40
0.0
9
$DIMDLI
40
0.38
9
$DIMDSEP
70
46
9
$DIMEXE
40
0.18
9
$DIMEXO
40
0.0625
9
$DIMFXLON
70
0
9
$DIMFXL
40
1.0
9
$DIMGAP
40
0.09
9
$DIMJUST
70
0
9
$DIMLFAC
40
1.0
9
$DIMLUNIT
70
2
9
$DIMLWD
70
-2
9
$DIMLWE
70
-2
9
$DIMPOST
1

9
$DIMRND
40
0.0
9
$DIMSCALE
40
1.0
9
$DIMSD1
70
0
9
$DIMSD2
70
0
9
$DIMSE1
70
0
9
$DIMSE2
70
0
9
$DIMSOXD
70
0
9
$DIMTAD
70
0
9
$DIMTDEC
70
4
9
$DIMTFAC
40
1.0
9
$DIMTIH
70
0
9
$DIMTIX
70
0
9
$DIMTM
40
0.0
9
$DIMTMOVE
70
0
9
$DIMTOFL
70
0
9
$DIMTOH
70
0
9
$DIMTOL
70
0
9
$DIMLIM
70
0
9
$DIMTOLJ
70
1
9
$DIMTP
40
0.0
9
$DIMTXT
40
0.18
9
$DIMTXTDIRECTION
70
0
9
$DIMTZIN
70
0
9
$DIMZIN
70
0
9
$DIMFRAC
70
0
9
$DIMLTYPE
6
ByBlock
9
$DIMLTEX1
6
ByBlock
9
$DIMLTEX2
6
ByBlock
9
$EXTMIN
10
0.0
20
0.0
30
0.0
9
$EXTMAX
10
51.2426408285409
20
1082.48528165708
30
0.0
9
$LIMMIN
10
0.0
20
0.0
9
$LIMMAX
10
51.2426408285409
20
1082.48528165708
9
$ORTHOMODE
70
0
9
$REGENMODE
70
1
9
$FILLMODE
70
1
9
$QTEXTMODE
70
0
9
$TRACEWID
40
0.05
9
$DISPSILH
70
0
9
$SKETCHINC
40
0.1
9
$FILLETRAD
40
0.0
9
$MENU
1
.
9
$ELEVATION
40
0.0
9
$PELEVATION
40
0.0
9
$THICKNESS
40
0.0
9
$LIMCHECK
70
0
9
$CHAMFERA
40
0.0
9
$CHAMFERB
40
0.0
9
$CHAMFERC
40
0.0
9
$CHAMFERD
40
0.0
9
$SKPOLY
70
0
9
$TDUSRTIMER
40
0.0000115741
9
$USRTIMER
70
1
9
$PLINEWID
40
0.0
9
$SPLFRAME
70
0
9
$SPLINETYPE
70
6
9
$SURFTAB1
70
6
9
$SURFTAB2
70
6
9
$SURFTYPE
70
6
9
$UCSBASE
2

9
$UCSNAME
2

9
$UCSORTHOREF
2

9
$UCSORTHOVIEW
70
0
9
$UCSORGTOP
10
0.0
20
0.0
30
0.0
9
$UCSORGBOTTOM
10
0.0
20
0.0
30
0.0
9
$UCSORGLEFT
10
0.0
20
0.0
30
0.0
9
$UCSORGRIGHT
10
0.0
20
0.0
30
0.0
9
$UCSORGFRONT
10
0.0
20
0.0
30
0.0
9
$UCSORGBACK
10
0.0
20
0.0
30
0.0
9
$PUCSBASE
2

9
$PUCSNAME
2

9
$PUCSORG
10
0.0
20
0.0
30
0.0
9
$PUCSXDIR
10
1.0
20
0.0
30
0.0
9
$PUCSYDIR
10
0.0
20
1.0
30
0.0
9
$PUCSORTHOREF
2

9
$PUCSORTHOVIEW
70
0
9
$PUCSORGTOP
10
0.0
20
0.0
30
0.0
9
$PUCSORGBOTTOM
10
0.0
20
0.0
30
0.0
9
$PUCSORGLEFT
10
0.0
20
0.0
30
0.0
9
$PUCSORGRIGHT
10
0.0
20
0.0
30
0.0
9
$PUCSORGFRONT
10
0.0
20
0.0
30
0.0
9
$PUCSORGBACK
10
0.0
20
0.0
30
0.0
9
$USERI1
70
0
9
$USERI2
70
0
9
$USERI3
70
0
9
$USERI4
70
0
9
$USERI5
70
0
9
$USERR1
40
0.0
9
$USERR2
40
0.0
9
$USERR3
40
0.0
9
$USERR4
40
0.0
9
$USERR5
40
0.0
9
$WORLDVIEW
70
1
9
$SHADEDGE
70
3
9
$SHADEDIF
70
70
9
$TILEMODE
70
1
9
$MAXACTVP
70
64
9
$PINSBASE
10
0.0
20
0.0
30
0.0
9
$PLIMCHECK
70
0
9
$PEXTMIN
10
0.0
20
0.0
30
0.0
9
$PEXTMAX
10
51.2426408285409
20
1082.48528165708
30
0.0
9
$PLIMMIN
10
0.0
20
0.0
9
$PLIMMAX
10
51.2426408285409
20
1082.48528165708
9
$UNITMODE
70
0
9
$VISRETAIN
70
1
9
$TREEDEPTH
70
3020
9
$PROXYGRAPHICS
70
1
9
$MEASUREMENT
70
1
9
$ENDCAPS
280
0
9
$JOINSTYLE
280
0
9
$HYPERLINKBASE
1

9
$STYLESHEET
1

9
$XEDIT
290
1
9
$CEPSNTYPE
380
0
9
$PSTYLEMODE
290
1
9
$FINGERPRINTGUID
2
{D43B8036-3617-B040-B9A0-DA0106FBC605}
9
$VERSIONGUID
2
{44A4DE64-71D4-7845-97EF-6CFE1574F185}
9
$PSVPSCALE
40
0.0
9
$OLESTARTUP
290
0
0
ENDSEC
0
SECTION
2
CLASSES
0
CLASS
1
RASTERVARIABLES
2
AcDbRasterVariables
3
ISM
90
0
280
0
281
0
0
ENDSEC
0
SECTION
2
TABLES
0
TABLE
2
APPID
5
9
330
0
100
AcDbSymbolTable
70
7
0
APPID
5
56
330
9
100
AcDbSymbolTableRecord
100
AcDbRegAppTableRecord
2
ACAD
70
0
0
APPID
5
5E
330
9
100
AcDbSymbolTableRecord
100
AcDbRegAppTableRecord
2
AcadAnnotative
70
0
0
APPID
5
166
330
9
100
AcDbSymbolTableRecord
100
AcDbRegAppTableRecord
2
ACAD_MLEADERVER
70
0
0
APPID
5
185
330
9
100
AcDbSymbolTableRecord
100
AcDbRegAppTableRecord
2
AcCmTransparency
70
0
0
APPID
5
186
330
9
100
AcDbSymbolTableRecord
100
AcDbRegAppTableRecord
2
AcAecLayerStandard
70
0
0
APPID
5
187
330
9
100
AcDbSymbolTableRecord
100
AcDbRegAppTableRecord
2
GradientColor1ACI
70
0
0
APPID
5
188
330
9
100
AcDbSymbolTableRecord
100
AcDbRegAppTableRecord
2
GradientColor2ACI
70
0
0
ENDTAB
0
TABLE
2
VPORT
5
8
330
0
100
AcDbSymbolTable
70
1
0
VPORT
5
177
330
8
100
AcDbSymbolTableRecord
100
AcDbViewportTableRecord
2
*Active
70
0
10
0.0
20
0.0
11
1.0
21
1.0
12
25.0000001000001
22
541.24264082854
13
0.0
23
0.0
14
0.5
24
0.5
15
10.0
25
10.0
16
0.0
26
0.0
36
1.0
17
0.0
27
0.0
37
0.0
40
1188.0
41
1.0
75
0
76
1
0
ENDTAB
0
TABLE
2
LTYPE
5
5
330
0
100
AcDbSymbolTable
70
48
0
LTYPE
5
5B
330
5
100
AcDbSymbolTableRecord
100
AcDbLinetypeTableRecord
2
ByBlock
70
0
3

72
65
73
0
40
0.0
0
LTYPE
5
5C
330
5
100
AcDbSymbolTableRecord
100
AcDbLinetypeTableRecord
2
ByLayer
70
0
3

72
65
73
0
40
0.0
0
LTYPE
5
5D
330
5
100
AcDbSymbolTableRecord
100
AcDbLinetypeTableRecord
2
Continuous
70
0
3
Solid line
72
65
73
0
40
0.0
0
LTYPE
5
78
330
5
100
AcDbSymbolTableRecord
100
AcDbLinetypeTableRecord
2
BORDER
70
0
3
Border __ __ . __ __ . __ __ . __ __ . __ __ .
72
65
73
6
40
1.75
49
0.5
74
0
49
-0.25
74
0
49
0.5
74
0
49
-0.25
74
0
49
0.0
74
0
49
-0.25
74
0
0
LTYPE
5
79
330
5
100
AcDbSymbolTableRecord
100
AcDbLinetypeTableRecord
2
BORDER2
70
0
3
Border (.5x) __.__.__.__.__.__.__.__.__.__.__.
72
65
73
6
40
0.875
49
0.25
74
0
49
-0.125
74
0
49
0.25
74
0
49
-0.125
74
0
49
0.0
74
0
49
-0.125
74
0
0
LTYPE
5
7A
330
5
100
AcDbSymbolTableRecord
100
AcDbLinetypeTableRecord
2
BORDERX2
70
0
3
Border (2x) ____  ____  .  ____  ____  .  ___
72
65
73
6
40
3.5
49
1.0
74
0
49
-0.5
74
0
49
1.0
74
0
49
-0.5
74
0
49
0.0
74
0
49
-0.5
74
0
0
LTYPE
5
7B
330
5
100
AcDbSymbolTableRecord
100
AcDbLinetypeTableRecord
2
CENTER
70
0
3
Center ____ _ ____ _ ____ _ ____ _ ____ _ ____
72
65
73
4
40
2.0
49
1.25
74
0
49
-0.25
74
0
49
0.25
74
0
49
-0.25
74
0
0
LTYPE
5
7C
330
5
100
AcDbSymbolTableRecord
100
AcDbLinetypeTableRecord
2
CENTER2
70
0
3
Center (.5x) ___ _ ___ _ ___ _ ___ _ ___ _ ___
72
65
73
4
40
1.125
49
0.75
74
0
49
-0.125
74
0
49
0.125
74
0
49
-0.125
74
0
0
LTYPE
5
7D
330
5
100
AcDbSymbolTableRecord
100
AcDbLinetypeTableRecord
2
CENTERX2
70
0
3
Center (2x) ________  __  ________  __  _____
72
65
73
4
40
4.0
49
2.5
74
0
49
-0.5
74
0
49
0.5
74
0
49
-0.5
74
0
0
LTYPE
5
7E
330
5
100
AcDbSymbolTableRecord
100
AcDbLinetypeTableRecord
2
DASHDOT
70
0
3
Dash dot __ . __ . __ . __ . __ . __ . __ . __
72
65
73
4
40
1.0
49
0.5
74
0
49
-0.25
74
0
49
0.0
74
0
49
-0.25
74
0
0
LTYPE
5
7F
330
5
100
AcDbSymbolTableRecord
100
AcDbLinetypeTableRecord
2
DASHDOT2
70
0
3
Dash dot (.5x) _._._._._._._._._._._._._._._.
72
65
73
4
40
0.5
49
0.25
74
0
49
-0.125
74
0
49
0.0
74
0
49
-0.125
74
0
0
LTYPE
5
80
330
5
100
AcDbSymbolTableRecord
100
AcDbLinetypeTableRecord
2
DASHDOTX2
70
0
3
Dash dot (2x) ____  .  ____  .  ____  .  ___
72
65
73
4
40
2.0
49
1.0
74
0
49
-0.5
74
0
49
0.0
74
0
49
-0.5
74
0
0
LTYPE
5
81
330
5
100
AcDbSymbolTableRecord
100
AcDbLinetypeTableRecord
2
DASHED
70
0
3
Dashed __ __ __ __ __ __ __ __ __ __ __ __ __ _
72
65
73
2
40
0.75
49
0.5
74
0
49
-0.25
74
0
0
LTYPE
5
82
330
5
100
AcDbSymbolTableRecord
100
AcDbLinetypeTableRecord
2
DASHED2
70
0
3
Dashed (.5x) _ _ _ _ _ _ _ _ _ _ _ _ _ _ _ _ _
72
65
73
2
40
0.375
49
0.25
74
0
49
-0.125
74
0
0
LTYPE
5
83
330
5
100
AcDbSymbolTableRecord
100
AcDbLinetypeTableRecord
2
DASHEDX2
70
0
3
Dashed (2x) ____  ____  ____  ____  ____  ___
72
65
73
2
40
1.5
49
1.0
74
0
49
-0.5
74
0
0
LTYPE
5
84
330
5
100
AcDbSymbolTableRecord
100
AcDbLinetypeTableRecord
2
DIVIDE
70
0
3
Divide ____ . . ____ . . ____ . . ____ . . ____
72
65
73
6
40
1.25
49
0.5
74
0
49
-0.25
74
0
49
0.0
74
0
49
-0.25
74
0
49
0.0
74
0
49
-0.25
74
0
0
LTYPE
5
85
330
5
100
AcDbSymbolTableRecord
100
AcDbLinetypeTableRecord
2
DIVIDE2
70
0
3
Divide (.5x) __..__..__..__..__..__..__..__.._
72
65
73
6
40
0.625
49
0.25
74
0
49
-0.125
74
0
49
0.0
74
0
49
-0.125
74
0
49
0.0
74
0
49
-0.125
74
0
0
LTYPE
5
86
330
5
100
AcDbSymbolTableRecord
100
AcDbLinetypeTableRecord
2
DIVIDEX2
70
0
3
Divide (2x) ________  .  .  ________  .  .  _
72
65
73
6
40
2.5
49
1.0
74
0
49
-0.5
74
0
49
0.0
74
0
49
-0.5
74
0
49
0.0
74
0
49
-0.5
74
0
0
LTYPE
5
87
330
5
100
AcDbSymbolTableRecord
100
AcDbLinetypeTableRecord
2
DOT
70
0
3
Dot . . . . . . . . . . . . . . . . . . . . . .
72
65
73
2
40
0.25
49
0.0
74
0
49
-0.25
74
0
0
LTYPE
5
88
330
5
100
AcDbSymbolTableRecord
100
AcDbLinetypeTableRecord
2
DOT2
70
0
3
Dot (.5x) .....................................
72
65
73
2
40
0.125
49
0.0
74
0
49
-0.125
74
0
0
LTYPE
5
89
330
5
100
AcDbSymbolTableRecord
100
AcDbLinetypeTableRecord
2
DOTX2
70
0
3
Dot (2x) .  .  .  .  .  .  .  .  .  .  .  .  . 
72
65
73
2
40
0.5
49
0.0
74
0
49
-0.5
74
0
0
LTYPE
5
8A
330
5
100
AcDbSymbolTableRecord
100
AcDbLinetypeTableRecord
2
HIDDEN
70
0
3
Hidden __ __ __ __ __ __ __ __ __ __ __ __ __ _
72
65
73
2
40
0.375
49
0.25
74
0
49
-0.125
74
0
0
LTYPE
5
8B
330
5
100
AcDbSymbolTableRecord
100
AcDbLinetypeTableRecord
2
HIDDEN2
70
0
3
Hidden (.5x) _ _ _ _ _ _ _ _ _ _ _ _ _ _ _ _ _
72
65
73
2
40
0.1875
49
0.125
74
0
49
-0.0625
74
0
0
LTYPE
5
8C
330
5
100
AcDbSymbolTableRecord
100
AcDbLinetypeTableRecord
2
HIDDENX2
70
0
3
Hidden (2x) ____ ____ ____ ____ ____ ____ ____
72
65
73
2
40
0.75
49
0.5
74
0
49
-0.25
74
0
0
LTYPE
5
8D
330
5
100
AcDbSymbolTableRecord
100
AcDbLinetypeTableRecord
2
PHANTOM
70
0
3
Phantom ______  __  __  ______  __  __  ______
72
65
73
6
40
2.5
49
1.25
74
0
49
-0.25
74
0
49
0.25
74
0
49
-0.25
74
0
49
0.25
74
0
49
-0.25
74
0
0
LTYPE
5
8E
330
5
100
AcDbSymbolTableRecord
100
AcDbLinetypeTableRecord
2
PHANTOM2
70
0
3
Phantom (.5x) ___ _ _ ___ _ _ ___ _ _ ___ _ _
72
65
73
6
40
1.25
49
0.625
74
0
49
-0.125
74
0
49
0.125
74
0
49
-0.125
74
0
49
0.125
74
0
49
-0.125
74
0
0
LTYPE
5
8F
330
5
100
AcDbSymbolTableRecord
100
AcDbLinetypeTableRecord
2
PHANTOMX2
70
0
3
Phantom (2x) ____________    ____    ____   _
72
65
73
6
40
5.0
49
2.5
74
0
49
-0.5
74
0
49
0.5
74
0
49
-0.5
74
0
49
0.5
74
0
49
-0.5
74
0
0
LTYPE
5
90
330
5
100
AcDbSymbolTableRecord
100
AcDbLinetypeTableRecord
2
ACAD_ISO02W100
70
0
3
ISO dash __ __ __ __ __ __ __ __ __ __ __ __ __
72
65
73
2
40
15.0
49
12.0
74
0
49
-3.0
74
0
0
LTYPE
5
91
330
5
100
AcDbSymbolTableRecord
100
AcDbLinetypeTableRecord
2
ACAD_ISO03W100
70
0
3
ISO dash space __    __    __    __    __    __
72
65
73
2
40
30.0
49
12.0
74
0
49
-18.0
74
0
0
LTYPE
5
92
330
5
100
AcDbSymbolTableRecord
100
AcDbLinetypeTableRecord
2
ACAD_ISO04W100
70
0
3
ISO long-dash dot ____ . ____ . ____ . ____ . _
72
65
73
4
40
30.0
49
24.0
74
0
49
-3.0
74
0
49
0.0
74
0
49
-3.0
74
0
0
LTYPE
5
93
330
5
100
AcDbSymbolTableRecord
100
AcDbLinetypeTableRecord
2
ACAD_ISO05W100
70
0
3
ISO long-dash double-dot ____ .. ____ .. ____ .
72
65
73
6
40
33.0
49
24.0
74
0
49
-3.0
74
0
49
0.0
74
0
49
-3.0
74
0
49
0.0
74
0
49
-3.0
74
0
0
LTYPE
5
94
330
5
100
AcDbSymbolTableRecord
100
AcDbLinetypeTableRecord
2
ACAD_ISO06W100
70
0
3
ISO long-dash triple-dot ____ ... ____ ... ____
72
65
73
8
40
36.0
49
24.0
74
0
49
-3.0
74
0
49
0.0
74
0
49
-3.0
74
0
49
0.0
74
0
49
-3.0
74
0
49
0.0
74
0
49
-3.0
74
0
0
LTYPE
5
95
330
5
100
AcDbSymbolTableRecord
100
AcDbLinetypeTableRecord
2
ACAD_ISO07W100
70
0
3
ISO dot . . . . . . . . . . . . . . . . . . . .
72
65
73
2
40
3.0
49
0.0
74
0
49
-3.0
74
0
0
LTYPE
5
96
330
5
100
AcDbSymbolTableRecord
100
AcDbLinetypeTableRecord
2
ACAD_ISO08W100
70
0
3
ISO long-dash short-dash ____ __ ____ __ ____ _
72
65
73
4
40
36.0
49
24.0
74
0
49
-3.0
74
0
49
6.0
74
0
49
-3.0
74
0
0
LTYPE
5
97
330
5
100
AcDbSymbolTableRecord
100
AcDbLinetypeTableRecord
2
ACAD_ISO09W100
70
0
3
ISO long-dash double-short-dash ____ __ __ ____
72
65
73
6
40
45.0
49
24.0
74
0
49
-3.0
74
0
49
6.0
74
0
49
-3.0
74
0
49
6.0
74
0
49
-3.0
74
0
0
LTYPE
5
98
330
5
100
AcDbSymbolTableRecord
100
AcDbLinetypeTableRecord
2
ACAD_ISO10W100
70
0
3
ISO dash dot __ . __ . __ . __ . __ . __ . __ .
72
65
73
4
40
18.0
49
12.0
74
0
49
-3.0
74
0
49
0.0
74
0
49
-3.0
74
0
0
LTYPE
5
99
330
5
100
AcDbSymbolTableRecord
100
AcDbLinetypeTableRecord
2
ACAD_ISO11W100
70
0
3
ISO double-dash dot __ __ . __ __ . __ __ . __ 
72
65
73
6
40
33.0
49
12.0
74
0
49
-3.0
74
0
49
12.0
74
0
49
-3.0
74
0
49
0.0
74
0
49
-3.0
74
0
0
LTYPE
5
9A
330
5
100
AcDbSymbolTableRecord
100
AcDbLinetypeTableRecord
2
ACAD_ISO12W100
70
0
3
ISO dash double-dot __ . . __ . . __ . . __ . .
72
65
73
6
40
21.0
49
12.0
74
0
49
-3.0
74
0
49
0.0
74
0
49
-3.0
74
0
49
0.0
74
0
49
-3.0
74
0
0
LTYPE
5
9B
330
5
100
AcDbSymbolTableRecord
100
AcDbLinetypeTableRecord
2
ACAD_ISO13W100
70
0
3
ISO double-dash double-dot __ __ . . __ __ . . 
72
65
73
8
40
36.0
49
12.0
74
0
49
-3.0
74
0
49
12.0
74
0
49
-3.0
74
0
49
0.0
74
0
49
-3.0
74
0
49
0.0
74
0
49
-3.0
74
0
0
LTYPE
5
9C
330
5
100
AcDbSymbolTableRecord
100
AcDbLinetypeTableRecord
2
ACAD_ISO14W100
70
0
3
ISO dash triple-dot __ . . . __ . . . __ . . . 
72
65
73
8
40
24.0
49
12.0
74
0
49
-3.0
74
0
49
0.0
74
0
49
-3.0
74
0
49
0.0
74
0
49
-3.0
74
0
49
0.0
74
0
49
-3.0
74
0
0
LTYPE
5
9D
330
5
100
AcDbSymbolTableRecord
100
AcDbLinetypeTableRecord
2
ACAD_ISO15W100
70
0
3
ISO double-dash triple-dot __ __ . . . __ __ . 
72
65
73
10
40
39.0
49
12.0
74
0
49
-3.0
74
0
49
12.0
74
0
49
-3.0
74
0
49
0.0
74
0
49
-3.0
74
0
49
0.0
74
0
49
-3.0
74
0
49
0.0
74
0
49
-3.0
74
0
0
LTYPE
5
A0
330
5
100
AcDbSymbolTableRecord
100
AcDbLinetypeTableRecord
2
FENCELINE1
70
0
3
Fenceline circle ----0-----0----0-----0----0---
72
65
73
3
40
1.35
49
0.25
74
0
49
-0.1
74
0
49
1.0
74
0
0
LTYPE
5
A1
330
5
100
AcDbSymbolTableRecord
100
AcDbLinetypeTableRecord
2
FENCELINE2
70
0
3
Fenceline square ----[]-----[]----[]-----[]----
72
65
73
3
40
1.35
49
0.25
74
0
49
-0.1
74
0
49
1.0
74
0
0
LTYPE
5
A2
330
5
100
AcDbSymbolTableRecord
100
AcDbLinetypeTableRecord
2
TRACKS
70
0
3
Tracks -|-|-|-|-|-|-|-|-|-|-|-|-|-|-|-|-|-|-|-|
72
65
73
1
40
0.15
49
0.15
74
0
0
LTYPE
5
A3
330
5
100
AcDbSymbolTableRecord
100
AcDbLinetypeTableRecord
2
BATTING
70
0
3
Batting SSSSSSSSSSSSSSSSSSSSSSSSSSSSSSSSSSSSSSS
72
65
73
2
40
0.1001
49
0.0001
74
0
49
-0.1
74
0
0
LTYPE
5
A4
330
5
100
AcDbSymbolTableRecord
100
AcDbLinetypeTableRecord
2
HOT_WATER_SUPPLY
70
0
3
Hot water supply ---- HW ---- HW ---- HW ----
72
65
73
3
40
0.9
49
0.5
74
0
49
-0.2
74
2
75
0
340
55
46
0.1
50
0.0
44
-0.1
45
-0.05
9
HW
49
-0.2
74
0
0
LTYPE
5
A5
330
5
100
AcDbSymbolTableRecord
100
AcDbLinetypeTableRecord
2
GAS_LINE
70
0
3
Gas line ----GAS----GAS----GAS----GAS----GAS---
72
65
73
3
40
0.95
49
0.5
74
0
49
-0.2
74
2
75
0
340
55
46
0.1
50
0.0
44
-0.1
45
-0.05
9
GAS
49
-0.25
74
0
0
LTYPE
5
A6
330
5
100
AcDbSymbolTableRecord
100
AcDbLinetypeTableRecord
2
ZIGZAG
70
0
3
Zig zag /\/\/\/\/\/\/\/\/\/\/\/\/\/\/\/\/\/\/\/
72
65
73
2
40
0.2001
49
0.0001
74
0
49
-0.2
74
0
0
ENDTAB
0
TABLE
2
LAYER
5
2
102
{ACAD_XDICTIONARY
360
178
102
}
330
0
100
AcDbSymbolTable
70
6
0
LAYER
5
54
330
2
100
AcDbSymbolTableRecord
100
AcDbLayerTableRecord
2
0
70
0
62
7
6
Continuous
290
1
370
-3
390
0
0
LAYER
5
A7
330
2
100
AcDbSymbolTableRecord
100
AcDbLayerTableRecord
2
IV_MARK_SURFACE_BACK
70
0
62
91
6
Continuous
290
1
370
25
390
0
0
LAYER
5
A8
330
2
100
AcDbSymbolTableRecord
100
AcDbLayerTableRecord
2
IV_OUTER_PROFILE
70
0
62
7
6
Continuous
290
1
370
5
390
0
0
LAYER
5
182
330
2
100
AcDbSymbolTableRecord
100
AcDbLayerTableRecord
2
AutoDXF_BendInfo
70
0
62
-3
6
Continuous
290
1
370
-3
390
0
0
LAYER
5
183
330
2
100
AcDbSymbolTableRecord
100
AcDbLayerTableRecord
2
IV_BEND
70
0
62
250
6
Continuous
290
1
370
50
390
0
0
LAYER
5
184
330
2
100
AcDbSymbolTableRecord
100
AcDbLayerTableRecord
2
IV_BEND_DOWN
70
0
62
250
6
Continuous
290
1
370
50
390
0
0
ENDTAB
0
TABLE
2
STYLE
5
3
330
0
100
AcDbSymbolTable
70
2
0
STYLE
5
55
330
3
100
AcDbSymbolTableRecord
100
AcDbTextStyleTableRecord
2
Standard
3
txt.SHX
70
0
71
0
40
0.0
41
1.0
42
0.0
50
0.0
0
STYLE
5
5A
330
3
100
AcDbSymbolTableRecord
100
AcDbTextStyleTableRecord
2
Annotative
3
txt.SHX
70
0
71
0
40
0.0
41
1.0
42
0.0
50
0.0
1001
AcadAnnotative
1000
AnnotativeData
1002
{
1070
1
1070
1
1002
}
0
STYLE
5
9F
330
179
100
AcDbSymbolTableRecord
100
AcDbTextStyleTableRecord
2

3
ltypeshp.shx
70
1
40
0.0
41
1.0
42
0.0
50
0.0
0
ENDTAB
0
TABLE
2
DIMSTYLE
5
A
330
0
100
AcDbSymbolTable
70
2
100
AcDbDimStyleTable
0
DIMSTYLE
105
58
330
A
100
AcDbSymbolTableRecord
100
AcDbDimStyleTableRecord
2
Standard
3

4

40
1.0
41
0.18
42
0.0625
43
0.38
44
0.18
45
0.0
46
0.0
47
0.0
48
0.0
49
1.0
70
0
71
0
72
0
73
0
74
0
75
0
76
0
77
0
78
0
79
3
140
0.18
141
0.09
143
25.4
144
1.0
146
1.0
147
0.09
148
0.0
170
0
171
2
172
0
174
0
175
0
176
0
177
0
178
0
179
0
271
4
272
4
273
2
274
2
275
0
276
0
277
2
278
46
279
0
280
0
281
0
282
0
283
1
284
0
285
0
286
0
289
3
290
0
294
0
340
55
173
0
345
5B
346
5B
347
5B
371
-2
372
-2
0
DIMSTYLE
105
59
330
A
100
AcDbSymbolTableRecord
100
AcDbDimStyleTableRecord
2
Annotative
3

4

40
1.0
41
0.18
42
0.0625
43
0.38
44
0.18
45
0.0
46
0.0
47
0.0
48
0.0
49
1.0
70
0
71
0
72
0
73
0
74
0
75
0
76
0
77
0
78
0
79
3
140
0.18
141
0.09
143
25.4
144
1.0
146
1.0
147
0.09
148
0.0
170
0
171
2
172
0
174
0
175
0
176
0
177
0
178
0
179
0
271
4
272
4
273
2
274
2
275
0
276
0
277
2
278
46
279
0
280
0
281
0
282
0
283
1
284
0
285
0
286
0
289
3
290
0
294
0
340
55
173
0
345
5B
346
5B
347
5B
371
-2
372
-2
1001
AcadAnnotative
1000
AnnotativeData
1002
{
1070
1
1070
1
1002
}
0
ENDTAB
0
TABLE
2
VIEW
5
6
330
0
100
AcDbSymbolTable
70
0
0
ENDTAB
0
TABLE
2
UCS
5
7
330
0
100
AcDbSymbolTable
70
0
0
ENDTAB
0
TABLE
2
BLOCK_RECORD
5
1
330
0
100
AcDbSymbolTable
70
3
0
BLOCK_RECORD
5
70
330
1
100
AcDbSymbolTableRecord
100
AcDbBlockTableRecord
2
*Model_Space
340
73
0
BLOCK_RECORD
5
6C
330
1
100
AcDbSymbolTableRecord
100
AcDbBlockTableRecord
2
*Paper_Space
340
6F
0
BLOCK_RECORD
5
74
330
1
100
AcDbSymbolTableRecord
100
AcDbBlockTableRecord
2
*Paper_Space0
340
77
0
ENDTAB
0
ENDSEC
0
SECTION
2
BLOCKS
0
BLOCK
5
71
330
70
100
AcDbEntity
67
0
8
0
100
AcDbBlockBegin
2
*Model_Space
70
0
10
0.0
20
0.0
30
0.0
3
*Model_Space
4

0
ENDBLK
5
72
330
70
100
AcDbEntity
8
0
100
AcDbBlockEnd
0
BLOCK
5
6D
330
6C
100
AcDbEntity
67
1
8
0
100
AcDbBlockBegin
2
*Paper_Space
70
0
10
0.0
20
0.0
30
0.0
3
*Paper_Space
4

0
ENDBLK
5
6E
330
6C
100
AcDbEntity
8
0
100
AcDbBlockEnd
0
BLOCK
5
75
330
74
100
AcDbEntity
67
1
8
0
100
AcDbBlockBegin
2
*Paper_Space0
70
0
10
0.0
20
0.0
30
0.0
3
*Paper_Space0
4

0
VIEWPORT
5
180
330
74
100
AcDbEntity
67
1
8
0
62
256
6
ByLayer
370
-1
48
1.0
60
0
100
AcDbViewport
10
0.0
20
0.0
30
0.0
40
297.0
41
210.0
68
1
69
1
12
50.0
22
100.0
13
0.0
23
0.0
14
10.0
24
10.0
15
10.0
25
10.0
16
0.0
26
0.0
36
1.0
17
0.0
27
0.0
37
0.0
42
50.0
43
0.0
44
0.0
45
250.0
50
0.0
51
0.0
72
1000
90
819232
110
0.0
120
0.0
130
0.0
111
1.0
121
0.0
131
0.0
112
0.0
122
1.0
132
0.0
0
ENDBLK
5
76
330
74
100
AcDbEntity
8
0
100
AcDbBlockEnd
0
ENDSEC
0
SECTION
2
ENTITIES
0
VIEWPORT
5
17F
330
6C
100
AcDbEntity
67
1
8
0
62
256
6
ByLayer
370
-1
48
1.0
60
0
100
AcDbViewport
10
0.0
20
0.0
30
0.0
40
297.0
41
210.0
68
1
69
1
12
50.0
22
100.0
13
0.0
23
0.0
14
10.0
24
10.0
15
10.0
25
10.0
16
0.0
26
0.0
36
1.0
17
0.0
27
0.0
37
0.0
42
50.0
43
0.0
44
0.0
45
250.0
50
0.0
51
0.0
72
1000
90
819232
110
0.0
120
0.0
130
0.0
111
1.0
121
0.0
131
0.0
112
0.0
122
1.0
132
0.0
0
LINE
5
A9
330
70
100
AcDbEntity
67
0
8
IV_MARK_SURFACE_BACK
62
256
6
ByLayer
370
-1
48
1.0
60
0
100
AcDbLine
10
45.9523617639875
20
921.852033508272
30
0.0
11
45.952361763988
21
923.207589095617
31
0.0
39
0.0
210
0.0
220
0.0
230
1.0
0
ARC
5
AB
330
70
100
AcDbEntity
67
0
8
IV_MARK_SURFACE_BACK
62
256
6
ByLayer
370
-1
48
1.0
60
0
100
AcDbCircle
39
0.0
10
44.5968061766433
20
923.207589095618
30
0.0
40
1.3555555873447
210
0.0
220
0.0
230
1.0
100
AcDbArc
50
359.999999999988
51
90.0
0
LINE
5
AC
330
70
100
AcDbEntity
67
0
8
IV_MARK_SURFACE_BACK
62
256
6
ByLayer
370
-1
48
1.0
60
0
100
AcDbLine
10
44.5968061766438
20
924.563144682962
30
0.0
11
41.2079172082821
21
924.563144682964
31
0.0
39
0.0
210
0.0
220
0.0
230
1.0
0
ARC
5
AD
330
70
100
AcDbEntity
67
0
8
IV_MARK_SURFACE_BACK
62
256
6
ByLayer
370
-1
48
1.0
60
0
100
AcDbCircle
39
0.0
10
41.2079172082816
20
923.207589095619
30
0.0
40
1.3555555873447
210
0.0
220
0.0
230
1.0
100
AcDbArc
50
90.0
51
179.999999999976
0
LINE
5
AE
330
70
100
AcDbEntity
67
0
8
IV_MARK_SURFACE_BACK
62
256
6
ByLayer
370
-1
48
1.0
60
0
100
AcDbLine
10
39.8523616209369
20
923.20758909562
30
0.0
11
39.8523616209363
21
921.852033508275
31
0.0
39
0.0
210
0.0
220
0.0
230
1.0
0
ARC
5
AF
330
70
100
AcDbEntity
67
0
8
IV_MARK_SURFACE_BACK
62
256
6
ByLayer
370
-1
48
1.0
60
0
100
AcDbCircle
39
0.0
10
44.2579172798115
20
934.390922691211
30
0.0
40
1.69444448418087
210
0.0
220
0.0
230
1.0
100
AcDbArc
50
179.999999999981
51
359.999999999976
0
LINE
5
B0
330
70
100
AcDbEntity
67
0
8
IV_MARK_SURFACE_BACK
62
256
6
ByLayer
370
-1
48
1.0
60
0
100
AcDbLine
10
45.9523617639924
20
934.390922691211
30
0.0
11
45.9523617639931
21
936.085367175392
31
0.0
39
0.0
210
0.0
220
0.0
230
1.0
0
LINE
5
B1
330
70
100
AcDbEntity
67
0
8
IV_MARK_SURFACE_BACK
62
256
6
ByLayer
370
-1
48
1.0
60
0
100
AcDbLine
10
45.9523617639931
20
936.085367175392
30
0.0
11
42.5634727956313
21
936.085367175393
31
0.0
39
0.0
210
0.0
220
0.0
230
1.0
0
LINE
5
B2
330
70
100
AcDbEntity
67
0
8
IV_MARK_SURFACE_BACK
62
256
6
ByLayer
370
-1
48
1.0
60
0
100
AcDbLine
10
42.5634727956313
20
936.085367175393
30
0.0
11
39.8523616209419
21
936.085367175394
31
0.0
39
0.0
210
0.0
220
0.0
230
1.0
0
LINE
5
B3
330
70
100
AcDbEntity
67
0
8
IV_MARK_SURFACE_BACK
62
256
6
ByLayer
370
-1
48
1.0
60
0
100
AcDbLine
10
39.8523616209419
20
936.085367175394
30
0.0
11
39.8523616209413
21
934.390922691213
31
0.0
39
0.0
210
0.0
220
0.0
230
1.0
0
ARC
5
B4
330
70
100
AcDbEntity
67
0
8
IV_MARK_SURFACE_BACK
62
256
6
ByLayer
370
-1
48
1.0
60
0
100
AcDbCircle
39
0.0
10
41.2079172082859
20
934.390922691213
30
0.0
40
1.3555555873447
210
0.0
220
0.0
230
1.0
100
AcDbArc
50
179.999999999976
51
359.999999999976
0
LINE
5
B5
330
70
100
AcDbEntity
67
0
8
IV_MARK_SURFACE_BACK
62
256
6
ByLayer
370
-1
48
1.0
60
0
100
AcDbLine
10
27.8235095655232
20
845.602031720141
30
0.0
11
27.8235095655243
21
848.313142894831
31
0.0
39
0.0
210
0.0
220
0.0
230
1.0
0
LINE
5
B6
330
70
100
AcDbEntity
67
0
8
IV_MARK_SURFACE_BACK
62
256
6
ByLayer
370
-1
48
1.0
60
0
100
AcDbLine
10
27.8235095655243
20
848.313142894831
30
0.0
11
24.4346205971626
21
848.313142894832
31
0.0
39
0.0
210
0.0
220
0.0
230
1.0
0
LINE
5
B7
330
70
100
AcDbEntity
67
0
8
IV_MARK_SURFACE_BACK
62
256
6
ByLayer
370
-1
48
1.0
60
0
100
AcDbLine
10
24.4346205971626
20
848.313142894832
30
0.0
11
21.7235094224732
21
848.313142894833
31
0.0
39
0.0
210
0.0
220
0.0
230
1.0
0
LINE
5
B8
330
70
100
AcDbEntity
67
0
8
IV_MARK_SURFACE_BACK
62
256
6
ByLayer
370
-1
48
1.0
60
0
100
AcDbLine
10
21.7235094224732
20
848.313142894833
30
0.0
11
21.7235094224721
21
845.602031720144
31
0.0
39
0.0
210
0.0
220
0.0
230
1.0
0
LINE
5
B9
330
70
100
AcDbEntity
67
0
8
IV_MARK_SURFACE_BACK
62
256
6
ByLayer
370
-1
48
1.0
60
0
100
AcDbLine
10
24.4346205971626
20
848.313142894832
30
0.0
11
24.4346205971618
21
846.279809513815
31
0.0
39
0.0
210
0.0
220
0.0
230
1.0
0
LINE
5
BA
330
70
100
AcDbEntity
67
0
8
IV_MARK_SURFACE_BACK
62
256
6
ByLayer
370
-1
48
1.0
60
0
100
AcDbLine
10
27.8235095655307
20
864.579809942967
30
0.0
11
21.7235094224796
21
864.57980994297
31
0.0
39
0.0
210
0.0
220
0.0
230
1.0
0
LINE
5
BB
330
70
100
AcDbEntity
67
0
8
IV_MARK_SURFACE_BACK
62
256
6
ByLayer
370
-1
48
1.0
60
0
100
AcDbLine
10
21.7235094224796
20
864.57980994297
30
0.0
11
27.8235095655294
21
861.190920974606
31
0.0
39
0.0
210
0.0
220
0.0
230
1.0
0
LINE
5
BC
330
70
100
AcDbEntity
67
0
8
IV_MARK_SURFACE_BACK
62
256
6
ByLayer
370
-1
48
1.0
60
0
100
AcDbLine
10
27.8235095655294
20
861.190920974606
30
0.0
11
21.7235094224782
21
861.190920974608
31
0.0
39
0.0
210
0.0
220
0.0
230
1.0
0
ARC
5
BD
330
70
100
AcDbEntity
67
0
8
IV_MARK_SURFACE_BACK
62
256
6
ByLayer
370
-1
48
1.0
60
0
100
AcDbCircle
39
0.0
10
23.4179539066619
20
868.307587808167
30
0.0
40
1.69444448418087
210
0.0
220
0.0
230
1.0
100
AcDbArc
50
90.0
51
270.0
0
LINE
5
BE
330
70
100
AcDbEntity
67
0
8
IV_MARK_SURFACE_BACK
62
256
6
ByLayer
370
-1
48
1.0
60
0
100
AcDbLine
10
26.1290650813506
20
866.613143323985
30
0.0
11
23.4179539066612
21
866.613143323986
31
0.0
39
0.0
210
0.0
220
0.0
230
1.0
0
ARC
5
BF
330
70
100
AcDbEntity
67
0
8
IV_MARK_SURFACE_BACK
62
256
6
ByLayer
370
-1
48
1.0
60
0
100
AcDbCircle
39
0.0
10
26.1290650813513
20
868.307587808166
30
0.0
40
1.69444448418087
210
0.0
220
0.0
230
1.0
100
AcDbArc
50
270.0
51
90.0
0
LINE
5
C0
330
70
100
AcDbEntity
67
0
8
IV_MARK_SURFACE_BACK
62
256
6
ByLayer
370
-1
48
1.0
60
0
100
AcDbLine
10
23.4179539066626
20
870.002032292348
30
0.0
11
26.129065081352
21
870.002032292347
31
0.0
39
0.0
210
0.0
220
0.0
230
1.0
0
ARC
5
C1
330
70
100
AcDbEntity
67
0
8
IV_MARK_SURFACE_BACK
62
256
6
ByLayer
370
-1
48
1.0
60
0
100
AcDbCircle
39
0.0
10
26.1290650813577
20
884.574254856302
30
0.0
40
1.69444448418087
210
0.0
220
0.0
230
1.0
100
AcDbArc
50
179.999999999986
51
359.999999999976
0
LINE
5
C2
330
70
100
AcDbEntity
67
0
8
IV_MARK_SURFACE_BACK
62
256
6
ByLayer
370
-1
48
1.0
60
0
100
AcDbLine
10
27.8235095655386
20
884.574254856301
30
0.0
11
27.8235095655393
21
886.268699340482
31
0.0
39
0.0
210
0.0
220
0.0
230
1.0
0
LINE
5
C3
330
70
100
AcDbEntity
67
0
8
IV_MARK_SURFACE_BACK
62
256
6
ByLayer
370
-1
48
1.0
60
0
100
AcDbLine
10
27.8235095655393
20
886.268699340482
30
0.0
11
24.4346205971775
21
886.268699340483
31
0.0
39
0.0
210
0.0
220
0.0
230
1.0
0
LINE
5
C4
330
70
100
AcDbEntity
67
0
8
IV_MARK_SURFACE_BACK
62
256
6
ByLayer
370
-1
48
1.0
60
0
100
AcDbLine
10
24.4346205971775
20
886.268699340483
30
0.0
11
21.7235094224881
21
886.268699340484
31
0.0
39
0.0
210
0.0
220
0.0
230
1.0
0
LINE
5
C5
330
70
100
AcDbEntity
67
0
8
IV_MARK_SURFACE_BACK
62
256
6
ByLayer
370
-1
48
1.0
60
0
100
AcDbLine
10
21.7235094224881
20
886.268699340484
30
0.0
11
21.7235094224874
21
884.574254856303
31
0.0
39
0.0
210
0.0
220
0.0
230
1.0
0
ARC
5
C6
330
70
100
AcDbEntity
67
0
8
IV_MARK_SURFACE_BACK
62
256
6
ByLayer
370
-1
48
1.0
60
0
100
AcDbCircle
39
0.0
10
23.0790650098321
20
884.574254856303
30
0.0
40
1.3555555873447
210
0.0
220
0.0
230
1.0
100
AcDbArc
50
179.999999999976
51
359.999999999976
0
LINE
5
C7
330
70
100
AcDbEntity
67
0
8
IV_MARK_SURFACE_BACK
62
256
6
ByLayer
370
-1
48
1.0
60
0
100
AcDbLine
10
27.8235095655401
20
888.302032721499
30
0.0
11
21.7235094224889
21
888.302032721501
31
0.0
39
0.0
210
0.0
220
0.0
230
1.0
0
LINE
5
C8
330
70
100
AcDbEntity
67
0
8
IV_MARK_SURFACE_BACK
62
256
6
ByLayer
370
-1
48
1.0
60
0
100
AcDbLine
10
25.1123983908528
20
893.724255070879
30
0.0
11
21.7235094224911
21
893.72425507088
31
0.0
39
0.0
210
0.0
220
0.0
230
1.0
0
LINE
5
C9
330
70
100
AcDbEntity
67
0
8
IV_MARK_SURFACE_BACK
62
256
6
ByLayer
370
-1
48
1.0
60
0
100
AcDbLine
10
21.7235094224911
20
893.72425507088
30
0.0
11
21.7235094224904
21
892.029810586699
31
0.0
39
0.0
210
0.0
220
0.0
230
1.0
0
ARC
5
CA
330
70
100
AcDbEntity
67
0
8
IV_MARK_SURFACE_BACK
62
256
6
ByLayer
370
-1
48
1.0
60
0
100
AcDbCircle
39
0.0
10
23.4179539066713
20
892.029810586699
30
0.0
40
1.69444448418087
210
0.0
220
0.0
230
1.0
100
AcDbArc
50
179.999999999981
51
359.999999999976
0
LINE
5
CB
330
70
100
AcDbEntity
67
0
8
IV_MARK_SURFACE_BACK
62
256
6
ByLayer
370
-1
48
1.0
60
0
100
AcDbLine
10
25.1123983908521
20
892.029810586698
30
0.0
11
25.1123983908528
21
893.724255070879
31
0.0
39
0.0
210
0.0
220
0.0
230
1.0
0
LINE
5
CC
330
70
100
AcDbEntity
67
0
8
IV_MARK_SURFACE_BACK
62
256
6
ByLayer
370
-1
48
1.0
60
0
100
AcDbLine
10
27.8235095655422
20
893.724255070877
30
0.0
11
25.1123983908528
21
893.724255070879
31
0.0
39
0.0
210
0.0
220
0.0
230
1.0
0
LINE
5
CD
330
70
100
AcDbEntity
67
0
8
IV_MARK_SURFACE_BACK
62
256
6
ByLayer
370
-1
48
1.0
60
0
100
AcDbLine
10
27.8235095655534
20
922.190922405115
30
0.0
11
27.823509565554
21
923.54647799246
31
0.0
39
0.0
210
0.0
220
0.0
230
1.0
0
ARC
5
CE
330
70
100
AcDbEntity
67
0
8
IV_MARK_SURFACE_BACK
62
256
6
ByLayer
370
-1
48
1.0
60
0
100
AcDbCircle
39
0.0
10
26.4679539782092
20
923.546477992461
30
0.0
40
1.3555555873447
210
0.0
220
0.0
230
1.0
100
AcDbArc
50
359.999999999976
51
90.0
0
LINE
5
CF
330
70
100
AcDbEntity
67
0
8
IV_MARK_SURFACE_BACK
62
256
6
ByLayer
370
-1
48
1.0
60
0
100
AcDbLine
10
26.4679539782098
20
924.902033579805
30
0.0
11
23.079065009848
21
924.902033579807
31
0.0
39
0.0
210
0.0
220
0.0
230
1.0
0
ARC
5
D0
330
70
100
AcDbEntity
67
0
8
IV_MARK_SURFACE_BACK
62
256
6
ByLayer
370
-1
48
1.0
60
0
100
AcDbCircle
39
0.0
10
23.0790650098475
20
923.546477992462
30
0.0
40
1.3555555873447
210
0.0
220
0.0
230
1.0
100
AcDbArc
50
90.0
51
179.999999999976
0
LINE
5
D1
330
70
100
AcDbEntity
67
0
8
IV_MARK_SURFACE_BACK
62
256
6
ByLayer
370
-1
48
1.0
60
0
100
AcDbLine
10
21.7235094225028
20
923.546477992463
30
0.0
11
21.7235094225023
21
922.190922405118
31
0.0
39
0.0
210
0.0
220
0.0
230
1.0
0
LINE
5
D2
330
70
100
AcDbEntity
67
0
8
IV_MARK_SURFACE_BACK
62
256
6
ByLayer
370
-1
48
1.0
60
0
100
AcDbLine
10
27.8235095655589
20
936.085367175399
30
0.0
11
21.7235094225077
21
936.085367175401
31
0.0
39
0.0
210
0.0
220
0.0
230
1.0
0
LINE
5
D3
330
70
100
AcDbEntity
67
0
8
IV_MARK_SURFACE_BACK
62
256
6
ByLayer
370
-1
48
1.0
60
0
100
AcDbLine
10
21.7235094225077
20
936.085367175401
30
0.0
11
25.1123983908687
21
934.052033794383
31
0.0
39
0.0
210
0.0
220
0.0
230
1.0
0
LINE
5
D4
330
70
100
AcDbEntity
67
0
8
IV_MARK_SURFACE_BACK
62
256
6
ByLayer
370
-1
48
1.0
60
0
100
AcDbLine
10
25.1123983908687
20
934.052033794383
30
0.0
11
21.7235094225062
21
932.018700413367
31
0.0
39
0.0
210
0.0
220
0.0
230
1.0
0
LINE
5
D5
330
70
100
AcDbEntity
67
0
8
IV_MARK_SURFACE_BACK
62
256
6
ByLayer
370
-1
48
1.0
60
0
100
AcDbLine
10
21.7235094225062
20
932.018700413367
30
0.0
11
27.8235095655573
21
932.018700413365
31
0.0
39
0.0
210
0.0
220
0.0
230
1.0
0
ARC
5
D6
330
70
100
AcDbEntity
67
0
8
IV_MARK_SURFACE_BACK
62
256
6
ByLayer
370
-1
48
1.0
60
0
100
AcDbCircle
39
0.0
10
25.585508638182
20
928.724433494467
30
0.0
40
2.27960081845226
210
0.0
220
0.0
230
1.0
100
AcDbArc
50
349.037313611631
51
33.5825513363626
0
ARC
5
D7
330
70
100
AcDbEntity
67
0
8
IV_MARK_SURFACE_BACK
62
256
6
ByLayer
370
-1
48
1.0
60
0
100
AcDbCircle
39
0.0
10
26.3681832893125
20
928.351116406926
30
0.0
40
1.45657058564167
210
0.0
220
0.0
230
1.0
100
AcDbArc
50
210.440951957154
51
357.631534978645
0
LINE
5
D8
330
70
100
AcDbEntity
67
0
8
IV_MARK_SURFACE_BACK
62
256
6
ByLayer
370
-1
48
1.0
60
0
100
AcDbLine
10
25.1123983908662
20
927.613144754495
30
0.0
11
24.0957317003583
21
929.307589238677
31
0.0
39
0.0
210
0.0
220
0.0
230
1.0
0
ARC
5
D9
330
70
100
AcDbEntity
67
0
8
IV_MARK_SURFACE_BACK
62
256
6
ByLayer
370
-1
48
1.0
60
0
100
AcDbCircle
39
0.0
10
22.936055975845
20
928.618979483068
30
0.0
40
1.34871464051702
210
0.0
220
0.0
230
1.0
100
AcDbArc
50
30.7016327603199
51
130.373722823591
0
ARC
5
DA
330
70
100
AcDbEntity
67
0
8
IV_MARK_SURFACE_BACK
62
256
6
ByLayer
370
-1
48
1.0
60
0
100
AcDbCircle
39
0.0
10
24.5815502813046
20
928.290922548168
30
0.0
40
2.86070927531049
210
0.0
220
0.0
230
1.0
100
AcDbArc
50
151.715306715913
51
208.284693284042
0
ARC
5
DB
330
70
100
AcDbEntity
67
0
8
IV_MARK_SURFACE_BACK
62
256
6
ByLayer
370
-1
48
1.0
60
0
100
AcDbCircle
39
0.0
10
24.9171934599744
20
910.542189601714
30
0.0
40
3.5208148287279
210
0.0
220
0.0
230
1.0
100
AcDbArc
50
86.821713949413
51
155.105799114689
0
LINE
5
DC
330
70
100
AcDbEntity
67
0
8
IV_MARK_SURFACE_BACK
62
256
6
ByLayer
370
-1
48
1.0
60
0
100
AcDbLine
10
25.1123983908608
20
914.057588881049
30
0.0
11
26.4679539782055
21
914.057588881048
31
0.0
39
0.0
210
0.0
220
0.0
230
1.0
0
ARC
5
DD
330
70
100
AcDbEntity
67
0
8
IV_MARK_SURFACE_BACK
62
256
6
ByLayer
370
-1
48
1.0
60
0
100
AcDbCircle
39
0.0
10
26.467953978205
20
912.702033293703
30
0.0
40
1.3555555873447
210
0.0
220
0.0
230
1.0
100
AcDbArc
50
270.0
51
90.0
0
LINE
5
DE
330
70
100
AcDbEntity
67
0
8
IV_MARK_SURFACE_BACK
62
256
6
ByLayer
370
-1
48
1.0
60
0
100
AcDbLine
10
26.4679539782044
20
911.346477706359
30
0.0
11
25.7901761845321
21
911.346477706359
31
0.0
39
0.0
210
0.0
220
0.0
230
1.0
0
ARC
5
DF
330
70
100
AcDbEntity
67
0
8
IV_MARK_SURFACE_BACK
62
256
6
ByLayer
370
-1
48
1.0
60
0
100
AcDbCircle
39
0.0
10
25.7901761845326
20
912.702033293704
30
0.0
40
1.3555555873447
210
0.0
220
0.0
230
1.0
100
AcDbArc
50
179.999999999976
51
270.0
0
LINE
5
E0
330
70
100
AcDbEntity
67
0
8
IV_MARK_SURFACE_BACK
62
256
6
ByLayer
370
-1
48
1.0
60
0
100
AcDbLine
10
24.4346205971879
20
912.702033293704
30
0.0
11
24.4346205971883
21
913.718699984213
31
0.0
39
0.0
210
0.0
220
0.0
230
1.0
0
ARC
5
E1
330
70
100
AcDbEntity
67
0
8
IV_MARK_SURFACE_BACK
62
256
6
ByLayer
370
-1
48
1.0
60
0
100
AcDbCircle
39
0.0
10
22.8205739328104
20
907.957588737999
30
0.0
40
1.09973292682427
210
0.0
220
0.0
230
1.0
100
AcDbArc
50
112.411895014781
51
247.588104985173
0
ARC
5
E2
330
70
100
AcDbEntity
67
0
8
IV_MARK_SURFACE_BACK
62
256
6
ByLayer
370
-1
48
1.0
60
0
100
AcDbCircle
39
0.0
10
24.7735094940251
20
915.141484843086
30
0.0
40
8.53678327592282
210
0.0
220
0.0
230
1.0
100
AcDbArc
50
253.866136540391
51
286.133863459563
0
ARC
5
E3
330
70
100
AcDbEntity
67
0
8
IV_MARK_SURFACE_BACK
62
256
6
ByLayer
370
-1
48
1.0
60
0
100
AcDbCircle
39
0.0
10
26.7134006468762
20
907.957588737997
30
0.0
40
1.10477208565055
210
0.0
220
0.0
230
1.0
100
AcDbArc
50
293.037318689736
51
66.9626813102152
0
ARC
5
E4
330
70
100
AcDbEntity
67
0
8
IV_MARK_SURFACE_BACK
62
256
6
ByLayer
370
-1
48
1.0
60
0
100
AcDbCircle
39
0.0
10
24.7735094940194
20
900.773692632909
30
0.0
40
8.53678327592281
210
0.0
220
0.0
230
1.0
100
AcDbArc
50
73.8661365403912
51
106.133863459564
0
LINE
5
E5
330
70
100
AcDbEntity
67
0
8
IV_MARK_SURFACE_BACK
62
256
6
ByLayer
370
-1
48
1.0
60
0
100
AcDbLine
10
27.8235095655465
20
904.568699769635
30
0.0
11
27.8235095655458
21
902.874255285454
31
0.0
39
0.0
210
0.0
220
0.0
230
1.0
0
ARC
5
E6
330
70
100
AcDbEntity
67
0
8
IV_MARK_SURFACE_BACK
62
256
6
ByLayer
370
-1
48
1.0
60
0
100
AcDbCircle
39
0.0
10
26.4404888131418
20
903.306245885176
30
0.0
40
1.44891762354817
210
0.0
220
0.0
230
1.0
100
AcDbArc
50
271.086143387425
51
342.653651904212
0
LINE
5
E7
330
70
100
AcDbEntity
67
0
8
IV_MARK_SURFACE_BACK
62
256
6
ByLayer
370
-1
48
1.0
60
0
100
AcDbLine
10
26.4679539782007
20
901.857588594946
30
0.0
11
25.7901761845284
21
901.857588594946
31
0.0
39
0.0
210
0.0
220
0.0
230
1.0
0
ARC
5
E8
330
70
100
AcDbEntity
67
0
8
IV_MARK_SURFACE_BACK
62
256
6
ByLayer
370
-1
48
1.0
60
0
100
AcDbCircle
39
0.0
10
25.8176413495884
20
903.306245885176
30
0.0
40
1.44891762354818
210
0.0
220
0.0
230
1.0
100
AcDbArc
50
197.346348095741
51
268.91385661253
0
LINE
5
E9
330
70
100
AcDbEntity
67
0
8
IV_MARK_SURFACE_BACK
62
256
6
ByLayer
370
-1
48
1.0
60
0
100
AcDbLine
10
24.4346205971841
20
902.874255285455
30
0.0
11
24.4346205971847
21
904.568699769636
31
0.0
39
0.0
210
0.0
220
0.0
230
1.0
0
LINE
5
EA
330
70
100
AcDbEntity
67
0
8
IV_MARK_SURFACE_BACK
62
256
6
ByLayer
370
-1
48
1.0
60
0
100
AcDbLine
10
24.4346205971847
20
904.568699769636
30
0.0
11
21.7235094224953
21
904.568699769638
31
0.0
39
0.0
210
0.0
220
0.0
230
1.0
0
LINE
5
EB
330
70
100
AcDbEntity
67
0
8
IV_MARK_SURFACE_BACK
62
256
6
ByLayer
370
-1
48
1.0
60
0
100
AcDbLine
10
21.7235094224953
20
904.568699769638
30
0.0
11
21.7235094224943
21
901.857588594948
31
0.0
39
0.0
210
0.0
220
0.0
230
1.0
0
LINE
5
EC
330
70
100
AcDbEntity
67
0
8
IV_MARK_SURFACE_BACK
62
256
6
ByLayer
370
-1
48
1.0
60
0
100
AcDbLine
10
25.112398390852
20
891.690921689862
30
0.0
11
27.8235095655408
21
890.335366102516
31
0.0
39
0.0
210
0.0
220
0.0
230
1.0
0
LINE
5
ED
330
70
100
AcDbEntity
67
0
8
IV_MARK_SURFACE_BACK
62
256
6
ByLayer
370
-1
48
1.0
60
0
100
AcDbLine
10
27.8235095655337
20
872.035365673363
30
0.0
11
27.8235095655342
21
873.390921260707
31
0.0
39
0.0
210
0.0
220
0.0
230
1.0
0
ARC
5
EE
330
70
100
AcDbEntity
67
0
8
IV_MARK_SURFACE_BACK
62
256
6
ByLayer
370
-1
48
1.0
60
0
100
AcDbCircle
39
0.0
10
26.4679539781895
20
873.390921260708
30
0.0
40
1.3555555873447
210
0.0
220
0.0
230
1.0
100
AcDbArc
50
359.999999999976
51
90.0
0
LINE
5
EF
330
70
100
AcDbEntity
67
0
8
IV_MARK_SURFACE_BACK
62
256
6
ByLayer
370
-1
48
1.0
60
0
100
AcDbLine
10
26.46795397819
20
874.746476848053
30
0.0
11
23.0790650098283
21
874.746476848054
31
0.0
39
0.0
210
0.0
220
0.0
230
1.0
0
ARC
5
F0
330
70
100
AcDbEntity
67
0
8
IV_MARK_SURFACE_BACK
62
256
6
ByLayer
370
-1
48
1.0
60
0
100
AcDbCircle
39
0.0
10
23.0790650098278
20
873.39092126071
30
0.0
40
1.3555555873447
210
0.0
220
0.0
230
1.0
100
AcDbArc
50
90.0
51
179.999999999976
0
LINE
5
F1
330
70
100
AcDbEntity
67
0
8
IV_MARK_SURFACE_BACK
62
256
6
ByLayer
370
-1
48
1.0
60
0
100
AcDbLine
10
21.7235094224831
20
873.39092126071
30
0.0
11
21.7235094224825
21
872.035365673366
31
0.0
39
0.0
210
0.0
220
0.0
230
1.0
0
LINE
5
F2
330
70
100
AcDbEntity
67
0
8
IV_MARK_SURFACE_BACK
62
256
6
ByLayer
370
-1
48
1.0
60
0
100
AcDbLine
10
27.8235095655275
20
856.446476418899
30
0.0
11
27.8235095655286
21
859.157587593588
31
0.0
39
0.0
210
0.0
220
0.0
230
1.0
0
LINE
5
F3
330
70
100
AcDbEntity
67
0
8
IV_MARK_SURFACE_BACK
62
256
6
ByLayer
370
-1
48
1.0
60
0
100
AcDbLine
10
27.8235095655286
20
859.157587593588
30
0.0
11
24.4346205971668
21
859.15758759359
31
0.0
39
0.0
210
0.0
220
0.0
230
1.0
0
LINE
5
F4
330
70
100
AcDbEntity
67
0
8
IV_MARK_SURFACE_BACK
62
256
6
ByLayer
370
-1
48
1.0
60
0
100
AcDbLine
10
24.4346205971668
20
859.15758759359
30
0.0
11
21.7235094224774
21
859.157587593591
31
0.0
39
0.0
210
0.0
220
0.0
230
1.0
0
LINE
5
F5
330
70
100
AcDbEntity
67
0
8
IV_MARK_SURFACE_BACK
62
256
6
ByLayer
370
-1
48
1.0
60
0
100
AcDbLine
10
21.7235094224774
20
859.157587593591
30
0.0
11
21.7235094224764
21
856.446476418902
31
0.0
39
0.0
210
0.0
220
0.0
230
1.0
0
LINE
5
F6
330
70
100
AcDbEntity
67
0
8
IV_MARK_SURFACE_BACK
62
256
6
ByLayer
370
-1
48
1.0
60
0
100
AcDbLine
10
24.4346205971668
20
859.15758759359
30
0.0
11
24.434620597166
21
857.124254212573
31
0.0
39
0.0
210
0.0
220
0.0
230
1.0
0
LINE
5
F7
330
70
100
AcDbEntity
67
0
8
IV_MARK_SURFACE_BACK
62
256
6
ByLayer
370
-1
48
1.0
60
0
100
AcDbLine
10
27.8235095655224
20
843.568698339124
30
0.0
11
24.7735094939961
21
841.535364958109
31
0.0
39
0.0
210
0.0
220
0.0
230
1.0
0
LINE
5
F8
330
70
100
AcDbEntity
67
0
8
IV_MARK_SURFACE_BACK
62
256
6
ByLayer
370
-1
48
1.0
60
0
100
AcDbLine
10
21.7235094224713
20
843.568698339127
30
0.0
11
24.7735094939961
21
841.535364958109
31
0.0
39
0.0
210
0.0
220
0.0
230
1.0
0
LINE
5
F9
330
70
100
AcDbEntity
67
0
8
IV_MARK_SURFACE_BACK
62
256
6
ByLayer
370
-1
48
1.0
60
0
100
AcDbLine
10
24.7735094939961
20
841.535364958109
30
0.0
11
21.7235094224697
21
839.502031577093
31
0.0
39
0.0
210
0.0
220
0.0
230
1.0
0
LINE
5
FA
330
70
100
AcDbEntity
67
0
8
IV_MARK_SURFACE_BACK
62
256
6
ByLayer
370
-1
48
1.0
60
0
100
AcDbLine
10
24.7735094939961
20
841.535364958109
30
0.0
11
27.8235095655209
21
839.50203157709
31
0.0
39
0.0
210
0.0
220
0.0
230
1.0
0
LINE
5
FB
330
70
100
AcDbEntity
67
0
8
IV_MARK_SURFACE_BACK
62
256
6
ByLayer
370
-1
48
1.0
60
0
100
AcDbLine
10
27.8235095655201
20
837.468698196073
30
0.0
11
21.7235094224689
21
837.468698196076
31
0.0
39
0.0
210
0.0
220
0.0
230
1.0
0
LINE
5
FC
330
70
100
AcDbEntity
67
0
8
IV_MARK_SURFACE_BACK
62
256
6
ByLayer
370
-1
48
1.0
60
0
100
AcDbLine
10
27.8235095655186
20
833.740920330875
30
0.0
11
21.7235094224674
21
833.740920330878
31
0.0
39
0.0
210
0.0
220
0.0
230
1.0
0
LINE
5
FD
330
70
100
AcDbEntity
67
0
8
IV_MARK_SURFACE_BACK
62
256
6
ByLayer
370
-1
48
1.0
60
0
100
AcDbLine
10
21.7235094224681
20
835.435364815059
30
0.0
11
21.7235094224674
21
833.740920330878
31
0.0
39
0.0
210
0.0
220
0.0
230
1.0
0
LINE
5
FE
330
70
100
AcDbEntity
67
0
8
IV_MARK_SURFACE_BACK
62
256
6
ByLayer
370
-1
48
1.0
60
0
100
AcDbLine
10
21.7235094224674
20
833.740920330878
30
0.0
11
21.7235094224668
21
832.046475846697
31
0.0
39
0.0
210
0.0
220
0.0
230
1.0
0
LINE
5
FF
330
70
100
AcDbEntity
67
0
8
IV_MARK_SURFACE_BACK
62
256
6
ByLayer
370
-1
48
1.0
60
0
100
AcDbLine
10
45.9523617639893
20
926.596478063979
30
0.0
11
39.852361620939
21
928.629811444998
31
0.0
39
0.0
210
0.0
220
0.0
230
1.0
0
LINE
5
100
330
70
100
AcDbEntity
67
0
8
IV_MARK_SURFACE_BACK
62
256
6
ByLayer
370
-1
48
1.0
60
0
100
AcDbLine
10
39.852361620939
20
928.629811444998
30
0.0
11
45.9523617639909
21
930.663144826013
31
0.0
39
0.0
210
0.0
220
0.0
230
1.0
0
LINE
5
101
330
70
100
AcDbEntity
67
0
8
IV_MARK_SURFACE_BACK
62
256
6
ByLayer
370
-1
48
1.0
60
0
100
AcDbLine
10
44.2579172798098
20
929.985367032342
30
0.0
11
44.2579172798087
21
927.274255857652
31
0.0
39
0.0
210
0.0
220
0.0
230
1.0
0
LINE
5
102
330
70
100
AcDbEntity
67
0
8
IV_MARK_SURFACE_BACK
62
256
6
ByLayer
370
-1
48
1.0
60
0
100
AcDbLine
10
45.9523617639867
20
919.818700127256
30
0.0
11
43.2412505892973
21
919.818700127257
31
0.0
39
0.0
210
0.0
220
0.0
230
1.0
0
LINE
5
103
330
70
100
AcDbEntity
67
0
8
IV_MARK_SURFACE_BACK
62
256
6
ByLayer
370
-1
48
1.0
60
0
100
AcDbLine
10
43.2412505892973
20
919.818700127257
30
0.0
11
39.8523616209355
21
919.818700127258
31
0.0
39
0.0
210
0.0
220
0.0
230
1.0
0
LINE
5
104
330
70
100
AcDbEntity
67
0
8
IV_MARK_SURFACE_BACK
62
256
6
ByLayer
370
-1
48
1.0
60
0
100
AcDbLine
10
42.2245838987884
20
918.802033436748
30
0.0
11
43.2412505892973
21
919.818700127257
31
0.0
39
0.0
210
0.0
220
0.0
230
1.0
0
LINE
5
105
330
70
100
AcDbEntity
67
0
8
IV_MARK_SURFACE_BACK
62
256
6
ByLayer
370
-1
48
1.0
60
0
100
AcDbLine
10
39.8523616209342
20
916.429811158896
30
0.0
11
42.2245838987884
21
918.802033436748
31
0.0
39
0.0
210
0.0
220
0.0
230
1.0
0
LINE
5
106
330
70
100
AcDbEntity
67
0
8
IV_MARK_SURFACE_BACK
62
256
6
ByLayer
370
-1
48
1.0
60
0
100
AcDbLine
10
42.2245838987884
20
918.802033436748
30
0.0
11
45.9523617639854
21
916.429811158894
31
0.0
39
0.0
210
0.0
220
0.0
230
1.0
0
LINE
5
107
330
70
100
AcDbEntity
67
0
8
IV_MARK_SURFACE_BACK
62
256
6
ByLayer
370
-1
48
1.0
60
0
100
AcDbLine
10
42.5634727956307
20
934.390922691212
30
0.0
11
42.5634727956313
21
936.085367175393
31
0.0
39
0.0
210
0.0
220
0.0
230
1.0
0
LINE
5
108
330
70
100
AcDbEntity
67
0
8
IV_MARK_SURFACE_BACK
62
256
6
ByLayer
370
-1
48
1.0
60
0
100
AcDbLine
10
24.4346205971768
20
884.574254856302
30
0.0
11
24.4346205971775
21
886.268699340483
31
0.0
39
0.0
210
0.0
220
0.0
230
1.0
0
ARC
5
109
330
70
100
AcDbEntity
67
0
8
IV_OUTER_PROFILE
62
256
6
ByLayer
370
-1
48
1.0
60
0
100
AcDbCircle
39
0.0
10
44.0000001
20
7.24264082854063
30
0.0
40
6.0
210
0.0
220
0.0
230
1.0
100
AcDbArc
50
270.0
51
0.0
0
LINE
5
10A
330
70
100
AcDbEntity
67
0
8
IV_OUTER_PROFILE
62
256
6
ByLayer
370
-1
48
1.0
60
0
100
AcDbLine
10
44.0000001000001
20
1.24264082854069
30
0.0
11
0.0000001
21
1.24264082854069
31
0.0
39
0.0
210
0.0
220
0.0
230
1.0
0
LINE
5
10B
330
70
100
AcDbEntity
67
0
8
IV_OUTER_PROFILE
62
256
6
ByLayer
370
-1
48
1.0
60
0
100
AcDbLine
10
50.0000001
20
29.6926408285407
30
0.0
11
50.0000001
21
7.24264082854063
31
0.0
39
0.0
210
0.0
220
0.0
230
1.0
0
LINE
5
10C
330
70
100
AcDbEntity
67
0
8
IV_OUTER_PROFILE
62
256
6
ByLayer
370
-1
48
1.0
60
0
100
AcDbLine
10
50.0000001
20
29.6926408285407
30
0.0
11
24.0000001000001
21
29.6926408285407
31
0.0
39
0.0
210
0.0
220
0.0
230
1.0
0
LINE
5
10D
330
70
100
AcDbEntity
67
0
8
IV_OUTER_PROFILE
62
256
6
ByLayer
370
-1
48
1.0
60
0
100
AcDbLine
10
24.0000001000001
20
29.6926408285407
30
0.0
11
24.0000001000001
21
32.7926408285407
31
0.0
39
0.0
210
0.0
220
0.0
230
1.0
0
LINE
5
10E
330
70
100
AcDbEntity
67
0
8
IV_OUTER_PROFILE
62
256
6
ByLayer
370
-1
48
1.0
60
0
100
AcDbLine
10
24.0000001000001
20
32.7926408285407
30
0.0
11
50.0000001
21
32.7926408285408
31
0.0
39
0.0
210
0.0
220
0.0
230
1.0
0
LINE
5
10F
330
70
100
AcDbEntity
67
0
8
IV_OUTER_PROFILE
62
256
6
ByLayer
370
-1
48
1.0
60
0
100
AcDbLine
10
50.0000001000001
20
369.692640828541
30
0.0
11
50.0000001
21
32.7926408285408
31
0.0
39
0.0
210
0.0
220
0.0
230
1.0
0
LINE
5
110
330
70
100
AcDbEntity
67
0
8
IV_OUTER_PROFILE
62
256
6
ByLayer
370
-1
48
1.0
60
0
100
AcDbLine
10
50.0000001000001
20
369.692640828541
30
0.0
11
24.0000001000001
21
369.692640828541
31
0.0
39
0.0
210
0.0
220
0.0
230
1.0
0
LINE
5
111
330
70
100
AcDbEntity
67
0
8
IV_OUTER_PROFILE
62
256
6
ByLayer
370
-1
48
1.0
60
0
100
AcDbLine
10
24.0000001000001
20
369.692640828541
30
0.0
11
24.0000001000001
21
372.792640828541
31
0.0
39
0.0
210
0.0
220
0.0
230
1.0
0
LINE
5
112
330
70
100
AcDbEntity
67
0
8
IV_OUTER_PROFILE
62
256
6
ByLayer
370
-1
48
1.0
60
0
100
AcDbLine
10
24.0000001000001
20
372.792640828541
30
0.0
11
50.0000001000001
21
372.792640828541
31
0.0
39
0.0
210
0.0
220
0.0
230
1.0
0
LINE
5
113
330
70
100
AcDbEntity
67
0
8
IV_OUTER_PROFILE
62
256
6
ByLayer
370
-1
48
1.0
60
0
100
AcDbLine
10
50.0000001000002
20
709.692640828541
30
0.0
11
50.0000001000001
21
372.792640828541
31
0.0
39
0.0
210
0.0
220
0.0
230
1.0
0
LINE
5
114
330
70
100
AcDbEntity
67
0
8
IV_OUTER_PROFILE
62
256
6
ByLayer
370
-1
48
1.0
60
0
100
AcDbLine
10
50.0000001000002
20
709.692640828541
30
0.0
11
24.0000001000001
21
709.692640828541
31
0.0
39
0.0
210
0.0
220
0.0
230
1.0
0
LINE
5
115
330
70
100
AcDbEntity
67
0
8
IV_OUTER_PROFILE
62
256
6
ByLayer
370
-1
48
1.0
60
0
100
AcDbLine
10
24.0000001000001
20
709.692640828541
30
0.0
11
24.0000001000001
21
712.792640828541
31
0.0
39
0.0
210
0.0
220
0.0
230
1.0
0
LINE
5
116
330
70
100
AcDbEntity
67
0
8
IV_OUTER_PROFILE
62
256
6
ByLayer
370
-1
48
1.0
60
0
100
AcDbLine
10
24.0000001000001
20
712.792640828541
30
0.0
11
50.0000001000002
21
712.792640828541
31
0.0
39
0.0
210
0.0
220
0.0
230
1.0
0
LINE
5
117
330
70
100
AcDbEntity
67
0
8
IV_OUTER_PROFILE
62
256
6
ByLayer
370
-1
48
1.0
60
0
100
AcDbLine
10
50.0000001000002
20
1049.69264082854
30
0.0
11
50.0000001000002
21
712.792640828541
31
0.0
39
0.0
210
0.0
220
0.0
230
1.0
0
LINE
5
118
330
70
100
AcDbEntity
67
0
8
IV_OUTER_PROFILE
62
256
6
ByLayer
370
-1
48
1.0
60
0
100
AcDbLine
10
50.0000001000002
20
1049.69264082854
30
0.0
11
24.0000001000001
21
1049.69264082854
31
0.0
39
0.0
210
0.0
220
0.0
230
1.0
0
LINE
5
119
330
70
100
AcDbEntity
67
0
8
IV_OUTER_PROFILE
62
256
6
ByLayer
370
-1
48
1.0
60
0
100
AcDbLine
10
24.0000001000001
20
1049.69264082854
30
0.0
11
24.0000001000001
21
1052.79264082854
31
0.0
39
0.0
210
0.0
220
0.0
230
1.0
0
LINE
5
11A
330
70
100
AcDbEntity
67
0
8
IV_OUTER_PROFILE
62
256
6
ByLayer
370
-1
48
1.0
60
0
100
AcDbLine
10
24.0000001000001
20
1052.79264082854
30
0.0
11
50.0000001000002
21
1052.79264082854
31
0.0
39
0.0
210
0.0
220
0.0
230
1.0
0
LINE
5
11B
330
70
100
AcDbEntity
67
0
8
IV_OUTER_PROFILE
62
256
6
ByLayer
370
-1
48
1.0
60
0
100
AcDbLine
10
50.0000001000002
20
1075.24264082854
30
0.0
11
50.0000001000002
21
1052.79264082854
31
0.0
39
0.0
210
0.0
220
0.0
230
1.0
0
ARC
5
11C
330
70
100
AcDbEntity
67
0
8
IV_OUTER_PROFILE
62
256
6
ByLayer
370
-1
48
1.0
60
0
100
AcDbCircle
39
0.0
10
44.0000001000002
20
1075.24264082854
30
0.0
40
6.0
210
0.0
220
0.0
230
1.0
100
AcDbArc
50
0.0
51
90.0
0
LINE
5
11D
330
70
100
AcDbEntity
67
0
8
IV_OUTER_PROFILE
62
256
6
ByLayer
370
-1
48
1.0
60
0
100
AcDbLine
10
0.0000001000002398
20
1081.24264082854
30
0.0
11
44.0000001000002
21
1081.24264082854
31
0.0
39
0.0
210
0.0
220
0.0
230
1.0
0
LINE
5
11E
330
70
100
AcDbEntity
67
0
8
IV_OUTER_PROFILE
62
256
6
ByLayer
370
-1
48
1.0
60
0
100
AcDbLine
10
0.0000001
20
1.24264082854069
30
0.0
11
0.0000001000002398
21
1081.24264082854
31
0.0
39
0.0
210
0.0
220
0.0
230
1.0
0
ENDSEC
0
SECTION
2
OBJECTS
0
DICTIONARY
5
189
330
0
100
AcDbDictionary
280
1
281
1
3
ACAD_GROUP
350
D
3
ACAD_LAYOUT
350
62
3
ACAD_DGNDEFINITIONS
350
17B
3
ACAD_DWFDEFINITIONS
350
17C
3
ACAD_PDFDEFINITIONS
350
17D
3
ACAD_MLINESTYLE
350
5F
3
ACAD_IMAGE_DICT
350
17A
3
ACAD_IMAGE_VARS
350
17E
0
DICTIONARY
5
D
330
189
100
AcDbDictionary
280
1
281
1
0
DICTIONARY
5
62
330
189
100
AcDbDictionary
280
1
281
1
3
Layout1
350
6F
3
Layout2
350
77
3
Model
350
73
0
DICTIONARY
5
17B
330
189
100
AcDbDictionary
280
1
281
1
0
DICTIONARY
5
17C
330
189
100
AcDbDictionary
280
1
281
1
0
DICTIONARY
5
17D
330
189
100
AcDbDictionary
280
1
281
1
0
DICTIONARY
5
5F
330
189
100
AcDbDictionary
280
1
281
1
3
STANDARD
350
60
0
DICTIONARY
5
17A
330
189
100
AcDbDictionary
280
1
281
1
0
DICTIONARY
5
178
330
2
100
AcDbDictionary
280
1
281
1
3
ACAD_LAYERSTATES
360
18A
0
DICTIONARY
5
18A
330
178
100
AcDbDictionary
280
1
281
1
0
LAYOUT
5
6F
330
62
100
AcDbPlotSettings
1

2

4

6

40
0.0
41
0.0
42
0.0
43
0.0
44
0.0
45
0.0
46
0.0
47
0.0
48
0.0
49
0.0
140
0.0
141
0.0
142
1.0
143
1.0
70
688
72
0
73
0
74
5
7

75
16
76
0
77
2
78
300
147
1.0
148
0.0
149
0.0
100
AcDbLayout
1
Layout1
71
1
10
0.0
20
0.0
11
12.0
21
9.0
12
0.0
22
0.0
32
0.0
14
0.0
24
0.0
34
0.0
15
0.0
25
0.0
35
0.0
146
0.0
13
0.0
23
0.0
33
0.0
16
1.0
26
0.0
36
0.0
17
0.0
27
1.0
37
0.0
76
0
330
6C
0
LAYOUT
5
77
330
62
100
AcDbPlotSettings
1

2

4

6

40
0.0
41
0.0
42
0.0
43
0.0
44
0.0
45
0.0
46
0.0
47
0.0
48
0.0
49
0.0
140
0.0
141
0.0
142
1.0
143
1.0
70
688
72
0
73
0
74
5
7

75
16
76
0
77
2
78
300
147
1.0
148
0.0
149
0.0
100
AcDbLayout
1
Layout2
71
2
10
0.0
20
0.0
11
12.0
21
9.0
12
0.0
22
0.0
32
0.0
14
0.0
24
0.0
34
0.0
15
0.0
25
0.0
35
0.0
146
0.0
13
0.0
23
0.0
33
0.0
16
1.0
26
0.0
36
0.0
17
0.0
27
1.0
37
0.0
76
0
330
74
0
LAYOUT
5
73
330
62
100
AcDbPlotSettings
1

2

4

6

40
0.0
41
0.0
42
0.0
43
0.0
44
0.0
45
0.0
46
0.0
47
0.0
48
0.0
49
0.0
140
0.0
141
0.0
142
1.0
143
1.0
70
1712
72
0
73
0
74
0
7

75
0
76
0
77
2
78
300
147
1.0
148
0.0
149
0.0
100
AcDbLayout
1
Model
71
3
10
0.0
20
0.0
11
12.0
21
9.0
12
0.0
22
0.0
32
0.0
14
0.0
24
0.0
34
0.0
15
0.0
25
0.0
35
0.0
146
0.0
13
0.0
23
0.0
33
0.0
16
1.0
26
0.0
36
0.0
17
0.0
27
1.0
37
0.0
76
0
330
70
0
MLINESTYLE
5
60
330
5F
100
AcDbMlineStyle
2
STANDARD
70
0
3

62
256
51
90.0
52
90.0
71
2
49
0.5
62
256
6
ByLayer
49
-0.5
62
256
6
ByLayer
0
RASTERVARIABLES
5
17E
330
17A
100
AcDbRasterVariables
90
0
70
1
71
1
72
0
0
ENDSEC
0
EOF
