999
autodxfXMIN:1,26174849E-07
999
autodxfXMAX:50,00000012617499
999
autodxfYMIN:1,397940252E-07
999
autodxfYMAX:857,5822152930486
0
SECTION
2
HEADER
9
$ACADVER
1
AC1015
9
$DWGCODEPAGE
3
ANSI_1251
9
$HANDSEED
5
19C
9
$ANGBASE
50
0.0
9
$ANGDIR
70
0
9
$ATTMODE
70
1
9
$AUNITS
70
0
9
$AUPREC
70
0
9
$CECOLOR
62
256
9
$CELTSCALE
40
1.0
9
$CELTYPE
6
ByLayer
9
$CELWEIGHT
370
-1
9
$CLAYER
8
0
9
$CMLJUST
70
0
9
$CMLSCALE
40
1.0
9
$CMLSTYLE
2
Standard
9
$DIMSTYLE
2
Standard
9
$TEXTSIZE
40
0.2
9
$TEXTSTYLE
7
Standard
9
$LUNITS
70
2
9
$LUPREC
70
4
9
$MIRRTEXT
70
0
9
$EXTNAMES
290
1
9
$INSBASE
10
0.0
20
0.0
30
0.0
9
$INSUNITS
70
4
9
$LTSCALE
40
1.0
9
$LWDISPLAY
290
0
9
$PDMODE
70
0
9
$PDSIZE
40
0.0
9
$PLINEGEN
70
0
9
$PSLTSCALE
70
1
9
$SPLINESEGS
70
6
9
$SURFU
70
6
9
$SURFV
70
6
9
$TDCREATE
40
2460567.59387731
9
$TDUCREATE
40
2460567.4688773
9
$TDUPDATE
40
2460567.59387731
9
$TDUUPDATE
40
2460567.4688773
9
$TDINDWG
40
0.0000115740740741
9
$UCSORG
10
0.0
20
0.0
30
0.0
9
$UCSXDIR
10
1.0
20
0.0
30
0.0
9
$UCSYDIR
10
0.0
20
1.0
30
0.0
9
$DIMADEC
70
0
9
$DIMALT
70
0
9
$DIMALTD
70
2
9
$DIMALTF
40
25.4
9
$DIMALTRND
40
0.0
9
$DIMALTTD
70
2
9
$DIMALTTZ
70
0
9
$DIMALTU
70
2
9
$DIMALTZ
70
0
9
$DIMAPOST
1

9
$DIMATFIT
70
3
9
$DIMAUNIT
70
0
9
$DIMASZ
40
0.18
9
$DIMAZIN
70
3
9
$DIMSAH
70
0
9
$DIMBLK
1

9
$DIMLDRBLK
1

9
$DIMCEN
40
0.09
9
$DIMCLRD
70
0
9
$DIMCLRE
70
0
9
$DIMCLRT
70
0
9
$DIMDEC
70
4
9
$DIMDLE
40
0.0
9
$DIMDLI
40
0.38
9
$DIMDSEP
70
46
9
$DIMEXE
40
0.18
9
$DIMEXO
40
0.0625
9
$DIMFXLON
70
0
9
$DIMFXL
40
1.0
9
$DIMGAP
40
0.09
9
$DIMJUST
70
0
9
$DIMLFAC
40
1.0
9
$DIMLUNIT
70
2
9
$DIMLWD
70
-2
9
$DIMLWE
70
-2
9
$DIMPOST
1

9
$DIMRND
40
0.0
9
$DIMSCALE
40
1.0
9
$DIMSD1
70
0
9
$DIMSD2
70
0
9
$DIMSE1
70
0
9
$DIMSE2
70
0
9
$DIMSOXD
70
0
9
$DIMTAD
70
0
9
$DIMTDEC
70
4
9
$DIMTFAC
40
1.0
9
$DIMTIH
70
0
9
$DIMTIX
70
0
9
$DIMTM
40
0.0
9
$DIMTMOVE
70
0
9
$DIMTOFL
70
0
9
$DIMTOH
70
0
9
$DIMTOL
70
0
9
$DIMLIM
70
0
9
$DIMTOLJ
70
1
9
$DIMTP
40
0.0
9
$DIMTXT
40
0.18
9
$DIMTXTDIRECTION
70
0
9
$DIMTZIN
70
0
9
$DIMZIN
70
0
9
$DIMFRAC
70
0
9
$DIMLTYPE
6
ByBlock
9
$DIMLTEX1
6
ByBlock
9
$DIMLTEX2
6
ByBlock
9
$EXTMIN
10
0.0
20
0.0
30
0.0
9
$EXTMAX
10
51.2426408285407
20
858.824855981795
30
0.0
9
$LIMMIN
10
0.0
20
0.0
9
$LIMMAX
10
51.2426408285407
20
858.824855981795
9
$ORTHOMODE
70
0
9
$REGENMODE
70
1
9
$FILLMODE
70
1
9
$QTEXTMODE
70
0
9
$TRACEWID
40
0.05
9
$DISPSILH
70
0
9
$SKETCHINC
40
0.1
9
$FILLETRAD
40
0.0
9
$MENU
1
.
9
$ELEVATION
40
0.0
9
$PELEVATION
40
0.0
9
$THICKNESS
40
0.0
9
$LIMCHECK
70
0
9
$CHAMFERA
40
0.0
9
$CHAMFERB
40
0.0
9
$CHAMFERC
40
0.0
9
$CHAMFERD
40
0.0
9
$SKPOLY
70
0
9
$TDUSRTIMER
40
0.0000115741
9
$USRTIMER
70
1
9
$PLINEWID
40
0.0
9
$SPLFRAME
70
0
9
$SPLINETYPE
70
6
9
$SURFTAB1
70
6
9
$SURFTAB2
70
6
9
$SURFTYPE
70
6
9
$UCSBASE
2

9
$UCSNAME
2

9
$UCSORTHOREF
2

9
$UCSORTHOVIEW
70
0
9
$UCSORGTOP
10
0.0
20
0.0
30
0.0
9
$UCSORGBOTTOM
10
0.0
20
0.0
30
0.0
9
$UCSORGLEFT
10
0.0
20
0.0
30
0.0
9
$UCSORGRIGHT
10
0.0
20
0.0
30
0.0
9
$UCSORGFRONT
10
0.0
20
0.0
30
0.0
9
$UCSORGBACK
10
0.0
20
0.0
30
0.0
9
$PUCSBASE
2

9
$PUCSNAME
2

9
$PUCSORG
10
0.0
20
0.0
30
0.0
9
$PUCSXDIR
10
1.0
20
0.0
30
0.0
9
$PUCSYDIR
10
0.0
20
1.0
30
0.0
9
$PUCSORTHOREF
2

9
$PUCSORTHOVIEW
70
0
9
$PUCSORGTOP
10
0.0
20
0.0
30
0.0
9
$PUCSORGBOTTOM
10
0.0
20
0.0
30
0.0
9
$PUCSORGLEFT
10
0.0
20
0.0
30
0.0
9
$PUCSORGRIGHT
10
0.0
20
0.0
30
0.0
9
$PUCSORGFRONT
10
0.0
20
0.0
30
0.0
9
$PUCSORGBACK
10
0.0
20
0.0
30
0.0
9
$USERI1
70
0
9
$USERI2
70
0
9
$USERI3
70
0
9
$USERI4
70
0
9
$USERI5
70
0
9
$USERR1
40
0.0
9
$USERR2
40
0.0
9
$USERR3
40
0.0
9
$USERR4
40
0.0
9
$USERR5
40
0.0
9
$WORLDVIEW
70
1
9
$SHADEDGE
70
3
9
$SHADEDIF
70
70
9
$TILEMODE
70
1
9
$MAXACTVP
70
64
9
$PINSBASE
10
0.0
20
0.0
30
0.0
9
$PLIMCHECK
70
0
9
$PEXTMIN
10
0.0
20
0.0
30
0.0
9
$PEXTMAX
10
51.2426408285407
20
858.824855981795
30
0.0
9
$PLIMMIN
10
0.0
20
0.0
9
$PLIMMAX
10
51.2426408285407
20
858.824855981795
9
$UNITMODE
70
0
9
$VISRETAIN
70
1
9
$TREEDEPTH
70
3020
9
$PROXYGRAPHICS
70
1
9
$MEASUREMENT
70
1
9
$ENDCAPS
280
0
9
$JOINSTYLE
280
0
9
$HYPERLINKBASE
1

9
$STYLESHEET
1

9
$XEDIT
290
1
9
$CEPSNTYPE
380
0
9
$PSTYLEMODE
290
1
9
$FINGERPRINTGUID
2
{85311854-512A-684B-9DB5-7A5EFA11B895}
9
$VERSIONGUID
2
{3F0EF810-9269-7549-AEAF-10E555F089D6}
9
$PSVPSCALE
40
0.0
9
$OLESTARTUP
290
0
0
ENDSEC
0
SECTION
2
CLASSES
0
CLASS
1
RASTERVARIABLES
2
AcDbRasterVariables
3
ISM
90
0
280
0
281
0
0
ENDSEC
0
SECTION
2
TABLES
0
TABLE
2
APPID
5
9
330
0
100
AcDbSymbolTable
70
7
0
APPID
5
56
330
9
100
AcDbSymbolTableRecord
100
AcDbRegAppTableRecord
2
ACAD
70
0
0
APPID
5
5E
330
9
100
AcDbSymbolTableRecord
100
AcDbRegAppTableRecord
2
AcadAnnotative
70
0
0
APPID
5
177
330
9
100
AcDbSymbolTableRecord
100
AcDbRegAppTableRecord
2
ACAD_MLEADERVER
70
0
0
APPID
5
196
330
9
100
AcDbSymbolTableRecord
100
AcDbRegAppTableRecord
2
AcCmTransparency
70
0
0
APPID
5
197
330
9
100
AcDbSymbolTableRecord
100
AcDbRegAppTableRecord
2
AcAecLayerStandard
70
0
0
APPID
5
198
330
9
100
AcDbSymbolTableRecord
100
AcDbRegAppTableRecord
2
GradientColor1ACI
70
0
0
APPID
5
199
330
9
100
AcDbSymbolTableRecord
100
AcDbRegAppTableRecord
2
GradientColor2ACI
70
0
0
ENDTAB
0
TABLE
2
VPORT
5
8
330
0
100
AcDbSymbolTable
70
1
0
VPORT
5
188
330
8
100
AcDbSymbolTableRecord
100
AcDbViewportTableRecord
2
*Active
70
0
10
0.0
20
0.0
11
1.0
21
1.0
12
25.0000001261749
22
428.791107716421
13
0.0
23
0.0
14
0.5
24
0.5
15
10.0
25
10.0
16
0.0
26
0.0
36
1.0
17
0.0
27
0.0
37
0.0
40
943.338
41
1.0
75
0
76
1
0
ENDTAB
0
TABLE
2
LTYPE
5
5
330
0
100
AcDbSymbolTable
70
48
0
LTYPE
5
5B
330
5
100
AcDbSymbolTableRecord
100
AcDbLinetypeTableRecord
2
ByBlock
70
0
3

72
65
73
0
40
0.0
0
LTYPE
5
5C
330
5
100
AcDbSymbolTableRecord
100
AcDbLinetypeTableRecord
2
ByLayer
70
0
3

72
65
73
0
40
0.0
0
LTYPE
5
5D
330
5
100
AcDbSymbolTableRecord
100
AcDbLinetypeTableRecord
2
Continuous
70
0
3
Solid line
72
65
73
0
40
0.0
0
LTYPE
5
78
330
5
100
AcDbSymbolTableRecord
100
AcDbLinetypeTableRecord
2
BORDER
70
0
3
Border __ __ . __ __ . __ __ . __ __ . __ __ .
72
65
73
6
40
1.75
49
0.5
74
0
49
-0.25
74
0
49
0.5
74
0
49
-0.25
74
0
49
0.0
74
0
49
-0.25
74
0
0
LTYPE
5
79
330
5
100
AcDbSymbolTableRecord
100
AcDbLinetypeTableRecord
2
BORDER2
70
0
3
Border (.5x) __.__.__.__.__.__.__.__.__.__.__.
72
65
73
6
40
0.875
49
0.25
74
0
49
-0.125
74
0
49
0.25
74
0
49
-0.125
74
0
49
0.0
74
0
49
-0.125
74
0
0
LTYPE
5
7A
330
5
100
AcDbSymbolTableRecord
100
AcDbLinetypeTableRecord
2
BORDERX2
70
0
3
Border (2x) ____  ____  .  ____  ____  .  ___
72
65
73
6
40
3.5
49
1.0
74
0
49
-0.5
74
0
49
1.0
74
0
49
-0.5
74
0
49
0.0
74
0
49
-0.5
74
0
0
LTYPE
5
7B
330
5
100
AcDbSymbolTableRecord
100
AcDbLinetypeTableRecord
2
CENTER
70
0
3
Center ____ _ ____ _ ____ _ ____ _ ____ _ ____
72
65
73
4
40
2.0
49
1.25
74
0
49
-0.25
74
0
49
0.25
74
0
49
-0.25
74
0
0
LTYPE
5
7C
330
5
100
AcDbSymbolTableRecord
100
AcDbLinetypeTableRecord
2
CENTER2
70
0
3
Center (.5x) ___ _ ___ _ ___ _ ___ _ ___ _ ___
72
65
73
4
40
1.125
49
0.75
74
0
49
-0.125
74
0
49
0.125
74
0
49
-0.125
74
0
0
LTYPE
5
7D
330
5
100
AcDbSymbolTableRecord
100
AcDbLinetypeTableRecord
2
CENTERX2
70
0
3
Center (2x) ________  __  ________  __  _____
72
65
73
4
40
4.0
49
2.5
74
0
49
-0.5
74
0
49
0.5
74
0
49
-0.5
74
0
0
LTYPE
5
7E
330
5
100
AcDbSymbolTableRecord
100
AcDbLinetypeTableRecord
2
DASHDOT
70
0
3
Dash dot __ . __ . __ . __ . __ . __ . __ . __
72
65
73
4
40
1.0
49
0.5
74
0
49
-0.25
74
0
49
0.0
74
0
49
-0.25
74
0
0
LTYPE
5
7F
330
5
100
AcDbSymbolTableRecord
100
AcDbLinetypeTableRecord
2
DASHDOT2
70
0
3
Dash dot (.5x) _._._._._._._._._._._._._._._.
72
65
73
4
40
0.5
49
0.25
74
0
49
-0.125
74
0
49
0.0
74
0
49
-0.125
74
0
0
LTYPE
5
80
330
5
100
AcDbSymbolTableRecord
100
AcDbLinetypeTableRecord
2
DASHDOTX2
70
0
3
Dash dot (2x) ____  .  ____  .  ____  .  ___
72
65
73
4
40
2.0
49
1.0
74
0
49
-0.5
74
0
49
0.0
74
0
49
-0.5
74
0
0
LTYPE
5
81
330
5
100
AcDbSymbolTableRecord
100
AcDbLinetypeTableRecord
2
DASHED
70
0
3
Dashed __ __ __ __ __ __ __ __ __ __ __ __ __ _
72
65
73
2
40
0.75
49
0.5
74
0
49
-0.25
74
0
0
LTYPE
5
82
330
5
100
AcDbSymbolTableRecord
100
AcDbLinetypeTableRecord
2
DASHED2
70
0
3
Dashed (.5x) _ _ _ _ _ _ _ _ _ _ _ _ _ _ _ _ _
72
65
73
2
40
0.375
49
0.25
74
0
49
-0.125
74
0
0
LTYPE
5
83
330
5
100
AcDbSymbolTableRecord
100
AcDbLinetypeTableRecord
2
DASHEDX2
70
0
3
Dashed (2x) ____  ____  ____  ____  ____  ___
72
65
73
2
40
1.5
49
1.0
74
0
49
-0.5
74
0
0
LTYPE
5
84
330
5
100
AcDbSymbolTableRecord
100
AcDbLinetypeTableRecord
2
DIVIDE
70
0
3
Divide ____ . . ____ . . ____ . . ____ . . ____
72
65
73
6
40
1.25
49
0.5
74
0
49
-0.25
74
0
49
0.0
74
0
49
-0.25
74
0
49
0.0
74
0
49
-0.25
74
0
0
LTYPE
5
85
330
5
100
AcDbSymbolTableRecord
100
AcDbLinetypeTableRecord
2
DIVIDE2
70
0
3
Divide (.5x) __..__..__..__..__..__..__..__.._
72
65
73
6
40
0.625
49
0.25
74
0
49
-0.125
74
0
49
0.0
74
0
49
-0.125
74
0
49
0.0
74
0
49
-0.125
74
0
0
LTYPE
5
86
330
5
100
AcDbSymbolTableRecord
100
AcDbLinetypeTableRecord
2
DIVIDEX2
70
0
3
Divide (2x) ________  .  .  ________  .  .  _
72
65
73
6
40
2.5
49
1.0
74
0
49
-0.5
74
0
49
0.0
74
0
49
-0.5
74
0
49
0.0
74
0
49
-0.5
74
0
0
LTYPE
5
87
330
5
100
AcDbSymbolTableRecord
100
AcDbLinetypeTableRecord
2
DOT
70
0
3
Dot . . . . . . . . . . . . . . . . . . . . . .
72
65
73
2
40
0.25
49
0.0
74
0
49
-0.25
74
0
0
LTYPE
5
88
330
5
100
AcDbSymbolTableRecord
100
AcDbLinetypeTableRecord
2
DOT2
70
0
3
Dot (.5x) .....................................
72
65
73
2
40
0.125
49
0.0
74
0
49
-0.125
74
0
0
LTYPE
5
89
330
5
100
AcDbSymbolTableRecord
100
AcDbLinetypeTableRecord
2
DOTX2
70
0
3
Dot (2x) .  .  .  .  .  .  .  .  .  .  .  .  . 
72
65
73
2
40
0.5
49
0.0
74
0
49
-0.5
74
0
0
LTYPE
5
8A
330
5
100
AcDbSymbolTableRecord
100
AcDbLinetypeTableRecord
2
HIDDEN
70
0
3
Hidden __ __ __ __ __ __ __ __ __ __ __ __ __ _
72
65
73
2
40
0.375
49
0.25
74
0
49
-0.125
74
0
0
LTYPE
5
8B
330
5
100
AcDbSymbolTableRecord
100
AcDbLinetypeTableRecord
2
HIDDEN2
70
0
3
Hidden (.5x) _ _ _ _ _ _ _ _ _ _ _ _ _ _ _ _ _
72
65
73
2
40
0.1875
49
0.125
74
0
49
-0.0625
74
0
0
LTYPE
5
8C
330
5
100
AcDbSymbolTableRecord
100
AcDbLinetypeTableRecord
2
HIDDENX2
70
0
3
Hidden (2x) ____ ____ ____ ____ ____ ____ ____
72
65
73
2
40
0.75
49
0.5
74
0
49
-0.25
74
0
0
LTYPE
5
8D
330
5
100
AcDbSymbolTableRecord
100
AcDbLinetypeTableRecord
2
PHANTOM
70
0
3
Phantom ______  __  __  ______  __  __  ______
72
65
73
6
40
2.5
49
1.25
74
0
49
-0.25
74
0
49
0.25
74
0
49
-0.25
74
0
49
0.25
74
0
49
-0.25
74
0
0
LTYPE
5
8E
330
5
100
AcDbSymbolTableRecord
100
AcDbLinetypeTableRecord
2
PHANTOM2
70
0
3
Phantom (.5x) ___ _ _ ___ _ _ ___ _ _ ___ _ _
72
65
73
6
40
1.25
49
0.625
74
0
49
-0.125
74
0
49
0.125
74
0
49
-0.125
74
0
49
0.125
74
0
49
-0.125
74
0
0
LTYPE
5
8F
330
5
100
AcDbSymbolTableRecord
100
AcDbLinetypeTableRecord
2
PHANTOMX2
70
0
3
Phantom (2x) ____________    ____    ____   _
72
65
73
6
40
5.0
49
2.5
74
0
49
-0.5
74
0
49
0.5
74
0
49
-0.5
74
0
49
0.5
74
0
49
-0.5
74
0
0
LTYPE
5
90
330
5
100
AcDbSymbolTableRecord
100
AcDbLinetypeTableRecord
2
ACAD_ISO02W100
70
0
3
ISO dash __ __ __ __ __ __ __ __ __ __ __ __ __
72
65
73
2
40
15.0
49
12.0
74
0
49
-3.0
74
0
0
LTYPE
5
91
330
5
100
AcDbSymbolTableRecord
100
AcDbLinetypeTableRecord
2
ACAD_ISO03W100
70
0
3
ISO dash space __    __    __    __    __    __
72
65
73
2
40
30.0
49
12.0
74
0
49
-18.0
74
0
0
LTYPE
5
92
330
5
100
AcDbSymbolTableRecord
100
AcDbLinetypeTableRecord
2
ACAD_ISO04W100
70
0
3
ISO long-dash dot ____ . ____ . ____ . ____ . _
72
65
73
4
40
30.0
49
24.0
74
0
49
-3.0
74
0
49
0.0
74
0
49
-3.0
74
0
0
LTYPE
5
93
330
5
100
AcDbSymbolTableRecord
100
AcDbLinetypeTableRecord
2
ACAD_ISO05W100
70
0
3
ISO long-dash double-dot ____ .. ____ .. ____ .
72
65
73
6
40
33.0
49
24.0
74
0
49
-3.0
74
0
49
0.0
74
0
49
-3.0
74
0
49
0.0
74
0
49
-3.0
74
0
0
LTYPE
5
94
330
5
100
AcDbSymbolTableRecord
100
AcDbLinetypeTableRecord
2
ACAD_ISO06W100
70
0
3
ISO long-dash triple-dot ____ ... ____ ... ____
72
65
73
8
40
36.0
49
24.0
74
0
49
-3.0
74
0
49
0.0
74
0
49
-3.0
74
0
49
0.0
74
0
49
-3.0
74
0
49
0.0
74
0
49
-3.0
74
0
0
LTYPE
5
95
330
5
100
AcDbSymbolTableRecord
100
AcDbLinetypeTableRecord
2
ACAD_ISO07W100
70
0
3
ISO dot . . . . . . . . . . . . . . . . . . . .
72
65
73
2
40
3.0
49
0.0
74
0
49
-3.0
74
0
0
LTYPE
5
96
330
5
100
AcDbSymbolTableRecord
100
AcDbLinetypeTableRecord
2
ACAD_ISO08W100
70
0
3
ISO long-dash short-dash ____ __ ____ __ ____ _
72
65
73
4
40
36.0
49
24.0
74
0
49
-3.0
74
0
49
6.0
74
0
49
-3.0
74
0
0
LTYPE
5
97
330
5
100
AcDbSymbolTableRecord
100
AcDbLinetypeTableRecord
2
ACAD_ISO09W100
70
0
3
ISO long-dash double-short-dash ____ __ __ ____
72
65
73
6
40
45.0
49
24.0
74
0
49
-3.0
74
0
49
6.0
74
0
49
-3.0
74
0
49
6.0
74
0
49
-3.0
74
0
0
LTYPE
5
98
330
5
100
AcDbSymbolTableRecord
100
AcDbLinetypeTableRecord
2
ACAD_ISO10W100
70
0
3
ISO dash dot __ . __ . __ . __ . __ . __ . __ .
72
65
73
4
40
18.0
49
12.0
74
0
49
-3.0
74
0
49
0.0
74
0
49
-3.0
74
0
0
LTYPE
5
99
330
5
100
AcDbSymbolTableRecord
100
AcDbLinetypeTableRecord
2
ACAD_ISO11W100
70
0
3
ISO double-dash dot __ __ . __ __ . __ __ . __ 
72
65
73
6
40
33.0
49
12.0
74
0
49
-3.0
74
0
49
12.0
74
0
49
-3.0
74
0
49
0.0
74
0
49
-3.0
74
0
0
LTYPE
5
9A
330
5
100
AcDbSymbolTableRecord
100
AcDbLinetypeTableRecord
2
ACAD_ISO12W100
70
0
3
ISO dash double-dot __ . . __ . . __ . . __ . .
72
65
73
6
40
21.0
49
12.0
74
0
49
-3.0
74
0
49
0.0
74
0
49
-3.0
74
0
49
0.0
74
0
49
-3.0
74
0
0
LTYPE
5
9B
330
5
100
AcDbSymbolTableRecord
100
AcDbLinetypeTableRecord
2
ACAD_ISO13W100
70
0
3
ISO double-dash double-dot __ __ . . __ __ . . 
72
65
73
8
40
36.0
49
12.0
74
0
49
-3.0
74
0
49
12.0
74
0
49
-3.0
74
0
49
0.0
74
0
49
-3.0
74
0
49
0.0
74
0
49
-3.0
74
0
0
LTYPE
5
9C
330
5
100
AcDbSymbolTableRecord
100
AcDbLinetypeTableRecord
2
ACAD_ISO14W100
70
0
3
ISO dash triple-dot __ . . . __ . . . __ . . . 
72
65
73
8
40
24.0
49
12.0
74
0
49
-3.0
74
0
49
0.0
74
0
49
-3.0
74
0
49
0.0
74
0
49
-3.0
74
0
49
0.0
74
0
49
-3.0
74
0
0
LTYPE
5
9D
330
5
100
AcDbSymbolTableRecord
100
AcDbLinetypeTableRecord
2
ACAD_ISO15W100
70
0
3
ISO double-dash triple-dot __ __ . . . __ __ . 
72
65
73
10
40
39.0
49
12.0
74
0
49
-3.0
74
0
49
12.0
74
0
49
-3.0
74
0
49
0.0
74
0
49
-3.0
74
0
49
0.0
74
0
49
-3.0
74
0
49
0.0
74
0
49
-3.0
74
0
0
LTYPE
5
A0
330
5
100
AcDbSymbolTableRecord
100
AcDbLinetypeTableRecord
2
FENCELINE1
70
0
3
Fenceline circle ----0-----0----0-----0----0---
72
65
73
3
40
1.35
49
0.25
74
0
49
-0.1
74
0
49
1.0
74
0
0
LTYPE
5
A1
330
5
100
AcDbSymbolTableRecord
100
AcDbLinetypeTableRecord
2
FENCELINE2
70
0
3
Fenceline square ----[]-----[]----[]-----[]----
72
65
73
3
40
1.35
49
0.25
74
0
49
-0.1
74
0
49
1.0
74
0
0
LTYPE
5
A2
330
5
100
AcDbSymbolTableRecord
100
AcDbLinetypeTableRecord
2
TRACKS
70
0
3
Tracks -|-|-|-|-|-|-|-|-|-|-|-|-|-|-|-|-|-|-|-|
72
65
73
1
40
0.15
49
0.15
74
0
0
LTYPE
5
A3
330
5
100
AcDbSymbolTableRecord
100
AcDbLinetypeTableRecord
2
BATTING
70
0
3
Batting SSSSSSSSSSSSSSSSSSSSSSSSSSSSSSSSSSSSSSS
72
65
73
2
40
0.1001
49
0.0001
74
0
49
-0.1
74
0
0
LTYPE
5
A4
330
5
100
AcDbSymbolTableRecord
100
AcDbLinetypeTableRecord
2
HOT_WATER_SUPPLY
70
0
3
Hot water supply ---- HW ---- HW ---- HW ----
72
65
73
3
40
0.9
49
0.5
74
0
49
-0.2
74
2
75
0
340
55
46
0.1
50
0.0
44
-0.1
45
-0.05
9
HW
49
-0.2
74
0
0
LTYPE
5
A5
330
5
100
AcDbSymbolTableRecord
100
AcDbLinetypeTableRecord
2
GAS_LINE
70
0
3
Gas line ----GAS----GAS----GAS----GAS----GAS---
72
65
73
3
40
0.95
49
0.5
74
0
49
-0.2
74
2
75
0
340
55
46
0.1
50
0.0
44
-0.1
45
-0.05
9
GAS
49
-0.25
74
0
0
LTYPE
5
A6
330
5
100
AcDbSymbolTableRecord
100
AcDbLinetypeTableRecord
2
ZIGZAG
70
0
3
Zig zag /\/\/\/\/\/\/\/\/\/\/\/\/\/\/\/\/\/\/\/
72
65
73
2
40
0.2001
49
0.0001
74
0
49
-0.2
74
0
0
ENDTAB
0
TABLE
2
LAYER
5
2
102
{ACAD_XDICTIONARY
360
189
102
}
330
0
100
AcDbSymbolTable
70
6
0
LAYER
5
54
330
2
100
AcDbSymbolTableRecord
100
AcDbLayerTableRecord
2
0
70
0
62
7
6
Continuous
290
1
370
-3
390
0
0
LAYER
5
A7
330
2
100
AcDbSymbolTableRecord
100
AcDbLayerTableRecord
2
IV_MARK_SURFACE_BACK
70
0
62
91
6
Continuous
290
1
370
25
390
0
0
LAYER
5
A8
330
2
100
AcDbSymbolTableRecord
100
AcDbLayerTableRecord
2
IV_OUTER_PROFILE
70
0
62
7
6
Continuous
290
1
370
5
390
0
0
LAYER
5
193
330
2
100
AcDbSymbolTableRecord
100
AcDbLayerTableRecord
2
AutoDXF_BendInfo
70
0
62
-3
6
Continuous
290
1
370
-3
390
0
0
LAYER
5
194
330
2
100
AcDbSymbolTableRecord
100
AcDbLayerTableRecord
2
IV_BEND
70
0
62
250
6
Continuous
290
1
370
50
390
0
0
LAYER
5
195
330
2
100
AcDbSymbolTableRecord
100
AcDbLayerTableRecord
2
IV_BEND_DOWN
70
0
62
250
6
Continuous
290
1
370
50
390
0
0
ENDTAB
0
TABLE
2
STYLE
5
3
330
0
100
AcDbSymbolTable
70
2
0
STYLE
5
55
330
3
100
AcDbSymbolTableRecord
100
AcDbTextStyleTableRecord
2
Standard
3
txt.SHX
70
0
71
0
40
0.0
41
1.0
42
0.0
50
0.0
0
STYLE
5
5A
330
3
100
AcDbSymbolTableRecord
100
AcDbTextStyleTableRecord
2
Annotative
3
txt.SHX
70
0
71
0
40
0.0
41
1.0
42
0.0
50
0.0
1001
AcadAnnotative
1000
AnnotativeData
1002
{
1070
1
1070
1
1002
}
0
STYLE
5
9F
330
18A
100
AcDbSymbolTableRecord
100
AcDbTextStyleTableRecord
2

3
ltypeshp.shx
70
1
40
0.0
41
1.0
42
0.0
50
0.0
0
ENDTAB
0
TABLE
2
DIMSTYLE
5
A
330
0
100
AcDbSymbolTable
70
2
100
AcDbDimStyleTable
0
DIMSTYLE
105
58
330
A
100
AcDbSymbolTableRecord
100
AcDbDimStyleTableRecord
2
Standard
3

4

40
1.0
41
0.18
42
0.0625
43
0.38
44
0.18
45
0.0
46
0.0
47
0.0
48
0.0
49
1.0
70
0
71
0
72
0
73
0
74
0
75
0
76
0
77
0
78
0
79
3
140
0.18
141
0.09
143
25.4
144
1.0
146
1.0
147
0.09
148
0.0
170
0
171
2
172
0
174
0
175
0
176
0
177
0
178
0
179
0
271
4
272
4
273
2
274
2
275
0
276
0
277
2
278
46
279
0
280
0
281
0
282
0
283
1
284
0
285
0
286
0
289
3
290
0
294
0
340
55
173
0
345
5B
346
5B
347
5B
371
-2
372
-2
0
DIMSTYLE
105
59
330
A
100
AcDbSymbolTableRecord
100
AcDbDimStyleTableRecord
2
Annotative
3

4

40
1.0
41
0.18
42
0.0625
43
0.38
44
0.18
45
0.0
46
0.0
47
0.0
48
0.0
49
1.0
70
0
71
0
72
0
73
0
74
0
75
0
76
0
77
0
78
0
79
3
140
0.18
141
0.09
143
25.4
144
1.0
146
1.0
147
0.09
148
0.0
170
0
171
2
172
0
174
0
175
0
176
0
177
0
178
0
179
0
271
4
272
4
273
2
274
2
275
0
276
0
277
2
278
46
279
0
280
0
281
0
282
0
283
1
284
0
285
0
286
0
289
3
290
0
294
0
340
55
173
0
345
5B
346
5B
347
5B
371
-2
372
-2
1001
AcadAnnotative
1000
AnnotativeData
1002
{
1070
1
1070
1
1002
}
0
ENDTAB
0
TABLE
2
VIEW
5
6
330
0
100
AcDbSymbolTable
70
0
0
ENDTAB
0
TABLE
2
UCS
5
7
330
0
100
AcDbSymbolTable
70
0
0
ENDTAB
0
TABLE
2
BLOCK_RECORD
5
1
330
0
100
AcDbSymbolTable
70
3
0
BLOCK_RECORD
5
70
330
1
100
AcDbSymbolTableRecord
100
AcDbBlockTableRecord
2
*Model_Space
340
73
0
BLOCK_RECORD
5
6C
330
1
100
AcDbSymbolTableRecord
100
AcDbBlockTableRecord
2
*Paper_Space
340
6F
0
BLOCK_RECORD
5
74
330
1
100
AcDbSymbolTableRecord
100
AcDbBlockTableRecord
2
*Paper_Space0
340
77
0
ENDTAB
0
ENDSEC
0
SECTION
2
BLOCKS
0
BLOCK
5
71
330
70
100
AcDbEntity
67
0
8
0
100
AcDbBlockBegin
2
*Model_Space
70
0
10
0.0
20
0.0
30
0.0
3
*Model_Space
4

0
ENDBLK
5
72
330
70
100
AcDbEntity
8
0
100
AcDbBlockEnd
0
BLOCK
5
6D
330
6C
100
AcDbEntity
67
1
8
0
100
AcDbBlockBegin
2
*Paper_Space
70
0
10
0.0
20
0.0
30
0.0
3
*Paper_Space
4

0
ENDBLK
5
6E
330
6C
100
AcDbEntity
8
0
100
AcDbBlockEnd
0
BLOCK
5
75
330
74
100
AcDbEntity
67
1
8
0
100
AcDbBlockBegin
2
*Paper_Space0
70
0
10
0.0
20
0.0
30
0.0
3
*Paper_Space0
4

0
VIEWPORT
5
191
330
74
100
AcDbEntity
67
1
8
0
62
256
6
ByLayer
370
-1
48
1.0
60
0
100
AcDbViewport
10
0.0
20
0.0
30
0.0
40
297.0
41
210.0
68
1
69
1
12
50.0
22
100.0
13
0.0
23
0.0
14
10.0
24
10.0
15
10.0
25
10.0
16
0.0
26
0.0
36
1.0
17
0.0
27
0.0
37
0.0
42
50.0
43
0.0
44
0.0
45
250.0
50
0.0
51
0.0
72
1000
90
819232
110
0.0
120
0.0
130
0.0
111
1.0
121
0.0
131
0.0
112
0.0
122
1.0
132
0.0
0
ENDBLK
5
76
330
74
100
AcDbEntity
8
0
100
AcDbBlockEnd
0
ENDSEC
0
SECTION
2
ENTITIES
0
VIEWPORT
5
190
330
6C
100
AcDbEntity
67
1
8
0
62
256
6
ByLayer
370
-1
48
1.0
60
0
100
AcDbViewport
10
0.0
20
0.0
30
0.0
40
297.0
41
210.0
68
1
69
1
12
50.0
22
100.0
13
0.0
23
0.0
14
10.0
24
10.0
15
10.0
25
10.0
16
0.0
26
0.0
36
1.0
17
0.0
27
0.0
37
0.0
42
50.0
43
0.0
44
0.0
45
250.0
50
0.0
51
0.0
72
1000
90
819232
110
0.0
120
0.0
130
0.0
111
1.0
121
0.0
131
0.0
112
0.0
122
1.0
132
0.0
0
LINE
5
A9
330
70
100
AcDbEntity
67
0
8
IV_MARK_SURFACE_BACK
62
256
6
ByLayer
370
-1
48
1.0
60
0
100
AcDbLine
10
4.77080085102309
20
286.240531387125
30
0.0
11
7.48191202571248
21
286.240531387125
31
0.0
39
0.0
210
0.0
220
0.0
230
1.0
0
LINE
5
AB
330
70
100
AcDbEntity
67
0
8
IV_MARK_SURFACE_BACK
62
256
6
ByLayer
370
-1
48
1.0
60
0
100
AcDbLine
10
7.48191202571248
20
286.240531387125
30
0.0
11
10.8708009940742
21
286.240531387124
31
0.0
39
0.0
210
0.0
220
0.0
230
1.0
0
LINE
5
AC
330
70
100
AcDbEntity
67
0
8
IV_MARK_SURFACE_BACK
62
256
6
ByLayer
370
-1
48
1.0
60
0
100
AcDbLine
10
8.49857871622124
20
287.257198077633
30
0.0
11
7.48191202571248
21
286.240531387125
31
0.0
39
0.0
210
0.0
220
0.0
230
1.0
0
LINE
5
AD
330
70
100
AcDbEntity
67
0
8
IV_MARK_SURFACE_BACK
62
256
6
ByLayer
370
-1
48
1.0
60
0
100
AcDbLine
10
10.870800994075
20
289.629420355486
30
0.0
11
8.49857871622124
21
287.257198077633
31
0.0
39
0.0
210
0.0
220
0.0
230
1.0
0
LINE
5
AE
330
70
100
AcDbEntity
67
0
8
IV_MARK_SURFACE_BACK
62
256
6
ByLayer
370
-1
48
1.0
60
0
100
AcDbLine
10
8.49857871622124
20
287.257198077633
30
0.0
11
4.77080085102382
21
289.629420355487
31
0.0
39
0.0
210
0.0
220
0.0
230
1.0
0
LINE
5
AF
330
70
100
AcDbEntity
67
0
8
IV_MARK_SURFACE_BACK
62
256
6
ByLayer
370
-1
48
1.0
60
0
100
AcDbLine
10
6.46524533520177
20
276.07386448204
30
0.0
11
6.46524533520236
21
278.784975656729
31
0.0
39
0.0
210
0.0
220
0.0
230
1.0
0
LINE
5
B0
330
70
100
AcDbEntity
67
0
8
IV_MARK_SURFACE_BACK
62
256
6
ByLayer
370
-1
48
1.0
60
0
100
AcDbLine
10
4.77080085102163
20
279.462753450402
30
0.0
11
10.8708009940723
21
277.429420069384
31
0.0
39
0.0
210
0.0
220
0.0
230
1.0
0
LINE
5
B1
330
70
100
AcDbEntity
67
0
8
IV_MARK_SURFACE_BACK
62
256
6
ByLayer
370
-1
48
1.0
60
0
100
AcDbLine
10
10.8708009940723
20
277.429420069384
30
0.0
11
4.77080085102076
21
275.396086688368
31
0.0
39
0.0
210
0.0
220
0.0
230
1.0
0
LINE
5
B2
330
70
100
AcDbEntity
67
0
8
IV_MARK_SURFACE_BACK
62
256
6
ByLayer
370
-1
48
1.0
60
0
100
AcDbLine
10
22.8996530494816
20
398.412756239894
30
0.0
11
28.9996531925327
21
398.412756239893
31
0.0
39
0.0
210
0.0
220
0.0
230
1.0
0
LINE
5
B3
330
70
100
AcDbEntity
67
0
8
IV_MARK_SURFACE_BACK
62
256
6
ByLayer
370
-1
48
1.0
60
0
100
AcDbLine
10
28.9996531925323
20
396.718311755712
30
0.0
11
28.9996531925327
21
398.412756239893
31
0.0
39
0.0
210
0.0
220
0.0
230
1.0
0
LINE
5
B4
330
70
100
AcDbEntity
67
0
8
IV_MARK_SURFACE_BACK
62
256
6
ByLayer
370
-1
48
1.0
60
0
100
AcDbLine
10
28.9996531925327
20
398.412756239893
30
0.0
11
28.9996531925331
21
400.107200724074
31
0.0
39
0.0
210
0.0
220
0.0
230
1.0
0
LINE
5
B5
330
70
100
AcDbEntity
67
0
8
IV_MARK_SURFACE_BACK
62
256
6
ByLayer
370
-1
48
1.0
60
0
100
AcDbLine
10
22.8996530494807
20
394.684978374697
30
0.0
11
28.9996531925319
21
394.684978374695
31
0.0
39
0.0
210
0.0
220
0.0
230
1.0
0
LINE
5
B6
330
70
100
AcDbEntity
67
0
8
IV_MARK_SURFACE_BACK
62
256
6
ByLayer
370
-1
48
1.0
60
0
100
AcDbLine
10
22.8996530494794
20
388.584978231645
30
0.0
11
25.9496531210054
21
390.618311612662
31
0.0
39
0.0
210
0.0
220
0.0
230
1.0
0
LINE
5
B7
330
70
100
AcDbEntity
67
0
8
IV_MARK_SURFACE_BACK
62
256
6
ByLayer
370
-1
48
1.0
60
0
100
AcDbLine
10
28.9996531925306
20
388.584978231644
30
0.0
11
25.9496531210054
21
390.618311612662
31
0.0
39
0.0
210
0.0
220
0.0
230
1.0
0
LINE
5
B8
330
70
100
AcDbEntity
67
0
8
IV_MARK_SURFACE_BACK
62
256
6
ByLayer
370
-1
48
1.0
60
0
100
AcDbLine
10
25.9496531210054
20
390.618311612662
30
0.0
11
28.9996531925315
21
392.651644993678
31
0.0
39
0.0
210
0.0
220
0.0
230
1.0
0
LINE
5
B9
330
70
100
AcDbEntity
67
0
8
IV_MARK_SURFACE_BACK
62
256
6
ByLayer
370
-1
48
1.0
60
0
100
AcDbLine
10
25.9496531210054
20
390.618311612662
30
0.0
11
22.8996530494803
21
392.651644993679
31
0.0
39
0.0
210
0.0
220
0.0
230
1.0
0
LINE
5
BA
330
70
100
AcDbEntity
67
0
8
IV_MARK_SURFACE_BACK
62
256
6
ByLayer
370
-1
48
1.0
60
0
100
AcDbLine
10
22.8996530494766
20
375.707200151871
30
0.0
11
22.8996530494761
21
372.996088977181
31
0.0
39
0.0
210
0.0
220
0.0
230
1.0
0
LINE
5
BB
330
70
100
AcDbEntity
67
0
8
IV_MARK_SURFACE_BACK
62
256
6
ByLayer
370
-1
48
1.0
60
0
100
AcDbLine
10
22.8996530494761
20
372.996088977181
30
0.0
11
26.2885420178378
21
372.996088977181
31
0.0
39
0.0
210
0.0
220
0.0
230
1.0
0
LINE
5
BC
330
70
100
AcDbEntity
67
0
8
IV_MARK_SURFACE_BACK
62
256
6
ByLayer
370
-1
48
1.0
60
0
100
AcDbLine
10
26.2885420178378
20
372.996088977181
30
0.0
11
28.9996531925272
21
372.99608897718
31
0.0
39
0.0
210
0.0
220
0.0
230
1.0
0
LINE
5
BD
330
70
100
AcDbEntity
67
0
8
IV_MARK_SURFACE_BACK
62
256
6
ByLayer
370
-1
48
1.0
60
0
100
AcDbLine
10
28.9996531925272
20
372.99608897718
30
0.0
11
28.9996531925278
21
375.707200151869
31
0.0
39
0.0
210
0.0
220
0.0
230
1.0
0
LINE
5
BE
330
70
100
AcDbEntity
67
0
8
IV_MARK_SURFACE_BACK
62
256
6
ByLayer
370
-1
48
1.0
60
0
100
AcDbLine
10
26.2885420178378
20
372.996088977181
30
0.0
11
26.2885420178382
21
375.029422358198
31
0.0
39
0.0
210
0.0
220
0.0
230
1.0
0
LINE
5
BF
330
70
100
AcDbEntity
67
0
8
IV_MARK_SURFACE_BACK
62
256
6
ByLayer
370
-1
48
1.0
60
0
100
AcDbLine
10
22.8996530494733
20
360.118310897407
30
0.0
11
22.899653049473
21
358.762755310062
31
0.0
39
0.0
210
0.0
220
0.0
230
1.0
0
ARC
5
C0
330
70
100
AcDbEntity
67
0
8
IV_MARK_SURFACE_BACK
62
256
6
ByLayer
370
-1
48
1.0
60
0
100
AcDbCircle
39
0.0
10
24.2552086368177
20
358.762755310062
30
0.0
40
1.3555555873447
210
0.0
220
0.0
230
1.0
100
AcDbArc
50
179.999999999988
51
270.0
0
LINE
5
C1
330
70
100
AcDbEntity
67
0
8
IV_MARK_SURFACE_BACK
62
256
6
ByLayer
370
-1
48
1.0
60
0
100
AcDbLine
10
24.2552086368174
20
357.407199722717
30
0.0
11
27.6440976051791
21
357.407199722716
31
0.0
39
0.0
210
0.0
220
0.0
230
1.0
0
ARC
5
C2
330
70
100
AcDbEntity
67
0
8
IV_MARK_SURFACE_BACK
62
256
6
ByLayer
370
-1
48
1.0
60
0
100
AcDbCircle
39
0.0
10
27.6440976051794
20
358.762755310061
30
0.0
40
1.3555555873447
210
0.0
220
0.0
230
1.0
100
AcDbArc
50
270.0
51
359.999999999988
0
LINE
5
C3
330
70
100
AcDbEntity
67
0
8
IV_MARK_SURFACE_BACK
62
256
6
ByLayer
370
-1
48
1.0
60
0
100
AcDbLine
10
28.9996531925241
20
358.762755310061
30
0.0
11
28.9996531925244
21
360.118310897405
31
0.0
39
0.0
210
0.0
220
0.0
230
1.0
0
LINE
5
C4
330
70
100
AcDbEntity
67
0
8
IV_MARK_SURFACE_BACK
62
256
6
ByLayer
370
-1
48
1.0
60
0
100
AcDbLine
10
25.6107642241596
20
345.884977230287
30
0.0
11
28.9996531925213
21
345.884977230286
31
0.0
39
0.0
210
0.0
220
0.0
230
1.0
0
LINE
5
C5
330
70
100
AcDbEntity
67
0
8
IV_MARK_SURFACE_BACK
62
256
6
ByLayer
370
-1
48
1.0
60
0
100
AcDbLine
10
28.9996531925213
20
345.884977230286
30
0.0
11
28.9996531925217
21
347.579421714467
31
0.0
39
0.0
210
0.0
220
0.0
230
1.0
0
ARC
5
C6
330
70
100
AcDbEntity
67
0
8
IV_MARK_SURFACE_BACK
62
256
6
ByLayer
370
-1
48
1.0
60
0
100
AcDbCircle
39
0.0
10
27.3052087083408
20
347.579421714468
30
0.0
40
1.69444448418087
210
0.0
220
0.0
230
1.0
100
AcDbArc
50
359.999999999993
51
179.99999999999
0
LINE
5
C7
330
70
100
AcDbEntity
67
0
8
IV_MARK_SURFACE_BACK
62
256
6
ByLayer
370
-1
48
1.0
60
0
100
AcDbLine
10
25.6107642241599
20
347.579421714468
30
0.0
11
25.6107642241596
21
345.884977230287
31
0.0
39
0.0
210
0.0
220
0.0
230
1.0
0
LINE
5
C8
330
70
100
AcDbEntity
67
0
8
IV_MARK_SURFACE_BACK
62
256
6
ByLayer
370
-1
48
1.0
60
0
100
AcDbLine
10
22.8996530494702
20
345.884977230288
30
0.0
11
25.6107642241596
21
345.884977230287
31
0.0
39
0.0
210
0.0
220
0.0
230
1.0
0
LINE
5
C9
330
70
100
AcDbEntity
67
0
8
IV_MARK_SURFACE_BACK
62
256
6
ByLayer
370
-1
48
1.0
60
0
100
AcDbLine
10
28.9996531925199
20
339.107199293563
30
0.0
11
28.9996531925194
21
337.073865912546
31
0.0
39
0.0
210
0.0
220
0.0
230
1.0
0
ARC
5
CA
330
70
100
AcDbEntity
67
0
8
IV_MARK_SURFACE_BACK
62
256
6
ByLayer
370
-1
48
1.0
60
0
100
AcDbCircle
39
0.0
10
27.6440976051747
20
337.073865912546
30
0.0
40
1.3555555873447
210
0.0
220
0.0
230
1.0
100
AcDbArc
50
270.0
51
359.999999999988
0
LINE
5
CB
330
70
100
AcDbEntity
67
0
8
IV_MARK_SURFACE_BACK
62
256
6
ByLayer
370
-1
48
1.0
60
0
100
AcDbLine
10
27.6440976051744
20
335.718310325201
30
0.0
11
24.2552086368127
21
335.718310325202
31
0.0
39
0.0
210
0.0
220
0.0
230
1.0
0
ARC
5
CC
330
70
100
AcDbEntity
67
0
8
IV_MARK_SURFACE_BACK
62
256
6
ByLayer
370
-1
48
1.0
60
0
100
AcDbCircle
39
0.0
10
24.255208636813
20
337.073865912547
30
0.0
40
1.3555555873447
210
0.0
220
0.0
230
1.0
100
AcDbArc
50
179.999999999988
51
270.0
0
LINE
5
CD
330
70
100
AcDbEntity
67
0
8
IV_MARK_SURFACE_BACK
62
256
6
ByLayer
370
-1
48
1.0
60
0
100
AcDbLine
10
22.8996530494683
20
337.073865912547
30
0.0
11
22.8996530494687
21
339.107199293564
31
0.0
39
0.0
210
0.0
220
0.0
230
1.0
0
LINE
5
CE
330
70
100
AcDbEntity
67
0
8
IV_MARK_SURFACE_BACK
62
256
6
ByLayer
370
-1
48
1.0
60
0
100
AcDbLine
10
22.8996530494687
20
339.107199293564
30
0.0
11
26.2885420178305
21
339.107199293563
31
0.0
39
0.0
210
0.0
220
0.0
230
1.0
0
LINE
5
CF
330
70
100
AcDbEntity
67
0
8
IV_MARK_SURFACE_BACK
62
256
6
ByLayer
370
-1
48
1.0
60
0
100
AcDbLine
10
26.2885420178305
20
339.107199293563
30
0.0
11
26.2885420178302
21
338.090532603055
31
0.0
39
0.0
210
0.0
220
0.0
230
1.0
0
LINE
5
D0
330
70
100
AcDbEntity
67
0
8
IV_MARK_SURFACE_BACK
62
256
6
ByLayer
370
-1
48
1.0
60
0
100
AcDbLine
10
25.610764224155
20
324.873865626444
30
0.0
11
22.8996530494659
21
326.22942121379
31
0.0
39
0.0
210
0.0
220
0.0
230
1.0
0
LINE
5
D1
330
70
100
AcDbEntity
67
0
8
IV_MARK_SURFACE_BACK
62
256
6
ByLayer
370
-1
48
1.0
60
0
100
AcDbLine
10
22.8996530494644
20
319.11275438023
30
0.0
11
28.9996531925155
21
319.112754380229
31
0.0
39
0.0
210
0.0
220
0.0
230
1.0
0
LINE
5
D2
330
70
100
AcDbEntity
67
0
8
IV_MARK_SURFACE_BACK
62
256
6
ByLayer
370
-1
48
1.0
60
0
100
AcDbLine
10
28.9996531925152
20
317.418309896048
30
0.0
11
28.9996531925155
21
319.112754380229
31
0.0
39
0.0
210
0.0
220
0.0
230
1.0
0
LINE
5
D3
330
70
100
AcDbEntity
67
0
8
IV_MARK_SURFACE_BACK
62
256
6
ByLayer
370
-1
48
1.0
60
0
100
AcDbLine
10
28.9996531925155
20
319.112754380229
30
0.0
11
28.9996531925159
21
320.807198864409
31
0.0
39
0.0
210
0.0
220
0.0
230
1.0
0
LINE
5
D4
330
70
100
AcDbEntity
67
0
8
IV_MARK_SURFACE_BACK
62
256
6
ByLayer
370
-1
48
1.0
60
0
100
AcDbLine
10
22.8996530494606
20
301.490531744749
30
0.0
11
22.8996530494608
21
302.507198435258
31
0.0
39
0.0
210
0.0
220
0.0
230
1.0
0
ARC
5
D5
330
70
100
AcDbEntity
67
0
8
IV_MARK_SURFACE_BACK
62
256
6
ByLayer
370
-1
48
1.0
60
0
100
AcDbCircle
39
0.0
10
24.5940975336417
20
302.507198435257
30
0.0
40
1.69444448418087
210
0.0
220
0.0
230
1.0
100
AcDbArc
50
359.99999999999
51
179.999999999986
0
LINE
5
D6
330
70
100
AcDbEntity
67
0
8
IV_MARK_SURFACE_BACK
62
256
6
ByLayer
370
-1
48
1.0
60
0
100
AcDbLine
10
26.2885420178225
20
302.507198435257
30
0.0
11
26.2885420178225
21
302.168309538421
31
0.0
39
0.0
210
0.0
220
0.0
230
1.0
0
ARC
5
D7
330
70
100
AcDbEntity
67
0
8
IV_MARK_SURFACE_BACK
62
256
6
ByLayer
370
-1
48
1.0
60
0
100
AcDbCircle
39
0.0
10
27.9025886821972
20
298.101642776386
30
0.0
40
1.09973292682427
210
0.0
220
0.0
230
1.0
100
AcDbArc
50
292.411895014793
51
67.5881049851823
0
ARC
5
D8
330
70
100
AcDbEntity
67
0
8
IV_MARK_SURFACE_BACK
62
256
6
ByLayer
370
-1
48
1.0
60
0
100
AcDbCircle
39
0.0
10
25.9496531209839
20
290.917746671298
30
0.0
40
8.53678327592282
210
0.0
220
0.0
230
1.0
100
AcDbArc
50
73.8661365404015
51
106.133863459574
0
ARC
5
D9
330
70
100
AcDbEntity
67
0
8
IV_MARK_SURFACE_BACK
62
256
6
ByLayer
370
-1
48
1.0
60
0
100
AcDbCircle
39
0.0
10
24.0097619681314
20
298.101642776387
30
0.0
40
1.10477208565055
210
0.0
220
0.0
230
1.0
100
AcDbArc
50
113.037318689747
51
246.962681310229
0
ARC
5
DA
330
70
100
AcDbEntity
67
0
8
IV_MARK_SURFACE_BACK
62
256
6
ByLayer
370
-1
48
1.0
60
0
100
AcDbCircle
39
0.0
10
25.949653120987
20
305.285538881475
30
0.0
40
8.53678327592282
210
0.0
220
0.0
230
1.0
100
AcDbArc
50
253.866136540402
51
286.133863459574
0
ARC
5
DB
330
70
100
AcDbEntity
67
0
8
IV_MARK_SURFACE_BACK
62
256
6
ByLayer
370
-1
48
1.0
60
0
100
AcDbCircle
39
0.0
10
25.8059691550337
20
295.51704191267
30
0.0
40
3.5208148287279
210
0.0
220
0.0
230
1.0
100
AcDbArc
50
266.821713949423
51
335.105799114698
0
LINE
5
DC
330
70
100
AcDbEntity
67
0
8
IV_MARK_SURFACE_BACK
62
256
6
ByLayer
370
-1
48
1.0
60
0
100
AcDbLine
10
25.6107642241479
20
292.001642633336
30
0.0
11
24.2552086368032
21
292.001642633336
31
0.0
39
0.0
210
0.0
220
0.0
230
1.0
0
ARC
5
DD
330
70
100
AcDbEntity
67
0
8
IV_MARK_SURFACE_BACK
62
256
6
ByLayer
370
-1
48
1.0
60
0
100
AcDbCircle
39
0.0
10
24.2552086368035
20
293.357198220681
30
0.0
40
1.3555555873447
210
0.0
220
0.0
230
1.0
100
AcDbArc
50
90.0
51
270.0
0
LINE
5
DE
330
70
100
AcDbEntity
67
0
8
IV_MARK_SURFACE_BACK
62
256
6
ByLayer
370
-1
48
1.0
60
0
100
AcDbLine
10
24.2552086368038
20
294.712753808025
30
0.0
11
24.9329864304761
21
294.712753808025
31
0.0
39
0.0
210
0.0
220
0.0
230
1.0
0
ARC
5
DF
330
70
100
AcDbEntity
67
0
8
IV_MARK_SURFACE_BACK
62
256
6
ByLayer
370
-1
48
1.0
60
0
100
AcDbCircle
39
0.0
10
24.9329864304759
20
293.35719822068
30
0.0
40
1.3555555873447
210
0.0
220
0.0
230
1.0
100
AcDbArc
50
359.999999999988
51
90.0
0
LINE
5
E0
330
70
100
AcDbEntity
67
0
8
IV_MARK_SURFACE_BACK
62
256
6
ByLayer
370
-1
48
1.0
60
0
100
AcDbLine
10
26.2885420178206
20
293.35719822068
30
0.0
11
26.2885420178203
21
292.340531530172
31
0.0
39
0.0
210
0.0
220
0.0
230
1.0
0
ARC
5
E1
330
70
100
AcDbEntity
67
0
8
IV_MARK_SURFACE_BACK
62
256
6
ByLayer
370
-1
48
1.0
60
0
100
AcDbCircle
39
0.0
10
25.1376539768293
20
277.334798019917
30
0.0
40
2.27960081845226
210
0.0
220
0.0
230
1.0
100
AcDbArc
50
169.037313611644
51
213.582551336371
0
ARC
5
E2
330
70
100
AcDbEntity
67
0
8
IV_MARK_SURFACE_BACK
62
256
6
ByLayer
370
-1
48
1.0
60
0
100
AcDbCircle
39
0.0
10
24.3549793256988
20
277.708115107458
30
0.0
40
1.45657058564167
210
0.0
220
0.0
230
1.0
100
AcDbArc
50
30.4409519571697
51
177.631534978664
0
LINE
5
E3
330
70
100
AcDbEntity
67
0
8
IV_MARK_SURFACE_BACK
62
256
6
ByLayer
370
-1
48
1.0
60
0
100
AcDbLine
10
25.610764224145
20
278.446086759889
30
0.0
11
26.6274309146531
21
276.751642275708
31
0.0
39
0.0
210
0.0
220
0.0
230
1.0
0
ARC
5
E4
330
70
100
AcDbEntity
67
0
8
IV_MARK_SURFACE_BACK
62
256
6
ByLayer
370
-1
48
1.0
60
0
100
AcDbCircle
39
0.0
10
27.7871066391663
20
277.440252031317
30
0.0
40
1.34871464051702
210
0.0
220
0.0
230
1.0
100
AcDbArc
50
210.701632760324
51
310.373722823601
0
ARC
5
E5
330
70
100
AcDbEntity
67
0
8
IV_MARK_SURFACE_BACK
62
256
6
ByLayer
370
-1
48
1.0
60
0
100
AcDbCircle
39
0.0
10
26.1416123337066
20
277.768308966216
30
0.0
40
2.86070927531049
210
0.0
220
0.0
230
1.0
100
AcDbArc
50
331.715306715924
51
28.2846932840534
0
LINE
5
E6
330
70
100
AcDbEntity
67
0
8
IV_MARK_SURFACE_BACK
62
256
6
ByLayer
370
-1
48
1.0
60
0
100
AcDbLine
10
22.8996530494537
20
269.973864338985
30
0.0
11
28.9996531925049
21
269.973864338984
31
0.0
39
0.0
210
0.0
220
0.0
230
1.0
0
LINE
5
E7
330
70
100
AcDbEntity
67
0
8
IV_MARK_SURFACE_BACK
62
256
6
ByLayer
370
-1
48
1.0
60
0
100
AcDbLine
10
28.9996531925049
20
269.973864338984
30
0.0
11
25.6107642241436
21
272.007197720001
31
0.0
39
0.0
210
0.0
220
0.0
230
1.0
0
LINE
5
E8
330
70
100
AcDbEntity
67
0
8
IV_MARK_SURFACE_BACK
62
256
6
ByLayer
370
-1
48
1.0
60
0
100
AcDbLine
10
25.6107642241436
20
272.007197720001
30
0.0
11
28.9996531925058
21
274.040531101018
31
0.0
39
0.0
210
0.0
220
0.0
230
1.0
0
LINE
5
E9
330
70
100
AcDbEntity
67
0
8
IV_MARK_SURFACE_BACK
62
256
6
ByLayer
370
-1
48
1.0
60
0
100
AcDbLine
10
28.9996531925058
20
274.040531101018
30
0.0
11
22.8996530494546
21
274.040531101019
31
0.0
39
0.0
210
0.0
220
0.0
230
1.0
0
LINE
5
EA
330
70
100
AcDbEntity
67
0
8
IV_MARK_SURFACE_BACK
62
256
6
ByLayer
370
-1
48
1.0
60
0
100
AcDbLine
10
22.8996530494567
20
283.868309109268
30
0.0
11
22.8996530494565
21
282.512753521923
31
0.0
39
0.0
210
0.0
220
0.0
230
1.0
0
ARC
5
EB
330
70
100
AcDbEntity
67
0
8
IV_MARK_SURFACE_BACK
62
256
6
ByLayer
370
-1
48
1.0
60
0
100
AcDbCircle
39
0.0
10
24.2552086368012
20
282.512753521923
30
0.0
40
1.3555555873447
210
0.0
220
0.0
230
1.0
100
AcDbArc
50
179.999999999988
51
270.0
0
LINE
5
EC
330
70
100
AcDbEntity
67
0
8
IV_MARK_SURFACE_BACK
62
256
6
ByLayer
370
-1
48
1.0
60
0
100
AcDbLine
10
24.2552086368009
20
281.157197934579
30
0.0
11
27.6440976051626
21
281.157197934577
31
0.0
39
0.0
210
0.0
220
0.0
230
1.0
0
ARC
5
ED
330
70
100
AcDbEntity
67
0
8
IV_MARK_SURFACE_BACK
62
256
6
ByLayer
370
-1
48
1.0
60
0
100
AcDbCircle
39
0.0
10
27.6440976051629
20
282.512753521922
30
0.0
40
1.3555555873447
210
0.0
220
0.0
230
1.0
100
AcDbArc
50
270.0
51
359.999999999988
0
LINE
5
EE
330
70
100
AcDbEntity
67
0
8
IV_MARK_SURFACE_BACK
62
256
6
ByLayer
370
-1
48
1.0
60
0
100
AcDbLine
10
28.9996531925076
20
282.512753521922
30
0.0
11
28.9996531925079
21
283.868309109267
31
0.0
39
0.0
210
0.0
220
0.0
230
1.0
0
ARC
5
EF
330
70
100
AcDbEntity
67
0
8
IV_MARK_SURFACE_BACK
62
256
6
ByLayer
370
-1
48
1.0
60
0
100
AcDbCircle
39
0.0
10
27.6440976051673
20
302.846087332093
30
0.0
40
1.3555555873447
210
0.0
220
0.0
230
1.0
100
AcDbArc
50
359.999999999991
51
179.999999999988
0
LINE
5
F0
330
70
100
AcDbEntity
67
0
8
IV_MARK_SURFACE_BACK
62
256
6
ByLayer
370
-1
48
1.0
60
0
100
AcDbLine
10
28.999653192512
20
302.846087332092
30
0.0
11
28.9996531925117
21
301.490531744748
31
0.0
39
0.0
210
0.0
220
0.0
230
1.0
0
ARC
5
F1
330
70
100
AcDbEntity
67
0
8
IV_MARK_SURFACE_BACK
62
256
6
ByLayer
370
-1
48
1.0
60
0
100
AcDbCircle
39
0.0
10
25.1376539768372
20
313.595909981388
30
0.0
40
2.27960081845226
210
0.0
220
0.0
230
1.0
100
AcDbArc
50
169.037313611645
51
213.582551336371
0
ARC
5
F2
330
70
100
AcDbEntity
67
0
8
IV_MARK_SURFACE_BACK
62
256
6
ByLayer
370
-1
48
1.0
60
0
100
AcDbCircle
39
0.0
10
24.3549793257066
20
313.969227068929
30
0.0
40
1.45657058564167
210
0.0
220
0.0
230
1.0
100
AcDbArc
50
30.4409519571666
51
177.631534978664
0
LINE
5
F3
330
70
100
AcDbEntity
67
0
8
IV_MARK_SURFACE_BACK
62
256
6
ByLayer
370
-1
48
1.0
60
0
100
AcDbLine
10
25.6107642241528
20
314.707198721359
30
0.0
11
26.627430914661
21
313.012754237178
31
0.0
39
0.0
210
0.0
220
0.0
230
1.0
0
ARC
5
F4
330
70
100
AcDbEntity
67
0
8
IV_MARK_SURFACE_BACK
62
256
6
ByLayer
370
-1
48
1.0
60
0
100
AcDbCircle
39
0.0
10
27.7871066391742
20
313.701363992787
30
0.0
40
1.34871464051702
210
0.0
220
0.0
230
1.0
100
AcDbArc
50
210.701632760324
51
310.373722823601
0
ARC
5
F5
330
70
100
AcDbEntity
67
0
8
IV_MARK_SURFACE_BACK
62
256
6
ByLayer
370
-1
48
1.0
60
0
100
AcDbCircle
39
0.0
10
26.1416123337145
20
314.029420927687
30
0.0
40
2.86070927531049
210
0.0
220
0.0
230
1.0
100
AcDbArc
50
331.715306715924
51
28.2846932840534
0
LINE
5
F6
330
70
100
AcDbEntity
67
0
8
IV_MARK_SURFACE_BACK
62
256
6
ByLayer
370
-1
48
1.0
60
0
100
AcDbLine
10
25.6107642241546
20
322.840532245427
30
0.0
11
28.9996531925163
21
322.840532245427
31
0.0
39
0.0
210
0.0
220
0.0
230
1.0
0
LINE
5
F7
330
70
100
AcDbEntity
67
0
8
IV_MARK_SURFACE_BACK
62
256
6
ByLayer
370
-1
48
1.0
60
0
100
AcDbLine
10
28.9996531925163
20
322.840532245427
30
0.0
11
28.9996531925167
21
324.534976729607
31
0.0
39
0.0
210
0.0
220
0.0
230
1.0
0
ARC
5
F8
330
70
100
AcDbEntity
67
0
8
IV_MARK_SURFACE_BACK
62
256
6
ByLayer
370
-1
48
1.0
60
0
100
AcDbCircle
39
0.0
10
27.3052087083358
20
324.534976729608
30
0.0
40
1.69444448418087
210
0.0
220
0.0
230
1.0
100
AcDbArc
50
359.99999999999
51
179.99999999999
0
LINE
5
F9
330
70
100
AcDbEntity
67
0
8
IV_MARK_SURFACE_BACK
62
256
6
ByLayer
370
-1
48
1.0
60
0
100
AcDbLine
10
25.610764224155
20
324.534976729608
30
0.0
11
25.6107642241546
21
322.840532245427
31
0.0
39
0.0
210
0.0
220
0.0
230
1.0
0
LINE
5
FA
330
70
100
AcDbEntity
67
0
8
IV_MARK_SURFACE_BACK
62
256
6
ByLayer
370
-1
48
1.0
60
0
100
AcDbLine
10
22.8996530494652
20
322.840532245428
30
0.0
11
25.6107642241546
21
322.840532245427
31
0.0
39
0.0
210
0.0
220
0.0
230
1.0
0
LINE
5
FB
330
70
100
AcDbEntity
67
0
8
IV_MARK_SURFACE_BACK
62
256
6
ByLayer
370
-1
48
1.0
60
0
100
AcDbLine
10
22.8996530494664
20
328.262754594807
30
0.0
11
28.9996531925175
21
328.262754594805
31
0.0
39
0.0
210
0.0
220
0.0
230
1.0
0
LINE
5
FC
330
70
100
AcDbEntity
67
0
8
IV_MARK_SURFACE_BACK
62
256
6
ByLayer
370
-1
48
1.0
60
0
100
AcDbLine
10
22.8996530494668
20
330.296087975824
30
0.0
11
28.999653192518
21
330.296087975822
31
0.0
39
0.0
210
0.0
220
0.0
230
1.0
0
LINE
5
FD
330
70
100
AcDbEntity
67
0
8
IV_MARK_SURFACE_BACK
62
256
6
ByLayer
370
-1
48
1.0
60
0
100
AcDbLine
10
28.999653192518
20
330.296087975822
30
0.0
11
22.8996530494675
21
333.684976944186
31
0.0
39
0.0
210
0.0
220
0.0
230
1.0
0
LINE
5
FE
330
70
100
AcDbEntity
67
0
8
IV_MARK_SURFACE_BACK
62
256
6
ByLayer
370
-1
48
1.0
60
0
100
AcDbLine
10
22.8996530494675
20
333.684976944186
30
0.0
11
28.9996531925187
21
333.684976944184
31
0.0
39
0.0
210
0.0
220
0.0
230
1.0
0
LINE
5
FF
330
70
100
AcDbEntity
67
0
8
IV_MARK_SURFACE_BACK
62
256
6
ByLayer
370
-1
48
1.0
60
0
100
AcDbLine
10
22.8996530494697
20
343.851643849271
30
0.0
11
22.8996530494692
21
341.140532674581
31
0.0
39
0.0
210
0.0
220
0.0
230
1.0
0
LINE
5
100
330
70
100
AcDbEntity
67
0
8
IV_MARK_SURFACE_BACK
62
256
6
ByLayer
370
-1
48
1.0
60
0
100
AcDbLine
10
22.8996530494692
20
341.140532674581
30
0.0
11
26.2885420178309
21
341.14053267458
31
0.0
39
0.0
210
0.0
220
0.0
230
1.0
0
LINE
5
101
330
70
100
AcDbEntity
67
0
8
IV_MARK_SURFACE_BACK
62
256
6
ByLayer
370
-1
48
1.0
60
0
100
AcDbLine
10
26.2885420178309
20
341.14053267458
30
0.0
11
28.9996531925203
21
341.14053267458
31
0.0
39
0.0
210
0.0
220
0.0
230
1.0
0
LINE
5
102
330
70
100
AcDbEntity
67
0
8
IV_MARK_SURFACE_BACK
62
256
6
ByLayer
370
-1
48
1.0
60
0
100
AcDbLine
10
28.9996531925203
20
341.14053267458
30
0.0
11
28.9996531925209
21
343.851643849269
31
0.0
39
0.0
210
0.0
220
0.0
230
1.0
0
LINE
5
103
330
70
100
AcDbEntity
67
0
8
IV_MARK_SURFACE_BACK
62
256
6
ByLayer
370
-1
48
1.0
60
0
100
AcDbLine
10
26.2885420178309
20
341.14053267458
30
0.0
11
26.2885420178314
21
343.173866055598
31
0.0
39
0.0
210
0.0
220
0.0
230
1.0
0
LINE
5
104
330
70
100
AcDbEntity
67
0
8
IV_MARK_SURFACE_BACK
62
256
6
ByLayer
370
-1
48
1.0
60
0
100
AcDbLine
10
25.61076422416
20
347.918310611304
30
0.0
11
22.8996530494709
21
349.273866198649
31
0.0
39
0.0
210
0.0
220
0.0
230
1.0
0
ARC
5
105
330
70
100
AcDbEntity
67
0
8
IV_MARK_SURFACE_BACK
62
256
6
ByLayer
370
-1
48
1.0
60
0
100
AcDbCircle
39
0.0
10
27.3052087083443
20
363.846088762604
30
0.0
40
1.69444448418087
210
0.0
220
0.0
230
1.0
100
AcDbArc
50
270.0
51
90.0
0
LINE
5
106
330
70
100
AcDbEntity
67
0
8
IV_MARK_SURFACE_BACK
62
256
6
ByLayer
370
-1
48
1.0
60
0
100
AcDbLine
10
24.5940975336553
20
365.540533246785
30
0.0
11
27.3052087083447
21
365.540533246785
31
0.0
39
0.0
210
0.0
220
0.0
230
1.0
0
ARC
5
107
330
70
100
AcDbEntity
67
0
8
IV_MARK_SURFACE_BACK
62
256
6
ByLayer
370
-1
48
1.0
60
0
100
AcDbCircle
39
0.0
10
24.5940975336549
20
363.846088762604
30
0.0
40
1.69444448418087
210
0.0
220
0.0
230
1.0
100
AcDbArc
50
90.0
51
270.0
0
LINE
5
108
330
70
100
AcDbEntity
67
0
8
IV_MARK_SURFACE_BACK
62
256
6
ByLayer
370
-1
48
1.0
60
0
100
AcDbLine
10
27.305208708344
20
362.151644278423
30
0.0
11
24.5940975336546
21
362.151644278423
31
0.0
39
0.0
210
0.0
220
0.0
230
1.0
0
LINE
5
109
330
70
100
AcDbEntity
67
0
8
IV_MARK_SURFACE_BACK
62
256
6
ByLayer
370
-1
48
1.0
60
0
100
AcDbLine
10
22.8996530494749
20
367.573866627803
30
0.0
11
28.999653192526
21
367.573866627801
31
0.0
39
0.0
210
0.0
220
0.0
230
1.0
0
LINE
5
10A
330
70
100
AcDbEntity
67
0
8
IV_MARK_SURFACE_BACK
62
256
6
ByLayer
370
-1
48
1.0
60
0
100
AcDbLine
10
28.999653192526
20
367.573866627801
30
0.0
11
22.8996530494756
21
370.962755596164
31
0.0
39
0.0
210
0.0
220
0.0
230
1.0
0
LINE
5
10B
330
70
100
AcDbEntity
67
0
8
IV_MARK_SURFACE_BACK
62
256
6
ByLayer
370
-1
48
1.0
60
0
100
AcDbLine
10
22.8996530494756
20
370.962755596164
30
0.0
11
28.9996531925268
21
370.962755596163
31
0.0
39
0.0
210
0.0
220
0.0
230
1.0
0
LINE
5
10C
330
70
100
AcDbEntity
67
0
8
IV_MARK_SURFACE_BACK
62
256
6
ByLayer
370
-1
48
1.0
60
0
100
AcDbLine
10
22.899653049479
20
386.551644850628
30
0.0
11
22.8996530494784
21
383.840533675939
31
0.0
39
0.0
210
0.0
220
0.0
230
1.0
0
LINE
5
10D
330
70
100
AcDbEntity
67
0
8
IV_MARK_SURFACE_BACK
62
256
6
ByLayer
370
-1
48
1.0
60
0
100
AcDbLine
10
22.8996530494784
20
383.840533675939
30
0.0
11
26.2885420178402
21
383.840533675938
31
0.0
39
0.0
210
0.0
220
0.0
230
1.0
0
LINE
5
10E
330
70
100
AcDbEntity
67
0
8
IV_MARK_SURFACE_BACK
62
256
6
ByLayer
370
-1
48
1.0
60
0
100
AcDbLine
10
26.2885420178402
20
383.840533675938
30
0.0
11
28.9996531925295
21
383.840533675938
31
0.0
39
0.0
210
0.0
220
0.0
230
1.0
0
LINE
5
10F
330
70
100
AcDbEntity
67
0
8
IV_MARK_SURFACE_BACK
62
256
6
ByLayer
370
-1
48
1.0
60
0
100
AcDbLine
10
28.9996531925295
20
383.840533675938
30
0.0
11
28.9996531925301
21
386.551644850627
31
0.0
39
0.0
210
0.0
220
0.0
230
1.0
0
LINE
5
110
330
70
100
AcDbEntity
67
0
8
IV_MARK_SURFACE_BACK
62
256
6
ByLayer
370
-1
48
1.0
60
0
100
AcDbLine
10
26.2885420178402
20
383.840533675938
30
0.0
11
26.2885420178406
21
385.873867056955
31
0.0
39
0.0
210
0.0
220
0.0
230
1.0
0
ARC
5
111
330
70
100
AcDbEntity
67
0
8
IV_MARK_SURFACE_BACK
62
256
6
ByLayer
370
-1
48
1.0
60
0
100
AcDbCircle
39
0.0
10
6.46524533520082
20
271.66830882317
30
0.0
40
1.69444448418087
210
0.0
220
0.0
230
1.0
100
AcDbArc
50
359.999999999993
51
179.999999999988
0
LINE
5
112
330
70
100
AcDbEntity
67
0
8
IV_MARK_SURFACE_BACK
62
256
6
ByLayer
370
-1
48
1.0
60
0
100
AcDbLine
10
4.77080085101994
20
271.66830882317
30
0.0
11
4.77080085101958
21
269.973864338989
31
0.0
39
0.0
210
0.0
220
0.0
230
1.0
0
LINE
5
113
330
70
100
AcDbEntity
67
0
8
IV_MARK_SURFACE_BACK
62
256
6
ByLayer
370
-1
48
1.0
60
0
100
AcDbLine
10
4.77080085101958
20
269.973864338989
30
0.0
11
8.15968981938133
21
269.973864338988
31
0.0
39
0.0
210
0.0
220
0.0
230
1.0
0
LINE
5
114
330
70
100
AcDbEntity
67
0
8
IV_MARK_SURFACE_BACK
62
256
6
ByLayer
370
-1
48
1.0
60
0
100
AcDbLine
10
8.15968981938133
20
269.973864338988
30
0.0
11
10.8708009940707
21
269.973864338988
31
0.0
39
0.0
210
0.0
220
0.0
230
1.0
0
LINE
5
115
330
70
100
AcDbEntity
67
0
8
IV_MARK_SURFACE_BACK
62
256
6
ByLayer
370
-1
48
1.0
60
0
100
AcDbLine
10
10.8708009940707
20
269.973864338988
30
0.0
11
10.8708009940711
21
271.668308823169
31
0.0
39
0.0
210
0.0
220
0.0
230
1.0
0
ARC
5
116
330
70
100
AcDbEntity
67
0
8
IV_MARK_SURFACE_BACK
62
256
6
ByLayer
370
-1
48
1.0
60
0
100
AcDbCircle
39
0.0
10
9.51524540672639
20
271.668308823169
30
0.0
40
1.3555555873447
210
0.0
220
0.0
230
1.0
100
AcDbArc
50
359.999999999991
51
179.999999999988
0
LINE
5
117
330
70
100
AcDbEntity
67
0
8
IV_MARK_SURFACE_BACK
62
256
6
ByLayer
370
-1
48
1.0
60
0
100
AcDbLine
10
4.77080085102266
20
284.207198006108
30
0.0
11
4.77080085102236
21
282.851642418764
31
0.0
39
0.0
210
0.0
220
0.0
230
1.0
0
ARC
5
118
330
70
100
AcDbEntity
67
0
8
IV_MARK_SURFACE_BACK
62
256
6
ByLayer
370
-1
48
1.0
60
0
100
AcDbCircle
39
0.0
10
6.12635643836706
20
282.851642418763
30
0.0
40
1.3555555873447
210
0.0
220
0.0
230
1.0
100
AcDbArc
50
179.999999999988
51
270.0
0
LINE
5
119
330
70
100
AcDbEntity
67
0
8
IV_MARK_SURFACE_BACK
62
256
6
ByLayer
370
-1
48
1.0
60
0
100
AcDbLine
10
6.12635643836677
20
281.496086831419
30
0.0
11
9.51524540672851
21
281.496086831418
31
0.0
39
0.0
210
0.0
220
0.0
230
1.0
0
ARC
5
11A
330
70
100
AcDbEntity
67
0
8
IV_MARK_SURFACE_BACK
62
256
6
ByLayer
370
-1
48
1.0
60
0
100
AcDbCircle
39
0.0
10
9.51524540672881
20
282.851642418763
30
0.0
40
1.3555555873447
210
0.0
220
0.0
230
1.0
100
AcDbArc
50
270.0
51
359.999999999988
0
LINE
5
11B
330
70
100
AcDbEntity
67
0
8
IV_MARK_SURFACE_BACK
62
256
6
ByLayer
370
-1
48
1.0
60
0
100
AcDbLine
10
10.8708009940735
20
282.851642418762
30
0.0
11
10.8708009940738
21
284.207198006107
31
0.0
39
0.0
210
0.0
220
0.0
230
1.0
0
LINE
5
11C
330
70
100
AcDbEntity
67
0
8
IV_MARK_SURFACE_BACK
62
256
6
ByLayer
370
-1
48
1.0
60
0
100
AcDbLine
10
8.15968981938169
20
271.668308823169
30
0.0
11
8.15968981938133
21
269.973864338988
31
0.0
39
0.0
210
0.0
220
0.0
230
1.0
0
ARC
5
11D
330
70
100
AcDbEntity
67
0
8
IV_OUTER_PROFILE
62
256
6
ByLayer
370
-1
48
1.0
60
0
100
AcDbCircle
39
0.0
10
44.0000001261748
20
851.582215293049
30
0.0
40
6.0
210
0.0
220
0.0
230
1.0
100
AcDbArc
50
0.0
51
90.0
0
LINE
5
11E
330
70
100
AcDbEntity
67
0
8
IV_OUTER_PROFILE
62
256
6
ByLayer
370
-1
48
1.0
60
0
100
AcDbLine
10
50.0000001261748
20
851.582215293049
30
0.0
11
50.000000126175
21
67.6158664070823
31
0.0
39
0.0
210
0.0
220
0.0
230
1.0
0
LINE
5
11F
330
70
100
AcDbEntity
67
0
8
IV_OUTER_PROFILE
62
256
6
ByLayer
370
-1
48
1.0
60
0
100
AcDbLine
10
0.000000126174849
20
857.582215293048
30
0.0
11
44.0000001261748
21
857.582215293048
31
0.0
39
0.0
210
0.0
220
0.0
230
1.0
0
LINE
5
120
330
70
100
AcDbEntity
67
0
8
IV_OUTER_PROFILE
62
256
6
ByLayer
370
-1
48
1.0
60
0
100
AcDbLine
10
0.0000001261748535
20
833.082215293049
30
0.0
11
0.000000126174849
21
857.582215293048
31
0.0
39
0.0
210
0.0
220
0.0
230
1.0
0
LINE
5
121
330
70
100
AcDbEntity
67
0
8
IV_OUTER_PROFILE
62
256
6
ByLayer
370
-1
48
1.0
60
0
100
AcDbLine
10
0.0000001261748535
20
833.082215293049
30
0.0
11
26.0000001261749
21
833.082215293049
31
0.0
39
0.0
210
0.0
220
0.0
230
1.0
0
LINE
5
122
330
70
100
AcDbEntity
67
0
8
IV_OUTER_PROFILE
62
256
6
ByLayer
370
-1
48
1.0
60
0
100
AcDbLine
10
26.0000001261749
20
833.082215293049
30
0.0
11
26.0000001261749
21
830.082215293048
31
0.0
39
0.0
210
0.0
220
0.0
230
1.0
0
LINE
5
123
330
70
100
AcDbEntity
67
0
8
IV_OUTER_PROFILE
62
256
6
ByLayer
370
-1
48
1.0
60
0
100
AcDbLine
10
26.0000001261749
20
830.082215293048
30
0.0
11
0.0000001261748535
21
830.082215293048
31
0.0
39
0.0
210
0.0
220
0.0
230
1.0
0
LINE
5
124
330
70
100
AcDbEntity
67
0
8
IV_OUTER_PROFILE
62
256
6
ByLayer
370
-1
48
1.0
60
0
100
AcDbLine
10
0.0000001261749112
20
510.082215293048
30
0.0
11
0.0000001261748535
21
830.082215293048
31
0.0
39
0.0
210
0.0
220
0.0
230
1.0
0
LINE
5
125
330
70
100
AcDbEntity
67
0
8
IV_OUTER_PROFILE
62
256
6
ByLayer
370
-1
48
1.0
60
0
100
AcDbLine
10
0.0000001261749112
20
510.082215293048
30
0.0
11
26.0000001261749
21
510.082215293048
31
0.0
39
0.0
210
0.0
220
0.0
230
1.0
0
LINE
5
126
330
70
100
AcDbEntity
67
0
8
IV_OUTER_PROFILE
62
256
6
ByLayer
370
-1
48
1.0
60
0
100
AcDbLine
10
26.0000001261749
20
510.082215293048
30
0.0
11
26.0000001261749
21
507.082215293048
31
0.0
39
0.0
210
0.0
220
0.0
230
1.0
0
LINE
5
127
330
70
100
AcDbEntity
67
0
8
IV_OUTER_PROFILE
62
256
6
ByLayer
370
-1
48
1.0
60
0
100
AcDbLine
10
26.0000001261749
20
507.082215293048
30
0.0
11
0.0000001261749112
21
507.082215293048
31
0.0
39
0.0
210
0.0
220
0.0
230
1.0
0
LINE
5
128
330
70
100
AcDbEntity
67
0
8
IV_OUTER_PROFILE
62
256
6
ByLayer
370
-1
48
1.0
60
0
100
AcDbLine
10
0.0000001261749689
20
187.082215293049
30
0.0
11
0.0000001261749112
21
507.082215293048
31
0.0
39
0.0
210
0.0
220
0.0
230
1.0
0
LINE
5
129
330
70
100
AcDbEntity
67
0
8
IV_OUTER_PROFILE
62
256
6
ByLayer
370
-1
48
1.0
60
0
100
AcDbLine
10
0.0000001261749689
20
187.082215293049
30
0.0
11
26.000000126175
21
187.082215293049
31
0.0
39
0.0
210
0.0
220
0.0
230
1.0
0
LINE
5
12A
330
70
100
AcDbEntity
67
0
8
IV_OUTER_PROFILE
62
256
6
ByLayer
370
-1
48
1.0
60
0
100
AcDbLine
10
26.000000126175
20
187.082215293049
30
0.0
11
26.000000126175
21
184.082215293049
31
0.0
39
0.0
210
0.0
220
0.0
230
1.0
0
LINE
5
12B
330
70
100
AcDbEntity
67
0
8
IV_OUTER_PROFILE
62
256
6
ByLayer
370
-1
48
1.0
60
0
100
AcDbLine
10
26.000000126175
20
184.082215293049
30
0.0
11
0.0000001261749689
21
184.082215293049
31
0.0
39
0.0
210
0.0
220
0.0
230
1.0
0
LINE
5
12C
330
70
100
AcDbEntity
67
0
8
IV_OUTER_PROFILE
62
256
6
ByLayer
370
-1
48
1.0
60
0
100
AcDbLine
10
0.0000001261750045
20
0.582215293048449
30
0.0
11
0.0000001261749689
21
184.082215293049
31
0.0
39
0.0
210
0.0
220
0.0
230
1.0
0
LINE
5
12D
330
70
100
AcDbEntity
67
0
8
IV_OUTER_PROFILE
62
256
6
ByLayer
370
-1
48
1.0
60
0
100
AcDbLine
10
1.77603966257267
20
0.0000001397940252
30
0.0
11
0.0000001261750045
21
0.582215293048449
31
0.0
39
0.0
210
0.0
220
0.0
230
1.0
0
LINE
5
12E
330
70
100
AcDbEntity
67
0
8
IV_OUTER_PROFILE
62
256
6
ByLayer
370
-1
48
1.0
60
0
100
AcDbLine
10
48.835569819666
20
64.063787334287
30
0.0
11
1.77603966257267
21
0.0000001397940252
31
0.0
39
0.0
210
0.0
220
0.0
230
1.0
0
ARC
5
12F
330
70
100
AcDbEntity
67
0
8
IV_OUTER_PROFILE
62
256
6
ByLayer
370
-1
48
1.0
60
0
100
AcDbCircle
39
0.0
10
44.000000126175
20
67.6158664070823
30
0.0
40
6.0
210
0.0
220
0.0
230
1.0
100
AcDbArc
50
323.699999999999
51
0.0
0
ENDSEC
0
SECTION
2
OBJECTS
0
DICTIONARY
5
19A
330
0
100
AcDbDictionary
280
1
281
1
3
ACAD_GROUP
350
D
3
ACAD_LAYOUT
350
62
3
ACAD_DGNDEFINITIONS
350
18C
3
ACAD_DWFDEFINITIONS
350
18D
3
ACAD_PDFDEFINITIONS
350
18E
3
ACAD_MLINESTYLE
350
5F
3
ACAD_IMAGE_DICT
350
18B
3
ACAD_IMAGE_VARS
350
18F
0
DICTIONARY
5
D
330
19A
100
AcDbDictionary
280
1
281
1
0
DICTIONARY
5
62
330
19A
100
AcDbDictionary
280
1
281
1
3
Layout1
350
6F
3
Layout2
350
77
3
Model
350
73
0
DICTIONARY
5
18C
330
19A
100
AcDbDictionary
280
1
281
1
0
DICTIONARY
5
18D
330
19A
100
AcDbDictionary
280
1
281
1
0
DICTIONARY
5
18E
330
19A
100
AcDbDictionary
280
1
281
1
0
DICTIONARY
5
5F
330
19A
100
AcDbDictionary
280
1
281
1
3
STANDARD
350
60
0
DICTIONARY
5
18B
330
19A
100
AcDbDictionary
280
1
281
1
0
DICTIONARY
5
189
330
2
100
AcDbDictionary
280
1
281
1
3
ACAD_LAYERSTATES
360
19B
0
DICTIONARY
5
19B
330
189
100
AcDbDictionary
280
1
281
1
0
LAYOUT
5
6F
330
62
100
AcDbPlotSettings
1

2

4

6

40
0.0
41
0.0
42
0.0
43
0.0
44
0.0
45
0.0
46
0.0
47
0.0
48
0.0
49
0.0
140
0.0
141
0.0
142
1.0
143
1.0
70
688
72
0
73
0
74
5
7

75
16
76
0
77
2
78
300
147
1.0
148
0.0
149
0.0
100
AcDbLayout
1
Layout1
71
1
10
0.0
20
0.0
11
12.0
21
9.0
12
0.0
22
0.0
32
0.0
14
0.0
24
0.0
34
0.0
15
0.0
25
0.0
35
0.0
146
0.0
13
0.0
23
0.0
33
0.0
16
1.0
26
0.0
36
0.0
17
0.0
27
1.0
37
0.0
76
0
330
6C
0
LAYOUT
5
77
330
62
100
AcDbPlotSettings
1

2

4

6

40
0.0
41
0.0
42
0.0
43
0.0
44
0.0
45
0.0
46
0.0
47
0.0
48
0.0
49
0.0
140
0.0
141
0.0
142
1.0
143
1.0
70
688
72
0
73
0
74
5
7

75
16
76
0
77
2
78
300
147
1.0
148
0.0
149
0.0
100
AcDbLayout
1
Layout2
71
2
10
0.0
20
0.0
11
12.0
21
9.0
12
0.0
22
0.0
32
0.0
14
0.0
24
0.0
34
0.0
15
0.0
25
0.0
35
0.0
146
0.0
13
0.0
23
0.0
33
0.0
16
1.0
26
0.0
36
0.0
17
0.0
27
1.0
37
0.0
76
0
330
74
0
LAYOUT
5
73
330
62
100
AcDbPlotSettings
1

2

4

6

40
0.0
41
0.0
42
0.0
43
0.0
44
0.0
45
0.0
46
0.0
47
0.0
48
0.0
49
0.0
140
0.0
141
0.0
142
1.0
143
1.0
70
1712
72
0
73
0
74
0
7

75
0
76
0
77
2
78
300
147
1.0
148
0.0
149
0.0
100
AcDbLayout
1
Model
71
3
10
0.0
20
0.0
11
12.0
21
9.0
12
0.0
22
0.0
32
0.0
14
0.0
24
0.0
34
0.0
15
0.0
25
0.0
35
0.0
146
0.0
13
0.0
23
0.0
33
0.0
16
1.0
26
0.0
36
0.0
17
0.0
27
1.0
37
0.0
76
0
330
70
0
MLINESTYLE
5
60
330
5F
100
AcDbMlineStyle
2
STANDARD
70
0
3

62
256
51
90.0
52
90.0
71
2
49
0.5
62
256
6
ByLayer
49
-0.5
62
256
6
ByLayer
0
RASTERVARIABLES
5
18F
330
18B
100
AcDbRasterVariables
90
0
70
1
71
1
72
0
0
ENDSEC
0
EOF
